<?xml version="1.0" standalone="no"?> <!DOCTYPE svg PUBLIC "-//W3C//DTD SVG 1.0//EN" "http://www.w3.org/TR/2001/REC-SVG-20010904/DTD/svg10.dtd" > <svg xmlns="http://www.w3.org/2000/svg" width="100%" height="100%">
<defs >
<font id="Calluna-Light" horiz-adv-x="1044" ><font-face
    font-family="Calluna Lght"
    units-per-em="2048"
    panose-1="0 0 4 0 0 0 0 0 0 0"
    ascent="1913"
    descent="-512"
    alphabetic="0" />
<missing-glyph horiz-adv-x="1413" d="M246 301L328 217L707 598L1085 217L1167 301L788 680L1167 1061L1087 1145L707 762L326 1145L246 1061L625 680L246 301ZM92 -109V1475H1321V-109H92Z" />
<glyph unicode=" " glyph-name="space" horiz-adv-x="464" />
<glyph unicode="!" glyph-name="exclam" horiz-adv-x="550" d="M252 340L176 1341Q258 1366 307 1383T366 1406L375 1411L379 1409Q359 1348 350 1194L295 340H252ZM160 41T160 86T192 164T270 197T348 164T381 86T348 8T270 -25T193 8Z" />
<glyph unicode="&quot;" glyph-name="quotedbl" horiz-adv-x="667" d="M131 903V1366H272V1290L190 903H131ZM432 903V1366H573V1290L492 903H432Z" />
<glyph unicode="#" glyph-name="numbersign" horiz-adv-x="1269" d="M647 -182L739 272H401L309 -182H221L313 272H59L74 354H330L397 676H135L152 758H414L502 1184H588L500 758H840L928 1184H1016L928 758H1206L1192 676H911L846 354H1130L1114 272H829L737
-182H647ZM483 676L418 354H756L823 676H483Z" />
<glyph unicode="$" glyph-name="dollar" horiz-adv-x="894" d="M78 176Q78 190 82 205T96 255T117 324H178Q178 82 387 55L406 504Q343 535 313 551T233 601T158 665T114 742T94 842Q94 959 181 1041T430 1139L438 1323H516L508 1143Q621 1141 793 1108L737 827H676Q688
917 648 991T506 1075L487 639Q571 598 609 577T706 510T791 411T817 287Q817 154 716 76T461 -12L455 -182H377L383 -12Q258 -6 168 42T78 176ZM676 233Q676 364 481 465L465 53Q557 59 616 105T676 233ZM236 897Q236 825 281 774T412 676L428 1073Q342 1063 289
1019T236 897Z" />
<glyph unicode="%" glyph-name="percent" horiz-adv-x="1441" d="M66 911T66 1036T154 1250T367 1339Q490 1339 578 1250T666 1036T578 823T367 735Q242 735 154 823ZM158 1124T158 1036T218 883T367 817Q453 817 514 882T575 1036T514 1189T367 1255Q279 1255
219 1190ZM193 0L1147 1372L1223 1319L305 0H193ZM780 150T780 274T868 487T1079 575Q1204 575 1292 487T1380 275T1292 62T1079 -27Q956 -27 868 61ZM870 274Q870 184 931 120T1079 55Q1167 55 1227 119T1288 274Q1288 362 1228 428T1079 494Q993 494 932 428T870
274Z" />
<glyph unicode="&amp;" glyph-name="ampersand" horiz-adv-x="1331" d="M82 315Q82 368 101 418T140 499T213 575T286 635T372 694Q391 706 399 713Q270 944 270 1083Q270 1210 348 1300T588 1391Q723 1391 792 1317T862 1147Q862 1079 841 1023T768 913T678 826T559
733Q700 502 918 274Q1090 483 1090 741Q1090 854 956 870V918H1241L1251 887Q1233 852 1180 686Q1082 377 965 223Q1170 18 1288 -41L1260 -80Q1088 -51 877 127Q715 -25 477 -25Q321 -25 202 64T82 315ZM520 63Q682 63 819 178Q602 377 430 659Q233 514 233 379Q233
232 314 148T520 63ZM414 1128Q414 993 524 793Q704 938 705 1096Q705 1151 694 1197T646 1283T551 1323Q490 1323 452 1270T414 1128Z" />
<glyph unicode="&apos;" glyph-name="quotesingle" horiz-adv-x="366" d="M131 903V1366H266V1290L203 903H131Z" />
<glyph unicode="(" glyph-name="parenleft" horiz-adv-x="573" d="M100 553Q100 705 133 847T212 1084T304 1254T383 1364L416 1399L481 1376Q471 1362 455 1338T396 1228T322 1054T263 828T236 553Q236 403 265 257T338 11T424 -169T497 -286L526 -324L467 -350Q453
-336 428 -311T340 -198T228 -14T140 238T100 553Z" />
<glyph unicode=")" glyph-name="parenright" horiz-adv-x="577" d="M47 -324Q59 -310 78 -284T149 -170T240 13T310 256T342 553Q342 690 317 825T254 1057T180 1229T118 1342L92 1380L158 1399Q170 1387 191 1363T268 1257T366 1083T442 848T477 553Q477 393
439 241T346 -14T237 -195T144 -312L106 -350L47 -324Z" />
<glyph unicode="*" glyph-name="asterisk" horiz-adv-x="1017" d="M438 1356Q432 1381 456 1395T505 1409T555 1395T573 1356L522 1116L506 1075Q494 1091 489 1116L438 1356ZM530 588T506 588T457 602T438 641L489 881L506 920Q518 906 522 881L573 641Q579 616
555 602ZM164 1116Q139 1124 138 1155T150 1204Q162 1224 185 1237T231 1237L414 1071Q422 1065 428 1056T436 1041L438 1036Q420 1034 395 1042L164 1116ZM780 760L598 926L573 958Q591 962 616 954L848 881Q873 873 873 842T862 793Q850 770 827 758T780 760ZM231
762Q206 748 184 760T150 793Q138 811 138 841T160 881L395 954L438 958Q432 942 414 926L231 762ZM573 1036Q579 1056 598 1071L780 1235Q805 1249 827 1237T862 1204Q874 1186 873 1155T850 1116L616 1042L573 1036Z" />
<glyph unicode="+" glyph-name="plus" horiz-adv-x="1064" d="M78 459V559H481V993H590V559H987V459H590V0H481V459H78Z" />
<glyph unicode="," glyph-name="comma" horiz-adv-x="466" d="M121 84V143L262 219Q348 139 348 4Q348 -113 301 -187T160 -336L115 -291Q250 -178 250 -78Q250 14 121 84Z" />
<glyph unicode="-" glyph-name="hyphen" horiz-adv-x="720" d="M129 446V571H592V446H129Z" />
<glyph unicode="." glyph-name="period" horiz-adv-x="471" d="M125 41T125 86T156 164T236 197Q281 197 313 164T346 86T314 8T236 -25Q189 -25 157 8Z" />
<glyph unicode="/" glyph-name="slash" horiz-adv-x="722" d="M-47 -401L635 1366H756L76 -401H-47Z" />
<glyph unicode="0" glyph-name="zero" horiz-adv-x="1146" d="M571 59Q706 59 792 190T879 492Q879 650 792 774T573 899Q440 899 354 773T268 487Q268 319 354 189T571 59ZM125 465Q125 678 247 830T590 983Q795 983 908 843T1022 508Q1022 293 899 134T557 -25Q354
-25 240 121T125 465Z" />
<glyph unicode="1" glyph-name="one" horiz-adv-x="735" d="M123 -10V55Q219 55 257 85T295 186V772Q295 844 258 868T113 893V958H618L610 897L428 874V186L418 78L629 57L621 0L123 -10Z" />
<glyph unicode="2" glyph-name="two" horiz-adv-x="944" d="M127 0L113 59Q322 248 398 339Q565 535 565 684Q565 778 514 823T383 868Q262 868 143 774L106 815Q110 821 119 832T162 873T230 924T324 964T444 983Q553 983 638 920T723 731Q723 495 293 127H600Q649
127 685 140T744 182T780 235T807 301H856L793 0H127Z" />
<glyph unicode="3" glyph-name="three" horiz-adv-x="819" d="M68 -326Q152 -328 232 -310T388 -250T509 -131T555 53Q555 180 462 234T240 289L180 285V375Q297 387 403 473T510 688Q510 772 463 826T332 881Q277 881 218 854T125 801L92 774L53 817Q67 835 93
863T204 937T379 983Q506 983 586 916T666 731Q666 625 570 522T365 373Q525 357 618 278T711 86Q711 -39 656 -135T510 -285T321 -366T119 -393L80 -391L68 -326Z" />
<glyph unicode="4" glyph-name="four" horiz-adv-x="1034" d="M66 74L51 131L690 963L758 989L760 981Q744 903 743 758V178H969L944 74H743V-268Q743 -303 740 -331T735 -371L733 -381L606 -393L598 -387Q608 -352 608 -279V74H66ZM184 178H608V606Q608 661 616
739L184 178Z" />
<glyph unicode="5" glyph-name="five" horiz-adv-x="841" d="M90 -326Q305 -330 448 -225T592 39Q592 131 542 201T419 307T275 365T153 394L102 399L131 958H547L690 971L662 831H199L182 512Q194 510 213 508T290 492T401 459T518 404T628 322T705 208T737 57Q737
-127 563 -260T162 -393L102 -391L90 -326Z" />
<glyph unicode="6" glyph-name="six" d="M543 -25Q340 -25 231 147T121 573Q121 725 165 868T294 1129T519 1319T834 1391L846 1323Q699 1317 585 1251T406 1078T307 850T274 600Q274 371 356 205T569 39Q678 39 742 147T807 393Q807 485 786 564T718 703T599
777T426 752L412 811Q512 870 621 870Q793 870 874 748T956 444Q956 260 846 118T543 -25Z" />
<glyph unicode="7" glyph-name="seven" horiz-adv-x="960" d="M262 -199Q424 63 614 481L772 834Q694 826 641 825H322Q316 825 304 825Q206 825 175 807T111 696H61L117 958H774L907 967L918 913Q857 841 823 766L387 -219Q379 -237 367 -265T349 -306T335 -336T320
-362T304 -379T286 -390T264 -393Q198 -393 199 -334Q199 -301 262 -199Z" />
<glyph unicode="8" glyph-name="eight" horiz-adv-x="1026" d="M117 324Q117 457 189 547T399 725Q288 817 228 899T168 1077Q168 1210 273 1300T541 1391Q686 1391 776 1312T866 1102Q866 1036 845 982T776 885T700 822T611 766Q596 758 590 754Q678 684 710
657T803 568T887 451T911 334Q911 193 792 84T498 -25Q344 -25 231 63T117 324ZM262 340Q262 201 334 121T510 41Q608 41 690 108T772 285Q772 340 751 390T678 493T591 576T478 667Q459 682 449 690Q262 551 262 340ZM307 1114Q307 1030 366 957T541 791Q725 916
725 1092Q725 1201 667 1263T526 1325T376 1267T307 1114Z" />
<glyph unicode="9" glyph-name="nine" horiz-adv-x="1085" d="M231 -326Q378 -322 492 -259T671 -93T770 128T803 373Q803 596 721 759T508 922Q406 922 343 811T279 563Q279 479 300 403T368 266T483 191T651 217L664 158Q570 99 457 98Q291 98 211 219T131 514Q131
698 239 840T535 983Q738 983 847 814T956 397Q956 247 912 109T783 -142T559 -324T244 -393L231 -326Z" />
<glyph unicode=":" glyph-name="colon" horiz-adv-x="555" d="M168 754T168 799T200 876T278 909T355 877T387 799T356 721T279 688T201 721ZM168 41T168 86T200 164T278 197T355 164T387 86T356 8T279 -25T201 8Z" />
<glyph unicode=";" glyph-name="semicolon" horiz-adv-x="552" d="M166 84V143L307 219Q393 139 393 4Q393 -113 346 -187T205 -336L160 -291Q295 -178 295 -78Q295 14 166 84ZM166 754T166 799T197 876T276 909Q321 909 354 877T387 799T355 721T276 688Q229
688 198 721Z" />
<glyph unicode="&lt;" glyph-name="less" horiz-adv-x="1064" d="M61 459V553L934 1022L961 913L190 506L961 78L934 -29L61 459Z" />
<glyph unicode="=" glyph-name="equal" horiz-adv-x="1064" d="M70 662V764H995V662H70ZM70 262V365H995V262H70Z" />
<glyph unicode="&gt;" glyph-name="greater" horiz-adv-x="1064" d="M104 78L874 506L104 913L131 1022L1004 553V459L131 -29L104 78Z" />
<glyph unicode="?" glyph-name="question" horiz-adv-x="696" d="M233 340Q223 385 223 438Q223 538 266 629T361 775T457 887T500 985Q500 1051 400 1124T200 1239L100 1280L127 1430Q147 1422 183 1409T309 1351T468 1261T593 1149T649 1020Q649 975 611 923T518
815T409 697T317 540T279 340H233ZM154 41T154 86T186 164T264 197Q311 197 343 164T375 86T343 8T264 -25Q219 -25 187 8Z" />
<glyph unicode="@" glyph-name="at" horiz-adv-x="1650" d="M557 385Q557 233 610 162T735 90Q837 90 958 215V850Q950 850 936 848T880 836T800 809T716 757T636 674T580 552T557 385ZM78 375Q78 713 315 963T885 1214Q1172 1214 1363 1026T1554 553Q1554 352
1452 195T1137 4L954 -27L950 -18Q966 41 967 92V176Q920 84 844 30T684 -25Q567 -25 491 75T414 338Q414 580 575 754T956 928Q1058 928 1122 911Q1093 809 1094 727V178Q1094 82 1171 82Q1208 82 1249 100T1334 160T1407 286T1436 487Q1436 763 1283 943T862
1124Q573 1124 387 919T201 399Q201 245 249 119T376 -88T549 -211T741 -258L721 -336Q445 -324 262 -120T78 375Z" />
<glyph unicode="A" glyph-name="A" horiz-adv-x="1286" d="M-18 0V55Q86 65 119 147L608 1362L678 1376L1135 215Q1158 160 1176 126T1217 78T1251 60T1294 51L1286 0H1196L915 -6V61Q968 63 994 79T1004 139L868 489H360L336 473L186 78L360 53L352 0H-18ZM645
1071Q629 1112 608 1184L373 567H838L645 1071Z" />
<glyph unicode="B" glyph-name="B" horiz-adv-x="1214" d="M111 -6V55Q263 71 262 182V1169Q262 1245 235 1270T90 1319V1366H553Q789 1366 901 1282T1014 1067Q1014 866 784 733Q819 725 853 715T939 677T1028 615T1092 520T1120 387Q1120 215 979 108T571 0H389L111
-6ZM399 70H537Q664 70 750 93T875 162T930 252T946 356Q946 417 932 466T892 548T836 604T767 641T694 661T623 671T562 672T516 670T492 668H428L410 649V182L399 70ZM410 739H635Q721 743 783 839T846 1032Q846 1134 767 1215T537 1296H428L410 1276V739Z" />
<glyph unicode="C" glyph-name="C" horiz-adv-x="1382" d="M100 670Q100 996 311 1193T842 1391Q908 1391 987 1383T1153 1363T1270 1348L1208 1038H1143Q1145 1188 1044 1254T803 1321Q570 1321 415 1151T260 721Q260 449 430 272T858 94Q975 94 1079 131T1230
205L1276 242L1303 203Q1297 193 1285 179T1228 124T1133 55T993 0T809 -25Q680 -25 557 18T331 143T164 362T100 670Z" />
<glyph unicode="D" glyph-name="D" horiz-adv-x="1515" d="M111 -6V55Q263 71 262 182V1169Q262 1245 235 1270T90 1319V1366H635Q791 1366 922 1336T1167 1236T1346 1038T1411 731Q1411 389 1181 195T551 0H389L111 -6ZM399 70H551Q739 70 877 119T1093 256T1207
451T1243 688Q1243 971 1084 1133T623 1296H428L410 1276V184L399 70Z" />
<glyph unicode="E" glyph-name="E" horiz-adv-x="1183" d="M111 -6V55Q263 71 262 182V1169Q262 1245 235 1270T90 1319V1366H918L1061 1374L997 1038H932Q940 1190 890 1243T711 1296H428L410 1276V727H801L817 844L889 856V506H797V657H428L410 637V184L399
70H733Q860 70 907 114T1036 330H1102L1026 0H389L111 -6Z" />
<glyph unicode="F" glyph-name="F" horiz-adv-x="1069" d="M113 -6V55Q185 63 224 98T264 188V1169Q264 1245 237 1270T92 1319V1366H891L1036 1374L973 1038H905Q913 1190 863 1243T684 1296H430L412 1276V717H782L799 834L872 846V494H778V645H430L412 627V188L401
78L627 59L618 6L113 -6Z" />
<glyph unicode="G" glyph-name="G" horiz-adv-x="1449" d="M100 655Q100 796 145 925T278 1160T513 1328T846 1391Q905 1391 983 1385T1116 1371T1230 1356T1298 1346L1237 1038H1171Q1169 1192 1072 1256T829 1321Q567 1321 418 1142T268 702Q268 417 450 235T926
53Q1016 53 1145 80V389Q1145 467 1115 493T956 539V586H1364L1374 561Q1366 557 1353 547T1317 487T1294 367V29Q1009 -24 840 -25Q521 -25 311 155T100 655Z" />
<glyph unicode="H" glyph-name="H" horiz-adv-x="1617" d="M106 -6V55Q178 63 218 98T258 188V1169Q258 1249 236 1272T102 1319V1366H266L463 1374L473 1366Q405 1292 406 1122V733H1206L1225 752V1169Q1225 1249 1203 1272T1069 1319V1366H1233L1430 1372L1440
1364Q1432 1356 1421 1340T1391 1261T1372 1122V188L1362 78L1550 59L1542 6L1073 -6V55Q1143 63 1184 97T1225 182V655H424L406 637V188L395 78L582 59L573 6L106 -6Z" />
<glyph unicode="I" glyph-name="I" horiz-adv-x="655" d="M106 -6V55Q174 63 216 97T258 180V1169Q258 1249 236 1272T102 1319V1366H266L463 1374L473 1366Q405 1292 406 1122V180L395 78L596 59L588 6L106 -6Z" />
<glyph unicode="J" glyph-name="J" horiz-adv-x="608" d="M242 88V1169Q242 1249 220 1272T86 1319V1366H250L446 1374L457 1366Q389 1288 389 1118V176Q389 -64 298 -199T49 -334L25 -289Q111 -277 176 -168T242 88Z" />
<glyph unicode="K" glyph-name="K" horiz-adv-x="1277" d="M106 -6V55Q176 63 217 97T258 182V1169Q258 1249 236 1272T102 1319V1366H266L463 1374L473 1366Q405 1288 406 1118V758H444Q473 776 504 805L918 1212Q953 1241 942 1276T864 1319V1366H1237L1247
1341Q1235 1339 1212 1330T1113 1270T961 1141L567 756V741L1075 180Q1145 104 1172 87T1257 63L1280 61L1272 0H1001L997 6Q974 65 836 223L434 674H406V182L395 78L582 59L573 6L106 -6Z" />
<glyph unicode="L" glyph-name="L" horiz-adv-x="1148" d="M121 -6V55Q258 69 258 182V1169Q258 1249 236 1272T102 1319V1366H266L463 1374L473 1366Q405 1292 406 1122V182L395 70H754Q881 70 931 123T1063 371H1130L1047 0H385L121 -6Z" />
<glyph unicode="M" glyph-name="M" horiz-adv-x="1832" d="M96 -6V55Q237 71 244 182L281 1169Q285 1245 257 1270T113 1319V1366H281L469 1374L477 1366Q508 1247 537 1178L874 322Q905 236 913 205L1335 1227L1380 1366H1417Q1499 1366 1550 1368T1612 1372L1622
1374L1632 1366Q1624 1356 1612 1338T1581 1253T1565 1108L1604 176L1597 72L1782 59L1774 6L1311 -6V55Q1383 63 1423 94T1462 176L1415 1204L911 0L854 25L367 1202Q363 1161 360 1122L322 182L307 72L496 59L487 6L96 -6Z" />
<glyph unicode="N" glyph-name="N" horiz-adv-x="1554" d="M117 -6V55Q264 71 264 182V1118Q264 1227 232 1266T96 1319V1366H158L342 1374Q367 1327 416 1268L1165 377Q1210 320 1247 264V1159Q1247 1200 1244 1219T1226 1261T1175 1295T1077 1313V1366H1458L1468
1341Q1462 1339 1453 1335T1420 1316T1377 1279T1343 1218T1327 1130V-10H1286L416 1051Q371 1108 346 1145V182L336 72L520 59L512 6L117 -6Z" />
<glyph unicode="O" glyph-name="O" horiz-adv-x="1622" d="M266 719Q266 561 329 411T523 156T821 51Q981 51 1107 147T1295 386T1358 682Q1358 930 1204 1122T799 1315Q561 1315 414 1137T266 719ZM98 668Q98 856 182 1019T436 1286T829 1391Q1132 1391 1328
1206T1524 731Q1524 530 1431 358T1165 81T782 -25Q487 -25 293 176T98 668Z" />
<glyph unicode="P" glyph-name="P" horiz-adv-x="1130" d="M113 -6V55Q183 63 223 97T264 182V1169Q264 1245 237 1270T92 1319V1366H575Q671 1366 752 1349T909 1291T1028 1174T1071 985Q1071 862 1019 773T883 642T713 585T543 578V627Q727 629 816 722T905
950Q905 1130 779 1213T455 1296H430L412 1276V182L401 78L596 59L588 6L113 -6Z" />
<glyph unicode="Q" glyph-name="Q" horiz-adv-x="1622" d="M645 -10Q401 35 250 223T98 668Q98 856 182 1019T436 1286T829 1391Q1132 1391 1328 1206T1524 731Q1524 479 1376 275T985 2Q1024 -33 1093 -108T1212 -235T1342 -329T1509 -371Q1552 -371 1591 -360V-408Q1489
-461 1386 -461Q1339 -461 1294 -450T1207 -413T1134 -366T1065 -305T1010 -247T960 -189T924 -145Q887 -102 864 -79T813 -43T771 -28T715 -21T645 -10ZM266 719Q266 561 329 410T523 153T821 47Q981 47 1107 144T1295 385T1358 682Q1358 840 1294 984T1098 1223T799
1319Q561 1319 414 1140T266 719Z" />
<glyph unicode="R" glyph-name="R" horiz-adv-x="1255" d="M113 -6V55Q183 63 223 97T264 182V1169Q264 1245 237 1270T92 1319V1366H530Q792 1366 916 1275T1040 1036Q1040 903 951 803T764 653V631L1059 203Q1120 115 1158 92T1249 63L1272 61L1264 0H1001L993
6Q944 112 862 231L600 614H430L412 596V182L401 78L586 59L578 6L113 -6ZM412 686H590Q703 686 791 766T879 987Q879 1116 791 1206T514 1296H430L412 1276V686Z" />
<glyph unicode="S" glyph-name="S" horiz-adv-x="1028" d="M98 186Q98 217 139 354H207Q207 186 292 116T504 45Q621 45 698 99T776 272Q776 372 710 452T549 587T360 700T198 845T131 1044Q131 1198 248 1294T580 1391Q633 1391 693 1385T794 1372T868 1359T907
1352L846 1038H780Q800 1157 739 1239T553 1321Q438 1321 364 1266T289 1096Q289 994 355 917T516 788T704 679T865 534T932 324Q932 154 803 65T481 -25Q331 -25 214 29T98 186Z" />
<glyph unicode="T" glyph-name="T" horiz-adv-x="1310" d="M424 -6V55Q496 63 535 98T575 188V1296H362Q249 1296 192 1245T80 1038H14L78 1378Q131 1366 215 1366H1155Q1192 1366 1229 1369T1284 1375L1303 1378L1239 1038H1174Q1184 1192 1135 1244T958 1296H741L723
1276V188L713 78L918 59L909 6L424 -6Z" />
<glyph unicode="U" glyph-name="U" horiz-adv-x="1505" d="M211 481V1169Q211 1249 189 1272T55 1319V1366H219L416 1374L426 1366Q358 1290 358 1122V498Q358 283 480 170T776 57Q948 57 1080 171T1212 483V1159Q1212 1200 1209 1219T1191 1261T1140 1295T1042
1313V1366H1432L1442 1341Q1436 1339 1427 1336T1394 1318T1352 1282T1319 1221T1305 1135V489Q1305 249 1142 112T739 -25Q633 -25 543 3T376 87T255 244T211 481Z" />
<glyph unicode="V" glyph-name="V" horiz-adv-x="1259" d="M590 6L119 1206Q103 1245 72 1272T18 1310L-4 1319V1366H125L305 1374L313 1366Q268 1266 301 1178L614 334Q632 277 651 209L1038 1141Q1093 1274 938 1319V1366H1243L1249 1341Q1194 1300 1118 1118L647
-18L590 6Z" />
<glyph unicode="W" glyph-name="W" horiz-adv-x="1976" d="M1366 6L977 999L655 -18L588 6L117 1206Q101 1245 70 1272T16 1310L-6 1319V1366H123L305 1374L313 1366Q268 1266 301 1178L606 354Q626 299 647 221L932 1116L897 1206Q881 1245 850 1272T797 1310L774
1319V1366H903L1085 1374L1094 1366Q1049 1266 1081 1178L1386 350Q1413 272 1425 223L1714 1141Q1739 1213 1716 1254T1614 1319V1366H1917L1925 1341Q1917 1337 1905 1326T1858 1258T1794 1118L1432 -18L1366 6Z" />
<glyph unicode="X" glyph-name="X" horiz-adv-x="1267" d="M713 715L682 752L684 750L1147 70L1257 53L1249 0H1155L856 -8V53Q922 61 936 78T924 135L612 602L258 84L449 59L440 0H27V55Q150 65 193 135L563 676L188 1229Q163 1262 129 1284T72 1313L49 1319V1366H180L346
1374L354 1366Q325 1284 369 1219L662 782L936 1196Q999 1290 856 1319V1366H1194L1204 1335Q1130 1323 1055 1219L713 715Z" />
<glyph unicode="Y" glyph-name="Y" horiz-adv-x="1200" d="M379 -6V55Q449 63 489 96T530 180V604L131 1229Q108 1262 82 1284T39 1313L23 1319V1366H117L299 1374L307 1366Q266 1288 311 1219L573 799Q604 750 635 684L950 1192Q979 1231 961 1269T868 1319V1366H1196L1204
1341Q1118 1312 1057 1212L678 600V180L668 78L856 59L848 6L379 -6Z" />
<glyph unicode="Z" glyph-name="Z" horiz-adv-x="1255" d="M74 -8L61 66Q104 115 174 211L893 1196Q905 1214 937 1251T975 1296H481Q350 1296 296 1247T184 1038H119L168 1366H1004L1135 1374L1143 1300L1040 1155L328 170Q314 152 244 70H803Q926 70 975 120T1099
345Q1106 362 1110 371H1176L1092 0H205L74 -8Z" />
<glyph unicode="[" glyph-name="bracketleft" horiz-adv-x="585" d="M180 -313V1366H543V1282H297V-227H543V-313H180Z" />
<glyph unicode="\" glyph-name="backslash" horiz-adv-x="722" d="M647 -401L-33 1366H88L770 -401H647Z" />
<glyph unicode="]" glyph-name="bracketright" horiz-adv-x="585" d="M43 -227H289V1282H43V1366H406V-313H43V-227Z" />
<glyph unicode="^" glyph-name="asciicircum" horiz-adv-x="1112" d="M74 512L512 1391H602L1040 512H915L555 1235L195 512H74Z" />
<glyph unicode="_" glyph-name="underscore" horiz-adv-x="1085" d="M31 -76H1055V-170H31V-76Z" />
<glyph unicode="`" glyph-name="grave" horiz-adv-x="1024" d="M358 1376V1432L512 1415L692 1065L635 1032L358 1376Z" />
<glyph unicode="a" glyph-name="a" horiz-adv-x="925" d="M63 174Q63 307 200 391T524 504L594 514V516Q598 668 586 735Q557 878 444 879Q403 879 366 860T302 812T257 757T229 710L221 690H164L133 834Q149 846 179 864T303 912T494 942Q631 942 680 879T729
649V176Q729 121 739 101T786 80Q813 80 842 91T889 113L905 123L930 84Q920 72 902 54T830 5T727 -25Q670 -25 634 12T598 123V178Q594 170 585 157T545 108T479 45T387 -3T268 -25Q170 -25 117 34T63 174ZM334 76Q420 76 594 219V457L526 446Q407 428 311 370T215
207Q215 146 251 111T334 76Z" />
<glyph unicode="b" glyph-name="b" horiz-adv-x="1048" d="M297 76Q371 45 465 45Q623 45 722 151T821 438Q821 602 743 721T528 840Q454 840 387 808T297 748V76ZM145 6Q161 102 162 211V1227Q162 1280 159 1305T143 1349T100 1368H12V1419Q102 1439 177 1462T282
1496L311 1507L317 1501Q297 1425 297 1268V924Q297 885 295 853T291 804T289 784Q330 831 357 857T449 912T588 942Q766 942 866 810T967 496Q967 285 833 130T453 -25Q394 -25 287 -13T152 0L145 6Z" />
<glyph unicode="c" glyph-name="c" horiz-adv-x="892" d="M84 442Q84 643 197 792T504 942Q615 942 720 901T825 791Q825 764 807 745T756 725Q715 725 679 764T599 842T496 881Q371 881 298 768T225 492Q225 416 244 349T303 223T411 130T571 96Q641 96 700 117T783
162L807 184L829 147Q825 141 818 129T784 87T723 35T634 -6T514 -25Q309 -25 197 113T84 442Z" />
<glyph unicode="d" glyph-name="d" horiz-adv-x="1093" d="M84 424Q84 633 219 787T602 942L762 930V1227Q762 1280 759 1305T743 1349T700 1368H610V1419Q700 1439 776 1462T882 1496L911 1507L918 1501Q898 1425 897 1268V190Q897 110 923 92T1012 74H1073L1067
23L770 -16L764 -8Q770 47 770 98V145Q735 94 706 64T614 4T473 -25Q287 -25 186 109T84 424ZM526 78Q604 78 667 112T762 184V764Q762 875 598 874Q430 874 330 771T229 479Q229 311 309 195T526 78Z" />
<glyph unicode="e" glyph-name="e" horiz-adv-x="940" d="M84 440Q84 651 204 796T504 942Q643 942 747 853T856 610Q817 596 776 590L240 512L219 487Q221 323 305 210T555 96Q633 96 701 121T800 174L829 201L852 164Q848 156 839 144T799 99T732 41T635 -4T508
-25Q303 -25 194 111T84 440ZM477 872Q373 872 309 790T225 580L688 639Q688 649 685 664T669 720T635 790T572 846T477 872Z" />
<glyph unicode="f" glyph-name="f" horiz-adv-x="651" d="M78 -6V49Q209 63 209 182V823H78V874L209 920V973Q209 1211 311 1348T612 1485Q690 1485 751 1456T813 1372Q813 1345 793 1325T735 1305Q710 1305 645 1350T510 1395Q424 1395 384 1311T344 1032V918H641L627
829H362L344 809V182L334 72L549 53L541 6L78 -6Z" />
<glyph unicode="g" glyph-name="g" horiz-adv-x="976" d="M145 154Q145 181 165 206T204 243T269 279T328 309Q219 340 154 418T88 612Q88 766 195 854T461 942Q520 942 597 922T721 901H819Q848 901 881 907T935 921L954 928L938 805H821L750 811Q760 803 774
786T813 713T838 598Q838 461 727 376T461 291Q402 291 360 301Q301 242 301 209Q301 197 307 188T329 169T362 155T408 143T461 130T527 117T598 102Q670 88 724 70T830 23T911 -50T940 -152Q940 -293 782 -389T426 -485Q270 -485 161 -422T51 -236Q51 -187 72
-145T115 -79T184 -29T246 5T309 31Q145 70 145 154ZM543 -14Q510 -6 446 5T358 20Q192 -76 193 -215Q193 -309 270 -361T459 -414Q586 -414 688 -352T791 -195Q791 -67 543 -14ZM467 356Q578 356 632 427T686 600Q686 711 626 794T457 877T294 801T240 617T297
432T467 356Z" />
<glyph unicode="h" glyph-name="h" horiz-adv-x="1134" d="M59 -6V49Q190 63 190 182V1227Q190 1280 187 1305T171 1349T129 1368H39V1419Q129 1439 204 1462T309 1496L340 1507L346 1501Q326 1425 326 1268V856Q326 815 324 784T320 736T317 715Q378 807 486
874T717 942Q946 942 946 666V182L936 72L1114 53L1106 6L686 -6V49Q811 63 811 182V633Q811 838 662 838Q584 838 490 792T326 676V182L315 72L492 53L483 6L59 -6Z" />
<glyph unicode="i" glyph-name="i" horiz-adv-x="550" d="M84 -6V49Q215 63 215 182V684Q215 737 212 762T196 806T154 825H57V877Q375 959 373 971L375 965Q350 897 350 731V182L340 72L518 53L510 6L84 -6ZM301 1161T264 1161T198 1192T168 1262Q168 1299 197
1329T264 1360T330 1329T360 1262Q360 1223 331 1192Z" />
<glyph unicode="j" glyph-name="j" horiz-adv-x="495" d="M199 -53V684Q199 737 196 762T180 806T137 825H41V877Q355 959 356 971V965Q333 910 334 743V43Q334 -203 248 -344T6 -485L-18 -440Q68 -428 133 -317T199 -53ZM248 1161Q209 1161 180 1192T150 1262Q150
1299 179 1329T248 1360Q285 1360 314 1329T344 1262Q344 1223 315 1192T248 1161Z" />
<glyph unicode="k" glyph-name="k" horiz-adv-x="1034" d="M59 -6V49Q190 63 190 182V1227Q190 1280 187 1305T171 1349T129 1368H39V1419Q129 1439 204 1462T309 1496L340 1507L346 1501Q326 1425 326 1268V545H346L555 717Q559 721 578 737T607 763T625 787T635
817Q635 852 565 870V918H934L944 885Q833 860 729 772L475 559V541Q495 514 510 500L821 184Q897 104 925 85T1016 59L1038 57L1030 0L762 -6Q733 68 674 135L346 483H326V182L315 72L485 53L477 6L59 -6Z" />
<glyph unicode="l" glyph-name="l" horiz-adv-x="526" d="M59 -6V49Q190 63 190 182V1227Q190 1280 187 1305T171 1349T129 1368H39V1419Q129 1439 204 1462T309 1496L340 1507L346 1501Q326 1425 326 1268V182L315 72L494 53L485 6L59 -6Z" />
<glyph unicode="m" glyph-name="m" horiz-adv-x="1710" d="M82 -6V49Q213 63 213 182V684Q213 737 210 762T194 806T152 825H59V877Q143 895 218 918T326 956L358 971L365 965Q347 893 342 711Q405 807 504 874T719 942Q823 942 877 880T926 692Q989 798 1091
870T1311 942Q1413 942 1466 879T1520 666V182L1509 72L1688 53L1679 6L1257 -6V49Q1329 57 1356 90T1384 182V633Q1384 748 1355 793T1264 838Q1176 838 1054 766T932 606V182L922 72L1096 51L1087 6L670 -6V49Q742 57 769 90T797 182V633Q797 748 765 793T672
838Q598 838 510 792T348 670V182L338 72L512 51L504 6L82 -6Z" />
<glyph unicode="n" glyph-name="n" horiz-adv-x="1159" d="M84 -6V49Q215 63 215 182V684Q215 737 212 762T196 806T154 825H57V877Q139 895 214 918T323 956L356 971L362 965Q344 889 344 707Q405 803 511 872T741 942Q970 942 971 666V182L961 74L1139 53L1130
6L711 -6V49Q783 57 809 90T836 182V633Q836 838 686 838Q606 838 512 791T350 670V182L340 74L516 53L508 6L84 -6Z" />
<glyph unicode="o" glyph-name="o" horiz-adv-x="1075" d="M84 438Q84 567 128 676T281 864T553 942Q766 942 878 817T991 496Q991 289 867 132T518 -25Q311 -25 198 105T84 438ZM240 483Q240 372 269 275T370 109T545 39Q678 39 757 144T836 432Q838 545 808
642T706 810T528 881Q385 881 313 765T240 483Z" />
<glyph unicode="p" glyph-name="p" horiz-adv-x="1081" d="M82 -502V-444Q150 -407 171 -368T193 -254V684Q193 737 190 762T173 806T131 825H45V877Q129 895 202 918T307 956L338 971L344 965Q334 916 324 782Q326 784 337 798T353 819T372 839T395 861T420 880T451
900T485 916T526 931T572 939T625 942Q807 942 902 809T997 494Q997 281 863 128T473 -25Q418 -25 328 -10V-252L317 -369H535L526 -416Q217 -453 82 -502ZM489 43Q659 43 755 148T852 440Q852 608 779 725T569 842Q444 842 328 739V158Q327 43 489 43Z" />
<glyph unicode="q" glyph-name="q" horiz-adv-x="1052" d="M82 422Q82 633 224 787T608 942Q661 942 762 931T905 918L911 911L910 906Q909 901 907 892T903 871T900 840T897 802T894 758T893 707V-260L883 -375H1040L1032 -420Q915 -434 814 -455T670 -492L627
-506V-451Q699 -412 728 -368T758 -254V-6Q758 35 760 66T764 114T766 133Q643 -25 467 -25Q293 -25 188 109T82 422ZM227 475Q227 315 309 198T522 80Q594 80 662 110T758 170V842Q682 873 590 872Q438 872 333 764T227 475Z" />
<glyph unicode="r" glyph-name="r" horiz-adv-x="741" d="M84 -6V49Q215 63 215 182V686Q215 739 212 763T196 806T154 825H57V879Q139 897 215 919T326 956L360 971L367 965Q349 889 344 702Q405 815 477 878T614 942Q720 942 721 858Q721 815 696 792T637 768Q617
768 592 784T545 801Q512 801 475 779T414 733T350 664V182L340 72L539 53L530 6L84 -6Z" />
<glyph unicode="s" glyph-name="s" horiz-adv-x="784" d="M86 113L109 264H168Q176 145 244 92T401 39Q485 39 535 79T586 188Q586 249 537 297T416 381T274 454T154 552T104 692Q104 803 188 872T434 942Q489 942 550 934T647 916L682 907L643 702H582Q582 761
560 801T499 856T438 874T389 879Q305 879 265 838T225 741Q225 682 274 636T394 558T535 490T655 388T705 233Q705 114 620 45T389 -25Q348 -25 305 -20T208 -2T120 40T86 113Z" />
<glyph unicode="t" glyph-name="t" horiz-adv-x="692" d="M184 244V690L190 823H53V874Q143 892 193 938L266 1159H330L336 1153Q318 1087 317 946V918H647L633 829H338L319 809V266Q319 174 354 129T469 84Q510 84 556 94T629 115L655 125L680 92Q668 80 646
61T550 8T403 -25Q184 -24 184 244Z" />
<glyph unicode="u" glyph-name="u" horiz-adv-x="1136" d="M184 250V686Q184 739 181 763T165 806T123 825H47V879Q113 891 183 909T292 940L330 952L338 946Q320 889 319 731V285Q319 172 356 128T467 84Q635 84 797 248V686Q797 739 794 763T778 806T735 825H662V879Q728
891 797 909T903 940L940 952L950 946Q932 889 932 731V190Q932 110 957 92T1047 74H1106L1100 23L793 -18L782 -12Q802 47 803 98V211Q641 -25 408 -25Q184 -24 184 250Z" />
<glyph unicode="v" glyph-name="v" horiz-adv-x="925" d="M412 0L121 752Q103 799 76 828T31 864L12 870V918H104L276 926L285 918Q246 832 285 729L444 272Q460 223 481 145L737 721Q786 836 637 870V918H905L915 885Q882 875 838 780L481 -27L412 0Z" />
<glyph unicode="w" glyph-name="w" horiz-adv-x="1484" d="M412 0L121 752Q103 799 75 828T29 864L10 870V918H104L272 926L281 918Q244 830 281 729L449 272Q469 209 479 168L686 666Q709 721 702 748L705 752Q689 799 660 828T610 864L590 870V918H688L856 926L864
918Q860 908 856 891T847 822T862 729L1028 283Q1046 236 1061 168L1292 723Q1317 778 1286 817T1192 870V918H1458L1468 885Q1429 869 1393 776L1055 -27L995 0L750 633L471 -27L412 0Z" />
<glyph unicode="x" glyph-name="x" horiz-adv-x="989" d="M590 -6V53Q662 53 675 72T659 129L475 397L219 72L379 53L371 6L37 -6V49Q115 57 178 135L432 455L219 758Q186 803 148 831T85 865L61 870V918H150L340 926L348 918Q323 850 377 770L520 559L688 770Q741
850 606 870V918H918L928 885Q860 875 786 782L561 500L870 59L967 51L958 6L590 -6Z" />
<glyph unicode="y" glyph-name="y" horiz-adv-x="940" d="M141 -330Q213 -330 265 -288T344 -188L426 2Q416 39 381 127L125 752Q107 797 78 826T31 863L12 870V918H109L285 926L293 918Q275 881 275 827T293 729L463 297L504 172L745 723Q792 827 633 870V918H911L922
885Q883 869 846 776L475 -57Q471 -65 447 -123T406 -217T357 -309T294 -399T221 -458T135 -485Q96 -485 75 -462T53 -406Q53 -375 74 -353T141 -330Z" />
<glyph unicode="z" glyph-name="z" horiz-adv-x="888" d="M88 -8L72 41Q90 59 145 139L553 760Q573 791 627 858H332Q250 858 202 803T135 684H84L121 918H635L776 926L793 877L731 790Q727 784 723 778L326 164Q303 129 250 61H524Q579 61 625 82T696 135T738
196T762 249L768 270H817L762 0H227L88 -8Z" />
<glyph unicode="{" glyph-name="braceleft" horiz-adv-x="712" d="M285 -135Q285 149 254 270Q195 500 14 504V571Q69 573 114 597T187 652T234 740T264 840T279 954T285 1061T285 1161Q285 1181 285 1190Q285 1356 396 1437T694 1518L705 1448Q519 1436 467 1360T414
1081Q414 628 186 541V537Q280 500 347 366T414 -27Q414 -230 466 -304T705 -393L694 -463Q285 -463 285 -135Z" />
<glyph unicode="|" glyph-name="bar" horiz-adv-x="471" d="M178 -461V1534H293V-461H178Z" />
<glyph unicode="}" glyph-name="braceright" horiz-adv-x="714" d="M301 -27Q301 231 367 365T528 537V541Q301 629 301 1081Q301 1185 292 1244T253 1351T165 1420T8 1448L18 1518Q204 1518 317 1437T430 1190Q430 915 460 800Q518 575 700 571V504Q645 502 600
478T528 420T481 328T451 224T435 106T430 -4T430 -107Q430 -127 430 -135Q430 -463 18 -463L8 -393Q196 -379 248 -305T301 -27Z" />
<glyph unicode="~" glyph-name="asciitilde" horiz-adv-x="1206" d="M141 362Q141 522 208 597T395 672Q461 672 512 651T596 597T658 534T724 481T803 459Q885 459 917 522T950 664H1063Q1063 504 996 429T809 354Q729 354 668 388T576 461T499 533T401 567Q319
567 287 504T254 362H141Z" />
<glyph unicode="&#xa0;" glyph-name="uni00A0" horiz-adv-x="464" />
<glyph unicode="&#xa1;" glyph-name="exclamdown" horiz-adv-x="540" d="M293 578L369 -424Q287 -449 238 -466T179 -488L170 -494L166 -492Q186 -429 197 -276L250 578H293ZM385 877T385 832T352 754T274 721T197 753T164 831T196 909T274 942T352 910Z" />
<glyph unicode="&#xa2;" glyph-name="cent" horiz-adv-x="870" d="M84 561Q84 729 180 856T449 995L459 1178H537L526 995Q626 987 712 947T799 850Q799 817 779 798T721 778Q678 778 621 841T522 920L492 287Q529 281 569 281Q704 281 801 369L821 330Q817 322
809 310T772 264T708 207T613 162T487 141H483L475 -45H397L406 147Q250 174 167 290T84 561ZM217 618Q217 518 267 432T414 307L446 928Q342 918 280 827T217 618Z" />
<glyph unicode="&#xa3;" glyph-name="sterling" horiz-adv-x="1026" d="M111 500V578H250L272 758Q295 946 379 1049T631 1153Q721 1153 792 1126T864 1044Q864 1011 843 987T786 963Q749 963 688 1017T567 1071Q483 1071 450 1007T401 752L381 578H776L766 500H373V492Q365
398 348 312T316 186L303 147Q475 71 633 72Q866 72 907 256L922 322H979Q971 246 955 188T905 71T809 -19T657 -51Q608 -51 500 -29L332 10Q256 26 238 27Q177 27 109 0L84 55Q88 57 95 61T121 81T156 115T187 169T207 240L240 500H111Z" />
<glyph unicode="&#xa5;" glyph-name="yen" horiz-adv-x="1021" d="M147 553V631H391L147 1014Q131 1041 110 1057T74 1077L59 1081V1128H141L297 1135L303 1128Q274 1069 307 1018L479 741Q499 706 535 631H537L760 983Q811 1065 692 1081V1128H948L956 1096Q913
1090 864 1012L616 631H885V553H578V410H885V332H578V182L567 72L758 53L750 6L313 -6V49Q442 63 442 182V332H147V410H442V553H147Z" />
<glyph unicode="&#xa6;" glyph-name="brokenbar" horiz-adv-x="444" d="M156 668V1401H289V668H156ZM156 350H289V-383H156V350Z" />
<glyph unicode="&#xa7;" glyph-name="section" horiz-adv-x="954" d="M68 -303Q76 -311 95 -324T181 -359T326 -381Q500 -381 565 -248T598 78L492 664Q480 725 475 760T466 867T472 986T511 1079T592 1147L602 1137Q551 1008 588 821L717 94Q742 -53 715 -182T598
-398T367 -485Q275 -485 192 -453T72 -387L35 -354L68 -303ZM315 84L186 811Q159 958 186 1087T304 1304T537 1391Q629 1391 712 1358T831 1292L868 1260L836 1208Q828 1216 808 1229T722 1264T578 1286Q404 1286 338 1153T305 827L412 242Q424 181 429 146T437
38T431 -81T392 -174T311 -242L301 -231Q352 -102 315 84Z" />
<glyph unicode="&#xa8;" glyph-name="dieresis" horiz-adv-x="1024" d="M381 1159T342 1159T273 1191T242 1261T272 1332T342 1364T410 1332T440 1262T411 1191ZM719 1159T680 1159T611 1191T580 1261T610 1332T680 1364T749 1332T780 1262T750 1191Z" />
<glyph unicode="&#xa9;" glyph-name="copyright" horiz-adv-x="1560" d="M74 389T74 682T280 1182T780 1389T1280 1182T1487 682T1280 182T780 -25T281 182ZM166 942T166 682T344 239T780 55T1217 238T1397 682T1218 1125T780 1309T344 1126ZM379 674Q379 846
491 978T811 1110Q858 1110 907 1100T1005 1075T1069 1055L1034 844H975Q979 1043 780 1042Q665 1042 592 949T518 723Q518 559 608 463T838 367Q899 367 959 392T1050 444L1079 471L1102 416Q1059 353 969 313T799 272Q627 272 503 383T379 674Z" />
<glyph unicode="&#xaa;" glyph-name="ordfeminine" horiz-adv-x="792" d="M254 713Q178 713 138 755T98 854Q98 950 201 1013T455 1094V1159Q455 1339 369 1339Q330 1339 293 1305T239 1235L221 1200H168L145 1313Q247 1391 401 1391Q501 1391 538 1346T575 1184V854Q575
793 600 793Q614 793 635 802T672 821L686 831L713 795Q639 713 561 713Q461 713 461 838Q451 824 434 803T363 748T254 713ZM293 788Q326 788 366 812T430 860L455 885V1044Q367 1034 298 990T229 879Q229 836 247 812T293 788Z" />
<glyph unicode="&#xab;" glyph-name="guillemotleft" horiz-adv-x="1069" d="M84 508V516Q113 536 133 553T247 663T522 942L575 922L301 512L575 102L522 82Q160 453 84 508ZM479 508V516Q508 536 528 553T642 663T918 942L971 922L696 512L971 102L918 82Q555
453 479 508Z" />
<glyph unicode="&#xac;" glyph-name="logicalnot" horiz-adv-x="1064" d="M53 690V793H967V227H858V690H53Z" />
<glyph unicode="&#xae;" glyph-name="registered" horiz-adv-x="860" d="M575 733T430 733T181 837T76 1087T180 1337T430 1442T679 1338T784 1088T680 838ZM430 791Q547 791 632 879T717 1087T632 1295T430 1382Q311 1382 227 1295T143 1087Q143 964 227 878T430
791ZM266 913V942Q303 946 303 973V1202Q303 1220 296 1226T260 1241V1266H412Q557 1266 557 1180Q557 1133 489 1090L518 1042L563 977Q586 946 618 942L616 915L510 913Q500 940 477 975L422 1057H381V973L377 948L428 942L426 918L266 913ZM381 1233V1090H430Q444
1092 459 1110T475 1163Q475 1233 403 1233H381Z" />
<glyph unicode="&#xaf;" glyph-name="overscore" horiz-adv-x="1024" d="M289 1212V1323H735V1212H289Z" />
<glyph unicode="&#xb0;" glyph-name="degree" horiz-adv-x="671" d="M336 989Q402 989 445 1034T489 1144T444 1256T336 1303T228 1257T184 1145T228 1034T336 989ZM440 899T336 899T159 970T86 1144T158 1319T335 1391T513 1319T586 1145T513 971Z" />
<glyph unicode="&#xb1;" glyph-name="plusminus" horiz-adv-x="1064" d="M66 657V758H483V1143H594V758H1006V657H594V246H483V657H66ZM55 0V100H1001V0H55Z" />
<glyph unicode="&#xb2;" glyph-name="uni00B2" horiz-adv-x="667" d="M61 770L47 819L83 851Q119 883 130 893T175 935T226 986T271 1036T320 1096T360 1155Q434 1276 434 1376Q434 1439 394 1472T297 1505Q180 1505 98 1430L61 1470Q73 1486 94 1510T183 1573T326
1612Q420 1612 490 1559T561 1405Q561 1378 554 1348T538 1292T508 1233T474 1178T431 1119T387 1066T337 1012T290 964T241 915T197 870H436Q493 870 516 894T557 981H610L578 770H61Z" />
<glyph unicode="&#xb3;" glyph-name="uni00B3" horiz-adv-x="649" d="M260 756Q184 756 115 783T45 854Q45 901 102 901Q137 901 186 852T285 803Q346 803 396 866T446 1001Q446 1075 390 1121T236 1167L184 1163V1231Q272 1235 334 1292T397 1413Q397 1513 295
1513Q203 1513 125 1460L88 1501Q98 1513 116 1531T199 1581T334 1612Q406 1612 467 1568T528 1440Q528 1387 470 1329T340 1225Q446 1211 515 1153T584 1014Q584 903 483 830T260 756Z" />
<glyph unicode="&#xb4;" glyph-name="acute" horiz-adv-x="1013" d="M389 1032L332 1065L512 1415L666 1432V1376L389 1032Z" />
<glyph unicode="&#xb5;" glyph-name="uni00B5" horiz-adv-x="1083" d="M154 -117V688Q154 745 151 799T143 880L139 905L295 944L303 938Q289 883 289 725V281Q289 84 422 84Q596 84 754 252V684Q754 741 750 795T742 876L739 901L895 940L903 934Q889 879 889
721V190Q889 120 899 97T958 74H1040L1047 29Q934 -24 874 -25Q759 -25 760 88V215Q592 -25 389 -25Q289 -25 225 39Q231 -57 268 -201T305 -383Q305 -428 283 -456T227 -485Q190 -485 171 -464T149 -416T145 -338Q145 -309 149 -236T154 -117Z" />
<glyph unicode="&#xb6;" glyph-name="paragraph" horiz-adv-x="1306" d="M369 -406Q369 -361 395 -342T453 -322Q469 -322 500 -330T547 -338Q619 -338 643 -246T668 31V326H639Q348 326 196 477T43 844Q43 1055 197 1210T629 1366H1063Q1184 1366 1225 1374L1206
1264H1049V0H940V1264H786V174Q786 57 782 -15T775 -115T772 -145Q739 -288 660 -386T461 -485Q414 -485 392 -460T369 -406Z" />
<glyph unicode="&#xb7;" glyph-name="middot" horiz-adv-x="516" d="M303 410T258 410T180 442T147 520T180 597T258 629T336 597T369 520T336 443Z" />
<glyph unicode="&#xb8;" glyph-name="cedilla" horiz-adv-x="1024" d="M457 -162Q457 -137 476 -96T516 -28L537 0H596Q569 -63 569 -94Q569 -119 596 -137T653 -167T710 -209T737 -285Q737 -361 672 -423T514 -485Q467 -485 422 -468T356 -432L336 -414L365 -352Q435
-401 506 -401Q557 -401 586 -379T616 -324Q616 -299 592 -280T537 -248T482 -214T457 -162Z" />
<glyph unicode="&#xb9;" glyph-name="uni00B9" horiz-adv-x="528" d="M68 766V819L154 823Q201 825 214 843T227 895V1444Q227 1477 222 1490T208 1502T184 1499L53 1470L49 1528L365 1620L371 1612Q355 1569 354 1473V895L350 834L512 823L506 774L68 766Z" />
<glyph unicode="&#xba;" glyph-name="ordmasculine" horiz-adv-x="837" d="M406 713Q256 713 174 804T92 1036Q92 1179 175 1285T430 1391Q584 1391 666 1303T748 1079Q748 932 658 823T406 713ZM424 768Q508 768 559 840T610 1032Q612 1155 562 1246T412 1337Q320
1337 273 1260T225 1071Q225 950 275 859T424 768Z" />
<glyph unicode="&#xbb;" glyph-name="guillemotright" horiz-adv-x="1071" d="M496 102L770 512L496 922L549 942Q731 756 824 664T938 554T987 516V508Q911 453 549 82L496 102ZM100 102L375 512L100 922L154 942Q336 756 429 664T542 554T592 516V508Q516 453
154 82L100 102Z" />
<glyph unicode="&#xbc;" glyph-name="onequarter" horiz-adv-x="1613" d="M942 240L930 309L1327 821L1425 844Q1417 785 1417 700V319H1556L1534 240H1417V119L1413 57L1522 47L1518 4L1200 -4V41Q1292 51 1292 119V240H942ZM1022 319H1292V664L1022 319ZM86
549V602L172 606Q219 608 232 626T246 678V1227Q246 1260 241 1273T227 1285T203 1282L72 1253L68 1311L383 1403L389 1395Q373 1352 373 1255V678L369 616L530 606L524 557L86 549ZM508 0H397L1200 1395L1292 1366L508 0Z" />
<glyph unicode="&#xbd;" glyph-name="onehalf" horiz-adv-x="1740" d="M1128 0L1114 49L1150 81Q1186 113 1197 123T1242 165T1293 216T1338 266T1387 326T1427 385Q1501 506 1501 606Q1501 669 1461 702T1364 735Q1247 735 1165 659L1128 700Q1140 716 1161 740T1250
803T1393 842Q1487 842 1557 789T1628 635Q1628 608 1621 578T1605 522T1575 463T1541 408T1498 349T1454 296T1404 242T1357 194T1308 144T1264 100H1503Q1560 100 1583 123T1624 211H1677L1645 0H1128ZM82 549V602L168 606Q215 608 228 626T242 678V1227Q242
1260 237 1273T222 1285T199 1282L68 1253L63 1311L379 1403L385 1395Q369 1352 369 1255V678L365 616L526 606L520 557L82 549ZM494 0H383L1186 1395L1278 1366L494 0Z" />
<glyph unicode="&#xbe;" glyph-name="threequarters" horiz-adv-x="1591" d="M915 240L903 309L1300 821L1399 844Q1391 785 1391 700V319H1530L1507 240H1391V119L1386 57L1495 47L1491 4L1174 -4V41Q1266 51 1266 119V240H915ZM279 539Q203 539 133 566T63 637Q63
684 121 684Q156 684 205 635T303 586Q364 586 414 649T465 784Q465 858 409 904T254 950L203 946V1014Q291 1018 353 1075T416 1196Q416 1296 313 1296Q221 1296 143 1243L106 1284Q116 1296 135 1314T218 1364T352 1395Q424 1395 485 1351T547 1223Q547 1170
489 1112T358 1008Q464 994 533 936T602 797Q602 686 501 613T279 539ZM481 0H371L1174 1395L1266 1366L481 0ZM995 319H1266V664L995 319Z" />
<glyph unicode="&#xbf;" glyph-name="questiondown" horiz-adv-x="653" d="M451 580Q461 533 461 479Q461 397 432 323T364 196T283 97T213 9T184 -68Q184 -134 284 -207T484 -322L584 -362L559 -512Q539 -504 503 -491T377 -433T217 -343T91 -232T35 -102Q35
-57 73 -5T166 102T275 222T368 380T406 580H451ZM530 877T530 832T498 754T420 721T342 753T309 831T341 909T420 942T498 910Z" />
<glyph unicode="&#xc0;" glyph-name="Agrave" horiz-adv-x="1286" d="M-18 0V55Q86 65 119 147L608 1362L678 1376L1135 215Q1158 160 1176 126T1217 78T1251 60T1294 51L1286 0H1196L915 -6V61Q968 63 994 79T1004 139L868 489H360L336 473L186 78L360 53L352
0H-18ZM645 1071Q629 1112 608 1184L373 567H838L645 1071ZM385 1616V1663L444 1757H455L807 1546L784 1485L385 1616Z" />
<glyph unicode="&#xc1;" glyph-name="Aacute" horiz-adv-x="1286" d="M-18 0V55Q86 65 119 147L608 1362L678 1376L1135 215Q1158 160 1176 126T1217 78T1251 60T1294 51L1286 0H1196L915 -6V61Q968 63 994 79T1004 139L868 489H360L336 473L186 78L360 53L352
0H-18ZM645 1071Q629 1112 608 1184L373 567H838L645 1071ZM481 1546L834 1757H844L903 1663V1616L504 1485L481 1546Z" />
<glyph unicode="&#xc2;" glyph-name="Acircumflex" horiz-adv-x="1286" d="M-18 0V55Q86 65 119 147L608 1362L678 1376L1135 215Q1158 160 1176 126T1217 78T1251 60T1294 51L1286 0H1196L915 -6V61Q968 63 994 79T1004 139L868 489H360L336 473L186 78L360 53L352
0H-18ZM645 1071Q629 1112 608 1184L373 567H838L645 1071ZM332 1513L596 1784H692L954 1513L905 1470L645 1645H641L381 1470L332 1513Z" />
<glyph unicode="&#xc3;" glyph-name="Atilde" horiz-adv-x="1286" d="M-18 0V55Q86 65 119 147L608 1362L678 1376L1135 215Q1158 160 1176 126T1217 78T1251 60T1294 51L1286 0H1196L915 -6V61Q968 63 994 79T1004 139L868 489H360L336 473L186 78L360 53L352
0H-18ZM645 1071Q629 1112 608 1184L373 567H838L645 1071ZM348 1503L285 1516Q285 1526 287 1540T301 1594T332 1664T390 1718T477 1743Q543 1743 662 1681T825 1618Q866 1618 894 1648T930 1711L938 1743L1004 1739Q1004 1729 1002 1714T986 1657T953 1585T889
1529T791 1503Q713 1503 609 1565T465 1628T398 1597T358 1534L348 1503Z" />
<glyph unicode="&#xc4;" glyph-name="Adieresis" horiz-adv-x="1286" d="M-18 0V55Q86 65 119 147L608 1362L678 1376L1135 215Q1158 160 1176 126T1217 78T1251 60T1294 51L1286 0H1196L915 -6V61Q968 63 994 79T1004 139L868 489H360L336 473L186 78L360 53L352
0H-18ZM645 1071Q629 1112 608 1184L373 567H838L645 1071ZM311 1585T311 1624T342 1693T412 1724T481 1694T512 1624T482 1554T412 1522T342 1553ZM770 1585T770 1624T800 1693T870 1724T940 1694T971 1624T940 1554T870 1522T801 1553Z" />
<glyph unicode="&#xc5;" glyph-name="Aring" horiz-adv-x="1286" d="M-18 0V55Q86 65 119 147L608 1362L678 1376L1135 215Q1158 160 1176 126T1217 78T1251 60T1294 51L1286 0H1196L915 -6V61Q968 63 994 79T1004 139L868 489H360L336 473L186 78L360 53L352
0H-18ZM645 1071Q629 1112 608 1184L373 567H838L645 1071ZM733 1458T643 1458T504 1506T455 1622Q455 1688 504 1736T643 1784T782 1736T831 1622Q831 1554 782 1506ZM596 1524T643 1524T716 1552T743 1620Q743 1661 718 1689T643 1718T570 1690T545 1620Q545
1581 570 1553Z" />
<glyph unicode="&#xc6;" glyph-name="AE" horiz-adv-x="1798" d="M-33 0V55Q8 59 38 75T79 106T104 147L694 1208Q721 1249 707 1273T614 1319V1366H1532L1675 1374L1612 1038H1546Q1554 1190 1504 1243T1325 1296H1042L1022 1276V707H1415L1432 844L1503 856V506H1411V637H1042L1022
616V184L1012 70H1348Q1475 70 1522 114T1651 330H1716L1640 0H1001L725 -6V55Q875 71 874 182V637H492L465 618L164 78L338 53L332 0H-33ZM791 1200L514 707H874V1286Q826 1272 791 1200Z" />
<glyph unicode="&#xc7;" glyph-name="Ccedilla" horiz-adv-x="1382" d="M651 -162Q651 -109 717 -18Q463 13 282 191T100 670Q100 996 311 1193T842 1391Q908 1391 987 1383T1153 1363T1270 1348L1208 1038H1143Q1145 1188 1044 1254T803 1321Q570 1321 415 1151T260
721Q260 449 430 272T858 94Q975 94 1079 131T1230 205L1276 242L1303 203Q1297 193 1285 179T1228 124T1133 55T993 0T809 -25H780Q764 -66 764 -94Q764 -119 790 -137T848 -167T905 -209T932 -285Q932 -361 867 -423T709 -485Q662 -485 617 -468T551 -432L530
-414L559 -352Q629 -401 700 -401Q751 -401 781 -379T811 -324Q811 -299 787 -280T731 -248T676 -214T651 -162Z" />
<glyph unicode="&#xc8;" glyph-name="Egrave" horiz-adv-x="1183" d="M356 1616V1663L416 1757H426L778 1546L756 1485L356 1616ZM111 -6V55Q263 71 262 182V1169Q262 1245 235 1270T90 1319V1366H918L1061 1374L997 1038H932Q940 1190 890 1243T711 1296H428L410
1276V727H801L817 844L889 856V506H797V657H428L410 637V184L399 70H733Q860 70 907 114T1036 330H1102L1026 0H389L111 -6Z" />
<glyph unicode="&#xc9;" glyph-name="Eacute" horiz-adv-x="1183" d="M111 -6V55Q263 71 262 182V1169Q262 1245 235 1270T90 1319V1366H918L1061 1374L997 1038H932Q940 1190 890 1243T711 1296H428L410 1276V727H801L817 844L889 856V506H797V657H428L410 637V184L399
70H733Q860 70 907 114T1036 330H1102L1026 0H389L111 -6ZM453 1546L805 1757H815L874 1663V1616L475 1485L453 1546Z" />
<glyph unicode="&#xca;" glyph-name="Ecircumflex" horiz-adv-x="1183" d="M303 1513L567 1784H664L926 1513L877 1470L616 1645H612L352 1470L303 1513ZM111 -6V55Q263 71 262 182V1169Q262 1245 235 1270T90 1319V1366H918L1061 1374L997 1038H932Q940 1190
890 1243T711 1296H428L410 1276V727H801L817 844L889 856V506H797V657H428L410 637V184L399 70H733Q860 70 907 114T1036 330H1102L1026 0H389L111 -6Z" />
<glyph unicode="&#xcb;" glyph-name="Edieresis" horiz-adv-x="1183" d="M111 -6V55Q263 71 262 182V1169Q262 1245 235 1270T90 1319V1366H918L1061 1374L997 1038H932Q940 1190 890 1243T711 1296H428L410 1276V727H801L817 844L889 856V506H797V657H428L410
637V184L399 70H733Q860 70 907 114T1036 330H1102L1026 0H389L111 -6ZM283 1585T283 1624T313 1693T383 1724T452 1694T483 1624T453 1554T383 1522T314 1553ZM741 1585T741 1624T772 1693T842 1724T911 1694T942 1624T912 1554T842 1522T772 1553Z" />
<glyph unicode="&#xcc;" glyph-name="Igrave" horiz-adv-x="655" d="M106 -6V55Q174 63 216 97T258 180V1169Q258 1249 236 1272T102 1319V1366H266L463 1374L473 1366Q405 1292 406 1122V180L395 78L596 59L588 6L106 -6ZM57 1616V1663L117 1757H127L479 1546L457
1485L57 1616Z" />
<glyph unicode="&#xcd;" glyph-name="Iacute" horiz-adv-x="655" d="M106 -6V55Q174 63 216 97T258 180V1169Q258 1249 236 1272T102 1319V1366H266L463 1374L473 1366Q405 1292 406 1122V180L395 78L596 59L588 6L106 -6ZM156 1546L508 1757H518L578 1663V1616L178
1485L156 1546Z" />
<glyph unicode="&#xce;" glyph-name="Icircumflex" horiz-adv-x="655" d="M106 -6V55Q174 63 216 97T258 180V1169Q258 1249 236 1272T102 1319V1366H266L463 1374L473 1366Q405 1292 406 1122V180L395 78L596 59L588 6L106 -6ZM6 1513L270 1784H367L629 1513L580
1470L319 1645H315L55 1470L6 1513Z" />
<glyph unicode="&#xcf;" glyph-name="Idieresis" horiz-adv-x="655" d="M37 1624Q37 1663 67 1693T137 1724T206 1694T236 1624Q236 1583 206 1553T137 1522T68 1552T37 1624ZM393 1585T393 1624T424 1693T493 1724T562 1694T592 1624Q592 1583 562 1553T494 1522T424
1553ZM106 -6V55Q174 63 216 97T258 180V1169Q258 1249 236 1272T102 1319V1366H266L463 1374L473 1366Q405 1292 406 1122V180L395 78L596 59L588 6L106 -6Z" />
<glyph unicode="&#xd0;" glyph-name="Eth" horiz-adv-x="1517" d="M74 655V733H262V1169Q262 1245 236 1270T92 1319V1366H637Q793 1366 924 1336T1169 1236T1348 1038T1413 731Q1413 389 1183 195T553 0H391L113 -6V55Q263 71 262 182V655H74ZM399 70H553Q741
70 879 119T1096 256T1209 451T1245 688Q1245 971 1085 1133T625 1296H430L410 1276V733H766V655H410V184L399 70Z" />
<glyph unicode="&#xd1;" glyph-name="Ntilde" horiz-adv-x="1554" d="M117 -6V55Q264 71 264 182V1118Q264 1227 232 1266T96 1319V1366H158L342 1374Q367 1327 416 1268L1165 377Q1210 320 1247 264V1159Q1247 1200 1244 1219T1226 1261T1175 1295T1077 1313V1366H1458L1468
1341Q1462 1339 1453 1335T1420 1316T1377 1279T1343 1218T1327 1130V-10H1286L416 1051Q371 1108 346 1145V182L336 72L520 59L512 6L117 -6ZM504 1503L440 1516Q440 1526 442 1540T456 1594T488 1664T546 1718T633 1743Q699 1743 818 1681T981 1618Q1022 1618
1049 1648T1085 1711L1094 1743L1159 1739Q1159 1729 1157 1714T1142 1657T1108 1585T1044 1529T946 1503Q868 1503 764 1565T621 1628T553 1597T514 1534L504 1503Z" />
<glyph unicode="&#xd2;" glyph-name="Ograve" horiz-adv-x="1622" d="M543 1616V1663L602 1757H612L965 1546L942 1485L543 1616ZM266 719Q266 561 329 411T523 156T821 51Q981 51 1107 147T1295 386T1358 682Q1358 930 1204 1122T799 1315Q561 1315 414 1137T266
719ZM98 668Q98 856 182 1019T436 1286T829 1391Q1132 1391 1328 1206T1524 731Q1524 530 1431 358T1165 81T782 -25Q487 -25 293 176T98 668Z" />
<glyph unicode="&#xd3;" glyph-name="Oacute" horiz-adv-x="1622" d="M641 1546L993 1757H1004L1063 1663V1616L664 1485L641 1546ZM266 719Q266 561 329 411T523 156T821 51Q981 51 1107 147T1295 386T1358 682Q1358 930 1204 1122T799 1315Q561 1315 414 1137T266
719ZM98 668Q98 856 182 1019T436 1286T829 1391Q1132 1391 1328 1206T1524 731Q1524 530 1431 358T1165 81T782 -25Q487 -25 293 176T98 668Z" />
<glyph unicode="&#xd4;" glyph-name="Ocircumflex" horiz-adv-x="1622" d="M492 1513L756 1784H852L1114 1513L1065 1470L805 1645H801L541 1470L492 1513ZM266 719Q266 561 329 411T523 156T821 51Q981 51 1107 147T1295 386T1358 682Q1358 930 1204 1122T799
1315Q561 1315 414 1137T266 719ZM98 668Q98 856 182 1019T436 1286T829 1391Q1132 1391 1328 1206T1524 731Q1524 530 1431 358T1165 81T782 -25Q487 -25 293 176T98 668Z" />
<glyph unicode="&#xd5;" glyph-name="Otilde" horiz-adv-x="1622" d="M266 719Q266 561 329 411T523 156T821 51Q981 51 1107 147T1295 386T1358 682Q1358 930 1204 1122T799 1315Q561 1315 414 1137T266 719ZM98 668Q98 856 182 1019T436 1286T829 1391Q1132
1391 1328 1206T1524 731Q1524 530 1431 358T1165 81T782 -25Q487 -25 293 176T98 668ZM508 1503L444 1516Q444 1526 446 1540T461 1594T492 1664T550 1718T637 1743Q703 1743 822 1681T985 1618Q1026 1618 1053 1648T1090 1711L1098 1743L1163 1739Q1163 1729
1161 1714T1146 1657T1113 1585T1049 1529T950 1503Q872 1503 768 1565T625 1628T557 1597T518 1534L508 1503Z" />
<glyph unicode="&#xd6;" glyph-name="Odieresis" horiz-adv-x="1622" d="M266 719Q266 561 329 411T523 156T821 51Q981 51 1107 147T1295 386T1358 682Q1358 930 1204 1122T799 1315Q561 1315 414 1137T266 719ZM98 668Q98 856 182 1019T436 1286T829 1391Q1132
1391 1328 1206T1524 731Q1524 530 1431 358T1165 81T782 -25Q487 -25 293 176T98 668ZM471 1585T471 1624T501 1693T571 1724T641 1694T672 1624T641 1554T571 1522T502 1553ZM930 1585T930 1624T960 1693T1030 1724T1099 1694T1130 1624T1100 1554T1030 1522T961
1553Z" />
<glyph unicode="&#xd7;" glyph-name="multiply" horiz-adv-x="1064" d="M74 895L145 973L532 584L918 971L991 895L606 508L987 127L913 49L530 432L152 51L76 127L457 508L74 895Z" />
<glyph unicode="&#xd8;" glyph-name="Oslash" horiz-adv-x="1622" d="M98 668Q98 856 182 1019T436 1286T829 1391Q1042 1391 1214 1290L1319 1427H1427L1286 1241Q1524 1053 1524 731Q1524 530 1431 358T1165 81T782 -25Q569 -25 406 84L295 -61H184L334 135Q98
338 98 668ZM1358 682Q1358 942 1198 1126L483 188Q626 51 821 51Q981 51 1107 147T1295 386T1358 682ZM266 719Q266 457 424 254L1137 1188Q994 1315 799 1315Q561 1315 414 1137T266 719Z" />
<glyph unicode="&#xd9;" glyph-name="Ugrave" horiz-adv-x="1505" d="M512 1616V1663L571 1757H582L934 1546L911 1485L512 1616ZM211 481V1169Q211 1249 189 1272T55 1319V1366H219L416 1374L426 1366Q358 1290 358 1122V498Q358 283 480 170T776 57Q948 57 1080
171T1212 483V1159Q1212 1200 1209 1219T1191 1261T1140 1295T1042 1313V1366H1432L1442 1341Q1436 1339 1427 1336T1394 1318T1352 1282T1319 1221T1305 1135V489Q1305 249 1142 112T739 -25Q633 -25 543 3T376 87T255 244T211 481Z" />
<glyph unicode="&#xda;" glyph-name="Uacute" horiz-adv-x="1505" d="M211 481V1169Q211 1249 189 1272T55 1319V1366H219L416 1374L426 1366Q358 1290 358 1122V498Q358 283 480 170T776 57Q948 57 1080 171T1212 483V1159Q1212 1200 1209 1219T1191 1261T1140
1295T1042 1313V1366H1432L1442 1341Q1436 1339 1427 1336T1394 1318T1352 1282T1319 1221T1305 1135V489Q1305 249 1142 112T739 -25Q633 -25 543 3T376 87T255 244T211 481ZM610 1546L963 1757H973L1032 1663V1616L633 1485L610 1546Z" />
<glyph unicode="&#xdb;" glyph-name="Ucircumflex" horiz-adv-x="1505" d="M461 1513L725 1784H821L1083 1513L1034 1470L774 1645H770L510 1470L461 1513ZM211 481V1169Q211 1249 189 1272T55 1319V1366H219L416 1374L426 1366Q358 1290 358 1122V498Q358 283
480 170T776 57Q948 57 1080 171T1212 483V1159Q1212 1200 1209 1219T1191 1261T1140 1295T1042 1313V1366H1432L1442 1341Q1436 1339 1427 1336T1394 1318T1352 1282T1319 1221T1305 1135V489Q1305 249 1142 112T739 -25Q633 -25 543 3T376 87T255 244T211 481Z"
/>
<glyph unicode="&#xdc;" glyph-name="Udieresis" horiz-adv-x="1505" d="M211 481V1169Q211 1249 189 1272T55 1319V1366H219L416 1374L426 1366Q358 1290 358 1122V498Q358 283 480 170T776 57Q948 57 1080 171T1212 483V1159Q1212 1200 1209 1219T1191 1261T1140
1295T1042 1313V1366H1432L1442 1341Q1436 1339 1427 1336T1394 1318T1352 1282T1319 1221T1305 1135V489Q1305 249 1142 112T739 -25Q633 -25 543 3T376 87T255 244T211 481ZM440 1585T440 1624T471 1693T541 1724T610 1694T641 1624T611 1554T541 1522T471 1553ZM899
1585T899 1624T930 1693T999 1724T1069 1694T1100 1624T1069 1554T1000 1522T930 1553Z" />
<glyph unicode="&#xdd;" glyph-name="Yacute" horiz-adv-x="1200" d="M379 -6V55Q449 63 489 96T530 180V604L131 1229Q108 1262 82 1284T39 1313L23 1319V1366H117L299 1374L307 1366Q266 1288 311 1219L573 799Q604 750 635 684L950 1192Q979 1231 961 1269T868
1319V1366H1196L1204 1341Q1118 1312 1057 1212L678 600V180L668 78L856 59L848 6L379 -6ZM451 1546L803 1757H813L872 1663V1616L473 1485L451 1546Z" />
<glyph unicode="&#xde;" glyph-name="Thorn" horiz-adv-x="1124" d="M537 324V373Q721 375 810 460T899 666Q899 828 772 903T449 979H424L406 961V180L395 78L596 59L588 6L106 -6V55Q174 63 216 97T258 180V1169Q258 1249 236 1272T102 1319V1366H266L463 1374L473
1366Q405 1292 406 1122V1051H578Q668 1051 751 1033T906 974T1022 865T1065 700Q1065 585 1013 504T877 382T707 329T537 324Z" />
<glyph unicode="&#xdf;" glyph-name="germandbls" horiz-adv-x="1110" d="M78 -6V53Q209 67 209 180V823H78V874L209 920V965Q209 1055 231 1140T301 1300T434 1421T633 1466Q762 1466 840 1402T918 1237Q918 1180 882 1119T802 1012T722 908T686 795Q686 738
725 686T819 591T929 503T1024 392T1063 248Q1063 113 964 44T735 -25Q678 -25 621 -13T514 36T465 125Q465 148 472 174T486 217L494 233H551Q578 40 739 41Q815 41 876 79T938 197Q938 254 900 306T809 401T703 489T611 596T573 727Q573 788 604 850T673 956T741
1059T772 1178Q772 1278 714 1331T567 1384Q454 1384 399 1282T344 999V109L352 10L346 4L78 -6Z" />
<glyph unicode="&#xe0;" glyph-name="agrave" horiz-adv-x="925" d="M63 174Q63 307 200 391T524 504L594 514V516Q598 668 586 735Q557 878 444 879Q403 879 366 860T302 812T257 757T229 710L221 690H164L133 834Q149 846 179 864T303 912T494 942Q631 942 680
879T729 649V176Q729 121 739 101T786 80Q813 80 842 91T889 113L905 123L930 84Q920 72 902 54T830 5T727 -25Q670 -25 634 12T598 123V178Q594 170 585 157T545 108T479 45T387 -3T268 -25Q170 -25 117 34T63 174ZM334 76Q420 76 594 219V457L526 446Q407 428
311 370T215 207Q215 146 251 111T334 76ZM182 1376V1432L336 1415L516 1065L459 1032L182 1376Z" />
<glyph unicode="&#xe1;" glyph-name="aacute" horiz-adv-x="925" d="M63 174Q63 307 200 391T524 504L594 514V516Q598 668 586 735Q557 878 444 879Q403 879 366 860T302 812T257 757T229 710L221 690H164L133 834Q149 846 179 864T303 912T494 942Q631 942 680
879T729 649V176Q729 121 739 101T786 80Q813 80 842 91T889 113L905 123L930 84Q920 72 902 54T830 5T727 -25Q670 -25 634 12T598 123V178Q594 170 585 157T545 108T479 45T387 -3T268 -25Q170 -25 117 34T63 174ZM334 76Q420 76 594 219V457L526 446Q407 428
311 370T215 207Q215 146 251 111T334 76ZM424 1032L367 1065L547 1415L700 1432V1376L424 1032Z" />
<glyph unicode="&#xe2;" glyph-name="acircumflex" horiz-adv-x="925" d="M63 174Q63 307 200 391T524 504L594 514V516Q598 668 586 735Q557 878 444 879Q403 879 366 860T302 812T257 757T229 710L221 690H164L133 834Q149 846 179 864T303 912T494 942Q631
942 680 879T729 649V176Q729 121 739 101T786 80Q813 80 842 91T889 113L905 123L930 84Q920 72 902 54T830 5T727 -25Q670 -25 634 12T598 123V178Q594 170 585 157T545 108T479 45T387 -3T268 -25Q170 -25 117 34T63 174ZM334 76Q420 76 594 219V457L526 446Q407
428 311 370T215 207Q215 146 251 111T334 76ZM174 1065L408 1425H479L711 1065L655 1030L442 1272L229 1030L174 1065Z" />
<glyph unicode="&#xe3;" glyph-name="atilde" horiz-adv-x="925" d="M63 174Q63 307 200 391T524 504L594 514V516Q598 668 586 735Q557 878 444 879Q403 879 366 860T302 812T257 757T229 710L221 690H164L133 834Q149 846 179 864T303 912T494 942Q631 942 680
879T729 649V176Q729 121 739 101T786 80Q813 80 842 91T889 113L905 123L930 84Q920 72 902 54T830 5T727 -25Q670 -25 634 12T598 123V178Q594 170 585 157T545 108T479 45T387 -3T268 -25Q170 -25 117 34T63 174ZM334 76Q420 76 594 219V457L526 446Q407 428
311 370T215 207Q215 146 251 111T334 76ZM156 1155Q156 1165 156 1180T164 1237T187 1308T238 1365T324 1391Q371 1391 408 1367T467 1316T518 1265T578 1241Q613 1241 633 1276T656 1345L659 1378H729Q729 1368 728 1352T719 1293T696 1219T643 1160T557 1133Q510
1133 472 1156T414 1208T365 1260T305 1284Q272 1284 252 1253T228 1188L225 1155H156Z" />
<glyph unicode="&#xe4;" glyph-name="adieresis" horiz-adv-x="925" d="M63 174Q63 307 200 391T524 504L594 514V516Q598 668 586 735Q557 878 444 879Q403 879 366 860T302 812T257 757T229 710L221 690H164L133 834Q149 846 179 864T303 912T494 942Q631 942
680 879T729 649V176Q729 121 739 101T786 80Q813 80 842 91T889 113L905 123L930 84Q920 72 902 54T830 5T727 -25Q670 -25 634 12T598 123V178Q594 170 585 157T545 108T479 45T387 -3T268 -25Q170 -25 117 34T63 174ZM334 76Q420 76 594 219V457L526 446Q407
428 311 370T215 207Q215 146 251 111T334 76ZM311 1159T272 1159T203 1191T172 1261T202 1332T272 1364T341 1332T371 1262T341 1191ZM649 1159T610 1159T541 1191T510 1261T540 1332T610 1364T680 1332T711 1262T680 1191Z" />
<glyph unicode="&#xe5;" glyph-name="aring" horiz-adv-x="925" d="M63 174Q63 307 200 391T524 504L594 514V516Q598 668 586 735Q557 878 444 879Q403 879 366 860T302 812T257 757T229 710L221 690H164L133 834Q149 846 179 864T303 912T494 942Q631 942 680
879T729 649V176Q729 121 739 101T786 80Q813 80 842 91T889 113L905 123L930 84Q920 72 902 54T830 5T727 -25Q670 -25 634 12T598 123V178Q594 170 585 157T545 108T479 45T387 -3T268 -25Q170 -25 117 34T63 174ZM334 76Q420 76 594 219V457L526 446Q407 428
311 370T215 207Q215 146 251 111T334 76ZM532 1098T442 1098T303 1148T254 1265T303 1379T442 1425T581 1379T631 1266T582 1148ZM395 1161T442 1161T516 1192T543 1264T518 1334T443 1364T369 1335T344 1264Q344 1221 369 1191Z" />
<glyph unicode="&#xe6;" glyph-name="ae" horiz-adv-x="1449" d="M59 180Q59 311 206 402T608 537V588Q608 729 578 804T459 879Q391 879 335 832T256 737L233 690H176L145 834Q161 846 191 864T314 912T506 942Q610 942 660 907T729 793Q833 943 1018 942Q1159
942 1259 855T1362 618Q1313 604 1282 598L737 496Q735 328 820 212T1073 96Q1151 96 1219 121T1318 174L1348 201L1370 164Q1366 156 1357 144T1314 99T1241 41T1140 -4T1008 -25Q875 -25 780 45T647 254Q606 133 509 54T295 -25Q182 -25 121 35T59 180ZM334 76Q363
76 396 85T468 118T536 179T586 274T606 408V469Q543 457 512 451T414 422T309 375T242 305T211 205Q211 146 244 111T334 76ZM993 872Q884 872 818 783T739 563L1196 649Q1196 657 1193 672T1178 727T1145 794T1084 847T993 872Z" />
<glyph unicode="&#xe7;" glyph-name="ccedilla" horiz-adv-x="892" d="M371 -164Q371 -111 438 -18Q268 9 176 140T84 442Q84 643 197 792T504 942Q615 942 720 901T825 791Q825 764 807 745T756 725Q715 725 679 764T599 842T496 881Q371 881 298 768T225 492Q225
416 244 349T303 223T411 130T571 96Q641 96 700 117T783 162L807 184L829 147Q825 141 818 129T784 87T723 35T634 -6T514 -25H502Q484 -70 483 -96Q483 -121 510 -139T567 -169T624 -211T651 -287Q651 -363 586 -425T428 -487Q381 -487 336 -469T270 -433L250
-416L279 -354Q349 -403 420 -403Q471 -403 500 -381T530 -326Q530 -301 506 -282T451 -250T396 -216T371 -164Z" />
<glyph unicode="&#xe8;" glyph-name="egrave" horiz-adv-x="940" d="M84 440Q84 651 204 796T504 942Q643 942 747 853T856 610Q817 596 776 590L240 512L219 487Q221 323 305 210T555 96Q633 96 701 121T800 174L829 201L852 164Q848 156 839 144T799 99T732
41T635 -4T508 -25Q303 -25 194 111T84 440ZM477 872Q373 872 309 790T225 580L688 639Q688 649 685 664T669 720T635 790T572 846T477 872ZM229 1376V1432L383 1415L563 1065L506 1032L229 1376Z" />
<glyph unicode="&#xe9;" glyph-name="eacute" horiz-adv-x="940" d="M84 440Q84 651 204 796T504 942Q643 942 747 853T856 610Q817 596 776 590L240 512L219 487Q221 323 305 210T555 96Q633 96 701 121T800 174L829 201L852 164Q848 156 839 144T799 99T732
41T635 -4T508 -25Q303 -25 194 111T84 440ZM477 872Q373 872 309 790T225 580L688 639Q688 649 685 664T669 720T635 790T572 846T477 872ZM473 1032L416 1065L596 1415L750 1432V1376L473 1032Z" />
<glyph unicode="&#xea;" glyph-name="ecircumflex" horiz-adv-x="940" d="M84 440Q84 651 204 796T504 942Q643 942 747 853T856 610Q817 596 776 590L240 512L219 487Q221 323 305 210T555 96Q633 96 701 121T800 174L829 201L852 164Q848 156 839 144T799 99T732
41T635 -4T508 -25Q303 -25 194 111T84 440ZM477 872Q373 872 309 790T225 580L688 639Q688 649 685 664T669 720T635 790T572 846T477 872ZM221 1065L455 1425H526L758 1065L702 1030L489 1272L276 1030L221 1065Z" />
<glyph unicode="&#xeb;" glyph-name="edieresis" horiz-adv-x="940" d="M84 440Q84 651 204 796T504 942Q643 942 747 853T856 610Q817 596 776 590L240 512L219 487Q221 323 305 210T555 96Q633 96 701 121T800 174L829 201L852 164Q848 156 839 144T799 99T732
41T635 -4T508 -25Q303 -25 194 111T84 440ZM477 872Q373 872 309 790T225 580L688 639Q688 649 685 664T669 720T635 790T572 846T477 872ZM696 1159T657 1159T588 1191T557 1261T587 1332T657 1364T727 1332T758 1262T727 1191ZM358 1159T320 1159T250 1191T219
1261T250 1332T319 1364T388 1332T418 1262T388 1191Z" />
<glyph unicode="&#xec;" glyph-name="igrave" horiz-adv-x="550" d="M84 -6V49Q215 63 215 182V684Q215 737 212 762T196 806T154 825H57V877Q375 959 373 971L375 965Q350 897 350 731V182L340 72L518 53L510 6L84 -6ZM4 1376V1432L158 1415L338 1065L281 1032L4 1376Z" />
<glyph unicode="&#xed;" glyph-name="iacute" horiz-adv-x="550" d="M250 1032L193 1065L373 1415L526 1432V1376L250 1032ZM84 -6V49Q215 63 215 182V684Q215 737 212 762T196 806T154 825H57V877Q375 959 373 971L375 965Q350 897 350 731V182L340 72L518 53L510
6L84 -6Z" />
<glyph unicode="&#xee;" glyph-name="icircumflex" horiz-adv-x="550" d="M-4 1065L229 1425H301L532 1065L477 1030L264 1272L51 1030L-4 1065ZM84 -6V49Q215 63 215 182V684Q215 737 212 762T196 806T154 825H57V877Q375 959 373 971L375 965Q350 897 350 731V182L340
72L518 53L510 6L84 -6Z" />
<glyph unicode="&#xef;" glyph-name="idieresis" horiz-adv-x="550" d="M-4 1223T-4 1261T26 1332T96 1364T166 1332T197 1262T166 1191T96 1159T27 1191ZM330 1223T330 1261T360 1332T430 1364T498 1332T528 1262T499 1191T430 1159T361 1191ZM84 -6V49Q215 63
215 182V684Q215 737 212 762T196 806T154 825H57V877Q375 959 373 971L375 965Q350 897 350 731V182L340 72L518 53L510 6L84 -6Z" />
<glyph unicode="&#xf0;" glyph-name="eth" horiz-adv-x="1071" d="M281 1055L244 1120L504 1280Q363 1409 180 1466L199 1513Q424 1468 596 1339L862 1505L899 1440L655 1288Q802 1153 883 966T965 578Q965 314 841 145T498 -25Q301 -25 192 106T82 424Q82 629
208 785T547 942Q662 942 752 903Q689 1087 559 1227L281 1055ZM231 465Q231 301 306 170T514 39Q643 39 730 170T817 532Q817 675 761 776T565 877Q413 877 322 761T231 465Z" />
<glyph unicode="&#xf1;" glyph-name="ntilde" horiz-adv-x="1159" d="M84 -6V49Q215 63 215 182V684Q215 737 212 762T196 806T154 825H57V877Q139 895 214 918T323 956L356 971L362 965Q344 889 344 707Q405 803 511 872T741 942Q970 942 971 666V182L961 74L1139
53L1130 6L711 -6V49Q783 57 809 90T836 182V633Q836 838 686 838Q606 838 512 791T350 670V182L340 74L516 53L508 6L84 -6ZM305 1155Q305 1165 305 1180T313 1237T337 1308T388 1365T473 1391Q520 1391 558 1367T617 1316T667 1265T727 1241Q762 1241 782 1276T806
1345L809 1378H879Q879 1368 878 1352T869 1293T845 1219T793 1160T707 1133Q660 1133 622 1156T564 1208T514 1260T455 1284Q422 1284 402 1253T378 1188L375 1155H305Z" />
<glyph unicode="&#xf2;" glyph-name="ograve" horiz-adv-x="1075" d="M84 438Q84 567 128 676T281 864T553 942Q766 942 878 817T991 496Q991 289 867 132T518 -25Q311 -25 198 105T84 438ZM240 483Q240 372 269 275T370 109T545 39Q678 39 757 144T836 432Q838
545 808 642T706 810T528 881Q385 881 313 765T240 483ZM272 1376V1432L426 1415L606 1065L549 1032L272 1376Z" />
<glyph unicode="&#xf3;" glyph-name="oacute" horiz-adv-x="1075" d="M514 1032L457 1065L637 1415L791 1432V1376L514 1032ZM84 438Q84 567 128 676T281 864T553 942Q766 942 878 817T991 496Q991 289 867 132T518 -25Q311 -25 198 105T84 438ZM240 483Q240 372
269 275T370 109T545 39Q678 39 757 144T836 432Q838 545 808 642T706 810T528 881Q385 881 313 765T240 483Z" />
<glyph unicode="&#xf4;" glyph-name="ocircumflex" horiz-adv-x="1075" d="M262 1065L496 1425H567L799 1065L743 1030L530 1272L317 1030L262 1065ZM84 438Q84 567 128 676T281 864T553 942Q766 942 878 817T991 496Q991 289 867 132T518 -25Q311 -25 198 105T84
438ZM240 483Q240 372 269 275T370 109T545 39Q678 39 757 144T836 432Q838 545 808 642T706 810T528 881Q385 881 313 765T240 483Z" />
<glyph unicode="&#xf5;" glyph-name="otilde" horiz-adv-x="1075" d="M84 438Q84 567 128 676T281 864T553 942Q766 942 878 817T991 496Q991 289 867 132T518 -25Q311 -25 198 105T84 438ZM240 483Q240 372 269 275T370 109T545 39Q678 39 757 144T836 432Q838
545 808 642T706 810T528 881Q385 881 313 765T240 483ZM244 1155Q244 1165 244 1180T252 1237T275 1308T326 1365T412 1391Q459 1391 497 1367T556 1316T606 1265T666 1241Q701 1241 721 1276T744 1345L748 1378H817Q817 1368 816 1352T807 1293T784 1219T731
1160T645 1133Q598 1133 560 1156T502 1208T453 1260T393 1284Q360 1284 340 1253T316 1188L313 1155H244Z" />
<glyph unicode="&#xf6;" glyph-name="odieresis" horiz-adv-x="1075" d="M399 1159T361 1159T291 1191T260 1261T291 1332T360 1364T429 1332T459 1262T429 1191ZM737 1159T698 1159T629 1191T598 1261T628 1332T698 1364T768 1332T799 1262T768 1191ZM84 438Q84
567 128 676T281 864T553 942Q766 942 878 817T991 496Q991 289 867 132T518 -25Q311 -25 198 105T84 438ZM240 483Q240 372 269 275T370 109T545 39Q678 39 757 144T836 432Q838 545 808 642T706 810T528 881Q385 881 313 765T240 483Z" />
<glyph unicode="&#xf7;" glyph-name="divide" horiz-adv-x="1064" d="M74 461V561H991V461H74ZM416 117Q416 164 450 197T532 231T614 198T649 117Q649 68 615 34T533 0T451 34T416 117ZM580 791T533 791T451 824T416 907Q416 954 450 988T532 1022T614 988T649
907Q649 858 615 825Z" />
<glyph unicode="&#xf8;" glyph-name="oslash" horiz-adv-x="1075" d="M100 -61L213 88Q84 213 84 438Q84 567 128 676T281 864T553 942Q698 942 801 879L877 979H977L866 829Q991 706 991 496Q991 289 867 132T518 -25Q379 -25 279 37L205 -61H100ZM240 483Q240
323 299 205L731 784Q649 880 528 881Q385 881 313 765T240 483ZM836 432Q836 590 778 711L348 131Q424 39 545 39Q678 39 757 144T836 432Z" />
<glyph unicode="&#xf9;" glyph-name="ugrave" horiz-adv-x="1136" d="M184 250V686Q184 739 181 763T165 806T123 825H47V879Q113 891 183 909T292 940L330 952L338 946Q320 889 319 731V285Q319 172 356 128T467 84Q635 84 797 248V686Q797 739 794 763T778 806T735
825H662V879Q728 891 797 909T903 940L940 952L950 946Q932 889 932 731V190Q932 110 957 92T1047 74H1106L1100 23L793 -18L782 -12Q802 47 803 98V211Q641 -25 408 -25Q184 -24 184 250ZM297 1376V1432L451 1415L631 1065L573 1032L297 1376Z" />
<glyph unicode="&#xfa;" glyph-name="uacute" horiz-adv-x="1136" d="M541 1032L483 1065L664 1415L817 1432V1376L541 1032ZM184 250V686Q184 739 181 763T165 806T123 825H47V879Q113 891 183 909T292 940L330 952L338 946Q320 889 319 731V285Q319 172 356
128T467 84Q635 84 797 248V686Q797 739 794 763T778 806T735 825H662V879Q728 891 797 909T903 940L940 952L950 946Q932 889 932 731V190Q932 110 957 92T1047 74H1106L1100 23L793 -18L782 -12Q802 47 803 98V211Q641 -25 408 -25Q184 -24 184 250Z" />
<glyph unicode="&#xfb;" glyph-name="ucircumflex" horiz-adv-x="1136" d="M287 1065L520 1425H592L823 1065L768 1030L555 1272L342 1030L287 1065ZM184 250V686Q184 739 181 763T165 806T123 825H47V879Q113 891 183 909T292 940L330 952L338 946Q320 889 319
731V285Q319 172 356 128T467 84Q635 84 797 248V686Q797 739 794 763T778 806T735 825H662V879Q728 891 797 909T903 940L940 952L950 946Q932 889 932 731V190Q932 110 957 92T1047 74H1106L1100 23L793 -18L782 -12Q802 47 803 98V211Q641 -25 408 -25Q184 -24
184 250Z" />
<glyph unicode="&#xfc;" glyph-name="udieresis" horiz-adv-x="1136" d="M424 1159T385 1159T316 1191T285 1261T315 1332T385 1364T453 1332T483 1262T454 1191ZM762 1159T723 1159T654 1191T623 1261T653 1332T723 1364T792 1332T823 1262T793 1191ZM184 250V686Q184
739 181 763T165 806T123 825H47V879Q113 891 183 909T292 940L330 952L338 946Q320 889 319 731V285Q319 172 356 128T467 84Q635 84 797 248V686Q797 739 794 763T778 806T735 825H662V879Q728 891 797 909T903 940L940 952L950 946Q932 889 932 731V190Q932
110 957 92T1047 74H1106L1100 23L793 -18L782 -12Q802 47 803 98V211Q641 -25 408 -25Q184 -24 184 250Z" />
<glyph unicode="&#xfd;" glyph-name="yacute" horiz-adv-x="940" d="M141 -330Q213 -330 265 -288T344 -188L426 2Q416 39 381 127L125 752Q107 797 78 826T31 863L12 870V918H109L285 926L293 918Q275 881 275 827T293 729L463 297L504 172L745 723Q792 827 633
870V918H911L922 885Q883 869 846 776L475 -57Q471 -65 447 -123T406 -217T357 -309T294 -399T221 -458T135 -485Q96 -485 75 -462T53 -406Q53 -375 74 -353T141 -330ZM467 1032L410 1065L590 1415L743 1432V1376L467 1032Z" />
<glyph unicode="&#xfe;" glyph-name="thorn" horiz-adv-x="1052" d="M297 158Q297 43 461 43Q631 43 727 148T823 440Q823 608 750 725T541 842Q418 842 297 739V158ZM162 -254V1227Q162 1280 159 1305T143 1349T100 1368H12V1419Q102 1439 177 1462T282 1496L311
1507L317 1501Q297 1425 297 1268V965L295 782Q297 784 308 798T324 819T344 839T366 861T392 880T423 900T456 916T497 931T543 939T596 942Q778 942 873 809T969 494Q969 281 835 128T444 -25Q368 -25 297 -10V-252L287 -369H506L498 -416Q189 -453 53 -502V-444Q121
-407 141 -369T162 -254Z" />
<glyph unicode="&#xff;" glyph-name="ydieresis" horiz-adv-x="940" d="M141 -330Q213 -330 265 -288T344 -188L426 2Q416 39 381 127L125 752Q107 797 78 826T31 863L12 870V918H109L285 926L293 918Q275 881 275 827T293 729L463 297L504 172L745 723Q792 827
633 870V918H911L922 885Q883 869 846 776L475 -57Q471 -65 447 -123T406 -217T357 -309T294 -399T221 -458T135 -485Q96 -485 75 -462T53 -406Q53 -375 74 -353T141 -330ZM690 1159T651 1159T582 1191T551 1261T581 1332T651 1364T721 1332T752 1262T721 1191ZM352
1159T313 1159T244 1191T213 1261T243 1332T313 1364T382 1332T412 1262T382 1191Z" />
<glyph unicode="&#x100;" glyph-name="Amacron" horiz-adv-x="1286" d="M-18 0V55Q86 65 119 147L608 1362L678 1376L1135 215Q1158 160 1176 126T1217 78T1251 60T1294 51L1286 0H1196L915 -6V61Q968 63 994 79T1004 139L868 489H360L336 473L186 78L360 53L352
0H-18ZM645 1071Q629 1112 608 1184L373 567H838L645 1071ZM389 1573V1683H897V1573H389Z" />
<glyph unicode="&#x101;" glyph-name="amacron" horiz-adv-x="925" d="M63 174Q63 307 200 391T524 504L594 514V516Q598 668 586 735Q557 878 444 879Q403 879 366 860T302 812T257 757T229 710L221 690H164L133 834Q149 846 179 864T303 912T494 942Q631 942
680 879T729 649V176Q729 121 739 101T786 80Q813 80 842 91T889 113L905 123L930 84Q920 72 902 54T830 5T727 -25Q670 -25 634 12T598 123V178Q594 170 585 157T545 108T479 45T387 -3T268 -25Q170 -25 117 34T63 174ZM334 76Q420 76 594 219V457L526 446Q407
428 311 370T215 207Q215 146 251 111T334 76ZM219 1212V1323H666V1212H219Z" />
<glyph unicode="&#x102;" glyph-name="Abreve" horiz-adv-x="1286" d="M-18 0V55Q86 65 119 147L608 1362L678 1376L1135 215Q1158 160 1176 126T1217 78T1251 60T1294 51L1286 0H1196L915 -6V61Q968 63 994 79T1004 139L868 489H360L336 473L186 78L360 53L352
0H-18ZM645 1071Q629 1112 608 1184L373 567H838L645 1071ZM643 1479Q516 1479 437 1538T358 1694Q358 1733 373 1774H436Q422 1682 487 1636T643 1589Q731 1589 793 1632T848 1774H913Q925 1739 926 1692Q926 1596 847 1538T643 1479Z" />
<glyph unicode="&#x103;" glyph-name="abreve" horiz-adv-x="925" d="M63 174Q63 307 200 391T524 504L594 514V516Q598 668 586 735Q557 878 444 879Q403 879 366 860T302 812T257 757T229 710L221 690H164L133 834Q149 846 179 864T303 912T494 942Q631 942
680 879T729 649V176Q729 121 739 101T786 80Q813 80 842 91T889 113L905 123L930 84Q920 72 902 54T830 5T727 -25Q670 -25 634 12T598 123V178Q594 170 585 157T545 108T479 45T387 -3T268 -25Q170 -25 117 34T63 174ZM334 76Q420 76 594 219V457L526 446Q407
428 311 370T215 207Q215 146 251 111T334 76ZM557 1108T443 1108T255 1174T182 1346Q182 1387 193 1419H258V1403Q258 1401 258 1398Q258 1380 259 1366T269 1322T296 1273T351 1237T442 1221Q497 1221 536 1239T591 1275T617 1329T627 1373T627 1403V1419H692Q702
1374 702 1346Q702 1242 630 1175Z" />
<glyph unicode="&#x104;" glyph-name="Aogonek" horiz-adv-x="1286" d="M-18 0V55Q86 65 119 147L608 1362L678 1376L1135 215Q1158 160 1176 126T1217 78T1251 60T1294 51L1286 0H1235Q1178 -6 1102 -103T1026 -281Q1026 -347 1069 -378T1171 -410L1214 -406L1227
-451Q1127 -486 1069 -485Q979 -485 928 -436T877 -311Q877 -260 907 -208T971 -122T1076 -22Q1092 -8 1100 0L915 -6V61Q968 63 994 79T1004 139L868 489H360L336 473L186 78L360 53L352 0H-18ZM645 1071Q629 1112 608 1184L373 567H838L645 1071Z" />
<glyph unicode="&#x105;" glyph-name="aogonek" horiz-adv-x="925" d="M63 174Q63 307 200 391T524 504L594 514V516Q598 668 586 735Q557 878 444 879Q403 879 366 860T302 812T257 757T229 710L221 690H164L133 834Q149 846 179 864T303 912T494 942Q631 942
680 879T729 649V176Q729 121 739 101T786 80Q813 80 842 91T889 113L905 123L930 84Q897 47 850 16Q778 -39 719 -119T659 -276Q659 -409 801 -410L846 -406L860 -451Q760 -486 702 -485Q612 -485 561 -436T510 -311Q510 -260 539 -209T603 -122T709 -23Q598 -13
598 123V178Q594 170 585 157T545 108T479 45T387 -3T268 -25Q170 -25 117 34T63 174ZM334 76Q420 76 594 219V457L526 446Q407 428 311 370T215 207Q215 146 251 111T334 76Z" />
<glyph unicode="&#x106;" glyph-name="Cacute" horiz-adv-x="1382" d="M100 670Q100 996 311 1193T842 1391Q908 1391 987 1383T1153 1363T1270 1348L1208 1038H1143Q1145 1188 1044 1254T803 1321Q570 1321 415 1151T260 721Q260 449 430 272T858 94Q975 94 1079
131T1230 205L1276 242L1303 203Q1297 193 1285 179T1228 124T1133 55T993 0T809 -25Q680 -25 557 18T331 143T164 362T100 670ZM606 1546L958 1757H969L1028 1663V1616L629 1485L606 1546Z" />
<glyph unicode="&#x107;" glyph-name="cacute" horiz-adv-x="892" d="M475 1032L418 1065L598 1415L752 1432V1376L475 1032ZM84 442Q84 643 197 792T504 942Q615 942 720 901T825 791Q825 764 807 745T756 725Q715 725 679 764T599 842T496 881Q371 881 298 768T225
492Q225 416 244 349T303 223T411 130T571 96Q641 96 700 117T783 162L807 184L829 147Q825 141 818 129T784 87T723 35T634 -6T514 -25Q309 -25 197 113T84 442Z" />
<glyph unicode="&#x108;" glyph-name="Ccircumflex" horiz-adv-x="1382" d="M100 670Q100 996 311 1193T842 1391Q908 1391 987 1383T1153 1363T1270 1348L1208 1038H1143Q1145 1188 1044 1254T803 1321Q570 1321 415 1151T260 721Q260 449 430 272T858 94Q975
94 1079 131T1230 205L1276 242L1303 203Q1297 193 1285 179T1228 124T1133 55T993 0T809 -25Q680 -25 557 18T331 143T164 362T100 670ZM457 1513L721 1784H817L1079 1513L1030 1470L770 1645H766L506 1470L457 1513Z" />
<glyph unicode="&#x109;" glyph-name="ccircumflex" horiz-adv-x="892" d="M225 1065L459 1425H530L762 1065L707 1030L494 1272L281 1030L225 1065ZM84 442Q84 643 197 792T504 942Q615 942 720 901T825 791Q825 764 807 745T756 725Q715 725 679 764T599 842T496
881Q371 881 298 768T225 492Q225 416 244 349T303 223T411 130T571 96Q641 96 700 117T783 162L807 184L829 147Q825 141 818 129T784 87T723 35T634 -6T514 -25Q309 -25 197 113T84 442Z" />
<glyph unicode="&#x10a;" glyph-name="Cdotaccent" horiz-adv-x="1382" d="M805 1528T768 1528T702 1557T672 1626Q672 1663 701 1693T768 1724T834 1694T864 1626Q864 1587 835 1558ZM100 670Q100 996 311 1193T842 1391Q908 1391 987 1383T1153 1363T1270 1348L1208
1038H1143Q1145 1188 1044 1254T803 1321Q570 1321 415 1151T260 721Q260 449 430 272T858 94Q975 94 1079 131T1230 205L1276 242L1303 203Q1297 193 1285 179T1228 124T1133 55T993 0T809 -25Q680 -25 557 18T331 143T164 362T100 670Z" />
<glyph unicode="&#x10b;" glyph-name="cdotaccent" horiz-adv-x="892" d="M84 442Q84 643 197 792T504 942Q615 942 720 901T825 791Q825 764 807 745T756 725Q715 725 679 764T599 842T496 881Q371 881 298 768T225 492Q225 416 244 349T303 223T411 130T571
96Q641 96 700 117T783 162L807 184L829 147Q825 141 818 129T784 87T723 35T634 -6T514 -25Q309 -25 197 113T84 442ZM530 1161T494 1161T427 1192T397 1262Q397 1299 427 1329T493 1360T560 1329T590 1262Q590 1223 560 1192Z" />
<glyph unicode="&#x10c;" glyph-name="Ccaron" horiz-adv-x="1382" d="M100 670Q100 996 311 1193T842 1391Q908 1391 987 1383T1153 1363T1270 1348L1208 1038H1143Q1145 1188 1044 1254T803 1321Q570 1321 415 1151T260 721Q260 449 430 272T858 94Q975 94 1079
131T1230 205L1276 242L1303 203Q1297 193 1285 179T1228 124T1133 55T993 0T809 -25Q680 -25 557 18T331 143T164 362T100 670ZM457 1741L506 1784L766 1612H770L1030 1784L1079 1741L817 1470H723L457 1741Z" />
<glyph unicode="&#x10d;" glyph-name="ccaron" horiz-adv-x="892" d="M459 1071L225 1409L281 1444L494 1219L707 1444L762 1409L530 1071H459ZM84 442Q84 643 197 792T504 942Q615 942 720 901T825 791Q825 764 807 745T756 725Q715 725 679 764T599 842T496
881Q371 881 298 768T225 492Q225 416 244 349T303 223T411 130T571 96Q641 96 700 117T783 162L807 184L829 147Q825 141 818 129T784 87T723 35T634 -6T514 -25Q309 -25 197 113T84 442Z" />
<glyph unicode="&#x10e;" glyph-name="Dcaron" horiz-adv-x="1515" d="M111 -6V55Q263 71 262 182V1169Q262 1245 235 1270T90 1319V1366H635Q791 1366 922 1336T1167 1236T1346 1038T1411 731Q1411 389 1181 195T551 0H389L111 -6ZM399 70H551Q739 70 877 119T1093
256T1207 451T1243 688Q1243 971 1084 1133T623 1296H428L410 1276V184L399 70ZM406 1741L455 1784L715 1612H719L979 1784L1028 1741L766 1470H672L406 1741Z" />
<glyph unicode="&#x10f;" glyph-name="dcaron" horiz-adv-x="1093" d="M1016 1130L1067 1509L1206 1530V1495L1073 1130H1016ZM84 424Q84 633 219 787T602 942L762 930V1227Q762 1280 759 1305T743 1349T700 1368H610V1419Q700 1439 776 1462T882 1496L911 1507L918
1501Q898 1425 897 1268V190Q897 110 923 92T1012 74H1073L1067 23L770 -16L764 -8Q770 47 770 98V145Q735 94 706 64T614 4T473 -25Q287 -25 186 109T84 424ZM526 78Q604 78 667 112T762 184V764Q762 875 598 874Q430 874 330 771T229 479Q229 311 309 195T526
78Z" />
<glyph unicode="&#x110;" glyph-name="Dcroat" horiz-adv-x="1517" d="M74 655V733H262V1169Q262 1245 236 1270T92 1319V1366H637Q793 1366 924 1336T1169 1236T1348 1038T1413 731Q1413 389 1183 195T553 0H391L113 -6V55Q263 71 262 182V655H74ZM399 70H553Q741
70 879 119T1096 256T1209 451T1245 688Q1245 971 1085 1133T625 1296H430L410 1276V733H766V655H410V184L399 70Z" />
<glyph unicode="&#x111;" glyph-name="" horiz-adv-x="1093" d="M477 1079V1155H762V1227Q762 1280 759 1305T743 1349T700 1368H610V1419Q700 1439 776 1462T882 1496L911 1507L918 1501Q898 1425 897 1268V1155H1051V1079H897V190Q897 110 923 92T1012 74H1073L1067
23L770 -16L764 -8Q770 47 770 98V145Q735 94 706 64T614 4T473 -25Q287 -25 186 109T84 424Q84 633 219 787T602 942L762 930V1079H477ZM526 78Q604 78 667 112T762 184V764Q762 875 598 874Q430 874 330 771T229 479Q229 311 309 195T526 78Z" />
<glyph unicode="&#x112;" glyph-name="Emacron" horiz-adv-x="1183" d="M111 -6V55Q263 71 262 182V1169Q262 1245 235 1270T90 1319V1366H918L1061 1374L997 1038H932Q940 1190 890 1243T711 1296H428L410 1276V727H801L817 844L889 856V506H797V657H428L410
637V184L399 70H733Q860 70 907 114T1036 330H1102L1026 0H389L111 -6ZM360 1573V1683H868V1573H360Z" />
<glyph unicode="&#x113;" glyph-name="emacron" horiz-adv-x="940" d="M84 440Q84 651 204 796T504 942Q643 942 747 853T856 610Q817 596 776 590L240 512L219 487Q221 323 305 210T555 96Q633 96 701 121T800 174L829 201L852 164Q848 156 839 144T799 99T732
41T635 -4T508 -25Q303 -25 194 111T84 440ZM477 872Q373 872 309 790T225 580L688 639Q688 649 685 664T669 720T635 790T572 846T477 872ZM266 1212V1323H713V1212H266Z" />
<glyph unicode="&#x114;" glyph-name="Ebreve" horiz-adv-x="1183" d="M111 -6V55Q263 71 262 182V1169Q262 1245 235 1270T90 1319V1366H918L1061 1374L997 1038H932Q940 1190 890 1243T711 1296H428L410 1276V727H801L817 844L889 856V506H797V657H428L410 637V184L399
70H733Q860 70 907 114T1036 330H1102L1026 0H389L111 -6ZM614 1479Q487 1479 409 1538T330 1694Q330 1733 344 1774H408Q394 1682 459 1636T614 1589Q702 1589 764 1632T819 1774H885Q897 1739 897 1692Q897 1596 818 1538T614 1479Z" />
<glyph unicode="&#x115;" glyph-name="ebreve" horiz-adv-x="940" d="M84 440Q84 651 204 796T504 942Q643 942 747 853T856 610Q817 596 776 590L240 512L219 487Q221 323 305 210T555 96Q633 96 701 121T800 174L829 201L852 164Q848 156 839 144T799 99T732
41T635 -4T508 -25Q303 -25 194 111T84 440ZM477 872Q373 872 309 790T225 580L688 639Q688 649 685 664T669 720T635 790T572 846T477 872ZM604 1108T490 1108T302 1174T229 1346Q229 1387 240 1419H305V1403Q305 1401 305 1398Q305 1380 306 1366T316 1322T343
1273T398 1237T489 1221Q544 1221 583 1239T639 1275T664 1329T674 1373T674 1403V1419H739Q749 1374 750 1346Q750 1242 677 1175Z" />
<glyph unicode="&#x116;" glyph-name="Edotaccent" horiz-adv-x="1183" d="M651 1528T615 1528T548 1557T518 1626Q518 1663 548 1693T614 1724T681 1694T711 1626Q711 1587 681 1558ZM111 -6V55Q263 71 262 182V1169Q262 1245 235 1270T90 1319V1366H918L1061
1374L997 1038H932Q940 1190 890 1243T711 1296H428L410 1276V727H801L817 844L889 856V506H797V657H428L410 637V184L399 70H733Q860 70 907 114T1036 330H1102L1026 0H389L111 -6Z" />
<glyph unicode="&#x117;" glyph-name="edotaccent" horiz-adv-x="940" d="M84 440Q84 651 204 796T504 942Q643 942 747 853T856 610Q817 596 776 590L240 512L219 487Q221 323 305 210T555 96Q633 96 701 121T800 174L829 201L852 164Q848 156 839 144T799 99T732
41T635 -4T508 -25Q303 -25 194 111T84 440ZM477 872Q373 872 309 790T225 580L688 639Q688 649 685 664T669 720T635 790T572 846T477 872ZM526 1161T490 1161T423 1192T393 1262Q393 1299 423 1329T489 1360T556 1329T586 1262Q586 1223 556 1192Z" />
<glyph unicode="&#x118;" glyph-name="Eogonek" horiz-adv-x="1183" d="M111 -6V55Q263 71 262 182V1169Q262 1245 235 1270T90 1319V1366H918L1061 1374L997 1038H932Q940 1190 890 1243T711 1296H428L410 1276V727H801L817 844L889 856V506H797V657H428L410
637V184L399 70H733Q860 70 907 114T1036 330H1102L1026 0H1018Q961 -6 885 -102T809 -281Q809 -349 851 -379T954 -410L995 -406L1010 -451Q910 -486 852 -485Q762 -485 711 -436T659 -311Q659 -270 672 -235T729 -152T793 -84T885 0H389L111 -6Z" />
<glyph unicode="&#x119;" glyph-name="eogonek" horiz-adv-x="940" d="M84 440Q84 651 204 796T504 942Q643 942 747 853T856 610Q817 596 776 590L240 512L219 487Q221 323 305 210T555 96Q633 96 701 121T800 174L829 201L852 164Q811 98 737 45Q669 2 589 -91T508
-276Q508 -409 649 -410L694 -406L707 -451Q609 -486 549 -485Q459 -485 408 -436T356 -311Q356 -239 404 -177T557 -20Q524 -24 508 -25Q303 -25 194 111T84 440ZM477 872Q373 872 309 790T225 580L688 639Q688 649 685 664T669 720T635 790T572 846T477 872Z"
/>
<glyph unicode="&#x11a;" glyph-name="Ecaron" horiz-adv-x="1183" d="M111 -6V55Q263 71 262 182V1169Q262 1245 235 1270T90 1319V1366H918L1061 1374L997 1038H932Q940 1190 890 1243T711 1296H428L410 1276V727H801L817 844L889 856V506H797V657H428L410 637V184L399
70H733Q860 70 907 114T1036 330H1102L1026 0H389L111 -6ZM303 1741L352 1784L612 1612H616L877 1784L926 1741L664 1470H569L303 1741Z" />
<glyph unicode="&#x11b;" glyph-name="ecaron" horiz-adv-x="940" d="M84 440Q84 651 204 796T504 942Q643 942 747 853T856 610Q817 596 776 590L240 512L219 487Q221 323 305 210T555 96Q633 96 701 121T800 174L829 201L852 164Q848 156 839 144T799 99T732
41T635 -4T508 -25Q303 -25 194 111T84 440ZM477 872Q373 872 309 790T225 580L688 639Q688 649 685 664T669 720T635 790T572 846T477 872ZM455 1071L221 1409L276 1444L489 1219L702 1444L758 1409L526 1071H455Z" />
<glyph unicode="&#x11c;" glyph-name="Gcircumflex" horiz-adv-x="1449" d="M487 1513L752 1784H848L1110 1513L1061 1470L801 1645H797L537 1470L487 1513ZM100 655Q100 796 145 925T278 1160T513 1328T846 1391Q905 1391 983 1385T1116 1371T1230 1356T1298
1346L1237 1038H1171Q1169 1192 1072 1256T829 1321Q567 1321 418 1142T268 702Q268 417 450 235T926 53Q1016 53 1145 80V389Q1145 467 1115 493T956 539V586H1364L1374 561Q1366 557 1353 547T1317 487T1294 367V29Q1009 -24 840 -25Q521 -25 311 155T100 655Z"
/>
<glyph unicode="&#x11d;" glyph-name="gcircumflex" horiz-adv-x="976" d="M145 154Q145 181 165 206T204 243T269 279T328 309Q219 340 154 418T88 612Q88 766 195 854T461 942Q520 942 597 922T721 901H819Q848 901 881 907T935 921L954 928L938 805H821L750
811Q760 803 774 786T813 713T838 598Q838 461 727 376T461 291Q402 291 360 301Q301 242 301 209Q301 197 307 188T329 169T362 155T408 143T461 130T527 117T598 102Q670 88 724 70T830 23T911 -50T940 -152Q940 -293 782 -389T426 -485Q270 -485 161 -422T51
-236Q51 -187 72 -145T115 -79T184 -29T246 5T309 31Q145 70 145 154ZM543 -14Q510 -6 446 5T358 20Q192 -76 193 -215Q193 -309 270 -361T459 -414Q586 -414 688 -352T791 -195Q791 -67 543 -14ZM467 356Q578 356 632 427T686 600Q686 711 626 794T457 877T294
801T240 617T297 432T467 356ZM178 1065L412 1425H483L715 1065L659 1030L446 1272L233 1030L178 1065Z" />
<glyph unicode="&#x11e;" glyph-name="Gbreve" horiz-adv-x="1449" d="M100 655Q100 796 145 925T278 1160T513 1328T846 1391Q905 1391 983 1385T1116 1371T1230 1356T1298 1346L1237 1038H1171Q1169 1192 1072 1256T829 1321Q567 1321 418 1142T268 702Q268
417 450 235T926 53Q1016 53 1145 80V389Q1145 467 1115 493T956 539V586H1364L1374 561Q1366 557 1353 547T1317 487T1294 367V29Q1009 -24 840 -25Q521 -25 311 155T100 655ZM799 1479Q672 1479 593 1538T514 1694Q514 1733 528 1774H592Q578 1682 643 1636T799
1589Q887 1589 949 1632T1004 1774H1069Q1081 1739 1081 1692Q1081 1596 1003 1538T799 1479Z" />
<glyph unicode="&#x11f;" glyph-name="gbreve" horiz-adv-x="976" d="M145 154Q145 181 165 206T204 243T269 279T328 309Q219 340 154 418T88 612Q88 766 195 854T461 942Q520 942 597 922T721 901H819Q848 901 881 907T935 921L954 928L938 805H821L750 811Q760
803 774 786T813 713T838 598Q838 461 727 376T461 291Q402 291 360 301Q301 242 301 209Q301 197 307 188T329 169T362 155T408 143T461 130T527 117T598 102Q670 88 724 70T830 23T911 -50T940 -152Q940 -293 782 -389T426 -485Q270 -485 161 -422T51 -236Q51
-187 72 -145T115 -79T184 -29T246 5T309 31Q145 70 145 154ZM543 -14Q510 -6 446 5T358 20Q192 -76 193 -215Q193 -309 270 -361T459 -414Q586 -414 688 -352T791 -195Q791 -67 543 -14ZM467 356Q578 356 632 427T686 600Q686 711 626 794T457 877T294 801T240
617T297 432T467 356ZM561 1108T447 1108T259 1174T186 1346Q186 1387 197 1419H262V1403Q262 1401 262 1398Q262 1380 263 1366T273 1322T300 1273T355 1237T446 1221Q501 1221 540 1239T596 1275T621 1329T631 1373T631 1403V1419H696Q706 1374 707 1346Q707
1242 634 1175Z" />
<glyph unicode="&#x120;" glyph-name="Gdotaccent" horiz-adv-x="1449" d="M836 1528T799 1528T732 1557T702 1626Q702 1663 732 1693T799 1724T865 1694T895 1626Q895 1587 866 1558ZM100 655Q100 796 145 925T278 1160T513 1328T846 1391Q905 1391 983 1385T1116
1371T1230 1356T1298 1346L1237 1038H1171Q1169 1192 1072 1256T829 1321Q567 1321 418 1142T268 702Q268 417 450 235T926 53Q1016 53 1145 80V389Q1145 467 1115 493T956 539V586H1364L1374 561Q1366 557 1353 547T1317 487T1294 367V29Q1009 -24 840 -25Q521
-25 311 155T100 655Z" />
<glyph unicode="&#x121;" glyph-name="gdotaccent" horiz-adv-x="976" d="M145 154Q145 181 165 206T204 243T269 279T328 309Q219 340 154 418T88 612Q88 766 195 854T461 942Q520 942 597 922T721 901H819Q848 901 881 907T935 921L954 928L938 805H821L750
811Q760 803 774 786T813 713T838 598Q838 461 727 376T461 291Q402 291 360 301Q301 242 301 209Q301 197 307 188T329 169T362 155T408 143T461 130T527 117T598 102Q670 88 724 70T830 23T911 -50T940 -152Q940 -293 782 -389T426 -485Q270 -485 161 -422T51
-236Q51 -187 72 -145T115 -79T184 -29T246 5T309 31Q145 70 145 154ZM543 -14Q510 -6 446 5T358 20Q192 -76 193 -215Q193 -309 270 -361T459 -414Q586 -414 688 -352T791 -195Q791 -67 543 -14ZM467 356Q578 356 632 427T686 600Q686 711 626 794T457 877T294
801T240 617T297 432T467 356ZM483 1161T447 1161T380 1192T350 1262Q350 1299 380 1329T446 1360T513 1329T543 1262Q543 1223 513 1192Z" />
<glyph unicode="&#x122;" glyph-name="Gcommaaccent" horiz-adv-x="1449" d="M721 -135L745 -88H868Q919 -162 919 -242T861 -388T729 -494L690 -436Q805 -368 805 -299Q805 -237 721 -135ZM100 655Q100 796 145 925T278 1160T513 1328T846 1391Q905 1391 983
1385T1116 1371T1230 1356T1298 1346L1237 1038H1171Q1169 1192 1072 1256T829 1321Q567 1321 418 1142T268 702Q268 417 450 235T926 53Q1016 53 1145 80V389Q1145 467 1115 493T956 539V586H1364L1374 561Q1366 557 1353 547T1317 487T1294 367V29Q1009 -24 840
-25Q521 -25 311 155T100 655Z" />
<glyph unicode="&#x123;" glyph-name="gcommaaccent" horiz-adv-x="976" d="M545 1094L520 1047H397Q346 1121 346 1200T405 1346T537 1452L575 1395Q460 1327 461 1257Q461 1196 545 1094ZM145 154Q145 181 165 206T204 243T269 279T328 309Q219 340 154 418T88
612Q88 766 195 854T461 942Q520 942 597 922T721 901H819Q848 901 881 907T935 921L954 928L938 805H821L750 811Q760 803 774 786T813 713T838 598Q838 461 727 376T461 291Q402 291 360 301Q301 242 301 209Q301 197 307 188T329 169T362 155T408 143T461 130T527
117T598 102Q670 88 724 70T830 23T911 -50T940 -152Q940 -293 782 -389T426 -485Q270 -485 161 -422T51 -236Q51 -187 72 -145T115 -79T184 -29T246 5T309 31Q145 70 145 154ZM543 -14Q510 -6 446 5T358 20Q192 -76 193 -215Q193 -309 270 -361T459 -414Q586 -414
688 -352T791 -195Q791 -67 543 -14ZM467 356Q578 356 632 427T686 600Q686 711 626 794T457 877T294 801T240 617T297 432T467 356Z" />
<glyph unicode="&#x124;" glyph-name="Hcircumflex" horiz-adv-x="1617" d="M106 -6V55Q178 63 218 98T258 188V1169Q258 1249 236 1272T102 1319V1366H266L463 1374L473 1366Q405 1292 406 1122V733H1206L1225 752V1169Q1225 1249 1203 1272T1069 1319V1366H1233L1430
1372L1440 1364Q1432 1356 1421 1340T1391 1261T1372 1122V188L1362 78L1550 59L1542 6L1073 -6V55Q1143 63 1184 97T1225 182V655H424L406 637V188L395 78L582 59L573 6L106 -6ZM502 1513L766 1784H862L1124 1513L1075 1470L815 1645H811L551 1470L502 1513Z"
/>
<glyph unicode="&#x125;" glyph-name="hcircumflex" horiz-adv-x="1134" d="M59 -6V49Q190 63 190 182V1227Q190 1280 187 1305T171 1349T129 1368H39V1419Q129 1439 204 1462T309 1496L340 1507L346 1501Q326 1425 326 1268V856Q326 815 324 784T320 736T317
715Q378 807 486 874T717 942Q946 942 946 666V182L936 72L1114 53L1106 6L686 -6V49Q811 63 811 182V633Q811 838 662 838Q584 838 490 792T326 676V182L315 72L492 53L483 6L59 -6ZM12 1554L-29 1608L221 1843H297L547 1608L508 1554L262 1694H254L12 1554Z"
/>
<glyph unicode="&#x126;" glyph-name="Hbar" horiz-adv-x="1617" d="M84 979V1053H258V1169Q258 1249 236 1272T102 1319V1366H266L463 1374L473 1366Q405 1292 406 1122V1053H1225V1169Q1225 1249 1203 1272T1069 1319V1366H1233L1430 1372L1440 1364Q1432 1356
1421 1340T1391 1261T1372 1122V1053H1550V979H1372V188L1362 78L1550 59L1542 6L1073 -6V55Q1143 63 1184 97T1225 182V655H424L406 637V188L395 78L582 59L573 6L106 -6V55Q178 63 218 98T258 188V979H84ZM1206 733L1225 752V979H406V733H1206Z" />
<glyph unicode="&#x127;" glyph-name="hbar" horiz-adv-x="1134" d="M57 1079V1155H190V1227Q190 1280 187 1305T171 1349T129 1368H39V1419Q129 1439 204 1462T309 1496L340 1507L346 1501Q326 1425 326 1268V1155H629V1079H326V856Q326 815 324 784T320 736T317
715Q378 807 486 874T717 942Q946 942 946 666V182L936 72L1114 53L1106 6L686 -6V49Q811 63 811 182V633Q811 838 662 838Q584 838 490 792T326 676V182L315 72L492 53L483 6L59 -6V49Q190 63 190 182V1079H57Z" />
<glyph unicode="&#x128;" glyph-name="Itilde" horiz-adv-x="655" d="M106 -6V55Q174 63 216 97T258 180V1169Q258 1249 236 1272T102 1319V1366H266L463 1374L473 1366Q405 1292 406 1122V180L395 78L596 59L588 6L106 -6ZM23 1503L-41 1516Q-41 1526 -39 1540T-25
1594T7 1664T64 1718T152 1743Q218 1743 337 1681T500 1618Q541 1618 569 1648T605 1711L612 1743L678 1739Q678 1729 676 1714T661 1657T627 1585T563 1529T465 1503Q389 1503 285 1565T139 1628Q100 1628 72 1597T33 1534L23 1503Z" />
<glyph unicode="&#x129;" glyph-name="itilde" horiz-adv-x="550" d="M86 -6V49Q217 63 217 182V684Q217 737 214 762T198 806T156 825H59V877Q377 959 375 971L377 965Q352 897 352 731V182L342 72L520 53L512 6L86 -6ZM-20 1155Q-20 1165 -20 1180T-12 1237T11
1308T62 1365T147 1391Q194 1391 232 1367T291 1316T342 1265T401 1241Q436 1241 456 1276T480 1345L483 1378H553Q553 1368 552 1352T543 1293T520 1219T467 1160T381 1133Q334 1133 296 1156T238 1208T189 1260T129 1284Q96 1284 76 1253T52 1188L49 1155H-20Z"
/>
<glyph unicode="&#x12a;" glyph-name="Imacron" horiz-adv-x="655" d="M106 -6V55Q174 63 216 97T258 180V1169Q258 1249 236 1272T102 1319V1366H266L463 1374L473 1366Q405 1292 406 1122V180L395 78L596 59L588 6L106 -6ZM63 1573V1683H571V1573H63Z" />
<glyph unicode="&#x12b;" glyph-name="imacron" horiz-adv-x="550" d="M84 -6V49Q215 63 215 182V684Q215 737 212 762T196 806T154 825H57V877Q375 959 373 971L375 965Q350 897 350 731V182L340 72L518 53L510 6L84 -6ZM41 1212V1323H487V1212H41Z" />
<glyph unicode="&#x12c;" glyph-name="Ibreve" horiz-adv-x="655" d="M106 -6V55Q174 63 216 97T258 180V1169Q258 1249 236 1272T102 1319V1366H266L463 1374L473 1366Q405 1292 406 1122V180L395 78L596 59L588 6L106 -6ZM317 1479Q190 1479 112 1538T33 1694Q33
1733 47 1774H111Q97 1682 162 1636T317 1589Q405 1589 467 1632T522 1774H588Q600 1739 600 1692Q600 1596 521 1538T317 1479Z" />
<glyph unicode="&#x12d;" glyph-name="ibreve" horiz-adv-x="550" d="M84 -6V49Q215 63 215 182V684Q215 737 212 762T196 806T154 825H57V877Q375 959 373 971L375 965Q350 897 350 731V182L340 72L518 53L510 6L84 -6ZM379 1108T265 1108T77 1174T4 1346Q4 1387
14 1419H80V1403Q80 1401 80 1398Q80 1380 81 1366T91 1322T117 1273T173 1237T264 1221Q319 1221 358 1239T413 1275T439 1329T449 1373T449 1403V1419H514Q524 1374 524 1346Q524 1242 452 1175Z" />
<glyph unicode="&#x12e;" glyph-name="Iogonek" horiz-adv-x="655" d="M106 -6V55Q174 63 216 97T258 180V1169Q258 1249 236 1272T102 1319V1366H266L463 1374L473 1366Q405 1292 406 1122V180L395 78L596 59L588 6L494 4Q437 0 358 -99T279 -281Q279 -349 320
-379T422 -410L465 -406L477 -451Q377 -486 322 -485Q232 -485 180 -435T127 -311Q127 -258 162 -201T232 -110T352 0L106 -6Z" />
<glyph unicode="&#x12f;" glyph-name="iogonek" horiz-adv-x="550" d="M84 -6V49Q215 63 215 182V684Q215 737 212 762T196 806T154 825H57V877Q375 959 373 971L375 965Q350 897 350 731V182L340 72L518 53L510 6L430 4Q375 0 295 -99T215 -281Q215 -347 258
-378T360 -410L403 -406L416 -451Q316 -486 258 -485Q168 -485 117 -436T66 -311Q66 -270 80 -234T134 -152T197 -83T289 0L84 -6ZM301 1161T264 1161T198 1192T168 1262Q168 1299 197 1329T264 1360T330 1329T360 1262Q360 1223 331 1192Z" />
<glyph unicode="&#x130;" glyph-name="Idot" horiz-adv-x="655" d="M106 -6V55Q174 63 216 97T258 180V1169Q258 1249 236 1272T102 1319V1366H266L463 1374L473 1366Q405 1292 406 1122V180L395 78L596 59L588 6L106 -6ZM354 1528T318 1528T251 1557T221 1626Q221
1663 251 1693T317 1724T384 1694T414 1626Q414 1587 384 1558Z" />
<glyph unicode="&#x131;" glyph-name="dotlessi" horiz-adv-x="550" d="M84 -6V49Q215 63 215 182V684Q215 737 212 762T196 806T154 825H57V877Q375 959 373 971L375 965Q350 897 350 731V182L340 72L518 53L510 6L84 -6Z" />
<glyph unicode="&#x132;" glyph-name="IJ" horiz-adv-x="1261" d="M106 -6V55Q174 63 216 97T258 180V1169Q258 1249 236 1272T102 1319V1366H266L463 1374L473 1366Q405 1292 406 1122V180L395 78L596 59L588 6L106 -6ZM895 88V1169Q895 1249 873 1272T739 1319V1366H903L1100
1374L1110 1366Q1042 1288 1042 1118V176Q1042 -64 951 -199T702 -334L678 -289Q764 -277 829 -168T895 88Z" />
<glyph unicode="&#x133;" glyph-name="ij" horiz-adv-x="1048" d="M84 -6V49Q215 63 215 182V684Q215 737 212 762T196 806T154 825H57V877Q375 959 373 971L375 965Q350 897 350 731V182L340 72L518 53L510 6L84 -6ZM301 1161T264 1161T198 1192T168 1262Q168
1299 197 1329T264 1360T330 1329T360 1262Q360 1223 331 1192ZM752 -53V684Q752 737 749 762T732 806T690 825H594V877Q908 959 909 971V965Q886 910 887 743V43Q887 -203 801 -344T559 -485L535 -440Q621 -428 686 -317T752 -53ZM801 1161Q762 1161 732 1192T702
1262Q702 1299 732 1329T801 1360Q838 1360 867 1329T897 1262Q897 1223 868 1192T801 1161Z" />
<glyph unicode="&#x134;" glyph-name="Jcircumflex" horiz-adv-x="608" d="M242 88V1169Q242 1249 220 1272T86 1319V1366H250L446 1374L457 1366Q389 1288 389 1118V176Q389 -64 298 -199T49 -334L25 -289Q111 -277 176 -168T242 88ZM4 1513L268 1784H365L627
1513L578 1470L317 1645H313L53 1470L4 1513Z" />
<glyph unicode="&#x135;" glyph-name="jcircumflex" horiz-adv-x="495" d="M199 -53V684Q199 737 196 762T180 806T137 825H41V877Q355 959 356 971V965Q333 910 334 743V43Q334 -203 248 -344T6 -485L-18 -440Q68 -428 133 -317T199 -53ZM-20 1065L213 1425H285L516
1065L461 1030L248 1272L35 1030L-20 1065Z" />
<glyph unicode="&#x136;" glyph-name="Kcommaaccent" horiz-adv-x="1277" d="M623 -135L647 -88H770Q821 -162 821 -242T762 -388T631 -494L592 -436Q707 -368 707 -299Q707 -237 623 -135ZM106 -6V55Q176 63 217 97T258 182V1169Q258 1249 236 1272T102 1319V1366H266L463
1374L473 1366Q405 1288 406 1118V758H444Q473 776 504 805L918 1212Q953 1241 942 1276T864 1319V1366H1237L1247 1341Q1235 1339 1212 1330T1113 1270T961 1141L567 756V741L1075 180Q1145 104 1172 87T1257 63L1280 61L1272 0H1001L997 6Q974 65 836 223L434
674H406V182L395 78L582 59L573 6L106 -6Z" />
<glyph unicode="&#x137;" glyph-name="kcommaaccent" horiz-adv-x="1034" d="M444 -135L469 -88H592Q643 -162 643 -242T584 -388T453 -494L414 -436Q529 -368 528 -299Q528 -237 444 -135ZM59 -6V49Q190 63 190 182V1227Q190 1280 187 1305T171 1349T129 1368H39V1419Q129
1439 204 1462T309 1496L340 1507L346 1501Q326 1425 326 1268V545H346L555 717Q559 721 578 737T607 763T625 787T635 817Q635 852 565 870V918H934L944 885Q833 860 729 772L475 559V541Q495 514 510 500L821 184Q897 104 925 85T1016 59L1038 57L1030 0L762
-6Q733 68 674 135L346 483H326V182L315 72L485 53L477 6L59 -6Z" />
<glyph unicode="&#x138;" glyph-name="kgreenlandic" d="M84 -6V49Q215 63 215 182V684Q215 737 212 762T196 806T154 825H57V877Q375 959 373 971L375 965Q350 897 350 731V504H369L629 717Q633 721 647 733T669 752T686 772T701 795T707 817Q707 852 639 870V918H985L995
885Q901 856 801 772L500 520V502Q520 475 535 461L807 184Q883 104 911 85T1001 59L1024 57L1016 0L748 -6Q723 70 659 135L373 442H350V182L340 72L504 53L496 6L84 -6Z" />
<glyph unicode="&#x139;" glyph-name="Lacute" horiz-adv-x="1148" d="M170 1546L522 1757H532L592 1663V1616L193 1485L170 1546ZM121 -6V55Q258 69 258 182V1169Q258 1249 236 1272T102 1319V1366H266L463 1374L473 1366Q405 1292 406 1122V182L395 70H754Q881
70 931 123T1063 371H1130L1047 0H385L121 -6Z" />
<glyph unicode="&#x13a;" glyph-name="lacute" horiz-adv-x="526" d="M59 -6V49Q190 63 190 182V1227Q190 1280 187 1305T171 1349T129 1368H39V1419Q129 1439 204 1462T309 1496L340 1507L346 1501Q326 1425 326 1268V182L315 72L494 53L485 6L59 -6Z" />
<glyph unicode="&#x13b;" glyph-name="Lcommaaccent" horiz-adv-x="1148" d="M547 -135L571 -88H694Q745 -162 745 -242T686 -388T555 -494L516 -436Q631 -368 631 -299Q631 -237 547 -135ZM121 -6V55Q258 69 258 182V1169Q258 1249 236 1272T102 1319V1366H266L463
1374L473 1366Q405 1292 406 1122V182L395 70H754Q881 70 931 123T1063 371H1130L1047 0H385L121 -6Z" />
<glyph unicode="&#x13c;" glyph-name="lcommaaccent" horiz-adv-x="526" d="M180 -135L205 -88H328Q379 -162 379 -242T320 -388T188 -494L150 -436Q265 -368 264 -299Q264 -237 180 -135ZM59 -6V49Q190 63 190 182V1227Q190 1280 187 1305T171 1349T129 1368H39V1419Q129
1439 204 1462T309 1496L340 1507L346 1501Q326 1425 326 1268V182L315 72L494 53L485 6L59 -6Z" />
<glyph unicode="&#x13d;" glyph-name="Lcaron" horiz-adv-x="1148" d="M588 1130L639 1509L778 1530V1495L645 1130H588ZM121 -6V55Q258 69 258 182V1169Q258 1249 236 1272T102 1319V1366H266L463 1374L473 1366Q405 1292 406 1122V182L395 70H754Q881 70 931
123T1063 371H1130L1047 0H385L121 -6Z" />
<glyph unicode="&#x13e;" glyph-name="lcaron" horiz-adv-x="526" d="M449 1130L500 1509L639 1530V1495L506 1130H449ZM59 -6V49Q190 63 190 182V1227Q190 1280 187 1305T171 1349T129 1368H39V1419Q129 1439 204 1462T309 1496L340 1507L346 1501Q326 1425 326
1268V182L315 72L494 53L485 6L59 -6Z" />
<glyph unicode="&#x13f;" glyph-name="Ldot" horiz-adv-x="1148" d="M121 -6V55Q258 69 258 182V1169Q258 1249 236 1272T102 1319V1366H266L463 1374L473 1366Q405 1292 406 1122V182L395 70H754Q881 70 931 123T1063 371H1130L1047 0H385L121 -6ZM946 614T901
614T824 647T791 725T823 802T901 834T979 802T1012 725T979 647Z" />
<glyph unicode="&#x140;" glyph-name="ldot" horiz-adv-x="718" d="M59 -6V49Q190 63 190 182V1227Q190 1280 187 1305T171 1349T129 1368H39V1419Q129 1439 204 1462T309 1496L340 1507L346 1501Q326 1425 326 1268V182L315 72L494 53L485 6L59 -6ZM659 614T612
614T534 647T502 725T534 802T612 834T690 802T723 725T691 647Z" />
<glyph unicode="&#x141;" glyph-name="Lslash" horiz-adv-x="1148" d="M70 496V592L258 719V1169Q258 1249 236 1272T102 1319V1366H266L463 1374L473 1366Q405 1292 406 1122V811L741 1044V946L406 715V182L395 70H754Q881 70 931 123T1063 371H1130L1047 0H385L121
-6V55Q258 69 258 182V623L70 496Z" />
<glyph unicode="&#x142;" glyph-name="lslash" horiz-adv-x="579" d="M31 487V582L221 721V1227Q221 1280 218 1305T202 1349T160 1368H70V1419Q160 1439 234 1462T340 1496L371 1507L377 1501Q357 1425 356 1268V811L551 956V860L356 715V182L346 72L524 53L516
6L90 -6V49Q221 63 221 182V627L31 487Z" />
<glyph unicode="&#x143;" glyph-name="Nacute" horiz-adv-x="1554" d="M637 1546L989 1757H999L1059 1663V1616L659 1485L637 1546ZM117 -6V55Q264 71 264 182V1118Q264 1227 232 1266T96 1319V1366H158L342 1374Q367 1327 416 1268L1165 377Q1210 320 1247 264V1159Q1247
1200 1244 1219T1226 1261T1175 1295T1077 1313V1366H1458L1468 1341Q1462 1339 1453 1335T1420 1316T1377 1279T1343 1218T1327 1130V-10H1286L416 1051Q371 1108 346 1145V182L336 72L520 59L512 6L117 -6Z" />
<glyph unicode="&#x144;" glyph-name="nacute" horiz-adv-x="1159" d="M578 1032L520 1065L700 1415L854 1432V1376L578 1032ZM84 -6V49Q215 63 215 182V684Q215 737 212 762T196 806T154 825H57V877Q139 895 214 918T323 956L356 971L362 965Q344 889 344 707Q405
803 511 872T741 942Q970 942 971 666V182L961 74L1139 53L1130 6L711 -6V49Q783 57 809 90T836 182V633Q836 838 686 838Q606 838 512 791T350 670V182L340 74L516 53L508 6L84 -6Z" />
<glyph unicode="&#x145;" glyph-name="Ncommaaccent" horiz-adv-x="1554" d="M117 -6V55Q264 71 264 182V1118Q264 1227 232 1266T96 1319V1366H158L342 1374Q367 1327 416 1268L1165 377Q1210 320 1247 264V1159Q1247 1200 1244 1219T1226 1261T1175 1295T1077
1313V1366H1458L1468 1341Q1462 1339 1453 1335T1420 1316T1377 1279T1343 1218T1327 1130V-10H1286L416 1051Q371 1108 346 1145V182L336 72L520 59L512 6L117 -6ZM721 -135L745 -88H868Q919 -162 919 -242T861 -388T729 -494L690 -436Q805 -368 805 -299Q805
-237 721 -135Z" />
<glyph unicode="&#x146;" glyph-name="ncommaaccent" horiz-adv-x="1159" d="M514 -135L539 -88H662Q713 -162 713 -242T654 -388T522 -494L483 -436Q598 -368 598 -299Q598 -237 514 -135ZM84 -6V49Q215 63 215 182V684Q215 737 212 762T196 806T154 825H57V877Q139
895 214 918T323 956L356 971L362 965Q344 889 344 707Q405 803 511 872T741 942Q970 942 971 666V182L961 74L1139 53L1130 6L711 -6V49Q783 57 809 90T836 182V633Q836 838 686 838Q606 838 512 791T350 670V182L340 74L516 53L508 6L84 -6Z" />
<glyph unicode="&#x147;" glyph-name="Ncaron" horiz-adv-x="1554" d="M117 -6V55Q264 71 264 182V1118Q264 1227 232 1266T96 1319V1366H158L342 1374Q367 1327 416 1268L1165 377Q1210 320 1247 264V1159Q1247 1200 1244 1219T1226 1261T1175 1295T1077 1313V1366H1458L1468
1341Q1462 1339 1453 1335T1420 1316T1377 1279T1343 1218T1327 1130V-10H1286L416 1051Q371 1108 346 1145V182L336 72L520 59L512 6L117 -6ZM487 1741L537 1784L797 1612H801L1061 1784L1110 1741L848 1470H754L487 1741Z" />
<glyph unicode="&#x148;" glyph-name="ncaron" horiz-adv-x="1159" d="M557 1071L324 1409L379 1444L592 1219L805 1444L860 1409L629 1071H557ZM84 -6V49Q215 63 215 182V684Q215 737 212 762T196 806T154 825H57V877Q139 895 214 918T323 956L356 971L362 965Q344
889 344 707Q405 803 511 872T741 942Q970 942 971 666V182L961 74L1139 53L1130 6L711 -6V49Q783 57 809 90T836 182V633Q836 838 686 838Q606 838 512 791T350 670V182L340 74L516 53L508 6L84 -6Z" />
<glyph unicode="&#x149;" glyph-name="napostrophe" horiz-adv-x="1159" d="M123 1460L147 1507H270Q321 1433 321 1354T263 1208T131 1102L92 1159Q207 1227 207 1296Q207 1358 123 1460ZM84 -6V49Q215 63 215 182V684Q215 737 212 762T196 806T154 825H57V877Q139
895 214 918T323 956L356 971L362 965Q344 889 344 707Q405 803 511 872T741 942Q970 942 971 666V182L961 74L1139 53L1130 6L711 -6V49Q783 57 809 90T836 182V633Q836 838 686 838Q606 838 512 791T350 670V182L340 74L516 53L508 6L84 -6Z" />
<glyph unicode="&#x14a;" glyph-name="Eng" horiz-adv-x="1554" d="M1327 1130V82Q1327 14 1318 -54T1290 -194T1229 -311T1130 -356Q1087 -356 1065 -333T1042 -274Q1042 -215 1108 -195Q1110 -193 1125 -187T1149 -175T1173 -160T1200 -136T1220 -102T1236 -55T1241
6V41L416 1051Q371 1108 346 1145V182L336 72L520 59L512 6L117 -6V55Q264 71 264 182V1118Q264 1227 232 1266T96 1319V1366H158L342 1374Q367 1327 416 1268L1165 377Q1210 320 1247 264V1159Q1247 1200 1244 1219T1226 1261T1175 1295T1077 1313V1366H1458L1468
1341Q1462 1339 1453 1335T1420 1316T1377 1279T1343 1217T1327 1130Z" />
<glyph unicode="&#x14b;" glyph-name="eng" horiz-adv-x="1118" d="M84 -6V49Q215 63 215 182V684Q215 737 212 762T196 806T154 825H57V877Q370 953 356 971L362 965Q344 889 344 707Q405 803 511 872T741 942Q970 942 971 666V49Q971 -45 953 -126T906 -260T842
-355T773 -420T711 -459T664 -480L645 -485L621 -440Q629 -436 643 -429T695 -394T760 -327T812 -222T836 -74V633Q836 838 686 838Q606 838 512 791T350 670V182L340 74L516 53L508 6L84 -6Z" />
<glyph unicode="&#x14c;" glyph-name="Omacron" horiz-adv-x="1622" d="M266 719Q266 561 329 411T523 156T821 51Q981 51 1107 147T1295 386T1358 682Q1358 930 1204 1122T799 1315Q561 1315 414 1137T266 719ZM98 668Q98 856 182 1019T436 1286T829 1391Q1132
1391 1328 1206T1524 731Q1524 530 1431 358T1165 81T782 -25Q487 -25 293 176T98 668ZM549 1573V1683H1057V1573H549Z" />
<glyph unicode="&#x14d;" glyph-name="omacron" horiz-adv-x="1075" d="M307 1212V1323H754V1212H307ZM84 438Q84 567 128 676T281 864T553 942Q766 942 878 817T991 496Q991 289 867 132T518 -25Q311 -25 198 105T84 438ZM240 483Q240 372 269 275T370 109T545
39Q678 39 757 144T836 432Q838 545 808 642T706 810T528 881Q385 881 313 765T240 483Z" />
<glyph unicode="&#x14e;" glyph-name="Obreve" horiz-adv-x="1622" d="M266 719Q266 561 329 411T523 156T821 51Q981 51 1107 147T1295 386T1358 682Q1358 930 1204 1122T799 1315Q561 1315 414 1137T266 719ZM98 668Q98 856 182 1019T436 1286T829 1391Q1132
1391 1328 1206T1524 731Q1524 530 1431 358T1165 81T782 -25Q487 -25 293 176T98 668ZM803 1479Q676 1479 597 1538T518 1694Q518 1733 532 1774H596Q582 1682 647 1636T803 1589Q891 1589 953 1632T1008 1774H1073Q1085 1739 1085 1692Q1085 1596 1007 1538T803
1479Z" />
<glyph unicode="&#x14f;" glyph-name="obreve" horiz-adv-x="1075" d="M84 438Q84 567 128 676T281 864T553 942Q766 942 878 817T991 496Q991 289 867 132T518 -25Q311 -25 198 105T84 438ZM240 483Q240 372 269 275T370 109T545 39Q678 39 757 144T836 432Q838
545 808 642T706 810T528 881Q385 881 313 765T240 483ZM645 1108T531 1108T343 1174T270 1346Q270 1387 281 1419H346V1403Q346 1401 346 1398Q346 1380 347 1366T357 1322T384 1273T439 1237T530 1221Q585 1221 624 1239T680 1275T705 1329T715 1373T715 1403V1419H780Q790
1374 791 1346Q791 1242 718 1175Z" />
<glyph unicode="&#x150;" glyph-name="Ohungarumlaut" horiz-adv-x="1622" d="M616 1470L559 1505L692 1772L872 1790V1735L616 1470ZM950 1470L895 1505L1047 1772L1229 1790V1735L950 1470ZM266 719Q266 561 329 411T523 156T821 51Q981 51 1107 147T1295 386T1358
682Q1358 930 1204 1122T799 1315Q561 1315 414 1137T266 719ZM98 668Q98 856 182 1019T436 1286T829 1391Q1132 1391 1328 1206T1524 731Q1524 530 1431 358T1165 81T782 -25Q487 -25 293 176T98 668Z" />
<glyph unicode="&#x151;" glyph-name="ohungarumlaut" horiz-adv-x="1075" d="M395 1032L338 1065L502 1415L643 1432V1376L395 1032ZM674 1032L616 1065L780 1415L922 1432V1376L674 1032ZM84 438Q84 567 128 676T281 864T553 942Q766 942 878 817T991 496Q991
289 867 132T518 -25Q311 -25 198 105T84 438ZM240 483Q240 372 269 275T370 109T545 39Q678 39 757 144T836 432Q838 545 808 642T706 810T528 881Q385 881 313 765T240 483Z" />
<glyph unicode="&#x152;" glyph-name="OE" horiz-adv-x="2023" d="M98 662Q98 957 303 1174T844 1391Q905 1391 1005 1379T1163 1366H1755L1901 1374L1837 1038H1769Q1777 1190 1727 1243T1548 1296H1268L1247 1276V727H1638L1655 844L1729 856V506H1634V657H1268L1247
637V184L1237 70H1571Q1698 70 1745 114T1874 330H1942L1866 0H1133Q1045 0 966 -12T827 -25Q503 -25 301 174T98 662ZM266 723Q266 604 304 488T414 272T607 112T877 51Q1100 51 1100 184V1206Q1100 1226 1093 1243T1073 1271T1047 1290T1013 1303T978 1312T944
1315T913 1315T888 1315H874Q720 1315 601 1265T411 1129T303 941T266 723Z" />
<glyph unicode="&#x153;" glyph-name="oe" horiz-adv-x="1712" d="M84 438Q84 567 128 676T281 864T553 942Q823 942 926 735Q983 833 1075 887T1278 942Q1417 942 1521 853T1630 610Q1591 596 1550 590L1016 510L993 485Q995 321 1079 209T1329 96Q1407 96 1475
121T1574 174L1604 201L1624 164Q1620 156 1611 144T1569 99T1497 41T1396 -4T1266 -25Q1028 -25 915 180Q780 -25 518 -25Q311 -25 198 105T84 438ZM240 483Q240 372 269 275T370 109T545 39Q678 39 757 144T836 432Q838 545 808 642T706 810T528 881Q385 881
313 765T240 483ZM1251 872Q1147 872 1082 789T999 580L1462 639Q1462 649 1459 664T1443 720T1410 790T1347 846T1251 872Z" />
<glyph unicode="&#x154;" glyph-name="Racute" horiz-adv-x="1255" d="M113 -6V55Q183 63 223 97T264 182V1169Q264 1245 237 1270T92 1319V1366H530Q792 1366 916 1275T1040 1036Q1040 903 951 803T764 653V631L1059 203Q1120 115 1158 92T1249 63L1272 61L1264
0H1001L993 6Q944 112 862 231L600 614H430L412 596V182L401 78L586 59L578 6L113 -6ZM412 686H590Q703 686 791 766T879 987Q879 1116 791 1206T514 1296H430L412 1276V686ZM428 1546L780 1757H791L850 1663V1616L451 1485L428 1546Z" />
<glyph unicode="&#x155;" glyph-name="racute" horiz-adv-x="741" d="M375 1032L317 1065L498 1415L651 1432V1376L375 1032ZM84 -6V49Q215 63 215 182V686Q215 739 212 763T196 806T154 825H57V879Q139 897 215 919T326 956L360 971L367 965Q349 889 344 702Q405
815 477 878T614 942Q720 942 721 858Q721 815 696 792T637 768Q617 768 592 784T545 801Q512 801 475 779T414 733T350 664V182L340 72L539 53L530 6L84 -6Z" />
<glyph unicode="&#x156;" glyph-name="Rcommaaccent" horiz-adv-x="1255" d="M594 -135L618 -88H741Q792 -162 792 -242T734 -388T602 -494L563 -436Q678 -368 678 -299Q678 -237 594 -135ZM113 -6V55Q183 63 223 97T264 182V1169Q264 1245 237 1270T92 1319V1366H530Q792
1366 916 1275T1040 1036Q1040 903 951 803T764 653V631L1059 203Q1120 115 1158 92T1249 63L1272 61L1264 0H1001L993 6Q944 112 862 231L600 614H430L412 596V182L401 78L586 59L578 6L113 -6ZM412 686H590Q703 686 791 766T879 987Q879 1116 791 1206T514 1296H430L412
1276V686Z" />
<glyph unicode="&#x157;" glyph-name="rcommaaccent" horiz-adv-x="741" d="M205 -135L229 -88H352Q403 -162 403 -242T344 -388T213 -494L174 -436Q289 -368 289 -299Q289 -237 205 -135ZM84 -6V49Q215 63 215 182V686Q215 739 212 763T196 806T154 825H57V879Q139
897 215 919T326 956L360 971L367 965Q349 889 344 702Q405 815 477 878T614 942Q720 942 721 858Q721 815 696 792T637 768Q617 768 592 784T545 801Q512 801 475 779T414 733T350 664V182L340 72L539 53L530 6L84 -6Z" />
<glyph unicode="&#x158;" glyph-name="Rcaron" horiz-adv-x="1255" d="M113 -6V55Q183 63 223 97T264 182V1169Q264 1245 237 1270T92 1319V1366H530Q792 1366 916 1275T1040 1036Q1040 903 951 803T764 653V631L1059 203Q1120 115 1158 92T1249 63L1272 61L1264
0H1001L993 6Q944 112 862 231L600 614H430L412 596V182L401 78L586 59L578 6L113 -6ZM412 686H590Q703 686 791 766T879 987Q879 1116 791 1206T514 1296H430L412 1276V686ZM279 1741L328 1784L588 1612H592L852 1784L901 1741L639 1470H545L279 1741Z" />
<glyph unicode="&#x159;" glyph-name="rcaron" horiz-adv-x="741" d="M356 1071L123 1409L178 1444L391 1219L604 1444L659 1409L428 1071H356ZM84 -6V49Q215 63 215 182V686Q215 739 212 763T196 806T154 825H57V879Q139 897 215 919T326 956L360 971L367 965Q349
889 344 702Q405 815 477 878T614 942Q720 942 721 858Q721 815 696 792T637 768Q617 768 592 784T545 801Q512 801 475 779T414 733T350 664V182L340 72L539 53L530 6L84 -6Z" />
<glyph unicode="&#x15a;" glyph-name="Sacute" horiz-adv-x="1028" d="M98 186Q98 217 139 354H207Q207 186 292 116T504 45Q621 45 698 99T776 272Q776 372 710 452T549 587T360 700T198 845T131 1044Q131 1198 248 1294T580 1391Q633 1391 693 1385T794 1372T868
1359T907 1352L846 1038H780Q800 1157 739 1239T553 1321Q438 1321 364 1266T289 1096Q289 994 355 917T516 788T704 679T865 534T932 324Q932 154 803 65T481 -25Q331 -25 214 29T98 186ZM369 1546L721 1757H731L791 1663V1616L391 1485L369 1546Z" />
<glyph unicode="&#x15b;" glyph-name="sacute" horiz-adv-x="784" d="M389 1032L332 1065L512 1415L666 1432V1376L389 1032ZM86 113L109 264H168Q176 145 244 92T401 39Q485 39 535 79T586 188Q586 249 537 297T416 381T274 454T154 552T104 692Q104 803 188
872T434 942Q489 942 550 934T647 916L682 907L643 702H582Q582 761 560 801T499 856T438 874T389 879Q305 879 265 838T225 741Q225 682 274 636T394 558T535 490T655 388T705 233Q705 114 620 45T389 -25Q348 -25 305 -20T208 -2T120 40T86 113Z" />
<glyph unicode="&#x15c;" glyph-name="Scircumflex" horiz-adv-x="1028" d="M98 186Q98 217 139 354H207Q207 186 292 116T504 45Q621 45 698 99T776 272Q776 372 710 452T549 587T360 700T198 845T131 1044Q131 1198 248 1294T580 1391Q633 1391 693 1385T794
1372T868 1359T907 1352L846 1038H780Q800 1157 739 1239T553 1321Q438 1321 364 1266T289 1096Q289 994 355 917T516 788T704 679T865 534T932 324Q932 154 803 65T481 -25Q331 -25 214 29T98 186ZM219 1513L483 1784H580L842 1513L793 1470L532 1645H528L268
1470L219 1513Z" />
<glyph unicode="&#x15d;" glyph-name="scircumflex" horiz-adv-x="784" d="M137 1065L371 1425H442L674 1065L618 1030L406 1272L193 1030L137 1065ZM86 113L109 264H168Q176 145 244 92T401 39Q485 39 535 79T586 188Q586 249 537 297T416 381T274 454T154 552T104
692Q104 803 188 872T434 942Q489 942 550 934T647 916L682 907L643 702H582Q582 761 560 801T499 856T438 874T389 879Q305 879 265 838T225 741Q225 682 274 636T394 558T535 490T655 388T705 233Q705 114 620 45T389 -25Q348 -25 305 -20T208 -2T120 40T86 113Z"
/>
<glyph unicode="&#x15e;" glyph-name="Scedilla" horiz-adv-x="1028" d="M408 -162Q408 -115 469 -25Q319 -21 208 32T98 186Q98 217 139 354H207Q207 186 292 116T504 45Q621 45 698 99T776 272Q776 372 710 452T549 587T360 700T198 845T131 1044Q131 1198 248
1294T580 1391Q633 1391 693 1385T794 1372T868 1359T907 1352L846 1038H780Q800 1157 739 1239T553 1321Q438 1321 364 1266T289 1096Q289 994 355 917T516 788T704 679T865 534T932 324Q932 168 822 79T539 -23Q521 -70 521 -94T546 -137T604 -167T661 -209T688
-285Q688 -361 623 -423T465 -485Q418 -485 373 -468T307 -432L287 -414L315 -352Q385 -401 457 -401Q508 -401 537 -379T567 -324Q567 -299 543 -280T488 -248T433 -214T408 -162Z" />
<glyph unicode="&#x15f;" glyph-name="scedilla" horiz-adv-x="784" d="M299 -162Q299 -115 360 -25Q86 -13 86 113L109 264H168Q176 145 244 92T401 39Q485 39 535 79T586 188Q586 249 537 297T416 381T274 454T154 552T104 692Q104 803 188 872T434 942Q489
942 550 934T647 916L682 907L643 702H582Q582 761 560 801T499 856T438 874T389 879Q305 879 265 838T225 741Q225 682 274 636T394 558T535 490T655 388T705 233Q705 122 631 55T430 -23Q412 -70 412 -94T438 -137T495 -167T553 -209T580 -285Q580 -361 515 -423T356
-485Q309 -485 264 -468T199 -432L178 -414L207 -352Q277 -401 348 -401Q399 -401 429 -379T459 -324Q459 -299 435 -280T379 -248T324 -214T299 -162Z" />
<glyph unicode="&#x160;" glyph-name="Scaron" horiz-adv-x="1028" d="M98 186Q98 217 139 354H207Q207 186 292 116T504 45Q621 45 698 99T776 272Q776 372 710 452T549 587T360 700T198 845T131 1044Q131 1198 248 1294T580 1391Q633 1391 693 1385T794 1372T868
1359T907 1352L846 1038H780Q800 1157 739 1239T553 1321Q438 1321 364 1266T289 1096Q289 994 355 917T516 788T704 679T865 534T932 324Q932 154 803 65T481 -25Q331 -25 214 29T98 186ZM219 1741L268 1784L528 1612H532L793 1784L842 1741L580 1470H485L219
1741Z" />
<glyph unicode="&#x161;" glyph-name="scaron" horiz-adv-x="784" d="M371 1071L137 1409L193 1444L406 1219L618 1444L674 1409L442 1071H371ZM86 113L109 264H168Q176 145 244 92T401 39Q485 39 535 79T586 188Q586 249 537 297T416 381T274 454T154 552T104
692Q104 803 188 872T434 942Q489 942 550 934T647 916L682 907L643 702H582Q582 761 560 801T499 856T438 874T389 879Q305 879 265 838T225 741Q225 682 274 636T394 558T535 490T655 388T705 233Q705 114 620 45T389 -25Q348 -25 305 -20T208 -2T120 40T86 113Z"
/>
<glyph unicode="&#x162;" glyph-name="Tcommaaccent" horiz-adv-x="1310" d="M424 -6V55Q496 63 535 98T575 188V1296H362Q249 1296 192 1245T80 1038H14L78 1378Q131 1366 215 1366H1155Q1192 1366 1229 1369T1284 1375L1303 1378L1239 1038H1174Q1184 1192 1135
1244T958 1296H741L723 1276V188L713 78L918 59L909 6L651 0H670Q643 -63 643 -94Q643 -119 669 -137T727 -167T784 -209T811 -285Q811 -361 746 -423T588 -485Q541 -485 496 -468T430 -432L410 -414L438 -352Q508 -401 580 -401Q631 -401 660 -379T690 -324Q690
-299 666 -280T611 -248T555 -213T530 -162Q530 -146 537 -125T556 -84T577 -46T598 -14L608 0L424 -6Z" />
<glyph unicode="&#x163;" glyph-name="tcommaaccent" horiz-adv-x="692" d="M301 -162Q301 -107 365 -23Q185 0 184 244V690L190 823H53V874Q143 892 193 938L266 1159H330L336 1153Q318 1087 317 946V918H647L633 829H338L319 809V266Q319 174 354 129T469 84Q510
84 556 94T629 115L655 125L680 92Q676 88 669 81T636 56T584 23T515 -5T430 -23Q414 -68 414 -94Q414 -119 440 -137T497 -167T555 -209T582 -285Q582 -361 517 -423T358 -485Q311 -485 266 -468T201 -432L180 -414L209 -352Q279 -401 350 -401Q401 -401 431 -379T461
-324Q461 -299 437 -280T381 -248T326 -214T301 -162Z" />
<glyph unicode="&#x164;" glyph-name="Tcaron" horiz-adv-x="1310" d="M424 -6V55Q496 63 535 98T575 188V1296H362Q249 1296 192 1245T80 1038H14L78 1378Q131 1366 215 1366H1155Q1192 1366 1229 1369T1284 1375L1303 1378L1239 1038H1174Q1184 1192 1135 1244T958
1296H741L723 1276V188L713 78L918 59L909 6L424 -6ZM336 1741L385 1784L645 1612H649L909 1784L958 1741L696 1470H602L336 1741Z" />
<glyph unicode="&#x165;" glyph-name="tcaron" horiz-adv-x="692" d="M465 1128L516 1507L655 1528V1493L522 1128H465ZM184 244V690L190 823H53V874Q143 892 193 938L266 1159H330L336 1153Q318 1087 317 946V918H647L633 829H338L319 809V266Q319 174 354 129T469
84Q510 84 556 94T629 115L655 125L680 92Q668 80 646 61T550 8T403 -25Q184 -24 184 244Z" />
<glyph unicode="&#x166;" glyph-name="Tbar" horiz-adv-x="1310" d="M248 672V750H575V1296H362Q249 1296 192 1245T80 1038H14L78 1378Q131 1366 215 1366H1155Q1192 1366 1229 1369T1284 1375L1303 1378L1239 1038H1174Q1184 1192 1135 1244T958 1296H741L723
1276V750H1040V672H723V188L713 78L918 59L909 6L424 -6V55Q496 63 535 98T575 188V672H248Z" />
<glyph unicode="&#x167;" glyph-name="tbar" horiz-adv-x="692" d="M53 510V586H184V690L190 823H53V874Q143 892 193 938L266 1159H330L336 1153Q318 1087 317 946V918H647L633 829H338L319 809V586H635V510H319V266Q319 174 354 129T469 84Q510 84 556 94T629
115L655 125L680 92Q668 80 646 61T550 8T403 -25Q184 -25 184 244V510H53Z" />
<glyph unicode="&#x168;" glyph-name="Utilde" horiz-adv-x="1505" d="M211 481V1169Q211 1249 189 1272T55 1319V1366H219L416 1374L426 1366Q358 1290 358 1122V498Q358 283 480 170T776 57Q948 57 1080 171T1212 483V1159Q1212 1200 1209 1219T1191 1261T1140
1295T1042 1313V1366H1432L1442 1341Q1436 1339 1427 1336T1394 1318T1352 1282T1319 1221T1305 1135V489Q1305 249 1142 112T739 -25Q633 -25 543 3T376 87T255 244T211 481ZM477 1503L414 1516Q414 1526 416 1540T430 1594T461 1664T519 1718T606 1743Q672 1743
791 1681T954 1618Q995 1618 1024 1648T1060 1711L1067 1743L1133 1739Q1133 1729 1131 1714T1115 1657T1082 1585T1018 1529T920 1503Q844 1503 740 1565T594 1628Q555 1628 527 1597T487 1534L477 1503Z" />
<glyph unicode="&#x169;" glyph-name="utilde" horiz-adv-x="1136" d="M184 250V686Q184 739 181 763T165 806T123 825H47V879Q113 891 183 909T292 940L330 952L338 946Q320 889 319 731V285Q319 172 356 128T467 84Q635 84 797 248V686Q797 739 794 763T778
806T735 825H662V879Q728 891 797 909T903 940L940 952L950 946Q932 889 932 731V190Q932 110 957 92T1047 74H1106L1100 23L793 -18L782 -12Q802 47 803 98V211Q641 -25 408 -25Q184 -24 184 250ZM268 1155Q268 1165 268 1180T276 1237T300 1308T351 1365T436
1391Q483 1391 521 1367T580 1316T630 1265T690 1241Q725 1241 745 1276T769 1345L772 1378H842Q842 1368 841 1352T832 1293T808 1219T756 1160T670 1133Q623 1133 585 1156T527 1208T478 1260T418 1284Q385 1284 365 1253T341 1188L338 1155H268Z" />
<glyph unicode="&#x16a;" glyph-name="Umacron" horiz-adv-x="1505" d="M211 481V1169Q211 1249 189 1272T55 1319V1366H219L416 1374L426 1366Q358 1290 358 1122V498Q358 283 480 170T776 57Q948 57 1080 171T1212 483V1159Q1212 1200 1209 1219T1191 1261T1140
1295T1042 1313V1366H1432L1442 1341Q1436 1339 1427 1336T1394 1318T1352 1282T1319 1221T1305 1135V489Q1305 249 1142 112T739 -25Q633 -25 543 3T376 87T255 244T211 481ZM518 1573V1683H1026V1573H518Z" />
<glyph unicode="&#x16b;" glyph-name="umacron" horiz-adv-x="1136" d="M184 250V686Q184 739 181 763T165 806T123 825H47V879Q113 891 183 909T292 940L330 952L338 946Q320 889 319 731V285Q319 172 356 128T467 84Q635 84 797 248V686Q797 739 794 763T778
806T735 825H662V879Q728 891 797 909T903 940L940 952L950 946Q932 889 932 731V190Q932 110 957 92T1047 74H1106L1100 23L793 -18L782 -12Q802 47 803 98V211Q641 -25 408 -25Q184 -24 184 250ZM332 1212V1323H778V1212H332Z" />
<glyph unicode="&#x16c;" glyph-name="Ubreve" horiz-adv-x="1505" d="M211 481V1169Q211 1249 189 1272T55 1319V1366H219L416 1374L426 1366Q358 1290 358 1122V498Q358 283 480 170T776 57Q948 57 1080 171T1212 483V1159Q1212 1200 1209 1219T1191 1261T1140
1295T1042 1313V1366H1432L1442 1341Q1436 1339 1427 1336T1394 1318T1352 1282T1319 1221T1305 1135V489Q1305 249 1142 112T739 -25Q633 -25 543 3T376 87T255 244T211 481ZM772 1479Q645 1479 566 1538T487 1694Q487 1733 502 1774H565Q551 1682 616 1636T772
1589Q860 1589 922 1632T977 1774H1042Q1054 1739 1055 1692Q1055 1596 976 1538T772 1479Z" />
<glyph unicode="&#x16d;" glyph-name="ubreve" horiz-adv-x="1136" d="M184 250V686Q184 739 181 763T165 806T123 825H47V879Q113 891 183 909T292 940L330 952L338 946Q320 889 319 731V285Q319 172 356 128T467 84Q635 84 797 248V686Q797 739 794 763T778
806T735 825H662V879Q728 891 797 909T903 940L940 952L950 946Q932 889 932 731V190Q932 110 957 92T1047 74H1106L1100 23L793 -18L782 -12Q802 47 803 98V211Q641 -25 408 -25Q184 -24 184 250ZM670 1108T555 1108T368 1174T295 1346Q295 1387 305 1419H371V1403Q371
1401 371 1398Q371 1380 372 1366T382 1322T408 1273T464 1237T555 1221Q610 1221 649 1239T704 1275T730 1329T739 1373T739 1403V1419H805Q815 1374 815 1346Q815 1242 743 1175Z" />
<glyph unicode="&#x16e;" glyph-name="Uring" horiz-adv-x="1505" d="M862 1405T772 1405T633 1455T584 1572T633 1686T772 1733T911 1687T961 1573T912 1455ZM725 1468T772 1468T845 1499T872 1571T847 1641T772 1671T699 1642T674 1571Q674 1528 699 1498ZM211
481V1169Q211 1249 189 1272T55 1319V1366H219L416 1374L426 1366Q358 1290 358 1122V498Q358 283 480 170T776 57Q948 57 1080 171T1212 483V1159Q1212 1200 1209 1219T1191 1261T1140 1295T1042 1313V1366H1432L1442 1341Q1436 1339 1427 1336T1394 1318T1352
1282T1319 1221T1305 1135V489Q1305 249 1142 112T739 -25Q633 -25 543 3T376 87T255 244T211 481Z" />
<glyph unicode="&#x16f;" glyph-name="uring" horiz-adv-x="1136" d="M645 1098T555 1098T416 1148T367 1265T416 1379T555 1425T694 1379T743 1266T694 1148ZM508 1161T555 1161T628 1192T655 1264T630 1334T555 1364T482 1335T457 1264Q457 1221 482 1191ZM184
250V686Q184 739 181 763T165 806T123 825H47V879Q113 891 183 909T292 940L330 952L338 946Q320 889 319 731V285Q319 172 356 128T467 84Q635 84 797 248V686Q797 739 794 763T778 806T735 825H662V879Q728 891 797 909T903 940L940 952L950 946Q932 889 932
731V190Q932 110 957 92T1047 74H1106L1100 23L793 -18L782 -12Q802 47 803 98V211Q641 -25 408 -25Q184 -24 184 250Z" />
<glyph unicode="&#x170;" glyph-name="Uhungarumlaut" horiz-adv-x="1505" d="M586 1470L528 1505L662 1772L842 1790V1735L586 1470ZM920 1470L864 1505L1016 1772L1198 1790V1735L920 1470ZM211 481V1169Q211 1249 189 1272T55 1319V1366H219L416 1374L426 1366Q358
1290 358 1122V498Q358 283 480 170T776 57Q948 57 1080 171T1212 483V1159Q1212 1200 1209 1219T1191 1261T1140 1295T1042 1313V1366H1432L1442 1341Q1436 1339 1427 1336T1394 1318T1352 1282T1319 1221T1305 1135V489Q1305 249 1142 112T739 -25Q633 -25 543
3T376 87T255 244T211 481Z" />
<glyph unicode="&#x171;" glyph-name="uhungarumlaut" horiz-adv-x="1136" d="M184 250V686Q184 739 181 763T165 806T123 825H47V879Q113 891 183 909T292 940L330 952L338 946Q320 889 319 731V285Q319 172 356 128T467 84Q635 84 797 248V686Q797 739 794 763T778
806T735 825H662V879Q728 891 797 909T903 940L940 952L950 946Q932 889 932 731V190Q932 110 957 92T1047 74H1106L1100 23L793 -18L782 -12Q802 47 803 98V211Q641 -25 408 -25Q184 -24 184 250ZM422 1032L365 1065L528 1415L670 1432V1376L422 1032ZM700 1032L643
1065L807 1415L948 1432V1376L700 1032Z" />
<glyph unicode="&#x172;" glyph-name="Uogonek" horiz-adv-x="1509" d="M211 481V1169Q211 1249 189 1272T55 1319V1366H219L416 1374L426 1366Q358 1290 358 1122V498Q358 283 480 170T776 57Q948 57 1080 171T1212 483V1159Q1212 1200 1209 1219T1191 1261T1140
1295T1042 1313V1366H1432L1442 1341Q1436 1339 1427 1336T1394 1318T1352 1282T1319 1221T1305 1135V489Q1305 335 1234 222T1042 45Q974 2 893 -91T811 -276Q811 -409 954 -410L999 -406L1012 -451Q912 -486 854 -485Q764 -485 713 -436T662 -311Q662 -272 676
-236T725 -158T786 -92T872 -12Q806 -24 739 -25Q633 -25 543 3T376 87T255 244T211 481Z" />
<glyph unicode="&#x173;" glyph-name="uogonek" horiz-adv-x="1136" d="M184 250V686Q184 739 181 763T165 806T123 825H47V879Q113 891 183 909T292 940L330 952L338 946Q320 889 319 731V285Q319 172 356 128T467 84Q635 84 797 248V686Q797 739 794 763T778
806T735 825H662V879Q728 891 797 909T903 940L940 952L950 946Q932 889 932 731V190Q932 110 957 92T1047 74H1106L1100 23Q1018 15 911 0Q852 -20 785 -112T717 -281Q717 -349 759 -379T862 -410L903 -406L915 -451Q815 -486 760 -485Q670 -485 618 -435T565
-311Q565 -258 600 -202T667 -114T784 -6Q802 49 803 98V211Q641 -25 408 -25Q184 -24 184 250Z" />
<glyph unicode="&#x174;" glyph-name="Wcircumflex" horiz-adv-x="1976" d="M657 1513L922 1784H1018L1280 1513L1231 1470L971 1645H967L707 1470L657 1513ZM1366 6L977 999L655 -18L588 6L117 1206Q101 1245 70 1272T16 1310L-6 1319V1366H123L305 1374L313
1366Q268 1266 301 1178L606 354Q626 299 647 221L932 1116L897 1206Q881 1245 850 1272T797 1310L774 1319V1366H903L1085 1374L1094 1366Q1049 1266 1081 1178L1386 350Q1413 272 1425 223L1714 1141Q1739 1213 1716 1254T1614 1319V1366H1917L1925 1341Q1917
1337 1905 1326T1858 1258T1794 1118L1432 -18L1366 6Z" />
<glyph unicode="&#x175;" glyph-name="wcircumflex" horiz-adv-x="1484" d="M494 1065L727 1425H799L1030 1065L975 1030L762 1272L549 1030L494 1065ZM412 0L121 752Q103 799 75 828T29 864L10 870V918H104L272 926L281 918Q244 830 281 729L449 272Q469 209
479 168L686 666Q709 721 702 748L705 752Q689 799 660 828T610 864L590 870V918H688L856 926L864 918Q860 908 856 891T847 822T862 729L1028 283Q1046 236 1061 168L1292 723Q1317 778 1286 817T1192 870V918H1458L1468 885Q1429 869 1393 776L1055 -27L995 0L750
633L471 -27L412 0Z" />
<glyph unicode="&#x176;" glyph-name="Ycircumflex" horiz-adv-x="1200" d="M379 -6V55Q449 63 489 96T530 180V604L131 1229Q108 1262 82 1284T39 1313L23 1319V1366H117L299 1374L307 1366Q266 1288 311 1219L573 799Q604 750 635 684L950 1192Q979 1231 961
1269T868 1319V1366H1196L1204 1341Q1118 1312 1057 1212L678 600V180L668 78L856 59L848 6L379 -6ZM301 1513L565 1784H662L924 1513L874 1470L614 1645H610L350 1470L301 1513Z" />
<glyph unicode="&#x177;" glyph-name="ycircumflex" horiz-adv-x="940" d="M141 -330Q213 -330 265 -288T344 -188L426 2Q416 39 381 127L125 752Q107 797 78 826T31 863L12 870V918H109L285 926L293 918Q275 881 275 827T293 729L463 297L504 172L745 723Q792
827 633 870V918H911L922 885Q883 869 846 776L475 -57Q471 -65 447 -123T406 -217T357 -309T294 -399T221 -458T135 -485Q96 -485 75 -462T53 -406Q53 -375 74 -353T141 -330ZM215 1065L449 1425H520L752 1065L696 1030L483 1272L270 1030L215 1065Z" />
<glyph unicode="&#x178;" glyph-name="Ydieresis" horiz-adv-x="1200" d="M379 -6V55Q449 63 489 96T530 180V604L131 1229Q108 1262 82 1284T39 1313L23 1319V1366H117L299 1374L307 1366Q266 1288 311 1219L573 799Q604 750 635 684L950 1192Q979 1231 961 1269T868
1319V1366H1196L1204 1341Q1118 1312 1057 1212L678 600V180L668 78L856 59L848 6L379 -6ZM739 1585T739 1624T770 1693T840 1724T909 1694T940 1624T910 1554T840 1522T770 1553ZM281 1585T281 1624T311 1693T381 1724T450 1694T481 1624T451 1554T381 1522T312
1553Z" />
<glyph unicode="&#x179;" glyph-name="Zacute" horiz-adv-x="1255" d="M74 -8L61 66Q104 115 174 211L893 1196Q905 1214 937 1251T975 1296H481Q350 1296 296 1247T184 1038H119L168 1366H1004L1135 1374L1143 1300L1040 1155L328 170Q314 152 244 70H803Q926
70 975 120T1099 345Q1106 362 1110 371H1176L1092 0H205L74 -8ZM487 1546L840 1757H850L909 1663V1616L510 1485L487 1546Z" />
<glyph unicode="&#x17a;" glyph-name="zacute" horiz-adv-x="888" d="M88 -8L72 41Q90 59 145 139L553 760Q573 791 627 858H332Q250 858 202 803T135 684H84L121 918H635L776 926L793 877L731 790Q727 784 723 778L326 164Q303 129 250 61H524Q579 61 625 82T696
135T738 196T762 249L768 270H817L762 0H227L88 -8ZM453 1032L395 1065L575 1415L729 1432V1376L453 1032Z" />
<glyph unicode="&#x17b;" glyph-name="Zdotaccent" horiz-adv-x="1255" d="M686 1528T649 1528T583 1557T553 1626Q553 1663 582 1693T649 1724T715 1694T745 1626Q745 1587 716 1558ZM74 -8L61 66Q104 115 174 211L893 1196Q905 1214 937 1251T975 1296H481Q350
1296 296 1247T184 1038H119L168 1366H1004L1135 1374L1143 1300L1040 1155L328 170Q314 152 244 70H803Q926 70 975 120T1099 345Q1106 362 1110 371H1176L1092 0H205L74 -8Z" />
<glyph unicode="&#x17c;" glyph-name="zdotaccent" horiz-adv-x="888" d="M88 -8L72 41Q90 59 145 139L553 760Q573 791 627 858H332Q250 858 202 803T135 684H84L121 918H635L776 926L793 877L731 790Q727 784 723 778L326 164Q303 129 250 61H524Q579 61 625
82T696 135T738 196T762 249L768 270H817L762 0H227L88 -8ZM508 1161T471 1161T405 1192T375 1262Q375 1299 404 1329T471 1360T537 1329T567 1262Q567 1223 538 1192Z" />
<glyph unicode="&#x17d;" glyph-name="Zcaron" horiz-adv-x="1255" d="M74 -8L61 66Q104 115 174 211L893 1196Q905 1214 937 1251T975 1296H481Q350 1296 296 1247T184 1038H119L168 1366H1004L1135 1374L1143 1300L1040 1155L328 170Q314 152 244 70H803Q926
70 975 120T1099 345Q1106 362 1110 371H1176L1092 0H205L74 -8ZM338 1741L387 1784L647 1612H651L911 1784L961 1741L698 1470H604L338 1741Z" />
<glyph unicode="&#x17e;" glyph-name="zcaron" horiz-adv-x="888" d="M436 1071L203 1409L258 1444L471 1219L684 1444L739 1409L508 1071H436ZM88 -8L72 41Q90 59 145 139L553 760Q573 791 627 858H332Q250 858 202 803T135 684H84L121 918H635L776 926L793 877L731
790Q727 784 723 778L326 164Q303 129 250 61H524Q579 61 625 82T696 135T738 196T762 249L768 270H817L762 0H227L88 -8Z" />
<glyph unicode="&#x17f;" glyph-name="longs" horiz-adv-x="559" d="M78 -6V49Q209 63 209 182V823H78V874L209 920V973Q209 1211 311 1348T612 1485Q690 1485 751 1456T813 1372Q813 1345 793 1325T735 1305Q710 1305 645 1350T510 1395Q424 1395 384 1311T344
1032V182L334 72L549 53L541 6L78 -6Z" />
<glyph unicode="&#x192;" glyph-name="florin" horiz-adv-x="909" d="M100 625V702H379Q430 1077 519 1234T786 1391Q942 1391 942 1303Q942 1270 919 1249T866 1227Q815 1227 752 1257T659 1288Q626 1288 609 1260T568 1101T512 702H827L801 625H504Q500 596
496 539Q439 7 346 -200T55 -408Q-101 -408 -100 -319Q-100 -286 -77 -265T-23 -244Q30 -244 93 -274T182 -305Q217 -305 237 -264T288 -35T360 539Q362 568 371 625H100Z" />
<glyph unicode="&#x1fa;" glyph-name="Aringacute" horiz-adv-x="1286" d="M-18 0V55Q86 65 119 147L588 1313Q525 1325 490 1370T455 1470Q455 1536 504 1584T643 1632T782 1584T831 1470Q831 1417 798 1373T702 1313L1135 215Q1158 160 1176 126T1217 78T1251
60T1294 51L1286 0H1196L915 -6V61Q968 63 994 79T1004 139L868 489H360L336 473L186 78L360 53L352 0H-18ZM645 1071Q629 1112 608 1184L373 567H838L645 1071ZM428 1702L780 1913H791L850 1819V1772L451 1640L428 1702ZM596 1372T643 1372T716 1401T743 1468Q743
1509 718 1538T643 1567T570 1538T545 1468Q545 1429 570 1401Z" />
<glyph unicode="&#x1fb;" glyph-name="aringacute" horiz-adv-x="925" d="M63 174Q63 307 200 391T524 504L594 514V516Q598 668 586 735Q557 878 444 879Q403 879 366 860T302 812T257 757T229 710L221 690H164L133 834Q235 910 395 934Q338 952 307 996T276
1094Q276 1162 325 1207T465 1253T604 1207T653 1094Q653 1045 626 1002T547 940Q651 928 690 863T729 649V176Q729 121 739 101T786 80Q813 80 842 91T889 113L905 123L930 84Q920 72 902 54T830 5T727 -25Q670 -25 634 12T598 123V178Q594 170 585 157T545 108T479
45T387 -3T268 -25Q170 -25 117 34T63 174ZM334 76Q420 76 594 219V457L526 446Q407 428 311 370T215 207Q215 146 251 111T334 76ZM274 1272L252 1333L604 1542H614L674 1450V1401L274 1272ZM418 989T465 989T538 1020T565 1092T540 1162T465 1192T392 1163T367
1092Q367 1049 392 1019Z" />
<glyph unicode="&#x1fc;" glyph-name="AEacute" horiz-adv-x="1798" d="M-33 0V55Q8 59 38 75T79 106T104 147L694 1208Q721 1249 707 1273T614 1319V1366H1532L1675 1374L1612 1038H1546Q1554 1190 1504 1243T1325 1296H1042L1022 1276V707H1415L1432 844L1503
856V506H1411V637H1042L1022 616V184L1012 70H1348Q1475 70 1522 114T1651 330H1716L1640 0H1001L725 -6V55Q875 71 874 182V637H492L465 618L164 78L338 53L332 0H-33ZM791 1200L514 707H874V1286Q826 1272 791 1200ZM1006 1546L1358 1757H1368L1427 1663V1616L1028
1485L1006 1546Z" />
<glyph unicode="&#x1fd;" glyph-name="aeacute" horiz-adv-x="1449" d="M739 1032L682 1065L862 1415L1016 1432V1376L739 1032ZM59 180Q59 311 206 402T608 537V588Q608 729 578 804T459 879Q391 879 335 832T256 737L233 690H176L145 834Q161 846 191 864T314
912T506 942Q610 942 660 907T729 793Q833 943 1018 942Q1159 942 1259 855T1362 618Q1313 604 1282 598L737 496Q735 328 820 212T1073 96Q1151 96 1219 121T1318 174L1348 201L1370 164Q1366 156 1357 144T1314 99T1241 41T1140 -4T1008 -25Q875 -25 780 45T647
254Q606 133 509 54T295 -25Q182 -25 121 35T59 180ZM334 76Q363 76 396 85T468 118T536 179T586 274T606 408V469Q543 457 512 451T414 422T309 375T242 305T211 205Q211 146 244 111T334 76ZM993 872Q884 872 818 783T739 563L1196 649Q1196 657 1193 672T1178
727T1145 794T1084 847T993 872Z" />
<glyph unicode="&#x1fe;" glyph-name="Oslashacute" horiz-adv-x="1622" d="M98 668Q98 856 182 1019T436 1286T829 1391Q1042 1391 1214 1290L1319 1427H1427L1286 1241Q1524 1053 1524 731Q1524 530 1431 358T1165 81T782 -25Q569 -25 406 84L295 -61H184L334
135Q98 338 98 668ZM1358 682Q1358 942 1198 1126L483 188Q626 51 821 51Q981 51 1107 147T1295 386T1358 682ZM266 719Q266 457 424 254L1137 1188Q994 1315 799 1315Q561 1315 414 1137T266 719ZM651 1546L1004 1757H1014L1073 1663V1616L674 1485L651 1546Z"
/>
<glyph unicode="&#x1ff;" glyph-name="oslashacute" horiz-adv-x="1075" d="M100 -61L213 88Q84 213 84 438Q84 567 128 676T281 864T553 942Q698 942 801 879L877 979H977L866 829Q991 706 991 496Q991 289 867 132T518 -25Q379 -25 279 37L205 -61H100ZM240
483Q240 323 299 205L731 784Q649 880 528 881Q385 881 313 765T240 483ZM836 432Q836 590 778 711L348 131Q424 39 545 39Q678 39 757 144T836 432ZM520 1032L463 1065L643 1415L797 1432V1376L520 1032Z" />
<glyph unicode="&#x218;" glyph-name="Scommaaccent" horiz-adv-x="1028" d="M432 -135L457 -88H580Q631 -162 631 -242T572 -388T440 -494L401 -436Q516 -368 516 -299Q516 -237 432 -135ZM98 186Q98 217 139 354H207Q207 186 292 116T504 45Q621 45 698 99T776
272Q776 372 710 452T549 587T360 700T198 845T131 1044Q131 1198 248 1294T580 1391Q633 1391 693 1385T794 1372T868 1359T907 1352L846 1038H780Q800 1157 739 1239T553 1321Q438 1321 364 1266T289 1096Q289 994 355 917T516 788T704 679T865 534T932 324Q932
154 803 65T481 -25Q331 -25 214 29T98 186Z" />
<glyph unicode="&#x219;" glyph-name="scommaaccent" horiz-adv-x="784" d="M324 -135L348 -88H471Q522 -162 522 -242T463 -388T332 -494L293 -436Q408 -368 408 -299Q408 -237 324 -135ZM86 113L109 264H168Q176 145 244 92T401 39Q485 39 535 79T586 188Q586
249 537 297T416 381T274 454T154 552T104 692Q104 803 188 872T434 942Q489 942 550 934T647 916L682 907L643 702H582Q582 761 560 801T499 856T438 874T389 879Q305 879 265 838T225 741Q225 682 274 636T394 558T535 490T655 388T705 233Q705 114 620 45T389
-25Q348 -25 305 -20T208 -2T120 40T86 113Z" />
<glyph unicode="&#x21a;" glyph-name="uni021A" horiz-adv-x="1310" d="M565 -135L590 -88H713Q764 -162 764 -242T705 -388T573 -494L535 -436Q650 -368 649 -299Q649 -237 565 -135ZM424 -6V55Q496 63 535 98T575 188V1296H362Q249 1296 192 1245T80 1038H14L78
1378Q131 1366 215 1366H1155Q1192 1366 1229 1369T1284 1375L1303 1378L1239 1038H1174Q1184 1192 1135 1244T958 1296H741L723 1276V188L713 78L918 59L909 6L424 -6Z" />
<glyph unicode="&#x21b;" glyph-name="uni021B" horiz-adv-x="692" d="M326 -135L350 -88H473Q524 -162 524 -242T465 -388T334 -494L295 -436Q410 -368 410 -299Q410 -237 326 -135ZM184 244V690L190 823H53V874Q143 892 193 938L266 1159H330L336 1153Q318 1087
317 946V918H647L633 829H338L319 809V266Q319 174 354 129T469 84Q510 84 556 94T629 115L655 125L680 92Q668 80 646 61T550 8T403 -25Q184 -24 184 244Z" />
<glyph unicode="&#x2c6;" glyph-name="circumflex" horiz-adv-x="1024" d="M244 1065L477 1425H549L780 1065L725 1030L512 1272L299 1030L244 1065Z" />
<glyph unicode="&#x2c7;" glyph-name="caron" horiz-adv-x="1024" d="M477 1071L244 1409L299 1444L512 1219L725 1444L780 1409L549 1071H477Z" />
<glyph unicode="&#x2d8;" glyph-name="breve" horiz-adv-x="1024" d="M627 1108T512 1108T325 1174T252 1346Q252 1387 262 1419H328V1403Q328 1401 328 1398Q328 1380 329 1366T339 1322T365 1273T421 1237T512 1221Q567 1221 606 1239T661 1275T687 1329T696
1373T696 1403V1419H762Q772 1374 772 1346Q772 1242 700 1175Z" />
<glyph unicode="&#x2d9;" glyph-name="dotaccent" horiz-adv-x="1024" d="M549 1161T512 1161T446 1192T416 1262Q416 1299 445 1329T512 1360T578 1329T608 1262Q608 1223 579 1192Z" />
<glyph unicode="&#x2da;" glyph-name="ring" horiz-adv-x="1024" d="M602 1098T512 1098T373 1148T324 1265T373 1379T512 1425T651 1379T700 1266T651 1148ZM465 1161T512 1161T585 1192T612 1264T587 1334T512 1364T439 1335T414 1264Q414 1221 439 1191Z" />
<glyph unicode="&#x2db;" glyph-name="ogonek" horiz-adv-x="1024" d="M344 -311Q344 -284 350 -260T372 -210T401 -166T443 -118T489 -73T547 -21T606 33L715 55L725 45Q657 0 577 -92T496 -276Q496 -409 637 -410L682 -406L696 -451Q600 -486 539 -485Q449 -485
397 -435T344 -311Z" />
<glyph unicode="&#x2dc;" glyph-name="tilde" horiz-adv-x="1024" d="M225 1155Q225 1165 225 1180T233 1237T257 1308T308 1365T393 1391Q440 1391 478 1367T537 1316T587 1265T647 1241Q682 1241 702 1276T726 1345L729 1378H799Q799 1368 798 1352T789 1293T765
1219T713 1160T627 1133Q580 1133 542 1156T484 1208T435 1260T375 1284Q342 1284 322 1253T298 1188L295 1155H225Z" />
<glyph unicode="&#x2dd;" glyph-name="hungarumlaut" horiz-adv-x="1024" d="M268 1032L211 1065L375 1415L516 1432V1376L268 1032ZM547 1032L489 1065L653 1415L795 1432V1376L547 1032Z" />
<glyph unicode="&#x3a9;" glyph-name="Omega" horiz-adv-x="1591" d="M156 0L80 309H150Q209 198 262 172T453 145H504Q502 147 466 183T418 232T371 284T321 346T277 412T234 487T203 566T179 656T172 750Q172 1031 352 1211T799 1391Q1069 1391 1245 1215T1421
756Q1421 672 1399 593T1330 444T1251 328T1161 222T1092 145H1139Q1278 145 1330 172T1442 309H1511L1436 0H950L940 37Q942 41 983 96T1035 168T1084 241T1137 330T1180 421T1219 527T1241 633T1251 754Q1251 1006 1129 1162T797 1319Q584 1319 463 1166T342
748Q342 633 385 508T468 316T581 146T657 39L641 0H156Z" />
<glyph unicode="&#x3c0;" glyph-name="pi" horiz-adv-x="1167" d="M76 752Q168 918 379 918H1081V803H895L874 782V190Q874 122 886 98T948 74H1026L1032 29Q911 -24 860 -25Q799 -25 769 -3T739 84V803H475L455 782V711Q455 607 442 487T399 249T316 53T195 -25Q160
-25 139 -7T117 43Q117 80 144 106T208 148T281 200T334 287Q369 406 378 487T387 729V803Q223 801 125 721L76 752Z" />
<glyph unicode="&#x1e80;" glyph-name="Wgrave" horiz-adv-x="1976" d="M709 1616V1663L768 1757H778L1130 1546L1108 1485L709 1616ZM1366 6L977 999L655 -18L588 6L117 1206Q101 1245 70 1272T16 1310L-6 1319V1366H123L305 1374L313 1366Q268 1266 301 1178L606
354Q626 299 647 221L932 1116L897 1206Q881 1245 850 1272T797 1310L774 1319V1366H903L1085 1374L1094 1366Q1049 1266 1081 1178L1386 350Q1413 272 1425 223L1714 1141Q1739 1213 1716 1254T1614 1319V1366H1917L1925 1341Q1917 1337 1905 1326T1858 1258T1794
1118L1432 -18L1366 6Z" />
<glyph unicode="&#x1e81;" glyph-name="wgrave" horiz-adv-x="1484" d="M412 0L121 752Q103 799 75 828T29 864L10 870V918H104L272 926L281 918Q244 830 281 729L449 272Q469 209 479 168L686 666Q709 721 702 748L705 752Q689 799 660 828T610 864L590 870V918H688L856
926L864 918Q860 908 856 891T847 822T862 729L1028 283Q1046 236 1061 168L1292 723Q1317 778 1286 817T1192 870V918H1458L1468 885Q1429 869 1393 776L1055 -27L995 0L750 633L471 -27L412 0ZM502 1376V1432L655 1415L836 1065L778 1032L502 1376Z" />
<glyph unicode="&#x1e82;" glyph-name="Wacute" horiz-adv-x="1976" d="M807 1546L1159 1757H1169L1229 1663V1616L829 1485L807 1546ZM1366 6L977 999L655 -18L588 6L117 1206Q101 1245 70 1272T16 1310L-6 1319V1366H123L305 1374L313 1366Q268 1266 301 1178L606
354Q626 299 647 221L932 1116L897 1206Q881 1245 850 1272T797 1310L774 1319V1366H903L1085 1374L1094 1366Q1049 1266 1081 1178L1386 350Q1413 272 1425 223L1714 1141Q1739 1213 1716 1254T1614 1319V1366H1917L1925 1341Q1917 1337 1905 1326T1858 1258T1794
1118L1432 -18L1366 6Z" />
<glyph unicode="&#x1e83;" glyph-name="wacute" horiz-adv-x="1484" d="M745 1032L688 1065L868 1415L1022 1432V1376L745 1032ZM412 0L121 752Q103 799 75 828T29 864L10 870V918H104L272 926L281 918Q244 830 281 729L449 272Q469 209 479 168L686 666Q709 721
702 748L705 752Q689 799 660 828T610 864L590 870V918H688L856 926L864 918Q860 908 856 891T847 822T862 729L1028 283Q1046 236 1061 168L1292 723Q1317 778 1286 817T1192 870V918H1458L1468 885Q1429 869 1393 776L1055 -27L995 0L750 633L471 -27L412 0Z"
/>
<glyph unicode="&#x1e84;" glyph-name="Wdieresis" horiz-adv-x="1976" d="M1366 6L977 999L655 -18L588 6L117 1206Q101 1245 70 1272T16 1310L-6 1319V1366H123L305 1374L313 1366Q268 1266 301 1178L606 354Q626 299 647 221L932 1116L897 1206Q881 1245 850
1272T797 1310L774 1319V1366H903L1085 1374L1094 1366Q1049 1266 1081 1178L1386 350Q1413 272 1425 223L1714 1141Q1739 1213 1716 1254T1614 1319V1366H1917L1925 1341Q1917 1337 1905 1326T1858 1258T1794 1118L1432 -18L1366 6ZM637 1585T637 1624T667 1693T737
1724T807 1694T838 1624T807 1554T737 1522T668 1553ZM1096 1585T1096 1624T1126 1693T1196 1724T1265 1694T1296 1624T1266 1554T1196 1522T1127 1553Z" />
<glyph unicode="&#x1e85;" glyph-name="wdieresis" horiz-adv-x="1484" d="M631 1159T592 1159T523 1191T492 1261T522 1332T592 1364T660 1332T690 1262T661 1191ZM969 1159T930 1159T860 1191T829 1261T860 1332T930 1364T999 1332T1030 1262T1000 1191ZM412
0L121 752Q103 799 75 828T29 864L10 870V918H104L272 926L281 918Q244 830 281 729L449 272Q469 209 479 168L686 666Q709 721 702 748L705 752Q689 799 660 828T610 864L590 870V918H688L856 926L864 918Q860 908 856 891T847 822T862 729L1028 283Q1046 236
1061 168L1292 723Q1317 778 1286 817T1192 870V918H1458L1468 885Q1429 869 1393 776L1055 -27L995 0L750 633L471 -27L412 0Z" />
<glyph unicode="&#x1e9e;" glyph-name="uni1E9E" horiz-adv-x="1388" d="M68 -6V55Q129 63 164 98T199 188V702Q199 1048 349 1219T766 1391Q856 1391 1008 1379T1180 1366L1200 1317Q1149 1256 1087 1171L848 829Q934 806 1008 773T1152 688T1262 562T1303 399Q1303
237 1187 106T887 -25Q776 -25 677 15T578 125Q578 197 657 197Q688 197 710 172T746 118T797 64T889 39Q1016 39 1097 134T1178 350Q1178 500 1031 595T707 713L698 774Q757 835 817 920L1004 1184L1040 1241Q927 1321 760 1321Q346 1321 346 737V188L336 78L471
59L463 6L68 -6Z" />
<glyph unicode="&#x1ef2;" glyph-name="Ygrave" horiz-adv-x="1200" d="M379 -6V55Q449 63 489 96T530 180V604L131 1229Q108 1262 82 1284T39 1313L23 1319V1366H117L299 1374L307 1366Q266 1288 311 1219L573 799Q604 750 635 684L950 1192Q979 1231 961 1269T868
1319V1366H1196L1204 1341Q1118 1312 1057 1212L678 600V180L668 78L856 59L848 6L379 -6ZM354 1616V1663L414 1757H424L776 1546L754 1485L354 1616Z" />
<glyph unicode="&#x1ef3;" glyph-name="ygrave" horiz-adv-x="940" d="M141 -330Q213 -330 265 -288T344 -188L426 2Q416 39 381 127L125 752Q107 797 78 826T31 863L12 870V918H109L285 926L293 918Q275 881 275 827T293 729L463 297L504 172L745 723Q792 827
633 870V918H911L922 885Q883 869 846 776L475 -57Q471 -65 447 -123T406 -217T357 -309T294 -399T221 -458T135 -485Q96 -485 75 -462T53 -406Q53 -375 74 -353T141 -330ZM223 1376V1432L377 1415L557 1065L500 1032L223 1376Z" />
<glyph unicode="&#x2013;" glyph-name="endash" horiz-adv-x="1105" d="M133 467V567H973V467H133Z" />
<glyph unicode="&#x2014;" glyph-name="emdash" horiz-adv-x="1904" d="M133 467V567H1772V467H133Z" />
<glyph unicode="&#x2018;" glyph-name="quoteleft" horiz-adv-x="409" d="M96 1202Q96 1374 285 1493L326 1450Q195 1356 195 1286Q195 1218 330 1153V1090L182 1012Q96 1089 96 1202Z" />
<glyph unicode="&#x2019;" glyph-name="quoteright" horiz-adv-x="401" d="M92 1354V1417L240 1495Q326 1421 326 1307Q326 1133 139 1016L96 1059Q227 1153 227 1223Q227 1291 92 1354Z" />
<glyph unicode="&#x201a;" glyph-name="quotesinglbase" horiz-adv-x="468" d="M119 78V143L264 221Q350 143 350 31Q350 -141 164 -260L123 -217Q254 -123 254 -53Q254 15 119 78Z" />
<glyph unicode="&#x201c;" glyph-name="quotedblleft" horiz-adv-x="720" d="M408 1202Q408 1374 596 1493L637 1450Q506 1356 506 1286Q506 1218 641 1153V1090L496 1012Q408 1089 408 1202ZM96 1202Q96 1374 285 1493L326 1450Q195 1356 195 1286Q195 1218 330
1153V1090L182 1012Q96 1089 96 1202Z" />
<glyph unicode="&#x201d;" glyph-name="quotedblright" horiz-adv-x="712" d="M92 1354V1417L240 1495Q326 1421 326 1307Q326 1133 139 1016L96 1059Q227 1153 227 1223Q227 1291 92 1354ZM406 1354V1417L551 1495Q637 1421 637 1307Q637 1133 451 1016L410 1059Q541
1155 541 1223Q541 1288 406 1354Z" />
<glyph unicode="&#x201e;" glyph-name="quotedblbase" horiz-adv-x="774" d="M119 78V143L264 221Q350 143 350 31Q350 -141 164 -260L123 -217Q254 -123 254 -53Q254 15 119 78ZM424 78V143L569 221Q655 143 655 31Q655 -141 469 -260L428 -217Q559 -123 559
-53Q559 15 424 78Z" />
<glyph unicode="&#x2020;" glyph-name="dagger" horiz-adv-x="1060" d="M156 760Q111 760 87 787T63 850T87 913T156 942Q179 942 295 918T492 889Q490 981 466 1119T442 1278Q442 1321 470 1343T530 1366T588 1344T614 1278Q614 1260 592 1121T569 889Q649 893
766 917T905 942Q950 942 973 914T997 850T974 788T905 760Q880 760 764 783T569 813V201Q573 109 593 -32T614 -197Q614 -240 589 -262T531 -285T470 -263T442 -197Q442 -179 467 -37T492 201V813Q414 807 298 784T156 760Z" />
<glyph unicode="&#x2021;" glyph-name="daggerdbl" horiz-adv-x="1060" d="M156 760Q111 760 87 787T63 850T87 913T156 942Q179 942 295 918T492 889Q488 983 465 1119T442 1278Q442 1321 470 1343T530 1366T588 1344T614 1278Q614 1260 592 1121T569 889Q649
893 766 917T905 942Q950 942 973 914T997 850T974 788T905 760Q880 760 764 783T569 813V276Q649 280 766 305T905 330Q950 330 973 301T997 238T974 175T905 147Q882 147 765 170T569 199Q571 97 592 -40T614 -197Q614 -240 589 -262T531 -285T470 -263T442 -197Q442
-174 464 -38T492 199Q414 193 296 170T156 147Q111 147 87 175T63 237T87 301T156 330Q179 330 295 306T492 276V813Q414 807 298 784T156 760Z" />
<glyph unicode="&#x2022;" glyph-name="bullet" horiz-adv-x="765" d="M498 252T383 252T190 331T111 524T189 718T383 797T576 718T655 525T577 331Z" />
<glyph unicode="&#x2026;" glyph-name="ellipsis" horiz-adv-x="1564" d="M125 41T125 86T156 164T236 197Q281 197 313 164T346 86T314 8T236 -25Q189 -25 157 8ZM672 41T672 86T704 164T782 197T860 164T893 86T860 8T782 -25T705 8ZM1219 41T1219 86T1250 164T1329
197Q1374 197 1406 164T1438 86T1406 8T1329 -25Q1282 -25 1251 8Z" />
<glyph unicode="&#x2030;" glyph-name="perthousand" horiz-adv-x="2160" d="M74 911T74 1036T162 1250T375 1339Q498 1339 586 1250T674 1036T586 823T375 735Q250 735 162 823ZM166 1124T166 1036T226 883T375 817Q461 817 522 882T584 1036T523 1189T375 1255Q287
1255 227 1190ZM201 0L1155 1372L1231 1319L313 0H201ZM788 150T788 274T876 487T1087 575Q1212 575 1300 487T1389 275T1301 62T1087 -27Q964 -27 876 61ZM879 274Q879 184 940 120T1087 55Q1175 55 1235 119T1296 274Q1296 362 1236 428T1087 494Q1001 494 940
428T879 274ZM1507 150T1507 274T1595 487T1808 575Q1931 575 2019 487T2107 275T2019 62T1808 -27Q1683 -27 1595 61ZM1597 274Q1597 184 1658 120T1808 55Q1894 55 1955 119T2017 274Q2017 362 1956 428T1808 494Q1720 494 1659 428T1597 274Z" />
<glyph unicode="&#x2039;" glyph-name="guilsinglleft" horiz-adv-x="684" d="M84 508V516Q162 571 530 942L586 922L309 512L586 102L530 82Q158 457 84 508Z" />
<glyph unicode="&#x203a;" glyph-name="guilsinglright" horiz-adv-x="686" d="M100 102L375 512L100 922L154 942Q338 758 435 664T551 554T602 516V508Q528 457 154 82L100 102Z" />
<glyph unicode="&#x2044;" glyph-name="fraction" horiz-adv-x="256" d="M-209 0H-319L483 1395L575 1366L-209 0Z" />
<glyph unicode="&#x2070;" glyph-name="uni2070" horiz-adv-x="745" d="M375 811Q525 811 524 1186Q524 1557 375 1556Q221 1556 221 1188Q221 811 375 811ZM362 756Q219 756 150 874T80 1167Q80 1349 156 1480T383 1612Q528 1612 598 1495T668 1206Q668 1022
590 889T362 756Z" />
<glyph unicode="&#x2074;" glyph-name="uni2074" horiz-adv-x="694" d="M37 1010L25 1079L422 1591L520 1614Q512 1555 512 1470V1090H651L629 1010H512V889L508 827L616 817L612 774L295 766V811Q387 821 387 889V1010H37ZM117 1090H387V1434L117 1090Z" />
<glyph unicode="&#x2075;" glyph-name="uni2075" horiz-adv-x="608" d="M254 756Q193 756 131 781T68 850Q68 901 125 901Q154 901 195 852T272 803Q323 803 374 863T426 991Q426 1050 392 1094T309 1160T211 1194T128 1208L94 1210L115 1597H406L514 1610L494
1501H176L168 1317Q213 1313 261 1302T382 1263T501 1175T547 1030Q547 924 461 840T254 756Z" />
<glyph unicode="&#x2076;" glyph-name="uni2076" horiz-adv-x="702" d="M70 1104Q70 1301 198 1456T553 1612L561 1556Q440 1550 360 1478T247 1313T215 1118Q215 995 261 903T377 811Q434 811 470 876T506 1022Q506 1120 459 1185T319 1233L313 1288Q358 1300
403 1300Q520 1300 583 1228T647 1055Q647 940 570 848T356 756Q219 756 145 858T70 1104Z" />
<glyph unicode="&#x2077;" glyph-name="uni2077" horiz-adv-x="632" d="M201 756Q154 756 154 797Q154 832 168 848Q301 1020 418 1300L485 1466H207Q150 1466 131 1455T92 1391H37L72 1597H539L623 1608L625 1561Q584 1512 567 1475L336 956Q330 944 320 919T302
878T285 841T266 806T247 781T225 762T201 756Z" />
<glyph unicode="&#x2078;" glyph-name="uni2078" horiz-adv-x="673" d="M315 756Q227 756 151 806T74 948T115 1092T242 1202Q101 1317 100 1440Q100 1516 169 1564T354 1612Q450 1612 510 1566T571 1446Q571 1393 545 1349T493 1285T416 1229Q475 1184 508 1155T570
1077T600 979Q600 875 523 816T315 756ZM326 811Q383 811 423 849T463 952Q463 993 432 1036T375 1100T285 1169Q195 1095 195 977Q195 895 233 853T326 811ZM236 1446Q236 1364 371 1262Q451 1332 451 1438Q451 1495 420 1525T340 1556Q236 1557 236 1446Z" />
<glyph unicode="&#x2079;" glyph-name="uni2079" horiz-adv-x="698" d="M145 756L137 811Q258 817 339 890T451 1055T483 1249Q483 1372 437 1464T322 1556Q269 1556 234 1490T199 1346Q199 1250 243 1185T377 1135L385 1079Q340 1067 295 1067Q182 1067 119 1140T55
1313Q55 1428 133 1520T342 1612Q479 1612 554 1510T629 1264Q629 1067 501 912T145 756Z" />
<glyph unicode="&#x207f;" glyph-name="uni207F" horiz-adv-x="845" d="M63 604V647Q155 661 156 741V1087Q156 1138 148 1160T113 1182H45V1223L276 1296L283 1290Q271 1282 270 1141Q294 1174 355 1213Q441 1269 532 1270Q706 1270 707 1075V741L700 670L821
653L815 612L498 604V647Q549 655 567 677T586 741V1049Q586 1192 494 1192Q443 1192 381 1165T274 1096V741L268 670L395 653L387 612L63 604Z" />
<glyph unicode="&#x2080;" glyph-name="uni2080" horiz-adv-x="741" d="M371 -190Q521 -190 520 184Q520 555 371 555Q217 555 217 186Q217 -190 371 -190ZM358 -246Q215 -246 146 -127T76 166Q76 348 152 479T379 610Q524 610 594 494T664 205Q664 21 586 -112T358
-246Z" />
<glyph unicode="&#x2081;" glyph-name="uni2081" horiz-adv-x="528" d="M66 -236V-182L152 -178Q199 -176 212 -158T225 -106V442Q225 475 220 488T206 501T182 498L51 469L47 526L362 618L369 610Q353 567 352 471V-106L348 -168L510 -178L504 -227L66 -236Z" />
<glyph unicode="&#x2082;" glyph-name="uni2082" horiz-adv-x="665" d="M59 -231L45 -182L81 -151Q117 -119 128 -109T173 -67T224 -16T269 35T318 95T358 154Q432 275 432 375Q432 438 392 471T295 504Q178 504 96 428L59 469Q71 485 92 508T181 571T324 610Q418
610 488 557T559 403Q559 376 552 346T536 290T506 232T472 177T429 118T385 65T335 10T288 -38T239 -87T195 -131H434Q491 -131 514 -108T555 -20H608L575 -231H59Z" />
<glyph unicode="&#x2083;" glyph-name="uni2083" horiz-adv-x="645" d="M258 -246Q182 -246 113 -218T43 -147Q43 -100 100 -100Q135 -100 184 -149T283 -199Q344 -199 394 -136T444 0Q444 74 388 120T233 166L182 162V229Q270 233 332 290T395 412Q395 512 293
512Q201 512 123 459L86 500Q96 512 114 530T197 579T332 610Q404 610 465 566T526 438Q526 385 468 327T338 223Q444 209 513 151T582 12Q582 -99 481 -172T258 -246Z" />
<glyph unicode="&#x2084;" glyph-name="uni2084" horiz-adv-x="692" d="M37 8L25 78L422 590L520 612Q512 553 512 469V88H651L629 8H512V-113L508 -174L616 -184L612 -227L295 -236V-190Q387 -180 387 -113V8H37ZM117 88H387V432L117 88Z" />
<glyph unicode="&#x2085;" glyph-name="uni2085" horiz-adv-x="610" d="M256 -246Q195 -246 133 -221T70 -152Q70 -101 127 -100Q156 -100 197 -149T274 -199Q325 -199 376 -139T428 -10Q428 49 394 93T311 158T213 192T130 207L96 209L117 596H408L516 608L496
500H178L170 315Q215 311 263 300T384 261T503 173T549 29Q549 -77 463 -161T256 -246Z" />
<glyph unicode="&#x2086;" glyph-name="uni2086" horiz-adv-x="700" d="M68 102Q68 299 196 454T551 610L559 555Q438 549 357 476T245 311T213 117Q213 -8 259 -99T375 -190Q432 -190 468 -125T504 20Q504 118 457 184T317 231L311 287Q356 299 401 299Q518 299
581 227T645 53Q645 -62 567 -154T354 -246Q217 -246 143 -144T68 102Z" />
<glyph unicode="&#x2087;" glyph-name="uni2087" horiz-adv-x="634" d="M201 -246Q154 -246 154 -205Q154 -170 168 -154Q301 18 418 299L485 465H207Q150 465 131 454T92 389H37L72 596H539L623 606L625 559Q584 510 567 473L336 -45Q330 -57 320 -83T302 -124T285
-160T266 -195T247 -221T225 -239T201 -246Z" />
<glyph unicode="&#x2088;" glyph-name="uni2088" horiz-adv-x="671" d="M315 -246Q227 -246 151 -196T74 -53T115 91T242 201Q101 316 100 438Q100 514 169 562T354 610Q450 610 510 564T571 444Q571 391 545 347T493 283T416 227Q475 182 508 154T570 76T600
-23Q600 -127 523 -186T315 -246ZM326 -190Q383 -190 423 -153T463 -49Q463 -8 432 35T375 99T285 168Q195 94 195 -25Q195 -107 233 -148T326 -190ZM236 444Q236 360 371 260Q451 330 451 436Q451 493 420 524T340 555Q236 555 236 444Z" />
<glyph unicode="&#x2089;" glyph-name="uni2089" horiz-adv-x="696" d="M145 -246L137 -190Q258 -184 339 -112T451 53T483 248Q483 373 437 464T322 555Q269 555 234 489T199 344Q199 248 243 184T377 133L385 78Q340 66 295 66Q182 66 119 139T55 311Q55 426
133 518T342 610Q479 610 554 508T629 262Q629 65 501 -90T145 -246Z" />
<glyph unicode="&#x20ac;" glyph-name="Euro" horiz-adv-x="1069" d="M68 406V483H172Q170 499 170 535Q170 596 174 627H68V705H188Q231 900 361 1026T688 1153Q758 1153 839 1136T966 1102L1012 1085L946 872H889Q891 974 840 1026T657 1079Q524 1079 440 973T334
705H899L874 627H328V602Q328 534 336 483H836L811 406H350Q387 261 471 170T682 78Q772 78 845 96T944 132L971 150L999 109Q985 95 960 72T846 12T659 -25Q460 -25 338 96T180 406H68Z" />
<glyph unicode="&#x2122;" glyph-name="trademark" horiz-adv-x="1423" d="M207 813V850Q260 854 260 903V1317H211Q172 1317 148 1297T96 1219H53L80 1370Q111 1366 145 1366H508L573 1370L549 1219H508Q508 1274 488 1295T418 1317H360V903L356 858L434 850L432
817L207 813ZM606 813V850Q661 854 666 901L682 1270Q684 1301 672 1311T610 1331V1366H682L829 1370V1366L856 1290L950 1018L963 973L1090 1309L1110 1366H1135L1270 1370L1274 1366Q1249 1331 1249 1262L1266 897L1264 856L1333 850L1327 817L1112 813V850Q1165
854 1165 897L1151 1311L965 815L918 823L741 1298L725 901L721 856L793 850L788 817L606 813Z" />
<glyph unicode="&#x2190;" glyph-name="arrowleft" horiz-adv-x="1292" d="M684 164Q217 631 125 696V707Q166 736 187 754T333 892T684 1239L754 1212Q506 839 442 752H1124V651H440L754 188L684 164Z" />
<glyph unicode="&#x2191;" glyph-name="arrowup" horiz-adv-x="1292" d="M594 178V926L133 614L109 684Q572 1147 641 1243H651Q682 1202 695 1184T830 1039T1184 684L1155 614Q827 829 696 924V178H594Z" />
<glyph unicode="&#x2192;" glyph-name="arrowright" horiz-adv-x="1292" d="M168 651V752H850Q799 824 539 1214L606 1239Q835 1012 958 893T1104 755T1167 707V696Q1130 671 1097 642T945 499T606 164L539 188L850 651H168Z" />
<glyph unicode="&#x2193;" glyph-name="arrowdown" horiz-adv-x="1292" d="M641 178Q561 284 109 735L133 807L594 492V1243H696V496Q757 541 1155 807L1184 735Q951 504 831 380T696 237T651 178H641Z" />
<glyph unicode="&#x2202;" glyph-name="partialdiff" horiz-adv-x="985" d="M55 406Q55 588 164 723T467 858Q657 858 743 725Q743 733 744 747T745 768Q745 958 704 1100T596 1312T471 1413T360 1444Q315 1444 249 1417T170 1389Q152 1389 133 1406T113 1450Q113
1532 285 1532Q451 1532 593 1418T816 1121T897 739Q897 633 875 514T803 268T655 58T422 -25Q250 -25 153 103T55 406ZM414 43Q553 43 641 227T743 680Q655 764 530 764Q389 764 294 632T199 346Q199 227 258 135T414 43Z" />
<glyph unicode="&#x2206;" glyph-name="uni2206" horiz-adv-x="1259" d="M59 0V70L612 1366H672L1192 70V0H59ZM203 109H1028L625 1151L203 109Z" />
<glyph unicode="&#x220f;" glyph-name="product" horiz-adv-x="1472" d="M63 1296V1366H1411V1296H1245L1227 1276V2L1217 -109L1401 -127L1393 -180L932 -193V-131Q1000 -123 1039 -89T1079 -6V1296H414L395 1276V2L385 -109L569 -127L561 -180L100 -193V-131Q170
-123 209 -88T248 2V1296H63Z" />
<glyph unicode="&#x2211;" glyph-name="summation" horiz-adv-x="1222" d="M49 -133L637 592L61 1323V1366H1001L1055 1044L993 1032Q912 1190 877 1228Q813 1296 682 1296H274L784 639L223 -47H752Q887 -47 952 -7T1085 168H1149L1053 -184H336L49 -190V-133Z" />
<glyph unicode="&#x2212;" glyph-name="minus" horiz-adv-x="1064" d="M74 461V561H991V461H74Z" />
<glyph unicode="&#x221a;" glyph-name="radical" horiz-adv-x="1243" d="M43 819V922H385L629 242L1083 1534H1192L629 -74H625L307 819H43Z" />
<glyph unicode="&#x221e;" glyph-name="infinity" horiz-adv-x="1624" d="M432 190Q295 190 200 284T104 512T199 739T432 834Q620 834 813 582Q1006 834 1192 834Q1331 834 1425 740T1520 512T1426 285T1192 190Q1008 190 813 438Q618 190 432 190ZM432 285Q471
285 519 308T607 364T682 431T737 488L758 512Q750 522 737 536T683 591T606 660T520 714T432 739Q338 739 277 675T215 512T276 350T432 285ZM868 512Q876 502 889 488T942 433T1018 364T1104 310T1192 285Q1286 285 1347 349T1409 512T1348 674T1192 739Q1131
739 1050 683T919 569L868 512Z" />
<glyph unicode="&#x222b;" glyph-name="integral'" horiz-adv-x="970" d="M166 -332Q203 -332 251 -348T319 -365Q364 -365 382 -347T414 -233T428 72Q428 123 426 306T424 641Q424 1149 498 1341T801 1534Q910 1534 909 1450Q909 1415 881 1396T817 1376Q774
1376 723 1393T653 1411Q614 1411 600 1397T576 1304T565 1047Q565 1008 568 847T571 565Q571 352 566 208T545 -62T501 -262T428 -390T322 -464T174 -485Q65 -485 66 -403Q66 -368 95 -350T166 -332Z" />
<glyph unicode="&#x2248;" glyph-name="approxequal" horiz-adv-x="1064" d="M92 586L27 668Q168 809 324 809Q408 809 481 773T618 702T743 666Q870 666 977 780L1040 698Q905 559 743 559Q659 559 587 595T450 666T324 702Q209 703 92 586ZM92 242L27 324Q166
463 324 463Q408 463 481 427T618 355T743 319Q864 319 977 436L1040 354Q903 213 743 213Q659 213 587 249T450 320T324 356Q207 357 92 242Z" />
<glyph unicode="&#x2260;" glyph-name="notequal" horiz-adv-x="1064" d="M70 662V764H625L774 1014L848 967L727 764H993V662H668L492 365H993V262H430L285 16L211 63L328 262H70V365H389L565 662H70Z" />
<glyph unicode="&#x2264;" glyph-name="lessequal" horiz-adv-x="1064" d="M68 657V752L940 1169L967 1063L211 705L967 326L940 221L68 657ZM68 0V100H985V0H68Z" />
<glyph unicode="&#x2265;" glyph-name="greaterequal" horiz-adv-x="1064" d="M125 221L98 326L854 705L98 1063L125 1169L997 752V657L125 221ZM80 0V100H997V0H80Z" />
<glyph unicode="&#x25b2;" glyph-name="triagup" horiz-adv-x="1292" d="M131 301L106 375Q303 611 437 792T606 1035L641 1098H651Q661 1075 689 1029T853 797T1186 375L1161 301Q1046 340 646 340T131 301Z" />
<glyph unicode="&#x25ba;" glyph-name="triagrt" horiz-adv-x="1292" d="M272 188Q311 303 311 703T272 1219L346 1243Q582 1046 763 912T1007 743L1069 709V698Q1046 688 1000 661T768 497T346 164L272 188Z" />
<glyph unicode="&#x25bc;" glyph-name="triagdn" horiz-adv-x="1292" d="M641 301Q631 324 603 370T439 602T106 1024L131 1098Q246 1059 646 1059T1161 1098L1186 1024Q989 788 855 607T686 364L651 301H641Z" />
<glyph unicode="&#x25c4;" glyph-name="triaglf" horiz-adv-x="1292" d="M225 698V709Q248 719 294 746T526 910T948 1243L1022 1219Q983 1104 983 704T1022 188L948 164Q712 361 531 495T288 664L225 698Z" />
<glyph unicode="&#x25ca;" glyph-name="lozenge" horiz-adv-x="1024" d="M506 -78L61 743L506 1542H520L963 743L520 -78H506ZM514 115L842 745L514 1352L182 745L514 115Z" />
<glyph unicode="&#xe012;" glyph-name="uniE012" horiz-adv-x="1064" d="M59 754V842H176Q217 1080 354 1235T705 1391Q746 1391 791 1384T860 1369T945 1343T1030 1315L946 1040H889Q912 1304 686 1305Q522 1305 438 1175T334 842H881L854 754H328V688Q328 629
330 600H805L778 512H338Q391 76 715 76Q785 76 854 95T958 133L993 152L1022 111Q1018 105 1009 96T968 64T900 23T805 -10T682 -25Q465 -25 335 125T172 512H59V600H164Q162 618 162 659Q162 720 166 754H59Z" />
<glyph unicode="&#xe028;" glyph-name="uniE028" horiz-adv-x="1064" d="M580 233H563L553 0H465L475 244Q315 277 230 399T145 682Q145 854 243 987T516 1143L526 1358H614L604 1145Q713 1139 813 1097T913 987Q913 952 892 932T834 911Q787 911 722 984T602
1069L569 389Q614 383 666 383Q813 383 918 479L940 434Q936 426 928 413T889 365T820 303T718 255T580 233ZM291 743Q291 489 483 412L512 1069Q412 1051 352 956T291 743Z" />
<glyph unicode="&#xe02c;" glyph-name="uniE02C" horiz-adv-x="1064" d="M133 223Q133 241 174 391H240Q240 270 298 185T483 84L502 625Q492 631 469 643Q387 690 344 716T245 789T163 888T137 1001Q137 1151 241 1250T526 1358L535 1569H623L614 1358Q680 1356
735 1349T838 1332T903 1321L846 1030H780Q780 1225 612 1268L594 741Q682 694 723 670T825 597T913 496T940 377Q940 205 836 114T567 8L561 -203H473L479 6Q332 12 233 66T133 223ZM297 1049Q297 969 352 909T508 788L524 1282H502Q414 1282 356 1213T297 1049ZM780
319Q780 397 730 457T588 575L569 80Q657 88 718 151T780 319Z" />
<glyph unicode="&#xe033;" glyph-name="uniE033" horiz-adv-x="583" d="M98 -6V51Q157 55 191 88T225 172V803Q225 877 207 899T98 942V983H248L410 991L418 983Q369 917 369 758V172L360 74L520 55L512 6L98 -6Z" />
<glyph unicode="&#xe039;" glyph-name="uniE039" horiz-adv-x="1064" d="M178 707V795H459Q510 1172 598 1327T864 1483Q1020 1483 1020 1395Q1020 1360 998 1340T944 1319Q893 1319 830 1349T737 1380Q714 1380 701 1367T673 1295T643 1121T606 795H905L879 707H596L590
631Q533 96 439 -109T133 -315Q-23 -315 -23 -227Q-23 -192 1 -172T55 -152Q106 -152 169 -182T262 -213Q293 -213 308 -195T345 -89T387 161T440 631Q444 684 449 707H178Z" />
<glyph unicode="&#xe03f;" glyph-name="uniE03F" horiz-adv-x="1064" d="M86 582V670H250Q250 674 251 682T252 694Q258 817 269 908T309 1095T382 1252T503 1352T682 1391Q733 1391 780 1384T870 1351T913 1286Q913 1255 890 1234T834 1212Q803 1212 725 1258T588
1305Q474 1305 435 1140Q415 1056 398 733Q397 712 395 694Q395 690 394 682T393 670H780L770 582H387Q375 422 352 314T311 175L295 145Q528 79 676 80Q897 80 934 242L948 305H1020Q981 -51 694 -51Q614 -51 442 -12T236 27Q170 27 104 0L82 55Q115 71 139 98Q186
151 207 234T246 582H86Z" />
<glyph unicode="&#xe04e;" glyph-name="uniE04E" horiz-adv-x="1462" d="M733 811Q710 838 700 877L608 1235Q598 1274 643 1297T733 1321T821 1298T854 1235L762 877L733 811ZM608 156L700 514Q704 530 712 546T727 571L733 580Q751 553 762 514L854 156Q864
117 821 94T733 70T643 93T608 156ZM834 754Q842 783 872 811L1137 1069Q1160 1092 1187 1083T1237 1053T1274 1010Q1288 985 1295 954T1296 893T1264 858L903 760L834 754ZM205 858Q178 866 170 895T168 954T188 1010Q202 1033 225 1053T275 1083T326 1071L590
811Q604 799 613 785T626 762L629 754Q598 750 559 760L205 858ZM872 580Q858 592 849 606T837 629L834 637Q865 641 903 631L1257 532Q1284 524 1292 496T1294 437T1274 381Q1251 342 1208 318T1137 319L872 580ZM188 381Q174 406 168 436T169 495T203 532L559
631L629 637Q621 608 590 580L326 322Q303 299 276 308T225 337T188 381Z" />
<glyph unicode="&#xe04f;" glyph-name="uniE04F" horiz-adv-x="1380" d="M164 858Q137 866 129 895T127 954T147 1010Q161 1033 184 1053T234 1083T285 1071L541 819Q586 874 655 887L567 1235Q557 1274 602 1297T692 1321T780 1298T813 1235L723 887Q795 875
842 821L1096 1069Q1119 1092 1146 1083T1196 1053T1233 1010Q1247 985 1254 954T1255 893T1223 858L874 762Q886 721 887 696Q887 659 874 627L1217 532Q1244 524 1252 496T1254 437T1233 381Q1210 342 1167 318T1096 319L840 569Q795 514 723 504L813 156Q823
117 780 94T692 70T602 93T567 156L657 504Q585 516 541 571L285 322Q262 299 235 308T185 337T147 381Q133 406 127 436T128 495T162 532L510 629Q498 660 498 696Q498 727 508 762L164 858ZM645 580T692 580T773 613T807 694T773 775T692 809T612 775T578 694T611
614Z" />
<glyph unicode="&#xe050;" glyph-name="uniE050" horiz-adv-x="1867" d="M256 442Q154 442 154 580Q154 727 266 858T551 989Q633 989 710 950T836 867T950 755Q965 739 971 733Q1100 599 1160 560Q1236 510 1309 510Q1397 510 1467 568T1538 727Q1538 766 1524
811T1509 874Q1509 917 1539 943T1612 969Q1714 969 1714 831Q1714 686 1602 554T1317 422Q1233 422 1152 464T1026 548T905 672Q831 752 797 786T694 861T561 901Q471 901 401 843T330 684Q330 647 344 602T358 537Q358 494 329 468T256 442Z" />
<glyph unicode="&#xe051;" glyph-name="uniE051" horiz-adv-x="1867" d="M256 449Q164 449 164 582Q164 727 275 858T553 989Q616 989 673 969T788 904T879 828T973 733Q1045 657 1083 621T1185 547T1309 510Q1397 510 1470 568T1544 727Q1544 766 1530 811T1516
874Q1516 913 1544 938T1612 963Q1704 963 1704 827Q1704 684 1592 553T1313 422Q1231 422 1151 463T1023 549T903 672Q844 735 821 758T747 825T653 884T561 901Q471 901 398 843T324 684Q324 647 338 602T352 537Q352 498 324 474T256 449ZM764 1202Q725 1202
701 1231T676 1298Q676 1390 811 1391Q952 1391 1084 1280T1217 1004Q1217 981 1204 968T1171 954Q1128 954 1128 1004Q1124 1090 1066 1160T911 1231Q872 1231 827 1217T764 1202ZM649 412Q649 430 661 443T692 457T724 444T737 412Q737 324 795 251T954 178Q991
178 1036 192T1102 207Q1141 207 1165 179T1190 111Q1190 19 1057 18Q912 18 781 131T649 412Z" />
<glyph unicode="&#xe052;" glyph-name="uniE052" horiz-adv-x="1462" d="M547 530Q547 548 559 561T589 575T621 562T635 530Q635 442 693 370T852 297Q889 297 934 311T999 326Q1038 326 1062 297T1087 229Q1087 137 954 137Q809 137 678 249T547 530ZM463 1083Q424
1083 400 1112T375 1180Q375 1272 508 1272Q653 1272 784 1160T915 879Q915 861 903 848T873 834T841 847T827 879Q827 967 769 1039T610 1112Q573 1112 528 1098T463 1083ZM860 545T860 563T873 595T905 608Q993 608 1066 666T1139 825Q1139 864 1125 909T1110
973Q1110 1012 1138 1036T1206 1061Q1298 1061 1298 928Q1298 783 1186 652T905 520Q887 520 874 532ZM256 348Q164 348 164 481Q164 626 276 757T557 889Q575 889 588 877T602 846T589 814T557 801Q469 801 397 743T324 584Q324 545 338 500T352 436Q352 397 324
373T256 348Z" />
<glyph unicode="&#xe053;" glyph-name="uniE053" horiz-adv-x="1699" d="M143 389T143 682T350 1182T850 1389T1349 1182T1556 682T1350 182T850 -25T350 182ZM238 940T238 682T415 242T850 59T1285 241T1462 682T1285 1122T850 1305T415 1123ZM666 621Q666 639
678 652T708 666T740 653T754 621Q754 533 812 460T971 387Q1008 387 1053 401T1118 416Q1157 416 1181 387T1206 319Q1206 227 1073 227Q928 227 797 340T666 621ZM582 948Q543 948 519 977T494 1044Q494 1136 627 1137Q772 1137 903 1024T1034 743Q1034 725 1022
712T992 698T960 711T946 743Q946 831 888 904T729 977Q692 977 647 963T582 948ZM866 522T866 540T879 572T911 586Q999 586 1072 644T1145 803Q1145 840 1131 885T1116 950Q1116 989 1145 1013T1212 1038Q1304 1038 1305 905Q1305 760 1192 629T911 498Q893 498
880 510ZM487 326Q395 326 395 459Q395 604 508 735T788 866Q806 866 820 854T834 824T821 792T788 778Q700 778 628 720T555 561Q555 524 569 479T584 414Q584 375 555 351T487 326Z" />
<glyph unicode="&#xe054;" glyph-name="uniE054" horiz-adv-x="1699" d="M143 389T143 682T350 1182T850 1389T1349 1182T1556 682T1350 182T850 -25T350 182ZM238 940T238 682T415 242T850 59T1285 241T1462 682T1285 1122T850 1305T415 1123ZM848 768Q832 786
825 815L758 1079Q750 1108 781 1124T848 1141T913 1125T938 1079L870 815Q868 803 862 791T852 773L848 768ZM758 285L825 549Q827 561 833 573T844 591L848 596Q864 578 870 549L938 285Q944 256 914 240T848 223T783 239T758 285ZM461 801Q432 811 432 847T449
911Q465 942 493 959T551 958L743 768Q753 760 760 749T771 731L774 725Q751 721 721 729L461 801ZM922 639Q945 643 975 635L1235 563Q1255 557 1260 536T1262 492T1247 453Q1231 422 1203 405T1145 406L952 596Q942 604 935 615T925 633L922 639ZM449 453Q433
482 432 515T459 563L721 635L774 639Q766 616 743 596L551 408Q522 390 494 406T449 453ZM922 725Q930 748 952 768L1145 956Q1174 974 1202 958T1247 911Q1257 895 1261 873T1261 829T1237 801L975 729L922 725Z" />
<glyph unicode="&#xe06a;" glyph-name="uniE06A" horiz-adv-x="1064" d="M182 616V705H440L139 1237Q123 1268 98 1288T54 1314L37 1319V1366H133L301 1374L309 1366Q278 1309 313 1241L502 879Q527 828 553 758L799 1204Q822 1251 801 1281T725 1319V1366H1008L1016
1337Q955 1306 913 1235L610 705H913V616H606V487H913V397H606V188L596 78L782 59L774 6L307 -6V55Q379 63 419 98T459 188V397H182V487H459V616H182Z" />
<glyph unicode="&#xe087;" glyph-name="uniE087" horiz-adv-x="1585" d="M84 442Q84 643 197 792T504 942Q520 942 565 938Q549 983 549 1038Q549 1181 658 1283T924 1386Q1069 1386 1145 1296T1221 1067L1212 918H1540L1526 829H1231L1212 809V266Q1212 174 1246
129T1360 84Q1401 84 1448 94T1522 115L1548 125L1573 92Q1561 80 1539 61T1443 8T1296 -25Q1077 -25 1077 244V690L1083 823H946V874Q1130 919 1130 1090Q1130 1203 1067 1258T911 1313Q800 1313 717 1232T633 1038Q633 985 651 924Q825 877 825 791Q825 764 807
745T756 725Q715 725 679 764T599 842T496 881Q371 881 298 768T225 492Q225 416 244 349T303 223T411 130T571 96Q641 96 700 117T783 162L807 184L829 147Q825 141 818 129T784 87T723 35T634 -6T514 -25Q309 -25 197 113T84 442Z" />
<glyph unicode="&#xe308;" glyph-name="uniE308" horiz-adv-x="1685" d="M100 123Q100 141 137 268H199Q199 43 416 43Q496 43 549 77T602 184Q602 254 552 309T431 405T289 489T167 598T117 745Q117 860 208 934T465 1008Q512 1008 568 1002T670 988T721 981L672
748H610Q630 943 440 942Q360 942 310 905T260 799T310 675T431 581T572 499T693 391T743 238Q743 113 645 44T403 -25Q284 -25 192 13T100 123ZM946 123Q946 141 983 268H1044Q1044 43 1262 43Q1342 43 1395 77T1448 184Q1448 254 1398 309T1276 405T1134 489T1013
598T963 745Q963 860 1054 934T1311 1008Q1358 1008 1414 1002T1515 988T1567 981L1518 748H1456Q1474 943 1286 942Q1206 942 1156 905T1106 799T1156 675T1277 581T1418 499T1539 391T1589 238Q1589 113 1491 44T1249 -25Q1130 -25 1038 13T946 123Z" />
<glyph unicode="&#xe30b;" glyph-name="uniE30B" horiz-adv-x="1058" d="M444 -135L469 -88H592Q643 -162 643 -242T584 -388T453 -494L414 -436Q529 -368 528 -299Q528 -237 444 -135ZM324 -6V51Q381 55 415 88T449 168V918H313Q231 918 187 882T100 735H39L86
991Q127 983 188 983H913L1024 991L979 735H920Q924 846 886 882T754 918H616L598 897V168L588 72L764 55L758 4L324 -6Z" />
<glyph unicode="&#xe351;" glyph-name="uniE351" horiz-adv-x="937" d="M104 606V651Q167 657 188 711L444 1323L504 1339L741 754Q755 717 766 696T792 665T812 654T838 649L831 606H770L578 602V655Q607 655 623 665T629 700L578 831H328L309 817L307 821L246
668L348 651L342 606H104ZM412 1075L336 889H555L481 1075L449 1180H444Q428 1116 412 1075Z" />
<glyph unicode="&#xe352;" glyph-name="uniE352" horiz-adv-x="974" d="M473 592Q301 592 197 700T92 961Q92 1115 201 1231T500 1348Q674 1348 779 1247T885 993Q885 833 769 713T473 592ZM494 649Q613 649 685 746T758 969Q758 1092 681 1189T479 1286Q360 1286
290 1198T219 987Q219 854 294 752T494 649Z" />
<glyph unicode="&#xe361;" glyph-name="uniE361" horiz-adv-x="677" d="M205 592Q129 592 89 634T49 733Q49 829 152 892T406 973V1038Q406 1218 319 1219Q280 1219 244 1184T189 1114L172 1079H119L96 1192Q198 1270 352 1270Q452 1270 489 1225T526 1063V733Q526
672 551 672Q565 672 586 682T623 701L637 711L664 674Q590 592 512 592Q412 592 412 717Q402 703 385 683T314 627T205 592ZM244 668Q277 668 316 692T381 740L406 764V924Q318 914 249 870T180 758Q180 715 198 692T244 668Z" />
<glyph unicode="&#xe362;" glyph-name="uniE362" horiz-adv-x="761" d="M111 606L104 612Q116 716 117 760V1403Q117 1460 109 1474T66 1489H14V1530Q77 1544 135 1561T218 1589L244 1599L250 1593Q238 1527 238 1432V1186Q246 1196 260 1209T325 1246T432 1270Q553
1270 626 1177T700 958Q700 813 603 703T336 592Q324 592 242 599T111 606ZM238 666Q287 648 344 647Q444 647 507 721T571 918Q571 1029 521 1110T385 1192Q352 1192 316 1180T258 1155L238 1143V666Z" />
<glyph unicode="&#xe363;" glyph-name="uniE363" horiz-adv-x="663" d="M356 592Q219 592 140 691T61 924Q61 1063 143 1166T373 1270Q447 1270 524 1241T602 1163Q602 1138 586 1124T545 1110Q510 1110 455 1163T350 1217Q276 1217 229 1138T182 954Q182 843
237 763T397 682Q450 682 496 700T561 737L580 756L602 717Q594 703 576 683T494 627T356 592Z" />
<glyph unicode="&#xe364;" glyph-name="uniE364" horiz-adv-x="800" d="M328 592Q205 592 133 688T61 911Q61 1054 157 1162T436 1270L532 1266V1403Q532 1460 524 1474T481 1489H430V1530Q493 1544 550 1561T634 1589L659 1599L666 1593Q652 1527 651 1432V745Q651
718 655 702T670 679T691 671T719 670H776L772 627L539 594L532 600Q538 637 539 709Q461 592 328 592ZM377 670Q418 670 457 690T514 731L532 752V1145Q532 1217 428 1217Q326 1217 258 1145T190 944Q190 831 242 751T377 670Z" />
<glyph unicode="&#xe365;" glyph-name="uniE365" horiz-adv-x="679" d="M352 592Q211 592 136 687T61 918Q61 1065 148 1167T362 1270Q462 1270 539 1208T618 1036Q583 1020 555 1016L193 965L178 946Q182 833 236 758T399 682Q450 682 499 703T572 748L596 770L618
729Q608 713 589 691T501 630T352 592ZM184 1024L479 1063Q479 1069 476 1079T464 1116T442 1162T403 1198T346 1214Q280 1214 239 1160T184 1024Z" />
<glyph unicode="&#xe366;" glyph-name="uniE366" horiz-adv-x="491" d="M63 604V647Q151 661 152 741V1180H61V1219L152 1255V1268Q152 1413 226 1501T436 1589Q499 1589 546 1569T594 1507Q594 1450 539 1450Q514 1450 462 1483T367 1516Q318 1516 295 1467T272
1307V1255H475L465 1184H285L272 1169V741L266 668L412 653L406 612L63 604Z" />
<glyph unicode="&#xe367;" glyph-name="uniE367" horiz-adv-x="718" d="M305 272Q192 272 114 317T35 449Q35 523 90 567T207 631Q98 662 98 719Q98 725 99 732T105 745T114 756T126 766T140 776T157 787T177 799T200 811T225 823Q61 878 61 1038Q61 1144 138
1207T332 1270Q379 1270 433 1257T512 1243H578Q598 1243 625 1248T671 1260L688 1266L674 1167H549Q602 1112 602 1028Q602 932 521 871T328 809Q293 809 262 815Q233 782 233 762Q233 735 303 716T455 683T606 625T676 510Q676 408 561 340T305 272ZM543 471Q543
491 535 508T507 539T470 562T420 580T367 595T308 607T252 618Q156 544 156 461Q156 398 206 363T324 328Q406 328 474 370T543 471ZM262 864T334 864T440 912T475 1030Q475 1104 435 1161T326 1219Q258 1219 223 1167T188 1042Q188 968 225 916Z" />
<glyph unicode="&#xe368;" glyph-name="uniE368" horiz-adv-x="829" d="M49 604V647Q139 661 139 741V1403Q139 1460 131 1474T88 1489H39V1530Q102 1544 159 1561T243 1589L268 1599L274 1593Q260 1527 260 1432V1145Q272 1159 294 1179T386 1235T522 1270Q690
1270 690 1075V741L684 668L807 653L803 612L483 604V647Q571 661 571 741V1049Q571 1192 481 1192Q360 1192 260 1096V741L254 668L377 653L373 612L49 604Z" />
<glyph unicode="&#xe369;" glyph-name="uniE369" horiz-adv-x="421" d="M61 604V647Q153 661 154 741V1087Q154 1138 147 1160T111 1182H45V1223Q267 1282 281 1296L287 1290Q275 1290 274 1120V741L268 668L391 653L385 612L61 604ZM203 1434Q168 1434 145 1457T121
1516Q121 1545 145 1568T203 1591Q234 1591 257 1568T281 1516Q281 1481 258 1458T203 1434Z" />
<glyph unicode="&#xe36a;" glyph-name="uniE36A" horiz-adv-x="382" d="M12 272L-8 311Q51 317 98 395T145 575V1096Q145 1147 137 1168T102 1190H35V1231Q259 1292 272 1305L279 1298Q269 1298 264 1128V643Q264 469 200 371T12 272ZM197 1434Q162 1434 139 1457T115
1516Q115 1545 139 1568T197 1591Q228 1591 251 1568T274 1516Q274 1481 251 1458T197 1434Z" />
<glyph unicode="&#xe36b;" glyph-name="uniE36B" horiz-adv-x="751" d="M51 604V647Q139 661 139 741V1403Q139 1460 131 1474T88 1489H37V1530Q100 1544 157 1561T241 1589L266 1599L272 1593Q260 1527 260 1432V1006H285L430 1133Q493 1186 414 1214V1255H684L694
1227Q610 1204 539 1143L385 1010V993L598 743Q651 682 675 669T745 657L741 608L551 604Q522 651 481 705L281 944H260V741L254 668L371 653L365 612L51 604Z" />
<glyph unicode="&#xe36c;" glyph-name="uniE36C" horiz-adv-x="409" d="M49 604V647Q139 661 139 741V1403Q139 1460 131 1474T88 1489H37V1530Q100 1544 157 1561T241 1589L266 1599L272 1593Q260 1527 260 1432V741L254 668L377 653L373 612L49 604Z" />
<glyph unicode="&#xe36d;" glyph-name="uniE36D" horiz-adv-x="1228" d="M63 604V647Q153 661 154 741V1087Q154 1122 152 1139T141 1169T113 1182H45V1223L276 1296L283 1290Q271 1282 270 1141Q282 1155 306 1176T395 1234T520 1270Q659 1270 672 1133Q774 1270
924 1270Q1090 1270 1090 1075V741L1083 668L1204 653L1200 612L881 604V649Q932 655 950 677T969 741V1049Q969 1129 947 1160T879 1192Q824 1192 752 1147T680 1047V741L674 668L801 651L795 612L469 604V649Q522 655 541 677T561 741V1049Q561 1192 487 1192Q381
1192 274 1096V741L268 668L395 651L389 612L63 604Z" />
<glyph unicode="&#xe36e;" glyph-name="uniE36E" horiz-adv-x="778" d="M375 592Q225 592 143 683T61 915Q61 1058 144 1164T399 1270Q553 1270 635 1182T717 958Q717 811 627 702T375 592ZM393 647Q477 647 528 720T580 911Q582 1034 532 1125T381 1217Q287 1217
241 1139T195 950Q195 829 245 738T393 647Z" />
<glyph unicode="&#xe36f;" glyph-name="uniE36F" horiz-adv-x="786" d="M66 274V324Q111 349 125 375T139 457V1085Q139 1181 111 1182H39V1223L266 1296L272 1290Q270 1284 268 1273T264 1229T262 1165Q280 1198 332 1234T453 1270Q586 1270 655 1177T725 956Q725
806 628 699T348 592L258 598V455L252 377H401L399 332Q187 315 66 274ZM358 645Q469 645 532 718T596 918Q596 1035 550 1113T416 1192Q377 1192 337 1172T278 1129L258 1108V723Q258 645 358 645Z" />
<glyph unicode="&#xe370;" glyph-name="uniE370" horiz-adv-x="763" d="M440 274V319Q489 350 509 379T530 459V672Q452 592 338 592Q213 592 137 685T61 905Q61 1055 161 1162T438 1270Q487 1270 559 1263T653 1255L659 1249Q647 1192 647 1104V451L641 375H750L748
332Q664 322 587 308T475 284L440 274ZM379 670Q412 670 449 681T509 705L530 717V1196Q473 1214 426 1214Q328 1214 259 1140T190 942Q190 831 241 751T379 670Z" />
<glyph unicode="&#xe371;" glyph-name="uniE371" horiz-adv-x="538" d="M59 604V647Q153 661 154 741V1087Q154 1138 147 1160T111 1182H45V1223Q111 1239 168 1257T250 1286L274 1296L281 1290Q271 1282 268 1141Q305 1194 358 1232T457 1270Q486 1270 506 1254T526
1204Q526 1175 507 1159T459 1143Q441 1143 424 1153T391 1163Q371 1163 341 1147T293 1114L274 1098V741L268 666L406 655L399 612L59 604Z" />
<glyph unicode="&#xe372;" glyph-name="uniE372" horiz-adv-x="579" d="M287 592Q211 592 136 612T61 684L84 801H135Q147 719 194 681T297 643Q346 643 379 671T412 739Q412 780 377 813T293 870T195 921T111 991T76 1092Q76 1172 137 1221T319 1270Q360 1270
405 1264T476 1251L502 1245L473 1098H422Q414 1221 287 1221Q236 1221 211 1192T186 1126Q186 1079 237 1044T351 985T465 908T516 778Q516 690 455 641T287 592Z" />
<glyph unicode="&#xe373;" glyph-name="uniE373" horiz-adv-x="546" d="M299 592Q135 592 135 782V1092L139 1180H43V1223Q100 1237 133 1260L190 1421L264 1423L270 1417Q254 1366 254 1268V1255H485L475 1184H268L254 1169V799Q254 676 344 676Q373 676 407
684T463 699L483 707L502 678Q494 668 478 654T408 616T299 592Z" />
<glyph unicode="&#xe374;" glyph-name="uniE374" horiz-adv-x="827" d="M299 592Q133 592 133 786V1090Q133 1125 131 1141T119 1169T88 1182H41V1223L260 1282L266 1276Q252 1258 252 1120V809Q252 670 338 670Q453 670 557 774V1090Q557 1141 550 1161T514 1182H463V1223L686
1282L692 1276Q678 1258 678 1120V745Q678 718 682 702T697 679T717 671T743 670H799L795 627L553 594L545 600Q563 647 563 682V729Q453 592 299 592Z" />
<glyph unicode="&#xe375;" glyph-name="uniE375" horiz-adv-x="659" d="M281 608L78 1133Q66 1166 48 1186T16 1210L4 1214V1255H80L211 1260L219 1251Q194 1196 221 1122L352 750L514 1112Q545 1186 444 1214V1255H649L655 1229Q635 1221 602 1151L354 586L281 608Z" />
<glyph unicode="&#xe376;" glyph-name="uniE376" horiz-adv-x="1042" d="M281 608L80 1133Q68 1166 49 1186T15 1210L2 1214V1255H82L207 1260L215 1251Q192 1190 219 1122L348 776L475 1075Q491 1122 483 1147Q469 1186 406 1214V1255H489L612 1260L621 1251Q594
1188 621 1122L752 772L893 1116Q924 1188 825 1214V1255H1028L1036 1229Q1016 1225 981 1151L745 586L682 608L528 1018L344 586L281 608Z" />
<glyph unicode="&#xe377;" glyph-name="uniE377" horiz-adv-x="710" d="M408 604V655Q424 655 432 656T454 661T466 674T457 698L338 870L178 668L289 653L283 612L25 604V649Q82 655 123 709L297 928L152 1135Q132 1168 104 1187T58 1209L41 1212V1255H125L260
1264L268 1255Q248 1204 285 1151L373 1018L477 1149Q512 1198 420 1214V1255H662L670 1227Q617 1221 565 1155L414 958L623 659L692 651L688 612L408 604Z" />
<glyph unicode="&#xe378;" glyph-name="uniE378" horiz-adv-x="659" d="M98 272Q39 272 39 329T111 387Q191 387 231 485L291 616L78 1133Q66 1164 48 1184T15 1209L2 1214V1255H80L211 1262L221 1251Q201 1179 221 1122L354 766L512 1116Q541 1182 434 1214V1255H647L657
1229Q624 1217 598 1151L326 535Q299 476 287 450T243 372T175 296T98 272Z" />
<glyph unicode="&#xe379;" glyph-name="uniE379" horiz-adv-x="653" d="M68 598L55 639Q69 653 106 711L428 1198H250Q207 1198 173 1169T128 1110L117 1081H63L88 1255H457L571 1264L582 1219Q557 1190 526 1143L213 666H381Q416 666 445 680T492 713T522 753T540
788L545 803H600L559 606H174L68 598Z" />
<glyph unicode="&#xe37a;" glyph-name="uniE37A" horiz-adv-x="679" d="M352 592Q211 592 136 687T61 918Q61 1065 148 1167T362 1270Q462 1270 539 1208T618 1036Q583 1020 555 1016L193 965L178 946Q182 833 236 758T399 682Q450 682 499 703T572 748L596 770L618
729Q608 713 589 691T501 630T352 592ZM184 1024L479 1063Q479 1069 476 1079T464 1116T442 1162T403 1198T346 1214Q280 1214 239 1160T184 1024ZM188 1462V1501L236 1575H244L526 1407L508 1358L188 1462Z" />
<glyph unicode="&#xe37b;" glyph-name="uniE37B" horiz-adv-x="1120" d="M84 313Q84 354 92 391T122 463T161 521T217 577T273 624T340 675T403 721L408 723Q269 971 268 1110Q268 1223 353 1307T582 1391Q715 1391 789 1322T864 1139Q864 1053 816 974T717 850T569
735Q702 502 893 271T1298 -126T1659 -291Q1708 -291 1757 -262L1778 -303Q1694 -385 1587 -385Q1433 -385 1212 -219T790 182T444 659Q381 606 342 567T271 468T238 344Q238 235 317 152T508 68Q549 68 594 78T664 98L688 109L709 66Q586 -24 440 -25Q305 -25
195 68T84 313ZM416 1147Q416 1020 532 803Q704 946 705 1104Q705 1182 666 1252T555 1323Q492 1323 454 1276T416 1147Z" />
<glyph unicode="&#xe381;" glyph-name="uniE381" horiz-adv-x="1669" d="M78 -6V49Q209 63 209 182V823H78V874L209 920V973Q209 1211 318 1348T639 1485Q731 1485 795 1460L934 1507L940 1501Q920 1425 920 1268V924Q920 818 911 784Q950 829 979 857T1071 913T1208
942Q1386 942 1486 810T1587 496Q1587 285 1453 130T1073 -25Q1014 -25 909 -13T772 0L766 6Q784 86 784 211V1227Q784 1280 782 1298Q766 1302 690 1348T537 1395Q439 1395 392 1311T344 1032V918H610L596 829H362L344 809V182L334 72L557 53L549 6L78 -6ZM920
76Q992 45 1085 45Q1243 45 1342 151T1442 438Q1442 602 1363 721T1149 840Q1075 840 1008 808T920 748V76Z" />
<glyph unicode="&#xe382;" glyph-name="uniE382" horiz-adv-x="2242" d="M651 -6V49Q782 63 782 182V827H362L344 809V182L334 72L510 53L502 6L78 -6V49Q209 63 209 182V823H78V874L209 920V915Q209 1155 330 1295T670 1436Q742 1436 806 1415T899 1358Q1014
1485 1212 1485Q1296 1485 1364 1460L1505 1507L1511 1501Q1491 1425 1491 1268V924Q1491 818 1483 784Q1524 831 1551 857T1643 912T1782 942Q1958 942 2059 810T2161 496Q2161 285 2026 130T1647 -25Q1588 -25 1481 -13T1346 0L1339 6Q1355 112 1356 211V1227Q1356
1278 1354 1298Q1329 1304 1293 1329T1212 1374T1110 1395Q1012 1395 965 1311T918 1032V918H1184L1167 829H936L918 809V182L907 72L1130 53L1122 6L651 -6ZM1491 76Q1565 45 1659 45Q1817 45 1916 151T2015 438Q2015 602 1937 721T1722 840Q1648 840 1581 808T1491
748V76ZM344 979V913H782V973Q782 1123 829 1239Q806 1245 728 1295T578 1346Q461 1346 403 1261T344 979Z" />
<glyph unicode="&#xe383;" glyph-name="uniE383" horiz-adv-x="2301" d="M651 -6V49Q782 63 782 182V827H362L344 809V182L334 72L510 53L502 6L78 -6V49Q209 63 209 182V823H78V874L209 920Q209 1158 330 1297T670 1436Q742 1436 806 1415T899 1358Q1014 1485
1212 1485Q1296 1485 1364 1460L1505 1507L1511 1501Q1491 1425 1491 1268V856Q1491 815 1489 784T1485 736T1483 715Q1546 809 1653 875T1882 942Q2113 942 2114 666V182L2103 72L2279 53L2271 6L1839 -6V49Q1978 63 1978 182V633Q1978 838 1827 838Q1751 838
1657 792T1491 676V182L1481 72L1671 53L1663 6L1227 -6V49Q1356 63 1356 182V1227Q1356 1278 1354 1298Q1329 1304 1293 1329T1212 1374T1110 1395Q1012 1395 965 1311T918 1032V918H1184L1167 829H936L918 809V182L907 72L1081 53L1073 6L651 -6ZM344 979V913H770L782
918V973Q782 1123 829 1239Q806 1245 728 1295T578 1346Q461 1346 403 1261T344 979Z" />
<glyph unicode="&#xe384;" glyph-name="uniE384" horiz-adv-x="1644" d="M651 -6V49Q782 63 782 182V827H362L344 809V182L334 72L510 53L502 6L78 -6V49Q209 63 209 182V823H78V874L209 920Q209 1158 330 1297T670 1436Q746 1436 811 1415T903 1354Q1018 1485
1210 1485Q1300 1485 1367 1454T1434 1372Q1434 1345 1414 1325T1356 1305Q1323 1305 1253 1348T1120 1391Q1018 1391 968 1308T918 1032V913H1208Q1409 913 1513 971V965Q1488 910 1489 743V43Q1489 -203 1404 -344T1163 -485L1139 -440Q1223 -428 1288 -317T1354
-53V686Q1354 737 1352 762T1338 807T1300 827H936L918 809V182L907 72L1122 53L1114 6L651 -6ZM344 979V913H782V977Q782 1129 831 1239Q808 1245 729 1295T578 1346Q461 1346 403 1261T344 979Z" />
<glyph unicode="&#xe385;" glyph-name="uniE385" horiz-adv-x="2201" d="M651 -6V49Q782 63 782 182V827H362L344 809V182L334 72L510 53L502 6L78 -6V49Q209 63 209 182V823H78V874L209 920V915Q209 1155 330 1295T670 1436Q742 1436 806 1415T899 1358Q1014
1485 1212 1485Q1296 1485 1364 1460L1505 1507L1511 1501Q1491 1425 1491 1268V545H1513L1722 717Q1726 721 1740 733T1762 752T1779 772T1795 795T1800 817Q1800 852 1733 870V918H2099L2109 885Q1998 860 1894 772L1640 559V541Q1660 514 1675 500L1987 184Q2063
104 2092 85T2183 59L2206 57L2198 0L1929 -6Q1902 70 1839 135L1513 483H1491V182L1481 72L1653 53L1645 6L1227 -6V49Q1356 63 1356 182V1227Q1356 1278 1354 1298Q1329 1304 1293 1329T1212 1374T1110 1395Q1012 1395 965 1311T918 1032V918H1184L1167 829H936L918
809V182L907 72L1081 53L1073 6L651 -6ZM344 979V913H770L782 918V973Q782 1123 829 1239Q806 1245 728 1295T578 1346Q461 1346 403 1261T344 979Z" />
<glyph unicode="&#xe386;" glyph-name="uniE386" horiz-adv-x="1728" d="M653 -6V49Q784 63 784 182V1227Q784 1278 782 1298Q764 1302 689 1348T537 1395Q439 1395 392 1311T344 1032V918H610L596 829H362L344 809V182L334 72L510 53L502 6L78 -6V49Q209 63 209
182V823H78V874L209 920V973Q209 1211 318 1348T639 1485Q723 1485 791 1460L934 1507L940 1501Q920 1425 920 1268V856Q920 815 918 784T913 736T911 715Q972 807 1080 874T1311 942Q1540 942 1540 666V182L1530 72L1708 53L1700 6L1266 -6V49Q1405 63 1405 182V633Q1405
838 1255 838Q1177 838 1083 792T920 676V182L909 72L1098 53L1090 6L653 -6Z" />
<glyph unicode="&#xe388;" glyph-name="uniE388" horiz-adv-x="1628" d="M653 -6V49Q784 63 784 182V1227Q784 1278 782 1298Q764 1302 689 1348T537 1395Q439 1395 392 1311T344 1032V918H610L596 829H362L344 809V182L334 72L510 53L502 6L78 -6V49Q209 63 209
182V823H78V874L209 920V973Q209 1211 318 1348T639 1485Q723 1485 791 1460L934 1507L940 1501Q920 1425 920 1268V545H940L1149 717Q1153 721 1172 737T1201 763T1219 787T1229 817Q1229 852 1159 870V918H1526L1536 885Q1427 860 1321 772L1069 559V541Q1087
514 1104 500L1415 184Q1491 104 1519 85T1610 59L1632 57L1624 0L1356 -6Q1329 70 1268 135L940 483H920V182L909 72L1079 53L1071 6L653 -6Z" />
<glyph unicode="&#xe441;" glyph-name="uniE441" horiz-adv-x="583" d="M315 1026L391 25Q309 0 260 -17T202 -40L193 -45L188 -43Q208 18 217 172L272 1026H315ZM408 1327T408 1280T376 1201T297 1169Q252 1169 219 1202T186 1280T219 1358T297 1391Q344 1391 376 1359Z" />
<glyph unicode="&#xe444;" glyph-name="uniE444" horiz-adv-x="733" d="M496 1026Q506 979 506 928Q506 828 463 737T368 591T272 479T229 381Q229 315 329 242T529 127L629 86L604 -63Q584 -55 548 -42T422 15T263 105T137 217T80 346Q80 391 118 443T211 551T321
669T415 826T453 1026H496ZM575 1327T575 1280T544 1201T465 1169Q420 1169 387 1202T354 1280T387 1358T465 1391Q512 1391 543 1359Z" />
<glyph unicode="&#xe451;" glyph-name="uniE451" horiz-adv-x="1054" d="M508 252Q146 623 70 678V686Q99 706 119 723T232 833T508 1112L561 1092L287 682L561 272L508 252ZM465 678V686Q494 706 514 723T628 833T903 1112L956 1092L682 682L956 272L903 252Q541
623 465 678Z" />
<glyph unicode="&#xe452;" glyph-name="uniE452" horiz-adv-x="1056" d="M496 272L770 682L496 1092L549 1112Q731 926 824 834T938 724T987 686V678Q911 623 549 252L496 272ZM100 272L375 682L100 1092L154 1112Q336 926 429 834T542 724T592 686V678Q516 623
154 252L100 272Z" />
<glyph unicode="&#xe453;" glyph-name="uniE453" horiz-adv-x="667" d="M516 252Q141 627 68 678V686Q148 741 516 1112L569 1092L295 682L569 272L516 252Z" />
<glyph unicode="&#xe454;" glyph-name="uniE454" horiz-adv-x="669" d="M100 272L375 682L100 1092L154 1112Q525 741 602 686V678Q528 627 154 252L100 272Z" />
<glyph unicode="&#xe459;" glyph-name="uniE459" horiz-adv-x="716" d="M283 20Q283 304 252 425Q193 655 12 659V727Q67 729 112 752T185 808T232 896T262 995T277 1110T283 1216T283 1317Q283 1337 283 1346Q283 1512 394 1592T692 1673L702 1604Q516 1592 464
1516T412 1237Q412 784 184 696V692Q278 655 345 521T412 129Q412 -74 464 -148T702 -238L692 -307Q283 -308 283 20Z" />
<glyph unicode="&#xe461;" glyph-name="uniE461" horiz-adv-x="679" d="M-61 -199L621 1569H741L61 -199H-61Z" />
<glyph unicode="&#xe462;" glyph-name="uniE462" horiz-adv-x="679" d="M618 -199L-61 1569H59L741 -199H618Z" />
<glyph unicode="&#xe463;" glyph-name="uniE463" horiz-adv-x="475" d="M180 -315V1679H295V-315H180Z" />
<glyph unicode="&#xe467;" glyph-name="uniE467" horiz-adv-x="704" d="M-25 -328L594 1274H715L98 -328H-25Z" />
<glyph unicode="&#xe468;" glyph-name="uniE468" horiz-adv-x="706" d="M610 -328L-10 1274H111L733 -328H610Z" />
<glyph unicode="&#xe469;" glyph-name="uniE469" horiz-adv-x="483" d="M182 -307V1296H301V-307H182Z" />
<glyph unicode="&#xe482;" glyph-name="uniE482" horiz-adv-x="712" d="M125 616V741H588V616H125Z" />
<glyph unicode="&#xe484;" glyph-name="uniE484" horiz-adv-x="1101" d="M131 633V733H971V633H131Z" />
<glyph unicode="&#xe486;" glyph-name="uniE486" horiz-adv-x="1900" d="M131 633V733H1769V633H131Z" />
<glyph unicode="&#xe491;" glyph-name="uniE491" horiz-adv-x="577" d="M102 713Q102 865 135 1007T214 1244T306 1414T385 1524L418 1559L483 1536Q473 1522 457 1498T398 1388T324 1214T265 987T238 713Q238 563 267 417T340 170T426 -9T499 -126L528 -164L469
-190Q455 -176 431 -151T343 -38T231 146T142 398T102 713Z" />
<glyph unicode="&#xe492;" glyph-name="uniE492" horiz-adv-x="579" d="M49 -164Q61 -150 80 -124T151 -10T242 173T312 415T344 713Q344 850 319 985T256 1216T182 1388T120 1502L94 1540L160 1559Q172 1547 193 1523T270 1416T368 1242T444 1008T479 713Q479
553 441 401T349 146T240 -36T146 -153L109 -190L49 -164Z" />
<glyph unicode="&#xe493;" glyph-name="uniE493" horiz-adv-x="591" d="M184 -160V1520H547V1436H301V-74H547V-160H184Z" />
<glyph unicode="&#xe494;" glyph-name="uniE494" horiz-adv-x="591" d="M45 -74H291V1436H45V1520H408V-160H45V-74Z" />
<glyph unicode="&#xe496;" glyph-name="uniE496" horiz-adv-x="716" d="M305 129Q305 387 371 521T532 692V696Q305 784 305 1237Q305 1341 296 1399T257 1506T169 1575T12 1604L23 1673Q209 1673 321 1592T434 1346Q434 1071 464 956Q522 731 705 727V659Q650
657 605 633T532 576T485 484T455 380T439 261T434 152T434 49Q434 29 434 20Q434 -308 23 -307L12 -238Q200 -224 252 -149T305 129Z" />
<glyph unicode="&#xe515;" glyph-name="uniE515" horiz-adv-x="1146" d="M571 59Q706 59 792 190T879 492Q879 650 792 774T573 899Q440 899 354 773T268 487Q268 319 354 189T571 59ZM125 465Q125 678 247 830T590 983Q795 983 908 843T1022 508Q1022 293 899
134T557 -25Q354 -25 240 121T125 465ZM461 432T461 477T493 555T571 588T649 555T682 477T649 400T571 367T494 399Z" />
<glyph unicode="&#xe529;" glyph-name="uniE529" horiz-adv-x="1056" d="M45 401L29 487L670 1358L768 1391L774 1384Q764 1318 764 1161V512H993L965 401H764V188L754 78L942 59L934 6L465 -6V55Q537 63 576 98T616 188V401H45ZM616 512V1038Q616 1093 625 1171L145
512H616Z" />
<glyph unicode="&#xe530;" glyph-name="uniE530" horiz-adv-x="1064" d="M258 47T530 47T803 686Q803 1319 532 1319Q258 1319 258 688Q258 47 530 47ZM516 -25Q371 -25 272 75T131 324T90 655Q90 845 136 1007T288 1280T547 1391Q692 1391 791 1292T931 1047T971
721Q971 528 925 365T774 88T516 -25ZM575 569T530 569T453 602T420 680T452 758T530 791T608 758T641 680T608 602Z" />
<glyph unicode="&#xe531;" glyph-name="uniE531" horiz-adv-x="1607" d="M737 311Q838 311 945 417L962 437L961 436V1071Q945 1071 918 1067T822 1037T699 966T602 828T559 608Q559 454 612 383T737 311ZM80 598Q80 936 317 1187T887 1438Q1174 1438 1365 1249T1556
774Q1556 573 1454 416T1139 225L956 195L952 203Q968 262 969 313V397Q922 305 846 251T686 197Q569 197 493 297T416 559Q416 801 577 975T958 1149Q1060 1149 1124 1133Q1095 1033 1096 950V401Q1096 350 1114 328T1174 305Q1213 305 1252 322T1336 381T1409
508T1438 711Q1438 987 1286 1166T864 1346Q575 1346 389 1141T203 621Q203 467 251 340T378 134T551 11T743 -37L723 -115Q447 -103 264 102T80 598Z" />
<glyph unicode="&#xe534;" glyph-name="uniE534" horiz-adv-x="1148" d="M301 47T573 47T846 686Q846 1319 575 1319Q301 1319 301 688Q301 47 573 47ZM559 -25Q414 -25 315 75T174 324T133 655Q133 845 179 1007T331 1280T590 1391Q735 1391 834 1292T974 1047T1014
721Q1014 528 968 365T817 88T559 -25Z" />
<glyph unicode="&#xe535;" glyph-name="uniE535" horiz-adv-x="1148" d="M301 47T573 47T846 686Q846 1319 575 1319Q301 1319 301 688Q301 47 573 47ZM559 -25Q414 -25 315 75T174 324T133 655Q133 845 179 1007T331 1280T590 1391Q735 1391 834 1292T974 1047T1014
721Q1014 528 968 365T817 88T559 -25ZM618 569T573 569T496 602T463 680T495 758T573 791T651 758T684 680T651 602Z" />
<glyph unicode="&#xe536;" glyph-name="uniE536" horiz-adv-x="792" d="M94 -6V66L213 72Q262 74 293 85T337 116T354 154T358 199V1108Q358 1202 346 1220T289 1229L70 1171L59 1249Q209 1298 325 1338T484 1395L526 1411L532 1405Q505 1323 506 1165V199L496
88L766 70L758 6L94 -6Z" />
<glyph unicode="&#xe537;" glyph-name="uniE537" horiz-adv-x="1026" d="M68 61Q158 147 219 210T376 386T529 591T632 803T676 1026Q676 1139 611 1197T442 1255Q356 1255 267 1218T115 1114L72 1163Q78 1173 91 1187T146 1242T233 1311T347 1366T483 1391Q837
1391 838 1051Q838 762 260 141H657Q768 141 809 181T881 328H944L891 0H88L68 61Z" />
<glyph unicode="&#xe538;" glyph-name="uniE538" horiz-adv-x="976" d="M55 127Q55 158 74 179T119 201Q154 201 184 176T237 120T307 65T416 39Q533 39 616 142T700 358Q700 495 605 580T336 666L281 662V760Q433 762 528 862T623 1081Q623 1165 567 1215T424
1266Q371 1266 307 1242T204 1193L166 1169L125 1214Q131 1220 141 1232T185 1276T256 1329T349 1371T463 1391Q598 1391 691 1321T784 1114Q784 1005 687 898T487 750Q655 736 761 641T868 399Q868 229 725 102T406 -25Q295 -25 175 18T55 127Z" />
<glyph unicode="&#xe53a;" glyph-name="uniE53A" horiz-adv-x="897" d="M96 129Q96 158 115 179T159 201T208 176T253 120T311 65T393 39Q491 39 579 134T668 365Q668 459 613 532T479 645T324 710T190 744L135 752L166 1366H610L754 1378L725 1233H240L223 881Q235
879 257 876T340 857T457 821T582 760T700 674T783 556T817 403Q817 235 685 105T362 -25Q274 -25 185 18T96 129Z" />
<glyph unicode="&#xe53b;" glyph-name="uniE53B" horiz-adv-x="1071" d="M551 -25Q412 -25 311 59T163 271T117 551Q117 701 163 847T296 1116T525 1315T842 1391L854 1313Q702 1305 586 1233T405 1051T311 816T285 565Q285 358 368 203T580 47Q695 47 761 159T827
410Q827 525 781 622T649 765T438 748L426 819Q498 870 631 870Q797 870 893 750T989 469Q989 281 871 128T551 -25Z" />
<glyph unicode="&#xe53c;" glyph-name="uniE53C" horiz-adv-x="933" d="M631 889L778 1233Q700 1225 645 1225H315Q204 1225 169 1207T104 1104H41L94 1366H807L920 1374L926 1315Q856 1219 836 1171L403 150Q395 132 384 104T367 64T352 33T338 6T323 -10T304
-21T283 -25Q252 -25 235 -7T217 35Q217 49 222 62T233 87T256 124T287 172Q414 377 631 889Z" />
<glyph unicode="&#xe53d;" glyph-name="uniE53D" d="M117 322Q117 457 192 548T406 725Q293 813 230 897T166 1079Q166 1210 275 1300T551 1391Q703 1391 795 1312T887 1104Q887 989 814 910T612 752Q686 697 731 659T828 566T905 454T930 338Q930 191 809 83T508
-25Q352 -25 235 63T117 322ZM272 346Q272 219 334 133T516 47Q631 47 706 121T782 301Q782 364 736 431T639 541T495 656Q473 672 463 680Q272 547 272 346ZM315 1108Q315 1028 377 956T557 795Q733 914 733 1083Q733 1187 682 1253T528 1319Q424 1319 370 1256T315
1108Z" />
<glyph unicode="&#xe53e;" glyph-name="uniE53E" horiz-adv-x="1056" d="M205 53Q357 61 471 133T649 315T743 549T774 801Q774 1008 691 1163T477 1319Q368 1319 305 1207T242 956Q242 843 286 747T414 608T618 629L631 557Q541 506 426 506Q264 506 171 623T78
897Q78 1085 193 1238T506 1391Q713 1391 826 1222T940 815Q940 665 894 519T761 250T533 51T217 -25L205 53Z" />
<glyph unicode="&#xe53f;" glyph-name="uniE53F" horiz-adv-x="1064" d="M258 47T530 47T803 686Q803 1319 532 1319Q258 1319 258 688Q258 47 530 47ZM516 -25Q371 -25 272 75T131 324T90 655Q90 845 136 1007T288 1280T547 1391Q692 1391 791 1292T931 1047T971
721Q971 528 925 365T774 88T516 -25Z" />
<glyph unicode="&#xe541;" glyph-name="uniE541" horiz-adv-x="1064" d="M229 -6V66L348 72Q397 74 428 85T472 116T489 154T494 199V1108Q494 1202 482 1220T424 1229L205 1171L195 1249Q345 1298 461 1338T620 1395L662 1411L668 1405Q641 1323 641 1165V199L631
88L901 70L893 6L229 -6Z" />
<glyph unicode="&#xe542;" glyph-name="uniE542" horiz-adv-x="1064" d="M86 61Q176 147 237 210T394 386T547 591T650 803T694 1026Q694 1139 629 1197T461 1255Q375 1255 286 1218T133 1114L90 1163Q96 1173 109 1187T165 1242T252 1311T365 1366T502 1391Q856
1391 856 1051Q856 762 279 141H676Q787 141 827 181T899 328H963L909 0H106L86 61Z" />
<glyph unicode="&#xe543;" glyph-name="uniE543" horiz-adv-x="1064" d="M98 127Q98 158 117 179T162 201Q197 201 227 176T280 120T350 65T459 39Q576 39 659 142T743 358Q743 495 648 580T379 666L324 662V760Q476 762 571 862T666 1081Q666 1165 610 1215T467
1266Q414 1266 350 1242T247 1193L209 1169L168 1214Q174 1220 184 1232T228 1276T299 1329T392 1371T506 1391Q641 1391 734 1321T827 1114Q827 1005 730 898T530 750Q698 736 804 641T911 399Q911 229 768 102T449 -25Q338 -25 218 18T98 127Z" />
<glyph unicode="&#xe544;" glyph-name="uniE544" horiz-adv-x="1064" d="M49 401L33 487L674 1358L772 1391L778 1384Q768 1318 768 1161V512H997L969 401H768V188L758 78L946 59L938 6L469 -6V55Q541 63 581 98T621 188V401H49ZM621 512V1038Q621 1093 629 1171L150
512H621Z" />
<glyph unicode="&#xe545;" glyph-name="uniE545" horiz-adv-x="1064" d="M180 129Q180 158 199 179T243 201T292 176T337 120T395 65T477 39Q575 39 663 134T752 365Q752 459 697 532T563 645T408 710T274 744L219 752L250 1366H694L838 1378L809 1233H324L307
881Q319 879 340 876T423 857T541 821T666 760T784 674T867 556T901 403Q901 235 769 105T446 -25Q358 -25 269 18T180 129Z" />
<glyph unicode="&#xe546;" glyph-name="uniE546" horiz-adv-x="1064" d="M547 -25Q408 -25 307 59T159 271T113 551Q113 701 159 847T292 1116T521 1315T838 1391L850 1313Q698 1305 582 1233T401 1051T306 816T281 565Q281 358 363 203T575 47Q690 47 756 159T823
410Q823 525 777 622T645 765T434 748L422 819Q494 870 627 870Q793 870 889 750T985 469Q985 281 867 128T547 -25Z" />
<glyph unicode="&#xe547;" glyph-name="uniE547" horiz-adv-x="1064" d="M696 889L844 1233Q766 1225 711 1225H381Q270 1225 235 1207T170 1104H106L160 1366H872L985 1374L991 1315Q921 1219 901 1171L469 150Q461 132 450 104T432 64T418 33T404 6T388 -10T370
-21T348 -25Q317 -25 300 -7T283 35Q283 49 288 62T299 87T321 124T352 172Q479 377 696 889Z" />
<glyph unicode="&#xe548;" glyph-name="uniE548" horiz-adv-x="1064" d="M127 322Q127 457 203 548T416 725Q303 813 240 897T176 1079Q176 1210 285 1300T561 1391Q713 1391 805 1312T897 1104Q897 989 825 910T623 752Q697 697 741 659T838 566T915 454T940
338Q940 191 819 83T518 -25Q362 -25 245 63T127 322ZM283 346Q283 219 345 133T526 47Q641 47 717 121T793 301Q793 364 747 431T649 541T505 656Q483 672 473 680Q283 547 283 346ZM326 1108Q326 1028 388 956T567 795Q743 914 743 1083Q743 1187 692 1253T539
1319Q435 1319 381 1256T326 1108Z" />
<glyph unicode="&#xe549;" glyph-name="uniE549" horiz-adv-x="1064" d="M209 53Q361 61 475 133T653 315T747 549T778 801Q778 1008 695 1163T481 1319Q372 1319 309 1207T246 956Q246 843 290 747T418 608T623 629L635 557Q545 506 430 506Q268 506 175 623T82
897Q82 1085 197 1238T510 1391Q717 1391 830 1222T944 815Q944 665 898 519T765 250T537 51T221 -25L209 53Z" />
<glyph unicode="&#xe555;" glyph-name="uniE555" horiz-adv-x="1064" d="M530 59Q665 59 751 190T838 492Q838 650 751 774T532 899Q399 899 313 773T227 487Q227 319 313 189T530 59ZM84 465Q84 678 206 830T549 983Q754 983 867 843T981 508Q981 293 858 134T516
-25Q313 -25 199 121T84 465Z" />
<glyph unicode="&#xe556;" glyph-name="uniE556" horiz-adv-x="1064" d="M530 59Q665 59 751 190T838 492Q838 650 751 774T532 899Q399 899 313 773T227 487Q227 319 313 189T530 59ZM84 465Q84 678 206 830T549 983Q754 983 867 843T981 508Q981 293 858 134T516
-25Q313 -25 199 121T84 465ZM420 432T420 477T452 555T530 588T608 555T641 477T608 400T530 367T453 399Z" />
<glyph unicode="&#xe557;" glyph-name="uniE557" horiz-adv-x="1064" d="M287 -10V55Q383 55 421 85T459 186V772Q459 844 422 868T276 893V958H782L774 897L592 874V186L582 78L793 57L784 0L287 -10Z" />
<glyph unicode="&#xe558;" glyph-name="uniE558" horiz-adv-x="1064" d="M186 0L172 59Q381 248 458 339Q625 535 625 684Q625 778 574 823T442 868Q321 868 203 774L166 815Q170 821 179 832T221 873T290 924T384 964T504 983Q613 983 697 920T782 731Q782 495
352 127H659Q708 127 744 140T803 182T839 235T866 301H915L852 0H186Z" />
<glyph unicode="&#xe559;" glyph-name="uniE559" horiz-adv-x="1064" d="M190 -326Q274 -328 355 -310T511 -250T632 -131T678 53Q678 180 585 234T362 289L303 285V375Q420 387 526 473T633 688Q633 772 586 826T455 881Q400 881 341 854T248 801L215 774L176
817Q190 835 216 863T327 937T502 983Q629 983 708 916T788 731Q788 625 692 522T487 373Q647 357 740 278T834 86Q834 -39 779 -135T633 -285T444 -366T242 -393L203 -391L190 -326Z" />
</font>
</defs>
</svg>
