<?xml version="1.0" standalone="no"?> <!DOCTYPE svg PUBLIC "-//W3C//DTD SVG 1.0//EN" "http://www.w3.org/TR/2001/REC-SVG-20010904/DTD/svg10.dtd" > <svg xmlns="http://www.w3.org/2000/svg" width="100%" height="100%">
<defs >
<font id="Calluna-Semibold" horiz-adv-x="1063" ><font-face
    font-family="Calluna SmBd"
    units-per-em="2048"
    panose-1="0 0 7 0 0 0 0 0 0 0"
    ascent="1937"
    descent="-516"
    alphabetic="0" />
<missing-glyph horiz-adv-x="1413" d="M246 301L328 217L707 598L1085 217L1167 301L788 680L1167 1061L1087 1145L707 762L326 1145L246 1061L625 680L246 301ZM92 -109V1475H1321V-109H92Z" />
<glyph unicode=" " glyph-name="space" horiz-adv-x="454" />
<glyph unicode="!" glyph-name="exclam" horiz-adv-x="587" d="M258 387L150 1346L436 1423L446 1413Q419 1343 403 1184L319 387H258ZM147 55T147 112T188 211T286 252T384 211T424 113T384 15T287 -25T188 15Z" />
<glyph unicode="&quot;" glyph-name="quotedbl" horiz-adv-x="735" d="M119 856V1366H315V1290L219 856H119ZM461 856V1366H657V1290L561 856H461Z" />
<glyph unicode="#" glyph-name="numbersign" horiz-adv-x="1323" d="M666 -182L756 260H436L346 -182H231L322 260H59L78 365H344L403 662H139L158 768H426L512 1184H625L539 768H860L946 1184H1059L973 768H1262L1243 662H952L891 365H1182L1163 260H870L780
-182H666ZM518 662L457 365H778L838 662H518Z" />
<glyph unicode="$" glyph-name="dollar" horiz-adv-x="907" d="M68 170Q68 197 115 354H182Q182 104 391 72L408 471Q330 510 289 533T192 601T110 700T84 827Q84 954 174 1042T434 1147L442 1323H528L520 1151Q575 1149 819 1116L760 821H692Q700 932 652 994T518
1067L502 680Q563 651 584 640T659 599T735 546T788 487T831 408T844 313Q844 168 741 83T473 -12L467 -182H381L387 -12Q258 -6 163 39T68 170ZM657 229Q657 340 492 428L477 70Q555 78 606 117T657 229ZM268 907Q268 803 418 721L432 1065Q356 1055 312 1014T268
907Z" />
<glyph unicode="%" glyph-name="percent" horiz-adv-x="1503" d="M63 1040Q63 1171 156 1262T383 1354T610 1263T705 1040Q705 911 611 819T383 727Q252 727 158 819T63 1040ZM199 1120T199 1041T253 901T383 840T514 900T569 1040T514 1181T383 1243Q309 1243
254 1182ZM217 0L1178 1382L1262 1325L340 0H217ZM803 158T803 289T896 511T1122 602T1349 511T1444 289T1350 66T1122 -27T896 65ZM938 369T938 289T992 149T1122 88T1253 148T1309 289T1254 429T1123 489T993 429Z" />
<glyph unicode="&amp;" glyph-name="ampersand" horiz-adv-x="1368" d="M68 315Q68 428 145 515T373 698Q252 917 252 1077Q252 1204 342 1297T604 1391Q749 1391 835 1320T922 1137T837 931T608 737Q739 524 954 291Q1034 391 1080 512T1126 737Q1126 856 993
870V926H1294L1305 895Q1291 870 1281 843T1256 767T1233 694Q1141 395 1012 229Q1225 14 1341 -45L1313 -92Q1118 -65 887 104Q723 -25 506 -25Q332 -25 200 62T68 315ZM575 86Q700 86 815 162Q573 369 414 627Q275 518 274 389Q274 239 359 163T575 86ZM463 1133Q463
1002 569 805Q723 936 723 1110Q723 1188 689 1249T584 1311Q527 1311 495 1260T463 1133Z" />
<glyph unicode="&apos;" glyph-name="quotesingle" horiz-adv-x="393" d="M119 856V1366H313V1290L223 856H119Z" />
<glyph unicode="(" glyph-name="parenleft" horiz-adv-x="581" d="M82 553Q82 705 117 848T202 1089T302 1264T387 1377L422 1413L498 1384Q488 1370 473 1345T416 1233T343 1056T286 828T260 553Q260 403 289 257T360 9T443 -174T515 -293L545 -332L473 -369Q457
-355 430 -328T337 -210T218 -20T124 236T82 553Z" />
<glyph unicode=")" glyph-name="parenright" horiz-adv-x="577" d="M39 -332Q51 -318 69 -291T136 -175T221 10T288 254T319 553Q319 690 296 825T238 1057T168 1229T110 1342L86 1380L162 1413Q176 1401 198 1376T278 1266T380 1089T460 850T496 553Q496 393
456 239T360 -20T247 -208T151 -330L111 -369L39 -332Z" />
<glyph unicode="*" glyph-name="asterisk" horiz-adv-x="1024" d="M414 1348Q404 1375 439 1392T512 1409T585 1393T612 1348L537 1108Q533 1094 527 1083T516 1066L512 1061Q496 1079 487 1108L414 1348ZM549 555T512 555T439 572T414 616L487 856Q491 870 497
882T508 900L512 905Q528 887 537 856L612 616Q620 587 585 571ZM147 1079Q127 1083 123 1105T125 1153T143 1196Q161 1229 194 1251T246 1251L416 1067Q426 1057 433 1046T442 1028L444 1022Q421 1016 391 1024L147 1079ZM778 713L608 899Q600 907 593 918T583
937L580 944Q603 948 633 942L879 887Q899 883 903 861T901 813T883 768Q865 735 832 714T778 713ZM246 715Q226 692 194 713T143 768Q131 788 125 813T123 860T147 887L391 942L444 944Q438 919 416 899L246 715ZM580 1022Q586 1045 608 1067L778 1249Q798 1272
831 1251T883 1196Q895 1178 901 1153T903 1106T879 1079L633 1024Q621 1020 608 1020T587 1021L580 1022Z" />
<glyph unicode="+" glyph-name="plus" horiz-adv-x="1064" d="M70 455V582H469V1008H602V582H995V455H602V0H469V455H70Z" />
<glyph unicode="," glyph-name="comma" horiz-adv-x="481" d="M104 94V180L281 274Q381 159 381 27Q381 -94 322 -185T152 -369L94 -305Q168 -242 205 -192T242 -82Q241 8 104 94Z" />
<glyph unicode="-" glyph-name="hyphen" horiz-adv-x="749" d="M119 442V590H631V442H119Z" />
<glyph unicode="." glyph-name="period" horiz-adv-x="495" d="M111 55T111 112T150 211T248 252Q307 252 347 212T387 113Q387 56 346 16T248 -25T151 15Z" />
<glyph unicode="/" glyph-name="slash" horiz-adv-x="718" d="M-59 -401L623 1366H766L86 -401H-59Z" />
<glyph unicode="0" glyph-name="zero" horiz-adv-x="1163" d="M582 86Q707 86 774 204T842 487Q842 645 774 763T584 881Q459 881 391 763T322 484T390 204T582 86ZM109 471Q109 680 238 835T596 991Q813 991 934 849T1055 508Q1055 297 925 136T567 -25Q350 -25
230 122T109 471Z" />
<glyph unicode="1" glyph-name="one" horiz-adv-x="784" d="M111 -10V63Q207 63 245 93T283 195V772Q283 844 246 868T100 893V967H678L670 897L487 874V195L477 86L688 66L680 0L111 -10Z" />
<glyph unicode="2" glyph-name="two" horiz-adv-x="974" d="M111 0L94 70Q104 80 164 132T252 208T333 287T414 380T477 470T526 571T541 670Q541 758 493 800T367 842Q248 842 137 764L96 815Q102 821 112 833T160 876T235 929T335 971T461 991Q586 991 674 921T762
731T654 478T334 170H616Q669 170 705 183T764 226T797 277T823 344H897L831 0H111Z" />
<glyph unicode="3" glyph-name="three" horiz-adv-x="827" d="M45 -322Q125 -318 199 -300T347 -241T463 -128T506 43Q506 174 422 229T217 285L158 281V385Q281 395 373 488T465 694Q465 766 424 812T305 858Q254 858 198 835T111 787L80 764L41 813Q47 821 57
832T101 874T173 928T270 971T389 991Q518 991 604 921T690 735Q690 618 590 525T367 383Q537 367 636 283T735 72Q735 -45 673 -139T514 -288T313 -372T106 -401L57 -399L45 -322Z" />
<glyph unicode="4" glyph-name="four" horiz-adv-x="1060" d="M53 66L39 131L627 954L786 995L795 989Q779 911 778 766V205H1004L977 66H778V-268Q778 -303 776 -331T771 -371L768 -381L569 -401L561 -395Q571 -352 571 -279V66H53ZM205 205H571V600Q571 657
580 735L205 205Z" />
<glyph unicode="5" glyph-name="five" horiz-adv-x="858" d="M82 -322Q287 -316 420 -218T553 29Q553 111 505 175T390 272T254 326T138 353L90 358L123 967H575L719 979L690 799H209L193 543Q205 541 225 538T305 520T419 484T539 425T653 341T733 226T766 76Q766
-127 582 -264T154 -401L94 -399L82 -322Z" />
<glyph unicode="6" glyph-name="six" horiz-adv-x="1060" d="M551 -25Q336 -25 219 145T102 567Q102 721 149 865T287 1128T524 1319T856 1391L868 1315Q729 1301 622 1233T453 1062T361 838T330 586Q330 369 399 211T584 53Q674 53 726 148T778 375Q778 445 762
516T712 652T619 747T481 756L465 829Q541 870 635 870Q799 870 895 752T991 455Q991 265 874 120T551 -25Z" />
<glyph unicode="7" glyph-name="seven" horiz-adv-x="978" d="M279 -176Q439 55 627 471L766 774Q688 766 631 766H330Q221 766 188 747T119 633H47L113 967H809L938 975L948 918Q870 797 842 729L414 -227Q408 -241 396 -270T378 -310T363 -341T345 -368T328
-386T306 -398T281 -401Q244 -401 224 -379T203 -324Q203 -312 205 -302T210 -283T221 -261T234 -240T255 -210T279 -176Z" />
<glyph unicode="8" glyph-name="eight" horiz-adv-x="1046" d="M100 311Q100 442 178 532T389 707Q274 805 212 892T150 1081Q150 1216 259 1303T543 1391Q707 1391 804 1313T901 1110Q901 1006 835 927T641 764Q717 701 756 666T848 572T924 454T948 334Q948
184 821 80T510 -25Q346 -25 223 61T100 311ZM295 346Q295 213 358 134T518 55Q604 55 673 114T743 272Q743 342 694 415T599 530T453 653Q295 532 295 346ZM352 1217T352 1137T408 984T575 817Q706 928 707 1092Q707 1196 657 1253T530 1311Q460 1311 406 1264Z"
/>
<glyph unicode="9" glyph-name="nine" horiz-adv-x="1101" d="M227 -326Q411 -308 537 -197T715 62T766 387Q766 600 697 756T514 913Q430 913 380 818T330 594Q330 526 345 457T392 323T482 229T616 221L631 147Q551 106 461 106Q305 106 210 223T115 514Q115
700 230 845T545 991Q760 991 876 823T993 406Q993 252 946 111T809 -146T572 -331T240 -401L227 -326Z" />
<glyph unicode=":" glyph-name="colon" horiz-adv-x="563" d="M143 741T143 798T183 896T280 936T379 896T420 799T379 700T281 659T183 700ZM143 55T143 112T183 211T280 252T379 211T420 113T379 15T281 -25T183 15Z" />
<glyph unicode=";" glyph-name="semicolon" horiz-adv-x="557" d="M150 94V180L326 274Q426 159 426 27Q426 -94 367 -185T197 -369L139 -305Q213 -242 250 -192T287 -82Q287 8 150 94ZM137 739T137 796T177 895T274 936T373 896T414 797Q414 740 373 700T275
659T177 699Z" />
<glyph unicode="&lt;" glyph-name="less" horiz-adv-x="1064" d="M55 467V561L928 1030L963 899L225 514L963 111L928 -20L55 467Z" />
<glyph unicode="=" glyph-name="equal" horiz-adv-x="1064" d="M78 637V764H987V637H78ZM78 262V389H987V262H78Z" />
<glyph unicode="&gt;" glyph-name="greater" horiz-adv-x="1064" d="M100 111L838 514L100 899L135 1030L1008 561V467L135 -20L100 111Z" />
<glyph unicode="?" glyph-name="question" horiz-adv-x="743" d="M262 387Q252 434 252 494Q252 580 287 658T362 783T438 877T473 961Q473 1018 378 1084T187 1188L92 1225L133 1442Q156 1434 194 1420T333 1359T510 1266T648 1151T711 1020Q711 973 671 920T574
814T459 703T362 561T322 387H262ZM160 55T160 112T200 211T297 252T395 211T436 113T395 15T297 -25T200 15Z" />
<glyph unicode="@" glyph-name="at" horiz-adv-x="1697" d="M635 391Q635 252 675 190T776 127Q846 127 948 215V846Q936 844 915 840T839 808T743 736T669 602T635 391ZM59 379Q59 602 173 795T484 1106T911 1223Q1212 1223 1415 1032T1618 553Q1618 428 1580
317T1444 113T1200 4L944 -27L940 -18Q956 41 956 92V166Q852 -24 688 -25Q579 -25 496 67T412 338Q412 592 576 763T979 934Q1108 934 1182 911Q1157 817 1157 735V186Q1157 90 1227 90Q1307 90 1378 182T1450 483Q1450 768 1299 946T877 1124Q582 1124 407 919T231
414Q231 138 380 -50T764 -258L743 -344Q450 -332 255 -125T59 379Z" />
<glyph unicode="A" glyph-name="A" horiz-adv-x="1277" d="M-31 0V63Q73 73 106 158L588 1358L690 1380L1143 215Q1176 129 1206 99T1292 59L1284 0H1198L848 -6V68Q897 70 922 87T932 147L819 449H354L326 428L195 86L369 63L358 0H-31ZM629 967Q590 1082 584
1106L369 545H784L629 967Z" />
<glyph unicode="B" glyph-name="B" horiz-adv-x="1249" d="M100 -6V63Q241 79 242 190V1161Q242 1237 216 1262T80 1311V1366H580Q832 1366 953 1282T1075 1067Q1075 952 995 867T815 729Q870 717 918 698T1030 641T1131 538T1169 387Q1169 217 1021 109T606 0H420L100
-6ZM453 92H575Q757 92 839 166T922 356Q922 442 882 504T780 599T655 644T530 657H485L463 635V205L453 92ZM463 750H655Q718 754 776 836T834 1024T770 1202T565 1274H485L463 1251V750Z" />
<glyph unicode="C" glyph-name="C" horiz-adv-x="1396" d="M82 666Q82 967 290 1179T840 1391Q938 1391 1116 1365T1300 1339L1239 1024H1165Q1163 1169 1062 1236T811 1303Q578 1303 445 1140T311 735Q311 461 479 296T895 131Q1004 131 1105 167T1252 239L1298
274L1329 227Q1323 217 1310 200T1249 139T1146 64T997 3T801 -25Q496 -25 289 171T82 666Z" />
<glyph unicode="D" glyph-name="D" horiz-adv-x="1525" d="M100 -6V63Q241 79 242 190V1161Q242 1237 216 1262T80 1311V1366H662Q822 1366 957 1332T1203 1227T1379 1029T1444 735Q1444 393 1207 197T590 0H420L100 -6ZM453 92H590Q897 92 1047 250T1198 682Q1198
954 1058 1114T657 1274H485L463 1251V207L453 92Z" />
<glyph unicode="E" glyph-name="E" horiz-adv-x="1204" d="M100 -6V63Q241 79 242 190V1161Q242 1237 216 1262T80 1311V1366H944L1096 1374L1032 1024H958Q966 1176 917 1225T737 1274H485L463 1251V739H827L844 858L924 870V496H823V649H485L463 627V207L453
92H760Q889 92 936 133T1063 340H1137L1061 0H420L100 -6Z" />
<glyph unicode="F" glyph-name="F" horiz-adv-x="1103" d="M102 -6V63Q168 71 206 106T244 197V1161Q244 1237 219 1262T82 1311V1366H934L1085 1374L1022 1024H948Q956 1176 906 1225T727 1274H487L465 1251V731H821L838 848L918 860V487H817V639H487L465 616V197L455
86L680 68L672 6L102 -6Z" />
<glyph unicode="G" glyph-name="G" horiz-adv-x="1462" d="M82 655Q82 796 129 925T268 1160T513 1328T858 1391Q964 1391 1144 1369T1327 1346L1266 1024H1190Q1188 1178 1090 1240T848 1303Q598 1303 461 1130T324 702Q324 428 487 252T915 76Q1011 76 1104
98V381Q1104 459 1074 485T915 530V586H1386L1397 553Q1389 549 1376 539T1340 478T1317 358V29Q1280 25 1179 10T994 -15T840 -25Q516 -25 299 156T82 655Z" />
<glyph unicode="H" glyph-name="H" horiz-adv-x="1650" d="M100 -6V63Q166 71 204 106T242 197V1161Q242 1241 222 1264T96 1311V1366H250L520 1374L530 1366Q462 1284 463 1114V743H1176L1198 766V1161Q1198 1241 1177 1264T1051 1311V1366H1206L1477 1372L1487
1364Q1419 1284 1419 1114V197L1409 86L1589 68L1581 6L1055 -6V63Q1121 71 1159 105T1198 190V645H485L463 625V197L453 86L633 68L625 6L100 -6Z" />
<glyph unicode="I" glyph-name="I" horiz-adv-x="694" d="M100 -6V63Q166 71 204 105T242 193V1161Q242 1241 222 1264T96 1311V1366H250L520 1374L530 1366Q462 1284 463 1114V193L453 86L639 68L631 6L100 -6Z" />
<glyph unicode="J" glyph-name="J" horiz-adv-x="643" d="M223 121V1161Q223 1241 203 1264T78 1311V1366H231L502 1374L512 1366Q444 1288 444 1118V250Q444 -24 334 -179T29 -334L4 -281Q92 -269 157 -153T223 121Z" />
<glyph unicode="K" glyph-name="K" horiz-adv-x="1345" d="M100 -6V63Q166 71 204 105T242 190V1161Q242 1241 222 1264T96 1311V1366H250L520 1374L530 1366Q462 1288 463 1118V758H502Q549 787 584 823L965 1208Q998 1237 987 1268T903 1311V1366H1298L1309
1333Q1200 1310 1073 1182L694 797V770L1174 188Q1237 112 1263 94T1337 72L1360 70L1352 0H1012L1004 6Q988 69 860 223L500 659H463V190L453 86L633 68L625 6L100 -6Z" />
<glyph unicode="L" glyph-name="L" horiz-adv-x="1165" d="M102 -6V63Q239 79 240 190V1161Q240 1241 219 1264T92 1311V1366H248L518 1374L528 1366Q460 1284 461 1114V205L451 92H772Q838 92 879 104T955 157T1015 241T1085 381H1159L1073 0H418L102 -6Z" />
<glyph unicode="M" glyph-name="M" horiz-adv-x="1847" d="M78 -6V63Q219 79 225 190L266 1161Q270 1237 244 1261T104 1311V1366H262L532 1374L541 1366Q564 1274 600 1178L885 442Q903 397 924 324L1290 1223L1335 1366H1409L1651 1374L1661 1366Q1653 1356
1642 1338T1612 1253T1595 1108L1634 184L1628 80L1804 68L1796 6L1274 -6V63Q1342 71 1380 102T1417 184L1376 1171L897 0L825 25L371 1171Q367 1128 365 1090L330 190L315 80L504 68L496 6L78 -6Z" />
<glyph unicode="N" glyph-name="N" horiz-adv-x="1583" d="M102 -6V63Q249 79 250 190V1094Q250 1198 216 1241T82 1311V1366H143L375 1374Q400 1327 453 1268L1184 455Q1223 412 1266 352V1149Q1266 1190 1263 1210T1245 1253T1194 1287T1100 1305V1366H1499L1509
1333Q1503 1331 1494 1328T1461 1309T1418 1272T1384 1211T1368 1124V-10H1300L428 977Q393 1014 350 1077V190L340 80L524 68L516 6L102 -6Z" />
<glyph unicode="O" glyph-name="O" horiz-adv-x="1630" d="M328 719Q328 561 384 415T558 167T829 66Q1044 66 1172 250T1300 678Q1300 836 1245 975T1073 1207T801 1300Q654 1300 544 1217T381 1002T328 719ZM82 664Q82 803 132 932T274 1163T514 1328T842 1391Q1170
1391 1359 1201T1548 731Q1548 538 1458 368T1190 86T784 -25Q465 -25 274 177T82 664Z" />
<glyph unicode="P" glyph-name="P" horiz-adv-x="1169" d="M100 -6V63Q166 71 204 105T242 190V1161Q242 1237 216 1262T80 1311V1366H616Q712 1366 797 1349T959 1291T1081 1176T1126 995Q1126 848 1042 744T839 598T594 569V635Q739 643 810 726T881 940Q881
1104 780 1189T524 1274H485L463 1251V190L453 86L647 68L639 6L100 -6Z" />
<glyph unicode="Q" glyph-name="Q" horiz-adv-x="1630" d="M610 -6Q364 47 223 234T82 664Q82 803 132 932T274 1163T514 1328T842 1391Q1170 1391 1359 1201T1548 731Q1548 491 1408 290T1024 10Q1057 -15 1119 -83T1235 -207T1371 -307T1542 -352Q1577 -352
1616 -346V-408Q1510 -474 1376 -473Q1317 -473 1259 -455T1159 -413T1071 -346T1001 -277T937 -203T889 -145Q856 -108 831 -84T773 -46T728 -29T670 -17T610 -6ZM328 719Q328 561 384 416T558 170T829 70Q1044 70 1172 254T1300 678Q1300 836 1245 974T1073 1204T801
1296Q582 1296 455 1126T328 719Z" />
<glyph unicode="R" glyph-name="R" horiz-adv-x="1308" d="M100 -6V63Q166 71 204 105T242 190V1161Q242 1237 216 1262T80 1311V1366H600Q856 1366 980 1273T1104 1036Q1104 915 1024 822T842 672V641L1137 203Q1178 146 1210 116T1260 80T1309 72L1331 70L1323
0H983L975 6Q940 102 852 231L608 596H485L463 573V190L453 86L637 68L629 6L100 -6ZM463 686H627Q717 686 788 764T860 979Q860 1110 786 1192T551 1274H485L463 1251V686Z" />
<glyph unicode="S" glyph-name="S" horiz-adv-x="1046" d="M86 186Q86 229 139 387H213Q213 211 300 137T510 63Q612 63 683 113T754 264Q754 344 707 409T589 517T435 610T282 711T164 841T117 1020Q117 1186 237 1288T584 1391Q631 1391 687 1386T780 1375T868
1362T934 1352L868 1024H795Q805 1147 747 1225T563 1303Q457 1303 390 1251T322 1104Q322 1034 356 978T447 882T571 805T707 726T832 636T923 514T958 350Q958 168 827 72T494 -25Q336 -25 212 28T86 186Z" />
<glyph unicode="T" glyph-name="T" horiz-adv-x="1329" d="M406 -6V63Q472 71 509 106T547 197V1274H356Q250 1274 193 1225T78 1024H4L68 1378Q121 1366 205 1366H1186Q1223 1366 1259 1369T1315 1375L1333 1378L1270 1024H1194Q1198 1174 1149 1224T977 1274H791L768
1251V197L758 86L963 68L954 6L406 -6Z" />
<glyph unicode="U" glyph-name="U" horiz-adv-x="1505" d="M188 481V1161Q188 1241 168 1264T43 1311V1366H197L467 1374L477 1366Q409 1286 410 1114V498Q410 293 526 187T805 80T1085 186T1204 483V1151Q1204 1192 1201 1211T1184 1253T1136 1287T1044 1305V1366H1452L1462
1333Q1456 1331 1447 1327T1412 1307T1367 1269T1333 1207T1317 1120V489Q1317 245 1156 110T752 -25Q643 -25 547 3T368 87T237 244T188 481Z" />
<glyph unicode="V" glyph-name="V" horiz-adv-x="1255" d="M575 6L104 1198Q88 1237 59 1265T7 1303L-14 1311V1366H106L356 1374L365 1366Q318 1270 352 1178L639 412Q657 355 676 287L1026 1133Q1055 1203 1033 1245T928 1311V1366H1253L1262 1333Q1199 1290
1128 1118L657 -18L575 6Z" />
<glyph unicode="W" glyph-name="W" horiz-adv-x="1959" d="M1335 6L975 952L668 -18L571 6L100 1198Q84 1237 55 1265T3 1303L-18 1311V1366H102L350 1374L358 1366Q311 1270 346 1178L627 428Q650 369 664 297L918 1100L881 1198Q865 1237 835 1265T783 1303L762
1311V1366H883L1130 1374L1139 1366Q1092 1270 1126 1178L1393 424Q1411 367 1430 299L1694 1133Q1719 1203 1697 1245T1597 1311V1366H1919L1927 1333Q1919 1329 1905 1318T1855 1252T1792 1118L1434 -18L1335 6Z" />
<glyph unicode="X" glyph-name="X" horiz-adv-x="1290" d="M14 0V63Q118 73 182 154L549 662L174 1221Q151 1254 118 1276T61 1305L39 1311V1366H162L410 1374L418 1366Q387 1288 432 1219L692 821L954 1188Q985 1231 963 1267T874 1311V1366H1235L1245 1331Q1171
1311 1092 1204L750 735L1192 80L1290 61L1282 0H1192L831 -8V61Q892 69 905 86T891 143L608 573L262 92L449 68L440 0H14Z" />
<glyph unicode="Y" glyph-name="Y" horiz-adv-x="1208" d="M352 -6V63Q420 71 458 105T496 193V604L111 1221Q88 1256 62 1278T18 1306L2 1311V1366H104L348 1374L356 1366Q319 1288 360 1219L602 821Q625 786 662 707L954 1184Q983 1223 965 1260T872 1311V1366H1212L1221
1333Q1149 1308 1087 1212L717 616V193L707 86L887 68L879 6L352 -6Z" />
<glyph unicode="Z" glyph-name="Z" horiz-adv-x="1245" d="M63 -8L51 66Q94 105 164 211L805 1174Q828 1209 881 1274H485Q360 1274 299 1226T180 1024H104L158 1366H1004L1135 1374L1143 1300Q1108 1257 1040 1155L406 195Q392 172 328 92H788Q909 92 966 147T1106
381H1180L1094 0H195L63 -8Z" />
<glyph unicode="[" glyph-name="bracketleft" horiz-adv-x="593" d="M166 -324V1366H557V1264H319V-221H557V-324H166Z" />
<glyph unicode="\" glyph-name="backslash" horiz-adv-x="720" d="M633 -401L-47 1366H98L780 -401H633Z" />
<glyph unicode="]" glyph-name="bracketright" horiz-adv-x="593" d="M37 -221H274V1264H37V1366H428V-324H37V-221Z" />
<glyph unicode="^" glyph-name="asciicircum" horiz-adv-x="1144" d="M76 512L514 1391H633L1071 512H924L571 1221L219 512H76Z" />
<glyph unicode="_" glyph-name="underscore" horiz-adv-x="1056" d="M16 -76H1040V-184H16V-76Z" />
<glyph unicode="`" glyph-name="grave" horiz-adv-x="1024" d="M332 1389V1444L541 1425L707 1075L635 1036L332 1389Z" />
<glyph unicode="a" glyph-name="a" horiz-adv-x="960" d="M49 193Q49 330 183 414T502 526L571 537Q577 682 563 754Q538 871 449 870Q392 870 340 818T263 715L240 664H162L123 829Q141 843 174 863T312 916T526 950Q676 950 728 886T780 657V190Q780 139 790
117T834 94Q857 94 882 104T922 124L936 133L965 84Q955 72 934 54T852 5T731 -25Q661 -25 620 12T578 117V160Q574 152 566 140T528 95T465 39T380 -5T272 -25Q174 -25 112 36T49 193ZM375 113Q455 113 571 209V457L512 446Q412 430 339 378T266 236Q266 181 296
147T375 113Z" />
<glyph unicode="b" glyph-name="b" horiz-adv-x="1075" d="M356 88Q407 63 483 63Q622 63 705 169T788 442Q788 596 721 704T528 813Q444 813 356 758V88ZM127 6Q147 88 147 211V1227Q147 1278 144 1302T128 1345T86 1364H4V1423Q127 1448 218 1472T340 1509L371
1522L377 1516Q357 1440 356 1282V975Q356 932 354 895T350 837T348 809Q457 950 629 950Q807 950 907 818T1008 506Q1008 293 866 134T463 -25Q402 -25 284 -13T133 0L127 6Z" />
<glyph unicode="c" glyph-name="c" horiz-adv-x="909" d="M68 442Q68 643 192 796T528 950Q598 950 668 935T796 882T854 791Q854 756 830 732T766 707Q721 707 686 749T610 831T508 872Q397 872 333 768T268 514Q268 350 351 242T596 133Q662 133 722 152T809
191L836 211L858 162Q854 154 846 142T807 98T739 41T640 -4T508 -25Q303 -25 186 113T68 442Z" />
<glyph unicode="d" glyph-name="d" horiz-adv-x="1120" d="M68 416Q68 629 210 789T598 950L727 940V1227Q727 1278 724 1302T708 1345T666 1364H584V1423Q707 1448 799 1472T921 1509L950 1522L956 1516Q936 1440 936 1282V199Q936 119 961 101T1051 82H1104L1098
23L729 -16L725 -12Q735 47 735 98V137Q631 -25 449 -25Q279 -25 174 104T68 416ZM541 115Q633 115 727 184V754Q727 863 600 862Q457 862 372 756T287 483Q287 336 353 226T541 115Z" />
<glyph unicode="e" glyph-name="e" horiz-adv-x="944" d="M68 444Q68 655 197 802T516 950Q661 950 765 859T877 600Q805 573 764 567L287 498L268 473Q280 328 360 231T594 133Q664 133 728 156T821 203L850 225L872 174Q868 166 859 153T818 106T749 45T648
-3T514 -25Q303 -25 186 112T68 444ZM479 864Q389 864 334 782T268 580L657 631Q657 641 655 656T642 712T614 782T561 838T479 864Z" />
<glyph unicode="f" glyph-name="f" horiz-adv-x="686" d="M70 -6V57Q193 71 193 190V811H66V883L193 928V987Q193 1214 313 1356T629 1499Q721 1499 795 1466T870 1368Q870 1331 844 1305T774 1278Q733 1278 660 1338T541 1399Q467 1399 434 1316T401 1038V926H680L662
817H424L401 795V190L391 80L606 61L598 6L70 -6Z" />
<glyph unicode="g" glyph-name="g" horiz-adv-x="999" d="M121 145Q121 165 128 183T150 216T179 243T217 268T255 287T296 305T330 319Q215 350 145 428T74 623Q74 777 189 863T471 950Q534 950 617 930T752 909H850Q879 909 912 915T966 929L985 936L967 793H868Q852
793 837 794T811 796T799 797Q875 721 874 610Q874 471 756 387T471 303Q414 303 371 311Q330 264 330 233Q330 225 334 217T347 202T366 190T393 179T424 170T461 161T502 153T547 145T594 135Q674 119 729 103T843 57T935 -20T967 -129Q967 -279 802 -382T440
-485Q286 -485 164 -421T41 -240Q41 -191 64 -150T133 -79T212 -34T299 2Q121 53 121 145ZM504 -41Q463 -31 346 -8Q229 -96 229 -209Q229 -297 302 -348T477 -399Q588 -399 680 -345T772 -209Q772 -141 706 -106T504 -41ZM475 383Q569 383 615 447T662 610Q662
714 612 792T467 870Q375 870 330 801T285 627T332 453T475 383Z" />
<glyph unicode="h" glyph-name="h" horiz-adv-x="1167" d="M53 -6V57Q176 71 176 190V1227Q176 1278 173 1302T157 1345T115 1364H33V1423Q156 1448 248 1472T370 1509L399 1522L406 1516Q386 1440 385 1282V903Q385 860 383 823T379 765T377 737Q443 825 540
887T754 950Q992 950 991 674V190L981 82L1151 61L1143 6L676 -6V57Q782 71 782 190V614Q782 720 751 760T653 801Q512 801 385 690V190L375 80L524 61L516 6L53 -6Z" />
<glyph unicode="i" glyph-name="i" horiz-adv-x="589" d="M72 -6V57Q195 71 195 190V684Q195 735 192 759T175 802T133 821H45V881Q168 906 261 930T387 967L420 979L424 973Q404 905 403 739V190L393 80L563 61L555 6L72 -6ZM334 1147T281 1147T190 1183T152
1272Q152 1323 189 1360T280 1397T372 1360T410 1272Q410 1219 372 1183Z" />
<glyph unicode="j" glyph-name="j" horiz-adv-x="534" d="M178 -45V684Q178 735 175 759T159 802T117 821H31V881Q152 906 246 930T373 967L406 979L408 973Q388 910 387 743V76Q387 -196 282 -340T-16 -485L-41 -432Q47 -420 112 -309T178 -45ZM317 1147T264
1147T174 1183T137 1272T174 1361T264 1397T355 1360T393 1272Q393 1219 355 1183Z" />
<glyph unicode="k" glyph-name="k" horiz-adv-x="1095" d="M53 -6V57Q176 71 176 190V1227Q176 1278 173 1302T157 1345T115 1364H33V1423Q156 1448 248 1472T370 1509L399 1522L406 1516Q386 1440 385 1282V551H414L618 725Q694 793 694 821Q694 852 629 870V926H1012L1022
893Q893 856 807 780L590 592V567Q606 542 621 528L913 184Q974 112 1004 92T1083 68L1106 66L1098 0L770 -6Q745 68 692 135L414 473H385V190L375 80L530 61L522 6L53 -6Z" />
<glyph unicode="l" glyph-name="l" horiz-adv-x="571" d="M53 -6V57Q176 71 176 190V1227Q176 1278 173 1302T157 1345T115 1364H33V1423Q156 1448 248 1472T370 1509L399 1522L406 1516Q386 1440 385 1282V190L375 80L545 61L537 6L53 -6Z" />
<glyph unicode="m" glyph-name="m" horiz-adv-x="1744" d="M70 -6V57Q191 71 190 190V684Q190 735 187 759T171 802T129 821H45V881Q141 897 232 921T367 963L410 979L416 973Q398 918 389 735Q543 950 750 950Q850 950 909 897T977 733Q1127 950 1337 950Q1568
950 1569 674V190L1559 82L1729 61L1720 6L1257 -6V57Q1359 71 1360 190V614Q1360 720 1333 760T1245 801Q1167 801 1075 753T983 635V190L973 82L1122 63L1114 6L670 -6V57Q774 71 774 190V614Q774 720 747 760T657 801Q522 801 399 688V190L389 82L539 63L530
6L70 -6Z" />
<glyph unicode="n" glyph-name="n" horiz-adv-x="1183" d="M72 -6V57Q195 71 195 190V684Q195 735 192 759T175 802T133 821H45V881Q143 897 234 921T368 963L410 979L416 973Q398 916 393 733Q454 823 553 886T770 950Q1010 950 1010 674V190L999 82L1167 61L1159
6L694 -6V57Q800 69 801 190V614Q801 720 768 760T670 801Q527 801 403 688V190L393 82L543 61L535 6L72 -6Z" />
<glyph unicode="o" glyph-name="o" horiz-adv-x="1101" d="M68 238T68 442T192 798T563 950Q784 950 909 824T1034 500Q1034 367 981 250T811 54T535 -25Q320 -25 194 106ZM297 494Q297 385 322 289T411 123T563 53Q684 53 744 172T805 451Q803 555 779 647T692
805T541 872Q422 872 360 762T297 494Z" />
<glyph unicode="p" glyph-name="p" horiz-adv-x="1103" d="M72 -502V-438Q135 -401 153 -360T172 -244V684Q172 735 169 759T153 802T111 821H35V881Q129 897 218 921T349 963L391 979L397 973Q383 920 375 793Q500 951 664 950Q834 950 935 821T1036 508Q1036
293 897 134T506 -25Q438 -25 381 -14V-242L371 -358H582L573 -412Q232 -453 72 -502ZM510 66Q655 66 736 170T817 440Q817 592 754 701T567 811Q483 811 381 743V172Q381 66 510 66Z" />
<glyph unicode="q" glyph-name="q" horiz-adv-x="1081" d="M68 418Q68 633 215 791T623 950Q680 950 794 938T946 926L952 920Q934 846 934 715V-250L924 -365H1073L1065 -420Q952 -434 837 -455T662 -492L602 -506V-442Q670 -403 697 -359T725 -246V-49Q725 10
729 65L733 119Q629 -24 453 -25Q275 -25 172 107T68 418ZM287 479Q287 329 355 221T549 113Q637 113 725 170V838Q674 863 598 862Q461 862 374 754T287 479Z" />
<glyph unicode="r" glyph-name="r" horiz-adv-x="800" d="M72 -6V57Q195 71 195 190V682Q195 733 192 757T175 800T133 819H45V879Q143 897 234 921T369 963L412 979L418 973Q400 916 393 717Q434 793 512 871T676 950Q725 950 759 921T793 844Q793 795 762 763T682
731Q653 731 624 749T569 768Q524 768 477 737T403 672V190L393 80L584 61L575 6L72 -6Z" />
<glyph unicode="s" glyph-name="s" horiz-adv-x="792" d="M70 117Q70 137 78 177T93 248L100 279H166Q174 160 241 106T393 51Q461 51 503 86T545 180Q545 237 498 281T384 359T252 430T139 530T92 678Q92 803 183 876T432 950Q485 950 551 941T658 923L698 913L655
692H590Q588 766 552 811T483 865T414 874Q346 874 310 840T274 752Q274 695 320 652T433 578T566 511T679 412T725 258Q725 123 630 49T383 -25Q272 -25 171 9T70 117Z" />
<glyph unicode="t" glyph-name="t" horiz-adv-x="729" d="M170 244V678L176 811H43V883Q135 901 184 946L260 1174L389 1169L395 1163Q377 1110 377 961V926H684L670 817H401L379 795V303Q379 209 408 163T516 117Q557 117 602 128T672 151L696 162L725 117Q721
111 711 102T669 68T602 25T514 -9T408 -25Q170 -24 170 244Z" />
<glyph unicode="u" glyph-name="u" horiz-adv-x="1159" d="M164 250V682Q164 735 161 759T145 802T102 821H37V883Q154 903 241 922T356 951L385 961L391 954Q373 897 373 739V311Q373 205 406 163T504 121Q570 121 643 160T760 244V682Q760 735 757 759T741 802T698
821H639V883Q754 903 839 922T952 951L981 961L987 954Q969 897 969 739V199Q969 119 994 101T1083 82H1137L1130 23L760 -18L754 -12Q770 47 770 98V197Q721 121 625 48T408 -25Q164 -24 164 250Z" />
<glyph unicode="v" glyph-name="v" horiz-adv-x="948" d="M408 0L113 752Q95 799 66 828T16 864L-4 870V926H92L338 934L346 926Q305 838 342 737L492 338Q510 281 528 213L754 721Q803 834 647 870V926H936L946 893Q917 881 874 786L516 -27L408 0Z" />
<glyph unicode="w" glyph-name="w" horiz-adv-x="1499" d="M403 0L109 752Q91 799 62 828T13 864L-6 870V926H88L330 934L338 926Q334 916 329 900T319 832T334 737L483 336Q493 303 518 219L688 616Q711 673 694 723L684 752Q666 799 638 828T592 864L573 870V926H664L905
934L913 926Q909 916 904 900T894 832T909 737L1057 344Q1080 281 1092 221L1307 723Q1334 782 1302 818T1202 870V926H1487L1497 893Q1468 879 1427 784L1075 -27L979 0L756 563L500 -27L403 0Z" />
<glyph unicode="x" glyph-name="x" horiz-adv-x="1013" d="M563 -6V61Q674 61 621 139L463 373L231 80L381 61L373 6L27 -6V57Q107 65 166 135L414 442L188 766Q159 809 123 835T63 866L41 870V926H152L389 934L397 926Q372 856 424 778L553 588L705 780Q732 813
706 836T618 870V926H952L963 893Q891 879 821 791L602 516L913 68L1001 59L993 6L563 -6Z" />
<glyph unicode="y" glyph-name="y" horiz-adv-x="952" d="M152 -299Q314 -299 387 -129L432 -25Q420 18 377 123L109 752Q91 797 61 826T11 863L-8 870V926H88L336 934L344 926Q326 889 326 835T342 737L502 344Q527 272 541 223L758 723Q781 780 746 816T645
870V926H936L946 893Q911 868 877 784L541 16Q537 6 516 -45T482 -124T443 -205T396 -290T343 -364T282 -429T214 -469T137 -485Q90 -485 64 -459T37 -391Q37 -352 65 -326T152 -299Z" />
<glyph unicode="z" glyph-name="z" horiz-adv-x="911" d="M72 -8L55 49Q82 72 129 147L512 750Q532 781 586 848H342Q260 848 213 793T147 676H76L113 926H682L819 934L836 877Q820 863 766 778L393 182Q370 147 317 80H535Q590 80 636 100T706 150T748 209T772
258L778 279H850L795 0H211L72 -8Z" />
<glyph unicode="{" glyph-name="braceleft" horiz-adv-x="706" d="M258 -135Q258 -125 258 -104Q258 -39 258 -2T253 106T240 223T213 325T169 417T103 474T12 500V575Q57 577 94 592T155 641T198 705T228 791T246 880T255 979T258 1072T258 1159Q258 1180 258
1190Q258 1356 375 1437T686 1518L696 1440Q524 1428 476 1355T428 1081Q428 626 201 541V537Q297 500 362 366T428 -27Q428 -228 476 -299T696 -385L686 -463Q258 -463 258 -135Z" />
<glyph unicode="|" glyph-name="bar" horiz-adv-x="483" d="M164 -461V1534H319V-461H164Z" />
<glyph unicode="}" glyph-name="braceright" horiz-adv-x="706" d="M279 -27Q279 231 344 365T506 537V541Q279 627 279 1081Q279 1282 231 1354T12 1440L23 1518Q218 1518 333 1437T449 1190Q449 1180 448 1159Q448 1096 448 1059T454 953T467 840T493 742T537
655T603 601T694 575V500Q649 498 612 483T551 432T508 365T478 276T461 181T452 78T449 -15T448 -104Q448 -125 449 -135Q449 -463 23 -463L12 -385Q184 -371 231 -300T279 -27Z" />
<glyph unicode="~" glyph-name="asciitilde" horiz-adv-x="1206" d="M127 352Q127 520 198 601T395 682Q475 682 536 648T628 576T705 503T803 469Q883 469 914 532T946 674H1077Q1077 506 1006 425T809 344Q743 344 692 365T608 419T546 482T480 535T401 557Q321
557 290 494T258 352H127Z" />
<glyph unicode="&#xa0;" glyph-name="uni00A0" horiz-adv-x="454" />
<glyph unicode="&#xa1;" glyph-name="exclamdown" horiz-adv-x="579" d="M324 541L432 -420L145 -498L137 -487Q164 -417 178 -258L262 541H324ZM434 870T434 813T394 715T297 674Q238 674 198 714T158 813Q158 870 199 910T297 950T394 910Z" />
<glyph unicode="&#xa2;" glyph-name="cent" horiz-adv-x="901" d="M70 561Q70 729 179 860T481 1001L492 1186H580L569 999Q669 987 750 946T831 846Q831 760 748 760Q713 760 684 785T624 851T565 907L535 287Q549 285 580 285Q707 285 823 377L848 330Q844 324
837 312T801 269T739 213T648 167T526 141L518 -45H430L438 143Q262 161 166 281T70 561ZM281 641Q281 539 325 449T449 315L477 928Q387 920 334 837T281 641Z" />
<glyph unicode="&#xa3;" glyph-name="sterling" horiz-adv-x="1058" d="M106 500V586H242L264 766Q313 1161 664 1161Q758 1161 833 1132T909 1040Q909 1001 886 977T819 952T716 1011T600 1071Q534 1071 509 1009T467 760L451 586H809L799 500H442V492Q434 406
414 327T376 211L358 174Q508 108 672 109Q897 109 932 264L946 332H1016Q1008 252 992 192T940 72T842 -19T690 -51Q614 -51 532 -29L354 20Q301 32 270 33Q194 33 104 0L80 63Q84 65 91 69T117 89T152 123T183 177T203 248L231 500H106Z" />
<glyph unicode="&#xa5;" glyph-name="yen" horiz-adv-x="1079" d="M141 553V639H387L154 1014Q138 1041 114 1057T75 1077L59 1081V1137H141L371 1143L377 1137Q352 1078 381 1026L541 760Q555 735 596 647L801 983Q852 1065 737 1081V1137H1008L1016 1104Q973
1098 924 1020L684 639H952V553H645V418H952V332H645V190L635 80L791 61L782 6L313 -6V57Q436 71 436 190V332H141V418H436V553H141Z" />
<glyph unicode="&#xa6;" glyph-name="brokenbar" horiz-adv-x="448" d="M141 676V1409H307V676H141ZM141 358H307V-375H141V358Z" />
<glyph unicode="&#xa7;" glyph-name="section" horiz-adv-x="962" d="M70 -293Q78 -301 97 -314T183 -349T328 -371Q502 -371 567 -240T600 78L494 664Q484 723 478 761T468 870T475 989T517 1082T602 1147L612 1137Q581 1008 614 821L743 94Q770 -53 742 -182T617
-398T369 -485Q277 -485 194 -453T74 -387L37 -354L70 -293ZM303 84L174 811Q147 958 176 1087T301 1304T547 1391Q639 1391 722 1358T842 1292L879 1260L846 1198Q838 1206 819 1219T733 1254T588 1276Q414 1276 349 1145T315 827L422 242Q432 183 438 145T447
35T441 -84T399 -177T313 -242L303 -231Q338 -104 303 84Z" />
<glyph unicode="&#xa8;" glyph-name="dieresis" horiz-adv-x="1024" d="M305 1149Q254 1149 218 1184T182 1270T218 1357T305 1393Q358 1393 394 1357T430 1270T394 1184T305 1149ZM770 1149T717 1149T628 1184T592 1270T628 1357T717 1393T806 1357T842 1270T806 1184Z" />
<glyph unicode="&#xa9;" glyph-name="copyright" horiz-adv-x="1544" d="M66 389T66 682T272 1182T772 1389T1272 1182T1479 682T1272 182T772 -25T273 182ZM164 940T164 682T341 244T772 63Q1028 63 1204 243T1380 682T1204 1120T772 1300Q518 1300 341 1120ZM362
674Q362 846 479 978T809 1110Q856 1110 905 1100T1003 1075T1067 1055L1032 829H963Q959 1034 778 1034Q674 1034 610 944T545 723Q545 567 627 476T836 385Q897 385 957 408T1048 456L1077 479L1100 416Q1053 353 964 313T797 272Q617 272 490 383T362 674Z"
/>
<glyph unicode="&#xaa;" glyph-name="ordfeminine" horiz-adv-x="800" d="M250 707Q174 707 128 749T82 860Q82 962 183 1023T438 1102V1153Q438 1327 365 1327Q328 1327 293 1290T241 1217L223 1180H160L131 1303Q143 1313 166 1327T266 1366T420 1391Q529 1391
566 1346T604 1184V862Q604 796 633 797Q645 797 663 806T693 823L705 831L733 788Q657 706 561 707Q508 707 475 735T442 821Q434 809 418 790T350 739T250 707ZM315 809Q340 809 369 824T418 856L436 872V1038Q356 1028 304 990T252 891Q252 809 315 809Z" />
<glyph unicode="&#xab;" glyph-name="guillemotleft" horiz-adv-x="1054" d="M68 512V520Q93 538 117 560T228 670T502 950L567 930L307 516L567 102L502 82Q129 467 68 512ZM471 512V520Q528 561 907 950L973 930L713 516L973 102L907 82Q532 467 471 512Z" />
<glyph unicode="&#xac;" glyph-name="logicalnot" horiz-adv-x="1064" d="M47 676V801H969V227H834V676H47Z" />
<glyph unicode="&#xae;" glyph-name="registered" horiz-adv-x="843" d="M567 733T422 733T172 837T68 1087T172 1337T421 1442T671 1338T776 1088T672 838ZM422 795Q537 795 621 882T705 1087T621 1292T422 1378Q305 1378 222 1292T139 1088T222 882T422 795ZM258
913V946Q293 950 293 977V1202Q293 1220 286 1226T252 1241V1266H401Q553 1266 553 1180Q553 1133 485 1090Q495 1070 514 1042L559 977Q577 950 608 946L606 915L496 913Q486 940 463 975L408 1057H381V977L377 952L428 946L426 918L258 913ZM381 1229V1094H420Q432
1096 446 1113T461 1163Q461 1229 393 1229H381Z" />
<glyph unicode="&#xaf;" glyph-name="overscore" horiz-adv-x="1024" d="M264 1198V1331H760V1198H264Z" />
<glyph unicode="&#xb0;" glyph-name="degree" horiz-adv-x="647" d="M264 999T323 999T424 1041T465 1144T424 1248T324 1290T223 1248T182 1145T223 1041ZM428 899T324 899T147 970T74 1144T146 1319T323 1391T500 1319T573 1145T501 971Z" />
<glyph unicode="&#xb1;" glyph-name="plusminus" horiz-adv-x="1064" d="M84 645V770H465V1143H600V770H975V645H600V246H465V645H84ZM92 0V127H975V0H92Z" />
<glyph unicode="&#xb2;" glyph-name="uni00B2" horiz-adv-x="688" d="M57 770L41 827Q53 839 89 873T141 922T188 968T237 1020T278 1070T317 1122Q395 1243 395 1343Q395 1411 357 1446T262 1481Q168 1481 90 1419L49 1466Q61 1482 86 1507T185 1572T338 1612Q436
1612 509 1559T582 1409Q582 1337 530 1250T424 1106T261 938Q238 915 225 903H457Q512 903 535 927T578 1014H639L604 770H57Z" />
<glyph unicode="&#xb3;" glyph-name="uni00B3" horiz-adv-x="661" d="M264 756Q182 756 109 780T35 854Q35 879 52 893T96 907Q141 907 188 859T279 811Q328 811 367 870T406 997Q406 1069 359 1114T229 1159L174 1153V1231Q254 1239 307 1287T360 1409Q360 1499
262 1499Q184 1499 119 1454L80 1501Q90 1513 109 1531T193 1581T328 1612Q420 1612 485 1570T551 1444Q551 1325 350 1229Q461 1213 533 1153T606 1014Q606 905 503 831T264 756Z" />
<glyph unicode="&#xb4;" glyph-name="acute" horiz-adv-x="1036" d="M389 1036L319 1075L485 1425L692 1444V1389L389 1036Z" />
<glyph unicode="&#xb5;" glyph-name="uni00B5" horiz-adv-x="1130" d="M141 -117V688Q141 745 138 798T131 877L127 901L356 948L365 942Q351 883 350 725V317Q350 120 473 120T725 240V692Q725 749 721 802T714 881L711 905L940 952L948 946Q934 887 934 729V199Q934
133 949 108T1014 82H1085L1092 29Q961 -24 887 -25Q735 -25 735 113V190Q678 98 595 37T412 -25Q316 -25 248 43Q254 -53 291 -199T328 -383Q328 -430 300 -457T236 -485Q134 -485 133 -338Q133 -309 137 -236T141 -117Z" />
<glyph unicode="&#xb6;" glyph-name="paragraph" horiz-adv-x="1325" d="M352 -395Q352 -352 380 -328T446 -303Q462 -303 494 -311T541 -319Q617 -319 639 -239T662 31V326H633Q342 326 190 477T37 844Q37 1055 191 1210T623 1366H1075Q1196 1366 1237 1374L1219
1253H1073V0H948V1253H795V174Q795 -98 766 -188Q729 -317 649 -401T455 -485Q406 -485 379 -458T352 -395Z" />
<glyph unicode="&#xb7;" glyph-name="middot" horiz-adv-x="520" d="M317 383T260 383T162 424T121 520Q121 577 162 618T260 659T357 619T397 520Q397 465 357 424Z" />
<glyph unicode="&#xb8;" glyph-name="cedilla" horiz-adv-x="1024" d="M430 -172Q430 -145 450 -102T490 -30L510 0H578Q555 -63 555 -90Q555 -113 582 -130T644 -159T705 -205T733 -285Q733 -365 666 -425T500 -485Q445 -485 397 -466T327 -428L305 -410L338
-338Q408 -391 483 -391Q526 -391 555 -373T584 -324Q584 -291 507 -252T430 -172Z" />
<glyph unicode="&#xb9;" glyph-name="uni00B9" horiz-adv-x="573" d="M61 766V827L147 831Q194 833 207 851T221 903V1419Q221 1452 216 1465T202 1478T178 1475L51 1446L39 1513L414 1620L420 1612Q404 1569 403 1473V903L399 842L561 831L555 774L61 766Z" />
<glyph unicode="&#xba;" glyph-name="ordmasculine" horiz-adv-x="843" d="M410 707Q256 707 167 799T78 1034T166 1284T430 1391Q590 1391 680 1303T770 1073Q770 928 675 818T410 707ZM432 772Q510 772 548 852T586 1038Q586 1153 544 1239T416 1325Q338 1325
298 1251T258 1071Q258 952 302 862T432 772Z" />
<glyph unicode="&#xbb;" glyph-name="guillemotright" horiz-adv-x="1054" d="M487 102L745 516L487 930L553 950Q739 757 826 670T938 561T987 520V512Q926 467 553 82L487 102ZM82 102L342 516L82 930L147 950Q333 757 420 670T532 561T582 520V512Q521 467
147 82L82 102Z" />
<glyph unicode="&#xbc;" glyph-name="onequarter" horiz-adv-x="1683" d="M977 225L963 301L1356 821L1495 844Q1487 795 1487 700V319H1626L1606 225H1487V129L1483 68L1595 57L1591 4L1217 -4V51Q1309 61 1309 129V225H977ZM1063 319H1309V635L1063 319ZM88
541V602L174 606Q221 608 234 626T248 678V1194Q248 1227 243 1240T229 1252T205 1249L78 1221L66 1288L440 1395L446 1386Q430 1343 430 1247V678L426 616L588 606L582 549L88 541ZM526 0H401L1208 1399L1309 1362L526 0Z" />
<glyph unicode="&#xbd;" glyph-name="onehalf" horiz-adv-x="1796" d="M1153 0L1137 57Q1149 69 1185 103T1237 152T1284 198T1333 250T1374 300T1413 352Q1491 473 1491 573Q1491 641 1453 676T1358 711Q1264 711 1186 649L1145 696Q1157 712 1181 737T1281 802T1434
842Q1532 842 1604 789T1677 639Q1677 567 1625 480T1520 336T1356 168Q1333 145 1321 133H1552Q1607 133 1631 157T1673 244H1735L1700 0H1153ZM86 541V602L172 606Q219 608 232 626T246 678V1194Q246 1227 241 1240T227 1252T203 1249L76 1221L63 1288L438 1395L444
1386Q428 1343 428 1247V678L424 616L586 606L580 549L86 541ZM543 0H418L1225 1399L1325 1362L543 0Z" />
<glyph unicode="&#xbe;" glyph-name="threequarters" horiz-adv-x="1677" d="M967 225L952 301L1346 821L1485 844Q1477 795 1477 700V319H1616L1595 225H1477V129L1473 68L1585 57L1581 4L1206 -4V51Q1298 61 1298 129V225H967ZM291 530Q209 530 135 555T61 629Q61
654 78 668T123 682Q168 682 215 634T305 586Q354 586 393 645T432 772Q432 844 385 889T256 934L201 928V1006Q281 1014 334 1062T387 1184Q387 1274 289 1274Q211 1274 145 1229L106 1276Q116 1288 136 1306T220 1355T354 1386Q446 1386 512 1345T578 1219Q578
1100 377 1004Q488 988 560 927T633 788Q633 679 530 605T291 530ZM516 0H391L1198 1399L1298 1362L516 0ZM1053 319H1298V635L1053 319Z" />
<glyph unicode="&#xbf;" glyph-name="questiondown" horiz-adv-x="692" d="M457 539Q467 492 467 432Q467 346 432 267T356 142T281 48T246 -35Q246 -92 341 -158T530 -262L625 -299L584 -516Q572 -512 551 -505T471 -474T357 -422T236 -355T122 -277T41 -190T8
-94T48 6T145 111T260 223T357 364T397 539H457ZM559 870T559 813T519 715T422 674T324 714T283 813Q283 870 324 910T422 950T519 910Z" />
<glyph unicode="&#xc0;" glyph-name="Agrave" horiz-adv-x="1277" d="M-31 0V63Q73 73 106 158L588 1358L690 1380L1143 215Q1176 129 1206 99T1292 59L1284 0H1198L848 -6V68Q897 70 922 87T932 147L819 449H354L326 428L195 86L369 63L358 0H-31ZM629 967Q590
1082 584 1106L369 545H784L629 967ZM371 1593V1649L446 1772H457L834 1550L801 1475L371 1593Z" />
<glyph unicode="&#xc1;" glyph-name="Aacute" horiz-adv-x="1277" d="M-31 0V63Q73 73 106 158L588 1358L690 1380L1143 215Q1176 129 1206 99T1292 59L1284 0H1198L848 -6V68Q897 70 922 87T932 147L819 449H354L326 428L195 86L369 63L358 0H-31ZM629 967Q590
1082 584 1106L369 545H784L629 967ZM444 1550L821 1772H831L907 1649V1593L477 1475L444 1550Z" />
<glyph unicode="&#xc2;" glyph-name="Acircumflex" horiz-adv-x="1277" d="M-31 0V63Q73 73 106 158L588 1358L690 1380L1143 215Q1176 129 1206 99T1292 59L1284 0H1198L848 -6V68Q897 70 922 87T932 147L819 449H354L326 428L195 86L369 63L358 0H-31ZM629 967Q590
1082 584 1106L369 545H784L629 967ZM305 1524L578 1784H702L973 1524L911 1470L645 1626H633L367 1470L305 1524Z" />
<glyph unicode="&#xc3;" glyph-name="Atilde" horiz-adv-x="1277" d="M-31 0V63Q73 73 106 158L588 1358L690 1380L1143 215Q1176 129 1206 99T1292 59L1284 0H1198L848 -6V68Q897 70 922 87T932 147L819 449H354L326 428L195 86L369 63L358 0H-31ZM629 967Q590
1082 584 1106L369 545H784L629 967ZM348 1499L270 1516Q270 1526 273 1541T289 1597T323 1669T385 1725T481 1751Q549 1751 660 1694T817 1636Q858 1636 885 1665T922 1722L930 1751L1010 1743Q1010 1733 1008 1717T993 1658T957 1584T889 1526T782 1499Q706 1499
605 1556T461 1614Q422 1614 395 1585T357 1528L348 1499Z" />
<glyph unicode="&#xc4;" glyph-name="Adieresis" horiz-adv-x="1277" d="M-31 0V63Q73 73 106 158L588 1358L690 1380L1143 215Q1176 129 1206 99T1292 59L1284 0H1198L848 -6V68Q897 70 922 87T932 147L819 449H354L326 428L195 86L369 63L358 0H-31ZM629 967Q590
1082 584 1106L369 545H784L629 967ZM270 1573T270 1624T305 1711T393 1747T482 1711T518 1624T482 1538T393 1503Q342 1503 306 1538ZM760 1573T760 1624T795 1711T884 1747T973 1711T1008 1624T972 1538T885 1503Q832 1503 796 1538Z" />
<glyph unicode="&#xc5;" glyph-name="Aring" horiz-adv-x="1277" d="M-31 0V63Q73 73 106 158L588 1358L690 1380L1143 215Q1176 129 1206 99T1292 59L1284 0H1198L848 -6V68Q897 70 922 87T932 147L819 449H354L326 428L195 86L369 63L358 0H-31ZM629 967Q590
1082 584 1106L369 545H784L629 967ZM737 1454T639 1454T491 1502T440 1622Q440 1688 491 1736T639 1784T786 1736T838 1622Q838 1550 788 1502ZM639 1528Q682 1528 708 1555T735 1620Q735 1655 711 1681T639 1708T569 1683T545 1620Q545 1581 569 1555T639 1528Z"
/>
<glyph unicode="&#xc6;" glyph-name="AE" horiz-adv-x="1810" d="M-43 0V63Q43 71 94 158L664 1184Q693 1229 665 1259T543 1311V1366H1548L1702 1374L1638 1024H1563Q1571 1176 1521 1225T1341 1274H1092L1069 1251V719H1432L1448 858L1530 870V496H1427V629H1092L1069
606V207L1059 92H1364Q1493 92 1540 133T1667 340H1743L1667 0H1026L705 -6V63Q848 79 848 190V629H494L459 606L174 86L350 63L340 0H-43ZM770 1171L520 719H848V1260Q805 1234 770 1171Z" />
<glyph unicode="&#xc7;" glyph-name="Ccedilla" horiz-adv-x="1396" d="M631 -172Q631 -117 698 -18Q430 15 256 204T82 666Q82 967 290 1179T840 1391Q938 1391 1116 1365T1300 1339L1239 1024H1165Q1163 1169 1062 1236T811 1303Q578 1303 445 1140T311 735Q311
461 479 296T895 131Q1004 131 1105 167T1252 239L1298 274L1329 227Q1323 217 1310 200T1249 139T1146 64T997 3T801 -25Q795 -25 785 -24T770 -23Q756 -70 756 -90Q756 -113 783 -130T845 -159T906 -205T934 -285Q934 -365 867 -425T700 -485Q645 -485 597 -466T527
-428L506 -410L539 -338Q609 -391 684 -391Q727 -391 755 -373T784 -324Q784 -291 708 -252T631 -172Z" />
<glyph unicode="&#xc8;" glyph-name="Egrave" horiz-adv-x="1204" d="M365 1593V1649L440 1772H451L827 1550L795 1475L365 1593ZM100 -6V63Q241 79 242 190V1161Q242 1237 216 1262T80 1311V1366H944L1096 1374L1032 1024H958Q966 1176 917 1225T737 1274H485L463
1251V739H827L844 858L924 870V496H823V649H485L463 627V207L453 92H760Q889 92 936 133T1063 340H1137L1061 0H420L100 -6Z" />
<glyph unicode="&#xc9;" glyph-name="Eacute" horiz-adv-x="1204" d="M100 -6V63Q241 79 242 190V1161Q242 1237 216 1262T80 1311V1366H944L1096 1374L1032 1024H958Q966 1176 917 1225T737 1274H485L463 1251V739H827L844 858L924 870V496H823V649H485L463 627V207L453
92H760Q889 92 936 133T1063 340H1137L1061 0H420L100 -6ZM438 1550L815 1772H825L901 1649V1593L471 1475L438 1550Z" />
<glyph unicode="&#xca;" glyph-name="Ecircumflex" horiz-adv-x="1204" d="M299 1524L571 1784H696L967 1524L905 1470L639 1626H627L360 1470L299 1524ZM100 -6V63Q241 79 242 190V1161Q242 1237 216 1262T80 1311V1366H944L1096 1374L1032 1024H958Q966 1176
917 1225T737 1274H485L463 1251V739H827L844 858L924 870V496H823V649H485L463 627V207L453 92H760Q889 92 936 133T1063 340H1137L1061 0H420L100 -6Z" />
<glyph unicode="&#xcb;" glyph-name="Edieresis" horiz-adv-x="1204" d="M100 -6V63Q241 79 242 190V1161Q242 1237 216 1262T80 1311V1366H944L1096 1374L1032 1024H958Q966 1176 917 1225T737 1274H485L463 1251V739H827L844 858L924 870V496H823V649H485L463
627V207L453 92H760Q889 92 936 133T1063 340H1137L1061 0H420L100 -6ZM264 1573T264 1624T300 1711T387 1747Q440 1747 476 1711T512 1624T476 1538T387 1503Q336 1503 300 1538ZM754 1573T754 1624T789 1711T879 1747Q930 1747 965 1711T1001 1624T966 1538T879
1503Q826 1503 790 1538Z" />
<glyph unicode="&#xcc;" glyph-name="Igrave" horiz-adv-x="694" d="M100 -6V63Q166 71 204 105T242 193V1161Q242 1241 222 1264T96 1311V1366H250L520 1374L530 1366Q462 1284 463 1114V193L453 86L639 68L631 6L100 -6ZM72 1593V1649L147 1772H158L535 1550L502
1475L72 1593Z" />
<glyph unicode="&#xcd;" glyph-name="Iacute" horiz-adv-x="694" d="M100 -6V63Q166 71 204 105T242 193V1161Q242 1241 222 1264T96 1311V1366H250L520 1374L530 1366Q462 1284 463 1114V193L453 86L639 68L631 6L100 -6ZM145 1550L522 1772H532L608 1649V1593L178
1475L145 1550Z" />
<glyph unicode="&#xce;" glyph-name="Icircumflex" horiz-adv-x="694" d="M100 -6V63Q166 71 204 105T242 193V1161Q242 1241 222 1264T96 1311V1366H250L520 1374L530 1366Q462 1284 463 1114V193L453 86L639 68L631 6L100 -6ZM6 1524L279 1784H403L674 1524L612
1470L346 1626H334L68 1470L6 1524Z" />
<glyph unicode="&#xcf;" glyph-name="Idieresis" horiz-adv-x="694" d="M20 1573T20 1624T56 1711T143 1747Q196 1747 232 1711T268 1624T233 1538T143 1503Q92 1503 56 1538ZM410 1573T410 1624T444 1711T532 1747T621 1711T657 1624T622 1538T532 1503Q481 1503
446 1538ZM100 -6V63Q166 71 204 105T242 193V1161Q242 1241 222 1264T96 1311V1366H250L520 1374L530 1366Q462 1284 463 1114V193L453 86L639 68L631 6L100 -6Z" />
<glyph unicode="&#xd0;" glyph-name="Eth" horiz-adv-x="1525" d="M59 645V743H242V1161Q242 1237 216 1262T78 1311V1366H659Q819 1366 955 1332T1203 1227T1379 1029T1444 735Q1444 393 1206 197T590 0H420L98 -6V63Q241 79 242 190V645H59ZM453 92H590Q897
92 1047 250T1198 682Q1198 954 1058 1114T657 1274H485L463 1251V743H784V645H463V207L453 92Z" />
<glyph unicode="&#xd1;" glyph-name="Ntilde" horiz-adv-x="1583" d="M102 -6V63Q249 79 250 190V1094Q250 1198 216 1241T82 1311V1366H143L375 1374Q400 1327 453 1268L1184 455Q1223 412 1266 352V1149Q1266 1190 1263 1210T1245 1253T1194 1287T1100 1305V1366H1499L1509
1333Q1503 1331 1494 1328T1461 1309T1418 1272T1384 1211T1368 1124V-10H1300L428 977Q393 1014 350 1077V190L340 80L524 68L516 6L102 -6ZM518 1499L440 1516Q440 1526 443 1541T459 1597T493 1669T555 1725T651 1751Q719 1751 830 1694T987 1636Q1028 1636
1056 1665T1093 1722L1100 1751L1180 1743Q1180 1733 1178 1717T1163 1658T1127 1584T1059 1526T952 1499Q876 1499 775 1556T631 1614Q592 1614 565 1585T527 1528L518 1499Z" />
<glyph unicode="&#xd2;" glyph-name="Ograve" horiz-adv-x="1630" d="M543 1593V1649L618 1772H629L1006 1550L973 1475L543 1593ZM328 719Q328 561 384 415T558 167T829 66Q1044 66 1172 250T1300 678Q1300 836 1245 975T1073 1207T801 1300Q654 1300 544 1217T381
1002T328 719ZM82 664Q82 803 132 932T274 1163T514 1328T842 1391Q1170 1391 1359 1201T1548 731Q1548 538 1458 368T1190 86T784 -25Q465 -25 274 177T82 664Z" />
<glyph unicode="&#xd3;" glyph-name="Oacute" horiz-adv-x="1630" d="M616 1550L993 1772H1004L1079 1649V1593L649 1475L616 1550ZM328 719Q328 561 384 415T558 167T829 66Q1044 66 1172 250T1300 678Q1300 836 1245 975T1073 1207T801 1300Q654 1300 544 1217T381
1002T328 719ZM82 664Q82 803 132 932T274 1163T514 1328T842 1391Q1170 1391 1359 1201T1548 731Q1548 538 1458 368T1190 86T784 -25Q465 -25 274 177T82 664Z" />
<glyph unicode="&#xd4;" glyph-name="Ocircumflex" horiz-adv-x="1630" d="M477 1524L750 1784H874L1145 1524L1083 1470L817 1626H805L539 1470L477 1524ZM328 719Q328 561 384 415T558 167T829 66Q1044 66 1172 250T1300 678Q1300 836 1245 975T1073 1207T801
1300Q654 1300 544 1217T381 1002T328 719ZM82 664Q82 803 132 932T274 1163T514 1328T842 1391Q1170 1391 1359 1201T1548 731Q1548 538 1458 368T1190 86T784 -25Q465 -25 274 177T82 664Z" />
<glyph unicode="&#xd5;" glyph-name="Otilde" horiz-adv-x="1630" d="M328 719Q328 561 384 415T558 167T829 66Q1044 66 1172 250T1300 678Q1300 836 1245 975T1073 1207T801 1300Q654 1300 544 1217T381 1002T328 719ZM82 664Q82 803 132 932T274 1163T514 1328T842
1391Q1170 1391 1359 1201T1548 731Q1548 538 1458 368T1190 86T784 -25Q465 -25 274 177T82 664ZM520 1499L442 1516Q442 1526 445 1541T462 1597T495 1669T557 1725T653 1751Q721 1751 832 1694T989 1636Q1030 1636 1057 1665T1094 1722L1102 1751L1182 1743Q1182
1733 1180 1717T1165 1658T1129 1584T1061 1526T954 1499Q878 1499 777 1556T633 1614Q594 1614 567 1585T529 1528L520 1499Z" />
<glyph unicode="&#xd6;" glyph-name="Odieresis" horiz-adv-x="1630" d="M328 719Q328 561 384 415T558 167T829 66Q1044 66 1172 250T1300 678Q1300 836 1245 975T1073 1207T801 1300Q654 1300 544 1217T381 1002T328 719ZM82 664Q82 803 132 932T274 1163T514
1328T842 1391Q1170 1391 1359 1201T1548 731Q1548 538 1458 368T1190 86T784 -25Q465 -25 274 177T82 664ZM442 1573T442 1624T477 1711T565 1747T654 1711T690 1624T654 1538T565 1503Q514 1503 478 1538ZM932 1573T932 1624T968 1711T1057 1747T1145 1711T1180
1624T1144 1538T1057 1503Q1004 1503 968 1538Z" />
<glyph unicode="&#xd7;" glyph-name="multiply" horiz-adv-x="1064" d="M68 891L158 983L532 606L907 983L995 891L623 516L1001 139L909 49L532 426L156 47L66 139L442 516L68 891Z" />
<glyph unicode="&#xd8;" glyph-name="Oslash" horiz-adv-x="1630" d="M82 664Q82 803 132 932T274 1163T514 1328T842 1391Q1053 1391 1217 1303L1313 1427H1434L1298 1251Q1419 1161 1483 1025T1548 731Q1548 538 1458 368T1190 86T784 -25Q571 -25 403 74L301
-61H178L324 129Q209 225 146 365T82 664ZM1300 678Q1300 918 1180 1094L510 213Q643 66 829 66Q1044 66 1172 250T1300 678ZM328 719Q328 479 449 293L1116 1169Q985 1300 801 1300Q654 1300 544 1217T381 1002T328 719Z" />
<glyph unicode="&#xd9;" glyph-name="Ugrave" horiz-adv-x="1505" d="M508 1593V1649L584 1772H594L971 1550L938 1475L508 1593ZM188 481V1161Q188 1241 168 1264T43 1311V1366H197L467 1374L477 1366Q409 1286 410 1114V498Q410 293 526 187T805 80T1085 186T1204
483V1151Q1204 1192 1201 1211T1184 1253T1136 1287T1044 1305V1366H1452L1462 1333Q1456 1331 1447 1327T1412 1307T1367 1269T1333 1207T1317 1120V489Q1317 245 1156 110T752 -25Q643 -25 547 3T368 87T237 244T188 481Z" />
<glyph unicode="&#xda;" glyph-name="Uacute" horiz-adv-x="1505" d="M188 481V1161Q188 1241 168 1264T43 1311V1366H197L467 1374L477 1366Q409 1286 410 1114V498Q410 293 526 187T805 80T1085 186T1204 483V1151Q1204 1192 1201 1211T1184 1253T1136 1287T1044
1305V1366H1452L1462 1333Q1456 1331 1447 1327T1412 1307T1367 1269T1333 1207T1317 1120V489Q1317 245 1156 110T752 -25Q643 -25 547 3T368 87T237 244T188 481ZM582 1550L958 1772H969L1044 1649V1593L614 1475L582 1550Z" />
<glyph unicode="&#xdb;" glyph-name="Ucircumflex" horiz-adv-x="1505" d="M442 1524L715 1784H840L1110 1524L1049 1470L782 1626H770L504 1470L442 1524ZM188 481V1161Q188 1241 168 1264T43 1311V1366H197L467 1374L477 1366Q409 1286 410 1114V498Q410 293
526 187T805 80T1085 186T1204 483V1151Q1204 1192 1201 1211T1184 1253T1136 1287T1044 1305V1366H1452L1462 1333Q1456 1331 1447 1327T1412 1307T1367 1269T1333 1207T1317 1120V489Q1317 245 1156 110T752 -25Q643 -25 547 3T368 87T237 244T188 481Z" />
<glyph unicode="&#xdc;" glyph-name="Udieresis" horiz-adv-x="1505" d="M188 481V1161Q188 1241 168 1264T43 1311V1366H197L467 1374L477 1366Q409 1286 410 1114V498Q410 293 526 187T805 80T1085 186T1204 483V1151Q1204 1192 1201 1211T1184 1253T1136 1287T1044
1305V1366H1452L1462 1333Q1456 1331 1447 1327T1412 1307T1367 1269T1333 1207T1317 1120V489Q1317 245 1156 110T752 -25Q643 -25 547 3T368 87T237 244T188 481ZM408 1573T408 1624T443 1711T530 1747Q583 1747 619 1711T655 1624T620 1538T530 1503Q479 1503
444 1538ZM897 1573T897 1624T933 1711T1022 1747Q1073 1747 1109 1711T1145 1624T1109 1538T1022 1503Q969 1503 933 1538Z" />
<glyph unicode="&#xdd;" glyph-name="Yacute" horiz-adv-x="1208" d="M352 -6V63Q420 71 458 105T496 193V604L111 1221Q88 1256 62 1278T18 1306L2 1311V1366H104L348 1374L356 1366Q319 1288 360 1219L602 821Q625 786 662 707L954 1184Q983 1223 965 1260T872
1311V1366H1212L1221 1333Q1149 1308 1087 1212L717 616V193L707 86L887 68L879 6L352 -6ZM424 1550L801 1772H811L887 1649V1593L457 1475L424 1550Z" />
<glyph unicode="&#xde;" glyph-name="Thorn" horiz-adv-x="1169" d="M594 319V385Q739 393 810 469T881 662Q881 812 780 888T524 965H485L463 942V193L453 86L639 68L631 6L100 -6V63Q166 71 204 105T242 193V1161Q242 1241 222 1264T96 1311V1366H250L520 1374L530
1366Q462 1284 463 1114V1055H608Q739 1055 851 1024T1044 914T1126 715Q1126 514 960 407T594 319Z" />
<glyph unicode="&#xdf;" glyph-name="germandbls" horiz-adv-x="1165" d="M72 -6V53Q193 67 193 180V811H66V883L193 928V979Q193 1102 239 1211T393 1399T653 1477Q796 1477 885 1414T975 1237Q975 1180 940 1119T864 1014T789 918T754 819Q754 770 792 723T885
635T995 548T1089 432T1128 281Q1128 142 1029 59T784 -25Q725 -25 667 -13T558 36T508 125Q508 148 515 178T529 228L537 248H604Q637 51 782 51Q848 51 898 87T948 193Q948 248 911 297T822 387T719 472T631 579T594 717Q594 785 625 847T695 950T765 1052T797
1178Q797 1270 746 1327T610 1384Q499 1384 450 1291T401 1014V109L410 10L403 4L72 -6Z" />
<glyph unicode="&#xe0;" glyph-name="agrave" horiz-adv-x="960" d="M49 193Q49 330 183 414T502 526L571 537Q577 682 563 754Q538 871 449 870Q392 870 340 818T263 715L240 664H162L123 829Q141 843 174 863T312 916T526 950Q676 950 728 886T780 657V190Q780
139 790 117T834 94Q857 94 882 104T922 124L936 133L965 84Q955 72 934 54T852 5T731 -25Q661 -25 620 12T578 117V160Q574 152 566 140T528 95T465 39T380 -5T272 -25Q174 -25 112 36T49 193ZM375 113Q455 113 571 209V457L512 446Q412 430 339 378T266 236Q266
181 296 147T375 113ZM180 1389V1444L389 1425L555 1075L483 1036L180 1389Z" />
<glyph unicode="&#xe1;" glyph-name="aacute" horiz-adv-x="960" d="M49 193Q49 330 183 414T502 526L571 537Q577 682 563 754Q538 871 449 870Q392 870 340 818T263 715L240 664H162L123 829Q141 843 174 863T312 916T526 950Q676 950 728 886T780 657V190Q780
139 790 117T834 94Q857 94 882 104T922 124L936 133L965 84Q955 72 934 54T852 5T731 -25Q661 -25 620 12T578 117V160Q574 152 566 140T528 95T465 39T380 -5T272 -25Q174 -25 112 36T49 193ZM375 113Q455 113 571 209V457L512 446Q412 430 339 378T266 236Q266
181 296 147T375 113ZM438 1036L369 1075L535 1425L741 1444V1389L438 1036Z" />
<glyph unicode="&#xe2;" glyph-name="acircumflex" horiz-adv-x="960" d="M49 193Q49 330 183 414T502 526L571 537Q577 682 563 754Q538 871 449 870Q392 870 340 818T263 715L240 664H162L123 829Q141 843 174 863T312 916T526 950Q676 950 728 886T780 657V190Q780
139 790 117T834 94Q857 94 882 104T922 124L936 133L965 84Q955 72 934 54T852 5T731 -25Q661 -25 620 12T578 117V160Q574 152 566 140T528 95T465 39T380 -5T272 -25Q174 -25 112 36T49 193ZM176 1075L418 1436H510L750 1075L682 1030L463 1262L244 1030L176
1075ZM375 113Q455 113 571 209V457L512 446Q412 430 339 378T266 236Q266 181 296 147T375 113Z" />
<glyph unicode="&#xe3;" glyph-name="atilde" horiz-adv-x="960" d="M49 193Q49 330 183 414T502 526L571 537Q577 682 563 754Q538 871 449 870Q392 870 340 818T263 715L240 664H162L123 829Q141 843 174 863T312 916T526 950Q676 950 728 886T780 657V190Q780
139 790 117T834 94Q857 94 882 104T922 124L936 133L965 84Q955 72 934 54T852 5T731 -25Q661 -25 620 12T578 117V160Q574 152 566 140T528 95T465 39T380 -5T272 -25Q174 -25 112 36T49 193ZM375 113Q455 113 571 209V457L512 446Q412 430 339 378T266 236Q266
181 296 147T375 113ZM154 1147Q152 1157 152 1175T158 1240T180 1321T236 1384T334 1413Q393 1413 440 1376T524 1303T598 1266Q641 1266 663 1299T688 1367L690 1401H774Q770 1399 774 1373T768 1304T743 1223T686 1155T586 1126T481 1163T401 1238T328 1276Q287
1276 265 1244T240 1180L238 1147H154Z" />
<glyph unicode="&#xe4;" glyph-name="adieresis" horiz-adv-x="960" d="M49 193Q49 330 183 414T502 526L571 537Q577 682 563 754Q538 871 449 870Q392 870 340 818T263 715L240 664H162L123 829Q141 843 174 863T312 916T526 950Q676 950 728 886T780 657V190Q780
139 790 117T834 94Q857 94 882 104T922 124L936 133L965 84Q955 72 934 54T852 5T731 -25Q661 -25 620 12T578 117V160Q574 152 566 140T528 95T465 39T380 -5T272 -25Q174 -25 112 36T49 193ZM375 113Q455 113 571 209V457L512 446Q412 430 339 378T266 236Q266
181 296 147T375 113ZM256 1149Q205 1149 169 1184T133 1270T169 1357T256 1393Q309 1393 345 1357T381 1270T345 1184T256 1149ZM721 1149T668 1149T579 1184T543 1270T578 1357T667 1393T757 1357T793 1270T757 1184Z" />
<glyph unicode="&#xe5;" glyph-name="aring" horiz-adv-x="960" d="M49 193Q49 330 183 414T502 526L571 537Q577 682 563 754Q538 871 449 870Q392 870 340 818T263 715L240 664H162L123 829Q141 843 174 863T312 916T526 950Q676 950 728 886T780 657V190Q780
139 790 117T834 94Q857 94 882 104T922 124L936 133L965 84Q955 72 934 54T852 5T731 -25Q661 -25 620 12T578 117V160Q574 152 566 140T528 95T465 39T380 -5T272 -25Q174 -25 112 36T49 193ZM559 1098T463 1098T316 1152T264 1276T315 1397T463 1448T610 1397T662
1276T611 1152ZM375 113Q455 113 571 209V457L512 446Q412 430 339 378T266 236Q266 181 296 147T375 113ZM463 1174Q506 1174 532 1203T559 1274T535 1342T463 1370T393 1343T369 1274T393 1204T463 1174Z" />
<glyph unicode="&#xe6;" glyph-name="ae" horiz-adv-x="1452" d="M45 195Q45 338 193 427T586 551V602Q586 729 562 799T463 870Q404 870 351 818T274 715L252 664H174L135 829Q153 843 186 863T322 916T532 950Q630 950 679 922T752 829Q867 950 1026 950Q1171
950 1272 860T1378 604Q1306 579 1268 573L778 496Q784 344 864 239T1104 133Q1176 133 1240 156T1333 203L1362 225L1384 174Q1380 166 1370 153T1326 106T1252 45T1147 -3T1008 -25Q875 -25 780 42T641 227Q604 123 517 49T303 -25Q186 -25 116 35T45 195ZM371
113Q449 113 516 186T584 381V469Q262 418 262 236Q262 181 291 147T371 113ZM989 864Q905 864 849 783T780 582L1159 641Q1159 649 1157 664T1145 719T1120 786T1069 839T989 864Z" />
<glyph unicode="&#xe7;" glyph-name="ccedilla" horiz-adv-x="909" d="M365 -172Q365 -117 432 -18Q260 9 164 139T68 442Q68 643 192 796T528 950Q598 950 668 935T796 882T854 791Q854 756 830 732T766 707Q721 707 686 749T610 831T508 872Q397 872 333 768T268
514Q268 350 351 242T596 133Q662 133 722 152T809 191L836 211L858 162Q854 154 846 142T807 98T739 41T640 -4T508 -25H504Q490 -72 489 -90Q489 -113 517 -130T578 -159T640 -205T668 -285Q668 -365 600 -425T434 -485Q379 -485 331 -466T261 -428L240 -410L272
-338Q342 -391 418 -391Q461 -391 489 -373T518 -324Q518 -291 442 -252T365 -172Z" />
<glyph unicode="&#xe8;" glyph-name="egrave" horiz-adv-x="944" d="M68 444Q68 655 197 802T516 950Q661 950 765 859T877 600Q805 573 764 567L287 498L268 473Q280 328 360 231T594 133Q664 133 728 156T821 203L850 225L872 174Q868 166 859 153T818 106T749
45T648 -3T514 -25Q303 -25 186 112T68 444ZM479 864Q389 864 334 782T268 580L657 631Q657 641 655 656T642 712T614 782T561 838T479 864ZM207 1389V1444L416 1425L582 1075L510 1036L207 1389Z" />
<glyph unicode="&#xe9;" glyph-name="eacute" horiz-adv-x="944" d="M68 444Q68 655 197 802T516 950Q661 950 765 859T877 600Q805 573 764 567L287 498L268 473Q280 328 360 231T594 133Q664 133 728 156T821 203L850 225L872 174Q868 166 859 153T818 106T749
45T648 -3T514 -25Q303 -25 186 112T68 444ZM479 864Q389 864 334 782T268 580L657 631Q657 641 655 656T642 712T614 782T561 838T479 864ZM465 1036L395 1075L561 1425L768 1444V1389L465 1036Z" />
<glyph unicode="&#xea;" glyph-name="ecircumflex" horiz-adv-x="944" d="M68 444Q68 655 197 802T516 950Q661 950 765 859T877 600Q805 573 764 567L287 498L268 473Q280 328 360 231T594 133Q664 133 728 156T821 203L850 225L872 174Q868 166 859 153T818
106T749 45T648 -3T514 -25Q303 -25 186 112T68 444ZM201 1075L442 1436H535L774 1075L707 1030L487 1262L268 1030L201 1075ZM479 864Q389 864 334 782T268 580L657 631Q657 641 655 656T642 712T614 782T561 838T479 864Z" />
<glyph unicode="&#xeb;" glyph-name="edieresis" horiz-adv-x="944" d="M68 444Q68 655 197 802T516 950Q661 950 765 859T877 600Q805 573 764 567L287 498L268 473Q280 328 360 231T594 133Q664 133 728 156T821 203L850 225L872 174Q868 166 859 153T818 106T749
45T648 -3T514 -25Q303 -25 186 112T68 444ZM479 864Q389 864 334 782T268 580L657 631Q657 641 655 656T642 712T614 782T561 838T479 864ZM745 1149T692 1149T603 1184T567 1270T603 1357T692 1393T781 1357T817 1270T781 1184ZM281 1149Q230 1149 194 1184T158
1270T193 1357T281 1393Q334 1393 370 1357T406 1270T370 1184T281 1149Z" />
<glyph unicode="&#xec;" glyph-name="igrave" horiz-adv-x="589" d="M72 -6V57Q195 71 195 190V684Q195 735 192 759T175 802T133 821H45V881Q168 906 261 930T387 967L420 979L424 973Q404 905 403 739V190L393 80L563 61L555 6L72 -6ZM0 1389V1444L209 1425L375
1075L303 1036L0 1389Z" />
<glyph unicode="&#xed;" glyph-name="iacute" horiz-adv-x="589" d="M260 1036L190 1075L356 1425L563 1444V1389L260 1036ZM72 -6V57Q195 71 195 190V684Q195 735 192 759T175 802T133 821H45V881Q168 906 261 930T387 967L420 979L424 973Q404 905 403 739V190L393
80L563 61L555 6L72 -6Z" />
<glyph unicode="&#xee;" glyph-name="icircumflex" horiz-adv-x="589" d="M-6 1075L236 1436H328L567 1075L500 1030L281 1262L61 1030L-6 1075ZM72 -6V57Q195 71 195 190V684Q195 735 192 759T175 802T133 821H45V881Q168 906 261 930T387 967L420 979L424 973Q404
905 403 739V190L393 80L563 61L555 6L72 -6Z" />
<glyph unicode="&#xef;" glyph-name="idieresis" horiz-adv-x="589" d="M-31 1219T-31 1270T5 1357T94 1393Q145 1393 181 1357T217 1270T181 1184T94 1149Q41 1149 5 1184ZM342 1270Q342 1323 378 1358T465 1393Q518 1393 554 1357T590 1270T554 1184T465 1149Q414
1149 378 1184T342 1270ZM72 -6V57Q195 71 195 190V684Q195 735 192 759T175 802T133 821H45V881Q168 906 261 930T387 967L420 979L424 973Q404 905 403 739V190L393 80L563 61L555 6L72 -6Z" />
<glyph unicode="&#xf0;" glyph-name="eth" horiz-adv-x="1083" d="M256 1047L213 1126L467 1274Q334 1397 158 1456L180 1518Q411 1473 592 1350L872 1513L913 1434L670 1288Q826 1153 909 967T993 578Q993 314 862 145T502 -25Q297 -25 182 107T66 428Q66 633
197 791T539 950Q623 950 700 922Q637 1088 530 1208L256 1047ZM283 465Q283 369 306 278T386 120T518 53Q624 53 699 176T774 518Q774 620 760 690Q746 762 698 815T565 868Q440 868 362 754T283 465Z" />
<glyph unicode="&#xf1;" glyph-name="ntilde" horiz-adv-x="1183" d="M72 -6V57Q195 71 195 190V684Q195 735 192 759T175 802T133 821H45V881Q143 897 234 921T368 963L410 979L416 973Q398 916 393 733Q454 823 553 886T770 950Q1010 950 1010 674V190L999 82L1167
61L1159 6L694 -6V57Q800 69 801 190V614Q801 720 768 760T670 801Q527 801 403 688V190L393 82L543 61L535 6L72 -6ZM291 1147Q289 1157 289 1175T295 1240T317 1321T374 1384T471 1413Q530 1413 577 1376T661 1303T735 1266Q778 1266 800 1299T825 1367L827 1401H911Q907
1399 911 1373T905 1304T880 1223T823 1155T723 1126T619 1163T538 1238T465 1276Q424 1276 402 1244T377 1180L375 1147H291Z" />
<glyph unicode="&#xf2;" glyph-name="ograve" horiz-adv-x="1101" d="M68 238T68 442T192 798T563 950Q784 950 909 824T1034 500Q1034 367 981 250T811 54T535 -25Q320 -25 194 106ZM297 494Q297 385 322 289T411 123T563 53Q684 53 744 172T805 451Q803 555
779 647T692 805T541 872Q422 872 360 762T297 494ZM268 1389V1444L477 1425L643 1075L571 1036L268 1389Z" />
<glyph unicode="&#xf3;" glyph-name="oacute" horiz-adv-x="1101" d="M526 1036L457 1075L623 1425L829 1444V1389L526 1036ZM68 238T68 442T192 798T563 950Q784 950 909 824T1034 500Q1034 367 981 250T811 54T535 -25Q320 -25 194 106ZM297 494Q297 385 322
289T411 123T563 53Q684 53 744 172T805 451Q803 555 779 647T692 805T541 872Q422 872 360 762T297 494Z" />
<glyph unicode="&#xf4;" glyph-name="ocircumflex" horiz-adv-x="1101" d="M262 1075L504 1436H596L836 1075L768 1030L549 1262L330 1030L262 1075ZM68 238T68 442T192 798T563 950Q784 950 909 824T1034 500Q1034 367 981 250T811 54T535 -25Q320 -25 194 106ZM297
494Q297 385 322 289T411 123T563 53Q684 53 744 172T805 451Q803 555 779 647T692 805T541 872Q422 872 360 762T297 494Z" />
<glyph unicode="&#xf5;" glyph-name="otilde" horiz-adv-x="1101" d="M68 238T68 442T192 798T563 950Q784 950 909 824T1034 500Q1034 367 981 250T811 54T535 -25Q320 -25 194 106ZM297 494Q297 385 322 289T411 123T563 53Q684 53 744 172T805 451Q803 555
779 647T692 805T541 872Q422 872 360 762T297 494ZM240 1147Q238 1157 238 1175T244 1240T266 1321T322 1384T420 1413Q479 1413 526 1376T610 1303T684 1266Q727 1266 749 1299T774 1367L776 1401H860Q856 1399 860 1373T854 1304T829 1223T772 1155T672 1126T567
1163T487 1238T414 1276Q373 1276 351 1244T326 1180L324 1147H240Z" />
<glyph unicode="&#xf6;" glyph-name="odieresis" horiz-adv-x="1101" d="M342 1149Q291 1149 255 1184T219 1270T255 1357T342 1393Q395 1393 431 1357T467 1270T431 1184T342 1149ZM807 1149T754 1149T665 1184T629 1270T664 1357T753 1393T843 1357T879 1270T843
1184ZM68 238T68 442T192 798T563 950Q784 950 909 824T1034 500Q1034 367 981 250T811 54T535 -25Q320 -25 194 106ZM297 494Q297 385 322 289T411 123T563 53Q684 53 744 172T805 451Q803 555 779 647T692 805T541 872Q422 872 360 762T297 494Z" />
<glyph unicode="&#xf7;" glyph-name="divide" horiz-adv-x="1064" d="M74 453V580H991V453H74ZM401 127Q401 182 440 221T532 260Q587 260 625 221T664 127Q664 74 626 35T532 -4Q479 -4 440 35T401 127ZM532 772Q479 772 440 811T401 903T440 995T532 1034Q587
1034 625 995T664 903T626 811T532 772Z" />
<glyph unicode="&#xf8;" glyph-name="oslash" horiz-adv-x="1101" d="M100 -61L211 88Q68 219 68 442Q68 647 192 798T563 950Q702 950 813 895L883 987H995L889 842Q1034 719 1034 500Q1034 367 981 250T811 54T535 -25Q398 -25 289 35L217 -61H100ZM805 451Q801
586 766 678L381 158Q453 54 563 53Q684 53 744 172T805 451ZM297 494Q297 363 336 254L721 770Q649 872 541 872Q422 872 360 762T297 494Z" />
<glyph unicode="&#xf9;" glyph-name="ugrave" horiz-adv-x="1159" d="M164 250V682Q164 735 161 759T145 802T102 821H37V883Q154 903 241 922T356 951L385 961L391 954Q373 897 373 739V311Q373 205 406 163T504 121Q570 121 643 160T760 244V682Q760 735 757
759T741 802T698 821H639V883Q754 903 839 922T952 951L981 961L987 954Q969 897 969 739V199Q969 119 994 101T1083 82H1137L1130 23L760 -18L754 -12Q770 47 770 98V197Q721 121 625 48T408 -25Q164 -24 164 250ZM285 1389V1444L494 1425L659 1075L588 1036L285
1389Z" />
<glyph unicode="&#xfa;" glyph-name="uacute" horiz-adv-x="1159" d="M543 1036L473 1075L639 1425L846 1444V1389L543 1036ZM164 250V682Q164 735 161 759T145 802T102 821H37V883Q154 903 241 922T356 951L385 961L391 954Q373 897 373 739V311Q373 205 406
163T504 121Q570 121 643 160T760 244V682Q760 735 757 759T741 802T698 821H639V883Q754 903 839 922T952 951L981 961L987 954Q969 897 969 739V199Q969 119 994 101T1083 82H1137L1130 23L760 -18L754 -12Q770 47 770 98V197Q721 121 625 48T408 -25Q164 -24
164 250Z" />
<glyph unicode="&#xfb;" glyph-name="ucircumflex" horiz-adv-x="1159" d="M279 1075L520 1436H612L852 1075L784 1030L565 1262L346 1030L279 1075ZM164 250V682Q164 735 161 759T145 802T102 821H37V883Q154 903 241 922T356 951L385 961L391 954Q373 897 373
739V311Q373 205 406 163T504 121Q570 121 643 160T760 244V682Q760 735 757 759T741 802T698 821H639V883Q754 903 839 922T952 951L981 961L987 954Q969 897 969 739V199Q969 119 994 101T1083 82H1137L1130 23L760 -18L754 -12Q770 47 770 98V197Q721 121 625
48T408 -25Q164 -24 164 250Z" />
<glyph unicode="&#xfc;" glyph-name="udieresis" horiz-adv-x="1159" d="M358 1149Q307 1149 272 1184T236 1270T271 1357T358 1393Q411 1393 447 1357T483 1270T447 1184T358 1149ZM823 1149T770 1149T681 1184T645 1270T681 1357T770 1393T859 1357T895 1270T859
1184ZM164 250V682Q164 735 161 759T145 802T102 821H37V883Q154 903 241 922T356 951L385 961L391 954Q373 897 373 739V311Q373 205 406 163T504 121Q570 121 643 160T760 244V682Q760 735 757 759T741 802T698 821H639V883Q754 903 839 922T952 951L981 961L987
954Q969 897 969 739V199Q969 119 994 101T1083 82H1137L1130 23L760 -18L754 -12Q770 47 770 98V197Q721 121 625 48T408 -25Q164 -24 164 250Z" />
<glyph unicode="&#xfd;" glyph-name="yacute" horiz-adv-x="952" d="M152 -299Q314 -299 387 -129L432 -25Q420 18 377 123L109 752Q91 797 61 826T11 863L-8 870V926H88L336 934L344 926Q326 889 326 835T342 737L502 344Q527 272 541 223L758 723Q781 780 746
816T645 870V926H936L946 893Q911 868 877 784L541 16Q537 6 516 -45T482 -124T443 -205T396 -290T343 -364T282 -429T214 -469T137 -485Q90 -485 64 -459T37 -391Q37 -352 65 -326T152 -299ZM485 1036L416 1075L582 1425L788 1444V1389L485 1036Z" />
<glyph unicode="&#xfe;" glyph-name="thorn" horiz-adv-x="1077" d="M356 172Q356 66 485 66Q628 66 709 170T791 440Q791 592 728 701T541 811Q455 811 356 743V172ZM147 -244V1227Q147 1278 144 1302T128 1345T86 1364H4V1423Q127 1448 218 1472T340 1509L371
1522L377 1516Q357 1440 356 1282V973L350 793Q471 951 637 950Q807 950 908 821T1010 508Q1010 293 871 134T481 -25Q448 -25 356 -14V-242L346 -358H555L547 -412Q207 -453 45 -502V-438Q108 -401 127 -361T147 -244Z" />
<glyph unicode="&#xff;" glyph-name="ydieresis" horiz-adv-x="952" d="M152 -299Q314 -299 387 -129L432 -25Q420 18 377 123L109 752Q91 797 61 826T11 863L-8 870V926H88L336 934L344 926Q326 889 326 835T342 737L502 344Q527 272 541 223L758 723Q781 780
746 816T645 870V926H936L946 893Q911 868 877 784L541 16Q537 6 516 -45T482 -124T443 -205T396 -290T343 -364T282 -429T214 -469T137 -485Q90 -485 64 -459T37 -391Q37 -352 65 -326T152 -299ZM768 1149T715 1149T626 1184T590 1270T626 1357T715 1393T804 1357T840
1270T804 1184ZM303 1149Q252 1149 216 1184T180 1270T216 1357T303 1393Q356 1393 392 1357T428 1270T392 1184T303 1149Z" />
<glyph unicode="&#x100;" glyph-name="Amacron" horiz-adv-x="1277" d="M-31 0V63Q73 73 106 158L588 1358L690 1380L1143 215Q1176 129 1206 99T1292 59L1284 0H1198L848 -6V68Q897 70 922 87T932 147L819 449H354L326 428L195 86L369 63L358 0H-31ZM629 967Q590
1082 584 1106L369 545H784L629 967ZM360 1561V1694H918V1561H360Z" />
<glyph unicode="&#x101;" glyph-name="amacron" horiz-adv-x="960" d="M49 193Q49 330 183 414T502 526L571 537Q577 682 563 754Q538 871 449 870Q392 870 340 818T263 715L240 664H162L123 829Q141 843 174 863T312 916T526 950Q676 950 728 886T780 657V190Q780
139 790 117T834 94Q857 94 882 104T922 124L936 133L965 84Q955 72 934 54T852 5T731 -25Q661 -25 620 12T578 117V160Q574 152 566 140T528 95T465 39T380 -5T272 -25Q174 -25 112 36T49 193ZM375 113Q455 113 571 209V457L512 446Q412 430 339 378T266 236Q266
181 296 147T375 113ZM215 1198V1331H711V1198H215Z" />
<glyph unicode="&#x102;" glyph-name="Abreve" horiz-adv-x="1277" d="M-31 0V63Q73 73 106 158L588 1358L690 1380L1143 215Q1176 129 1206 99T1292 59L1284 0H1198L848 -6V68Q897 70 922 87T932 147L819 449H354L326 428L195 86L369 63L358 0H-31ZM629 967Q590
1082 584 1106L369 545H784L629 967ZM770 1470T639 1470T426 1537T344 1712Q344 1739 354 1784H436Q430 1692 490 1654T639 1616Q725 1616 784 1652T840 1784H924Q932 1751 932 1716Q932 1607 851 1539Z" />
<glyph unicode="&#x103;" glyph-name="abreve" horiz-adv-x="960" d="M49 193Q49 330 183 414T502 526L571 537Q577 682 563 754Q538 871 449 870Q392 870 340 818T263 715L240 664H162L123 829Q141 843 174 863T312 916T526 950Q676 950 728 886T780 657V190Q780
139 790 117T834 94Q857 94 882 104T922 124L936 133L965 84Q955 72 934 54T852 5T731 -25Q661 -25 620 12T578 117V160Q574 152 566 140T528 95T465 39T380 -5T272 -25Q174 -25 112 36T49 193ZM582 1108T463 1108T266 1177T188 1356Q188 1397 199 1434H279V1413Q279
1347 324 1299T463 1251T602 1299T647 1413V1434H727Q737 1387 737 1356Q737 1247 660 1178ZM375 113Q455 113 571 209V457L512 446Q412 430 339 378T266 236Q266 181 296 147T375 113Z" />
<glyph unicode="&#x104;" glyph-name="Aogonek" horiz-adv-x="1277" d="M-31 0V63Q73 73 106 158L588 1358L690 1380L1143 215Q1176 129 1206 99T1292 59L1284 0H1239Q1182 0 1105 -92T1028 -270Q1028 -329 1067 -362T1159 -395L1204 -391L1221 -451Q1133 -486
1049 -485Q959 -485 901 -437T842 -317Q842 -299 845 -282T857 -246T873 -213T899 -178T927 -146T961 -111T996 -76T1037 -37T1079 0L848 -6V68Q897 70 922 87T932 147L819 449H354L326 428L195 86L369 63L358 0H-31ZM629 967Q590 1082 584 1106L369 545H784L629
967Z" />
<glyph unicode="&#x105;" glyph-name="aogonek" horiz-adv-x="962" d="M49 193Q49 330 183 414T502 526L571 537Q577 682 563 754Q538 871 449 870Q392 870 340 818T263 715L240 664H162L123 829Q141 843 174 863T312 916T526 950Q676 950 728 886T780 657V190Q780
139 790 117T834 94Q857 94 882 104T922 124L936 133L965 84Q938 55 899 29Q829 -26 765 -108T700 -268Q700 -329 739 -362T831 -395L877 -391L893 -451Q805 -486 721 -485Q631 -485 573 -437T514 -317Q514 -268 548 -215T614 -129T727 -25Q659 -23 619 13T578
117V160Q574 152 566 140T528 95T465 39T380 -5T272 -25Q174 -25 112 36T49 193ZM375 113Q455 113 571 209V457L512 446Q412 430 339 378T266 236Q266 181 296 147T375 113Z" />
<glyph unicode="&#x106;" glyph-name="Cacute" horiz-adv-x="1396" d="M82 666Q82 967 290 1179T840 1391Q938 1391 1116 1365T1300 1339L1239 1024H1165Q1163 1169 1062 1236T811 1303Q578 1303 445 1140T311 735Q311 461 479 296T895 131Q1004 131 1105 167T1252
239L1298 274L1329 227Q1323 217 1310 200T1249 139T1146 64T997 3T801 -25Q496 -25 289 171T82 666ZM571 1550L948 1772H958L1034 1649V1593L604 1475L571 1550Z" />
<glyph unicode="&#x107;" glyph-name="cacute" horiz-adv-x="909" d="M469 1036L399 1075L565 1425L772 1444V1389L469 1036ZM68 442Q68 643 192 796T528 950Q598 950 668 935T796 882T854 791Q854 756 830 732T766 707Q721 707 686 749T610 831T508 872Q397 872
333 768T268 514Q268 350 351 242T596 133Q662 133 722 152T809 191L836 211L858 162Q854 154 846 142T807 98T739 41T640 -4T508 -25Q303 -25 186 113T68 442Z" />
<glyph unicode="&#x108;" glyph-name="Ccircumflex" horiz-adv-x="1396" d="M82 666Q82 967 290 1179T840 1391Q938 1391 1116 1365T1300 1339L1239 1024H1165Q1163 1169 1062 1236T811 1303Q578 1303 445 1140T311 735Q311 461 479 296T895 131Q1004 131 1105
167T1252 239L1298 274L1329 227Q1323 217 1310 200T1249 139T1146 64T997 3T801 -25Q496 -25 289 171T82 666ZM432 1524L705 1784H829L1100 1524L1038 1470L772 1626H760L494 1470L432 1524Z" />
<glyph unicode="&#x109;" glyph-name="ccircumflex" horiz-adv-x="909" d="M207 1075L449 1436H541L780 1075L713 1030L494 1262L274 1030L207 1075ZM68 442Q68 643 192 796T528 950Q598 950 668 935T796 882T854 791Q854 756 830 732T766 707Q721 707 686 749T610
831T508 872Q397 872 333 768T268 514Q268 350 351 242T596 133Q662 133 722 152T809 191L836 211L858 162Q854 154 846 142T807 98T739 41T640 -4T508 -25Q303 -25 186 113T68 442Z" />
<glyph unicode="&#x10a;" glyph-name="Cdotaccent" horiz-adv-x="1396" d="M819 1501T766 1501T675 1538T637 1626Q637 1679 675 1715T766 1751T857 1715T895 1626Q895 1575 857 1538ZM82 666Q82 967 290 1179T840 1391Q938 1391 1116 1365T1300 1339L1239 1024H1165Q1163
1169 1062 1236T811 1303Q578 1303 445 1140T311 735Q311 461 479 296T895 131Q1004 131 1105 167T1252 239L1298 274L1329 227Q1323 217 1310 200T1249 139T1146 64T997 3T801 -25Q496 -25 289 171T82 666Z" />
<glyph unicode="&#x10b;" glyph-name="cdotaccent" horiz-adv-x="909" d="M68 442Q68 643 192 796T528 950Q598 950 668 935T796 882T854 791Q854 756 830 732T766 707Q721 707 686 749T610 831T508 872Q397 872 333 768T268 514Q268 350 351 242T596 133Q662
133 722 152T809 191L836 211L858 162Q854 154 846 142T807 98T739 41T640 -4T508 -25Q303 -25 186 113T68 442ZM547 1147T494 1147T403 1183T365 1272Q365 1323 402 1360T493 1397T585 1360T623 1272Q623 1219 585 1183Z" />
<glyph unicode="&#x10c;" glyph-name="Ccaron" horiz-adv-x="1396" d="M82 666Q82 967 290 1179T840 1391Q938 1391 1116 1365T1300 1339L1239 1024H1165Q1163 1169 1062 1236T811 1303Q578 1303 445 1140T311 735Q311 461 479 296T895 131Q1004 131 1105 167T1252
239L1298 274L1329 227Q1323 217 1310 200T1249 139T1146 64T997 3T801 -25Q496 -25 289 171T82 666ZM432 1731L494 1784L760 1626H772L1038 1784L1100 1731L829 1470H702L432 1731Z" />
<glyph unicode="&#x10d;" glyph-name="ccaron" horiz-adv-x="909" d="M449 1071L207 1413L274 1458L494 1243L713 1458L780 1413L541 1071H449ZM68 442Q68 643 192 796T528 950Q598 950 668 935T796 882T854 791Q854 756 830 732T766 707Q721 707 686 749T610
831T508 872Q397 872 333 768T268 514Q268 350 351 242T596 133Q662 133 722 152T809 191L836 211L858 162Q854 154 846 142T807 98T739 41T640 -4T508 -25Q303 -25 186 113T68 442Z" />
<glyph unicode="&#x10e;" glyph-name="Dcaron" horiz-adv-x="1525" d="M100 -6V63Q241 79 242 190V1161Q242 1237 216 1262T80 1311V1366H662Q822 1366 957 1332T1203 1227T1379 1029T1444 735Q1444 393 1207 197T590 0H420L100 -6ZM453 92H590Q897 92 1047 250T1198
682Q1198 954 1058 1114T657 1274H485L463 1251V207L453 92ZM397 1731L459 1784L725 1626H737L1004 1784L1065 1731L795 1470H668L397 1731Z" />
<glyph unicode="&#x10f;" glyph-name="dcaron" horiz-adv-x="1120" d="M1057 1116L1108 1509L1311 1530V1477L1147 1116H1057ZM68 416Q68 629 210 789T598 950L727 940V1227Q727 1278 724 1302T708 1345T666 1364H584V1423Q707 1448 799 1472T921 1509L950 1522L956
1516Q936 1440 936 1282V199Q936 119 961 101T1051 82H1104L1098 23L729 -16L725 -12Q735 47 735 98V137Q631 -25 449 -25Q279 -25 174 104T68 416ZM541 115Q633 115 727 184V754Q727 863 600 862Q457 862 372 756T287 483Q287 336 353 226T541 115Z" />
<glyph unicode="&#x110;" glyph-name="Dcroat" horiz-adv-x="1525" d="M59 645V743H242V1161Q242 1237 216 1262T78 1311V1366H659Q819 1366 955 1332T1203 1227T1379 1029T1444 735Q1444 393 1206 197T590 0H420L98 -6V63Q241 79 242 190V645H59ZM453 92H590Q897
92 1047 250T1198 682Q1198 954 1058 1114T657 1274H485L463 1251V743H784V645H463V207L453 92Z" />
<glyph unicode="&#x111;" glyph-name="" horiz-adv-x="1120" d="M446 1079V1178H727V1227Q727 1278 724 1302T708 1345T666 1364H584V1423Q707 1448 799 1472T921 1509L950 1522L956 1516Q936 1440 936 1282V1178H1090V1079H936V199Q936 119 961 101T1051 82H1104L1098
23L729 -16L725 -12Q735 47 735 98V137Q631 -25 449 -25Q279 -25 174 104T68 416Q68 629 210 789T598 950L727 940V1079H446ZM541 115Q633 115 727 184V754Q727 863 600 862Q457 862 372 756T287 483Q287 336 353 226T541 115Z" />
<glyph unicode="&#x112;" glyph-name="Emacron" horiz-adv-x="1204" d="M100 -6V63Q241 79 242 190V1161Q242 1237 216 1262T80 1311V1366H944L1096 1374L1032 1024H958Q966 1176 917 1225T737 1274H485L463 1251V739H827L844 858L924 870V496H823V649H485L463
627V207L453 92H760Q889 92 936 133T1063 340H1137L1061 0H420L100 -6ZM354 1561V1694H911V1561H354Z" />
<glyph unicode="&#x113;" glyph-name="emacron" horiz-adv-x="944" d="M68 444Q68 655 197 802T516 950Q661 950 765 859T877 600Q805 573 764 567L287 498L268 473Q280 328 360 231T594 133Q664 133 728 156T821 203L850 225L872 174Q868 166 859 153T818 106T749
45T648 -3T514 -25Q303 -25 186 112T68 444ZM479 864Q389 864 334 782T268 580L657 631Q657 641 655 656T642 712T614 782T561 838T479 864ZM240 1198V1331H735V1198H240Z" />
<glyph unicode="&#x114;" glyph-name="Ebreve" horiz-adv-x="1204" d="M100 -6V63Q241 79 242 190V1161Q242 1237 216 1262T80 1311V1366H944L1096 1374L1032 1024H958Q966 1176 917 1225T737 1274H485L463 1251V739H827L844 858L924 870V496H823V649H485L463
627V207L453 92H760Q889 92 936 133T1063 340H1137L1061 0H420L100 -6ZM764 1470T633 1470T420 1537T338 1712Q338 1739 348 1784H430Q424 1692 484 1654T633 1616Q719 1616 778 1652T834 1784H918Q926 1751 926 1716Q926 1607 845 1539Z" />
<glyph unicode="&#x115;" glyph-name="ebreve" horiz-adv-x="944" d="M68 444Q68 655 197 802T516 950Q661 950 765 859T877 600Q805 573 764 567L287 498L268 473Q280 328 360 231T594 133Q664 133 728 156T821 203L850 225L872 174Q868 166 859 153T818 106T749
45T648 -3T514 -25Q303 -25 186 112T68 444ZM606 1108T488 1108T291 1177T213 1356Q213 1397 223 1434H303V1413Q303 1347 348 1299T487 1251T627 1299T672 1413V1434H752Q762 1387 762 1356Q762 1247 684 1178ZM479 864Q389 864 334 782T268 580L657 631Q657 641
655 656T642 712T614 782T561 838T479 864Z" />
<glyph unicode="&#x116;" glyph-name="Edotaccent" horiz-adv-x="1204" d="M686 1501T633 1501T542 1538T504 1626Q504 1679 542 1715T633 1751T724 1715T762 1626Q762 1575 724 1538ZM100 -6V63Q241 79 242 190V1161Q242 1237 216 1262T80 1311V1366H944L1096
1374L1032 1024H958Q966 1176 917 1225T737 1274H485L463 1251V739H827L844 858L924 870V496H823V649H485L463 627V207L453 92H760Q889 92 936 133T1063 340H1137L1061 0H420L100 -6Z" />
<glyph unicode="&#x117;" glyph-name="edotaccent" horiz-adv-x="944" d="M68 444Q68 655 197 802T516 950Q661 950 765 859T877 600Q805 573 764 567L287 498L268 473Q280 328 360 231T594 133Q664 133 728 156T821 203L850 225L872 174Q868 166 859 153T818
106T749 45T648 -3T514 -25Q303 -25 186 112T68 444ZM479 864Q389 864 334 782T268 580L657 631Q657 641 655 656T642 712T614 782T561 838T479 864ZM541 1147T488 1147T396 1183T358 1272Q358 1323 396 1360T487 1397T578 1360T616 1272Q616 1219 579 1183Z" />
<glyph unicode="&#x118;" glyph-name="Eogonek" horiz-adv-x="1204" d="M100 -6V63Q241 79 242 190V1161Q242 1237 216 1262T80 1311V1366H944L1096 1374L1032 1024H958Q966 1176 917 1225T737 1274H485L463 1251V739H827L844 858L924 870V496H823V649H485L463
627V207L453 92H760Q889 92 936 133T1063 340H1137L1061 0H1059Q1002 0 925 -92T848 -270Q848 -329 888 -362T981 -395L1024 -391L1040 -451Q952 -486 868 -485Q778 -485 720 -437T662 -317Q662 -225 788 -103Q804 -87 901 0H420L100 -6Z" />
<glyph unicode="&#x119;" glyph-name="eogonek" horiz-adv-x="944" d="M68 444Q68 655 197 802T516 950Q661 950 765 859T877 600Q805 573 764 567L287 498L268 473Q280 328 360 231T594 133Q664 133 728 156T821 203L850 225L872 174Q827 98 741 41Q675 -6 602
-96T528 -268Q528 -329 568 -362T659 -395L705 -391L721 -451Q633 -486 549 -485Q459 -485 402 -437T344 -317Q344 -268 378 -214T443 -128T557 -23Q549 -23 535 -24T514 -25Q303 -25 186 112T68 444ZM479 864Q389 864 334 782T268 580L657 631Q657 641 655 656T642
712T614 782T561 838T479 864Z" />
<glyph unicode="&#x11a;" glyph-name="Ecaron" horiz-adv-x="1204" d="M100 -6V63Q241 79 242 190V1161Q242 1237 216 1262T80 1311V1366H944L1096 1374L1032 1024H958Q966 1176 917 1225T737 1274H485L463 1251V739H827L844 858L924 870V496H823V649H485L463
627V207L453 92H760Q889 92 936 133T1063 340H1137L1061 0H420L100 -6ZM299 1731L360 1784L627 1626H639L905 1784L967 1731L696 1470H569L299 1731Z" />
<glyph unicode="&#x11b;" glyph-name="ecaron" horiz-adv-x="944" d="M68 444Q68 655 197 802T516 950Q661 950 765 859T877 600Q805 573 764 567L287 498L268 473Q280 328 360 231T594 133Q664 133 728 156T821 203L850 225L872 174Q868 166 859 153T818 106T749
45T648 -3T514 -25Q303 -25 186 112T68 444ZM442 1071L201 1413L268 1458L487 1243L707 1458L774 1413L535 1071H442ZM479 864Q389 864 334 782T268 580L657 631Q657 641 655 656T642 712T614 782T561 838T479 864Z" />
<glyph unicode="&#x11c;" glyph-name="Gcircumflex" horiz-adv-x="1462" d="M463 1524L735 1784H860L1130 1524L1069 1470L803 1626H791L524 1470L463 1524ZM82 655Q82 796 129 925T268 1160T513 1328T858 1391Q964 1391 1144 1369T1327 1346L1266 1024H1190Q1188
1178 1090 1240T848 1303Q598 1303 461 1130T324 702Q324 428 487 252T915 76Q1011 76 1104 98V381Q1104 459 1074 485T915 530V586H1386L1397 553Q1389 549 1376 539T1340 478T1317 358V29Q1280 25 1179 10T994 -15T840 -25Q516 -25 299 156T82 655Z" />
<glyph unicode="&#x11d;" glyph-name="gcircumflex" horiz-adv-x="999" d="M121 145Q121 165 128 183T150 216T179 243T217 268T255 287T296 305T330 319Q215 350 145 428T74 623Q74 777 189 863T471 950Q534 950 617 930T752 909H850Q879 909 912 915T966 929L985
936L967 793H868Q852 793 837 794T811 796T799 797Q875 721 874 610Q874 471 756 387T471 303Q414 303 371 311Q330 264 330 233Q330 225 334 217T347 202T366 190T393 179T424 170T461 161T502 153T547 145T594 135Q674 119 729 103T843 57T935 -20T967 -129Q967
-279 802 -382T440 -485Q286 -485 164 -421T41 -240Q41 -191 64 -150T133 -79T212 -34T299 2Q121 53 121 145ZM504 -41Q463 -31 346 -8Q229 -96 229 -209Q229 -297 302 -348T477 -399Q588 -399 680 -345T772 -209Q772 -141 706 -106T504 -41ZM475 383Q569 383 615
447T662 610Q662 714 612 792T467 870Q375 870 330 801T285 627T332 453T475 383ZM203 1075L444 1436H537L776 1075L709 1030L489 1262L270 1030L203 1075Z" />
<glyph unicode="&#x11e;" glyph-name="Gbreve" horiz-adv-x="1462" d="M82 655Q82 796 129 925T268 1160T513 1328T858 1391Q964 1391 1144 1369T1327 1346L1266 1024H1190Q1188 1178 1090 1240T848 1303Q598 1303 461 1130T324 702Q324 428 487 252T915 76Q1011
76 1104 98V381Q1104 459 1074 485T915 530V586H1386L1397 553Q1389 549 1376 539T1340 478T1317 358V29Q1280 25 1179 10T994 -15T840 -25Q516 -25 299 156T82 655ZM928 1470T797 1470T584 1537T502 1712Q502 1739 512 1784H594Q588 1692 648 1654T797 1616Q883
1616 942 1652T997 1784H1081Q1089 1751 1090 1716Q1090 1607 1009 1539Z" />
<glyph unicode="&#x11f;" glyph-name="gbreve" horiz-adv-x="999" d="M121 145Q121 165 128 183T150 216T179 243T217 268T255 287T296 305T330 319Q215 350 145 428T74 623Q74 777 189 863T471 950Q534 950 617 930T752 909H850Q879 909 912 915T966 929L985
936L967 793H868Q852 793 837 794T811 796T799 797Q875 721 874 610Q874 471 756 387T471 303Q414 303 371 311Q330 264 330 233Q330 225 334 217T347 202T366 190T393 179T424 170T461 161T502 153T547 145T594 135Q674 119 729 103T843 57T935 -20T967 -129Q967
-279 802 -382T440 -485Q286 -485 164 -421T41 -240Q41 -191 64 -150T133 -79T212 -34T299 2Q121 53 121 145ZM504 -41Q463 -31 346 -8Q229 -96 229 -209Q229 -297 302 -348T477 -399Q588 -399 680 -345T772 -209Q772 -141 706 -106T504 -41ZM475 383Q569 383 615
447T662 610Q662 714 612 792T467 870Q375 870 330 801T285 627T332 453T475 383ZM608 1108T490 1108T293 1177T215 1356Q215 1397 225 1434H305V1413Q305 1347 350 1299T489 1251T629 1299T674 1413V1434H754Q764 1387 764 1356Q764 1247 686 1178Z" />
<glyph unicode="&#x120;" glyph-name="Gdotaccent" horiz-adv-x="1462" d="M850 1501T797 1501T706 1538T668 1626Q668 1679 705 1715T796 1751T888 1715T926 1626Q926 1575 888 1538ZM82 655Q82 796 129 925T268 1160T513 1328T858 1391Q964 1391 1144 1369T1327
1346L1266 1024H1190Q1188 1178 1090 1240T848 1303Q598 1303 461 1130T324 702Q324 428 487 252T915 76Q1011 76 1104 98V381Q1104 459 1074 485T915 530V586H1386L1397 553Q1389 549 1376 539T1340 478T1317 358V29Q1280 25 1179 10T994 -15T840 -25Q516 -25
299 156T82 655Z" />
<glyph unicode="&#x121;" glyph-name="gdotaccent" horiz-adv-x="999" d="M121 145Q121 165 128 183T150 216T179 243T217 268T255 287T296 305T330 319Q215 350 145 428T74 623Q74 777 189 863T471 950Q534 950 617 930T752 909H850Q879 909 912 915T966 929L985
936L967 793H868Q852 793 837 794T811 796T799 797Q875 721 874 610Q874 471 756 387T471 303Q414 303 371 311Q330 264 330 233Q330 225 334 217T347 202T366 190T393 179T424 170T461 161T502 153T547 145T594 135Q674 119 729 103T843 57T935 -20T967 -129Q967
-279 802 -382T440 -485Q286 -485 164 -421T41 -240Q41 -191 64 -150T133 -79T212 -34T299 2Q121 53 121 145ZM504 -41Q463 -31 346 -8Q229 -96 229 -209Q229 -297 302 -348T477 -399Q588 -399 680 -345T772 -209Q772 -141 706 -106T504 -41ZM475 383Q569 383 615
447T662 610Q662 714 612 792T467 870Q375 870 330 801T285 627T332 453T475 383ZM543 1147T490 1147T398 1183T360 1272Q360 1323 398 1360T489 1397T580 1360T618 1272Q618 1219 581 1183Z" />
<glyph unicode="&#x122;" glyph-name="Gcommaaccent" horiz-adv-x="1462" d="M682 -135L702 -88H893Q940 -154 940 -227Q940 -309 869 -383T696 -504L651 -440Q770 -372 770 -303Q770 -241 682 -135ZM82 655Q82 796 129 925T268 1160T513 1328T858 1391Q964 1391
1144 1369T1327 1346L1266 1024H1190Q1188 1178 1090 1240T848 1303Q598 1303 461 1130T324 702Q324 428 487 252T915 76Q1011 76 1104 98V381Q1104 459 1074 485T915 530V586H1386L1397 553Q1389 549 1376 539T1340 478T1317 358V29Q1280 25 1179 10T994 -15T840
-25Q516 -25 299 156T82 655Z" />
<glyph unicode="&#x123;" glyph-name="gcommaaccent" horiz-adv-x="999" d="M584 1094L563 1047H373Q326 1113 326 1186Q326 1268 397 1341T569 1462L614 1399Q495 1331 496 1262Q496 1200 584 1094ZM121 145Q121 165 128 183T150 216T179 243T217 268T255 287T296
305T330 319Q215 350 145 428T74 623Q74 777 189 863T471 950Q534 950 617 930T752 909H850Q879 909 912 915T966 929L985 936L967 793H868Q852 793 837 794T811 796T799 797Q875 721 874 610Q874 471 756 387T471 303Q414 303 371 311Q330 264 330 233Q330 225
334 217T347 202T366 190T393 179T424 170T461 161T502 153T547 145T594 135Q674 119 729 103T843 57T935 -20T967 -129Q967 -279 802 -382T440 -485Q286 -485 164 -421T41 -240Q41 -191 64 -150T133 -79T212 -34T299 2Q121 53 121 145ZM504 -41Q463 -31 346 -8Q229
-96 229 -209Q229 -297 302 -348T477 -399Q588 -399 680 -345T772 -209Q772 -141 706 -106T504 -41ZM475 383Q569 383 615 447T662 610Q662 714 612 792T467 870Q375 870 330 801T285 627T332 453T475 383Z" />
<glyph unicode="&#x124;" glyph-name="Hcircumflex" horiz-adv-x="1650" d="M100 -6V63Q166 71 204 106T242 197V1161Q242 1241 222 1264T96 1311V1366H250L520 1374L530 1366Q462 1284 463 1114V743H1176L1198 766V1161Q1198 1241 1177 1264T1051 1311V1366H1206L1477
1372L1487 1364Q1419 1284 1419 1114V197L1409 86L1589 68L1581 6L1055 -6V63Q1121 71 1159 105T1198 190V645H485L463 625V197L453 86L633 68L625 6L100 -6ZM496 1524L768 1784H893L1163 1524L1102 1470L836 1626H823L557 1470L496 1524Z" />
<glyph unicode="&#x125;" glyph-name="hcircumflex" horiz-adv-x="1167" d="M53 -6V57Q176 71 176 190V1227Q176 1278 173 1302T157 1345T115 1364H33V1423Q156 1448 248 1472T370 1509L399 1522L406 1516Q386 1440 385 1282V903Q385 860 383 823T379 765T377
737Q443 825 540 887T754 950Q992 950 991 674V190L981 82L1151 61L1143 6L676 -6V57Q782 71 782 190V614Q782 720 751 760T653 801Q512 801 385 690V190L375 80L524 61L516 6L53 -6ZM25 1552L-29 1616L231 1858H336L594 1616L543 1552L287 1702H279L25 1552Z"
/>
<glyph unicode="&#x126;" glyph-name="Hbar" horiz-adv-x="1650" d="M80 969V1061H242V1161Q242 1241 222 1264T96 1311V1366H250L520 1374L530 1366Q462 1284 463 1114V1061H1198V1161Q1198 1241 1177 1264T1051 1311V1366H1206L1477 1372L1487 1364Q1419 1284
1419 1114V1061H1583V969H1419V197L1409 86L1589 68L1581 6L1055 -6V63Q1121 71 1159 105T1198 190V645H485L463 625V197L453 86L633 68L625 6L100 -6V63Q166 71 204 106T242 197V969H80ZM1176 743L1198 766V969H463V743H1176Z" />
<glyph unicode="&#x127;" glyph-name="hbar" horiz-adv-x="1167" d="M43 1079V1178H176V1227Q176 1278 173 1302T157 1345T115 1364H33V1423Q156 1448 248 1472T370 1509L399 1522L406 1516Q386 1440 385 1282V1178H688V1079H385V903Q385 860 383 823T379 765T377
737Q443 825 540 887T754 950Q992 950 991 674V190L981 82L1151 61L1143 6L676 -6V57Q782 71 782 190V614Q782 720 751 760T653 801Q512 801 385 690V190L375 80L524 61L516 6L53 -6V57Q176 71 176 190V1079H43Z" />
<glyph unicode="&#x128;" glyph-name="Itilde" horiz-adv-x="694" d="M100 -6V63Q166 71 204 105T242 193V1161Q242 1241 222 1264T96 1311V1366H250L520 1374L530 1366Q462 1284 463 1114V193L453 86L639 68L631 6L100 -6ZM49 1499L-29 1516Q-29 1526 -26 1541T-10
1597T24 1669T86 1725T182 1751Q250 1751 361 1694T518 1636Q559 1636 586 1665T623 1722L631 1751L711 1743Q711 1733 709 1717T694 1658T658 1584T590 1526T483 1499Q407 1499 306 1556T162 1614Q123 1614 96 1585T58 1528L49 1499Z" />
<glyph unicode="&#x129;" glyph-name="itilde" horiz-adv-x="589" d="M72 -6V57Q195 71 195 190V684Q195 735 192 759T175 802T133 821H45V881Q168 906 261 930T387 967L420 979L424 973Q404 905 403 739V190L393 80L563 61L555 6L72 -6ZM-27 1147Q-29 1157 -29
1175T-23 1240T0 1321T56 1384T154 1413Q213 1413 260 1376T344 1303T418 1266Q461 1266 483 1299T508 1367L510 1401H594Q590 1399 594 1373T588 1304T563 1223T506 1155T406 1126T301 1163T220 1238T147 1276Q106 1276 84 1244T59 1180L57 1147H-27Z" />
<glyph unicode="&#x12a;" glyph-name="Imacron" horiz-adv-x="694" d="M100 -6V63Q166 71 204 105T242 193V1161Q242 1241 222 1264T96 1311V1366H250L520 1374L530 1366Q462 1284 463 1114V193L453 86L639 68L631 6L100 -6ZM61 1561V1694H618V1561H61Z" />
<glyph unicode="&#x12b;" glyph-name="imacron" horiz-adv-x="589" d="M72 -6V57Q195 71 195 190V684Q195 735 192 759T175 802T133 821H45V881Q168 906 261 930T387 967L420 979L424 973Q404 905 403 739V190L393 80L563 61L555 6L72 -6ZM33 1198V1331H528V1198H33Z" />
<glyph unicode="&#x12c;" glyph-name="Ibreve" horiz-adv-x="694" d="M100 -6V63Q166 71 204 105T242 193V1161Q242 1241 222 1264T96 1311V1366H250L520 1374L530 1366Q462 1284 463 1114V193L453 86L639 68L631 6L100 -6ZM471 1470T340 1470T127 1537T45 1712Q45
1739 55 1784H137Q131 1692 191 1654T340 1616Q426 1616 485 1652T541 1784H625Q633 1751 633 1716Q633 1607 552 1539Z" />
<glyph unicode="&#x12d;" glyph-name="ibreve" horiz-adv-x="589" d="M72 -6V57Q195 71 195 190V684Q195 735 192 759T175 802T133 821H45V881Q168 906 261 930T387 967L420 979L424 973Q404 905 403 739V190L393 80L563 61L555 6L72 -6ZM399 1108T281 1108T84
1177T6 1356Q6 1397 16 1434H96V1413Q96 1347 141 1299T280 1251T420 1299T465 1413V1434H545Q555 1387 555 1356Q555 1247 477 1178Z" />
<glyph unicode="&#x12e;" glyph-name="Iogonek" horiz-adv-x="694" d="M100 -6V63Q166 71 204 105T242 193V1161Q242 1241 222 1264T96 1311V1366H250L520 1374L530 1366Q462 1284 463 1114V193L453 86L639 68L631 6L528 4Q469 0 393 -92T317 -270Q317 -329 357
-362T451 -395L494 -391L510 -451Q424 -486 338 -485Q248 -485 191 -437T133 -317Q133 -278 146 -244T208 -158T273 -89T371 0L100 -6Z" />
<glyph unicode="&#x12f;" glyph-name="iogonek" horiz-adv-x="589" d="M72 -6V57Q195 71 195 190V684Q195 735 192 759T175 802T133 821H45V881Q168 906 261 930T387 967L420 979L424 973Q404 905 403 739V190L393 80L563 61L555 6L469 4Q410 0 334 -92T258 -270Q258
-329 297 -362T389 -395L434 -391L451 -451Q363 -486 279 -485Q189 -485 131 -437T72 -317Q72 -225 199 -103Q215 -87 311 0L72 -6ZM334 1147T281 1147T190 1183T152 1272Q152 1323 189 1360T280 1397T372 1360T410 1272Q410 1219 372 1183Z" />
<glyph unicode="&#x130;" glyph-name="Idot" horiz-adv-x="694" d="M100 -6V63Q166 71 204 105T242 193V1161Q242 1241 222 1264T96 1311V1366H250L520 1374L530 1366Q462 1284 463 1114V193L453 86L639 68L631 6L100 -6ZM393 1501T340 1501T249 1538T211 1626Q211
1679 249 1715T340 1751T431 1715T469 1626Q469 1575 431 1538Z" />
<glyph unicode="&#x131;" glyph-name="dotlessi" horiz-adv-x="589" d="M72 -6V57Q195 71 195 190V684Q195 735 192 759T175 802T133 821H45V881Q168 906 261 930T387 967L420 979L424 973Q404 905 403 739V190L393 80L563 61L555 6L72 -6Z" />
<glyph unicode="&#x132;" glyph-name="IJ" horiz-adv-x="1329" d="M100 -6V63Q166 71 204 105T242 193V1161Q242 1241 222 1264T96 1311V1366H250L520 1374L530 1366Q462 1284 463 1114V193L453 86L639 68L631 6L100 -6ZM909 121V1161Q909 1241 889 1264T764 1311V1366H918L1188
1374L1198 1366Q1130 1288 1130 1118V250Q1130 -24 1020 -179T715 -334L690 -281Q778 -269 843 -153T909 121Z" />
<glyph unicode="&#x133;" glyph-name="ij" horiz-adv-x="1118" d="M72 -6V57Q195 71 195 190V684Q195 735 192 759T175 802T133 821H45V881Q168 906 261 930T387 967L420 979L424 973Q404 905 403 739V190L393 80L563 61L555 6L72 -6ZM334 1147T281 1147T190 1183T152
1272Q152 1323 189 1360T280 1397T372 1360T410 1272Q410 1219 372 1183ZM762 -45V684Q762 735 759 759T743 802T700 821H614V881Q735 906 829 930T956 967L989 979L991 973Q971 910 971 743V76Q971 -196 866 -340T567 -485L543 -432Q631 -420 696 -309T762 -45ZM901
1147T848 1147T758 1183T721 1272T758 1361T848 1397T939 1360T977 1272Q977 1219 939 1183Z" />
<glyph unicode="&#x134;" glyph-name="Jcircumflex" horiz-adv-x="643" d="M223 121V1161Q223 1241 203 1264T78 1311V1366H231L502 1374L512 1366Q444 1288 444 1118V250Q444 -24 334 -179T29 -334L4 -281Q92 -269 157 -153T223 121ZM2 1524L274 1784H399L670
1524L608 1470L342 1626H330L63 1470L2 1524Z" />
<glyph unicode="&#x135;" glyph-name="jcircumflex" horiz-adv-x="534" d="M178 -45V684Q178 735 175 759T159 802T117 821H31V881Q152 906 246 930T373 967L406 979L408 973Q388 910 387 743V76Q387 -196 282 -340T-16 -485L-41 -432Q47 -420 112 -309T178 -45ZM-16
1075L225 1436H317L557 1075L489 1030L270 1262L51 1030L-16 1075Z" />
<glyph unicode="&#x136;" glyph-name="Kcommaaccent" horiz-adv-x="1345" d="M598 -135L618 -88H809Q856 -154 856 -227Q856 -309 785 -383T612 -504L567 -440Q686 -372 686 -303Q686 -241 598 -135ZM100 -6V63Q166 71 204 105T242 190V1161Q242 1241 222 1264T96
1311V1366H250L520 1374L530 1366Q462 1288 463 1118V758H502Q549 787 584 823L965 1208Q998 1237 987 1268T903 1311V1366H1298L1309 1333Q1200 1310 1073 1182L694 797V770L1174 188Q1237 112 1263 94T1337 72L1360 70L1352 0H1012L1004 6Q988 69 860 223L500
659H463V190L453 86L633 68L625 6L100 -6Z" />
<glyph unicode="&#x137;" glyph-name="kcommaaccent" horiz-adv-x="1095" d="M449 -135L469 -88H659Q706 -154 707 -227Q707 -309 635 -383T463 -504L418 -440Q537 -372 537 -303Q537 -241 449 -135ZM53 -6V57Q176 71 176 190V1227Q176 1278 173 1302T157 1345T115
1364H33V1423Q156 1448 248 1472T370 1509L399 1522L406 1516Q386 1440 385 1282V551H414L618 725Q694 793 694 821Q694 852 629 870V926H1012L1022 893Q893 856 807 780L590 592V567Q606 542 621 528L913 184Q974 112 1004 92T1083 68L1106 66L1098 0L770 -6Q745
68 692 135L414 473H385V190L375 80L530 61L522 6L53 -6Z" />
<glyph unicode="&#x138;" glyph-name="kgreenlandic" horiz-adv-x="1101" d="M72 -6V57Q195 71 195 190V684Q195 735 192 759T175 802T133 821H45V881Q168 906 261 930T387 967L420 979L424 973Q404 905 403 739V510H434L682 725Q758 788 758 821Q758 852 692
870V926H1057L1067 893Q952 852 872 780L606 547V524Q622 499 637 485L897 184Q958 112 988 92T1067 68L1090 66L1081 0L754 -6Q731 70 676 135L430 432H403V190L393 80L532 61L524 6L72 -6Z" />
<glyph unicode="&#x139;" glyph-name="Lacute" horiz-adv-x="1165" d="M158 1550L535 1772H545L621 1649V1593L190 1475L158 1550ZM102 -6V63Q239 79 240 190V1161Q240 1241 219 1264T92 1311V1366H248L518 1374L528 1366Q460 1284 461 1114V205L451 92H772Q838
92 879 104T955 157T1015 241T1085 381H1159L1073 0H418L102 -6Z" />
<glyph unicode="&#x13a;" glyph-name="lacute" horiz-adv-x="571" d="M53 -6V57Q176 71 176 190V1227Q176 1278 173 1302T157 1345T115 1364H33V1423Q156 1448 248 1472T370 1509L399 1522L406 1516Q386 1440 385 1282V190L375 80L545 61L537 6L53 -6Z" />
<glyph unicode="&#x13b;" glyph-name="Lcommaaccent" horiz-adv-x="1165" d="M512 -135L532 -88H723Q770 -154 770 -227Q770 -309 699 -383T526 -504L481 -440Q600 -372 600 -303Q600 -241 512 -135ZM102 -6V63Q239 79 240 190V1161Q240 1241 219 1264T92 1311V1366H248L518
1374L528 1366Q460 1284 461 1114V205L451 92H772Q838 92 879 104T955 157T1015 241T1085 381H1159L1073 0H418L102 -6Z" />
<glyph unicode="&#x13c;" glyph-name="lcommaaccent" horiz-adv-x="571" d="M168 -135L188 -88H379Q426 -154 426 -227Q426 -309 355 -383T182 -504L137 -440Q256 -372 256 -303Q256 -241 168 -135ZM53 -6V57Q176 71 176 190V1227Q176 1278 173 1302T157 1345T115
1364H33V1423Q156 1448 248 1472T370 1509L399 1522L406 1516Q386 1440 385 1282V190L375 80L545 61L537 6L53 -6Z" />
<glyph unicode="&#x13d;" glyph-name="Lcaron" horiz-adv-x="1165" d="M645 1118L696 1511L899 1532V1479L735 1118H645ZM102 -6V63Q239 79 240 190V1161Q240 1241 219 1264T92 1311V1366H248L518 1374L528 1366Q460 1284 461 1114V205L451 92H772Q838 92 879
104T955 157T1015 241T1085 381H1159L1073 0H418L102 -6Z" />
<glyph unicode="&#x13e;" glyph-name="lcaron" horiz-adv-x="571" d="M504 1118L555 1511L758 1532V1479L594 1118H504ZM53 -6V57Q176 71 176 190V1227Q176 1278 173 1302T157 1345T115 1364H33V1423Q156 1448 248 1472T370 1509L399 1522L406 1516Q386 1440 385
1282V190L375 80L545 61L537 6L53 -6Z" />
<glyph unicode="&#x13f;" glyph-name="Ldot" horiz-adv-x="1165" d="M102 -6V63Q239 79 240 190V1161Q240 1241 219 1264T92 1311V1366H248L518 1374L528 1366Q460 1284 461 1114V205L451 92H772Q838 92 879 104T955 157T1015 241T1085 381H1159L1073 0H418L102
-6ZM981 594T924 594T825 635T784 731Q784 788 825 829T923 870T1021 829T1061 731Q1061 676 1021 635Z" />
<glyph unicode="&#x140;" glyph-name="ldot" horiz-adv-x="800" d="M53 -6V57Q176 71 176 190V1227Q176 1278 173 1302T157 1345T115 1364H33V1423Q156 1448 248 1472T370 1509L399 1522L406 1516Q386 1440 385 1282V190L375 80L545 61L537 6L53 -6ZM735 594T678
594T580 635T539 731Q539 788 580 829T678 870T775 829T815 731Q815 676 775 635Z" />
<glyph unicode="&#x141;" glyph-name="Lslash" horiz-adv-x="1165" d="M59 469V582L240 705V1161Q240 1241 219 1264T92 1311V1366H248L518 1374L528 1366Q460 1284 461 1114V846L764 1055V940L461 735V205L451 92H772Q838 92 879 104T955 157T1015 241T1085 381H1159L1073
0H418L102 -6V63Q239 79 240 190V592L59 469Z" />
<glyph unicode="&#x142;" glyph-name="lslash" horiz-adv-x="606" d="M33 461V571L197 692V1227Q197 1278 194 1302T177 1345T135 1364H53V1423Q176 1448 267 1472T389 1509L420 1522L426 1516Q406 1440 406 1282V836L569 956V846L406 723V190L395 80L563 61L555
6L74 -6V57Q197 71 197 190V580L33 461Z" />
<glyph unicode="&#x143;" glyph-name="Nacute" horiz-adv-x="1583" d="M614 1550L991 1772H1001L1077 1649V1593L647 1475L614 1550ZM102 -6V63Q249 79 250 190V1094Q250 1198 216 1241T82 1311V1366H143L375 1374Q400 1327 453 1268L1184 455Q1223 412 1266 352V1149Q1266
1190 1263 1210T1245 1253T1194 1287T1100 1305V1366H1499L1509 1333Q1503 1331 1494 1328T1461 1309T1418 1272T1384 1211T1368 1124V-10H1300L428 977Q393 1014 350 1077V190L340 80L524 68L516 6L102 -6Z" />
<glyph unicode="&#x144;" glyph-name="nacute" horiz-adv-x="1183" d="M580 1036L510 1075L676 1425L883 1444V1389L580 1036ZM72 -6V57Q195 71 195 190V684Q195 735 192 759T175 802T133 821H45V881Q143 897 234 921T368 963L410 979L416 973Q398 916 393 733Q454
823 553 886T770 950Q1010 950 1010 674V190L999 82L1167 61L1159 6L694 -6V57Q800 69 801 190V614Q801 720 768 760T670 801Q527 801 403 688V190L393 82L543 61L535 6L72 -6Z" />
<glyph unicode="&#x145;" glyph-name="Ncommaaccent" horiz-adv-x="1583" d="M102 -6V63Q249 79 250 190V1094Q250 1198 216 1241T82 1311V1366H143L375 1374Q400 1327 453 1268L1184 455Q1223 412 1266 352V1149Q1266 1190 1263 1210T1245 1253T1194 1287T1100
1305V1366H1499L1509 1333Q1503 1331 1494 1328T1461 1309T1418 1272T1384 1211T1368 1124V-10H1300L428 977Q393 1014 350 1077V190L340 80L524 68L516 6L102 -6ZM694 -135L715 -88H905Q952 -154 952 -227Q952 -309 881 -383T709 -504L664 -440Q783 -372 782 -303Q782
-241 694 -135Z" />
<glyph unicode="&#x146;" glyph-name="ncommaaccent" horiz-adv-x="1183" d="M485 -135L506 -88H696Q743 -154 743 -227Q743 -309 672 -383T500 -504L455 -440Q574 -372 573 -303Q573 -241 485 -135ZM72 -6V57Q195 71 195 190V684Q195 735 192 759T175 802T133
821H45V881Q143 897 234 921T368 963L410 979L416 973Q398 916 393 733Q454 823 553 886T770 950Q1010 950 1010 674V190L999 82L1167 61L1159 6L694 -6V57Q800 69 801 190V614Q801 720 768 760T670 801Q527 801 403 688V190L393 82L543 61L535 6L72 -6Z" />
<glyph unicode="&#x147;" glyph-name="Ncaron" horiz-adv-x="1583" d="M102 -6V63Q249 79 250 190V1094Q250 1198 216 1241T82 1311V1366H143L375 1374Q400 1327 453 1268L1184 455Q1223 412 1266 352V1149Q1266 1190 1263 1210T1245 1253T1194 1287T1100 1305V1366H1499L1509
1333Q1503 1331 1494 1328T1461 1309T1418 1272T1384 1211T1368 1124V-10H1300L428 977Q393 1014 350 1077V190L340 80L524 68L516 6L102 -6ZM475 1731L537 1784L803 1626H815L1081 1784L1143 1731L872 1470H745L475 1731Z" />
<glyph unicode="&#x148;" glyph-name="ncaron" horiz-adv-x="1183" d="M555 1071L313 1413L381 1458L600 1243L819 1458L887 1413L647 1071H555ZM72 -6V57Q195 71 195 190V684Q195 735 192 759T175 802T133 821H45V881Q143 897 234 921T368 963L410 979L416 973Q398
916 393 733Q454 823 553 886T770 950Q1010 950 1010 674V190L999 82L1167 61L1159 6L694 -6V57Q800 69 801 190V614Q801 720 768 760T670 801Q527 801 403 688V190L393 82L543 61L535 6L72 -6Z" />
<glyph unicode="&#x149;" glyph-name="napostrophe" horiz-adv-x="1183" d="M96 1462L117 1509H307Q354 1443 354 1370Q354 1288 283 1215T111 1094L66 1157Q185 1225 184 1294Q184 1356 96 1462ZM72 -6V57Q195 71 195 190V684Q195 735 192 759T175 802T133 821H45V881Q143
897 234 921T368 963L410 979L416 973Q398 916 393 733Q454 823 553 886T770 950Q1010 950 1010 674V190L999 82L1167 61L1159 6L694 -6V57Q800 69 801 190V614Q801 720 768 760T670 801Q527 801 403 688V190L393 82L543 61L535 6L72 -6Z" />
<glyph unicode="&#x14a;" glyph-name="Eng" horiz-adv-x="1585" d="M1368 1124V119Q1368 45 1358 -30T1327 -186T1259 -316T1149 -367Q1102 -367 1078 -340T1053 -274Q1053 -215 1122 -186Q1124 -186 1142 -178T1169 -166T1195 -151T1221 -127T1242 -97T1258 -54T1264
2V31L428 977Q393 1014 350 1077V190L340 80L524 68L516 6L102 -6V63Q249 79 250 190V1094Q250 1198 216 1241T82 1311V1366H143L375 1374Q400 1327 453 1268L1184 455Q1223 412 1266 352V1149Q1266 1190 1263 1210T1245 1253T1194 1287T1100 1305V1366H1499L1509
1333Q1503 1331 1494 1328T1461 1309T1418 1272T1384 1211T1368 1124Z" />
<glyph unicode="&#x14b;" glyph-name="eng" horiz-adv-x="1142" d="M72 -6V57Q195 71 195 190V684Q195 735 192 759T175 802T133 821H45V881Q168 906 259 930T380 967L410 979L416 973Q398 916 393 733Q454 823 553 886T770 950Q1010 950 1010 674V113Q1010 -37
968 -153T867 -330T749 -429T648 -476L606 -485L582 -432Q590 -428 605 -421T658 -381T725 -305T777 -187T801 -18V614Q801 720 768 760T670 801Q527 801 403 688V190L393 82L543 61L535 6L72 -6Z" />
<glyph unicode="&#x14c;" glyph-name="Omacron" horiz-adv-x="1630" d="M328 719Q328 561 384 415T558 167T829 66Q1044 66 1172 250T1300 678Q1300 836 1245 975T1073 1207T801 1300Q654 1300 544 1217T381 1002T328 719ZM82 664Q82 803 132 932T274 1163T514
1328T842 1391Q1170 1391 1359 1201T1548 731Q1548 538 1458 368T1190 86T784 -25Q465 -25 274 177T82 664ZM532 1561V1694H1090V1561H532Z" />
<glyph unicode="&#x14d;" glyph-name="omacron" horiz-adv-x="1101" d="M301 1198V1331H797V1198H301ZM68 238T68 442T192 798T563 950Q784 950 909 824T1034 500Q1034 367 981 250T811 54T535 -25Q320 -25 194 106ZM297 494Q297 385 322 289T411 123T563 53Q684
53 744 172T805 451Q803 555 779 647T692 805T541 872Q422 872 360 762T297 494Z" />
<glyph unicode="&#x14e;" glyph-name="Obreve" horiz-adv-x="1630" d="M328 719Q328 561 384 415T558 167T829 66Q1044 66 1172 250T1300 678Q1300 836 1245 975T1073 1207T801 1300Q654 1300 544 1217T381 1002T328 719ZM82 664Q82 803 132 932T274 1163T514
1328T842 1391Q1170 1391 1359 1201T1548 731Q1548 538 1458 368T1190 86T784 -25Q465 -25 274 177T82 664ZM942 1470T811 1470T598 1537T516 1712Q516 1739 526 1784H608Q602 1692 662 1654T811 1616Q897 1616 956 1652T1012 1784H1096Q1104 1751 1104 1716Q1104
1607 1023 1539Z" />
<glyph unicode="&#x14f;" glyph-name="obreve" horiz-adv-x="1101" d="M68 238T68 442T192 798T563 950Q784 950 909 824T1034 500Q1034 367 981 250T811 54T535 -25Q320 -25 194 106ZM297 494Q297 385 322 289T411 123T563 53Q684 53 744 172T805 451Q803 555
779 647T692 805T541 872Q422 872 360 762T297 494ZM668 1108T549 1108T352 1177T274 1356Q274 1397 285 1434H365V1413Q365 1347 410 1299T549 1251T688 1299T733 1413V1434H813Q823 1387 823 1356Q823 1247 746 1178Z" />
<glyph unicode="&#x150;" glyph-name="Ohungarumlaut" horiz-adv-x="1630" d="M625 1470L557 1513L678 1772L899 1790V1735L625 1470ZM977 1470L907 1513L1049 1772L1270 1790V1735L977 1470ZM328 719Q328 561 384 415T558 167T829 66Q1044 66 1172 250T1300 678Q1300
836 1245 975T1073 1207T801 1300Q654 1300 544 1217T381 1002T328 719ZM82 664Q82 803 132 932T274 1163T514 1328T842 1391Q1170 1391 1359 1201T1548 731Q1548 538 1458 368T1190 86T784 -25Q465 -25 274 177T82 664Z" />
<glyph unicode="&#x151;" glyph-name="ohungarumlaut" horiz-adv-x="1101" d="M395 1036L324 1075L477 1425L662 1444V1389L395 1036ZM700 1036L629 1075L784 1425L967 1444V1389L700 1036ZM68 238T68 442T192 798T563 950Q784 950 909 824T1034 500Q1034 367
981 250T811 54T535 -25Q320 -25 194 106ZM297 494Q297 385 322 289T411 123T563 53Q684 53 744 172T805 451Q803 555 779 647T692 805T541 872Q422 872 360 762T297 494Z" />
<glyph unicode="&#x152;" glyph-name="OE" horiz-adv-x="2039" d="M82 662Q82 848 168 1012T429 1283T836 1391Q902 1391 1014 1379T1169 1366H1780L1931 1374L1868 1024H1794Q1802 1176 1753 1225T1573 1274H1321L1298 1251V739H1663L1679 858L1759 870V496H1659V649H1321L1298
627V207L1288 92H1595Q1724 92 1771 133T1898 340H1972L1896 0H1190Q1131 0 996 -12T797 -25Q471 -25 277 177T82 662ZM328 723Q328 559 383 415T564 168T864 66Q1077 66 1077 190V1159Q1077 1233 1014 1268T854 1303Q678 1303 555 1218T380 1006T328 723Z" />
<glyph unicode="&#x153;" glyph-name="oe" horiz-adv-x="1691" d="M68 238T68 442T192 798T563 950Q811 950 924 768Q1053 950 1262 950Q1409 950 1513 859T1624 600Q1552 573 1511 567L1034 498L1014 471Q1026 326 1106 230T1339 133Q1411 133 1475 156T1569
203L1597 225L1620 174Q1616 166 1607 153T1563 106T1489 45T1384 -3T1243 -25Q1022 -25 911 168Q778 -25 535 -25Q320 -25 194 106ZM297 494Q297 385 322 289T411 123T563 53Q684 53 744 172T805 451Q803 555 779 647T692 805T541 872Q422 872 360 762T297 494ZM1227
864Q1137 864 1083 783T1016 580L1405 631Q1405 641 1403 656T1390 712T1361 782T1309 838T1227 864Z" />
<glyph unicode="&#x154;" glyph-name="Racute" horiz-adv-x="1308" d="M100 -6V63Q166 71 204 105T242 190V1161Q242 1237 216 1262T80 1311V1366H600Q856 1366 980 1273T1104 1036Q1104 915 1024 822T842 672V641L1137 203Q1178 146 1210 116T1260 80T1309 72L1331
70L1323 0H983L975 6Q940 102 852 231L608 596H485L463 573V190L453 86L637 68L629 6L100 -6ZM463 686H627Q717 686 788 764T860 979Q860 1110 786 1192T551 1274H485L463 1251V686ZM420 1550L797 1772H807L883 1649V1593L453 1475L420 1550Z" />
<glyph unicode="&#x155;" glyph-name="racute" horiz-adv-x="800" d="M395 1036L326 1075L492 1425L698 1444V1389L395 1036ZM72 -6V57Q195 71 195 190V682Q195 733 192 757T175 800T133 819H45V879Q143 897 234 921T369 963L412 979L418 973Q400 916 393 717Q434
793 512 871T676 950Q725 950 759 921T793 844Q793 795 762 763T682 731Q653 731 624 749T569 768Q524 768 477 737T403 672V190L393 80L584 61L575 6L72 -6Z" />
<glyph unicode="&#x156;" glyph-name="Rcommaaccent" horiz-adv-x="1308" d="M586 -135L606 -88H797Q844 -154 844 -227Q844 -309 772 -383T600 -504L555 -440Q674 -372 674 -303Q674 -241 586 -135ZM100 -6V63Q166 71 204 105T242 190V1161Q242 1237 216 1262T80
1311V1366H600Q856 1366 980 1273T1104 1036Q1104 915 1024 822T842 672V641L1137 203Q1178 146 1210 116T1260 80T1309 72L1331 70L1323 0H983L975 6Q940 102 852 231L608 596H485L463 573V190L453 86L637 68L629 6L100 -6ZM463 686H627Q717 686 788 764T860 979Q860
1110 786 1192T551 1274H485L463 1251V686Z" />
<glyph unicode="&#x157;" glyph-name="rcommaaccent" horiz-adv-x="800" d="M184 -135L205 -88H395Q442 -154 442 -227Q442 -309 371 -383T199 -504L154 -440Q273 -372 272 -303Q272 -241 184 -135ZM72 -6V57Q195 71 195 190V682Q195 733 192 757T175 800T133
819H45V879Q143 897 234 921T369 963L412 979L418 973Q400 916 393 717Q434 793 512 871T676 950Q725 950 759 921T793 844Q793 795 762 763T682 731Q653 731 624 749T569 768Q524 768 477 737T403 672V190L393 80L584 61L575 6L72 -6Z" />
<glyph unicode="&#x158;" glyph-name="Rcaron" horiz-adv-x="1308" d="M100 -6V63Q166 71 204 105T242 190V1161Q242 1237 216 1262T80 1311V1366H600Q856 1366 980 1273T1104 1036Q1104 915 1024 822T842 672V641L1137 203Q1178 146 1210 116T1260 80T1309 72L1331
70L1323 0H983L975 6Q940 102 852 231L608 596H485L463 573V190L453 86L637 68L629 6L100 -6ZM463 686H627Q717 686 788 764T860 979Q860 1110 786 1192T551 1274H485L463 1251V686ZM281 1731L342 1784L608 1626H621L887 1784L948 1731L678 1470H551L281 1731Z"
/>
<glyph unicode="&#x159;" glyph-name="rcaron" horiz-adv-x="800" d="M375 1071L133 1413L201 1458L420 1243L639 1458L707 1413L467 1071H375ZM72 -6V57Q195 71 195 190V682Q195 733 192 757T175 800T133 819H45V879Q143 897 234 921T369 963L412 979L418 973Q400
916 393 717Q434 793 512 871T676 950Q725 950 759 921T793 844Q793 795 762 763T682 731Q653 731 624 749T569 768Q524 768 477 737T403 672V190L393 80L584 61L575 6L72 -6Z" />
<glyph unicode="&#x15a;" glyph-name="Sacute" horiz-adv-x="1046" d="M86 186Q86 229 139 387H213Q213 211 300 137T510 63Q612 63 683 113T754 264Q754 344 707 409T589 517T435 610T282 711T164 841T117 1020Q117 1186 237 1288T584 1391Q631 1391 687 1386T780
1375T868 1362T934 1352L868 1024H795Q805 1147 747 1225T563 1303Q457 1303 390 1251T322 1104Q322 1034 356 978T447 882T571 805T707 726T832 636T923 514T958 350Q958 168 827 72T494 -25Q336 -25 212 28T86 186ZM356 1550L733 1772H743L819 1649V1593L389
1475L356 1550Z" />
<glyph unicode="&#x15b;" glyph-name="sacute" horiz-adv-x="792" d="M387 1036L317 1075L483 1425L690 1444V1389L387 1036ZM70 117Q70 137 78 177T93 248L100 279H166Q174 160 241 106T393 51Q461 51 503 86T545 180Q545 237 498 281T384 359T252 430T139 530T92
678Q92 803 183 876T432 950Q485 950 551 941T658 923L698 913L655 692H590Q588 766 552 811T483 865T414 874Q346 874 310 840T274 752Q274 695 320 652T433 578T566 511T679 412T725 258Q725 123 630 49T383 -25Q272 -25 171 9T70 117Z" />
<glyph unicode="&#x15c;" glyph-name="Scircumflex" horiz-adv-x="1046" d="M86 186Q86 229 139 387H213Q213 211 300 137T510 63Q612 63 683 113T754 264Q754 344 707 409T589 517T435 610T282 711T164 841T117 1020Q117 1186 237 1288T584 1391Q631 1391 687
1386T780 1375T868 1362T934 1352L868 1024H795Q805 1147 747 1225T563 1303Q457 1303 390 1251T322 1104Q322 1034 356 978T447 882T571 805T707 726T832 636T923 514T958 350Q958 168 827 72T494 -25Q336 -25 212 28T86 186ZM217 1524L489 1784H614L885 1524L823
1470L557 1626H545L279 1470L217 1524Z" />
<glyph unicode="&#x15d;" glyph-name="scircumflex" horiz-adv-x="792" d="M123 1075L365 1436H457L696 1075L629 1030L410 1262L190 1030L123 1075ZM70 117Q70 137 78 177T93 248L100 279H166Q174 160 241 106T393 51Q461 51 503 86T545 180Q545 237 498 281T384
359T252 430T139 530T92 678Q92 803 183 876T432 950Q485 950 551 941T658 923L698 913L655 692H590Q588 766 552 811T483 865T414 874Q346 874 310 840T274 752Q274 695 320 652T433 578T566 511T679 412T725 258Q725 123 630 49T383 -25Q272 -25 171 9T70 117Z"
/>
<glyph unicode="&#x15e;" glyph-name="Scedilla" horiz-adv-x="1046" d="M391 -172Q391 -119 455 -23Q308 -17 198 35T86 186Q86 229 139 387H213Q213 211 300 137T510 63Q612 63 683 113T754 264Q754 344 707 409T589 517T435 610T282 711T164 841T117 1020Q117
1186 237 1288T584 1391Q631 1391 687 1386T780 1375T868 1362T934 1352L868 1024H795Q805 1147 747 1225T563 1303Q457 1303 390 1251T322 1104Q322 1034 356 978T447 882T571 805T707 726T832 636T923 514T958 350Q958 176 839 81T530 -23Q516 -70 516 -90Q516
-113 543 -130T605 -159T666 -205T694 -285Q694 -365 627 -425T461 -485Q406 -485 358 -466T288 -428L266 -410L299 -338Q369 -391 444 -391Q487 -391 516 -373T545 -324Q545 -291 468 -252T391 -172Z" />
<glyph unicode="&#x15f;" glyph-name="scedilla" horiz-adv-x="792" d="M272 -172Q272 -127 336 -23Q232 -17 151 17T70 117Q70 137 78 177T93 248L100 279H166Q174 160 241 106T393 51Q461 51 503 86T545 180Q545 237 498 281T384 359T252 430T139 530T92 678Q92
803 183 876T432 950Q485 950 551 941T658 923L698 913L655 692H590Q588 766 552 811T483 865T414 874Q346 874 310 840T274 752Q274 695 320 652T433 578T566 511T679 412T725 258Q725 129 638 57T412 -23Q398 -70 397 -90Q397 -113 425 -130T486 -159T547 -205T575
-285Q575 -365 508 -425T342 -485Q287 -485 239 -466T169 -428L147 -410L180 -338Q250 -391 326 -391Q369 -391 397 -373T426 -324Q426 -291 349 -252T272 -172Z" />
<glyph unicode="&#x160;" glyph-name="Scaron" horiz-adv-x="1046" d="M86 186Q86 229 139 387H213Q213 211 300 137T510 63Q612 63 683 113T754 264Q754 344 707 409T589 517T435 610T282 711T164 841T117 1020Q117 1186 237 1288T584 1391Q631 1391 687 1386T780
1375T868 1362T934 1352L868 1024H795Q805 1147 747 1225T563 1303Q457 1303 390 1251T322 1104Q322 1034 356 978T447 882T571 805T707 726T832 636T923 514T958 350Q958 168 827 72T494 -25Q336 -25 212 28T86 186ZM217 1731L279 1784L545 1626H557L823 1784L885
1731L614 1470H487L217 1731Z" />
<glyph unicode="&#x161;" glyph-name="scaron" horiz-adv-x="792" d="M365 1071L123 1413L190 1458L410 1243L629 1458L696 1413L457 1071H365ZM70 117Q70 137 78 177T93 248L100 279H166Q174 160 241 106T393 51Q461 51 503 86T545 180Q545 237 498 281T384 359T252
430T139 530T92 678Q92 803 183 876T432 950Q485 950 551 941T658 923L698 913L655 692H590Q588 766 552 811T483 865T414 874Q346 874 310 840T274 752Q274 695 320 652T433 578T566 511T679 412T725 258Q725 123 630 49T383 -25Q272 -25 171 9T70 117Z" />
<glyph unicode="&#x162;" glyph-name="Tcommaaccent" horiz-adv-x="1329" d="M406 -6V63Q472 71 509 106T547 197V1274H356Q250 1274 193 1225T78 1024H4L68 1378Q121 1366 205 1366H1186Q1223 1366 1259 1369T1315 1375L1333 1378L1270 1024H1194Q1198 1174 1149
1224T977 1274H791L768 1251V197L758 86L963 68L954 6L680 0H702Q679 -63 680 -90Q680 -113 707 -130T769 -159T830 -205T858 -285Q858 -365 791 -425T625 -485Q570 -485 522 -466T452 -428L430 -410L463 -338Q533 -391 608 -391Q651 -391 680 -373T709 -324Q709
-291 632 -252T555 -172Q555 -129 633 0L406 -6Z" />
<glyph unicode="&#x163;" glyph-name="tcommaaccent" horiz-adv-x="729" d="M291 -172Q291 -121 356 -20Q170 7 170 244V678L176 811H43V883Q135 901 184 946L260 1174L389 1169L395 1163Q377 1110 377 961V926H684L670 817H401L379 795V303Q379 209 408 163T516
117Q557 117 602 128T672 151L696 162L725 117Q713 103 689 81T587 21T430 -23Q416 -70 416 -90Q416 -113 443 -130T505 -159T566 -205T594 -285Q594 -365 527 -425T360 -485Q305 -485 257 -466T187 -428L166 -410L199 -338Q269 -391 344 -391Q387 -391 415 -373T444
-324Q444 -291 368 -252T291 -172Z" />
<glyph unicode="&#x164;" glyph-name="Tcaron" horiz-adv-x="1329" d="M406 -6V63Q472 71 509 106T547 197V1274H356Q250 1274 193 1225T78 1024H4L68 1378Q121 1366 205 1366H1186Q1223 1366 1259 1369T1315 1375L1333 1378L1270 1024H1194Q1198 1174 1149 1224T977
1274H791L768 1251V197L758 86L963 68L954 6L406 -6ZM324 1731L385 1784L651 1626H664L930 1784L991 1731L721 1470H594L324 1731Z" />
<glyph unicode="&#x165;" glyph-name="tcaron" horiz-adv-x="729" d="M516 1116L567 1509L770 1530V1477L606 1116H516ZM170 244V678L176 811H43V883Q135 901 184 946L260 1174L389 1169L395 1163Q377 1110 377 961V926H684L670 817H401L379 795V303Q379 209 408
163T516 117Q557 117 602 128T672 151L696 162L725 117Q721 111 711 102T669 68T602 25T514 -9T408 -25Q170 -24 170 244Z" />
<glyph unicode="&#x166;" glyph-name="Tbar" horiz-adv-x="1329" d="M242 653V750H547V1274H356Q250 1274 193 1225T78 1024H4L68 1378Q121 1366 205 1366H1186Q1223 1366 1259 1369T1315 1375L1333 1378L1270 1024H1194Q1198 1174 1149 1224T977 1274H791L768
1251V750H1073V653H768V197L758 86L963 68L954 6L406 -6V63Q472 71 509 106T547 197V653H242Z" />
<glyph unicode="&#x167;" glyph-name="tbar" horiz-adv-x="729" d="M43 498V594H170V678L176 811H43V883Q135 901 184 946L260 1174L389 1169L395 1163Q377 1110 377 961V926H684L670 817H401L379 795V594H670V498H379V303Q379 209 408 163T516 117Q557 117 602
128T672 151L696 162L725 117Q721 111 711 102T669 68T602 25T514 -9T408 -25Q170 -25 170 244V498H43Z" />
<glyph unicode="&#x168;" glyph-name="Utilde" horiz-adv-x="1505" d="M188 481V1161Q188 1241 168 1264T43 1311V1366H197L467 1374L477 1366Q409 1286 410 1114V498Q410 293 526 187T805 80T1085 186T1204 483V1151Q1204 1192 1201 1211T1184 1253T1136 1287T1044
1305V1366H1452L1462 1333Q1456 1331 1447 1327T1412 1307T1367 1269T1333 1207T1317 1120V489Q1317 245 1156 110T752 -25Q643 -25 547 3T368 87T237 244T188 481ZM485 1499L408 1516Q408 1526 411 1541T427 1597T460 1669T522 1725T618 1751Q686 1751 797 1694T954
1636Q995 1636 1024 1665T1060 1722L1067 1751L1147 1743Q1147 1733 1145 1717T1130 1658T1094 1584T1026 1526T920 1499Q844 1499 743 1556T598 1614Q559 1614 532 1585T495 1528L485 1499Z" />
<glyph unicode="&#x169;" glyph-name="utilde" horiz-adv-x="1159" d="M164 250V682Q164 735 161 759T145 802T102 821H37V883Q154 903 241 922T356 951L385 961L391 954Q373 897 373 739V311Q373 205 406 163T504 121Q570 121 643 160T760 244V682Q760 735 757
759T741 802T698 821H639V883Q754 903 839 922T952 951L981 961L987 954Q969 897 969 739V199Q969 119 994 101T1083 82H1137L1130 23L760 -18L754 -12Q770 47 770 98V197Q721 121 625 48T408 -25Q164 -24 164 250ZM256 1147Q254 1157 254 1175T260 1240T282 1321T339
1384T436 1413Q495 1413 542 1376T627 1303T700 1266Q743 1266 765 1299T791 1367L793 1401H877Q873 1399 877 1373T871 1304T845 1223T789 1155T689 1126T584 1163T503 1238T430 1276Q389 1276 367 1244T342 1180L340 1147H256Z" />
<glyph unicode="&#x16a;" glyph-name="Umacron" horiz-adv-x="1505" d="M188 481V1161Q188 1241 168 1264T43 1311V1366H197L467 1374L477 1366Q409 1286 410 1114V498Q410 293 526 187T805 80T1085 186T1204 483V1151Q1204 1192 1201 1211T1184 1253T1136 1287T1044
1305V1366H1452L1462 1333Q1456 1331 1447 1327T1412 1307T1367 1269T1333 1207T1317 1120V489Q1317 245 1156 110T752 -25Q643 -25 547 3T368 87T237 244T188 481ZM498 1561V1694H1055V1561H498Z" />
<glyph unicode="&#x16b;" glyph-name="umacron" horiz-adv-x="1159" d="M164 250V682Q164 735 161 759T145 802T102 821H37V883Q154 903 241 922T356 951L385 961L391 954Q373 897 373 739V311Q373 205 406 163T504 121Q570 121 643 160T760 244V682Q760 735 757
759T741 802T698 821H639V883Q754 903 839 922T952 951L981 961L987 954Q969 897 969 739V199Q969 119 994 101T1083 82H1137L1130 23L760 -18L754 -12Q770 47 770 98V197Q721 121 625 48T408 -25Q164 -24 164 250ZM317 1198V1331H813V1198H317Z" />
<glyph unicode="&#x16c;" glyph-name="Ubreve" horiz-adv-x="1505" d="M188 481V1161Q188 1241 168 1264T43 1311V1366H197L467 1374L477 1366Q409 1286 410 1114V498Q410 293 526 187T805 80T1085 186T1204 483V1151Q1204 1192 1201 1211T1184 1253T1136 1287T1044
1305V1366H1452L1462 1333Q1456 1331 1447 1327T1412 1307T1367 1269T1333 1207T1317 1120V489Q1317 245 1156 110T752 -25Q643 -25 547 3T368 87T237 244T188 481ZM907 1470T776 1470T563 1537T481 1712Q481 1739 492 1784H573Q567 1692 627 1654T776 1616Q862
1616 921 1652T977 1784H1061Q1069 1751 1069 1716Q1069 1607 988 1539Z" />
<glyph unicode="&#x16d;" glyph-name="ubreve" horiz-adv-x="1159" d="M164 250V682Q164 735 161 759T145 802T102 821H37V883Q154 903 241 922T356 951L385 961L391 954Q373 897 373 739V311Q373 205 406 163T504 121Q570 121 643 160T760 244V682Q760 735 757
759T741 802T698 821H639V883Q754 903 839 922T952 951L981 961L987 954Q969 897 969 739V199Q969 119 994 101T1083 82H1137L1130 23L760 -18L754 -12Q770 47 770 98V197Q721 121 625 48T408 -25Q164 -24 164 250ZM684 1108T565 1108T369 1177T291 1356Q291 1397
301 1434H381V1413Q381 1347 426 1299T565 1251T704 1299T750 1413V1434H829Q839 1387 840 1356Q840 1247 762 1178Z" />
<glyph unicode="&#x16e;" glyph-name="Uring" horiz-adv-x="1505" d="M872 1405T776 1405T629 1459T578 1583T629 1704T776 1755T923 1704T975 1583T924 1459ZM776 1481Q819 1481 845 1510T872 1581T848 1649T776 1677T706 1650T682 1581T706 1511T776 1481ZM188
481V1161Q188 1241 168 1264T43 1311V1366H197L467 1374L477 1366Q409 1286 410 1114V498Q410 293 526 187T805 80T1085 186T1204 483V1151Q1204 1192 1201 1211T1184 1253T1136 1287T1044 1305V1366H1452L1462 1333Q1456 1331 1447 1327T1412 1307T1367 1269T1333
1207T1317 1120V489Q1317 245 1156 110T752 -25Q643 -25 547 3T368 87T237 244T188 481Z" />
<glyph unicode="&#x16f;" glyph-name="uring" horiz-adv-x="1159" d="M662 1098T566 1098T418 1152T367 1276T418 1397T565 1448T713 1397T764 1276T713 1152ZM565 1174Q608 1174 635 1203T662 1274T637 1342T565 1370T495 1343T471 1274T495 1204T565 1174ZM164
250V682Q164 735 161 759T145 802T102 821H37V883Q154 903 241 922T356 951L385 961L391 954Q373 897 373 739V311Q373 205 406 163T504 121Q570 121 643 160T760 244V682Q760 735 757 759T741 802T698 821H639V883Q754 903 839 922T952 951L981 961L987 954Q969
897 969 739V199Q969 119 994 101T1083 82H1137L1130 23L760 -18L754 -12Q770 47 770 98V197Q721 121 625 48T408 -25Q164 -24 164 250Z" />
<glyph unicode="&#x170;" glyph-name="Uhungarumlaut" horiz-adv-x="1505" d="M590 1470L522 1513L643 1772L864 1790V1735L590 1470ZM942 1470L872 1513L1014 1772L1235 1790V1735L942 1470ZM188 481V1161Q188 1241 168 1264T43 1311V1366H197L467 1374L477 1366Q409
1286 410 1114V498Q410 293 526 187T805 80T1085 186T1204 483V1151Q1204 1192 1201 1211T1184 1253T1136 1287T1044 1305V1366H1452L1462 1333Q1456 1331 1447 1327T1412 1307T1367 1269T1333 1207T1317 1120V489Q1317 245 1156 110T752 -25Q643 -25 547 3T368
87T237 244T188 481Z" />
<glyph unicode="&#x171;" glyph-name="uhungarumlaut" horiz-adv-x="1159" d="M164 250V682Q164 735 161 759T145 802T102 821H37V883Q154 903 241 922T356 951L385 961L391 954Q373 897 373 739V311Q373 205 406 163T504 121Q570 121 643 160T760 244V682Q760
735 757 759T741 802T698 821H639V883Q754 903 839 922T952 951L981 961L987 954Q969 897 969 739V199Q969 119 994 101T1083 82H1137L1130 23L760 -18L754 -12Q770 47 770 98V197Q721 121 625 48T408 -25Q164 -24 164 250ZM412 1036L340 1075L494 1425L678 1444V1389L412
1036ZM717 1036L645 1075L801 1425L983 1444V1389L717 1036Z" />
<glyph unicode="&#x172;" glyph-name="Uogonek" horiz-adv-x="1507" d="M188 481V1161Q188 1241 168 1264T43 1311V1366H197L467 1374L477 1366Q409 1286 410 1114V498Q410 293 526 187T805 80T1085 186T1204 483V1151Q1204 1192 1201 1211T1184 1253T1136 1287T1044
1305V1366H1452L1462 1333Q1456 1331 1447 1327T1412 1307T1367 1269T1333 1207T1317 1120V489Q1317 180 1059 45Q993 -2 917 -93T840 -268Q840 -329 880 -362T971 -395L1016 -391L1032 -451Q944 -486 860 -485Q770 -485 713 -437T655 -317Q655 -270 689 -215T747
-136T857 -32Q870 -21 877 -14Q809 -24 752 -25Q643 -25 547 3T368 87T237 244T188 481Z" />
<glyph unicode="&#x173;" glyph-name="uogonek" horiz-adv-x="1159" d="M164 250V682Q164 735 161 759T145 802T102 821H37V883Q154 903 241 922T356 951L385 961L391 954Q373 897 373 739V311Q373 205 406 163T504 121Q570 121 643 160T760 244V682Q760 735 757
759T741 802T698 821H639V883Q754 903 839 922T952 951L981 961L987 954Q969 897 969 739V199Q969 119 994 101T1083 82H1137L1130 23Q1056 17 901 0Q840 -20 777 -106T713 -270Q713 -329 752 -362T844 -395L889 -391L905 -451Q817 -486 733 -485Q643 -485 585
-437T526 -317Q526 -270 557 -219T618 -137T724 -37Q743 -18 754 -10Q770 39 770 98V197Q721 121 625 48T408 -25Q164 -24 164 250Z" />
<glyph unicode="&#x174;" glyph-name="Wcircumflex" horiz-adv-x="1959" d="M649 1524L922 1784H1047L1317 1524L1255 1470L989 1626H977L711 1470L649 1524ZM1335 6L975 952L668 -18L571 6L100 1198Q84 1237 55 1265T3 1303L-18 1311V1366H102L350 1374L358 1366Q311
1270 346 1178L627 428Q650 369 664 297L918 1100L881 1198Q865 1237 835 1265T783 1303L762 1311V1366H883L1130 1374L1139 1366Q1092 1270 1126 1178L1393 424Q1411 367 1430 299L1694 1133Q1719 1203 1697 1245T1597 1311V1366H1919L1927 1333Q1919 1329 1905
1318T1855 1252T1792 1118L1434 -18L1335 6Z" />
<glyph unicode="&#x175;" glyph-name="wcircumflex" horiz-adv-x="1499" d="M489 1075L731 1436H823L1063 1075L995 1030L776 1262L557 1030L489 1075ZM403 0L109 752Q91 799 62 828T13 864L-6 870V926H88L330 934L338 926Q334 916 329 900T319 832T334 737L483
336Q493 303 518 219L688 616Q711 673 694 723L684 752Q666 799 638 828T592 864L573 870V926H664L905 934L913 926Q909 916 904 900T894 832T909 737L1057 344Q1080 281 1092 221L1307 723Q1334 782 1302 818T1202 870V926H1487L1497 893Q1468 879 1427 784L1075
-27L979 0L756 563L500 -27L403 0Z" />
<glyph unicode="&#x176;" glyph-name="Ycircumflex" horiz-adv-x="1208" d="M352 -6V63Q420 71 458 105T496 193V604L111 1221Q88 1256 62 1278T18 1306L2 1311V1366H104L348 1374L356 1366Q319 1288 360 1219L602 821Q625 786 662 707L954 1184Q983 1223 965
1260T872 1311V1366H1212L1221 1333Q1149 1308 1087 1212L717 616V193L707 86L887 68L879 6L352 -6ZM285 1524L557 1784H682L952 1524L891 1470L625 1626H612L346 1470L285 1524Z" />
<glyph unicode="&#x177;" glyph-name="ycircumflex" horiz-adv-x="952" d="M152 -299Q314 -299 387 -129L432 -25Q420 18 377 123L109 752Q91 797 61 826T11 863L-8 870V926H88L336 934L344 926Q326 889 326 835T342 737L502 344Q527 272 541 223L758 723Q781
780 746 816T645 870V926H936L946 893Q911 868 877 784L541 16Q537 6 516 -45T482 -124T443 -205T396 -290T343 -364T282 -429T214 -469T137 -485Q90 -485 64 -459T37 -391Q37 -352 65 -326T152 -299ZM223 1075L465 1436H557L797 1075L729 1030L510 1262L291 1030L223
1075Z" />
<glyph unicode="&#x178;" glyph-name="Ydieresis" horiz-adv-x="1208" d="M352 -6V63Q420 71 458 105T496 193V604L111 1221Q88 1256 62 1278T18 1306L2 1311V1366H104L348 1374L356 1366Q319 1288 360 1219L602 821Q625 786 662 707L954 1184Q983 1223 965 1260T872
1311V1366H1212L1221 1333Q1149 1308 1087 1212L717 616V193L707 86L887 68L879 6L352 -6ZM250 1573T250 1624T284 1711T372 1747T462 1711T498 1624T462 1538T373 1503Q322 1503 286 1538ZM739 1573T739 1624T775 1711T864 1747T952 1711T987 1624T951 1538T864
1503Q811 1503 775 1538Z" />
<glyph unicode="&#x179;" glyph-name="Zacute" horiz-adv-x="1245" d="M63 -8L51 66Q94 105 164 211L805 1174Q828 1209 881 1274H485Q360 1274 299 1226T180 1024H104L158 1366H1004L1135 1374L1143 1300Q1108 1257 1040 1155L406 195Q392 172 328 92H788Q909
92 966 147T1106 381H1180L1094 0H195L63 -8ZM463 1550L840 1772H850L926 1649V1593L496 1475L463 1550Z" />
<glyph unicode="&#x17a;" glyph-name="zacute" horiz-adv-x="911" d="M72 -8L55 49Q82 72 129 147L512 750Q532 781 586 848H342Q260 848 213 793T147 676H76L113 926H682L819 934L836 877Q820 863 766 778L393 182Q370 147 317 80H535Q590 80 636 100T706 150T748
209T772 258L778 279H850L795 0H211L72 -8ZM469 1036L399 1075L565 1425L772 1444V1389L469 1036Z" />
<glyph unicode="&#x17b;" glyph-name="Zdotaccent" horiz-adv-x="1245" d="M711 1501T658 1501T566 1538T528 1626Q528 1679 566 1715T657 1751T748 1715T786 1626Q786 1575 749 1538ZM63 -8L51 66Q94 105 164 211L805 1174Q828 1209 881 1274H485Q360 1274 299
1226T180 1024H104L158 1366H1004L1135 1374L1143 1300Q1108 1257 1040 1155L406 195Q392 172 328 92H788Q909 92 966 147T1106 381H1180L1094 0H195L63 -8Z" />
<glyph unicode="&#x17c;" glyph-name="zdotaccent" horiz-adv-x="911" d="M72 -8L55 49Q82 72 129 147L512 750Q532 781 586 848H342Q260 848 213 793T147 676H76L113 926H682L819 934L836 877Q820 863 766 778L393 182Q370 147 317 80H535Q590 80 636 100T706
150T748 209T772 258L778 279H850L795 0H211L72 -8ZM547 1147T494 1147T403 1183T365 1272Q365 1323 402 1360T493 1397T585 1360T623 1272Q623 1219 585 1183Z" />
<glyph unicode="&#x17d;" glyph-name="Zcaron" horiz-adv-x="1245" d="M63 -8L51 66Q94 105 164 211L805 1174Q828 1209 881 1274H485Q360 1274 299 1226T180 1024H104L158 1366H1004L1135 1374L1143 1300Q1108 1257 1040 1155L406 195Q392 172 328 92H788Q909
92 966 147T1106 381H1180L1094 0H195L63 -8ZM324 1731L385 1784L651 1626H664L930 1784L991 1731L721 1470H594L324 1731Z" />
<glyph unicode="&#x17e;" glyph-name="zcaron" horiz-adv-x="911" d="M449 1071L207 1413L274 1458L494 1243L713 1458L780 1413L541 1071H449ZM72 -8L55 49Q82 72 129 147L512 750Q532 781 586 848H342Q260 848 213 793T147 676H76L113 926H682L819 934L836 877Q820
863 766 778L393 182Q370 147 317 80H535Q590 80 636 100T706 150T748 209T772 258L778 279H850L795 0H211L72 -8Z" />
<glyph unicode="&#x17f;" glyph-name="longs" horiz-adv-x="606" d="M70 -6V57Q193 71 193 190V811H66V883L193 928V987Q193 1214 313 1356T629 1499Q721 1499 795 1466T870 1368Q870 1331 844 1305T774 1278Q733 1278 660 1338T541 1399Q467 1399 434 1316T401
1038V190L391 80L606 61L598 6L70 -6Z" />
<glyph unicode="&#x192;" glyph-name="florin" horiz-adv-x="956" d="M88 616V702H367Q422 1071 532 1231T838 1391Q1022 1391 1022 1294Q1022 1257 995 1235T928 1212Q877 1212 814 1246T717 1280Q690 1280 676 1267T645 1195T612 1023T573 702H889L858 616H563L557
549Q518 187 454 -23T294 -320T55 -408Q-127 -408 -127 -311Q-127 -274 -101 -252T-35 -229Q16 -229 79 -263T178 -297Q205 -297 220 -279T255 -175T294 77T348 549Q352 594 356 616H88Z" />
<glyph unicode="&#x1fa;" glyph-name="Aringacute" horiz-adv-x="1280" d="M-31 0V63Q73 73 106 158L569 1311Q440 1344 440 1470Q440 1536 491 1584T639 1632T786 1584T838 1470Q838 1349 717 1313L1143 215Q1176 129 1206 99T1292 59L1284 0H1198L848 -6V68Q897
70 922 87T932 147L819 449H354L326 428L195 86L369 63L358 0H-31ZM629 967Q590 1082 584 1106L369 545H784L629 967ZM410 1716L786 1937H797L872 1815V1759L442 1640L410 1716ZM639 1376Q682 1376 708 1404T735 1468Q735 1503 711 1529T639 1556T569 1531T545
1468Q545 1429 569 1403T639 1376Z" />
<glyph unicode="&#x1fb;" glyph-name="aringacute" horiz-adv-x="960" d="M49 193Q49 330 183 414T502 526L571 537Q577 682 563 754Q538 871 449 870Q392 870 340 818T263 715L240 664H162L123 829Q213 897 358 932Q272 979 272 1083Q272 1153 323 1204T471 1255T618
1204T670 1083Q670 999 602 946Q704 932 742 866T780 657V190Q780 139 790 117T834 94Q857 94 882 104T922 124L936 133L965 84Q955 72 934 54T852 5T731 -25Q661 -25 620 12T578 117V160Q574 152 566 140T528 95T465 39T380 -5T272 -25Q174 -25 112 36T49 193ZM375
113Q455 113 571 209V457L512 446Q412 430 339 378T266 236Q266 181 296 147T375 113ZM270 1272L238 1346L614 1569H625L700 1446V1391L270 1272ZM471 981Q514 981 540 1010T567 1081T543 1150T471 1178T401 1150T377 1081T401 1011T471 981Z" />
<glyph unicode="&#x1fc;" glyph-name="AEacute" horiz-adv-x="1810" d="M-43 0V63Q43 71 94 158L664 1184Q693 1229 665 1259T543 1311V1366H1548L1702 1374L1638 1024H1563Q1571 1176 1521 1225T1341 1274H1092L1069 1251V719H1432L1448 858L1530 870V496H1427V629H1092L1069
606V207L1059 92H1364Q1493 92 1540 133T1667 340H1743L1667 0H1026L705 -6V63Q848 79 848 190V629H494L459 606L174 86L350 63L340 0H-43ZM770 1171L520 719H848V1260Q805 1234 770 1171ZM977 1550L1354 1772H1364L1440 1649V1593L1010 1475L977 1550Z" />
<glyph unicode="&#x1fd;" glyph-name="aeacute" horiz-adv-x="1452" d="M743 1036L674 1075L840 1425L1047 1444V1389L743 1036ZM45 195Q45 338 193 427T586 551V602Q586 729 562 799T463 870Q404 870 351 818T274 715L252 664H174L135 829Q153 843 186 863T322
916T532 950Q630 950 679 922T752 829Q867 950 1026 950Q1171 950 1272 860T1378 604Q1306 579 1268 573L778 496Q784 344 864 239T1104 133Q1176 133 1240 156T1333 203L1362 225L1384 174Q1380 166 1370 153T1326 106T1252 45T1147 -3T1008 -25Q875 -25 780 42T641
227Q604 123 517 49T303 -25Q186 -25 116 35T45 195ZM371 113Q449 113 516 186T584 381V469Q262 418 262 236Q262 181 291 147T371 113ZM989 864Q905 864 849 783T780 582L1159 641Q1159 649 1157 664T1145 719T1120 786T1069 839T989 864Z" />
<glyph unicode="&#x1fe;" glyph-name="Oslashacute" horiz-adv-x="1630" d="M82 664Q82 803 132 932T274 1163T514 1328T842 1391Q1053 1391 1217 1303L1313 1427H1434L1298 1251Q1419 1161 1483 1025T1548 731Q1548 538 1458 368T1190 86T784 -25Q571 -25 403
74L301 -61H178L324 129Q209 225 146 365T82 664ZM1300 678Q1300 918 1180 1094L510 213Q643 66 829 66Q1044 66 1172 250T1300 678ZM328 719Q328 479 449 293L1116 1169Q985 1300 801 1300Q654 1300 544 1217T381 1002T328 719ZM616 1550L993 1772H1004L1079 1649V1593L649
1475L616 1550Z" />
<glyph unicode="&#x1ff;" glyph-name="oslashacute" horiz-adv-x="1101" d="M100 -61L211 88Q68 219 68 442Q68 647 192 798T563 950Q702 950 813 895L883 987H995L889 842Q1034 719 1034 500Q1034 367 981 250T811 54T535 -25Q398 -25 289 35L217 -61H100ZM805
451Q801 586 766 678L381 158Q453 54 563 53Q684 53 744 172T805 451ZM297 494Q297 363 336 254L721 770Q649 872 541 872Q422 872 360 762T297 494ZM530 1036L461 1075L627 1425L834 1444V1389L530 1036Z" />
<glyph unicode="&#x218;" glyph-name="Scommaaccent" horiz-adv-x="1046" d="M395 -135L416 -88H606Q653 -154 653 -227Q653 -309 582 -383T410 -504L365 -440Q484 -372 483 -303Q483 -241 395 -135ZM86 186Q86 229 139 387H213Q213 211 300 137T510 63Q612 63
683 113T754 264Q754 344 707 409T589 517T435 610T282 711T164 841T117 1020Q117 1186 237 1288T584 1391Q631 1391 687 1386T780 1375T868 1362T934 1352L868 1024H795Q805 1147 747 1225T563 1303Q457 1303 390 1251T322 1104Q322 1034 356 978T447 882T571
805T707 726T832 636T923 514T958 350Q958 168 827 72T494 -25Q336 -25 212 28T86 186Z" />
<glyph unicode="&#x219;" glyph-name="scommaaccent" horiz-adv-x="792" d="M276 -135L297 -88H487Q534 -154 535 -227Q535 -309 463 -383T291 -504L246 -440Q365 -372 365 -303Q364 -241 276 -135ZM70 117Q70 137 78 177T93 248L100 279H166Q174 160 241 106T393
51Q461 51 503 86T545 180Q545 237 498 281T384 359T252 430T139 530T92 678Q92 803 183 876T432 950Q485 950 551 941T658 923L698 913L655 692H590Q588 766 552 811T483 865T414 874Q346 874 310 840T274 752Q274 695 320 652T433 578T566 511T679 412T725 258Q725
123 630 49T383 -25Q272 -25 171 9T70 117Z" />
<glyph unicode="&#x21a;" glyph-name="uni021A" horiz-adv-x="1329" d="M549 -135L569 -88H760Q807 -154 807 -227Q807 -309 736 -383T563 -504L518 -440Q637 -372 637 -303Q637 -241 549 -135ZM406 -6V63Q472 71 509 106T547 197V1274H356Q250 1274 193 1225T78
1024H4L68 1378Q121 1366 205 1366H1186Q1223 1366 1259 1369T1315 1375L1333 1378L1270 1024H1194Q1198 1174 1149 1224T977 1274H791L768 1251V197L758 86L963 68L954 6L406 -6Z" />
<glyph unicode="&#x21b;" glyph-name="uni021B" horiz-adv-x="729" d="M295 -135L315 -88H506Q553 -154 553 -227Q553 -309 482 -383T309 -504L264 -440Q383 -372 383 -303Q383 -241 295 -135ZM170 244V678L176 811H43V883Q135 901 184 946L260 1174L389 1169L395
1163Q377 1110 377 961V926H684L670 817H401L379 795V303Q379 209 408 163T516 117Q557 117 602 128T672 151L696 162L725 117Q721 111 711 102T669 68T602 25T514 -9T408 -25Q170 -24 170 244Z" />
<glyph unicode="&#x2c6;" glyph-name="circumflex" horiz-adv-x="1024" d="M225 1075L467 1436H559L799 1075L731 1030L512 1262L293 1030L225 1075Z" />
<glyph unicode="&#x2c7;" glyph-name="caron" horiz-adv-x="1024" d="M467 1071L225 1413L293 1458L512 1243L731 1458L799 1413L559 1071H467Z" />
<glyph unicode="&#x2d8;" glyph-name="breve" horiz-adv-x="1024" d="M631 1108T512 1108T316 1177T238 1356Q238 1397 248 1434H328V1413Q328 1347 373 1299T512 1251T651 1299T696 1413V1434H776Q786 1387 786 1356Q786 1247 709 1178Z" />
<glyph unicode="&#x2d9;" glyph-name="dotaccent" horiz-adv-x="1024" d="M565 1147T512 1147T421 1183T383 1272Q383 1323 421 1360T512 1397T603 1360T641 1272Q641 1219 603 1183Z" />
<glyph unicode="&#x2da;" glyph-name="ring" horiz-adv-x="1024" d="M608 1098T512 1098T365 1152T313 1276T364 1397T512 1448T659 1397T711 1276T660 1152ZM512 1174Q555 1174 581 1203T608 1274T584 1342T512 1370T442 1343T418 1274T442 1204T512 1174Z" />
<glyph unicode="&#x2db;" glyph-name="ogonek" horiz-adv-x="1024" d="M330 -317Q330 -282 341 -251T386 -179T440 -118T521 -41T602 33L723 55L733 45Q667 -2 591 -93T514 -268Q514 -329 553 -362T645 -395L690 -391L707 -451Q613 -486 535 -485Q445 -485 388
-437T330 -317Z" />
<glyph unicode="&#x2dc;" glyph-name="tilde" horiz-adv-x="1024" d="M205 1147Q203 1157 203 1175T209 1240T231 1321T288 1384T385 1413Q444 1413 491 1376T575 1303T649 1266Q692 1266 714 1299T739 1367L741 1401H825Q821 1399 825 1373T819 1304T794 1223T737
1155T637 1126T533 1163T452 1238T379 1276Q338 1276 316 1244T291 1180L289 1147H205Z" />
<glyph unicode="&#x2dd;" glyph-name="hungarumlaut" horiz-adv-x="1024" d="M256 1036L184 1075L338 1425L522 1444V1389L256 1036ZM561 1036L489 1075L645 1425L827 1444V1389L561 1036Z" />
<glyph unicode="&#x3a9;" glyph-name="Omega" horiz-adv-x="1591" d="M131 0L55 342H125Q182 233 245 206T453 178H489Q434 229 405 257T319 351T231 472T173 605T147 762Q147 1036 334 1213T799 1391Q1080 1391 1263 1219T1446 768Q1446 711 1434 657T1395 550T1346
458T1282 370T1220 298T1154 230T1102 178H1139Q1282 178 1345 205T1466 342H1536L1460 0H936L926 37L964 95Q1002 153 1015 178T1065 267T1119 380T1159 494T1192 629T1202 766Q1202 1004 1093 1150T797 1296Q607 1296 499 1153T391 760Q391 647 430 520T506 323T607
147T672 39L655 0H131Z" />
<glyph unicode="&#x3c0;" glyph-name="pi" horiz-adv-x="1212" d="M72 719Q166 926 375 926H1133V758H948L926 735V199Q926 131 938 107T999 82H1077L1083 29Q962 -24 879 -25Q719 -25 719 117V758H492L469 735V692Q469 583 455 468T411 238T324 49T193 -25Q150
-25 123 -3T96 61T124 129T187 170T261 214T313 287Q374 484 375 715V758Q211 756 121 680L72 719Z" />
<glyph unicode="&#x1e80;" glyph-name="Wgrave" horiz-adv-x="1959" d="M715 1593V1649L791 1772H801L1178 1550L1145 1475L715 1593ZM1335 6L975 952L668 -18L571 6L100 1198Q84 1237 55 1265T3 1303L-18 1311V1366H102L350 1374L358 1366Q311 1270 346 1178L627
428Q650 369 664 297L918 1100L881 1198Q865 1237 835 1265T783 1303L762 1311V1366H883L1130 1374L1139 1366Q1092 1270 1126 1178L1393 424Q1411 367 1430 299L1694 1133Q1719 1203 1697 1245T1597 1311V1366H1919L1927 1333Q1919 1329 1905 1318T1855 1252T1792
1118L1434 -18L1335 6Z" />
<glyph unicode="&#x1e81;" glyph-name="wgrave" horiz-adv-x="1499" d="M403 0L109 752Q91 799 62 828T13 864L-6 870V926H88L330 934L338 926Q334 916 329 900T319 832T334 737L483 336Q493 303 518 219L688 616Q711 673 694 723L684 752Q666 799 638 828T592
864L573 870V926H664L905 934L913 926Q909 916 904 900T894 832T909 737L1057 344Q1080 281 1092 221L1307 723Q1334 782 1302 818T1202 870V926H1487L1497 893Q1468 879 1427 784L1075 -27L979 0L756 563L500 -27L403 0ZM494 1389V1444L702 1425L868 1075L797
1036L494 1389Z" />
<glyph unicode="&#x1e82;" glyph-name="Wacute" horiz-adv-x="1959" d="M788 1550L1165 1772H1176L1251 1649V1593L821 1475L788 1550ZM1335 6L975 952L668 -18L571 6L100 1198Q84 1237 55 1265T3 1303L-18 1311V1366H102L350 1374L358 1366Q311 1270 346 1178L627
428Q650 369 664 297L918 1100L881 1198Q865 1237 835 1265T783 1303L762 1311V1366H883L1130 1374L1139 1366Q1092 1270 1126 1178L1393 424Q1411 367 1430 299L1694 1133Q1719 1203 1697 1245T1597 1311V1366H1919L1927 1333Q1919 1329 1905 1318T1855 1252T1792
1118L1434 -18L1335 6Z" />
<glyph unicode="&#x1e83;" glyph-name="wacute" horiz-adv-x="1499" d="M754 1036L684 1075L850 1425L1057 1444V1389L754 1036ZM403 0L109 752Q91 799 62 828T13 864L-6 870V926H88L330 934L338 926Q334 916 329 900T319 832T334 737L483 336Q493 303 518 219L688
616Q711 673 694 723L684 752Q666 799 638 828T592 864L573 870V926H664L905 934L913 926Q909 916 904 900T894 832T909 737L1057 344Q1080 281 1092 221L1307 723Q1334 782 1302 818T1202 870V926H1487L1497 893Q1468 879 1427 784L1075 -27L979 0L756 563L500
-27L403 0Z" />
<glyph unicode="&#x1e84;" glyph-name="Wdieresis" horiz-adv-x="1959" d="M1335 6L975 952L668 -18L571 6L100 1198Q84 1237 55 1265T3 1303L-18 1311V1366H102L350 1374L358 1366Q311 1270 346 1178L627 428Q650 369 664 297L918 1100L881 1198Q865 1237 835
1265T783 1303L762 1311V1366H883L1130 1374L1139 1366Q1092 1270 1126 1178L1393 424Q1411 367 1430 299L1694 1133Q1719 1203 1697 1245T1597 1311V1366H1919L1927 1333Q1919 1329 1905 1318T1855 1252T1792 1118L1434 -18L1335 6ZM614 1573T614 1624T649 1711T737
1747T826 1711T862 1624T827 1538T737 1503Q686 1503 650 1538ZM1104 1573T1104 1624T1140 1711T1229 1747T1317 1711T1352 1624T1316 1538T1229 1503Q1176 1503 1140 1538Z" />
<glyph unicode="&#x1e85;" glyph-name="wdieresis" horiz-adv-x="1499" d="M569 1149Q518 1149 482 1184T446 1270T482 1357T569 1393Q622 1393 658 1357T694 1270T658 1184T569 1149ZM1034 1149T981 1149T892 1184T856 1270T892 1357T981 1393T1070 1357T1106
1270T1070 1184ZM403 0L109 752Q91 799 62 828T13 864L-6 870V926H88L330 934L338 926Q334 916 329 900T319 832T334 737L483 336Q493 303 518 219L688 616Q711 673 694 723L684 752Q666 799 638 828T592 864L573 870V926H664L905 934L913 926Q909 916 904 900T894
832T909 737L1057 344Q1080 281 1092 221L1307 723Q1334 782 1302 818T1202 870V926H1487L1497 893Q1468 879 1427 784L1075 -27L979 0L756 563L500 -27L403 0Z" />
<glyph unicode="&#x1e9e;" glyph-name="uni1E9E" horiz-adv-x="1406" d="M57 -6V63Q180 79 180 197V702Q180 1048 337 1219T770 1391Q856 1391 1016 1379T1206 1366L1227 1309Q1178 1256 1116 1167L895 852Q1075 799 1204 686T1333 406Q1333 240 1213 108T897
-25Q786 -25 687 15T588 131Q588 168 613 193T676 219T738 195T777 141T822 86T901 61Q995 61 1062 143T1130 326Q1130 471 996 566T696 698L688 764Q747 821 807 905L995 1174L1030 1231Q919 1303 764 1303Q399 1303 399 737V197L389 86L504 68L496 6L57 -6Z"
/>
<glyph unicode="&#x1ef2;" glyph-name="Ygrave" horiz-adv-x="1208" d="M352 -6V63Q420 71 458 105T496 193V604L111 1221Q88 1256 62 1278T18 1306L2 1311V1366H104L348 1374L356 1366Q319 1288 360 1219L602 821Q625 786 662 707L954 1184Q983 1223 965 1260T872
1311V1366H1212L1221 1333Q1149 1308 1087 1212L717 616V193L707 86L887 68L879 6L352 -6ZM352 1593V1649L428 1772H438L815 1550L782 1475L352 1593Z" />
<glyph unicode="&#x1ef3;" glyph-name="ygrave" horiz-adv-x="952" d="M152 -299Q314 -299 387 -129L432 -25Q420 18 377 123L109 752Q91 797 61 826T11 863L-8 870V926H88L336 934L344 926Q326 889 326 835T342 737L502 344Q527 272 541 223L758 723Q781 780
746 816T645 870V926H936L946 893Q911 868 877 784L541 16Q537 6 516 -45T482 -124T443 -205T396 -290T343 -364T282 -429T214 -469T137 -485Q90 -485 64 -459T37 -391Q37 -352 65 -326T152 -299ZM227 1389V1444L436 1425L602 1075L530 1036L227 1389Z" />
<glyph unicode="&#x2013;" glyph-name="endash" horiz-adv-x="1081" d="M121 459V586H961V459H121Z" />
<glyph unicode="&#x2014;" glyph-name="emdash" horiz-adv-x="1880" d="M121 459V586H1759V459H121Z" />
<glyph unicode="&#x2018;" glyph-name="quoteleft" horiz-adv-x="425" d="M82 1155Q82 1343 303 1503L354 1446Q217 1331 217 1249Q217 1169 358 1102V1020L186 928Q82 1032 82 1155Z" />
<glyph unicode="&#x2019;" glyph-name="quoteright" horiz-adv-x="423" d="M86 1329V1411L258 1503Q360 1401 360 1276Q360 1090 139 930L90 985Q225 1104 225 1182Q225 1261 86 1329Z" />
<glyph unicode="&#x201a;" glyph-name="quotesinglbase" horiz-adv-x="481" d="M104 100V180L276 272Q380 168 381 45Q381 -141 158 -301L109 -246Q244 -127 244 -50T104 100Z" />
<glyph unicode="&#x201c;" glyph-name="quotedblleft" horiz-adv-x="782" d="M438 1155Q438 1343 662 1503L711 1446Q574 1329 573 1249Q573 1171 715 1102V1020L543 928Q438 1032 438 1155ZM82 1155Q82 1343 303 1503L354 1446Q217 1331 217 1249Q217 1169 358
1102V1020L186 928Q82 1032 82 1155Z" />
<glyph unicode="&#x201d;" glyph-name="quotedblright" horiz-adv-x="782" d="M86 1329V1411L258 1503Q360 1401 360 1276Q360 1090 139 930L90 985Q225 1104 225 1182Q225 1261 86 1329ZM442 1329V1411L614 1503Q718 1399 719 1276Q719 1090 496 930L446 985Q581
1104 582 1182Q581 1261 442 1329Z" />
<glyph unicode="&#x201e;" glyph-name="quotedblbase" horiz-adv-x="835" d="M104 100V180L276 272Q380 168 381 45Q381 -141 158 -301L109 -246Q244 -127 244 -50T104 100ZM459 100V180L631 272Q735 168 735 45Q735 -141 512 -301L463 -246Q598 -127 598 -50T459 100Z" />
<glyph unicode="&#x2020;" glyph-name="dagger" horiz-adv-x="1067" d="M158 760Q111 760 86 788T61 854T86 920T158 950Q183 950 296 925T485 893Q481 981 456 1111T430 1264Q430 1315 462 1340T532 1366T603 1341T635 1264Q635 1241 610 1111T580 893Q658 899
771 924T907 950Q956 950 981 921T1006 854T981 789T907 760Q884 760 770 783T580 813V213Q582 119 608 -20T635 -182Q635 -233 603 -259T533 -285T462 -259T430 -182Q430 -164 457 -23T485 213V813Q409 807 296 784T158 760Z" />
<glyph unicode="&#x2021;" glyph-name="daggerdbl" horiz-adv-x="1067" d="M158 760Q111 760 86 788T61 854T86 920T158 950Q183 950 296 925T485 893Q481 981 456 1110T430 1264Q430 1315 462 1340T532 1366T603 1341T635 1264Q635 1241 610 1111T580 893Q658
899 771 924T907 950Q956 950 981 921T1006 854T981 789T907 760Q884 760 770 783T580 813V283Q658 289 771 314T907 340Q956 340 981 310T1006 242T981 176T907 147Q882 147 769 171T580 203Q582 107 608 -27T635 -182Q635 -233 603 -259T533 -285T462 -259T430
-182Q430 -162 456 -28T485 203Q411 195 298 171T158 147Q111 147 86 176T61 242T86 309T158 340Q183 340 296 315T485 283V813Q409 807 296 784T158 760Z" />
<glyph unicode="&#x2022;" glyph-name="bullet" horiz-adv-x="778" d="M514 229T389 229T179 314T94 524T179 734T389 819T599 734T684 524T599 314Z" />
<glyph unicode="&#x2026;" glyph-name="ellipsis" horiz-adv-x="1617" d="M111 55T111 112T150 211T248 252Q307 252 347 212T387 113Q387 56 346 16T248 -25T151 15ZM672 55T672 112T712 211T809 252Q868 252 908 212T948 113Q948 56 907 16T809 -25T712 15ZM1233
55T1233 112T1273 211T1370 252T1468 211T1509 113T1468 15T1370 -25T1273 15Z" />
<glyph unicode="&#x2030;" glyph-name="perthousand" horiz-adv-x="2248" d="M70 1040Q70 1171 163 1262T389 1354T616 1263T711 1040Q711 911 617 819T389 727Q258 727 164 819T70 1040ZM205 1120T205 1041T259 901T389 840T520 900T575 1040T520 1181T389 1243Q315
1243 260 1182ZM223 0L1184 1382L1268 1325L346 0H223ZM809 158T809 289T902 511T1128 602T1356 511T1450 289T1356 66T1129 -27T902 65ZM944 369T944 289T998 149T1128 88T1259 148T1315 289T1260 429T1129 489T999 429ZM1552 158T1552 289T1646 511T1874 602T2101
511T2195 289T2101 66T1874 -27T1647 65ZM1690 369T1690 289T1744 149T1874 88T2005 148T2060 289T2005 429T1874 489T1744 429Z" />
<glyph unicode="&#x2039;" glyph-name="guilsinglleft" horiz-adv-x="661" d="M68 512V520Q131 565 512 950L580 930L319 516L580 102L512 82Q129 469 68 512Z" />
<glyph unicode="&#x203a;" glyph-name="guilsinglright" horiz-adv-x="659" d="M82 102L342 516L82 930L147 950Q528 565 592 520V512Q531 469 147 82L82 102Z" />
<glyph unicode="&#x2044;" glyph-name="fraction" horiz-adv-x="260" d="M-199 0H-324L483 1399L584 1362L-199 0Z" />
<glyph unicode="&#x2070;" glyph-name="uni2070" horiz-adv-x="761" d="M381 817Q500 817 500 1186Q500 1551 381 1550Q260 1550 260 1188Q260 817 381 817ZM371 756Q217 756 143 874T68 1167Q68 1351 148 1481T389 1612Q545 1612 619 1495T694 1206Q694 1022
613 889T371 756Z" />
<glyph unicode="&#x2074;" glyph-name="uni2074" horiz-adv-x="718" d="M33 995L18 1071L412 1591L551 1614Q543 1565 543 1470V1090H682L662 995H543V899L539 838L651 827L647 774L272 766V821Q364 831 365 899V995H33ZM119 1090H365V1405L119 1090Z" />
<glyph unicode="&#x2075;" glyph-name="uni2075" horiz-adv-x="620" d="M254 756Q186 756 123 779T59 854Q59 879 77 893T121 907Q160 907 201 859T272 811Q319 811 358 860T397 973Q397 1026 366 1067T288 1128T197 1162T120 1179L88 1182L109 1597H420L528 1610L508
1475H176L168 1331Q211 1327 263 1313T392 1268T519 1175T569 1030Q569 921 477 839T254 756Z" />
<glyph unicode="&#x2076;" glyph-name="uni2076" horiz-adv-x="724" d="M59 1104Q59 1227 114 1340T291 1533T573 1612L582 1552Q416 1540 334 1413T252 1118Q252 1001 289 908T385 815Q432 815 460 874T489 1014T457 1166T354 1227L348 1292Q381 1300 422 1300Q543
1300 612 1227T682 1055Q682 940 597 848T369 756Q222 756 141 858T59 1104Z" />
<glyph unicode="&#x2077;" glyph-name="uni2077" horiz-adv-x="634" d="M213 756Q160 756 160 805Q160 817 167 834T183 864T210 901T238 940Q338 1094 426 1300L479 1430H205Q148 1430 129 1419T90 1354H29L74 1597H537L631 1608L633 1561Q586 1487 569 1450L352
956Q346 942 330 904T304 848T280 804T248 767T213 756Z" />
<glyph unicode="&#x2078;" glyph-name="uni2078" horiz-adv-x="702" d="M336 756Q232 756 149 806T66 952Q66 1007 94 1053T151 1122T236 1180Q95 1291 94 1413Q94 1503 168 1557T367 1612Q476 1612 542 1565T608 1442Q608 1397 582 1357T530 1298T449 1241Q541
1175 590 1117T639 985Q639 885 556 821T336 756ZM344 817Q399 817 436 848T473 934Q473 946 470 957T463 979T450 1001T434 1022T414 1042T392 1062T367 1082T340 1101T313 1120T285 1141Q211 1073 211 977Q211 901 247 859T344 817ZM256 1501T256 1456T291 1371T395
1280Q461 1335 461 1438Q461 1493 432 1521T356 1550Q313 1550 285 1526Z" />
<glyph unicode="&#x2079;" glyph-name="uni2079" horiz-adv-x="718" d="M145 756L137 815Q305 827 387 954T469 1249Q469 1366 431 1459T334 1552Q291 1552 264 1492T236 1354Q236 1274 266 1202T367 1141L371 1075Q338 1067 299 1067Q182 1067 114 1140T45 1313Q45
1426 128 1519T350 1612Q497 1612 578 1510T659 1264Q659 1141 604 1027T428 835T145 756Z" />
<glyph unicode="&#x207f;" glyph-name="uni207F" horiz-adv-x="866" d="M59 604V655Q145 667 145 745V1087Q145 1122 143 1138T132 1166T104 1178H41V1227Q113 1241 181 1259T283 1289L315 1300L322 1294Q310 1271 305 1147Q321 1170 349 1194T436 1247T557 1276Q733
1276 733 1079V745L727 674L842 659L836 612L494 604V655Q564 665 563 745V1038Q563 1110 545 1137T485 1165Q389 1165 313 1096V745L307 674L403 657L397 612L59 604Z" />
<glyph unicode="&#x2080;" glyph-name="uni2080" horiz-adv-x="761" d="M381 -184Q500 -184 500 184Q500 549 381 549Q260 549 260 186Q260 -184 381 -184ZM371 -246Q217 -246 143 -127T68 166Q68 350 148 480T389 610Q545 610 619 494T694 205Q694 21 613 -112T371
-246Z" />
<glyph unicode="&#x2081;" glyph-name="uni2081" horiz-adv-x="571" d="M61 -236V-174L147 -170Q194 -168 207 -150T221 -98V418Q221 451 216 464T202 476T178 473L51 444L39 512L414 618L420 610Q404 567 403 471V-98L399 -160L561 -170L555 -227L61 -236Z" />
<glyph unicode="&#x2082;" glyph-name="uni2082" horiz-adv-x="688" d="M57 -231L41 -174Q53 -162 89 -128T141 -79T188 -33T237 19T278 68T317 121Q395 242 395 342Q395 410 357 444T262 479Q168 479 90 418L49 465Q61 481 86 505T185 570T338 610Q436 610 509
557T582 408Q582 336 530 249T424 105T261 -63Q238 -86 225 -98H457Q512 -98 535 -74T578 12H639L604 -231H57Z" />
<glyph unicode="&#x2083;" glyph-name="uni2083" horiz-adv-x="661" d="M264 -246Q182 -246 109 -222T35 -147Q35 -122 52 -108T96 -94Q141 -94 188 -142T279 -190Q328 -190 367 -131T406 -4Q406 68 359 113T229 158L174 152V229Q254 237 307 285T360 408Q360
498 262 498Q184 498 119 453L80 500Q90 512 109 530T193 579T328 610Q420 610 485 568T551 442Q551 323 350 227Q461 211 533 151T606 12Q606 -97 503 -171T264 -246Z" />
<glyph unicode="&#x2084;" glyph-name="uni2084" horiz-adv-x="716" d="M33 -6L18 70L412 590L551 612Q543 563 543 469V88H682L662 -6H543V-102L539 -164L651 -174L647 -227L272 -236V-180Q364 -170 365 -102V-6H33ZM119 88H365V403L119 88Z" />
<glyph unicode="&#x2085;" glyph-name="uni2085" horiz-adv-x="622" d="M256 -246Q188 -246 125 -223T61 -147Q61 -122 79 -108T123 -94Q160 -94 201 -142T274 -190Q321 -190 360 -141T399 -29Q399 24 368 65T291 126T200 160T122 177L90 180L111 596H422L530
608L510 473H178L170 330Q213 326 265 312T394 267T521 174T571 29Q571 -77 479 -161T256 -246Z" />
<glyph unicode="&#x2086;" glyph-name="uni2086" horiz-adv-x="722" d="M57 102Q57 225 112 339T289 531T571 610L580 551Q414 539 332 412T250 117Q250 0 287 -93T383 -186Q430 -186 458 -127T487 12T455 165T352 225L346 291Q379 299 420 299Q541 299 610 226T680
53Q680 -62 595 -154T367 -246Q220 -246 139 -144T57 102Z" />
<glyph unicode="&#x2087;" glyph-name="uni2087" horiz-adv-x="636" d="M213 -246Q160 -246 160 -197Q160 -185 167 -168T183 -138T210 -101T238 -61Q338 93 426 299L479 428H205Q148 428 129 417T90 352H29L74 596H537L631 606L633 559Q586 485 569 449L352 -45Q346
-59 330 -97T304 -153T280 -197T248 -234T213 -246Z" />
<glyph unicode="&#x2088;" glyph-name="uni2088" horiz-adv-x="700" d="M334 -246Q230 -246 147 -196T63 -49Q63 6 92 52T149 120T233 178Q92 289 92 412Q92 502 166 556T365 610Q474 610 540 563T606 440Q606 395 580 355T528 296T446 240Q538 174 587 116T637
-16Q637 -116 554 -181T334 -246ZM342 -184Q397 -184 434 -154T471 -68Q471 -56 468 -45T461 -23T448 0T432 20T412 41T390 60T365 81T338 99T311 118T283 139Q209 71 209 -25Q209 -103 245 -143T342 -184ZM254 500T254 455T289 370T393 279Q459 334 459 436Q459
491 430 520T354 549Q311 549 283 525Z" />
<glyph unicode="&#x2089;" glyph-name="uni2089" horiz-adv-x="714" d="M145 -246L137 -186Q305 -174 387 -47T469 248Q469 365 431 458T334 551Q291 551 264 491T236 352Q236 272 266 201T367 139L371 74Q338 66 299 66Q182 66 114 139T45 311Q45 424 128 517T350
610Q497 610 578 508T659 262Q659 139 604 26T428 -167T145 -246Z" />
<glyph unicode="&#x20ac;" glyph-name="Euro" horiz-adv-x="1095" d="M68 406V492H170V539Q170 566 174 627H68V713H190Q235 908 371 1034T713 1161Q785 1161 866 1144T994 1110L1040 1094L973 868H907Q903 1079 698 1079Q575 1079 500 976T403 713H928L901 627H397V606Q397
540 406 492H862L838 406H422Q459 271 543 187T745 102Q817 102 880 117T973 148L1001 164L1032 113Q1028 107 1018 98T974 65T903 23T807 -10T684 -25Q473 -25 345 96T182 406H68Z" />
<glyph unicode="&#x2122;" glyph-name="trademark" horiz-adv-x="1497" d="M203 813V860Q266 864 266 913V1311H213Q174 1311 150 1290T98 1204H51L78 1370Q113 1366 152 1366H541L616 1370L592 1204H547Q547 1265 527 1288T457 1311H393V913L389 868L477 860L475
817L203 813ZM641 813V860Q696 864 700 909L717 1270Q719 1299 708 1310T653 1331V1366H725L893 1370L895 1366L922 1290L1001 1059L1016 1010L1128 1309L1149 1366H1174L1341 1370L1346 1366Q1342 1362 1338 1355T1326 1320T1319 1262L1337 907L1333 864L1413
860L1407 817L1145 813V860Q1208 864 1208 907L1194 1296L1014 815L956 823L784 1290L768 909L764 864L844 860L840 817L641 813Z" />
<glyph unicode="&#x2190;" glyph-name="arrowleft" horiz-adv-x="1292" d="M674 164Q352 490 260 579T119 700V711Q154 736 181 760T325 900T674 1249L758 1223L481 770H1147V643H479L758 188L674 164Z" />
<glyph unicode="&#x2191;" glyph-name="arrowup" horiz-adv-x="1292" d="M584 170V893L129 614L104 696Q444 1034 527 1121T641 1253H651Q676 1218 703 1187T844 1040T1190 696L1163 614Q792 837 711 891V170H584Z" />
<glyph unicode="&#x2192;" glyph-name="arrowright" horiz-adv-x="1292" d="M145 643V770H811L535 1225L616 1249Q852 1013 966 900T1111 761T1174 711V700Q1125 667 1033 578T616 164L535 188L813 643H145Z" />
<glyph unicode="&#x2193;" glyph-name="arrowdown" horiz-adv-x="1292" d="M641 170Q608 217 521 307T104 725L129 807L584 528V1253H711V528Q809 591 1163 807L1190 725Q715 256 651 170H641Z" />
<glyph unicode="&#x2202;" glyph-name="partialdiff" horiz-adv-x="1038" d="M51 420Q51 600 162 733T471 866Q629 866 731 772Q731 924 705 1043T639 1234T551 1352T459 1415T379 1432Q336 1432 274 1401T184 1370Q153 1370 130 1390T106 1444Q106 1532 270 1532Q471
1532 631 1418T873 1124T956 743Q956 661 943 568T893 367T802 173T657 32T451 -25Q263 -25 157 109T51 420ZM436 55Q563 55 642 244T729 700Q649 753 567 754Q436 754 349 614T262 315Q262 206 308 131T436 55Z" />
<glyph unicode="&#x2206;" glyph-name="uni2206" horiz-adv-x="1275" d="M57 0V70L610 1366H688L1208 70V0H57ZM211 117H977L600 1083L211 117Z" />
<glyph unicode="&#x220f;" glyph-name="product" horiz-adv-x="1517" d="M61 1274V1366H1456V1274H1294L1272 1251V10L1262 -100L1446 -119L1438 -180L903 -193V-123Q971 -115 1011 -80T1051 6V1274H489L467 1251V10L457 -100L641 -119L633 -180L98 -193V-123Q168
-115 207 -80T246 10V1274H61Z" />
<glyph unicode="&#x2211;" glyph-name="summation" horiz-adv-x="1257" d="M51 -125L608 559L63 1315V1366H1040L1094 1044L1020 1032Q967 1138 936 1180T851 1248T705 1274H365L811 647L289 4H778Q913 4 978 44T1112 219H1188L1092 -184H362L51 -190V-125Z" />
<glyph unicode="&#x2212;" glyph-name="minus" horiz-adv-x="1064" d="M74 453V580H991V453H74Z" />
<glyph unicode="&#x221a;" glyph-name="radical" horiz-adv-x="1243" d="M29 795V922H403L629 301L1065 1534H1200L629 -74H625L307 795H29Z" />
<glyph unicode="&#x221e;" glyph-name="infinity" horiz-adv-x="1613" d="M420 180Q283 180 186 277T88 512T185 746T420 844Q613 844 807 604Q1002 844 1194 844Q1331 844 1428 747T1526 512T1429 278T1194 180Q997 180 807 420Q617 180 420 180ZM420 295Q486
295 565 349T691 458L737 512Q731 520 719 535T670 588T596 653T510 705T420 729Q338 729 280 666T221 512T279 359T420 295ZM877 512Q883 504 895 489T945 436T1019 371T1104 319T1194 295Q1276 295 1334 358T1393 512T1335 665T1194 729Q1128 729 1050 675T924
566L877 512Z" />
<glyph unicode="&#x222b;" glyph-name="integral'" horiz-adv-x="1075" d="M168 -309Q211 -309 263 -333T344 -358Q383 -358 399 -340T428 -229T440 61Q440 124 438 312T436 600Q436 1102 537 1318T872 1534Q1017 1534 1018 1446Q1018 1403 988 1381T918 1358T824
1382T739 1407Q706 1407 691 1393T664 1300T651 1059Q651 1004 654 843T657 575Q657 -15 561 -250T209 -485Q68 -485 68 -393Q68 -352 98 -331T168 -309Z" />
<glyph unicode="&#x2248;" glyph-name="approxequal" horiz-adv-x="1064" d="M109 590L37 690Q180 833 338 834Q436 834 550 762T727 690Q852 690 956 803L1028 702Q889 559 727 559Q629 559 515 630T338 702Q222 703 109 590ZM109 219L37 319Q180 462 338 463Q436
463 550 391T727 319Q848 319 956 432L1028 332Q889 189 727 188Q629 188 515 260T338 332Q222 332 109 219Z" />
<glyph unicode="&#x2260;" glyph-name="notequal" horiz-adv-x="1064" d="M78 637V764H623L772 1014L864 958L748 764H985V637H672L526 389H985V262H451L301 8L209 63L326 262H78V389H401L549 637H78Z" />
<glyph unicode="&#x2264;" glyph-name="lessequal" horiz-adv-x="1064" d="M66 657V752L938 1169L973 1040L258 705L973 348L938 221L66 657ZM66 0V127H983V0H66Z" />
<glyph unicode="&#x2265;" glyph-name="greaterequal" horiz-adv-x="1064" d="M127 221L90 348L807 705L90 1040L127 1169L999 752V657L127 221ZM82 0V127H999V0H82Z" />
<glyph unicode="&#x25b2;" glyph-name="triagup" horiz-adv-x="1292" d="M131 301L106 375Q303 611 437 792T606 1035L641 1098H651Q661 1075 689 1029T853 797T1186 375L1161 301Q1046 340 646 340T131 301Z" />
<glyph unicode="&#x25ba;" glyph-name="triagrt" horiz-adv-x="1292" d="M272 188Q311 303 311 703T272 1219L346 1243Q582 1046 763 912T1007 743L1069 709V698Q1046 688 1000 661T768 497T346 164L272 188Z" />
<glyph unicode="&#x25bc;" glyph-name="triagdn" horiz-adv-x="1292" d="M641 301Q631 324 603 370T439 602T106 1024L131 1098Q246 1059 646 1059T1161 1098L1186 1024Q989 788 855 607T686 364L651 301H641Z" />
<glyph unicode="&#x25c4;" glyph-name="triaglf" horiz-adv-x="1292" d="M225 698V709Q248 719 294 746T526 910T948 1243L1022 1219Q983 1104 983 704T1022 188L948 164Q712 361 531 495T288 664L225 698Z" />
<glyph unicode="&#x25ca;" glyph-name="lozenge" horiz-adv-x="1036" d="M504 -78L59 743L504 1542H532L975 743L532 -78H504ZM518 129L840 745L516 1337L195 745L518 129Z" />
<glyph unicode="&#xe012;" glyph-name="uniE012" horiz-adv-x="1064" d="M39 745V842H158Q201 1080 344 1235T713 1391Q754 1391 803 1384T881 1369T971 1347T1055 1325L963 1040H891Q905 1144 854 1222T692 1300Q596 1300 528 1234T425 1068T379 842H901L870
745H373V719Q373 660 379 600H825L795 504H391Q426 320 522 211T776 102Q833 102 892 116T983 145L1014 160L1042 111Q1036 105 1026 96T981 64T907 23T807 -10T680 -25Q461 -25 326 123T154 504H39V600H143Q141 618 141 659Q141 716 143 745H39Z" />
<glyph unicode="&#xe028;" glyph-name="uniE028" horiz-adv-x="1064" d="M496 0L506 233Q320 253 221 380T121 678Q121 856 233 994T547 1145L557 1376H653L643 1143Q749 1133 837 1090T926 981Q926 940 903 917T838 893Q789 893 727 964T639 1051L608 387Q641
383 659 383Q798 383 915 479L942 428Q938 420 930 408T891 364T824 307T728 257T602 229L592 0H496ZM344 762Q344 647 387 555T514 418L543 1069Q449 1057 397 969T344 762Z" />
<glyph unicode="&#xe02c;" glyph-name="uniE02C" horiz-adv-x="1064" d="M106 205Q106 234 160 410H233Q233 283 297 199T473 94L489 582Q428 615 411 625T339 667T266 717T208 771T155 836T126 907T113 993Q113 1145 221 1246T516 1358L524 1569H623L614 1358Q677
1356 737 1349T848 1332T922 1321L858 1012H784Q782 1213 612 1262L596 788Q670 749 702 730T794 669T882 591T934 501T958 385Q958 211 849 116T567 8L561 -203H463L469 6Q315 12 211 62T106 205ZM315 1063Q315 944 500 840L514 1274Q430 1272 373 1212T315 1063ZM756
305Q756 418 586 526L571 90Q649 100 702 155T756 305Z" />
<glyph unicode="&#xe033;" glyph-name="uniE033" horiz-adv-x="620" d="M90 -6V57Q147 63 178 95T209 178V807Q209 877 192 899T88 942V991H223L463 999L471 991Q422 917 422 762V178L412 78L565 61L557 6L90 -6Z" />
<glyph unicode="&#xe039;" glyph-name="uniE039" horiz-adv-x="1064" d="M143 698V795H420Q473 1166 583 1324T893 1483Q1077 1483 1077 1386Q1077 1349 1050 1327T983 1305Q932 1305 869 1338T772 1372Q745 1372 733 1360T705 1286T675 1116T639 795H944L913
698H631L625 641Q586 276 522 69T360 -227T111 -315Q-71 -315 -72 -219Q-72 -182 -45 -160T20 -137Q71 -137 136 -171T233 -205Q262 -205 277 -188T312 -81T350 168T401 641L408 698H143Z" />
<glyph unicode="&#xe03f;" glyph-name="uniE03F" horiz-adv-x="1064" d="M68 578V674H231Q231 676 232 683T233 694Q239 798 247 869T273 1029T322 1175T402 1286T523 1365T692 1391Q936 1391 936 1276Q936 1241 913 1216T852 1190Q813 1190 732 1247T602 1305Q571
1305 550 1290T514 1239T492 1167T478 1070T471 960T466 830T459 694Q459 690 458 683T457 674H805L793 578H449Q435 437 408 339T362 211L344 182Q528 123 672 123Q770 123 848 161T944 285L958 352H1034Q1028 289 1018 240T986 132T928 37T835 -25T698 -51Q612
-51 454 -10T242 31Q168 31 86 0L59 63Q96 86 115 106Q166 159 188 249T225 578H68Z" />
<glyph unicode="&#xe04e;" glyph-name="uniE04E" horiz-adv-x="1462" d="M733 811Q710 838 700 877L608 1235Q598 1274 643 1297T733 1321T821 1298T854 1235L762 877L733 811ZM608 156L700 514Q704 530 712 546T727 571L733 580Q751 553 762 514L854 156Q864
117 821 94T733 70T643 93T608 156ZM834 754Q842 783 872 811L1137 1069Q1160 1092 1187 1083T1237 1053T1274 1010Q1288 985 1295 954T1296 893T1264 858L903 760L834 754ZM205 858Q178 866 170 895T168 954T188 1010Q202 1033 225 1053T275 1083T326 1071L590
811Q604 799 613 785T626 762L629 754Q598 750 559 760L205 858ZM872 580Q858 592 849 606T837 629L834 637Q865 641 903 631L1257 532Q1284 524 1292 496T1294 437T1274 381Q1251 342 1208 318T1137 319L872 580ZM188 381Q174 406 168 436T169 495T203 532L559
631L629 637Q621 608 590 580L326 322Q303 299 276 308T225 337T188 381Z" />
<glyph unicode="&#xe04f;" glyph-name="uniE04F" horiz-adv-x="1380" d="M164 858Q137 866 129 895T127 954T147 1010Q161 1033 184 1053T234 1083T285 1071L541 819Q586 874 655 887L567 1235Q557 1274 602 1297T692 1321T780 1298T813 1235L723 887Q795 875
842 821L1096 1069Q1119 1092 1146 1083T1196 1053T1233 1010Q1247 985 1254 954T1255 893T1223 858L874 762Q886 721 887 696Q887 659 874 627L1217 532Q1244 524 1252 496T1254 437T1233 381Q1210 342 1167 318T1096 319L840 569Q795 514 723 504L813 156Q823
117 780 94T692 70T602 93T567 156L657 504Q585 516 541 571L285 322Q262 299 235 308T185 337T147 381Q133 406 127 436T128 495T162 532L510 629Q498 660 498 696Q498 727 508 762L164 858ZM645 580T692 580T773 613T807 694T773 775T692 809T612 775T578 694T611
614Z" />
<glyph unicode="&#xe050;" glyph-name="uniE050" horiz-adv-x="1867" d="M256 442Q154 442 154 580Q154 727 266 858T551 989Q633 989 710 950T836 867T950 755Q965 739 971 733Q1100 599 1160 560Q1236 510 1309 510Q1397 510 1467 568T1538 727Q1538 766 1524
811T1509 874Q1509 917 1539 943T1612 969Q1714 969 1714 831Q1714 686 1602 554T1317 422Q1233 422 1152 464T1026 548T905 672Q831 752 797 786T694 861T561 901Q471 901 401 843T330 684Q330 647 344 602T358 537Q358 494 329 468T256 442Z" />
<glyph unicode="&#xe051;" glyph-name="uniE051" horiz-adv-x="1867" d="M256 449Q164 449 164 582Q164 727 275 858T553 989Q616 989 673 969T788 904T879 828T973 733Q1045 657 1083 621T1185 547T1309 510Q1397 510 1470 568T1544 727Q1544 766 1530 811T1516
874Q1516 913 1544 938T1612 963Q1704 963 1704 827Q1704 684 1592 553T1313 422Q1231 422 1151 463T1023 549T903 672Q844 735 821 758T747 825T653 884T561 901Q471 901 398 843T324 684Q324 647 338 602T352 537Q352 498 324 474T256 449ZM764 1202Q725 1202
701 1231T676 1298Q676 1390 811 1391Q952 1391 1084 1280T1217 1004Q1217 981 1204 968T1171 954Q1128 954 1128 1004Q1124 1090 1066 1160T911 1231Q872 1231 827 1217T764 1202ZM649 412Q649 430 661 443T692 457T724 444T737 412Q737 324 795 251T954 178Q991
178 1036 192T1102 207Q1141 207 1165 179T1190 111Q1190 19 1057 18Q912 18 781 131T649 412Z" />
<glyph unicode="&#xe052;" glyph-name="uniE052" horiz-adv-x="1462" d="M547 530Q547 548 559 561T589 575T621 562T635 530Q635 442 693 370T852 297Q889 297 934 311T999 326Q1038 326 1062 297T1087 229Q1087 137 954 137Q809 137 678 249T547 530ZM463 1083Q424
1083 400 1112T375 1180Q375 1272 508 1272Q653 1272 784 1160T915 879Q915 861 903 848T873 834T841 847T827 879Q827 967 769 1039T610 1112Q573 1112 528 1098T463 1083ZM860 545T860 563T873 595T905 608Q993 608 1066 666T1139 825Q1139 864 1125 909T1110
973Q1110 1012 1138 1036T1206 1061Q1298 1061 1298 928Q1298 783 1186 652T905 520Q887 520 874 532ZM256 348Q164 348 164 481Q164 626 276 757T557 889Q575 889 588 877T602 846T589 814T557 801Q469 801 397 743T324 584Q324 545 338 500T352 436Q352 397 324
373T256 348Z" />
<glyph unicode="&#xe053;" glyph-name="uniE053" horiz-adv-x="1699" d="M143 389T143 682T350 1182T850 1389T1349 1182T1556 682T1350 182T850 -25T350 182ZM238 940T238 682T415 242T850 59T1285 241T1462 682T1285 1122T850 1305T415 1123ZM666 621Q666 639
678 652T708 666T740 653T754 621Q754 533 812 460T971 387Q1008 387 1053 401T1118 416Q1157 416 1181 387T1206 319Q1206 227 1073 227Q928 227 797 340T666 621ZM582 948Q543 948 519 977T494 1044Q494 1136 627 1137Q772 1137 903 1024T1034 743Q1034 725 1022
712T992 698T960 711T946 743Q946 831 888 904T729 977Q692 977 647 963T582 948ZM866 522T866 540T879 572T911 586Q999 586 1072 644T1145 803Q1145 840 1131 885T1116 950Q1116 989 1145 1013T1212 1038Q1304 1038 1305 905Q1305 760 1192 629T911 498Q893 498
880 510ZM487 326Q395 326 395 459Q395 604 508 735T788 866Q806 866 820 854T834 824T821 792T788 778Q700 778 628 720T555 561Q555 524 569 479T584 414Q584 375 555 351T487 326Z" />
<glyph unicode="&#xe054;" glyph-name="uniE054" horiz-adv-x="1699" d="M143 389T143 682T350 1182T850 1389T1349 1182T1556 682T1350 182T850 -25T350 182ZM238 940T238 682T415 242T850 59T1285 241T1462 682T1285 1122T850 1305T415 1123ZM848 768Q832 786
825 815L758 1079Q750 1108 781 1124T848 1141T913 1125T938 1079L870 815Q868 803 862 791T852 773L848 768ZM758 285L825 549Q827 561 833 573T844 591L848 596Q864 578 870 549L938 285Q944 256 914 240T848 223T783 239T758 285ZM461 801Q432 811 432 847T449
911Q465 942 493 959T551 958L743 768Q753 760 760 749T771 731L774 725Q751 721 721 729L461 801ZM922 639Q945 643 975 635L1235 563Q1255 557 1260 536T1262 492T1247 453Q1231 422 1203 405T1145 406L952 596Q942 604 935 615T925 633L922 639ZM449 453Q433
482 432 515T459 563L721 635L774 639Q766 616 743 596L551 408Q522 390 494 406T449 453ZM922 725Q930 748 952 768L1145 956Q1174 974 1202 958T1247 911Q1257 895 1261 873T1261 829T1237 801L975 729L922 725Z" />
<glyph unicode="&#xe06a;" glyph-name="uniE06A" horiz-adv-x="1064" d="M141 623V719H391L111 1229Q95 1260 71 1280T31 1306L14 1311V1366H100L342 1374L350 1366Q319 1309 354 1241L528 889Q548 848 580 766L805 1196Q828 1243 807 1273T731 1311V1366H1034L1042
1337Q981 1306 940 1235L651 719H946V623H639V494H946V397H639V197L629 86L809 68L801 6L274 -6V63Q342 71 380 106T418 197V397H141V494H418V623H141Z" />
<glyph unicode="&#xe087;" glyph-name="uniE087" horiz-adv-x="1638" d="M68 442Q68 643 192 796T528 950Q534 950 551 949T578 948Q566 988 565 1034Q565 1181 683 1288T962 1395T1210 1304T1296 1067L1288 926H1593L1579 817H1311L1288 795V303Q1288 209 1318
163T1425 117Q1466 117 1511 128T1581 151L1606 162L1634 117Q1630 111 1620 102T1578 68T1512 25T1424 -9T1317 -25Q1079 -25 1079 244V678L1085 811H952V883Q1167 938 1167 1118Q1167 1216 1105 1266T950 1317Q835 1317 744 1236T653 1042Q653 987 674 932Q854
889 854 791Q854 756 830 732T766 707Q721 707 686 749T610 831T508 872Q397 872 333 768T268 514Q268 350 351 242T596 133Q662 133 722 152T809 191L836 211L858 162Q854 154 846 142T807 98T739 41T640 -4T508 -25Q303 -25 186 113T68 442Z" />
<glyph unicode="&#xe308;" glyph-name="uniE308" horiz-adv-x="1720" d="M86 127Q86 152 133 301H203Q203 168 268 113T424 57Q494 57 541 90T588 184T539 295T419 382T277 462T156 572T106 731Q106 858 201 937T475 1016Q522 1016 579 1010T690 996T750 987L698
735H627Q641 934 459 934Q383 934 339 899T295 805Q295 754 331 712T420 642T535 579T651 507T740 408T776 264Q776 125 676 50T408 -25Q330 -25 260 -11T138 40T86 127ZM944 127Q944 152 991 301H1061Q1061 168 1126 113T1282 57Q1352 57 1399 90T1446 184T1397
295T1276 382T1134 462T1014 572T965 731Q965 858 1060 937T1333 1016Q1380 1016 1437 1010T1548 996T1608 987L1556 735H1485Q1499 934 1317 934Q1241 934 1197 899T1153 805Q1153 744 1202 698T1322 616T1464 540T1585 429T1634 264Q1634 125 1534 50T1266 -25Q1188
-25 1119 -11T997 40T944 127Z" />
<glyph unicode="&#xe30b;" glyph-name="uniE30B" horiz-adv-x="1064" d="M412 -135L432 -88H623Q670 -154 670 -227Q670 -309 598 -383T426 -504L381 -440Q500 -372 500 -303Q500 -241 412 -135ZM301 -6V57Q356 63 388 95T420 176V909H295Q221 909 180 875T94
729H25L72 999Q113 991 174 991H936L1047 999L997 729H930Q930 838 894 873T768 909H657L635 887V176L625 78L795 61L788 4L301 -6Z" />
<glyph unicode="&#xe351;" glyph-name="uniE351" horiz-adv-x="927" d="M94 606V655Q151 663 174 715L428 1327L516 1346L750 754Q773 699 791 678T840 653L834 606H774L539 602V659Q568 659 582 669T588 705L547 813H317L293 797L244 672L348 655L340 606H94ZM393
1047L328 883H522L463 1047L432 1157H428Q409 1088 393 1047Z" />
<glyph unicode="&#xe352;" glyph-name="uniE352" horiz-adv-x="976" d="M473 592Q285 592 182 702T78 961Q78 1117 191 1235T508 1354Q701 1354 802 1249T903 999Q903 841 788 717T473 592ZM502 662Q604 662 662 753T721 969Q721 1098 660 1190T483 1282Q377 1282
319 1197T260 993Q260 856 324 759T502 662Z" />
<glyph unicode="&#xe361;" glyph-name="uniE361" horiz-adv-x="704" d="M209 592Q133 592 87 634T41 745Q41 847 142 909T397 987V1038Q397 1212 324 1212Q287 1212 252 1176T200 1102L182 1065H119L90 1188Q102 1198 126 1212T225 1251T379 1276Q488 1276 525
1231T563 1069V748Q563 682 592 682Q604 682 622 691T652 709L664 717L692 674Q616 592 520 592Q467 592 434 620T401 707Q393 695 377 675T309 624T209 592ZM274 694Q299 694 328 709T377 741L395 758V924Q315 914 263 876T211 776Q211 694 274 694Z" />
<glyph unicode="&#xe362;" glyph-name="uniE362" horiz-adv-x="782" d="M102 606L96 612Q108 690 109 760V1403Q109 1438 107 1452T94 1475T61 1485H10V1534Q94 1550 162 1567T259 1595L287 1606L293 1599Q277 1538 276 1442V1198Q280 1204 298 1220T363 1256T463
1276Q584 1276 656 1183T729 965Q729 815 627 704T336 592Q311 592 226 599T102 606ZM276 676Q311 662 356 662Q444 662 498 735T553 922Q553 1024 509 1099T383 1174Q356 1174 330 1167T290 1151L276 1143V676Z" />
<glyph unicode="&#xe363;" glyph-name="uniE363" horiz-adv-x="671" d="M356 592Q215 592 134 689T53 920Q53 1063 141 1169T383 1276Q432 1276 482 1266T574 1229T616 1163Q616 1136 598 1118T549 1100Q510 1100 460 1155T365 1210Q295 1210 254 1140T213 973Q213
862 268 786T428 709Q471 709 514 725T578 758L598 774L621 727Q617 721 611 712T580 680T528 639T454 607T356 592Z" />
<glyph unicode="&#xe364;" glyph-name="uniE364" horiz-adv-x="817" d="M317 592Q202 592 128 684T53 903Q53 1050 154 1163T430 1276L510 1272V1403Q510 1438 508 1452T496 1475T463 1485H412V1534Q496 1550 564 1567T660 1595L688 1606L694 1599Q678 1538 678
1442V752Q678 715 688 698T709 677T748 674H795L791 627L516 594L510 600Q516 645 516 696L512 691Q508 686 502 679T486 662T464 642T437 624T403 607T364 596T317 592ZM393 696Q424 696 452 708T496 733L510 745V1137Q510 1207 432 1206Q340 1206 284 1134T227
948Q227 848 271 772T393 696Z" />
<glyph unicode="&#xe365;" glyph-name="uniE365" horiz-adv-x="684" d="M358 592Q213 592 133 688T53 922Q53 1069 145 1172T373 1276Q479 1276 554 1212T631 1026Q576 1006 547 1001L231 956L215 936Q223 838 275 774T428 709Q473 709 519 727T588 765L610 784L633
739Q629 733 623 723T592 689T538 645T460 609T358 592ZM217 1028L463 1059Q463 1065 461 1075T452 1111T433 1156T400 1192T348 1208Q295 1208 261 1157T217 1028Z" />
<glyph unicode="&#xe366;" glyph-name="uniE366" horiz-adv-x="512" d="M57 604V655Q141 667 141 745V1171H55V1227L141 1260V1278Q141 1417 228 1506T453 1595Q523 1595 576 1571T629 1497Q629 1470 611 1451T561 1432Q526 1432 473 1474T393 1516Q348 1516 329
1468T309 1311V1260H504L492 1176H326L309 1159V745L303 672L453 659L446 612L57 604Z" />
<glyph unicode="&#xe367;" glyph-name="uniE367" horiz-adv-x="735" d="M317 272Q206 272 118 318T29 444Q29 491 64 530T134 585T203 612Q84 649 84 713Q84 740 106 762T152 796T231 834Q151 854 102 908T53 1044Q53 1153 136 1214T340 1276Q387 1276 445 1263T535
1249H600Q620 1249 648 1255T693 1267L711 1272L692 1157H584Q629 1112 629 1036Q629 938 543 879T336 819Q295 819 276 823Q251 794 252 776Q252 751 320 733T473 702T625 642T694 522Q694 418 576 345T317 272ZM537 461Q537 479 529 493T502 520T466 540T418
558T367 572T309 586T254 598Q182 535 182 465Q182 406 229 372T346 338Q418 338 477 374T537 461ZM342 883Q401 883 431 927T461 1036Q461 1106 427 1160T334 1214Q279 1214 250 1166T221 1049T251 931T342 883Z" />
<glyph unicode="&#xe368;" glyph-name="uniE368" horiz-adv-x="851" d="M45 604V655Q131 667 131 745V1403Q131 1438 129 1452T117 1475T84 1485H33V1534Q115 1550 183 1567T280 1595L307 1606L313 1599Q299 1538 299 1442V1155Q309 1169 329 1188T413 1242T543
1276Q719 1276 719 1079V745L713 674L827 659L823 612L479 604V655Q551 667 551 745V1038Q551 1110 532 1137T473 1165Q375 1165 299 1096V745L293 674L387 657L383 612L45 604Z" />
<glyph unicode="&#xe369;" glyph-name="uniE369" horiz-adv-x="450" d="M57 604V655Q143 667 143 745V1087Q143 1122 141 1138T131 1166T104 1178H41V1227Q127 1245 196 1263T293 1291L319 1300L326 1294Q312 1263 311 1126V745L303 672L422 659L418 612L57 604ZM217
1425Q176 1425 147 1454T117 1526Q117 1565 146 1592T217 1620Q254 1620 283 1592T313 1526Q313 1483 284 1454T217 1425Z" />
<glyph unicode="&#xe36a;" glyph-name="uniE36A" horiz-adv-x="409" d="M-6 272L-23 317Q38 325 84 401T131 582V1090Q131 1127 130 1142T120 1169T92 1182H29V1231Q115 1247 185 1265T283 1294L309 1305L315 1298Q301 1267 299 1128V666Q299 476 219 374T-6 272ZM207
1425Q166 1425 136 1454T106 1526Q106 1565 136 1592T207 1620Q244 1620 273 1592T303 1526Q303 1483 275 1454T207 1425Z" />
<glyph unicode="&#xe36b;" glyph-name="uniE36B" horiz-adv-x="800" d="M47 604V655Q131 665 131 745V1403Q131 1438 129 1452T117 1475T84 1485H33V1534Q117 1550 185 1567T282 1595L309 1606L315 1599Q299 1538 299 1442V1010H328L467 1133Q502 1166 503 1183T457
1214V1262H741L752 1233Q654 1204 592 1151L461 1034V1016L674 743Q715 692 736 678T799 662L795 608L553 604Q533 659 498 705L324 936H299V745L293 672L399 657L393 612L47 604Z" />
<glyph unicode="&#xe36c;" glyph-name="uniE36C" horiz-adv-x="438" d="M45 604V655Q131 667 131 745V1403Q131 1438 129 1452T117 1475T84 1485H33V1534Q117 1550 185 1567T282 1595L309 1606L315 1599Q299 1538 299 1442V745L293 672L412 659L406 612L45 604Z" />
<glyph unicode="&#xe36d;" glyph-name="uniE36D" horiz-adv-x="1257" d="M59 604V655Q145 667 145 745V1087Q145 1122 143 1138T133 1166T106 1178H41V1227Q113 1241 181 1259T283 1289L315 1300L322 1294Q310 1271 305 1147Q317 1161 337 1182T420 1240T545 1276Q690
1276 709 1145Q744 1192 807 1234T948 1276Q1124 1276 1124 1079V745L1118 674L1235 659L1231 612L887 604V655Q957 663 956 745V1038Q956 1110 937 1137T877 1165Q828 1165 773 1134T717 1057V745L711 674L807 662L801 612L479 604V655Q549 663 549 745V1038Q549
1110 533 1137T479 1165Q393 1165 313 1096V745L307 674L401 662L395 612L59 604Z" />
<glyph unicode="&#xe36e;" glyph-name="uniE36E" horiz-adv-x="798" d="M385 592Q231 592 142 684T53 919T141 1169T406 1276Q566 1276 655 1188T745 958Q745 813 650 703T385 592ZM408 657Q486 657 523 737T561 924Q561 1039 519 1124T391 1210Q313 1210 273
1136T233 956Q233 837 277 747T408 657Z" />
<glyph unicode="&#xe36f;" glyph-name="uniE36F" horiz-adv-x="804" d="M61 274V334Q102 359 115 387T129 467V1085Q129 1114 128 1126T125 1153T116 1172T96 1178H35V1227Q105 1241 172 1259T271 1289L303 1300L309 1294Q297 1255 295 1176Q307 1192 327 1212T392
1254T483 1276Q604 1276 678 1186T752 967Q752 815 652 704T371 592L297 598V467L291 389H436L432 340Q198 319 61 274ZM375 659Q471 659 523 731T575 918Q575 1022 536 1095T416 1169Q385 1169 356 1157T311 1133L297 1120V733Q297 659 375 659Z" />
<glyph unicode="&#xe370;" glyph-name="uniE370" horiz-adv-x="782" d="M422 274V328Q508 377 508 463V668Q438 592 330 592Q201 592 127 684T53 901Q53 1053 157 1164T446 1276Q475 1276 554 1268T682 1260L688 1253Q676 1196 676 1108V459L670 383H772L766 336Q680
328 594 313T465 286L422 274ZM397 694Q426 694 453 701T495 717L508 725V1192Q469 1206 430 1206Q342 1206 285 1134T227 946Q227 844 272 769T397 694Z" />
<glyph unicode="&#xe371;" glyph-name="uniE371" horiz-adv-x="583" d="M57 604V655Q143 667 143 745V1087Q143 1122 141 1138T131 1166T104 1178H41V1227Q113 1241 181 1259T282 1289L313 1300L319 1294Q307 1271 303 1147Q393 1276 492 1276Q531 1276 554 1253T578
1194Q578 1161 554 1139T494 1116Q471 1116 448 1130T412 1145Q394 1145 369 1132T328 1106L311 1094V745L303 670L436 659L432 612L57 604Z" />
<glyph unicode="&#xe372;" glyph-name="uniE372" horiz-adv-x="591" d="M289 592Q209 592 133 616T57 692L82 811H145Q155 729 198 691T293 653Q334 653 361 676T389 735Q389 772 357 801T277 855T183 905T105 977T72 1081Q72 1171 139 1223T322 1276Q361 1276
410 1269T488 1255L518 1249L487 1090H424Q420 1141 397 1171T352 1208T307 1214Q266 1214 245 1192T223 1137Q223 1092 271 1057T378 1000T486 924T535 793Q535 697 468 645T289 592Z" />
<glyph unicode="&#xe373;" glyph-name="uniE373" horiz-adv-x="567" d="M303 592Q127 592 127 782V1081L131 1171H37V1229Q98 1241 133 1264L190 1432L301 1430L307 1421Q295 1380 295 1278V1260H508L498 1176H309L295 1159V823Q295 760 313 729T379 698Q406 698
438 707T490 725L510 733L532 692Q522 682 504 665T425 620T303 592Z" />
<glyph unicode="&#xe374;" glyph-name="uniE374" horiz-adv-x="839" d="M299 592Q119 592 119 786V1085Q119 1136 113 1157T82 1178H33V1227Q109 1241 174 1256T267 1280L295 1288L301 1282Q287 1247 287 1126V827Q287 702 365 702Q445 702 532 778V1085Q532 1136
526 1157T496 1178H449V1227Q525 1241 589 1256T681 1280L709 1288L715 1282Q701 1247 700 1126V752Q700 715 710 698T732 677T770 674H815L811 627L535 594L526 600Q540 647 541 682V729Q430 592 299 592Z" />
<glyph unicode="&#xe375;" glyph-name="uniE375" horiz-adv-x="673" d="M281 612L74 1133Q62 1166 43 1186T9 1210L-4 1214V1262H72L254 1268L262 1260Q258 1254 255 1243T249 1195T260 1128L383 791L524 1116Q557 1190 451 1214V1262H670L676 1235Q656 1225 627
1157L375 586L281 612Z" />
<glyph unicode="&#xe376;" glyph-name="uniE376" horiz-adv-x="1058" d="M281 612L78 1133Q66 1166 46 1186T11 1210L-2 1214V1262H74L254 1268L262 1260Q258 1254 255 1242T249 1193T260 1128L381 803L481 1042Q501 1087 475 1143Q450 1198 406 1214V1262H477L651
1268L659 1260Q655 1254 652 1242T646 1193T657 1128L778 805L911 1116Q942 1188 840 1214V1260H1057L1061 1233Q1041 1221 1014 1157L766 586L678 612L537 975L369 586L281 612Z" />
<glyph unicode="&#xe377;" glyph-name="uniE377" horiz-adv-x="733" d="M397 604V659Q471 659 438 707L336 858L190 672L293 657L287 612L25 604V655Q80 659 123 709L291 922L137 1143Q117 1174 92 1191T50 1210L35 1212V1262H106L295 1270L303 1262Q285 1209
319 1157L401 1036L496 1157Q514 1184 494 1196T434 1214V1262H690L698 1233Q643 1221 596 1161L444 973L659 664L723 657L719 612L397 604Z" />
<glyph unicode="&#xe378;" glyph-name="uniE378" horiz-adv-x="673" d="M106 272Q71 272 52 291T33 340T54 389T119 410Q219 410 270 526L303 600L76 1133Q64 1164 44 1184T9 1209L-4 1214V1262H74L252 1266L262 1257Q237 1189 262 1128L391 801L526 1116Q553
1186 449 1214V1262H668L676 1235Q651 1217 625 1157L379 586Q356 533 345 507T304 428T249 347T185 296T106 272Z" />
<glyph unicode="&#xe379;" glyph-name="uniE379" horiz-adv-x="667" d="M59 598L45 645Q63 663 96 715L399 1194H254Q211 1194 177 1165T132 1106L121 1077H57L82 1262H494L598 1268L608 1223Q588 1198 557 1149L258 674H389Q446 674 488 707T543 774L555 807H618L582
606H164L59 598Z" />
<glyph unicode="&#xe37a;" glyph-name="uniE37A" horiz-adv-x="684" d="M358 592Q213 592 133 688T53 922Q53 1069 145 1172T373 1276Q479 1276 554 1212T631 1026Q576 1006 547 1001L231 956L215 936Q223 838 275 774T428 709Q473 709 519 727T588 765L610 784L633
739Q629 733 623 723T592 689T538 645T460 609T358 592ZM217 1028L463 1059Q463 1065 461 1075T452 1111T433 1156T400 1192T348 1208Q295 1208 261 1157T217 1028ZM176 1444V1489L236 1587H244L545 1411L520 1350L176 1444Z" />
<glyph unicode="&#xe37b;" glyph-name="uniE37B" horiz-adv-x="1173" d="M66 285Q66 496 383 702Q248 946 248 1087Q248 1210 344 1300T604 1391Q749 1391 834 1320T920 1133Q920 1018 839 927T612 737Q827 379 1165 52T1696 -276Q1751 -276 1804 -248L1825 -303Q1731
-385 1595 -385Q1431 -385 1204 -226T773 163T424 631Q274 514 274 358Q274 235 353 163T545 90Q574 90 606 96T656 110L674 117L698 66Q686 56 664 41T571 0T426 -25Q276 -25 171 64T66 285ZM457 1143Q457 1020 567 815Q719 952 719 1100Q719 1178 684 1244T582
1311Q527 1311 492 1265T457 1143Z" />
<glyph unicode="&#xe381;" glyph-name="uniE381" horiz-adv-x="1726" d="M70 -6V57Q193 71 193 190V811H66V883L193 928V987Q193 1214 317 1356T641 1499Q758 1499 838 1466Q897 1480 943 1494T1005 1516L1020 1522L1026 1516Q1006 1440 1006 1282V975Q1006 932
1004 893T999 833T997 809Q1110 950 1278 950Q1456 950 1557 818T1659 506Q1659 293 1517 134T1112 -25Q1049 -25 932 -13T784 0L778 6Q796 117 797 211V1227Q797 1270 795 1288Q758 1296 680 1347T551 1399Q473 1399 437 1315T401 1038V926H649L631 817H424L401
795V190L391 80L596 61L588 6L70 -6ZM1006 88Q1057 63 1133 63Q1274 63 1357 169T1440 442Q1440 594 1372 703T1178 813Q1094 813 1006 758V88Z" />
<glyph unicode="&#xe382;" glyph-name="uniE382" horiz-adv-x="2332" d="M676 -6V57Q799 71 799 190V817H424L401 797V190L391 80L541 61L532 6L70 -6V57Q193 71 193 190V811H66V883L193 928V942Q193 1165 323 1304T672 1444Q748 1444 821 1424T928 1362Q1053
1499 1247 1499Q1366 1499 1444 1464Q1503 1480 1548 1494T1610 1516L1626 1522L1632 1516Q1612 1440 1612 1282V975Q1612 932 1610 893T1606 833T1604 809Q1717 950 1884 950Q2062 950 2163 818T2265 506Q2265 293 2123 134T1718 -25Q1655 -25 1538 -13T1391 0L1384
6Q1402 117 1403 211V1227Q1403 1270 1401 1288Q1364 1296 1287 1347T1159 1399Q1079 1399 1044 1315T1008 1038V926H1255L1237 817H1030L1008 795V190L997 80L1202 61L1194 6L676 -6ZM1612 88Q1663 63 1739 63Q1880 63 1963 169T2046 442Q2046 594 1979 703T1786
813Q1700 813 1612 758V88ZM401 989V922H799V987Q799 1122 842 1223Q803 1229 718 1287T571 1346Q483 1346 442 1263T401 989Z" />
<glyph unicode="&#xe383;" glyph-name="uniE383" horiz-adv-x="2394" d="M676 -6V57Q799 71 799 190V817H424L401 797V190L391 80L541 61L532 6L70 -6V57Q193 71 193 190V811H66V883L193 928V942Q193 1165 323 1304T672 1444Q748 1444 821 1424T928 1362Q1053
1499 1247 1499Q1366 1499 1444 1464Q1503 1480 1548 1494T1610 1516L1626 1522L1632 1516Q1612 1440 1612 1282V903Q1612 860 1610 823T1606 765T1604 737Q1670 825 1767 887T1980 950Q2218 950 2218 674V190L2208 82L2378 61L2370 6L1896 -6V57Q2009 71 2009
190V614Q2009 720 1977 760T1878 801Q1739 801 1612 690V190L1602 80L1757 61L1749 6L1280 -6V57Q1403 71 1403 190V1227Q1403 1270 1401 1288Q1364 1296 1287 1347T1159 1399Q1079 1399 1044 1315T1008 1038V926H1255L1237 817H1030L1008 795V190L997 80L1147
61L1139 6L676 -6ZM401 989V922H799V987Q799 1122 842 1223Q801 1227 717 1286T571 1346Q483 1346 442 1263T401 989Z" />
<glyph unicode="&#xe384;" glyph-name="uniE384" horiz-adv-x="1755" d="M676 -6V57Q799 71 799 190V817H424L401 797V190L391 80L541 61L532 6L70 -6V57Q193 71 193 190V811H66V883L193 928V942Q193 1165 323 1304T672 1444Q746 1444 819 1424T926 1362Q1051
1499 1272 1499Q1366 1499 1449 1468T1532 1368Q1532 1331 1505 1305T1436 1278Q1393 1278 1315 1340T1169 1403Q1085 1403 1047 1318T1008 1038V922H1329Q1503 922 1632 979L1636 973Q1613 910 1614 743V76Q1614 -196 1510 -340T1212 -485L1188 -432Q1274 -420
1339 -309T1405 -45V680Q1405 729 1403 753T1389 797T1352 817H1030L1008 797V190L997 80L1212 61L1204 6L676 -6ZM401 989V922H799V983Q799 1116 840 1223Q799 1227 716 1286T571 1346Q483 1346 442 1263T401 989Z" />
<glyph unicode="&#xe385;" glyph-name="uniE385" horiz-adv-x="2322" d="M676 -6V57Q799 71 799 190V817H424L401 797V190L391 80L541 61L532 6L70 -6V57Q193 71 193 190V811H66V883L193 928V942Q193 1165 323 1304T672 1444Q748 1444 821 1424T928 1362Q1053
1499 1247 1499Q1366 1499 1444 1464Q1503 1480 1548 1494T1610 1516L1626 1522L1632 1516Q1612 1440 1612 1282V551H1640L1845 725Q1921 793 1921 821Q1921 852 1855 870V926H2238L2249 893Q2120 856 2034 780L1817 592V567Q1833 542 1847 528L2140 184Q2201 112
2231 92T2310 68L2333 66L2324 0L1997 -6Q1974 70 1919 135L1640 473H1612V190L1602 80L1757 61L1749 6L1280 -6V57Q1403 71 1403 190V1227Q1403 1270 1401 1288Q1364 1296 1287 1347T1159 1399Q1079 1399 1044 1315T1008 1038V926H1255L1237 817H1030L1008 795V190L997
80L1147 61L1139 6L676 -6ZM401 989V922H799V987Q799 1122 842 1223Q801 1227 717 1286T571 1346Q483 1346 442 1263T401 989Z" />
<glyph unicode="&#xe386;" glyph-name="uniE386" horiz-adv-x="1787" d="M674 -6V57Q797 71 797 190V1227Q797 1270 795 1288Q758 1296 680 1347T551 1399Q473 1399 437 1315T401 1038V926H649L631 817H424L401 795V190L391 80L541 61L532 6L70 -6V57Q193 71 193
190V811H66V883L193 928V987Q193 1214 317 1356T641 1499Q760 1499 838 1464Q897 1480 942 1494T1004 1516L1020 1522L1026 1516Q1006 1440 1006 1282V903Q1006 860 1004 823T999 765T997 737Q1063 825 1159 887T1374 950Q1612 950 1612 674V190L1602 82L1772 61L1763
6L1290 -6V57Q1403 71 1403 190V614Q1403 720 1370 760T1272 801Q1133 801 1006 690V190L995 80L1149 61L1141 6L674 -6Z" />
<glyph unicode="&#xe388;" glyph-name="uniE388" horiz-adv-x="1716" d="M674 -6V57Q797 71 797 190V1227Q797 1270 795 1288Q758 1296 680 1347T551 1399Q473 1399 437 1315T401 1038V926H649L631 817H424L401 795V190L391 80L541 61L532 6L70 -6V57Q193 71 193
190V811H66V883L193 928V987Q193 1214 317 1356T641 1499Q760 1499 838 1464Q897 1480 942 1494T1004 1516L1020 1522L1026 1516Q1006 1440 1006 1282V551H1034L1239 725Q1315 793 1315 821Q1315 852 1249 870V926H1632L1642 893Q1513 856 1427 780L1210 592V567Q1226
542 1241 528L1534 184Q1595 112 1625 92T1704 68L1726 66L1718 0L1391 -6Q1368 70 1313 135L1034 473H1006V190L995 80L1151 61L1143 6L674 -6Z" />
<glyph unicode="&#xe441;" glyph-name="uniE441" horiz-adv-x="614" d="M344 979L453 20L166 -57L156 -47Q183 23 199 182L283 979H344ZM455 1311T455 1254T414 1155T316 1114T218 1155T178 1253T218 1351T315 1391T414 1351Z" />
<glyph unicode="&#xe444;" glyph-name="uniE444" horiz-adv-x="770" d="M506 979Q516 934 516 872Q516 786 481 708T406 583T330 489T295 406Q295 349 390 282T581 178L676 141L633 -76Q621 -72 601 -65T521 -33T406 18T285 85T171 164T90 251T57 346T97 446T194
552T309 663T406 805T446 979H506ZM608 1311T608 1254T568 1155T471 1114T373 1155T332 1253T373 1351T471 1391T568 1351Z" />
<glyph unicode="&#xe451;" glyph-name="uniE451" horiz-adv-x="1048" d="M489 248Q116 633 55 678V686Q80 704 104 726T216 836T489 1116L555 1096L295 682L555 268L489 248ZM459 678V686Q516 727 895 1116L961 1096L700 682L961 268L895 248Q520 633 459 678Z" />
<glyph unicode="&#xe452;" glyph-name="uniE452" horiz-adv-x="1050" d="M496 268L754 682L496 1096L561 1116Q747 923 834 836T946 727T995 686V678Q934 633 561 248L496 268ZM90 268L350 682L90 1096L156 1116Q342 923 429 836T540 727T590 686V678Q529 633
156 248L90 268Z" />
<glyph unicode="&#xe453;" glyph-name="uniE453" horiz-adv-x="653" d="M500 248Q117 635 55 678V686Q118 731 500 1116L565 1096L305 682L565 268L500 248Z" />
<glyph unicode="&#xe454;" glyph-name="uniE454" horiz-adv-x="655" d="M90 268L350 682L90 1096L156 1116Q537 731 600 686V678Q539 635 156 248L90 268Z" />
<glyph unicode="&#xe459;" glyph-name="uniE459" horiz-adv-x="710" d="M256 20Q256 30 256 51Q256 116 256 153T251 262T238 379T211 481T167 572T101 629T10 655V731Q55 733 92 748T153 796T196 861T226 947T244 1036T253 1135T256 1227T256 1315Q256 1336 256
1346Q256 1512 372 1592T684 1673L694 1595Q522 1583 474 1511T426 1237Q426 782 199 696V692Q295 655 360 521T426 129Q426 -72 474 -143T694 -229L684 -307Q256 -308 256 20Z" />
<glyph unicode="&#xe461;" glyph-name="uniE461" horiz-adv-x="677" d="M-74 -199L608 1569H754L74 -199H-74Z" />
<glyph unicode="&#xe462;" glyph-name="uniE462" horiz-adv-x="677" d="M604 -199L-76 1569H70L752 -199H604Z" />
<glyph unicode="&#xe463;" glyph-name="uniE463" horiz-adv-x="491" d="M168 -315V1679H324V-315H168Z" />
<glyph unicode="&#xe467;" glyph-name="uniE467" horiz-adv-x="698" d="M-39 -328L580 1274H723L106 -328H-39Z" />
<glyph unicode="&#xe468;" glyph-name="uniE468" horiz-adv-x="698" d="M592 -328L-25 1274H119L737 -328H592Z" />
<glyph unicode="&#xe469;" glyph-name="uniE469" horiz-adv-x="487" d="M168 -307V1296H319V-307H168Z" />
<glyph unicode="&#xe482;" glyph-name="uniE482" horiz-adv-x="737" d="M113 606V754H625V606H113Z" />
<glyph unicode="&#xe484;" glyph-name="uniE484" horiz-adv-x="1069" d="M115 621V745H954V621H115Z" />
<glyph unicode="&#xe486;" glyph-name="uniE486" horiz-adv-x="1867" d="M115 621V745H1753V621H115Z" />
<glyph unicode="&#xe491;" glyph-name="uniE491" horiz-adv-x="581" d="M82 713Q82 865 117 1008T202 1249T302 1424T387 1537L422 1573L498 1544Q488 1530 473 1505T416 1393T343 1216T286 987T260 713Q260 563 289 417T360 168T443 -14T515 -133L545 -172L473
-209Q457 -195 430 -168T337 -50T218 140T124 396T82 713Z" />
<glyph unicode="&#xe492;" glyph-name="uniE492" horiz-adv-x="581" d="M41 -172Q53 -158 71 -131T138 -15T223 170T291 414T322 713Q322 850 298 985T240 1216T170 1388T112 1502L88 1540L164 1573Q178 1561 200 1535T280 1425T382 1248T462 1010T498 713Q498
553 458 399T362 140T249 -48T153 -170L113 -209L41 -172Z" />
<glyph unicode="&#xe493;" glyph-name="uniE493" horiz-adv-x="600" d="M170 -164V1526H561V1423H324V-61H561V-164H170Z" />
<glyph unicode="&#xe494;" glyph-name="uniE494" horiz-adv-x="600" d="M39 -61H276V1423H39V1526H430V-164H39V-61Z" />
<glyph unicode="&#xe496;" glyph-name="uniE496" horiz-adv-x="710" d="M285 129Q285 387 350 521T512 692V696Q285 782 285 1237Q285 1438 237 1510T18 1595L29 1673Q224 1673 339 1592T455 1346Q455 1336 455 1315Q455 1252 455 1215T460 1108T473 995T499 897T543
810T609 756T700 731V655Q655 653 619 638T557 588T514 520T485 431T467 337T458 234T455 141T455 51Q455 30 455 20Q455 -308 29 -307L18 -229Q190 -215 237 -144T285 129Z" />
<glyph unicode="&#xe515;" glyph-name="uniE515" horiz-adv-x="1163" d="M582 86Q707 86 774 204T842 487Q842 645 774 763T584 881Q459 881 391 763T322 484T390 204T582 86ZM109 471Q109 680 238 835T596 991Q813 991 934 849T1055 508Q1055 297 925 136T567
-25Q350 -25 230 122T109 471ZM471 436T471 481T504 559T582 592T659 559T692 481T660 404T582 371T504 403Z" />
<glyph unicode="&#xe529;" glyph-name="uniE529" horiz-adv-x="1073" d="M45 375L16 492L649 1358L801 1391L809 1384Q799 1318 799 1161V516H1010L979 375H799V197L788 86L967 68L958 6L434 -6V63Q500 71 539 106T578 197V375H45ZM578 516V975Q578 1030 586 1108L156
516H578Z" />
<glyph unicode="&#xe530;" glyph-name="uniE530" horiz-adv-x="1064" d="M309 72T530 72T752 686Q752 782 748 860T730 1022T694 1163T629 1257T532 1294Q462 1294 416 1242T348 1095T318 905T309 688Q309 72 530 72ZM516 -25Q399 -25 310 32T169 187T92 402T66
655Q66 796 94 924T179 1158T331 1327T547 1391Q703 1391 807 1292T953 1047T995 721Q995 580 967 450T883 212T732 40T516 -25ZM575 569T530 569T453 602T420 680T452 758T530 791T608 758T641 680T608 602Z" />
<glyph unicode="&#xe531;" glyph-name="uniE531" horiz-adv-x="1654" d="M778 348Q798 348 820 355T863 374T898 396T931 421L950 436V1065Q938 1063 917 1059T841 1027T746 955T671 820T637 608Q637 473 677 411T778 348ZM61 598Q61 821 175 1015T486 1327T913
1444Q1214 1444 1417 1253T1620 774Q1620 649 1582 537T1446 333T1202 225L946 195L942 203Q958 262 958 313V387Q854 197 690 197Q581 197 498 289T414 559Q414 811 578 982T981 1153Q1096 1153 1184 1133Q1159 1039 1159 956V408Q1159 312 1229 311Q1309 311
1380 403T1452 702Q1452 989 1301 1167T879 1346Q584 1346 409 1140T233 635Q233 359 382 171T766 -37L745 -125Q452 -113 257 94T61 598Z" />
<glyph unicode="&#xe534;" glyph-name="uniE534" horiz-adv-x="1159" d="M356 72T577 72T799 686Q799 782 795 860T778 1022T741 1163T676 1257T580 1294Q510 1294 463 1242T395 1095T365 905T356 688Q356 72 577 72ZM563 -25Q446 -25 357 32T216 187T139 402T113
655Q113 796 141 924T226 1158T378 1327T594 1391Q750 1391 854 1292T1000 1047T1042 721Q1042 580 1014 450T930 212T779 40T563 -25Z" />
<glyph unicode="&#xe535;" glyph-name="uniE535" horiz-adv-x="1159" d="M356 72T577 72T799 686Q799 782 795 860T778 1022T741 1163T676 1257T580 1294Q510 1294 463 1242T395 1095T365 905T356 688Q356 72 577 72ZM563 -25Q446 -25 357 32T216 187T139 402T113
655Q113 796 141 924T226 1158T378 1327T594 1391Q750 1391 854 1292T1000 1047T1042 721Q1042 580 1014 450T930 212T779 40T563 -25ZM623 569T578 569T500 602T467 680T499 758T577 791T655 758T688 680T656 602Z" />
<glyph unicode="&#xe536;" glyph-name="uniE536" horiz-adv-x="831" d="M84 -6V74L195 80Q244 82 274 93T318 124T336 162T340 207V1079Q340 1173 328 1191T270 1200L59 1149L45 1245Q205 1288 339 1330T527 1392L582 1411L588 1405Q561 1323 561 1165V207L551
96L813 78L805 6L84 -6Z" />
<glyph unicode="&#xe537;" glyph-name="uniE537" horiz-adv-x="1038" d="M53 76Q302 315 407 447Q635 735 635 975Q635 1094 569 1156T399 1219Q237 1219 109 1100L57 1155Q65 1165 78 1180T137 1237T231 1308T355 1365T504 1391Q647 1391 753 1306T860 1055Q860
969 815 864T720 678T571 482T430 322T295 182H666Q777 182 817 222T889 369H967L913 0H78L53 76Z" />
<glyph unicode="&#xe538;" glyph-name="uniE538" horiz-adv-x="989" d="M43 135Q43 170 66 194T125 219Q162 219 194 195T250 141T317 86T414 61Q518 61 587 151T657 358Q657 485 572 564T332 643L268 639V756Q403 770 491 855T580 1055Q580 1141 528 1185T393
1229Q336 1229 278 1209T189 1166L160 1145L109 1204Q115 1212 126 1224T176 1268T255 1325T356 1370T479 1391Q612 1391 708 1321T805 1122Q805 1003 708 902T494 750Q668 736 782 638T897 399Q897 227 748 101T397 -25Q276 -25 160 16T43 135Z" />
<glyph unicode="&#xe53a;" glyph-name="uniE53A" horiz-adv-x="915" d="M76 135Q76 172 98 195T156 219Q187 219 216 195T267 141T325 86T406 61Q492 61 559 143T627 338Q627 428 576 498T451 607T303 669T178 701L127 709L162 1366H639L782 1378L754 1190H250L233
903Q245 901 268 897T354 877T476 838T605 774T727 685T813 565T848 408Q848 236 715 106T373 -25Q264 -25 170 16T76 135Z" />
<glyph unicode="&#xe53b;" glyph-name="uniE53B" horiz-adv-x="1089" d="M561 -25Q342 -25 221 144T100 551Q100 701 149 847T291 1116T532 1315T866 1391L879 1305Q740 1297 631 1228T462 1054T371 830T342 584Q342 377 409 224T590 70Q684 70 738 169T793 399Q793
465 775 533T722 662T628 749T494 752L477 834Q545 871 641 870Q821 870 923 750T1026 469Q1026 381 996 295T909 138T762 21T561 -25Z" />
<glyph unicode="&#xe53c;" glyph-name="uniE53C" horiz-adv-x="958" d="M645 870L770 1165Q692 1157 637 1157H317Q208 1157 173 1138T106 1026H27L94 1366H836L956 1374L963 1315Q895 1213 858 1128L442 150Q436 136 426 111T411 75T398 45T383 20T369 1T352
-14T334 -21T311 -25Q276 -25 254 -4T231 49Q231 63 233 74T244 100T258 125T281 159T311 201Q436 378 645 870Z" />
<glyph unicode="&#xe53d;" glyph-name="uniE53D" horiz-adv-x="1064" d="M100 311Q100 442 176 530T387 700Q272 796 210 883T147 1075Q147 1216 259 1303T553 1391Q719 1391 819 1313T920 1108Q920 999 850 924T653 770Q753 690 807 640T914 506T967 338Q967
184 838 80T518 -25Q350 -25 225 60T100 311ZM301 342Q301 221 361 146T522 70Q616 70 680 130T745 283Q745 334 725 379T649 479T565 558T451 649Q301 524 301 342ZM367 1126Q367 1048 423 979T586 823Q717 936 717 1094Q717 1188 674 1242T543 1296Q461 1296
414 1248T367 1126Z" />
<glyph unicode="&#xe53e;" glyph-name="uniE53E" horiz-adv-x="1079" d="M199 61Q338 69 445 138T614 312T706 536T737 782Q737 987 669 1141T489 1296Q399 1296 348 1197T297 967Q297 901 313 835T362 710T453 626T584 625L600 543Q524 506 438 506Q262 506 162
623T61 897Q61 1085 185 1238T518 1391Q665 1391 773 1307T930 1095T979 815Q979 665 930 519T789 250T546 51T211 -25L199 61Z" />
<glyph unicode="&#xe53f;" glyph-name="uniE53F" horiz-adv-x="1064" d="M309 72T530 72T752 686Q752 782 748 860T730 1022T694 1163T629 1257T532 1294Q462 1294 416 1242T348 1095T318 905T309 688Q309 72 530 72ZM516 -25Q399 -25 310 32T169 187T92 402T66
655Q66 796 94 924T179 1158T331 1327T547 1391Q703 1391 807 1292T953 1047T995 721Q995 580 967 450T883 212T732 40T516 -25Z" />
<glyph unicode="&#xe541;" glyph-name="uniE541" horiz-adv-x="1064" d="M201 -6V74L311 80Q360 82 391 93T435 124T453 162T457 207V1079Q457 1173 445 1191T387 1200L176 1149L162 1245Q322 1288 456 1330T644 1392L698 1411L705 1405Q678 1323 678 1165V207L668
96L930 78L922 6L201 -6Z" />
<glyph unicode="&#xe542;" glyph-name="uniE542" horiz-adv-x="1064" d="M66 76Q315 315 419 447Q647 735 647 975Q647 1094 581 1156T412 1219Q250 1219 121 1100L70 1155Q78 1165 91 1180T149 1237T244 1308T367 1365T516 1391Q659 1391 765 1306T872 1055Q872
969 827 864T732 678T583 482T442 322T307 182H678Q789 182 829 222T901 369H979L926 0H90L66 76Z" />
<glyph unicode="&#xe543;" glyph-name="uniE543" horiz-adv-x="1064" d="M80 135Q80 170 103 194T162 219Q199 219 231 195T287 141T354 86T451 61Q555 61 624 151T694 358Q694 485 609 564T369 643L305 639V756Q440 770 528 855T616 1055Q616 1141 564 1185T430
1229Q373 1229 315 1209T226 1166L197 1145L145 1204Q151 1212 162 1224T213 1268T292 1325T393 1370T516 1391Q649 1391 745 1321T842 1122Q842 1003 745 902T530 750Q704 736 819 638T934 399Q934 227 785 101T434 -25Q313 -25 197 16T80 135Z" />
<glyph unicode="&#xe544;" glyph-name="uniE544" horiz-adv-x="1064" d="M41 375L12 492L645 1358L797 1391L805 1384Q795 1318 795 1161V516H1006L975 375H795V197L784 86L963 68L954 6L430 -6V63Q496 71 534 106T573 197V375H41ZM573 516V975Q573 1030 582 1108L152
516H573Z" />
<glyph unicode="&#xe545;" glyph-name="uniE545" horiz-adv-x="1064" d="M150 135Q150 172 172 195T229 219Q260 219 289 195T340 141T399 86T479 61Q565 61 632 143T700 338Q700 428 649 498T525 607T377 669T252 701L201 709L236 1366H713L856 1378L827 1190H324L307
903Q319 901 342 897T428 877T550 838T679 774T801 685T887 565T922 408Q922 236 789 106T446 -25Q337 -25 244 16T150 135Z" />
<glyph unicode="&#xe546;" glyph-name="uniE546" horiz-adv-x="1064" d="M549 -25Q330 -25 209 144T88 551Q88 701 137 847T278 1116T520 1315T854 1391L866 1305Q727 1297 619 1228T450 1054T359 830T330 584Q330 377 397 224T578 70Q672 70 726 169T780 399Q780
465 762 533T710 662T616 749T481 752L465 834Q533 871 629 870Q809 870 911 750T1014 469Q1014 381 983 295T896 138T750 21T549 -25Z" />
<glyph unicode="&#xe547;" glyph-name="uniE547" horiz-adv-x="1064" d="M698 870L823 1165Q745 1157 690 1157H371Q262 1157 226 1138T160 1026H80L147 1366H889L1010 1374L1016 1315Q948 1213 911 1128L496 150Q490 136 480 111T464 75T451 45T436 20T422 1T406
-14T387 -21T365 -25Q330 -25 308 -4T285 49Q285 63 287 74T297 100T311 125T334 159T365 201Q489 378 698 870Z" />
<glyph unicode="&#xe548;" glyph-name="uniE548" horiz-adv-x="1064" d="M100 311Q100 442 176 530T387 700Q272 796 210 883T147 1075Q147 1216 259 1303T553 1391Q719 1391 819 1313T920 1108Q920 999 850 924T653 770Q753 690 807 640T914 506T967 338Q967
184 838 80T518 -25Q350 -25 225 60T100 311ZM301 342Q301 221 361 146T522 70Q616 70 680 130T745 283Q745 334 725 379T649 479T565 558T451 649Q301 524 301 342ZM367 1126Q367 1048 423 979T586 823Q717 936 717 1094Q717 1188 674 1242T543 1296Q461 1296
414 1248T367 1126Z" />
<glyph unicode="&#xe549;" glyph-name="uniE549" horiz-adv-x="1064" d="M190 61Q329 69 437 138T606 312T698 536T729 782Q729 987 661 1141T481 1296Q391 1296 340 1197T289 967Q289 901 305 835T354 710T445 626T575 625L592 543Q516 506 430 506Q254 506 154
623T53 897Q53 1085 177 1238T510 1391Q657 1391 764 1307T921 1095T971 815Q971 665 922 519T780 250T538 51T203 -25L190 61Z" />
<glyph unicode="&#xe555;" glyph-name="uniE555" horiz-adv-x="1064" d="M532 86Q657 86 725 204T793 487Q793 645 724 763T535 881Q410 881 341 763T272 484T340 204T532 86ZM59 471Q59 680 188 835T547 991Q764 991 885 849T1006 508Q1006 297 876 136T518 -25Q301
-25 180 122T59 471Z" />
<glyph unicode="&#xe556;" glyph-name="uniE556" horiz-adv-x="1064" d="M532 86Q657 86 725 204T793 487Q793 645 724 763T535 881Q410 881 341 763T272 484T340 204T532 86ZM59 471Q59 680 188 835T547 991Q764 991 885 849T1006 508Q1006 297 876 136T518 -25Q301
-25 180 122T59 471ZM422 436T422 481T454 559T532 592T610 559T643 481T611 404T533 371T455 403Z" />
<glyph unicode="&#xe557;" glyph-name="uniE557" horiz-adv-x="1064" d="M250 -10V63Q346 63 384 93T422 195V772Q422 844 385 868T240 893V967H817L809 897L627 874V195L616 86L827 66L819 0L250 -10Z" />
<glyph unicode="&#xe558;" glyph-name="uniE558" horiz-adv-x="1064" d="M156 0L139 70Q149 80 209 132T297 208T378 287T459 380T522 470T571 571T586 670Q586 758 538 800T412 842Q293 842 182 764L141 815Q147 821 157 833T205 876T280 929T380 971T506 991Q631
991 719 921T807 731T699 478T379 170H662Q715 170 750 183T810 226T843 277T868 344H942L877 0H156Z" />
</font>
</defs>
</svg>
