<?xml version="1.0" standalone="no"?> <!DOCTYPE svg PUBLIC "-//W3C//DTD SVG 1.0//EN" "http://www.w3.org/TR/2001/REC-SVG-20010904/DTD/svg10.dtd" > <svg xmlns="http://www.w3.org/2000/svg" width="100%" height="100%">
<defs >
<font id="DroidSerif" horiz-adv-x="1230" ><font-face
    font-family="Droid Serif"
    units-per-em="2048"
    panose-1="2 2 6 0 6 5 0 2 2 0"
    ascent="2005"
    descent="-571"
    alphabetic="0" />
<missing-glyph horiz-adv-x="1024" d="M102 0V1462H922V0H102ZM201 98H823V1364H201V98Z" />
<glyph unicode=" " glyph-name="space" horiz-adv-x="532" />
<glyph unicode="!" glyph-name="exclam" horiz-adv-x="682" d="M221 1462H459L387 412H293L221 1462ZM211 125Q211 165 221 191T248 234T289 257T340 264Q366 264 389 257T430 234T458 192T469 125Q469 86 459 59T431 16T390 -7T340 -14Q313 -14 290 -7T249 16T221
59T211 125Z" />
<glyph unicode="&quot;" glyph-name="quotedbl" horiz-adv-x="836" d="M502 1462H719L657 981H563L502 1462ZM117 1462H334L272 981H178L117 1462Z" />
<glyph unicode="#" glyph-name="numbersign" horiz-adv-x="1145" d="M397 537H682L758 938H473L397 537ZM1038 537V416H780L702 0H580L657 416H373L295 0H172L250 416H82V537H272L350 938H106V1059H373L446 1462H571L496 1059H780L856 1462H979L903 1059H1063V938H881L805
537H1038Z" />
<glyph unicode="$" glyph-name="dollar" horiz-adv-x="1145" d="M621 1401Q713 1399 777 1381T883 1332T942 1260T961 1171Q961 1105 917 1072T799 1038Q799 1083 792 1128T765 1211T710 1275T621 1307V829Q713 789 784 749T903 663T976 560T1001 430Q1001 276
902 191T621 86V-162H518V82Q467 82 415 86T314 101T219 128T135 166V481H221Q221 424 242 371T303 275T397 205T518 172V678Q422 721 356 763T248 851T189 952T170 1073Q170 1142 194 1198T264 1295T373 1362T518 1397V1556H621V1401ZM813 399Q813 440 803 472T770
533T711 585T621 633V178Q713 194 763 252T813 399ZM354 1090Q354 1047 364 1015T396 957T447 912T518 874V1303Q478 1294 447 1275T396 1228T365 1165T354 1090Z" />
<glyph unicode="%" glyph-name="percent" horiz-adv-x="1835" d="M764 1030Q764 927 743 843T680 699T575 606T428 573Q340 573 277 606T172 699T112 843T92 1030Q92 1133 111 1216T172 1359T277 1451T430 1483Q514 1483 576 1451T680 1360T743 1217T764 1030ZM276
1030Q276 942 284 873T310 755T357 682T428 657Q470 657 499 682T545 755T570 872T578 1030Q578 1117 571 1185T546 1300T500 1372T430 1397Q388 1397 359 1373T311 1301T284 1185T276 1030ZM1743 436Q1743 333 1722 249T1659 105T1554 13T1407 -20Q1319 -20 1255
12T1151 105T1091 249T1071 436Q1071 539 1090 622T1151 765T1256 857T1409 889Q1493 889 1555 857T1659 766T1722 623T1743 436ZM1255 436Q1255 348 1263 279T1289 161T1336 88T1407 63Q1449 63 1478 88T1524 161T1548 278T1556 436Q1556 523 1549 591T1524 706T1479
778T1409 803Q1367 803 1338 779T1290 707T1263 591T1255 436ZM616 0H481L1212 1462H1346L616 0Z" />
<glyph unicode="&amp;" glyph-name="ampersand" horiz-adv-x="1520" d="M1174 0L1004 180Q967 138 923 102T824 38T705 -4T561 -20Q438 -20 347 11T195 98T104 234T74 410Q74 497 97 561T163 675T266 761T401 829Q362 875 333 917T284 1002T254 1088T244 1182Q244
1250 266 1305T335 1400T455 1461T631 1483Q729 1483 798 1460T910 1397T973 1304T993 1192Q993 1126 974 1075T914 981T807 900T647 821L1020 426Q1034 472 1043 519T1057 612T1065 701T1067 782V862H1436V776H1417Q1383 776 1350 772T1289 754T1238 712T1202
637Q1184 571 1161 494T1102 340L1292 137Q1307 122 1323 112T1360 96T1411 88T1483 86H1501V0H1174ZM580 94Q640 94 691 106T786 141T865 193T930 260L477 745Q430 719 393 688T329 615T288 521T274 403Q274 328 296 271T358 174T455 114T580 94ZM813 1190Q813
1231 803 1266T771 1326T712 1367T623 1382Q532 1382 483 1329T434 1188Q434 1149 442 1115T467 1048T512 978T578 899Q638 925 682 954T756 1017T799 1094T813 1190Z" />
<glyph unicode="&apos;" glyph-name="quotesingle" horiz-adv-x="451" d="M117 1462H334L272 981H178L117 1462Z" />
<glyph unicode="(" glyph-name="parenleft" horiz-adv-x="709" d="M330 649Q330 527 339 408T381 183T475 -14T643 -168V-262Q502 -206 402 -126T239 64T146 319T117 649Q117 834 146 977T238 1231T402 1420T643 1556V1464Q538 1400 476 1311T381 1115T340 890T330 649Z" />
<glyph unicode=")" glyph-name="parenright" horiz-adv-x="709" d="M379 649Q379 771 370 890T328 1115T233 1310T66 1464V1556Q207 1500 307 1421T470 1231T562 978T592 649Q592 464 563 320T470 65T307 -126T66 -262V-168Q171 -104 233 -14T327 182T369 408T379 649Z" />
<glyph unicode="*" glyph-name="asterisk" horiz-adv-x="1024" d="M84 1268L156 1430L471 1231L418 1556H596L539 1233L856 1425L928 1266L582 1165L928 1065L856 907L539 1098L596 774H418L469 1098L156 903L84 1063L428 1165L84 1268Z" />
<glyph unicode="+" glyph-name="plus" horiz-adv-x="1145" d="M633 672V293H510V672H133V793H510V1171H633V793H1012V672H633Z" />
<glyph unicode="," glyph-name="comma" horiz-adv-x="512" d="M397 86Q397 21 379 -40T321 -153T217 -246T61 -315V-229Q162 -197 209 -151T256 -45Q256 -25 245 -12T217 12T181 33T145 57T117 91T106 143Q106 202 144 233T240 264Q272 264 300 253T350 219T384
163T397 86Z" />
<glyph unicode="-" glyph-name="hyphen" horiz-adv-x="635" d="M51 481V635H584V481H51Z" />
<glyph unicode="." glyph-name="period" horiz-adv-x="586" d="M164 125Q164 165 174 191T201 234T242 257T293 264Q319 264 342 257T383 234T411 192T422 125Q422 86 412 59T384 16T343 -7T293 -14Q266 -14 243 -7T202 16T174 59T164 125Z" />
<glyph unicode="/" glyph-name="slash" horiz-adv-x="590" d="M121 -248H0L471 1556H590L121 -248Z" />
<glyph unicode="0" glyph-name="zero" horiz-adv-x="1145" d="M1053 733Q1053 564 1024 425T934 187T784 34T573 -20Q447 -20 356 34T207 187T120 425T92 735Q92 905 120 1043T206 1279T356 1430T575 1483Q695 1483 784 1430T934 1279T1023 1043T1053 733ZM305
733Q305 581 319 462T364 260T447 134T573 90Q648 90 699 133T781 259T826 461T840 733Q840 885 827 1004T782 1205T700 1329T575 1372Q500 1372 449 1330T365 1205T319 1004T305 733Z" />
<glyph unicode="1" glyph-name="one" horiz-adv-x="1145" d="M197 0V86H334Q369 86 399 91T452 111T488 156T502 233V1309Q463 1261 428 1222T361 1155T299 1112T238 1096Q193 1096 164 1126T135 1206Q166 1214 197 1225T264 1255T341 1300T434 1364L578 1470H709V233Q709
185 722 156T758 112T811 91T877 86H977V0H197Z" />
<glyph unicode="2" glyph-name="two" horiz-adv-x="1145" d="M944 1141Q944 1069 921 1001T854 862T747 713T602 547L256 164H729Q775 164 805 177T854 211T883 259T901 317L909 354H995L985 0H104V150L446 545Q528 640 583 715T673 856T722 986T737 1120Q737
1179 725 1226T687 1308T622 1361T528 1380Q458 1380 415 1355T346 1288T312 1191T303 1075Q266 1075 234 1081T178 1102T141 1143T127 1208Q127 1267 152 1317T228 1405T354 1462T528 1483Q625 1483 702 1459T833 1390T915 1282T944 1141Z" />
<glyph unicode="3" glyph-name="three" horiz-adv-x="1145" d="M508 90Q569 90 624 107T721 163T788 265T813 420Q813 485 788 537T714 627T597 684T442 705H377V809H442Q510 809 568 831T670 895T739 994T764 1126Q764 1186 752 1233T714 1313T646 1363T545 1380Q475
1380 431 1355T362 1288T328 1191T319 1075Q282 1075 250 1081T194 1102T157 1143T143 1208Q143 1267 168 1317T245 1405T371 1462T545 1483Q642 1483 721 1461T856 1398T944 1296T975 1157Q975 1088 951 1027T882 917T778 832T647 780Q685 776 728 767T813 739T893
694T961 628T1008 538T1026 418Q1026 336 1004 271T944 158T854 75T745 20T626 -10T506 -20Q405 -20 332 -2T212 48T142 120T119 207Q119 269 154 303T248 338Q248 284 265 239T316 160T397 109T508 90Z" />
<glyph unicode="4" glyph-name="four" horiz-adv-x="1145" d="M862 401V233Q862 185 875 156T911 112T965 91T1030 86H1057V0H440V86H498Q533 86 563 91T616 111T652 156T666 233V401H35V485L668 1462H862V516H1116V401H862ZM666 895Q666 940 667 994T669 1104T673
1215T680 1319Q673 1305 660 1282T631 1229T596 1168T559 1106T524 1049T496 1004L182 516H666V895Z" />
<glyph unicode="5" glyph-name="five" horiz-adv-x="1145" d="M489 100Q552 100 605 117T698 175T760 282T782 446Q782 527 760 587T697 687T599 746T471 766Q418 766 380 762T312 752T260 737T219 721L170 735L236 1460H920L930 1151H844L836 1212Q833 1234 828
1249T810 1275T778 1291T725 1296H328L289 846Q320 857 378 868T528 879Q627 879 712 852T861 771T959 636T995 446Q995 342 962 256T865 109T709 14T500 -20Q386 -20 312 -1T193 49T131 115T113 186Q113 243 144 275T242 307Q242 263 257 225T303 160T380 116T489
100Z" />
<glyph unicode="6" glyph-name="six" horiz-adv-x="1145" d="M659 1384Q505 1384 426 1233T336 782Q361 803 391 822T458 856T536 880T629 889Q723 889 799 860T928 777T1011 645T1040 469Q1040 361 1011 271T925 117T787 16T600 -20Q498 -20 411 22T261 156T161
391T125 737Q125 834 139 927T183 1103T256 1256T359 1376T494 1455T659 1483Q745 1483 808 1465T914 1417T976 1348T997 1268Q997 1209 957 1177T840 1145Q840 1195 831 1238T799 1314T743 1365T659 1384ZM588 784Q548 784 511 774T442 747T382 709T334 666Q336
512 355 403T410 225T495 124T606 92Q716 92 773 177T831 449Q831 624 769 704T588 784Z" />
<glyph unicode="7" glyph-name="seven" horiz-adv-x="1145" d="M389 0L872 1296H334Q224 1296 215 1192L207 1090H121L131 1460H1047V1401L543 0H389Z" />
<glyph unicode="8" glyph-name="eight" horiz-adv-x="1145" d="M94 367Q94 441 117 496T183 595T282 674T406 741Q348 774 299 812T215 897T161 997T141 1116Q141 1187 166 1253T244 1370T381 1452T584 1483Q680 1483 755 1457T881 1383T960 1272T987 1130Q987
1063 967 1012T911 921T824 848T711 784Q787 748 849 707T957 618T1026 514T1051 391Q1051 294 1016 218T917 88T762 8T559 -20Q444 -20 357 10T212 92T124 215T94 367ZM569 74Q636 74 690 94T783 151T843 237T864 346Q864 398 845 442T783 528T672 609T504 692Q407
640 350 557T293 358Q293 294 310 242T362 153T449 95T569 74ZM805 1135Q805 1182 793 1227T753 1307T681 1364T571 1386Q514 1386 470 1368T395 1317T350 1239T334 1141Q334 1086 351 1042T403 962T490 895T610 831Q668 860 705 890T765 957T796 1037T805 1135Z"
/>
<glyph unicode="9" glyph-name="nine" horiz-adv-x="1145" d="M467 90Q637 90 718 242T809 702Q787 675 758 650T691 606T608 575T508 563Q419 563 345 589T217 667T134 797T104 979Q104 1090 134 1182T220 1341T358 1445T543 1483Q647 1483 734 1443T885 1319T984
1105T1020 795Q1020 688 1007 586T965 392T892 225T786 94T644 8T465 -23Q378 -23 321 -8T230 33T182 90T168 154Q168 192 187 218T229 252Q243 220 263 191T313 139T381 103T467 90ZM553 684Q603 685 644 698T718 734T773 787T811 850V854Q809 989 789 1086T734
1247T651 1340T543 1370Q434 1370 375 1275T315 999Q315 915 330 855T375 757T449 702T553 684Z" />
<glyph unicode=":" glyph-name="colon" horiz-adv-x="588" d="M166 125Q166 165 176 191T203 234T244 257T295 264Q321 264 344 257T385 234T413 192T424 125Q424 86 414 59T386 16T345 -7T295 -14Q268 -14 245 -7T204 16T176 59T166 125ZM166 969Q166 1009 176
1035T203 1078T244 1101T295 1108Q321 1108 344 1101T385 1078T413 1036T424 969Q424 930 414 903T386 860T345 836T295 829Q268 829 245 836T204 859T176 903T166 969Z" />
<glyph unicode=";" glyph-name="semicolon" horiz-adv-x="512" d="M397 86Q397 21 379 -40T321 -153T217 -246T61 -315V-229Q162 -197 209 -151T256 -45Q256 -25 245 -12T217 12T181 33T145 57T117 91T106 143Q106 202 144 233T240 264Q272 264 300 253T350 219T384
163T397 86ZM129 969Q129 1009 139 1035T166 1078T207 1101T258 1108Q284 1108 307 1101T348 1078T376 1036T387 969Q387 930 377 903T349 860T308 836T258 829Q231 829 208 836T167 859T139 903T129 969Z" />
<glyph unicode="&lt;" glyph-name="less" horiz-adv-x="1145" d="M133 696V768L1012 1241V1104L324 731L1012 362V225L133 696Z" />
<glyph unicode="=" glyph-name="equal" horiz-adv-x="1145" d="M1012 590V469H133V590H1012ZM1012 993V872H133V993H1012Z" />
<glyph unicode="&gt;" glyph-name="greater" horiz-adv-x="1145" d="M133 225V362L821 731L133 1104V1241L1012 768V696L133 225Z" />
<glyph unicode="?" glyph-name="question" horiz-adv-x="1024" d="M522 412H397V723Q486 759 546 806T643 909T695 1025T711 1147Q711 1200 698 1243T658 1317T589 1365T487 1382Q423 1382 380 1361T309 1304T270 1221T258 1120Q221 1120 190 1128T137 1153T101
1195T88 1253Q88 1302 110 1344T180 1417T300 1465T471 1483Q568 1483 650 1458T792 1386T886 1269T920 1112Q920 1028 894 959T816 833T691 729T522 643V412ZM328 125Q328 165 338 191T365 234T406 257T457 264Q483 264 506 257T547 234T575 192T586 125Q586 86
576 59T548 16T507 -7T457 -14Q430 -14 407 -7T366 16T338 59T328 125Z" />
<glyph unicode="@" glyph-name="at" horiz-adv-x="1886" d="M1778 803Q1778 655 1742 536T1648 332T1519 203T1376 158Q1285 158 1225 207T1135 344H1124Q1103 304 1077 270T1017 211T942 172T848 158Q786 158 730 179T631 243T563 352T537 508Q537 563 549 627T588
754T656 877T756 982T889 1055T1059 1083Q1125 1083 1172 1065T1251 1022L1333 1065H1382L1278 543Q1275 519 1271 495Q1268 475 1266 451T1264 406Q1264 370 1274 344T1302 300T1341 274T1389 266Q1434 266 1481 302T1566 407T1628 578T1653 809Q1653 943 1610
1045T1491 1217T1308 1322T1073 1358Q973 1358 877 1330T694 1248T535 1115T408 936T325 713T295 451Q295 280 344 160T476 -37T670 -149T905 -184Q989 -184 1064 -170T1204 -131T1325 -77T1425 -14L1473 -88Q1422 -126 1359 -162T1223 -227T1065 -273T885 -291Q720
-291 582 -246T345 -108T189 122T133 446Q133 591 164 722T255 967T399 1171T590 1327T820 1427T1085 1462Q1257 1462 1387 1411T1604 1272T1734 1063T1778 803ZM727 479Q727 371 770 319T883 266Q935 266 973 288T1037 347T1079 429T1104 522L1182 938Q1169 967
1137 983T1067 999Q1006 999 957 973T870 903T805 805T761 691T735 578T727 479Z" />
<glyph unicode="A" glyph-name="A" horiz-adv-x="1444" d="M414 489L336 274Q327 250 322 227T317 186Q317 134 350 110T453 86H500V0H0V86H39Q69 86 90 92T128 117T160 166T195 246L649 1462H809L1272 195Q1284 163 1296 142T1326 109T1365 91T1417 86H1444V0H881V86H928Q1051
86 1051 184Q1051 201 1047 219T1034 260L952 489H414ZM788 950Q756 1041 730 1120T686 1274Q679 1237 670 1203T649 1132T624 1057T592 969L453 592H915L788 950Z" />
<glyph unicode="B" glyph-name="B" horiz-adv-x="1339" d="M1153 1096Q1153 1027 1134 975T1080 884T1000 819T899 774V766Q969 754 1027 725T1126 650T1191 540T1214 395Q1214 197 1084 99T688 0H78V86H104Q139 86 169 91T223 111T259 156T272 233V1237Q272 1282
259 1309T222 1352T169 1371T104 1376H78V1462H627Q893 1462 1023 1374T1153 1096ZM479 102H678Q765 102 825 118T923 169T978 262T995 401Q995 481 980 540T929 638T832 696T682 715H479V102ZM479 817H621Q711 817 771 833T867 882T918 969T934 1096Q934 1171
917 1221T862 1303T764 1347T616 1360H479V817Z" />
<glyph unicode="C" glyph-name="C" horiz-adv-x="1257" d="M774 1483Q879 1483 956 1466T1085 1417T1162 1344T1188 1253Q1188 1220 1175 1194T1137 1149T1081 1120T1010 1110Q1010 1158 998 1205T957 1289T883 1350T770 1374Q654 1374 573 1332T441 1208T367
1007T344 733Q344 596 368 482T444 287T576 160T770 115Q845 115 902 129T1004 168T1081 223T1141 289Q1158 278 1169 259T1180 209Q1180 170 1154 130T1073 56T936 2T739 -20Q586 -20 470 34T276 187T157 425T117 733Q117 899 159 1037T283 1274T489 1428T774
1483Z" />
<glyph unicode="D" glyph-name="D" horiz-adv-x="1489" d="M1372 733Q1372 565 1330 430T1205 199T997 52T705 0H78V86H104Q139 86 169 91T223 111T259 156T272 233V1237Q272 1282 259 1309T222 1352T169 1371T104 1376H78V1462H705Q863 1462 987 1414T1196 1272T1327
1043T1372 733ZM657 104Q779 104 870 145T1023 267T1114 464T1145 733Q1145 1038 1024 1199T659 1360H479V104H657Z" />
<glyph unicode="E" glyph-name="E" horiz-adv-x="1276" d="M479 102H874Q923 102 957 115T1015 152T1051 205T1069 270L1083 358H1190L1176 0H78V86H104Q138 86 168 90T222 109T258 150T272 223V1229Q272 1277 259 1306T223 1350T170 1371T104 1376H78V1462H1110L1120
1104H1014L1004 1192Q1000 1226 989 1256T956 1310T902 1346T823 1360H479V815H973V715H479V102Z" />
<glyph unicode="F" glyph-name="F" horiz-adv-x="1208" d="M479 1360V768H973V668H479V233Q479 185 492 156T528 112T582 91T647 86H715V0H78V86H104Q138 86 168 90T222 109T258 150T272 223V1237Q272 1282 259 1309T222 1352T169 1371T104 1376H78V1462H1110L1120
1104H1014L1004 1192Q1000 1227 988 1257T954 1310T897 1346T815 1360H479Z" />
<glyph unicode="G" glyph-name="G" horiz-adv-x="1462" d="M821 -20Q643 -20 511 34T291 187T160 425T117 733Q117 899 162 1037T298 1274T523 1428T834 1483Q948 1483 1032 1466T1173 1417T1258 1344T1286 1253Q1286 1220 1271 1194T1231 1149T1171 1120T1096
1110Q1096 1158 1082 1205T1036 1289T952 1350T825 1374Q695 1374 604 1332T454 1208T370 1007T344 733Q344 580 371 461T459 261T617 138T854 96Q913 96 968 102T1067 121V451Q1067 496 1054 523T1017 565T964 585T899 590H891V676H1423V590H1415Q1386 590 1360
585T1315 565T1285 520T1274 442V74Q1171 26 1062 3T821 -20Z" />
<glyph unicode="H" glyph-name="H" horiz-adv-x="1624" d="M950 0V86H977Q1012 86 1042 91T1095 111T1131 156T1145 233V713H479V233Q479 185 492 156T528 112T582 91T647 86H674V0H78V86H104Q139 86 169 91T223 111T259 156T272 233V1237Q272 1282 259 1309T222
1352T169 1371T104 1376H78V1462H674V1376H647Q613 1376 582 1371T529 1351T493 1306T479 1229V815H1145V1229Q1145 1277 1132 1306T1096 1350T1043 1371T977 1376H950V1462H1546V1376H1520Q1485 1376 1455 1371T1401 1351T1365 1306T1352 1229V223Q1352 178 1365
151T1402 109T1455 91T1520 86H1546V0H950Z" />
<glyph unicode="I" glyph-name="I" horiz-adv-x="752" d="M78 0V86H104Q139 86 169 91T223 111T259 156T272 233V1229Q272 1277 259 1306T223 1350T170 1371T104 1376H78V1462H674V1376H647Q613 1376 582 1371T529 1351T493 1306T479 1229V233Q479 185 492 156T528
112T582 91T647 86H674V0H78Z" />
<glyph unicode="J" glyph-name="J" horiz-adv-x="731" d="M-23 -395H-4Q62 -395 113 -377T200 -315T253 -199T272 -18V1237Q272 1282 259 1309T222 1352T169 1371T104 1376H78V1462H674V1376H647Q613 1376 582 1371T529 1351T493 1306T479 1229V-16Q479 -154 443
-245T344 -391T196 -469T12 -492H-23V-395Z" />
<glyph unicode="K" glyph-name="K" horiz-adv-x="1434" d="M903 1137Q936 1175 958 1204T992 1258T1010 1300T1016 1333Q1016 1359 991 1368T915 1378V1462H1368V1378Q1333 1378 1301 1365T1236 1327T1169 1267T1094 1186L797 852L1229 250Q1288 169 1342 128T1454
86H1458V0H1436Q1333 0 1267 8T1156 37T1078 93T1006 184L653 690L479 549V233Q479 185 492 156T528 112T582 91T647 86H674V0H78V86H104Q138 86 168 90T222 109T258 150T272 223V1237Q272 1282 259 1309T222 1352T169 1371T104 1376H78V1462H674V1376H647Q613
1376 582 1371T529 1351T493 1306T479 1229V651L903 1137Z" />
<glyph unicode="L" glyph-name="L" horiz-adv-x="1276" d="M78 0V86H104Q139 86 169 91T223 111T259 156T272 233V1229Q272 1277 259 1306T223 1350T170 1371T104 1376H78V1462H674V1376H647Q613 1376 583 1372T529 1352T493 1310T479 1237V102H883Q929 102 961
118T1015 161T1047 221T1063 287L1083 440H1190L1176 0H78Z" />
<glyph unicode="M" glyph-name="M" horiz-adv-x="1921" d="M1298 0V86H1305Q1338 86 1364 90T1409 108T1439 147T1452 215V1309L983 0H872L397 1305V233Q397 185 407 156T436 112T483 91T545 86H551V0H78V86H104Q138 86 168 90T222 109T258 150T272 223V1237Q272
1282 259 1309T222 1352T169 1371T104 1376H78V1462H545L969 291L1389 1462H1843V1376H1817Q1782 1376 1752 1371T1698 1351T1662 1306T1649 1229V233Q1649 185 1662 156T1698 112T1751 91T1817 86H1843V0H1298Z" />
<glyph unicode="N" glyph-name="N" horiz-adv-x="1563" d="M1165 0L397 1180V233Q397 185 410 156T446 112T500 91T565 86H592V0H78V86H104Q139 86 169 91T223 111T259 156T272 233V1237Q272 1282 259 1309T222 1352T169 1371T104 1376H78V1462H453L1186 330V1237Q1186
1282 1173 1309T1136 1352T1083 1371T1018 1376H991V1462H1505V1376H1479Q1444 1376 1414 1371T1360 1351T1324 1306T1311 1229V0H1165Z" />
<glyph unicode="O" glyph-name="O" horiz-adv-x="1520" d="M1403 733Q1403 564 1361 425T1237 187T1035 34T760 -20Q597 -20 476 34T275 187T155 425T115 735Q115 905 155 1043T275 1280T477 1431T762 1485Q917 1485 1036 1432T1237 1280T1361 1043T1403 733ZM342
733Q342 581 364 462T437 260T566 134T760 90Q874 90 953 133T1082 259T1154 461T1176 733Q1176 885 1154 1004T1083 1206T955 1331T762 1374Q648 1374 568 1331T438 1206T365 1005T342 733Z" />
<glyph unicode="P" glyph-name="P" horiz-adv-x="1237" d="M78 0V86H104Q139 86 169 91T223 111T259 156T272 233V1237Q272 1282 259 1309T222 1352T169 1371T104 1376H78V1462H653Q782 1462 877 1433T1034 1348T1126 1213T1157 1034Q1157 943 1129 859T1035 711T865
608T608 569H479V223Q479 178 492 151T529 109T582 91T647 86H715V0H78ZM479 666H588Q681 666 747 685T855 748T916 860T936 1026Q936 1112 919 1175T864 1281T766 1343T618 1364H479V666Z" />
<glyph unicode="Q" glyph-name="Q" horiz-adv-x="1520" d="M1403 733Q1403 583 1370 457T1273 235T1114 77T897 -8Q906 -113 931 -183T995 -296T1086 -357T1200 -375H1233V-471H1145Q1064 -471 984 -450T837 -376T727 -236T672 -16Q531 -1 427 58T253 215T150
444T115 735Q115 905 155 1043T275 1280T477 1431T762 1485Q917 1485 1036 1432T1237 1280T1361 1043T1403 733ZM342 733Q342 581 364 462T437 260T566 134T760 90Q874 90 953 133T1082 259T1154 461T1176 733Q1176 885 1154 1004T1083 1206T955 1331T762 1374Q648
1374 568 1331T438 1206T365 1005T342 733Z" />
<glyph unicode="R" glyph-name="R" horiz-adv-x="1343" d="M1135 250Q1187 168 1236 127T1350 86H1356V0H1327Q1231 0 1170 7T1065 34T992 90T926 184L649 645H479V223Q479 178 492 151T529 109T582 91T647 86H674V0H78V86H104Q138 86 168 90T222 109T258 150T272
223V1237Q272 1282 259 1309T222 1352T169 1371T104 1376H78V1462H629Q895 1462 1025 1364T1155 1067Q1155 985 1129 924T1059 817T962 742T854 694L1135 250ZM479 741H623Q713 741 773 761T869 821T920 921T936 1061Q936 1143 919 1200T864 1294T766 1347T618
1364H479V741Z" />
<glyph unicode="S" glyph-name="S" horiz-adv-x="1114" d="M506 -20Q406 -20 330 1T202 59T124 150T98 268Q98 330 136 368T246 406Q249 342 265 283T315 179T399 107T522 80Q660 80 737 146T815 338Q815 394 799 437T746 516T649 586T498 657Q403 696 332 740T214
839T144 961T121 1112Q121 1200 154 1269T248 1385T390 1458T569 1483Q661 1483 732 1464T852 1413T926 1340T952 1253Q952 1187 909 1154T791 1120Q791 1168 780 1214T741 1297T670 1357T561 1380Q502 1380 456 1364T377 1317T328 1243T311 1147Q311 1086 327
1040T380 956T479 885T629 815Q719 778 789 737T909 646T984 533T1010 391Q1010 294 975 218T873 88T714 8T506 -20Z" />
<glyph unicode="T" glyph-name="T" horiz-adv-x="1255" d="M729 233Q729 185 742 156T778 112T832 91T897 86H944V0H307V86H354Q388 86 418 90T472 109T508 150T522 223V1360H326Q281 1360 251 1347T201 1310T172 1257T158 1192L147 1104H41L51 1462H1204L1214
1104H1108L1098 1192Q1094 1226 1084 1256T1055 1310T1005 1346T928 1360H729V233Z" />
<glyph unicode="U" glyph-name="U" horiz-adv-x="1468" d="M741 -20Q620 -20 524 5T362 86T260 229T225 442V1237Q225 1282 212 1309T175 1352T122 1371T57 1376H31V1462H627V1376H600Q566 1376 535 1371T482 1351T446 1306T432 1229V430Q432 341 457 279T528
177T636 120T774 102Q863 102 927 126T1034 192T1097 293T1118 422V1237Q1118 1282 1105 1309T1068 1352T1015 1371T950 1376H924V1462H1438V1376H1411Q1377 1376 1346 1371T1293 1351T1257 1306T1243 1229V418Q1243 316 1211 235T1115 97T957 10T741 -20Z" />
<glyph unicode="V" glyph-name="V" horiz-adv-x="1382" d="M614 0L172 1268Q161 1300 148 1321T118 1354T79 1371T27 1376H0V1462H563V1376H516Q454 1376 424 1353T393 1278Q393 1261 397 1243T410 1202L635 537Q666 446 688 361T727 201Q743 275 765 358T821
537L1047 1188Q1055 1213 1060 1236T1065 1276Q1065 1329 1032 1352T930 1376H883V1462H1382V1376H1343Q1313 1376 1292 1370T1253 1347T1220 1298T1188 1217L764 0H614Z" />
<glyph unicode="W" glyph-name="W" horiz-adv-x="2144" d="M1180 1448L1436 561Q1465 459 1487 366T1524 201Q1539 275 1558 356T1606 537L1786 1169Q1789 1181 1793 1196T1800 1226T1805 1254T1808 1276Q1808 1329 1775 1352T1673 1376H1626V1462H2126V1376H2087Q2057
1376 2035 1370T1994 1347T1961 1299T1931 1217L1585 0H1401L1067 1147L754 0H565L190 1268Q180 1300 168 1321T138 1354T98 1371T45 1376H18V1462H582V1376H535Q473 1376 443 1353T412 1278Q412 1261 417 1243T428 1202L616 547Q642 454 665 365T705 201Q720 281
740 375T788 569L1032 1448H1180Z" />
<glyph unicode="X" glyph-name="X" horiz-adv-x="1352" d="M954 1317Q954 1335 946 1346T923 1364T888 1373T844 1376H838V1462H1286V1376H1268Q1238 1376 1214 1369T1166 1345T1119 1299T1065 1229L768 801L1145 195Q1190 135 1230 111T1309 86H1335V0H782V86H793Q915
86 915 154Q915 165 913 176T903 202T883 239T848 295L645 621L418 285Q409 272 400 256T383 221T370 185T365 150Q365 115 397 101T498 86H504V0H16V86H29Q66 86 93 93T144 118T191 162T242 229L584 719L246 1268Q209 1327 163 1351T70 1376H43V1462H598V1376H592Q557
1376 534 1372T498 1359T480 1340T475 1317Q475 1306 476 1296T483 1273T497 1241T524 1196L709 897L903 1192Q926 1227 940 1258T954 1317Z" />
<glyph unicode="Y" glyph-name="Y" horiz-adv-x="1280" d="M326 0V86H373Q407 86 437 90T491 109T527 150T541 223V610L162 1268Q145 1297 130 1317T99 1351T62 1370T16 1376H-10V1462H553V1376H477Q449 1376 432 1371T404 1357T391 1336T387 1311Q387 1282 399
1253T424 1202L575 928Q611 865 636 804T678 694Q687 716 700 743T730 800T765 863T801 928L932 1163Q952 1198 960 1229T969 1286Q969 1331 937 1353T846 1376H786V1462H1286V1376H1262Q1240 1376 1221 1369T1181 1343T1140 1294T1092 1217L748 610V233Q748 185
761 156T797 112T850 91T915 86H963V0H326Z" />
<glyph unicode="Z" glyph-name="Z" horiz-adv-x="1212" d="M1094 1378L324 102H840Q886 102 917 115T967 152T996 205T1010 270L1020 358H1126L1116 0H74V82L842 1360H397Q352 1360 322 1347T272 1310T243 1257T229 1192L219 1104H113L123 1462H1094V1378Z" />
<glyph unicode="[" glyph-name="bracketleft" horiz-adv-x="735" d="M205 -262V1556H662V1470H573Q539 1470 509 1465T455 1445T419 1400T406 1323V-29Q406 -77 419 -106T455 -150T508 -171T573 -176H662V-262H205Z" />
<glyph unicode="\" glyph-name="backslash" horiz-adv-x="590" d="M0 1556H119L590 -248H469L0 1556Z" />
<glyph unicode="]" glyph-name="bracketright" horiz-adv-x="737" d="M76 -262V-176H164Q199 -176 229 -171T282 -151T318 -106T332 -29V1323Q332 1371 319 1400T283 1444T230 1465T164 1470H76V1556H532V-262H76Z" />
<glyph unicode="^" glyph-name="asciicircum" horiz-adv-x="1145" d="M535 1462H606L1038 545H901L569 1274L242 545H104L535 1462Z" />
<glyph unicode="_" glyph-name="underscore" horiz-adv-x="940" d="M950 -291H-10V-170H950V-291Z" />
<glyph unicode="`" glyph-name="grave" horiz-adv-x="1182" d="M791 1241H713Q672 1269 624 1310T531 1396T449 1480T393 1548V1569H612Q628 1535 649 1495T695 1414T744 1335T791 1268V1241Z" />
<glyph unicode="a" glyph-name="a" horiz-adv-x="1153" d="M301 297Q301 201 341 154T467 106Q529 106 579 126T665 183T720 273T739 391V557L608 551Q521 547 463 530T368 481T317 403T301 297ZM549 1016Q490 1016 454 1000T397 953T369 882T362 793Q277 793
233 822T188 922Q188 975 217 1012T296 1072T414 1107T557 1118Q651 1118 721 1100T838 1039T908 930T932 764V233Q932 190 939 162T961 117T1000 93T1059 86H1065V0H788L756 176H739Q707 133 677 97T611 35T530 -5T420 -20Q352 -20 294 -1T193 59T126 161T102
307Q102 470 218 549T569 635L739 641V764Q739 819 733 865T707 945T650 997T549 1016Z" />
<glyph unicode="b" glyph-name="b" horiz-adv-x="1257" d="M1145 551Q1145 403 1118 295T1037 117T906 14T727 -20Q668 -20 620 -7T534 30T466 87T414 160H401L365 0H37V86H53Q88 86 118 91T171 111T207 156T221 233V1331Q221 1376 208 1403T171 1446T118 1465T53
1470H37V1556H414V1180Q414 1145 413 1100T410 1012Q408 964 406 913H414Q437 960 466 998T533 1062T619 1103T727 1118Q828 1118 906 1085T1037 982T1117 805T1145 551ZM692 987Q612 987 559 961T473 880T428 744T414 551Q414 444 427 362T473 224T559 140T694
111Q762 111 809 139T887 224T932 362T946 553Q946 662 932 743T888 879T809 960T692 987Z" />
<glyph unicode="c" glyph-name="c" horiz-adv-x="1008" d="M580 -20Q478 -20 392 11T244 111T148 285T113 543Q113 707 147 817T243 995T388 1090T569 1118Q633 1118 696 1106T811 1067T894 1002T926 909Q926 838 880 809T743 780Q743 828 735 871T708 946T655
997T569 1016Q510 1016 463 994T381 918T329 773T311 545Q311 327 383 220T621 113Q716 113 787 153T893 256Q908 244 918 224T928 176Q928 141 906 106T841 43T732 -2T580 -20Z" />
<glyph unicode="d" glyph-name="d" horiz-adv-x="1257" d="M1036 225Q1036 180 1049 153T1086 110T1139 91T1204 86H1221V0H874L852 184H844Q821 137 792 100T724 36T638 -5T530 -20Q429 -20 351 13T220 116T140 293T113 547Q113 695 140 803T220 981T351 1084T530
1118Q589 1118 637 1105T723 1068T792 1011T844 938H856Q853 988 850 1032Q848 1070 846 1107T844 1163V1331Q844 1376 831 1403T794 1446T741 1465T676 1470H659V1556H1036V225ZM565 111Q645 111 698 137T784 218T830 354T844 547Q844 654 831 736T785 873T698
958T563 987Q496 987 448 958T370 873T325 735T311 545Q311 327 370 219T565 111Z" />
<glyph unicode="e" glyph-name="e" horiz-adv-x="1096" d="M563 1008Q449 1008 388 916T315 645H786Q786 726 774 793T736 908T668 982T563 1008ZM588 -20Q477 -20 389 17T239 127T146 303T113 541Q113 828 231 973T567 1118Q666 1118 745 1087T879 995T963 842T993
629V535H311Q313 423 333 343T392 210T487 134T616 109Q669 109 714 121T797 153T862 198T909 252Q923 246 935 227T948 182Q948 151 926 116T859 50T747 0T588 -20Z" />
<glyph unicode="f" glyph-name="f" horiz-adv-x="756" d="M688 86V0H55V86H82Q117 86 147 91T200 111T236 156T250 233V1001H63V1098H250V1200Q250 1292 275 1362T347 1480T461 1552T612 1577Q692 1577 747 1567T835 1537T884 1492T899 1434Q899 1406 887 1385T852
1349T799 1327T731 1319Q731 1350 725 1379T703 1432T661 1469T596 1483Q552 1483 523 1466T475 1416T450 1333T442 1219V1098H731V1001H442V233Q442 185 455 156T491 112T545 91T610 86H688Z" />
<glyph unicode="g" glyph-name="g" horiz-adv-x="1102" d="M1077 1055Q1077 1033 1071 1014T1051 980T1018 957T969 948Q969 960 966 972T956 994T935 1011T901 1018Q875 1018 854 1012T813 993Q848 950 870 892T893 745Q893 669 870 605T802 493T687 420T524
393Q512 393 497 393T467 394T439 396T418 399Q398 389 380 377T349 350T327 316T319 274Q319 249 328 234T355 211T395 200T446 197H678Q770 197 834 174T938 111T997 14T1016 -109Q1016 -197 984 -268T884 -388T715 -465T473 -492Q259 -492 153 -413T47 -193Q47
-133 68 -88T124 -11T206 41T303 70Q282 79 262 94T226 130T200 178T190 238Q190 299 222 343T324 430Q280 448 246 479T188 551T152 640T139 739Q139 828 163 898T235 1017T355 1092T524 1118Q561 1118 597 1113T663 1098T718 1076T758 1051Q773 1067 793 1086T838
1122T892 1150T956 1161Q987 1161 1009 1153T1047 1130T1069 1096T1077 1055ZM213 -180Q213 -225 225 -264T267 -331T348 -375T477 -391Q587 -391 658 -373T772 -321T831 -243T848 -143Q848 -96 835 -66T795 -18T729 7T639 14H438Q395 14 355 7T283 -22T232 -81T213
-180ZM332 745Q332 614 375 553T518 492Q568 492 602 507T659 553T690 632T700 748Q700 886 658 952T516 1018Q417 1018 375 951T332 745Z" />
<glyph unicode="h" glyph-name="h" horiz-adv-x="1300" d="M588 86V0H37V86H53Q88 86 118 91T171 111T207 156T221 233V1331Q221 1376 208 1403T171 1446T118 1465T53 1470H37V1556H414V1106Q414 1078 413 1048T410 991Q408 961 406 932H416Q508 1118 717 1118Q804
1118 871 1095T985 1023T1055 898T1079 717V233Q1079 185 1091 156T1124 112T1174 91T1237 86H1243V0H887V707Q887 774 875 826T837 914T767 968T662 987Q598 987 552 964T475 897T429 792T414 655V223Q414 178 427 151T464 109T517 91T582 86H588Z" />
<glyph unicode="i" glyph-name="i" horiz-adv-x="655" d="M74 86Q108 86 138 90T192 109T228 150T242 223V872Q242 917 229 944T192 987T139 1007T74 1012H68V1098H434V233Q434 185 447 156T483 112T537 91T602 86H629V0H47V86H74ZM213 1430Q213 1466 222 1490T247
1529T284 1550T330 1556Q354 1556 375 1550T411 1529T436 1490T446 1430Q446 1394 437 1370T412 1331T375 1310T330 1303Q305 1303 284 1309T247 1331T222 1370T213 1430Z" />
<glyph unicode="j" glyph-name="j" horiz-adv-x="614" d="M414 1098V-16Q414 -154 384 -245T300 -391T172 -469T8 -492H-25V-395H-10Q45 -395 88 -377T160 -315T205 -199T221 -18V872Q221 917 208 944T171 987T118 1007T53 1012H47V1098H414ZM193 1430Q193 1466
202 1490T226 1529T263 1550T309 1556Q333 1556 354 1550T391 1529T416 1490T426 1430Q426 1394 417 1370T392 1331T355 1310T309 1303Q285 1303 264 1309T227 1331T202 1370T193 1430Z" />
<glyph unicode="k" glyph-name="k" horiz-adv-x="1198" d="M694 659L967 254Q1020 172 1072 129T1194 86H1200V0H1171Q1082 0 1025 5T925 31T848 91T770 199L565 520L414 408V223Q414 178 427 151T464 109T517 91T582 86H588V0H37V86H53Q88 86 118 91T171 111T207
156T221 233V1331Q221 1376 208 1403T171 1446T118 1465T53 1470H37V1556H414V766Q414 738 413 695T410 609Q408 561 406 508L662 788Q695 825 716 853T751 902T769 939T774 971Q774 997 750 1004T674 1012V1098H1126V1012Q1055 1012 987 962T838 821L694 659Z"
/>
<glyph unicode="l" glyph-name="l" horiz-adv-x="635" d="M53 86Q88 86 118 91T171 111T207 156T221 233V1331Q221 1376 208 1403T171 1446T118 1465T53 1470H27V1556H414V233Q414 185 427 156T463 112T516 91T582 86H608V0H27V86H53Z" />
<glyph unicode="m" glyph-name="m" horiz-adv-x="1935" d="M608 86V0H57V86H84Q119 86 148 91T198 111T230 156T242 233V872Q242 917 230 944T197 987T147 1007T84 1012H78V1098H399L426 932H436Q467 989 501 1025T573 1082T654 1110T745 1118Q795 1118 840 1108T923
1076T992 1019T1042 932H1059Q1090 989 1126 1025T1202 1082T1287 1110T1380 1118Q1458 1118 1520 1095T1625 1023T1691 898T1714 717V233Q1714 185 1726 156T1759 112T1809 91T1872 86H1878V0H1522V707Q1522 774 1511 826T1474 914T1407 968T1307 987Q1243 987
1200 963T1129 896T1091 799T1079 682V233Q1079 185 1091 156T1124 112T1174 91T1237 86H1243V0H887V707Q887 774 876 826T839 914T772 968T672 987Q605 987 560 960T486 887T446 781T434 655V223Q434 178 447 151T484 109T537 91T602 86H608Z" />
<glyph unicode="n" glyph-name="n" horiz-adv-x="1321" d="M608 86V0H57V86H74Q109 86 139 91T192 111T228 156T242 233V872Q242 917 229 944T192 987T139 1007T74 1012H68V1098H399L426 932H436Q468 989 503 1025T578 1082T662 1110T756 1118Q837 1118 900 1095T1008
1023T1076 898T1100 717V233Q1100 185 1111 156T1144 112T1194 91T1257 86H1264V0H907V707Q907 774 895 826T857 914T787 968T682 987Q612 987 565 960T488 887T447 781T434 655V223Q434 178 447 151T484 109T537 91T602 86H608Z" />
<glyph unicode="o" glyph-name="o" horiz-adv-x="1182" d="M1069 551Q1069 262 947 121T588 -20Q477 -20 389 15T240 121T146 299T113 551Q113 838 234 978T594 1118Q705 1118 793 1084T942 979T1036 802T1069 551ZM311 551Q311 437 326 350T374 205T461 116T592
86Q669 86 722 116T808 204T855 350T870 551Q870 665 855 751T807 894T721 981T590 1010Q513 1010 460 981T374 895T326 751T311 551Z" />
<glyph unicode="p" glyph-name="p" horiz-adv-x="1257" d="M692 987Q612 987 559 961T473 880T428 744T414 551Q414 444 427 362T473 224T559 140T694 111Q762 111 809 139T887 224T932 362T946 553Q946 662 932 743T888 879T809 960T692 987ZM1145 551Q1145 403
1118 295T1037 117T906 14T727 -20Q668 -20 620 -7T534 30T466 87T414 160H406Q408 107 410 61Q411 42 411 22T412 -17T413 -49T414 -72V-268Q414 -313 427 -340T464 -382T517 -401T582 -406H588V-492H37V-406H53Q88 -406 118 -401T171 -381T207 -336T221 -258V872Q221
917 208 944T171 987T118 1007T53 1012H27V1098H385L406 913H414Q437 960 466 998T533 1062T619 1103T727 1118Q828 1118 906 1085T1037 982T1117 805T1145 551Z" />
<glyph unicode="q" glyph-name="q" horiz-adv-x="1257" d="M1221 -492H608V-406H676Q711 -406 741 -401T794 -381T830 -336T844 -258V-82Q844 -47 845 -2T848 86Q850 134 852 184H844Q821 137 792 100T724 36T638 -5T530 -20Q429 -20 351 13T220 116T140 293T113
547Q113 695 140 803T220 981T351 1084T530 1118Q589 1118 637 1105T723 1068T792 1011T844 938H856L893 1098H1221V1012H1204Q1170 1012 1139 1007T1086 987T1050 942T1036 864V-266Q1036 -311 1049 -338T1086 -381T1139 -401T1204 -406H1221V-492ZM565 111Q645
111 698 137T784 218T830 354T844 547Q844 654 831 736T785 873T698 958T563 987Q496 987 448 958T370 873T325 735T311 545Q311 327 370 219T565 111Z" />
<glyph unicode="r" glyph-name="r" horiz-adv-x="965" d="M659 0H68V86H74Q109 86 139 91T192 111T228 156T242 233V872Q242 917 229 944T192 987T139 1007T74 1012H68V1098H383L422 895H432Q452 941 473 981T524 1052T600 1100T713 1118Q825 1118 879 1079T934
969Q934 937 924 910T890 864T831 834T743 823Q743 908 719 945T635 983Q597 983 567 962T515 905T477 823T452 729T438 632T434 545V223Q434 178 447 151T484 109T537 91T602 86H659V0Z" />
<glyph unicode="s" glyph-name="s" horiz-adv-x="924" d="M430 -20Q353 -20 291 -7T184 34T116 102T92 197Q92 238 105 265T138 309T180 331T221 338Q221 284 232 237T269 155T337 99T442 78Q497 78 539 91T609 129T653 188T668 264Q668 302 657 329T617 381T539
430T416 487Q337 522 279 554T182 625T125 711T106 827Q106 897 133 951T212 1041T334 1097T492 1116Q565 1116 621 1101T715 1061T772 1001T791 928Q791 872 753 839T643 805Q643 908 601 965T467 1022Q415 1022 378 1010T318 976T283 924T272 858Q272 819 286
791T330 738T409 692T526 641Q607 607 665 574T760 502T816 414T834 301Q834 221 805 161T723 61T596 0T430 -20Z" />
<glyph unicode="t" glyph-name="t" horiz-adv-x="721" d="M543 88Q580 88 611 92T674 102V12Q661 6 640 0T595 -10T543 -17T492 -20Q414 -20 358 -4T266 50T213 148T195 297V981H39V1063Q76 1063 120 1078T199 1128Q234 1166 255 1218T293 1350H387V1098H655V981H387V291Q387
186 429 137T543 88Z" />
<glyph unicode="u" glyph-name="u" horiz-adv-x="1300" d="M1079 223Q1079 178 1092 151T1129 109T1182 91T1247 86H1253V0H928L901 166H891Q860 108 823 72T743 16T655 -12T559 -20Q478 -20 415 3T309 75T244 200T221 381V872Q221 917 208 944T171 987T118 1007T53
1012H47V1098H414V391Q414 324 424 272T459 184T525 130T629 111Q697 111 745 135T825 202T872 307T887 442V864Q887 912 874 941T838 986T785 1007T719 1012H713V1098H1079V223Z" />
<glyph unicode="v" glyph-name="v" horiz-adv-x="1186" d="M8 1012V1098H520V1012H494Q432 1012 402 988T371 913Q371 896 375 879T387 838L526 451Q539 415 553 372T579 286T602 207T616 143H623Q628 165 639 197T665 268T695 347T725 424L872 823Q882 848 886
871T891 911Q891 964 858 988T756 1012H741V1098H1180V1012H1155Q1125 1012 1104 1006T1066 981T1034 932T999 852L676 0H489L160 903Q148 935 135 956T105 989T66 1007T14 1012H8Z" />
<glyph unicode="w" glyph-name="w" horiz-adv-x="1765" d="M975 1092L1180 485Q1192 448 1205 406T1231 322T1253 243T1268 180H1274Q1283 231 1303 305T1354 479L1456 809Q1464 835 1469 864T1475 911Q1475 964 1442 988T1339 1012H1325V1098H1763V1012H1737Q1707
1012 1685 1006T1646 983T1613 934T1583 852L1319 0H1155L911 721L874 856L584 0H422L154 903Q142 935 129 956T99 989T60 1007T8 1012H2V1098H508V1012H481Q420 1012 389 994T358 926Q358 909 363 885T375 838L471 494Q481 457 492 413T512 326T530 244T543 180H549Q554
206 562 240T582 314T607 395T633 473L846 1092H975Z" />
<glyph unicode="x" glyph-name="x" horiz-adv-x="1184" d="M786 952Q786 989 755 1000T676 1012H670V1098H1118V1012H1100Q1070 1012 1046 1007T998 988T949 948T893 881L682 600L983 195Q1028 135 1068 111T1147 86H1174V0H645V86H655Q778 86 778 154Q778 165
775 176T763 203T739 241T700 295L563 479L420 279Q411 267 401 251T383 218T370 184T365 150Q365 115 394 101T492 86H498V0H10V86H29Q66 86 94 92T147 113T197 153T252 217L510 551L252 903Q207 956 165 984T76 1012H49V1098H569V1012H563Q528 1012 505 1008T469
995T451 975T446 952Q446 931 458 911T494 858L629 674L735 827Q758 862 772 893T786 952Z" />
<glyph unicode="y" glyph-name="y" horiz-adv-x="1157" d="M1157 1098V1012H1151Q1121 1012 1100 1006T1061 981T1028 932T995 852L684 -8Q648 -107 616 -182T549 -310T473 -399T378 -455T256 -484T96 -492H78V-395Q182 -395 257 -364T386 -279T477 -152T539 8L160
903Q146 935 133 955T104 989T66 1007T14 1012H8V1098H500V1012H494Q432 1012 402 988T371 913Q371 896 374 879T387 838L537 473Q551 438 566 397T595 315T620 238T635 176H641Q652 221 671 285T717 424L854 823Q863 848 867 871T872 911Q872 964 839 988T737
1012H731V1098H1157Z" />
<glyph unicode="z" glyph-name="z" horiz-adv-x="1047" d="M696 117Q732 117 755 131T794 168T819 221T836 285L846 332H932L922 0H86V82L680 981H360Q320 981 294 971T252 939T225 887T203 815L201 807H115L135 1098H920V1014L324 117H696Z" />
<glyph unicode="{" glyph-name="braceleft" horiz-adv-x="877" d="M639 -262Q567 -262 512 -241T419 -182T363 -90T344 33V389Q344 452 326 493T274 558T197 593T102 606V692Q153 694 197 704T274 738T325 804T344 907V1264Q344 1404 418 1480T639 1556H774V1468H713Q622
1468 584 1414T545 1253V903Q545 803 489 737T317 651V649Q435 629 490 563T545 395V41Q545 -64 583 -119T713 -174H774V-262H639Z" />
<glyph unicode="|" glyph-name="bar" horiz-adv-x="1145" d="M633 -492H510V1556H633V-492Z" />
<glyph unicode="}" glyph-name="braceright" horiz-adv-x="877" d="M102 -174H164Q255 -174 293 -119T332 41V395Q332 497 386 563T559 649V651Q445 670 389 736T332 903V1253Q332 1360 294 1414T164 1468H102V1556H238Q383 1556 457 1480T532 1264V907Q532 845
551 804T602 739T679 704T774 692V606Q723 604 679 594T603 559T551 493T532 389V33Q532 -35 513 -89T457 -182T365 -241T238 -262H102V-174Z" />
<glyph unicode="~" glyph-name="asciitilde" horiz-adv-x="1149" d="M776 551Q746 551 714 563T651 595T591 636T539 680Q516 701 494 720T451 755T407 779T362 788Q302 788 273 730T233 551H113Q119 615 131 679T172 794T247 877T371 909Q405 909 439 896T505
863T565 819T618 774Q640 754 661 736T702 703T744 681T786 672Q843 672 870 733T911 909H1034Q1027 845 1013 781T971 666T896 583T776 551Z" />
<glyph unicode="&#xa0;" glyph-name="uni00A0" horiz-adv-x="532" />
<glyph unicode="&#xa1;" glyph-name="exclamdown" horiz-adv-x="682" d="M459 -367H221L293 684H387L459 -367ZM469 971Q469 931 459 904T432 861T391 838T340 831Q314 831 291 838T250 861T222 904T211 971Q211 1010 221 1036T249 1079T290 1103T340 1110Q367
1110 390 1103T431 1080T459 1037T469 971Z" />
<glyph unicode="&#xa2;" glyph-name="cent" horiz-adv-x="1145" d="M584 180Q491 190 414 225T280 327T193 495T162 739Q162 891 195 997T285 1170T419 1271T584 1313V1462H686V1313Q745 1308 804 1294T910 1254T986 1191T1016 1106Q1016 1035 971 1006T834 977Q834
1019 825 1057T798 1126T752 1178T686 1206V297Q728 297 770 303T852 318T925 339T983 362V250Q930 222 854 200T686 176V0H584V180ZM360 741Q360 558 414 449T584 309V1206Q535 1197 494 1169T423 1086T377 947T360 741Z" />
<glyph unicode="&#xa3;" glyph-name="sterling" horiz-adv-x="1145" d="M500 690Q515 639 528 586T541 471Q541 383 492 316T360 193L365 184Q407 204 443 212T514 221Q555 221 604 209T701 182T794 155T870 143Q906 143 936 153T994 181T1043 219T1085 264V131Q1067
106 1042 79T984 30T910 -6T817 -20Q766 -20 717 -6T618 26T517 57T410 72Q342 72 283 53T158 2L131 -10V98L168 121Q206 144 243 176T311 251T360 346T379 459Q379 519 364 576T328 690H100V786H289Q275 818 261 857T236 938T218 1025T211 1112Q211 1200 240 1269T323
1385T454 1458T629 1483Q728 1483 797 1466T909 1417T971 1344T991 1253Q991 1187 948 1154T829 1120Q829 1168 821 1214T790 1297T727 1357T621 1380Q502 1380 447 1312T391 1116Q391 1068 399 1022T419 934T445 854T471 786H819V690H500Z" />
<glyph unicode="&#xa4;" glyph-name="currency" horiz-adv-x="1145" d="M197 733Q197 795 214 850T266 952L131 1087L217 1174L350 1038Q397 1072 452 1091T571 1110Q631 1110 686 1091T788 1038L926 1176L1012 1087L877 952Q911 906 929 851T948 733Q948 671
930 616T877 514L1012 379L928 293L791 428Q744 396 689 377T571 358Q509 358 454 376T352 428L217 293L131 379L264 514Q232 560 215 615T197 733ZM311 733Q311 679 331 632T387 549T470 492T571 471Q627 471 675 492T758 548T813 631T834 733Q834 789 814 837T758
920T675 976T571 997Q517 997 470 977T388 921T332 837T311 733Z" />
<glyph unicode="&#xa5;" glyph-name="yen" horiz-adv-x="1145" d="M264 0V86H311Q345 86 375 90T427 109T463 150T479 223V362H193V459H479V602H193V698H440L162 1268Q147 1298 134 1318T105 1352T67 1370T16 1376H10V1462H508V1376H494Q432 1376 405 1357T377
1296Q377 1272 385 1242T410 1176L508 958Q523 926 537 889T563 816T586 749T602 698Q606 709 615 730T635 777T659 829T682 877L799 1126Q823 1180 835 1225T848 1294Q848 1336 820 1356T723 1376H717V1462H1135V1376H1116Q1090 1376 1071 1369T1036 1344T1002
1295T961 1217L711 698H965V602H678V459H965V362H678V233Q678 185 691 156T727 112T780 91T846 86H893V0H264Z" />
<glyph unicode="&#xa6;" glyph-name="brokenbar" horiz-adv-x="1145" d="M633 737H510V1556H633V737ZM633 -492H510V328H633V-492Z" />
<glyph unicode="&#xa7;" glyph-name="section" horiz-adv-x="1114" d="M598 795Q524 830 460 864T342 940Q320 920 306 892T291 823Q291 782 305 750T353 686T444 621T590 545Q652 514 712 483T821 408Q838 432 849 461T860 524Q860 559 850 590T812 653T732 719T598
795ZM571 -133Q697 -133 759 -78T821 72Q821 117 810 150T762 217T653 291T461 391Q380 431 323 472T229 560T177 658T160 772Q160 849 194 906T281 1001Q243 1046 224 1101T205 1231Q205 1309 233 1369T312 1471T431 1534T582 1556Q666 1556 728 1539T832 1491T894
1418T915 1327Q915 1261 876 1232T770 1202Q770 1250 760 1295T727 1375T666 1432T573 1454Q471 1454 415 1403T358 1255Q358 1201 378 1165T439 1099T539 1041T676 975Q763 933 826 891T930 804T990 707T1010 596Q1010 559 1000 523T972 453T933 390T887 336Q916
296 933 246T950 133Q950 52 928 -15T858 -130T736 -206T557 -233Q478 -233 414 -218T303 -172T232 -98T207 4Q207 46 220 73T253 117T295 140T336 147Q336 93 349 43T391 -47T464 -109T571 -133Z" />
<glyph unicode="&#xa8;" glyph-name="dieresis" horiz-adv-x="1182" d="M291 1409Q291 1441 299 1463T321 1498T354 1518T395 1524Q417 1524 436 1518T469 1499T492 1463T500 1409Q500 1378 492 1356T470 1320T436 1300T395 1294Q350 1294 321 1320T291 1409ZM680
1409Q680 1441 688 1463T710 1498T743 1518T784 1524Q806 1524 825 1518T858 1499T881 1463T889 1409Q889 1378 881 1356T859 1320T825 1300T784 1294Q739 1294 710 1320T680 1409Z" />
<glyph unicode="&#xa9;" glyph-name="copyright" horiz-adv-x="1731" d="M901 365Q948 365 988 377T1060 409T1115 454T1153 504Q1165 495 1173 479T1182 440Q1182 412 1163 383T1105 330T1009 291T874 276Q772 276 696 309T568 402T491 546T465 733Q465 833 493
916T576 1059T713 1152T903 1186Q974 1186 1026 1175T1114 1144T1166 1098T1184 1040Q1184 1018 1173 1000T1143 970T1099 951T1044 944Q1044 973 1037 1000T1012 1050T968 1086T899 1100Q827 1100 777 1076T694 1005T648 890T633 733Q633 556 702 461T901 365ZM113
731Q113 835 140 931T215 1111T332 1264T484 1382T664 1458T864 1485Q968 1485 1064 1458T1244 1382T1397 1264T1515 1112T1591 932T1618 731Q1618 627 1591 531T1515 352T1397 200T1245 82T1065 7T864 -20Q760 -20 664 6T485 82T333 199T216 351T140 531T113 731ZM225
731Q225 643 248 562T312 409T412 280T542 180T694 115T864 92Q953 92 1035 115T1188 179T1317 279T1417 409T1482 561T1505 731Q1505 819 1482 901T1418 1054T1318 1184T1188 1284T1035 1349T864 1372Q776 1372 695 1349T542 1285T413 1185T313 1055T248 902T225
731Z" />
<glyph unicode="&#xaa;" glyph-name="ordfeminine" horiz-adv-x="782" d="M250 985Q250 921 277 897T344 872Q378 872 405 884T450 918T479 970T489 1036V1133L426 1130Q376 1129 343 1119T289 1090T259 1045T250 985ZM387 1397Q356 1397 337 1386T308 1356T293
1312T289 1257Q211 1257 169 1277T127 1346Q127 1381 148 1405T205 1444T289 1466T391 1473Q459 1473 509 1461T592 1423T642 1354T659 1251V940Q659 894 678 877T748 860V791H549L512 885H502Q484 865 463 846T415 811T356 787T285 778Q186 778 129 831T72 987Q72
1089 153 1137T401 1194L489 1198V1257Q489 1288 486 1313T472 1357T441 1386T387 1397Z" />
<glyph unicode="&#xab;" glyph-name="guillemotleft" horiz-adv-x="1053" d="M133 586L446 942H549L342 553L549 164H446L133 520V586ZM504 586L817 942H920L713 553L920 164H817L504 520V586Z" />
<glyph unicode="&#xac;" glyph-name="logicalnot" horiz-adv-x="1145" d="M1012 793V252H889V672H133V793H1012Z" />
<glyph unicode="&#xad;" glyph-name="uni00AD" horiz-adv-x="635" d="M51 481V635H584V481H51Z" />
<glyph unicode="&#xae;" glyph-name="registered" horiz-adv-x="1731" d="M477 358H504Q524 358 542 360T573 370T595 392T604 430V1030Q603 1054 595 1068T574 1090T542 1100T504 1102H477V1174H846Q1198 1174 1198 930Q1198 881 1182 844T1140 780T1081 735T1012
705L1194 412Q1204 395 1213 385T1236 368T1266 360T1309 358V289H1092L866 670H758V430Q760 406 768 392T789 371T820 361T858 358H887V289H477V358ZM758 748H844Q899 748 936 759T995 792T1026 848T1036 928Q1036 973 1025 1005T991 1056T930 1085T838 1094H758V748ZM113
731Q113 835 140 931T215 1111T332 1264T484 1382T664 1458T864 1485Q968 1485 1064 1458T1244 1382T1397 1264T1515 1112T1591 932T1618 731Q1618 627 1591 531T1515 352T1397 200T1245 82T1065 7T864 -20Q760 -20 664 6T485 82T333 199T216 351T140 531T113 731ZM225
731Q225 643 248 562T312 409T412 280T542 180T694 115T864 92Q953 92 1035 115T1188 179T1317 279T1417 409T1482 561T1505 731Q1505 819 1482 901T1418 1054T1318 1184T1188 1284T1035 1349T864 1372Q776 1372 695 1349T542 1285T413 1185T313 1055T248 902T225
731Z" />
<glyph unicode="&#xaf;" glyph-name="overscore" horiz-adv-x="940" d="M950 1556H-10V1677H950V1556Z" />
<glyph unicode="&#xb0;" glyph-name="degree" horiz-adv-x="819" d="M98 1151Q98 1216 122 1272T189 1371T287 1437T408 1462Q473 1462 529 1438T628 1371T694 1273T719 1151Q719 1087 695 1031T628 932T530 866T408 842Q344 842 288 866T189 932T123 1030T98
1151ZM221 1151Q221 1113 235 1079T275 1019T335 978T408 963Q448 963 482 978T541 1018T581 1078T596 1151Q596 1191 582 1225T542 1285T482 1326T408 1341Q369 1341 335 1326T276 1286T236 1226T221 1151Z" />
<glyph unicode="&#xb1;" glyph-name="plusminus" horiz-adv-x="1145" d="M633 672V293H510V672H133V793H510V1171H633V793H1012V672H633ZM1012 0H133V121H1012V0Z" />
<glyph unicode="&#xb2;" glyph-name="uni00B2" horiz-adv-x="819" d="M690 1262Q690 1214 679 1172T642 1088T574 1001T467 901L250 715H547Q594 715 612 740T637 799L645 842H715L709 586H86V678L346 911Q391 952 422 994T471 1078T498 1163T506 1245Q506 1279
500 1307T479 1357T441 1389T385 1401Q348 1401 322 1387T280 1348T257 1291T250 1223Q181 1223 142 1240T102 1311Q102 1348 120 1379T173 1434T262 1470T385 1483Q528 1483 609 1427T690 1262Z" />
<glyph unicode="&#xb3;" glyph-name="uni00B3" horiz-adv-x="819" d="M356 573Q222 573 152 619T82 741Q82 786 107 814T176 842Q176 810 186 779T218 722T272 682T350 666Q435 666 483 707T532 844Q532 916 480 958T315 1001H248V1085H315Q354 1085 387 1097T445
1133T484 1188T498 1262Q498 1330 471 1365T381 1401Q342 1401 316 1387T275 1348T253 1291T246 1223Q211 1223 183 1226T135 1240T105 1267T94 1311Q94 1348 112 1379T167 1434T257 1470T381 1483Q449 1483 505 1469T601 1429T662 1366T684 1280Q684 1235 667
1200T622 1137T555 1091T475 1059V1049Q516 1042 559 1030T637 994T696 935T719 842Q719 767 686 716T599 633T482 587T356 573Z" />
<glyph unicode="&#xb4;" glyph-name="acute" horiz-adv-x="1182" d="M391 1268Q414 1297 438 1335T486 1413T531 1494T569 1569H788V1548Q769 1521 732 1481T650 1396T558 1311T469 1241H391V1268Z" />
<glyph unicode="&#xb5;" glyph-name="uni00B5" horiz-adv-x="1260" d="M569 -20Q483 -20 422 11T319 100Q321 15 326 -57T347 -183T396 -270T485 -313Q485 -352 477 -384T451 -441T406 -478T342 -492Q310 -492 280 -480T227 -440T190 -364T176 -248Q176 -187 179
-117T187 39T195 229T201 461V1098H393V410Q393 343 403 288T436 194T499 133T598 111Q655 111 701 135T779 202T828 307T846 442V1098H1038V264Q1038 219 1050 186T1080 130T1122 97T1167 86H1174V0H1063Q979 0 931 41T864 164H856Q832 123 805 89T743 31T666
-6T569 -20Z" />
<glyph unicode="&#xb6;" glyph-name="paragraph" horiz-adv-x="1264" d="M860 1452H666V-227H346V-141H373Q408 -141 438 -136T491 -116T527 -71T541 6V791H395Q305 791 245 823T149 911T98 1039T82 1192Q82 1274 99 1341T154 1456T252 1530T399 1556H1180V1470H1153Q1119
1470 1088 1465T1035 1445T999 1400T985 1323V6Q985 -42 998 -71T1034 -115T1088 -136T1153 -141H1180V-227H860V1452Z" />
<glyph unicode="&#xb7;" glyph-name="middot" horiz-adv-x="586" d="M166 729Q166 769 176 796T203 839T244 861T295 868Q321 868 344 862T385 839T413 796T424 729Q424 690 414 664T386 621T345 597T295 590Q268 590 245 597T204 620T176 663T166 729Z" />
<glyph unicode="&#xb8;" glyph-name="cedilla" horiz-adv-x="682" d="M551 -258Q551 -367 482 -429T281 -492Q265 -492 245 -491T204 -486T162 -479T123 -469V-365Q160 -373 197 -377T262 -381Q321 -381 354 -350T387 -266Q387 -206 344 -176T233 -141L276 18H373L352
-70Q452 -78 501 -127T551 -258Z" />
<glyph unicode="&#xb9;" glyph-name="uni00B9" horiz-adv-x="819" d="M145 588V657H240Q258 657 273 659T299 670T317 693T324 735V1325H133V1395H236Q259 1395 285 1398T335 1410T378 1434T406 1473H508V735Q508 709 515 694T533 670T560 660T594 657H688V588H145Z" />
<glyph unicode="&#xba;" glyph-name="ordmasculine" horiz-adv-x="813" d="M250 1126Q250 993 285 927T408 860Q494 860 529 926T565 1126Q565 1257 529 1321T406 1386Q320 1386 285 1322T250 1126ZM741 1126Q741 950 656 864T406 778Q248 778 160 864T72 1126Q72
1302 157 1387T410 1473Q487 1473 548 1452T652 1387T718 1279T741 1126Z" />
<glyph unicode="&#xbb;" glyph-name="guillemotright" horiz-adv-x="1053" d="M920 520L606 164H504L711 553L504 942H606L920 586V520ZM549 520L236 164H133L340 553L133 942H236L549 586V520Z" />
<glyph unicode="&#xbc;" glyph-name="onequarter" horiz-adv-x="1720" d="M316 588V657H411Q429 657 444 659T470 670T488 693T495 735V1325H304V1395H407Q430 1395 456 1398T506 1410T549 1434T577 1473H679V735Q679 709 686 694T704 670T731 660T765 657H859V588H316ZM566
0H430L1161 1462H1295L566 0ZM1477 261V148Q1477 122 1484 107T1503 83T1530 73T1563 70H1604V1H1153V70H1210Q1227 70 1242 72T1268 83T1287 106T1294 148V261H930V322L1313 886H1477V349H1673V261H1477ZM1294 580Q1294 612 1297 653T1305 732Q1297 715 1288 698T1274
673L1051 349H1294V580Z" />
<glyph unicode="&#xbd;" glyph-name="onehalf" horiz-adv-x="1720" d="M316 588V657H411Q429 657 444 659T470 670T488 693T495 735V1325H304V1395H407Q430 1395 456 1398T506 1410T549 1434T577 1473H679V735Q679 709 686 694T704 670T731 660T765 657H859V588H316ZM525
0H389L1120 1462H1254L525 0ZM1620 677Q1620 629 1609 587T1572 503T1504 416T1397 316L1180 130H1477Q1524 130 1542 155T1567 214L1575 257H1645L1639 1H1016V93L1276 326Q1321 367 1352 409T1401 493T1428 578T1436 660Q1436 694 1430 722T1409 772T1371 804T1315
816Q1278 816 1252 802T1210 763T1187 706T1180 638Q1111 638 1072 655T1032 726Q1032 763 1050 794T1103 849T1192 885T1315 898Q1458 898 1539 842T1620 677Z" />
<glyph unicode="&#xbe;" glyph-name="threequarters" horiz-adv-x="1720" d="M356 573Q222 573 152 619T82 741Q82 786 107 814T176 842Q176 810 186 779T218 722T272 682T350 666Q435 666 483 707T532 844Q532 916 480 958T315 1001H248V1085H315Q354 1085 387
1097T445 1133T484 1188T498 1262Q498 1330 471 1365T381 1401Q342 1401 316 1387T275 1348T253 1291T246 1223Q211 1223 183 1226T135 1240T105 1267T94 1311Q94 1348 112 1379T167 1434T257 1470T381 1483Q449 1483 505 1469T601 1429T662 1366T684 1280Q684
1235 667 1200T622 1137T555 1091T475 1059V1049Q516 1042 559 1030T637 994T696 935T719 842Q719 767 686 716T599 633T482 587T356 573ZM607 0H471L1202 1462H1336L607 0ZM1477 261V148Q1477 122 1484 107T1503 83T1530 73T1563 70H1604V1H1153V70H1210Q1227
70 1242 72T1268 83T1287 106T1294 148V261H930V322L1313 886H1477V349H1673V261H1477ZM1294 580Q1294 612 1297 653T1305 732Q1297 715 1288 698T1274 673L1051 349H1294V580Z" />
<glyph unicode="&#xbf;" glyph-name="questiondown" horiz-adv-x="1024" d="M502 682H627V371Q538 335 478 287T381 184T329 69T313 -53Q313 -106 326 -149T366 -224T435 -272T537 -289Q601 -289 644 -268T715 -211T754 -128T766 -27Q803 -27 834 -35T887 -60T923
-102T936 -160Q936 -209 914 -251T844 -323T724 -371T553 -389Q456 -389 374 -364T232 -292T138 -175T104 -18Q104 66 130 135T208 262T333 365T502 451V682ZM696 969Q696 929 686 902T659 859T618 836T567 829Q541 829 518 836T477 859T449 902T438 969Q438 1008
448 1034T476 1077T517 1101T567 1108Q594 1108 617 1101T658 1078T686 1035T696 969Z" />
<glyph unicode="&#xc0;" glyph-name="Agrave" horiz-adv-x="1444" d="M414 489L336 274Q327 250 322 227T317 186Q317 134 350 110T453 86H500V0H0V86H39Q69 86 90 92T128 117T160 166T195 246L649 1462H809L1272 195Q1284 163 1296 142T1326 109T1365 91T1417
86H1444V0H881V86H928Q1051 86 1051 184Q1051 201 1047 219T1034 260L952 489H414ZM788 950Q756 1041 730 1120T686 1274Q679 1237 670 1203T649 1132T624 1057T592 969L453 592H915L788 950ZM805 1579H727Q686 1607 638 1648T545 1734T463 1818T407 1886V1907H626Q642
1873 663 1833T709 1752T758 1673T805 1606V1579Z" />
<glyph unicode="&#xc1;" glyph-name="Aacute" horiz-adv-x="1444" d="M414 489L336 274Q327 250 322 227T317 186Q317 134 350 110T453 86H500V0H0V86H39Q69 86 90 92T128 117T160 166T195 246L649 1462H809L1272 195Q1284 163 1296 142T1326 109T1365 91T1417
86H1444V0H881V86H928Q1051 86 1051 184Q1051 201 1047 219T1034 260L952 489H414ZM788 950Q756 1041 730 1120T686 1274Q679 1237 670 1203T649 1132T624 1057T592 969L453 592H915L788 950ZM637 1606Q660 1635 684 1673T732 1751T777 1832T815 1907H1034V1886Q1015
1859 978 1819T896 1734T804 1649T715 1579H637V1606Z" />
<glyph unicode="&#xc2;" glyph-name="Acircumflex" horiz-adv-x="1444" d="M414 489L336 274Q327 250 322 227T317 186Q317 134 350 110T453 86H500V0H0V86H39Q69 86 90 92T128 117T160 166T195 246L649 1462H809L1272 195Q1284 163 1296 142T1326 109T1365 91T1417
86H1444V0H881V86H928Q1051 86 1051 184Q1051 201 1047 219T1034 260L952 489H414ZM788 950Q756 1041 730 1120T686 1274Q679 1237 670 1203T649 1132T624 1057T592 969L453 592H915L788 950ZM422 1606Q446 1635 475 1673T532 1751T586 1832T627 1907H821Q837 1873
862 1833T915 1752T973 1673T1026 1606V1579H946Q887 1613 828 1663T723 1763Q676 1714 618 1664T502 1579H422V1606Z" />
<glyph unicode="&#xc3;" glyph-name="Atilde" horiz-adv-x="1444" d="M414 489L336 274Q327 250 322 227T317 186Q317 134 350 110T453 86H500V0H0V86H39Q69 86 90 92T128 117T160 166T195 246L649 1462H809L1272 195Q1284 163 1296 142T1326 109T1365 91T1417
86H1444V0H881V86H928Q1051 86 1051 184Q1051 201 1047 219T1034 260L952 489H414ZM788 950Q756 1041 730 1120T686 1274Q679 1237 670 1203T649 1132T624 1057T592 969L453 592H915L788 950ZM895 1712Q925 1712 943 1721T972 1745T987 1780T995 1821H1087Q1084
1774 1071 1731T1031 1653T966 1599T872 1579Q817 1579 773 1599T690 1643T618 1688T551 1708Q520 1708 502 1699T474 1675T458 1641T450 1600H358Q361 1647 374 1690T414 1767T480 1821T575 1841Q630 1841 674 1821T757 1777T829 1732T895 1712Z" />
<glyph unicode="&#xc4;" glyph-name="Adieresis" horiz-adv-x="1444" d="M414 489L336 274Q327 250 322 227T317 186Q317 134 350 110T453 86H500V0H0V86H39Q69 86 90 92T128 117T160 166T195 246L649 1462H809L1272 195Q1284 163 1296 142T1326 109T1365 91T1417
86H1444V0H881V86H928Q1051 86 1051 184Q1051 201 1047 219T1034 260L952 489H414ZM788 950Q756 1041 730 1120T686 1274Q679 1237 670 1203T649 1132T624 1057T592 969L453 592H915L788 950ZM424 1747Q424 1779 432 1801T454 1836T487 1856T528 1862Q550 1862
569 1856T602 1837T625 1801T633 1747Q633 1716 625 1694T603 1658T569 1638T528 1632Q483 1632 454 1658T424 1747ZM813 1747Q813 1779 821 1801T843 1836T876 1856T917 1862Q939 1862 958 1856T991 1837T1014 1801T1022 1747Q1022 1716 1014 1694T992 1658T958
1638T917 1632Q872 1632 843 1658T813 1747Z" />
<glyph unicode="&#xc5;" glyph-name="Aring" horiz-adv-x="1444" d="M414 489L336 274Q327 250 322 227T317 186Q317 134 350 110T453 86H500V0H0V86H39Q69 86 90 92T128 117T160 166T195 246L649 1462H809L1272 195Q1284 163 1296 142T1326 109T1365 91T1417
86H1444V0H881V86H928Q1051 86 1051 184Q1051 201 1047 219T1034 260L952 489H414ZM788 950Q756 1041 730 1120T686 1274Q679 1237 670 1203T649 1132T624 1057T592 969L453 592H915L788 950ZM971 1585Q971 1530 952 1489T900 1419T821 1377T725 1362Q674 1362
629 1376T551 1419T498 1488T479 1585Q479 1639 498 1681T550 1751T629 1793T725 1808Q776 1808 821 1794T899 1751T952 1681T971 1585ZM860 1585Q860 1618 850 1641T821 1679T778 1701T725 1708Q697 1708 673 1701T630 1680T601 1642T590 1585Q590 1552 600 1529T629
1491T672 1469T725 1462Q753 1462 777 1469T820 1490T849 1528T860 1585Z" />
<glyph unicode="&#xc6;" glyph-name="AE" horiz-adv-x="1948" d="M1151 102H1546Q1594 102 1628 115T1686 152T1722 205T1741 270L1755 358H1862L1847 0H750V86H776Q810 86 840 90T892 109T929 150T944 223V489H473L360 274Q343 242 336 213T328 166Q328 124 359
105T451 86H498V0H0V86H33Q87 86 129 124T215 246L807 1366L647 1376V1462H1782L1792 1104H1686L1675 1192Q1671 1226 1660 1256T1628 1308T1574 1345T1495 1360H1151V815H1645V715H1151V102ZM890 1304T849 1221T757 1038T646 823T526 592H944V1360H915Q890 1304
849 1221Z" />
<glyph unicode="&#xc7;" glyph-name="Ccedilla" horiz-adv-x="1257" d="M774 1483Q879 1483 956 1466T1085 1417T1162 1344T1188 1253Q1188 1220 1175 1194T1137 1149T1081 1120T1010 1110Q1010 1158 998 1205T957 1289T883 1350T770 1374Q654 1374 573 1332T441
1208T367 1007T344 733Q344 596 368 482T444 287T576 160T770 115Q845 115 902 129T1004 168T1081 223T1141 289Q1158 278 1169 259T1180 209Q1180 170 1154 130T1073 56T936 2T739 -20Q586 -20 470 34T276 187T157 425T117 733Q117 899 159 1037T283 1274T489
1428T774 1483ZM942 -258Q942 -367 873 -429T672 -492Q656 -492 636 -491T595 -486T553 -479T514 -469V-365Q551 -373 588 -377T653 -381Q712 -381 745 -350T778 -266Q778 -206 735 -176T624 -141L667 18H764L743 -70Q843 -78 892 -127T942 -258Z" />
<glyph unicode="&#xc8;" glyph-name="Egrave" horiz-adv-x="1276" d="M479 102H874Q923 102 957 115T1015 152T1051 205T1069 270L1083 358H1190L1176 0H78V86H104Q138 86 168 90T222 109T258 150T272 223V1229Q272 1277 259 1306T223 1350T170 1371T104 1376H78V1462H1110L1120
1104H1014L1004 1192Q1000 1226 989 1256T956 1310T902 1346T823 1360H479V815H973V715H479V102ZM743 1579H665Q624 1607 576 1648T483 1734T401 1818T345 1886V1907H564Q580 1873 601 1833T647 1752T696 1673T743 1606V1579Z" />
<glyph unicode="&#xc9;" glyph-name="Eacute" horiz-adv-x="1276" d="M479 102H874Q923 102 957 115T1015 152T1051 205T1069 270L1083 358H1190L1176 0H78V86H104Q138 86 168 90T222 109T258 150T272 223V1229Q272 1277 259 1306T223 1350T170 1371T104 1376H78V1462H1110L1120
1104H1014L1004 1192Q1000 1226 989 1256T956 1310T902 1346T823 1360H479V815H973V715H479V102ZM545 1606Q568 1635 592 1673T640 1751T685 1832T723 1907H942V1886Q923 1859 886 1819T804 1734T712 1649T623 1579H545V1606Z" />
<glyph unicode="&#xca;" glyph-name="Ecircumflex" horiz-adv-x="1276" d="M479 102H874Q923 102 957 115T1015 152T1051 205T1069 270L1083 358H1190L1176 0H78V86H104Q138 86 168 90T222 109T258 150T272 223V1229Q272 1277 259 1306T223 1350T170 1371T104
1376H78V1462H1110L1120 1104H1014L1004 1192Q1000 1226 989 1256T956 1310T902 1346T823 1360H479V815H973V715H479V102ZM350 1606Q374 1635 403 1673T460 1751T514 1832T555 1907H749Q765 1873 790 1833T843 1752T901 1673T954 1606V1579H874Q815 1613 756 1663T651
1763Q604 1714 546 1664T430 1579H350V1606Z" />
<glyph unicode="&#xcb;" glyph-name="Edieresis" horiz-adv-x="1276" d="M479 102H874Q923 102 957 115T1015 152T1051 205T1069 270L1083 358H1190L1176 0H78V86H104Q138 86 168 90T222 109T258 150T272 223V1229Q272 1277 259 1306T223 1350T170 1371T104 1376H78V1462H1110L1120
1104H1014L1004 1192Q1000 1226 989 1256T956 1310T902 1346T823 1360H479V815H973V715H479V102ZM342 1747Q342 1779 350 1801T372 1836T405 1856T446 1862Q468 1862 487 1856T520 1837T543 1801T551 1747Q551 1716 543 1694T521 1658T487 1638T446 1632Q401 1632
372 1658T342 1747ZM731 1747Q731 1779 739 1801T761 1836T794 1856T835 1862Q857 1862 876 1856T909 1837T932 1801T940 1747Q940 1716 932 1694T910 1658T876 1638T835 1632Q790 1632 761 1658T731 1747Z" />
<glyph unicode="&#xcc;" glyph-name="Igrave" horiz-adv-x="752" d="M78 0V86H104Q139 86 169 91T223 111T259 156T272 233V1229Q272 1277 259 1306T223 1350T170 1371T104 1376H78V1462H674V1376H647Q613 1376 582 1371T529 1351T493 1306T479 1229V233Q479 185
492 156T528 112T582 91T647 86H674V0H78ZM473 1579H395Q354 1607 306 1648T213 1734T131 1818T75 1886V1907H294Q310 1873 331 1833T377 1752T426 1673T473 1606V1579Z" />
<glyph unicode="&#xcd;" glyph-name="Iacute" horiz-adv-x="752" d="M78 0V86H104Q139 86 169 91T223 111T259 156T272 233V1229Q272 1277 259 1306T223 1350T170 1371T104 1376H78V1462H674V1376H647Q613 1376 582 1371T529 1351T493 1306T479 1229V233Q479 185
492 156T528 112T582 91T647 86H674V0H78ZM271 1606Q294 1635 318 1673T366 1751T411 1832T449 1907H668V1886Q649 1859 612 1819T530 1734T438 1649T349 1579H271V1606Z" />
<glyph unicode="&#xce;" glyph-name="Icircumflex" horiz-adv-x="752" d="M78 0V86H104Q139 86 169 91T223 111T259 156T272 233V1229Q272 1277 259 1306T223 1350T170 1371T104 1376H78V1462H674V1376H647Q613 1376 582 1371T529 1351T493 1306T479 1229V233Q479
185 492 156T528 112T582 91T647 86H674V0H78ZM73 1606Q97 1635 126 1673T183 1751T237 1832T278 1907H472Q488 1873 513 1833T566 1752T624 1673T677 1606V1579H597Q538 1613 479 1663T374 1763Q327 1714 269 1664T153 1579H73V1606Z" />
<glyph unicode="&#xcf;" glyph-name="Idieresis" horiz-adv-x="752" d="M78 0V86H104Q139 86 169 91T223 111T259 156T272 233V1229Q272 1277 259 1306T223 1350T170 1371T104 1376H78V1462H674V1376H647Q613 1376 582 1371T529 1351T493 1306T479 1229V233Q479
185 492 156T528 112T582 91T647 86H674V0H78ZM73 1747Q73 1779 81 1801T103 1836T136 1856T177 1862Q199 1862 218 1856T251 1837T274 1801T282 1747Q282 1716 274 1694T252 1658T218 1638T177 1632Q132 1632 103 1658T73 1747ZM462 1747Q462 1779 470 1801T492
1836T525 1856T566 1862Q588 1862 607 1856T640 1837T663 1801T671 1747Q671 1716 663 1694T641 1658T607 1638T566 1632Q521 1632 492 1658T462 1747Z" />
<glyph unicode="&#xd0;" glyph-name="Eth" horiz-adv-x="1489" d="M78 815H272V1237Q272 1282 259 1309T222 1352T169 1371T104 1376H78V1462H705Q863 1462 987 1414T1196 1272T1327 1043T1372 733Q1372 565 1330 430T1205 199T997 52T705 0H78V86H104Q139 86
169 91T223 111T259 156T272 233V715H78V815ZM657 104Q779 104 870 145T1023 267T1114 464T1145 733Q1145 885 1115 1002T1024 1198T872 1319T659 1360H479V815H827V715H479V104H657Z" />
<glyph unicode="&#xd1;" glyph-name="Ntilde" horiz-adv-x="1563" d="M1165 0L397 1180V233Q397 185 410 156T446 112T500 91T565 86H592V0H78V86H104Q139 86 169 91T223 111T259 156T272 233V1237Q272 1282 259 1309T222 1352T169 1371T104 1376H78V1462H453L1186
330V1237Q1186 1282 1173 1309T1136 1352T1083 1371T1018 1376H991V1462H1505V1376H1479Q1444 1376 1414 1371T1360 1351T1324 1306T1311 1229V0H1165ZM979 1712Q1009 1712 1027 1721T1056 1745T1071 1780T1079 1821H1171Q1168 1774 1155 1731T1115 1653T1050 1599T956
1579Q901 1579 857 1599T774 1643T702 1688T635 1708Q604 1708 586 1699T558 1675T542 1641T534 1600H442Q445 1647 458 1690T498 1767T564 1821T659 1841Q714 1841 758 1821T841 1777T913 1732T979 1712Z" />
<glyph unicode="&#xd2;" glyph-name="Ograve" horiz-adv-x="1520" d="M1403 733Q1403 564 1361 425T1237 187T1035 34T760 -20Q597 -20 476 34T275 187T155 425T115 735Q115 905 155 1043T275 1280T477 1431T762 1485Q917 1485 1036 1432T1237 1280T1361 1043T1403
733ZM342 733Q342 581 364 462T437 260T566 134T760 90Q874 90 953 133T1082 259T1154 461T1176 733Q1176 885 1154 1004T1083 1206T955 1331T762 1374Q648 1374 568 1331T438 1206T365 1005T342 733ZM861 1579H783Q742 1607 694 1648T601 1734T519 1818T463 1886V1907H682Q698
1873 719 1833T765 1752T814 1673T861 1606V1579Z" />
<glyph unicode="&#xd3;" glyph-name="Oacute" horiz-adv-x="1520" d="M1403 733Q1403 564 1361 425T1237 187T1035 34T760 -20Q597 -20 476 34T275 187T155 425T115 735Q115 905 155 1043T275 1280T477 1431T762 1485Q917 1485 1036 1432T1237 1280T1361 1043T1403
733ZM342 733Q342 581 364 462T437 260T566 134T760 90Q874 90 953 133T1082 259T1154 461T1176 733Q1176 885 1154 1004T1083 1206T955 1331T762 1374Q648 1374 568 1331T438 1206T365 1005T342 733ZM649 1606Q672 1635 696 1673T744 1751T789 1832T827 1907H1046V1886Q1027
1859 990 1819T908 1734T816 1649T727 1579H649V1606Z" />
<glyph unicode="&#xd4;" glyph-name="Ocircumflex" horiz-adv-x="1520" d="M1403 733Q1403 564 1361 425T1237 187T1035 34T760 -20Q597 -20 476 34T275 187T155 425T115 735Q115 905 155 1043T275 1280T477 1431T762 1485Q917 1485 1036 1432T1237 1280T1361
1043T1403 733ZM342 733Q342 581 364 462T437 260T566 134T760 90Q874 90 953 133T1082 259T1154 461T1176 733Q1176 885 1154 1004T1083 1206T955 1331T762 1374Q648 1374 568 1331T438 1206T365 1005T342 733ZM459 1606Q483 1635 512 1673T569 1751T623 1832T664
1907H858Q874 1873 899 1833T952 1752T1010 1673T1063 1606V1579H983Q924 1613 865 1663T760 1763Q713 1714 655 1664T539 1579H459V1606Z" />
<glyph unicode="&#xd5;" glyph-name="Otilde" horiz-adv-x="1520" d="M1403 733Q1403 564 1361 425T1237 187T1035 34T760 -20Q597 -20 476 34T275 187T155 425T115 735Q115 905 155 1043T275 1280T477 1431T762 1485Q917 1485 1036 1432T1237 1280T1361 1043T1403
733ZM342 733Q342 581 364 462T437 260T566 134T760 90Q874 90 953 133T1082 259T1154 461T1176 733Q1176 885 1154 1004T1083 1206T955 1331T762 1374Q648 1374 568 1331T438 1206T365 1005T342 733ZM918 1712Q948 1712 966 1721T995 1745T1010 1780T1018 1821H1110Q1107
1774 1094 1731T1054 1653T989 1599T895 1579Q840 1579 796 1599T713 1643T641 1688T574 1708Q543 1708 525 1699T497 1675T481 1641T473 1600H381Q384 1647 397 1690T437 1767T503 1821T598 1841Q653 1841 697 1821T780 1777T852 1732T918 1712Z" />
<glyph unicode="&#xd6;" glyph-name="Odieresis" horiz-adv-x="1520" d="M1403 733Q1403 564 1361 425T1237 187T1035 34T760 -20Q597 -20 476 34T275 187T155 425T115 735Q115 905 155 1043T275 1280T477 1431T762 1485Q917 1485 1036 1432T1237 1280T1361 1043T1403
733ZM342 733Q342 581 364 462T437 260T566 134T760 90Q874 90 953 133T1082 259T1154 461T1176 733Q1176 885 1154 1004T1083 1206T955 1331T762 1374Q648 1374 568 1331T438 1206T365 1005T342 733ZM455 1747Q455 1779 463 1801T485 1836T518 1856T559 1862Q581
1862 600 1856T633 1837T656 1801T664 1747Q664 1716 656 1694T634 1658T600 1638T559 1632Q514 1632 485 1658T455 1747ZM844 1747Q844 1779 852 1801T874 1836T907 1856T948 1862Q970 1862 989 1856T1022 1837T1045 1801T1053 1747Q1053 1716 1045 1694T1023
1658T989 1638T948 1632Q903 1632 874 1658T844 1747Z" />
<glyph unicode="&#xd7;" glyph-name="multiply" horiz-adv-x="1145" d="M571 647L231 307L145 395L485 735L145 1073L231 1159L571 819L911 1161L997 1073L657 733L997 393L911 307L571 647Z" />
<glyph unicode="&#xd8;" glyph-name="Oslash" horiz-adv-x="1520" d="M1163 1354Q1281 1257 1342 1099T1403 733Q1403 564 1361 425T1237 187T1035 34T760 -20Q667 -20 588 -3T442 49L371 -82H250L354 106Q233 204 174 364T115 735Q115 905 155 1043T275 1280T477
1431T762 1485Q853 1485 931 1466T1075 1411L1151 1546H1270L1163 1354ZM342 733Q342 578 364 460T438 258L1010 1292Q916 1374 762 1374Q648 1374 568 1331T438 1206T365 1005T342 733ZM1176 733Q1176 886 1154 1004T1081 1206L510 170Q605 90 760 90Q874 90 953
133T1082 259T1154 461T1176 733Z" />
<glyph unicode="&#xd9;" glyph-name="Ugrave" horiz-adv-x="1468" d="M741 -20Q620 -20 524 5T362 86T260 229T225 442V1237Q225 1282 212 1309T175 1352T122 1371T57 1376H31V1462H627V1376H600Q566 1376 535 1371T482 1351T446 1306T432 1229V430Q432 341 457
279T528 177T636 120T774 102Q863 102 927 126T1034 192T1097 293T1118 422V1237Q1118 1282 1105 1309T1068 1352T1015 1371T950 1376H924V1462H1438V1376H1411Q1377 1376 1346 1371T1293 1351T1257 1306T1243 1229V418Q1243 316 1211 235T1115 97T957 10T741 -20ZM852
1579H774Q733 1607 685 1648T592 1734T510 1818T454 1886V1907H673Q689 1873 710 1833T756 1752T805 1673T852 1606V1579Z" />
<glyph unicode="&#xda;" glyph-name="Uacute" horiz-adv-x="1468" d="M741 -20Q620 -20 524 5T362 86T260 229T225 442V1237Q225 1282 212 1309T175 1352T122 1371T57 1376H31V1462H627V1376H600Q566 1376 535 1371T482 1351T446 1306T432 1229V430Q432 341 457
279T528 177T636 120T774 102Q863 102 927 126T1034 192T1097 293T1118 422V1237Q1118 1282 1105 1309T1068 1352T1015 1371T950 1376H924V1462H1438V1376H1411Q1377 1376 1346 1371T1293 1351T1257 1306T1243 1229V418Q1243 316 1211 235T1115 97T957 10T741 -20ZM649
1606Q672 1635 696 1673T744 1751T789 1832T827 1907H1046V1886Q1027 1859 990 1819T908 1734T816 1649T727 1579H649V1606Z" />
<glyph unicode="&#xdb;" glyph-name="Ucircumflex" horiz-adv-x="1468" d="M741 -20Q620 -20 524 5T362 86T260 229T225 442V1237Q225 1282 212 1309T175 1352T122 1371T57 1376H31V1462H627V1376H600Q566 1376 535 1371T482 1351T446 1306T432 1229V430Q432 341
457 279T528 177T636 120T774 102Q863 102 927 126T1034 192T1097 293T1118 422V1237Q1118 1282 1105 1309T1068 1352T1015 1371T950 1376H924V1462H1438V1376H1411Q1377 1376 1346 1371T1293 1351T1257 1306T1243 1229V418Q1243 316 1211 235T1115 97T957 10T741
-20ZM471 1606Q495 1635 524 1673T581 1751T635 1832T676 1907H870Q886 1873 911 1833T964 1752T1022 1673T1075 1606V1579H995Q936 1613 877 1663T772 1763Q725 1714 667 1664T551 1579H471V1606Z" />
<glyph unicode="&#xdc;" glyph-name="Udieresis" horiz-adv-x="1468" d="M741 -20Q620 -20 524 5T362 86T260 229T225 442V1237Q225 1282 212 1309T175 1352T122 1371T57 1376H31V1462H627V1376H600Q566 1376 535 1371T482 1351T446 1306T432 1229V430Q432 341
457 279T528 177T636 120T774 102Q863 102 927 126T1034 192T1097 293T1118 422V1237Q1118 1282 1105 1309T1068 1352T1015 1371T950 1376H924V1462H1438V1376H1411Q1377 1376 1346 1371T1293 1351T1257 1306T1243 1229V418Q1243 316 1211 235T1115 97T957 10T741
-20ZM477 1747Q477 1779 485 1801T507 1836T540 1856T581 1862Q603 1862 622 1856T655 1837T678 1801T686 1747Q686 1716 678 1694T656 1658T622 1638T581 1632Q536 1632 507 1658T477 1747ZM866 1747Q866 1779 874 1801T896 1836T929 1856T970 1862Q992 1862 1011
1856T1044 1837T1067 1801T1075 1747Q1075 1716 1067 1694T1045 1658T1011 1638T970 1632Q925 1632 896 1658T866 1747Z" />
<glyph unicode="&#xdd;" glyph-name="Yacute" horiz-adv-x="1280" d="M326 0V86H373Q407 86 437 90T491 109T527 150T541 223V610L162 1268Q145 1297 130 1317T99 1351T62 1370T16 1376H-10V1462H553V1376H477Q449 1376 432 1371T404 1357T391 1336T387 1311Q387
1282 399 1253T424 1202L575 928Q611 865 636 804T678 694Q687 716 700 743T730 800T765 863T801 928L932 1163Q952 1198 960 1229T969 1286Q969 1331 937 1353T846 1376H786V1462H1286V1376H1262Q1240 1376 1221 1369T1181 1343T1140 1294T1092 1217L748 610V233Q748
185 761 156T797 112T850 91T915 86H963V0H326ZM567 1606Q590 1635 614 1673T662 1751T707 1832T745 1907H964V1886Q945 1859 908 1819T826 1734T734 1649T645 1579H567V1606Z" />
<glyph unicode="&#xde;" glyph-name="Thorn" horiz-adv-x="1237" d="M78 0V86H104Q139 86 169 91T223 111T259 156T272 233V1229Q272 1277 259 1306T223 1350T170 1371T104 1376H78V1462H694V1376H647Q613 1376 582 1371T529 1351T493 1306T479 1229V1167H653Q911
1167 1034 1064T1157 760Q1157 669 1129 588T1035 446T865 350T608 315H479V233Q479 185 492 156T528 112T582 91T647 86H694V0H78ZM479 412H588Q681 412 747 428T855 484T916 589T936 752Q936 838 919 898T864 996T766 1051T618 1069H479V412Z" />
<glyph unicode="&#xdf;" glyph-name="germandbls" horiz-adv-x="1325" d="M887 78Q962 78 1010 124T1059 264Q1059 298 1052 327T1022 383T961 437T860 494Q796 526 747 557T666 626T617 712T600 825Q600 887 620 938T682 1025T787 1082T938 1102Q938 1199 924
1268T879 1383T800 1449T682 1470Q620 1470 574 1450T496 1394T450 1305T434 1188V0H47V86H74Q109 86 139 91T192 111T228 156T242 233V1001H76V1098H242V1159Q242 1272 276 1349T369 1473T509 1542T684 1563Q812 1563 897 1527T1033 1420T1107 1245T1130 1006H981Q872
1006 821 965T770 840Q770 809 780 784T815 735T881 688T983 635Q1060 600 1109 561T1186 478T1224 390T1235 299Q1235 221 1211 161T1143 61T1034 1T889 -20Q817 -20 758 -7T657 34T592 102T569 197Q569 238 581 265T611 309T649 331T686 338Q686 284 696 237T730
155T792 99T887 78Z" />
<glyph unicode="&#xe0;" glyph-name="agrave" horiz-adv-x="1153" d="M301 297Q301 201 341 154T467 106Q529 106 579 126T665 183T720 273T739 391V557L608 551Q521 547 463 530T368 481T317 403T301 297ZM549 1016Q490 1016 454 1000T397 953T369 882T362 793Q277
793 233 822T188 922Q188 975 217 1012T296 1072T414 1107T557 1118Q651 1118 721 1100T838 1039T908 930T932 764V233Q932 190 939 162T961 117T1000 93T1059 86H1065V0H788L756 176H739Q707 133 677 97T611 35T530 -5T420 -20Q352 -20 294 -1T193 59T126 161T102
307Q102 470 218 549T569 635L739 641V764Q739 819 733 865T707 945T650 997T549 1016ZM923 1241H845Q804 1269 756 1310T663 1396T581 1480T525 1548V1569H744Q760 1535 781 1495T827 1414T876 1335T923 1268V1241Z" />
<glyph unicode="&#xe1;" glyph-name="aacute" horiz-adv-x="1153" d="M301 297Q301 201 341 154T467 106Q529 106 579 126T665 183T720 273T739 391V557L608 551Q521 547 463 530T368 481T317 403T301 297ZM549 1016Q490 1016 454 1000T397 953T369 882T362 793Q277
793 233 822T188 922Q188 975 217 1012T296 1072T414 1107T557 1118Q651 1118 721 1100T838 1039T908 930T932 764V233Q932 190 939 162T961 117T1000 93T1059 86H1065V0H788L756 176H739Q707 133 677 97T611 35T530 -5T420 -20Q352 -20 294 -1T193 59T126 161T102
307Q102 470 218 549T569 635L739 641V764Q739 819 733 865T707 945T650 997T549 1016ZM471 1268Q494 1297 518 1335T566 1413T611 1494T649 1569H868V1548Q849 1521 812 1481T730 1396T638 1311T549 1241H471V1268Z" />
<glyph unicode="&#xe2;" glyph-name="acircumflex" horiz-adv-x="1153" d="M301 297Q301 201 341 154T467 106Q529 106 579 126T665 183T720 273T739 391V557L608 551Q521 547 463 530T368 481T317 403T301 297ZM549 1016Q490 1016 454 1000T397 953T369 882T362
793Q277 793 233 822T188 922Q188 975 217 1012T296 1072T414 1107T557 1118Q651 1118 721 1100T838 1039T908 930T932 764V233Q932 190 939 162T961 117T1000 93T1059 86H1065V0H788L756 176H739Q707 133 677 97T611 35T530 -5T420 -20Q352 -20 294 -1T193 59T126
161T102 307Q102 470 218 549T569 635L739 641V764Q739 819 733 865T707 945T650 997T549 1016ZM517 1268Q541 1297 570 1335T627 1413T681 1494T722 1569H916Q932 1535 957 1495T1010 1414T1068 1335T1121 1268V1241H1041Q982 1275 923 1325T818 1425Q771 1376
713 1326T597 1241H517V1268Z" />
<glyph unicode="&#xe3;" glyph-name="atilde" horiz-adv-x="1153" d="M301 297Q301 201 341 154T467 106Q529 106 579 126T665 183T720 273T739 391V557L608 551Q521 547 463 530T368 481T317 403T301 297ZM549 1016Q490 1016 454 1000T397 953T369 882T362 793Q277
793 233 822T188 922Q188 975 217 1012T296 1072T414 1107T557 1118Q651 1118 721 1100T838 1039T908 930T932 764V233Q932 190 939 162T961 117T1000 93T1059 86H1065V0H788L756 176H739Q707 133 677 97T611 35T530 -5T420 -20Q352 -20 294 -1T193 59T126 161T102
307Q102 470 218 549T569 635L739 641V764Q739 819 733 865T707 945T650 997T549 1016ZM999 1374Q1029 1374 1047 1383T1076 1407T1091 1442T1099 1483H1191Q1188 1436 1175 1393T1135 1315T1070 1261T976 1241Q921 1241 877 1261T794 1305T722 1350T655 1370Q624
1370 606 1361T578 1337T562 1303T554 1262H462Q465 1309 478 1352T518 1429T584 1483T679 1503Q734 1503 778 1483T861 1439T933 1394T999 1374Z" />
<glyph unicode="&#xe4;" glyph-name="adieresis" horiz-adv-x="1153" d="M301 297Q301 201 341 154T467 106Q529 106 579 126T665 183T720 273T739 391V557L608 551Q521 547 463 530T368 481T317 403T301 297ZM549 1016Q490 1016 454 1000T397 953T369 882T362
793Q277 793 233 822T188 922Q188 975 217 1012T296 1072T414 1107T557 1118Q651 1118 721 1100T838 1039T908 930T932 764V233Q932 190 939 162T961 117T1000 93T1059 86H1065V0H788L756 176H739Q707 133 677 97T611 35T530 -5T420 -20Q352 -20 294 -1T193 59T126
161T102 307Q102 470 218 549T569 635L739 641V764Q739 819 733 865T707 945T650 997T549 1016ZM513 1409Q513 1441 521 1463T543 1498T576 1518T617 1524Q639 1524 658 1518T691 1499T714 1463T722 1409Q722 1378 714 1356T692 1320T658 1300T617 1294Q572 1294
543 1320T513 1409ZM902 1409Q902 1441 910 1463T932 1498T965 1518T1006 1524Q1028 1524 1047 1518T1080 1499T1103 1463T1111 1409Q1111 1378 1103 1356T1081 1320T1047 1300T1006 1294Q961 1294 932 1320T902 1409Z" />
<glyph unicode="&#xe5;" glyph-name="aring" horiz-adv-x="1153" d="M301 297Q301 201 341 154T467 106Q529 106 579 126T665 183T720 273T739 391V557L608 551Q521 547 463 530T368 481T317 403T301 297ZM549 1016Q490 1016 454 1000T397 953T369 882T362 793Q277
793 233 822T188 922Q188 975 217 1012T296 1072T414 1107T557 1118Q651 1118 721 1100T838 1039T908 930T932 764V233Q932 190 939 162T961 117T1000 93T1059 86H1065V0H788L756 176H739Q707 133 677 97T611 35T530 -5T420 -20Q352 -20 294 -1T193 59T126 161T102
307Q102 470 218 549T569 635L739 641V764Q739 819 733 865T707 945T650 997T549 1016ZM819 1444Q819 1389 800 1348T748 1278T669 1236T573 1221Q522 1221 477 1235T399 1278T346 1347T327 1444Q327 1498 346 1540T398 1610T477 1652T573 1667Q624 1667 669 1653T747
1610T800 1540T819 1444ZM708 1444Q708 1477 698 1500T669 1538T626 1560T573 1567Q545 1567 521 1560T478 1539T449 1501T438 1444Q438 1411 448 1388T477 1350T520 1328T573 1321Q601 1321 625 1328T668 1349T697 1387T708 1444Z" />
<glyph unicode="&#xe6;" glyph-name="ae" horiz-adv-x="1722" d="M301 297Q301 201 341 154T467 106Q529 106 579 126T665 183T720 273T739 391V514V541V557L608 551Q521 547 463 530T368 481T317 403T301 297ZM1190 1008Q1075 1008 1014 916T942 645H1413Q1413
726 1401 793T1363 908T1295 982T1190 1008ZM1221 -20Q1071 -20 967 39T805 213Q786 167 752 125T670 51T559 -1T420 -20Q352 -20 294 -1T193 59T126 161T102 307Q102 470 218 549T569 635L739 641V764Q739 819 733 865T707 945T650 997T549 1016Q490 1016 454
1000T397 953T369 882T362 793Q277 793 233 822T188 922Q188 975 217 1012T296 1072T414 1107T557 1118Q673 1118 752 1089T877 993Q991 1118 1194 1118Q1293 1118 1372 1087T1506 995T1590 842T1620 629V535H938Q940 423 959 343T1017 210T1115 134T1255 109Q1300
109 1342 120T1420 150T1486 196T1536 252Q1550 246 1562 227T1575 182Q1575 151 1553 116T1487 50T1377 0T1221 -20Z" />
<glyph unicode="&#xe7;" glyph-name="ccedilla" horiz-adv-x="1008" d="M580 -20Q478 -20 392 11T244 111T148 285T113 543Q113 707 147 817T243 995T388 1090T569 1118Q633 1118 696 1106T811 1067T894 1002T926 909Q926 838 880 809T743 780Q743 828 735 871T708
946T655 997T569 1016Q510 1016 463 994T381 918T329 773T311 545Q311 327 383 220T621 113Q716 113 787 153T893 256Q908 244 918 224T928 176Q928 141 906 106T841 43T732 -2T580 -20ZM784 -258Q784 -367 715 -429T514 -492Q498 -492 478 -491T437 -486T395 -479T356
-469V-365Q393 -373 430 -377T495 -381Q554 -381 587 -350T620 -266Q620 -206 577 -176T466 -141L509 18H606L585 -70Q685 -78 734 -127T784 -258Z" />
<glyph unicode="&#xe8;" glyph-name="egrave" horiz-adv-x="1096" d="M563 1008Q449 1008 388 916T315 645H786Q786 726 774 793T736 908T668 982T563 1008ZM588 -20Q477 -20 389 17T239 127T146 303T113 541Q113 828 231 973T567 1118Q666 1118 745 1087T879
995T963 842T993 629V535H311Q313 423 333 343T392 210T487 134T616 109Q669 109 714 121T797 153T862 198T909 252Q923 246 935 227T948 182Q948 151 926 116T859 50T747 0T588 -20ZM939 1241H861Q820 1269 772 1310T679 1396T597 1480T541 1548V1569H760Q776
1535 797 1495T843 1414T892 1335T939 1268V1241Z" />
<glyph unicode="&#xe9;" glyph-name="eacute" horiz-adv-x="1096" d="M563 1008Q449 1008 388 916T315 645H786Q786 726 774 793T736 908T668 982T563 1008ZM588 -20Q477 -20 389 17T239 127T146 303T113 541Q113 828 231 973T567 1118Q666 1118 745 1087T879
995T963 842T993 629V535H311Q313 423 333 343T392 210T487 134T616 109Q669 109 714 121T797 153T862 198T909 252Q923 246 935 227T948 182Q948 151 926 116T859 50T747 0T588 -20ZM473 1268Q496 1297 520 1335T568 1413T613 1494T651 1569H870V1548Q851 1521
814 1481T732 1396T640 1311T551 1241H473V1268Z" />
<glyph unicode="&#xea;" glyph-name="ecircumflex" horiz-adv-x="1096" d="M563 1008Q449 1008 388 916T315 645H786Q786 726 774 793T736 908T668 982T563 1008ZM588 -20Q477 -20 389 17T239 127T146 303T113 541Q113 828 231 973T567 1118Q666 1118 745 1087T879
995T963 842T993 629V535H311Q313 423 333 343T392 210T487 134T616 109Q669 109 714 121T797 153T862 198T909 252Q923 246 935 227T948 182Q948 151 926 116T859 50T747 0T588 -20ZM511 1268Q535 1297 564 1335T621 1413T675 1494T716 1569H910Q926 1535 951
1495T1004 1414T1062 1335T1115 1268V1241H1035Q976 1275 917 1325T812 1425Q765 1376 707 1326T591 1241H511V1268Z" />
<glyph unicode="&#xeb;" glyph-name="edieresis" horiz-adv-x="1096" d="M563 1008Q449 1008 388 916T315 645H786Q786 726 774 793T736 908T668 982T563 1008ZM588 -20Q477 -20 389 17T239 127T146 303T113 541Q113 828 231 973T567 1118Q666 1118 745 1087T879
995T963 842T993 629V535H311Q313 423 333 343T392 210T487 134T616 109Q669 109 714 121T797 153T862 198T909 252Q923 246 935 227T948 182Q948 151 926 116T859 50T747 0T588 -20ZM509 1409Q509 1441 517 1463T539 1498T572 1518T613 1524Q635 1524 654 1518T687
1499T710 1463T718 1409Q718 1378 710 1356T688 1320T654 1300T613 1294Q568 1294 539 1320T509 1409ZM898 1409Q898 1441 906 1463T928 1498T961 1518T1002 1524Q1024 1524 1043 1518T1076 1499T1099 1463T1107 1409Q1107 1378 1099 1356T1077 1320T1043 1300T1002
1294Q957 1294 928 1320T898 1409Z" />
<glyph unicode="&#xec;" glyph-name="igrave" horiz-adv-x="655" d="M74 86Q108 86 138 90T192 109T228 150T242 223V872Q242 917 229 944T192 987T139 1007T74 1012H68V1098H434V233Q434 185 447 156T483 112T537 91T602 86H629V0H47V86H74ZM436 1241H358Q317
1269 269 1310T176 1396T94 1480T38 1548V1569H257Q273 1535 294 1495T340 1414T389 1335T436 1268V1241Z" />
<glyph unicode="&#xed;" glyph-name="iacute" horiz-adv-x="655" d="M74 86Q108 86 138 90T192 109T228 150T242 223V872Q242 917 229 944T192 987T139 1007T74 1012H68V1098H434V233Q434 185 447 156T483 112T537 91T602 86H629V0H47V86H74ZM240 1268Q263 1297
287 1335T335 1413T380 1494T418 1569H637V1548Q618 1521 581 1481T499 1396T407 1311T318 1241H240V1268Z" />
<glyph unicode="&#xee;" glyph-name="icircumflex" horiz-adv-x="655" d="M74 86Q108 86 138 90T192 109T228 150T242 223V872Q242 917 229 944T192 987T139 1007T74 1012H68V1098H434V233Q434 185 447 156T483 112T537 91T602 86H629V0H47V86H74ZM22 1268Q46
1297 75 1335T132 1413T186 1494T227 1569H421Q437 1535 462 1495T515 1414T573 1335T626 1268V1241H546Q487 1275 428 1325T323 1425Q276 1376 218 1326T102 1241H22V1268Z" />
<glyph unicode="&#xef;" glyph-name="idieresis" horiz-adv-x="655" d="M74 86Q108 86 138 90T192 109T228 150T242 223V872Q242 917 229 944T192 987T139 1007T74 1012H68V1098H434V233Q434 185 447 156T483 112T537 91T602 86H629V0H47V86H74ZM18 1409Q18 1441
26 1463T48 1498T81 1518T122 1524Q144 1524 163 1518T196 1499T219 1463T227 1409Q227 1378 219 1356T197 1320T163 1300T122 1294Q77 1294 48 1320T18 1409ZM407 1409Q407 1441 415 1463T437 1498T470 1518T511 1524Q533 1524 552 1518T585 1499T608 1463T616
1409Q616 1378 608 1356T586 1320T552 1300T511 1294Q466 1294 437 1320T407 1409Z" />
<glyph unicode="&#xf0;" glyph-name="eth" horiz-adv-x="1182" d="M307 1559Q401 1536 491 1499T662 1407L926 1561V1444L745 1341Q817 1281 877 1204T979 1032T1045 829T1069 596Q1069 284 947 132T588 -20Q477 -20 389 12T240 111T146 276T113 510Q113 776 234
906T594 1036Q662 1036 720 1022T829 983Q808 1051 755 1126T623 1270L367 1124V1239L539 1337Q488 1371 430 1399T307 1448V1559ZM311 510Q311 405 326 326T374 194T461 113T592 86Q669 86 722 113T808 193T855 326T870 510Q870 614 855 692T807 823T721 902T590
928Q513 928 460 902T374 824T326 693T311 510Z" />
<glyph unicode="&#xf1;" glyph-name="ntilde" horiz-adv-x="1321" d="M608 86V0H57V86H74Q109 86 139 91T192 111T228 156T242 233V872Q242 917 229 944T192 987T139 1007T74 1012H68V1098H399L426 932H436Q468 989 503 1025T578 1082T662 1110T756 1118Q837 1118
900 1095T1008 1023T1076 898T1100 717V233Q1100 185 1111 156T1144 112T1194 91T1257 86H1264V0H907V707Q907 774 895 826T857 914T787 968T682 987Q612 987 565 960T488 887T447 781T434 655V223Q434 178 447 151T484 109T537 91T602 86H608ZM842 1374Q872 1374
890 1383T919 1407T934 1442T942 1483H1034Q1031 1436 1018 1393T978 1315T913 1261T819 1241Q764 1241 720 1261T637 1305T565 1350T498 1370Q467 1370 449 1361T421 1337T405 1303T397 1262H305Q308 1309 321 1352T361 1429T427 1483T522 1503Q577 1503 621 1483T704
1439T776 1394T842 1374Z" />
<glyph unicode="&#xf2;" glyph-name="ograve" horiz-adv-x="1182" d="M1069 551Q1069 262 947 121T588 -20Q477 -20 389 15T240 121T146 299T113 551Q113 838 234 978T594 1118Q705 1118 793 1084T942 979T1036 802T1069 551ZM311 551Q311 437 326 350T374 205T461
116T592 86Q669 86 722 116T808 204T855 350T870 551Q870 665 855 751T807 894T721 981T590 1010Q513 1010 460 981T374 895T326 751T311 551ZM952 1241H874Q833 1269 785 1310T692 1396T610 1480T554 1548V1569H773Q789 1535 810 1495T856 1414T905 1335T952 1268V1241Z"
/>
<glyph unicode="&#xf3;" glyph-name="oacute" horiz-adv-x="1182" d="M1069 551Q1069 262 947 121T588 -20Q477 -20 389 15T240 121T146 299T113 551Q113 838 234 978T594 1118Q705 1118 793 1084T942 979T1036 802T1069 551ZM311 551Q311 437 326 350T374 205T461
116T592 86Q669 86 722 116T808 204T855 350T870 551Q870 665 855 751T807 894T721 981T590 1010Q513 1010 460 981T374 895T326 751T311 551ZM512 1268Q535 1297 559 1335T607 1413T652 1494T690 1569H909V1548Q890 1521 853 1481T771 1396T679 1311T590 1241H512V1268Z"
/>
<glyph unicode="&#xf4;" glyph-name="ocircumflex" horiz-adv-x="1182" d="M1069 551Q1069 262 947 121T588 -20Q477 -20 389 15T240 121T146 299T113 551Q113 838 234 978T594 1118Q705 1118 793 1084T942 979T1036 802T1069 551ZM311 551Q311 437 326 350T374
205T461 116T592 86Q669 86 722 116T808 204T855 350T870 551Q870 665 855 751T807 894T721 981T590 1010Q513 1010 460 981T374 895T326 751T311 551ZM540 1268Q564 1297 593 1335T650 1413T704 1494T745 1569H939Q955 1535 980 1495T1033 1414T1091 1335T1144
1268V1241H1064Q1005 1275 946 1325T841 1425Q794 1376 736 1326T620 1241H540V1268Z" />
<glyph unicode="&#xf5;" glyph-name="otilde" horiz-adv-x="1182" d="M1069 551Q1069 262 947 121T588 -20Q477 -20 389 15T240 121T146 299T113 551Q113 838 234 978T594 1118Q705 1118 793 1084T942 979T1036 802T1069 551ZM311 551Q311 437 326 350T374 205T461
116T592 86Q669 86 722 116T808 204T855 350T870 551Q870 665 855 751T807 894T721 981T590 1010Q513 1010 460 981T374 895T326 751T311 551ZM1013 1374Q1043 1374 1061 1383T1090 1407T1105 1442T1113 1483H1205Q1202 1436 1189 1393T1149 1315T1084 1261T990
1241Q935 1241 891 1261T808 1305T736 1350T669 1370Q638 1370 620 1361T592 1337T576 1303T568 1262H476Q479 1309 492 1352T532 1429T598 1483T693 1503Q748 1503 792 1483T875 1439T947 1394T1013 1374Z" />
<glyph unicode="&#xf6;" glyph-name="odieresis" horiz-adv-x="1182" d="M1069 551Q1069 262 947 121T588 -20Q477 -20 389 15T240 121T146 299T113 551Q113 838 234 978T594 1118Q705 1118 793 1084T942 979T1036 802T1069 551ZM311 551Q311 437 326 350T374
205T461 116T592 86Q669 86 722 116T808 204T855 350T870 551Q870 665 855 751T807 894T721 981T590 1010Q513 1010 460 981T374 895T326 751T311 551ZM540 1409Q540 1441 548 1463T570 1498T603 1518T644 1524Q666 1524 685 1518T718 1499T741 1463T749 1409Q749
1378 741 1356T719 1320T685 1300T644 1294Q599 1294 570 1320T540 1409ZM929 1409Q929 1441 937 1463T959 1498T992 1518T1033 1524Q1055 1524 1074 1518T1107 1499T1130 1463T1138 1409Q1138 1378 1130 1356T1108 1320T1074 1300T1033 1294Q988 1294 959 1320T929
1409Z" />
<glyph unicode="&#xf7;" glyph-name="divide" horiz-adv-x="1145" d="M1012 672H133V793H1012V672ZM469 1120Q469 1152 477 1174T499 1209T532 1227T573 1233Q595 1233 614 1228T647 1209T670 1174T678 1120Q678 1089 670 1068T648 1033T614 1014T573 1008Q551
1008 532 1013T499 1032T477 1067T469 1120ZM469 344Q469 376 477 398T499 433T532 451T573 457Q595 457 614 452T647 433T670 398T678 344Q678 313 670 291T648 256T614 237T573 231Q528 231 499 256T469 344Z" />
<glyph unicode="&#xf8;" glyph-name="oslash" horiz-adv-x="1182" d="M930 991Q998 922 1033 813T1069 551Q1069 262 947 121T588 -20Q517 -20 455 -6T342 37L268 -82H147L258 98Q187 170 150 281T113 551Q113 838 234 978T594 1118Q668 1118 731 1102T848 1055L926
1180H1044L930 991ZM311 551Q311 457 321 382T352 250L776 936Q708 1010 590 1010Q513 1010 460 981T374 895T326 751T311 551ZM870 551Q870 728 834 836L412 152Q444 120 488 103T592 86Q669 86 722 116T808 204T855 350T870 551Z" />
<glyph unicode="&#xf9;" glyph-name="ugrave" horiz-adv-x="1300" d="M1079 223Q1079 178 1092 151T1129 109T1182 91T1247 86H1253V0H928L901 166H891Q860 108 823 72T743 16T655 -12T559 -20Q478 -20 415 3T309 75T244 200T221 381V872Q221 917 208 944T171
987T118 1007T53 1012H47V1098H414V391Q414 324 424 272T459 184T525 130T629 111Q697 111 745 135T825 202T872 307T887 442V864Q887 912 874 941T838 986T785 1007T719 1012H713V1098H1079V223ZM968 1241H890Q849 1269 801 1310T708 1396T626 1480T570 1548V1569H789Q805
1535 826 1495T872 1414T921 1335T968 1268V1241Z" />
<glyph unicode="&#xfa;" glyph-name="uacute" horiz-adv-x="1300" d="M1079 223Q1079 178 1092 151T1129 109T1182 91T1247 86H1253V0H928L901 166H891Q860 108 823 72T743 16T655 -12T559 -20Q478 -20 415 3T309 75T244 200T221 381V872Q221 917 208 944T171
987T118 1007T53 1012H47V1098H414V391Q414 324 424 272T459 184T525 130T629 111Q697 111 745 135T825 202T872 307T887 442V864Q887 912 874 941T838 986T785 1007T719 1012H713V1098H1079V223ZM541 1268Q564 1297 588 1335T636 1413T681 1494T719 1569H938V1548Q919
1521 882 1481T800 1396T708 1311T619 1241H541V1268Z" />
<glyph unicode="&#xfb;" glyph-name="ucircumflex" horiz-adv-x="1300" d="M1079 223Q1079 178 1092 151T1129 109T1182 91T1247 86H1253V0H928L901 166H891Q860 108 823 72T743 16T655 -12T559 -20Q478 -20 415 3T309 75T244 200T221 381V872Q221 917 208 944T171
987T118 1007T53 1012H47V1098H414V391Q414 324 424 272T459 184T525 130T629 111Q697 111 745 135T825 202T872 307T887 442V864Q887 912 874 941T838 986T785 1007T719 1012H713V1098H1079V223ZM342 1268Q366 1297 395 1335T452 1413T506 1494T547 1569H741Q757
1535 782 1495T835 1414T893 1335T946 1268V1241H866Q807 1275 748 1325T643 1425Q596 1376 538 1326T422 1241H342V1268Z" />
<glyph unicode="&#xfc;" glyph-name="udieresis" horiz-adv-x="1300" d="M1079 223Q1079 178 1092 151T1129 109T1182 91T1247 86H1253V0H928L901 166H891Q860 108 823 72T743 16T655 -12T559 -20Q478 -20 415 3T309 75T244 200T221 381V872Q221 917 208 944T171
987T118 1007T53 1012H47V1098H414V391Q414 324 424 272T459 184T525 130T629 111Q697 111 745 135T825 202T872 307T887 442V864Q887 912 874 941T838 986T785 1007T719 1012H713V1098H1079V223ZM348 1409Q348 1441 356 1463T378 1498T411 1518T452 1524Q474 1524
493 1518T526 1499T549 1463T557 1409Q557 1378 549 1356T527 1320T493 1300T452 1294Q407 1294 378 1320T348 1409ZM737 1409Q737 1441 745 1463T767 1498T800 1518T841 1524Q863 1524 882 1518T915 1499T938 1463T946 1409Q946 1378 938 1356T916 1320T882 1300T841
1294Q796 1294 767 1320T737 1409Z" />
<glyph unicode="&#xfd;" glyph-name="yacute" horiz-adv-x="1157" d="M1157 1098V1012H1151Q1121 1012 1100 1006T1061 981T1028 932T995 852L684 -8Q648 -107 616 -182T549 -310T473 -399T378 -455T256 -484T96 -492H78V-395Q182 -395 257 -364T386 -279T477
-152T539 8L160 903Q146 935 133 955T104 989T66 1007T14 1012H8V1098H500V1012H494Q432 1012 402 988T371 913Q371 896 374 879T387 838L537 473Q551 438 566 397T595 315T620 238T635 176H641Q652 221 671 285T717 424L854 823Q863 848 867 871T872 911Q872 964
839 988T737 1012H731V1098H1157ZM504 1268Q527 1297 551 1335T599 1413T644 1494T682 1569H901V1548Q882 1521 845 1481T763 1396T671 1311T582 1241H504V1268Z" />
<glyph unicode="&#xfe;" glyph-name="thorn" horiz-adv-x="1257" d="M692 987Q612 987 559 961T473 880T428 744T414 551Q414 444 427 362T473 224T559 140T694 111Q761 111 809 139T887 224T932 362T946 553Q946 771 887 879T692 987ZM1145 551Q1145 403 1118
295T1037 117T906 14T727 -20Q668 -20 620 -7T534 30T466 87T414 160H406Q408 107 410 61Q411 41 411 21T412 -17T413 -49T414 -72V-268Q414 -313 427 -340T464 -382T517 -401T582 -406H588V-492H37V-406H53Q87 -406 118 -401T171 -381T207 -336T221 -258V1331Q221
1376 208 1403T171 1446T118 1465T53 1470H37V1556H414V1180Q414 1145 413 1100T410 1012Q408 964 406 913H414Q437 960 466 998T533 1062T619 1103T727 1118Q828 1118 906 1085T1037 982T1117 805T1145 551Z" />
<glyph unicode="&#xff;" glyph-name="ydieresis" horiz-adv-x="1157" d="M1157 1098V1012H1151Q1121 1012 1100 1006T1061 981T1028 932T995 852L684 -8Q648 -107 616 -182T549 -310T473 -399T378 -455T256 -484T96 -492H78V-395Q182 -395 257 -364T386 -279T477
-152T539 8L160 903Q146 935 133 955T104 989T66 1007T14 1012H8V1098H500V1012H494Q432 1012 402 988T371 913Q371 896 374 879T387 838L537 473Q551 438 566 397T595 315T620 238T635 176H641Q652 221 671 285T717 424L854 823Q863 848 867 871T872 911Q872 964
839 988T737 1012H731V1098H1157ZM320 1409Q320 1441 328 1463T350 1498T383 1518T424 1524Q446 1524 465 1518T498 1499T521 1463T529 1409Q529 1378 521 1356T499 1320T465 1300T424 1294Q379 1294 350 1320T320 1409ZM709 1409Q709 1441 717 1463T739 1498T772
1518T813 1524Q835 1524 854 1518T887 1499T910 1463T918 1409Q918 1378 910 1356T888 1320T854 1300T813 1294Q768 1294 739 1320T709 1409Z" />
<glyph unicode="&#x100;" glyph-name="Amacron" horiz-adv-x="1444" d="M414 489L336 274Q327 250 322 227T317 186Q317 134 350 110T453 86H500V0H0V86H39Q69 86 90 92T128 117T160 166T195 246L649 1462H809L1272 195Q1284 163 1296 142T1326 109T1365 91T1417
86H1444V0H881V86H928Q1051 86 1051 184Q1051 201 1047 219T1034 260L952 489H414ZM788 950Q756 1041 730 1120T686 1274Q679 1237 670 1203T649 1132T624 1057T592 969L453 592H915L788 950ZM1014 1579H420V1700H1014V1579Z" />
<glyph unicode="&#x101;" glyph-name="amacron" horiz-adv-x="1153" d="M301 297Q301 201 341 154T467 106Q529 106 579 126T665 183T720 273T739 391V557L608 551Q521 547 463 530T368 481T317 403T301 297ZM549 1016Q490 1016 454 1000T397 953T369 882T362
793Q277 793 233 822T188 922Q188 975 217 1012T296 1072T414 1107T557 1118Q651 1118 721 1100T838 1039T908 930T932 764V233Q932 190 939 162T961 117T1000 93T1059 86H1065V0H788L756 176H739Q707 133 677 97T611 35T530 -5T420 -20Q352 -20 294 -1T193 59T126
161T102 307Q102 470 218 549T569 635L739 641V764Q739 819 733 865T707 945T650 997T549 1016ZM852 1241H258V1362H852V1241Z" />
<glyph unicode="&#x102;" glyph-name="Abreve" horiz-adv-x="1444" d="M414 489L336 274Q327 250 322 227T317 186Q317 134 350 110T453 86H500V0H0V86H39Q69 86 90 92T128 117T160 166T195 246L649 1462H809L1272 195Q1284 163 1296 142T1326 109T1365 91T1417
86H1444V0H881V86H928Q1051 86 1051 184Q1051 201 1047 219T1034 260L952 489H414ZM788 950Q756 1041 730 1120T686 1274Q679 1237 670 1203T649 1132T624 1057T592 969L453 592H915L788 950ZM717 1579Q644 1579 591 1601T502 1662T450 1751T430 1860H524Q541 1785
591 1753T717 1720Q792 1720 842 1752T909 1860H1004Q1002 1802 985 1751T932 1662T843 1602T717 1579Z" />
<glyph unicode="&#x103;" glyph-name="abreve" horiz-adv-x="1153" d="M301 297Q301 201 341 154T467 106Q529 106 579 126T665 183T720 273T739 391V557L608 551Q521 547 463 530T368 481T317 403T301 297ZM549 1016Q490 1016 454 1000T397 953T369 882T362 793Q277
793 233 822T188 922Q188 975 217 1012T296 1072T414 1107T557 1118Q651 1118 721 1100T838 1039T908 930T932 764V233Q932 190 939 162T961 117T1000 93T1059 86H1065V0H788L756 176H739Q707 133 677 97T611 35T530 -5T420 -20Q352 -20 294 -1T193 59T126 161T102
307Q102 470 218 549T569 635L739 641V764Q739 819 733 865T707 945T650 997T549 1016ZM820 1241Q747 1241 694 1263T605 1324T553 1413T533 1522H627Q644 1447 694 1415T820 1382Q895 1382 945 1414T1012 1522H1107Q1105 1464 1088 1413T1035 1324T946 1264T820
1241Z" />
<glyph unicode="&#x104;" glyph-name="Aogonek" horiz-adv-x="1444" d="M414 489L336 274Q327 250 322 227T317 186Q317 134 350 110T453 86H500V0H0V86H39Q69 86 90 92T128 117T160 166T195 246L649 1462H809L1272 195Q1284 163 1296 142T1326 109T1365 91T1417
86H1444V0H881V86H928Q1051 86 1051 184Q1051 201 1047 219T1034 260L952 489H414ZM788 950Q756 1041 730 1120T686 1274Q679 1237 670 1203T649 1132T624 1057T592 969L453 592H915L788 950ZM934 -266Q934 -218 954 -175T1008 -97T1085 -36T1176 0H1293Q1261 -10
1227 -30T1166 -79T1120 -148T1102 -236Q1102 -270 1112 -294T1142 -334T1187 -357T1244 -365Q1271 -365 1303 -361T1373 -348V-459Q1357 -467 1337 -473T1294 -483T1252 -489T1215 -492Q1150 -492 1098 -479T1010 -438T954 -368T934 -266Z" />
<glyph unicode="&#x105;" glyph-name="aogonek" horiz-adv-x="1153" d="M301 297Q301 201 341 154T467 106Q529 106 579 126T665 183T720 273T739 391V557L608 551Q521 547 463 530T368 481T317 403T301 297ZM549 1016Q490 1016 454 1000T397 953T369 882T362
793Q277 793 233 822T188 922Q188 975 217 1012T296 1072T414 1107T557 1118Q651 1118 721 1100T838 1039T908 930T932 764V233Q932 190 939 162T961 117T1000 93T1059 86H1065V0H788L756 176H739Q707 133 677 97T611 35T530 -5T420 -20Q352 -20 294 -1T193 59T126
161T102 307Q102 470 218 549T569 635L739 641V764Q739 819 733 865T707 945T650 997T549 1016ZM549 -266Q549 -218 569 -175T623 -97T700 -36T791 0H908Q876 -10 842 -30T781 -79T735 -148T717 -236Q717 -270 727 -294T757 -334T802 -357T859 -365Q886 -365 918
-361T988 -348V-459Q972 -467 952 -473T909 -483T867 -489T830 -492Q765 -492 713 -479T625 -438T569 -368T549 -266Z" />
<glyph unicode="&#x106;" glyph-name="Cacute" horiz-adv-x="1257" d="M774 1483Q879 1483 956 1466T1085 1417T1162 1344T1188 1253Q1188 1220 1175 1194T1137 1149T1081 1120T1010 1110Q1010 1158 998 1205T957 1289T883 1350T770 1374Q654 1374 573 1332T441
1208T367 1007T344 733Q344 596 368 482T444 287T576 160T770 115Q845 115 902 129T1004 168T1081 223T1141 289Q1158 278 1169 259T1180 209Q1180 170 1154 130T1073 56T936 2T739 -20Q586 -20 470 34T276 187T157 425T117 733Q117 899 159 1037T283 1274T489
1428T774 1483ZM657 1606Q680 1635 704 1673T752 1751T797 1832T835 1907H1054V1886Q1035 1859 998 1819T916 1734T824 1649T735 1579H657V1606Z" />
<glyph unicode="&#x107;" glyph-name="cacute" horiz-adv-x="1008" d="M580 -20Q478 -20 392 11T244 111T148 285T113 543Q113 707 147 817T243 995T388 1090T569 1118Q633 1118 696 1106T811 1067T894 1002T926 909Q926 838 880 809T743 780Q743 828 735 871T708
946T655 997T569 1016Q510 1016 463 994T381 918T329 773T311 545Q311 327 383 220T621 113Q716 113 787 153T893 256Q908 244 918 224T928 176Q928 141 906 106T841 43T732 -2T580 -20ZM465 1268Q488 1297 512 1335T560 1413T605 1494T643 1569H862V1548Q843 1521
806 1481T724 1396T632 1311T543 1241H465V1268Z" />
<glyph unicode="&#x108;" glyph-name="Ccircumflex" horiz-adv-x="1257" d="M774 1483Q879 1483 956 1466T1085 1417T1162 1344T1188 1253Q1188 1220 1175 1194T1137 1149T1081 1120T1010 1110Q1010 1158 998 1205T957 1289T883 1350T770 1374Q654 1374 573 1332T441
1208T367 1007T344 733Q344 596 368 482T444 287T576 160T770 115Q845 115 902 129T1004 168T1081 223T1141 289Q1158 278 1169 259T1180 209Q1180 170 1154 130T1073 56T936 2T739 -20Q586 -20 470 34T276 187T157 425T117 733Q117 899 159 1037T283 1274T489
1428T774 1483ZM459 1606Q483 1635 512 1673T569 1751T623 1832T664 1907H858Q874 1873 899 1833T952 1752T1010 1673T1063 1606V1579H983Q924 1613 865 1663T760 1763Q713 1714 655 1664T539 1579H459V1606Z" />
<glyph unicode="&#x109;" glyph-name="ccircumflex" horiz-adv-x="1008" d="M580 -20Q478 -20 392 11T244 111T148 285T113 543Q113 707 147 817T243 995T388 1090T569 1118Q633 1118 696 1106T811 1067T894 1002T926 909Q926 838 880 809T743 780Q743 828 735
871T708 946T655 997T569 1016Q510 1016 463 994T381 918T329 773T311 545Q311 327 383 220T621 113Q716 113 787 153T893 256Q908 244 918 224T928 176Q928 141 906 106T841 43T732 -2T580 -20ZM534 1268Q558 1297 587 1335T644 1413T698 1494T739 1569H933Q949
1535 974 1495T1027 1414T1085 1335T1138 1268V1241H1058Q999 1275 940 1325T835 1425Q788 1376 730 1326T614 1241H534V1268Z" />
<glyph unicode="&#x10a;" glyph-name="Cdotaccent" horiz-adv-x="1257" d="M774 1483Q879 1483 956 1466T1085 1417T1162 1344T1188 1253Q1188 1220 1175 1194T1137 1149T1081 1120T1010 1110Q1010 1158 998 1205T957 1289T883 1350T770 1374Q654 1374 573 1332T441
1208T367 1007T344 733Q344 596 368 482T444 287T576 160T770 115Q845 115 902 129T1004 168T1081 223T1141 289Q1158 278 1169 259T1180 209Q1180 170 1154 130T1073 56T936 2T739 -20Q586 -20 470 34T276 187T157 425T117 733Q117 899 159 1037T283 1274T489
1428T774 1483ZM651 1768Q651 1804 660 1828T685 1867T722 1888T768 1894Q792 1894 813 1888T850 1867T875 1828T885 1768Q885 1732 876 1708T850 1669T813 1648T768 1641Q743 1641 722 1647T685 1669T660 1708T651 1768Z" />
<glyph unicode="&#x10b;" glyph-name="cdotaccent" horiz-adv-x="1008" d="M580 -20Q478 -20 392 11T244 111T148 285T113 543Q113 707 147 817T243 995T388 1090T569 1118Q633 1118 696 1106T811 1067T894 1002T926 909Q926 838 880 809T743 780Q743 828 735
871T708 946T655 997T569 1016Q510 1016 463 994T381 918T329 773T311 545Q311 327 383 220T621 113Q716 113 787 153T893 256Q908 244 918 224T928 176Q928 141 906 106T841 43T732 -2T580 -20ZM463 1430Q463 1466 472 1490T497 1529T534 1550T580 1556Q604 1556
625 1550T662 1529T687 1490T697 1430Q697 1394 688 1370T662 1331T625 1310T580 1303Q555 1303 534 1309T497 1331T472 1370T463 1430Z" />
<glyph unicode="&#x10c;" glyph-name="Ccaron" horiz-adv-x="1257" d="M774 1483Q879 1483 956 1466T1085 1417T1162 1344T1188 1253Q1188 1220 1175 1194T1137 1149T1081 1120T1010 1110Q1010 1158 998 1205T957 1289T883 1350T770 1374Q654 1374 573 1332T441
1208T367 1007T344 733Q344 596 368 482T444 287T576 160T770 115Q845 115 902 129T1004 168T1081 223T1141 289Q1158 278 1169 259T1180 209Q1180 170 1154 130T1073 56T936 2T739 -20Q586 -20 470 34T276 187T157 425T117 733Q117 899 159 1037T283 1274T489
1428T774 1483ZM436 1907H516Q545 1889 574 1867T632 1821T687 1771T737 1720Q760 1745 786 1770T842 1820T901 1867T960 1907H1040V1880Q1016 1851 987 1813T930 1735T876 1654T835 1579H641Q625 1614 600 1654T547 1734T489 1813T436 1880V1907Z" />
<glyph unicode="&#x10d;" glyph-name="ccaron" horiz-adv-x="1008" d="M580 -20Q478 -20 392 11T244 111T148 285T113 543Q113 707 147 817T243 995T388 1090T569 1118Q633 1118 696 1106T811 1067T894 1002T926 909Q926 838 880 809T743 780Q743 828 735 871T708
946T655 997T569 1016Q510 1016 463 994T381 918T329 773T311 545Q311 327 383 220T621 113Q716 113 787 153T893 256Q908 244 918 224T928 176Q928 141 906 106T841 43T732 -2T580 -20ZM530 1569H610Q639 1551 668 1529T726 1483T781 1433T831 1382Q854 1407 880
1432T936 1482T995 1529T1054 1569H1134V1542Q1110 1513 1081 1475T1024 1397T970 1316T929 1241H735Q719 1276 694 1316T641 1396T583 1475T530 1542V1569Z" />
<glyph unicode="&#x10e;" glyph-name="Dcaron" horiz-adv-x="1489" d="M1372 733Q1372 565 1330 430T1205 199T997 52T705 0H78V86H104Q139 86 169 91T223 111T259 156T272 233V1237Q272 1282 259 1309T222 1352T169 1371T104 1376H78V1462H705Q863 1462 987 1414T1196
1272T1327 1043T1372 733ZM657 104Q779 104 870 145T1023 267T1114 464T1145 733Q1145 1038 1024 1199T659 1360H479V104H657ZM377 1907H457Q486 1889 515 1867T573 1821T628 1771T678 1720Q701 1745 727 1770T783 1820T842 1867T901 1907H981V1880Q957 1851 928
1813T871 1735T817 1654T776 1579H582Q566 1614 541 1654T488 1734T430 1813T377 1880V1907Z" />
<glyph unicode="&#x10f;" glyph-name="dcaron" horiz-adv-x="1257" d="M1036 225Q1036 180 1049 153T1086 110T1139 91T1204 86H1221V0H874L852 184H844Q821 137 792 100T724 36T638 -5T530 -20Q429 -20 351 13T220 116T140 293T113 547Q113 695 140 803T220 981T351
1084T530 1118Q589 1118 637 1105T723 1068T792 1011T844 938H856Q853 988 850 1032Q848 1070 846 1107T844 1163V1331Q844 1376 831 1403T794 1446T741 1465T676 1470H659V1556H1036V225ZM565 111Q645 111 698 137T784 218T830 354T844 547Q844 654 831 736T785
873T698 958T563 987Q496 987 448 958T370 873T325 735T311 545Q311 327 370 219T565 111ZM1149 1255Q1166 1324 1182 1403T1211 1556H1389V1536Q1375 1504 1355 1464T1312 1383T1264 1301T1219 1229H1149V1255Z" />
<glyph unicode="&#x110;" glyph-name="Dcroat" horiz-adv-x="1489" d="M78 815H272V1237Q272 1282 259 1309T222 1352T169 1371T104 1376H78V1462H705Q863 1462 987 1414T1196 1272T1327 1043T1372 733Q1372 565 1330 430T1205 199T997 52T705 0H78V86H104Q139
86 169 91T223 111T259 156T272 233V715H78V815ZM657 104Q779 104 870 145T1023 267T1114 464T1145 733Q1145 885 1115 1002T1024 1198T872 1319T659 1360H479V815H827V715H479V104H657Z" />
<glyph unicode="&#x111;" glyph-name="" horiz-adv-x="1257" d="M1036 1311H1223V1214H1036V225Q1036 180 1049 153T1086 110T1139 91T1204 86H1221V0H874L852 184H844Q821 137 792 100T724 36T638 -5T530 -20Q429 -20 351 12T220 111T140 281T113 526Q113 669
140 773T220 944T351 1044T530 1077Q589 1077 637 1064T723 1027T792 970T844 897H856Q853 947 850 992Q848 1030 846 1069T844 1128V1214H494V1311H844V1331Q844 1376 831 1403T794 1445T741 1465T676 1470H659V1556H1036V1311ZM565 111Q645 111 698 136T784 213T830
343T844 526Q844 628 831 706T785 838T698 919T563 946Q428 946 370 838T311 524Q311 317 370 214T565 111Z" />
<glyph unicode="&#x112;" glyph-name="Emacron" horiz-adv-x="1276" d="M479 102H874Q923 102 957 115T1015 152T1051 205T1069 270L1083 358H1190L1176 0H78V86H104Q138 86 168 90T222 109T258 150T272 223V1229Q272 1277 259 1306T223 1350T170 1371T104 1376H78V1462H1110L1120
1104H1014L1004 1192Q1000 1226 989 1256T956 1310T902 1346T823 1360H479V815H973V715H479V102ZM948 1579H354V1700H948V1579Z" />
<glyph unicode="&#x113;" glyph-name="emacron" horiz-adv-x="1096" d="M563 1008Q449 1008 388 916T315 645H786Q786 726 774 793T736 908T668 982T563 1008ZM588 -20Q477 -20 389 17T239 127T146 303T113 541Q113 828 231 973T567 1118Q666 1118 745 1087T879
995T963 842T993 629V535H311Q313 423 333 343T392 210T487 134T616 109Q669 109 714 121T797 153T862 198T909 252Q923 246 935 227T948 182Q948 151 926 116T859 50T747 0T588 -20ZM856 1241H262V1362H856V1241Z" />
<glyph unicode="&#x114;" glyph-name="Ebreve" horiz-adv-x="1276" d="M479 102H874Q923 102 957 115T1015 152T1051 205T1069 270L1083 358H1190L1176 0H78V86H104Q138 86 168 90T222 109T258 150T272 223V1229Q272 1277 259 1306T223 1350T170 1371T104 1376H78V1462H1110L1120
1104H1014L1004 1192Q1000 1226 989 1256T956 1310T902 1346T823 1360H479V815H973V715H479V102ZM639 1579Q566 1579 513 1601T424 1662T372 1751T352 1860H446Q463 1785 513 1753T639 1720Q714 1720 764 1752T831 1860H926Q924 1802 907 1751T854 1662T765 1602T639
1579Z" />
<glyph unicode="&#x115;" glyph-name="ebreve" horiz-adv-x="1096" d="M563 1008Q449 1008 388 916T315 645H786Q786 726 774 793T736 908T668 982T563 1008ZM588 -20Q477 -20 389 17T239 127T146 303T113 541Q113 828 231 973T567 1118Q666 1118 745 1087T879
995T963 842T993 629V535H311Q313 423 333 343T392 210T487 134T616 109Q669 109 714 121T797 153T862 198T909 252Q923 246 935 227T948 182Q948 151 926 116T859 50T747 0T588 -20ZM824 1241Q751 1241 698 1263T609 1324T557 1413T537 1522H631Q648 1447 698
1415T824 1382Q899 1382 949 1414T1016 1522H1111Q1109 1464 1092 1413T1039 1324T950 1264T824 1241Z" />
<glyph unicode="&#x116;" glyph-name="Edotaccent" horiz-adv-x="1276" d="M479 102H874Q923 102 957 115T1015 152T1051 205T1069 270L1083 358H1190L1176 0H78V86H104Q138 86 168 90T222 109T258 150T272 223V1229Q272 1277 259 1306T223 1350T170 1371T104
1376H78V1462H1110L1120 1104H1014L1004 1192Q1000 1226 989 1256T956 1310T902 1346T823 1360H479V815H973V715H479V102ZM542 1739Q542 1775 551 1799T576 1838T613 1859T659 1865Q683 1865 704 1859T741 1838T766 1799T776 1739Q776 1703 767 1679T741 1640T704
1619T659 1612Q634 1612 613 1618T576 1640T551 1679T542 1739Z" />
<glyph unicode="&#x117;" glyph-name="edotaccent" horiz-adv-x="1096" d="M563 1008Q449 1008 388 916T315 645H786Q786 726 774 793T736 908T668 982T563 1008ZM588 -20Q477 -20 389 17T239 127T146 303T113 541Q113 828 231 973T567 1118Q666 1118 745 1087T879
995T963 842T993 629V535H311Q313 423 333 343T392 210T487 134T616 109Q669 109 714 121T797 153T862 198T909 252Q923 246 935 227T948 182Q948 151 926 116T859 50T747 0T588 -20ZM446 1430Q446 1466 455 1490T480 1529T517 1550T563 1556Q587 1556 608 1550T645
1529T670 1490T680 1430Q680 1394 671 1370T645 1331T608 1310T563 1303Q538 1303 517 1309T480 1331T455 1370T446 1430Z" />
<glyph unicode="&#x118;" glyph-name="Eogonek" horiz-adv-x="1276" d="M479 102H874Q923 102 957 115T1015 152T1051 205T1069 270L1083 358H1190L1176 0H78V86H104Q138 86 168 90T222 109T258 150T272 223V1229Q272 1277 259 1306T223 1350T170 1371T104 1376H78V1462H1110L1120
1104H1014L1004 1192Q1000 1226 989 1256T956 1310T902 1346T823 1360H479V815H973V715H479V102ZM714 -266Q714 -218 734 -175T788 -97T865 -36T956 0H1073Q1041 -10 1007 -30T946 -79T900 -148T882 -236Q882 -270 892 -294T922 -334T967 -357T1024 -365Q1051 -365
1083 -361T1153 -348V-459Q1137 -467 1117 -473T1074 -483T1032 -489T995 -492Q930 -492 878 -479T790 -438T734 -368T714 -266Z" />
<glyph unicode="&#x119;" glyph-name="eogonek" horiz-adv-x="1096" d="M563 1008Q449 1008 388 916T315 645H786Q786 726 774 793T736 908T668 982T563 1008ZM588 -20Q477 -20 389 17T239 127T146 303T113 541Q113 828 231 973T567 1118Q666 1118 745 1087T879
995T963 842T993 629V535H311Q313 423 333 343T392 210T487 134T616 109Q669 109 714 121T797 153T862 198T909 252Q923 246 935 227T948 182Q948 151 926 116T859 50T747 0T588 -20ZM471 -235Q471 -187 491 -144T545 -66T622 -5T713 31H830Q798 21 764 1T703 -48T657
-117T639 -205Q639 -239 649 -263T679 -303T724 -326T781 -334Q808 -334 840 -330T910 -317V-428Q894 -436 874 -442T831 -452T789 -458T752 -461Q687 -461 635 -448T547 -407T491 -337T471 -235Z" />
<glyph unicode="&#x11a;" glyph-name="Ecaron" horiz-adv-x="1276" d="M479 102H874Q923 102 957 115T1015 152T1051 205T1069 270L1083 358H1190L1176 0H78V86H104Q138 86 168 90T222 109T258 150T272 223V1229Q272 1277 259 1306T223 1350T170 1371T104 1376H78V1462H1110L1120
1104H1014L1004 1192Q1000 1226 989 1256T956 1310T902 1346T823 1360H479V815H973V715H479V102ZM332 1907H412Q441 1889 470 1867T528 1821T583 1771T633 1720Q656 1745 682 1770T738 1820T797 1867T856 1907H936V1880Q912 1851 883 1813T826 1735T772 1654T731
1579H537Q521 1614 496 1654T443 1734T385 1813T332 1880V1907Z" />
<glyph unicode="&#x11b;" glyph-name="ecaron" horiz-adv-x="1096" d="M563 1008Q449 1008 388 916T315 645H786Q786 726 774 793T736 908T668 982T563 1008ZM588 -20Q477 -20 389 17T239 127T146 303T113 541Q113 828 231 973T567 1118Q666 1118 745 1087T879
995T963 842T993 629V535H311Q313 423 333 343T392 210T487 134T616 109Q669 109 714 121T797 153T862 198T909 252Q923 246 935 227T948 182Q948 151 926 116T859 50T747 0T588 -20ZM517 1569H597Q626 1551 655 1529T713 1483T768 1433T818 1382Q841 1407 867
1432T923 1482T982 1529T1041 1569H1121V1542Q1097 1513 1068 1475T1011 1397T957 1316T916 1241H722Q706 1276 681 1316T628 1396T570 1475T517 1542V1569Z" />
<glyph unicode="&#x11c;" glyph-name="Gcircumflex" horiz-adv-x="1462" d="M821 -20Q643 -20 511 34T291 187T160 425T117 733Q117 899 162 1037T298 1274T523 1428T834 1483Q948 1483 1032 1466T1173 1417T1258 1344T1286 1253Q1286 1220 1271 1194T1231 1149T1171
1120T1096 1110Q1096 1158 1082 1205T1036 1289T952 1350T825 1374Q695 1374 604 1332T454 1208T370 1007T344 733Q344 580 371 461T459 261T617 138T854 96Q913 96 968 102T1067 121V451Q1067 496 1054 523T1017 565T964 585T899 590H891V676H1423V590H1415Q1386
590 1360 585T1315 565T1285 520T1274 442V74Q1171 26 1062 3T821 -20ZM504 1606Q528 1635 557 1673T614 1751T668 1832T709 1907H903Q919 1873 944 1833T997 1752T1055 1673T1108 1606V1579H1028Q969 1613 910 1663T805 1763Q758 1714 700 1664T584 1579H504V1606Z"
/>
<glyph unicode="&#x11d;" glyph-name="gcircumflex" horiz-adv-x="1102" d="M1077 1055Q1077 1033 1071 1014T1051 980T1018 957T969 948Q969 960 966 972T956 994T935 1011T901 1018Q875 1018 854 1012T813 993Q848 950 870 892T893 745Q893 669 870 605T802
493T687 420T524 393Q512 393 497 393T467 394T439 396T418 399Q398 389 380 377T349 350T327 316T319 274Q319 249 328 234T355 211T395 200T446 197H678Q770 197 834 174T938 111T997 14T1016 -109Q1016 -197 984 -268T884 -388T715 -465T473 -492Q259 -492 153
-413T47 -193Q47 -133 68 -88T124 -11T206 41T303 70Q282 79 262 94T226 130T200 178T190 238Q190 299 222 343T324 430Q280 448 246 479T188 551T152 640T139 739Q139 828 163 898T235 1017T355 1092T524 1118Q561 1118 597 1113T663 1098T718 1076T758 1051Q773
1067 793 1086T838 1122T892 1150T956 1161Q987 1161 1009 1153T1047 1130T1069 1096T1077 1055ZM213 -180Q213 -225 225 -264T267 -331T348 -375T477 -391Q587 -391 658 -373T772 -321T831 -243T848 -143Q848 -96 835 -66T795 -18T729 7T639 14H438Q395 14 355
7T283 -22T232 -81T213 -180ZM332 745Q332 614 375 553T518 492Q568 492 602 507T659 553T690 632T700 748Q700 886 658 952T516 1018Q417 1018 375 951T332 745ZM487 1268Q511 1297 540 1335T597 1413T651 1494T692 1569H886Q902 1535 927 1495T980 1414T1038
1335T1091 1268V1241H1011Q952 1275 893 1325T788 1425Q741 1376 683 1326T567 1241H487V1268Z" />
<glyph unicode="&#x11e;" glyph-name="Gbreve" horiz-adv-x="1462" d="M821 -20Q643 -20 511 34T291 187T160 425T117 733Q117 899 162 1037T298 1274T523 1428T834 1483Q948 1483 1032 1466T1173 1417T1258 1344T1286 1253Q1286 1220 1271 1194T1231 1149T1171
1120T1096 1110Q1096 1158 1082 1205T1036 1289T952 1350T825 1374Q695 1374 604 1332T454 1208T370 1007T344 733Q344 580 371 461T459 261T617 138T854 96Q913 96 968 102T1067 121V451Q1067 496 1054 523T1017 565T964 585T899 590H891V676H1423V590H1415Q1386
590 1360 585T1315 565T1285 520T1274 442V74Q1171 26 1062 3T821 -20ZM807 1579Q734 1579 681 1601T592 1662T540 1751T520 1860H614Q631 1785 681 1753T807 1720Q882 1720 932 1752T999 1860H1094Q1092 1802 1075 1751T1022 1662T933 1602T807 1579Z" />
<glyph unicode="&#x11f;" glyph-name="gbreve" horiz-adv-x="1102" d="M1077 1055Q1077 1033 1071 1014T1051 980T1018 957T969 948Q969 960 966 972T956 994T935 1011T901 1018Q875 1018 854 1012T813 993Q848 950 870 892T893 745Q893 669 870 605T802 493T687
420T524 393Q512 393 497 393T467 394T439 396T418 399Q398 389 380 377T349 350T327 316T319 274Q319 249 328 234T355 211T395 200T446 197H678Q770 197 834 174T938 111T997 14T1016 -109Q1016 -197 984 -268T884 -388T715 -465T473 -492Q259 -492 153 -413T47
-193Q47 -133 68 -88T124 -11T206 41T303 70Q282 79 262 94T226 130T200 178T190 238Q190 299 222 343T324 430Q280 448 246 479T188 551T152 640T139 739Q139 828 163 898T235 1017T355 1092T524 1118Q561 1118 597 1113T663 1098T718 1076T758 1051Q773 1067
793 1086T838 1122T892 1150T956 1161Q987 1161 1009 1153T1047 1130T1069 1096T1077 1055ZM213 -180Q213 -225 225 -264T267 -331T348 -375T477 -391Q587 -391 658 -373T772 -321T831 -243T848 -143Q848 -96 835 -66T795 -18T729 7T639 14H438Q395 14 355 7T283
-22T232 -81T213 -180ZM332 745Q332 614 375 553T518 492Q568 492 602 507T659 553T690 632T700 748Q700 886 658 952T516 1018Q417 1018 375 951T332 745ZM781 1241Q708 1241 655 1263T566 1324T514 1413T494 1522H588Q605 1447 655 1415T781 1382Q856 1382 906
1414T973 1522H1068Q1066 1464 1049 1413T996 1324T907 1264T781 1241Z" />
<glyph unicode="&#x120;" glyph-name="Gdotaccent" horiz-adv-x="1462" d="M821 -20Q643 -20 511 34T291 187T160 425T117 733Q117 899 162 1037T298 1274T523 1428T834 1483Q948 1483 1032 1466T1173 1417T1258 1344T1286 1253Q1286 1220 1271 1194T1231 1149T1171
1120T1096 1110Q1096 1158 1082 1205T1036 1289T952 1350T825 1374Q695 1374 604 1332T454 1208T370 1007T344 733Q344 580 371 461T459 261T617 138T854 96Q913 96 968 102T1067 121V451Q1067 496 1054 523T1017 565T964 585T899 590H891V676H1423V590H1415Q1386
590 1360 585T1315 565T1285 520T1274 442V74Q1171 26 1062 3T821 -20ZM708 1768Q708 1804 717 1828T742 1867T779 1888T825 1894Q849 1894 870 1888T907 1867T932 1828T942 1768Q942 1732 933 1708T907 1669T870 1648T825 1641Q800 1641 779 1647T742 1669T717
1708T708 1768Z" />
<glyph unicode="&#x121;" glyph-name="gdotaccent" horiz-adv-x="1102" d="M1077 1055Q1077 1033 1071 1014T1051 980T1018 957T969 948Q969 960 966 972T956 994T935 1011T901 1018Q875 1018 854 1012T813 993Q848 950 870 892T893 745Q893 669 870 605T802 493T687
420T524 393Q512 393 497 393T467 394T439 396T418 399Q398 389 380 377T349 350T327 316T319 274Q319 249 328 234T355 211T395 200T446 197H678Q770 197 834 174T938 111T997 14T1016 -109Q1016 -197 984 -268T884 -388T715 -465T473 -492Q259 -492 153 -413T47
-193Q47 -133 68 -88T124 -11T206 41T303 70Q282 79 262 94T226 130T200 178T190 238Q190 299 222 343T324 430Q280 448 246 479T188 551T152 640T139 739Q139 828 163 898T235 1017T355 1092T524 1118Q561 1118 597 1113T663 1098T718 1076T758 1051Q773 1067
793 1086T838 1122T892 1150T956 1161Q987 1161 1009 1153T1047 1130T1069 1096T1077 1055ZM213 -180Q213 -225 225 -264T267 -331T348 -375T477 -391Q587 -391 658 -373T772 -321T831 -243T848 -143Q848 -96 835 -66T795 -18T729 7T639 14H438Q395 14 355 7T283
-22T232 -81T213 -180ZM332 745Q332 614 375 553T518 492Q568 492 602 507T659 553T690 632T700 748Q700 886 658 952T516 1018Q417 1018 375 951T332 745ZM407 1430Q407 1466 416 1490T441 1529T478 1550T524 1556Q548 1556 569 1550T606 1529T631 1490T641 1430Q641
1394 632 1370T606 1331T569 1310T524 1303Q499 1303 478 1309T441 1331T416 1370T407 1430Z" />
<glyph unicode="&#x122;" glyph-name="Gcommaaccent" horiz-adv-x="1462" d="M821 -20Q643 -20 511 34T291 187T160 425T117 733Q117 899 162 1037T298 1274T523 1428T834 1483Q948 1483 1032 1466T1173 1417T1258 1344T1286 1253Q1286 1220 1271 1194T1231 1149T1171
1120T1096 1110Q1096 1158 1082 1205T1036 1289T952 1350T825 1374Q695 1374 604 1332T454 1208T370 1007T344 733Q344 580 371 461T459 261T617 138T854 96Q913 96 968 102T1067 121V451Q1067 496 1054 523T1017 565T964 585T899 590H891V676H1423V590H1415Q1386
590 1360 585T1315 565T1285 520T1274 442V74Q1171 26 1062 3T821 -20ZM668 -426Q685 -358 701 -279T730 -125H908V-145Q894 -177 874 -217T831 -299T783 -381T738 -453H668V-426Z" />
<glyph unicode="&#x123;" glyph-name="gcommaaccent" horiz-adv-x="1102" d="M1077 1055Q1077 1033 1071 1014T1051 980T1018 957T969 948Q969 960 966 972T956 994T935 1011T901 1018Q875 1018 854 1012T813 993Q848 950 870 892T893 745Q893 669 870 605T802
493T687 420T524 393Q512 393 497 393T467 394T439 396T418 399Q398 389 380 377T349 350T327 316T319 274Q319 249 328 234T355 211T395 200T446 197H678Q770 197 834 174T938 111T997 14T1016 -109Q1016 -197 984 -268T884 -388T715 -465T473 -492Q259 -492 153
-413T47 -193Q47 -133 68 -88T124 -11T206 41T303 70Q282 79 262 94T226 130T200 178T190 238Q190 299 222 343T324 430Q280 448 246 479T188 551T152 640T139 739Q139 828 163 898T235 1017T355 1092T524 1118Q561 1118 597 1113T663 1098T718 1076T758 1051Q773
1067 793 1086T838 1122T892 1150T956 1161Q987 1161 1009 1153T1047 1130T1069 1096T1077 1055ZM213 -180Q213 -225 225 -264T267 -331T348 -375T477 -391Q587 -391 658 -373T772 -321T831 -243T848 -143Q848 -96 835 -66T795 -18T729 7T639 14H438Q395 14 355
7T283 -22T232 -81T213 -180ZM332 745Q332 614 375 553T518 492Q568 492 602 507T659 553T690 632T700 748Q700 886 658 952T516 1018Q417 1018 375 951T332 745ZM680 1542Q663 1474 647 1395T618 1241H440V1262Q454 1294 474 1334T517 1415T565 1497T610 1569H680V1542Z"
/>
<glyph unicode="&#x124;" glyph-name="Hcircumflex" horiz-adv-x="1624" d="M950 0V86H977Q1012 86 1042 91T1095 111T1131 156T1145 233V713H479V233Q479 185 492 156T528 112T582 91T647 86H674V0H78V86H104Q139 86 169 91T223 111T259 156T272 233V1237Q272
1282 259 1309T222 1352T169 1371T104 1376H78V1462H674V1376H647Q613 1376 582 1371T529 1351T493 1306T479 1229V815H1145V1229Q1145 1277 1132 1306T1096 1350T1043 1371T977 1376H950V1462H1546V1376H1520Q1485 1376 1455 1371T1401 1351T1365 1306T1352 1229V223Q1352
178 1365 151T1402 109T1455 91T1520 86H1546V0H950ZM510 1606Q534 1635 563 1673T620 1751T674 1832T715 1907H909Q925 1873 950 1833T1003 1752T1061 1673T1114 1606V1579H1034Q975 1613 916 1663T811 1763Q764 1714 706 1664T590 1579H510V1606Z" />
<glyph unicode="&#x125;" glyph-name="hcircumflex" horiz-adv-x="1300" d="M588 86V0H37V86H53Q88 86 118 91T171 111T207 156T221 233V1331Q221 1376 208 1403T171 1446T118 1465T53 1470H37V1556H414V1106Q414 1078 413 1048T410 991Q408 961 406 932H416Q508
1118 717 1118Q804 1118 871 1095T985 1023T1055 898T1079 717V233Q1079 185 1091 156T1124 112T1174 91T1237 86H1243V0H887V707Q887 774 875 826T837 914T767 968T662 987Q598 987 552 964T475 897T429 792T414 655V223Q414 178 427 151T464 109T517 91T582 86H588ZM332
1661Q356 1690 385 1728T442 1806T496 1887T537 1962H731Q747 1928 772 1888T825 1807T883 1728T936 1661V1634H856Q797 1668 738 1718T633 1818Q586 1769 528 1719T412 1634H332V1661Z" />
<glyph unicode="&#x126;" glyph-name="Hbar" horiz-adv-x="1624" d="M1352 1022V223Q1352 178 1365 151T1402 109T1455 91T1520 86H1546V0H950V86H977Q1012 86 1042 91T1095 111T1131 156T1145 233V713H479V233Q479 185 492 156T528 112T582 91T647 86H674V0H78V86H104Q139
86 169 91T223 111T259 156T272 233V1022H78V1122H272V1237Q272 1282 259 1309T222 1352T169 1371T104 1376H78V1462H674V1376H647Q613 1376 582 1371T529 1351T493 1306T479 1229V1122H1145V1229Q1145 1277 1132 1306T1096 1350T1043 1371T977 1376H950V1462H1546V1376H1520Q1485
1376 1455 1371T1401 1351T1365 1306T1352 1229V1122H1546V1022H1352ZM1145 815V1022H479V815H1145Z" />
<glyph unicode="&#x127;" glyph-name="hbar" horiz-adv-x="1300" d="M588 86V0H37V86H53Q88 86 118 91T171 111T207 156T221 233V1214H35V1311H221V1331Q221 1376 208 1403T171 1446T118 1465T53 1470H37V1556H414V1311H764V1214H414V1065Q414 1037 413 1007T410
950Q408 920 406 891H416Q508 1077 717 1077Q804 1077 871 1054T985 982T1055 857T1079 676V233Q1079 185 1091 156T1124 112T1174 91T1237 86H1243V0H887V666Q887 733 875 785T837 873T767 927T662 946Q598 946 552 923T475 856T429 751T414 614V223Q414 178 427
151T464 109T517 91T582 86H588Z" />
<glyph unicode="&#x128;" glyph-name="Itilde" horiz-adv-x="752" d="M78 0V86H104Q139 86 169 91T223 111T259 156T272 233V1229Q272 1277 259 1306T223 1350T170 1371T104 1376H78V1462H674V1376H647Q613 1376 582 1371T529 1351T493 1306T479 1229V233Q479
185 492 156T528 112T582 91T647 86H674V0H78ZM548 1712Q578 1712 596 1721T625 1745T640 1780T648 1821H740Q737 1774 724 1731T684 1653T619 1599T525 1579Q470 1579 426 1599T343 1643T271 1688T204 1708Q173 1708 155 1699T127 1675T111 1641T103 1600H11Q14
1647 27 1690T67 1767T133 1821T228 1841Q283 1841 327 1821T410 1777T482 1732T548 1712Z" />
<glyph unicode="&#x129;" glyph-name="itilde" horiz-adv-x="655" d="M74 86Q108 86 138 90T192 109T228 150T242 223V872Q242 917 229 944T192 987T139 1007T74 1012H68V1098H434V233Q434 185 447 156T483 112T537 91T602 86H629V0H47V86H74ZM489 1374Q519 1374
537 1383T566 1407T581 1442T589 1483H681Q678 1436 665 1393T625 1315T560 1261T466 1241Q411 1241 367 1261T284 1305T212 1350T145 1370Q114 1370 96 1361T68 1337T52 1303T44 1262H-48Q-45 1309 -32 1352T8 1429T74 1483T169 1503Q224 1503 268 1483T351 1439T423
1394T489 1374Z" />
<glyph unicode="&#x12a;" glyph-name="Imacron" horiz-adv-x="752" d="M78 0V86H104Q139 86 169 91T223 111T259 156T272 233V1229Q272 1277 259 1306T223 1350T170 1371T104 1376H78V1462H674V1376H647Q613 1376 582 1371T529 1351T493 1306T479 1229V233Q479
185 492 156T528 112T582 91T647 86H674V0H78ZM673 1579H79V1700H673V1579Z" />
<glyph unicode="&#x12b;" glyph-name="imacron" horiz-adv-x="655" d="M74 86Q108 86 138 90T192 109T228 150T242 223V872Q242 917 229 944T192 987T139 1007T74 1012H68V1098H434V233Q434 185 447 156T483 112T537 91T602 86H629V0H47V86H74ZM595 1241H1V1362H595V1241Z"
/>
<glyph unicode="&#x12c;" glyph-name="Ibreve" horiz-adv-x="752" d="M78 0V86H104Q139 86 169 91T223 111T259 156T272 233V1229Q272 1277 259 1306T223 1350T170 1371T104 1376H78V1462H674V1376H647Q613 1376 582 1371T529 1351T493 1306T479 1229V233Q479
185 492 156T528 112T582 91T647 86H674V0H78ZM376 1579Q303 1579 250 1601T161 1662T109 1751T89 1860H183Q200 1785 250 1753T376 1720Q451 1720 501 1752T568 1860H663Q661 1802 644 1751T591 1662T502 1602T376 1579Z" />
<glyph unicode="&#x12d;" glyph-name="ibreve" horiz-adv-x="655" d="M74 86Q108 86 138 90T192 109T228 150T242 223V872Q242 917 229 944T192 987T139 1007T74 1012H68V1098H434V233Q434 185 447 156T483 112T537 91T602 86H629V0H47V86H74ZM312 1241Q239 1241
186 1263T97 1324T45 1413T25 1522H119Q136 1447 186 1415T312 1382Q387 1382 437 1414T504 1522H599Q597 1464 580 1413T527 1324T438 1264T312 1241Z" />
<glyph unicode="&#x12e;" glyph-name="Iogonek" horiz-adv-x="752" d="M78 0V86H104Q139 86 169 91T223 111T259 156T272 233V1229Q272 1277 259 1306T223 1350T170 1371T104 1376H78V1462H674V1376H647Q613 1376 582 1371T529 1351T493 1306T479 1229V233Q479
185 492 156T528 112T582 91T647 86H674V0H78ZM181 -266Q181 -218 201 -175T255 -97T332 -36T423 0H540Q508 -10 474 -30T413 -79T367 -148T349 -236Q349 -270 359 -294T389 -334T434 -357T491 -365Q518 -365 550 -361T620 -348V-459Q604 -467 584 -473T541 -483T499
-489T462 -492Q397 -492 345 -479T257 -438T201 -368T181 -266Z" />
<glyph unicode="&#x12f;" glyph-name="iogonek" horiz-adv-x="655" d="M74 86Q108 86 138 90T192 109T228 150T242 223V872Q242 917 229 944T192 987T139 1007T74 1012H68V1098H434V233Q434 185 447 156T483 112T537 91T602 86H629V0H47V86H74ZM213 1430Q213 1466
222 1490T247 1529T284 1550T330 1556Q354 1556 375 1550T411 1529T436 1490T446 1430Q446 1394 437 1370T412 1331T375 1310T330 1303Q305 1303 284 1309T247 1331T222 1370T213 1430ZM103 -266Q103 -218 123 -175T177 -97T254 -36T345 0H462Q430 -10 396 -30T335
-79T289 -148T271 -236Q271 -270 281 -294T311 -334T356 -357T413 -365Q440 -365 472 -361T542 -348V-459Q526 -467 506 -473T463 -483T421 -489T384 -492Q319 -492 267 -479T179 -438T123 -368T103 -266Z" />
<glyph unicode="&#x130;" glyph-name="Idot" horiz-adv-x="752" d="M78 0V86H104Q139 86 169 91T223 111T259 156T272 233V1229Q272 1277 259 1306T223 1350T170 1371T104 1376H78V1462H674V1376H647Q613 1376 582 1371T529 1351T493 1306T479 1229V233Q479 185
492 156T528 112T582 91T647 86H674V0H78ZM258 1768Q258 1804 267 1828T292 1867T329 1888T375 1894Q399 1894 420 1888T457 1867T482 1828T492 1768Q492 1732 483 1708T457 1669T420 1648T375 1641Q350 1641 329 1647T292 1669T267 1708T258 1768Z" />
<glyph unicode="&#x131;" glyph-name="dotlessi" horiz-adv-x="655" d="M74 86Q108 86 138 90T192 109T228 150T242 223V872Q242 917 229 944T192 987T139 1007T74 1012H68V1098H434V233Q434 185 447 156T483 112T537 91T602 86H629V0H47V86H74Z" />
<glyph unicode="&#x132;" glyph-name="IJ" horiz-adv-x="1425" d="M78 0V86H104Q139 86 169 91T223 111T259 156T272 233V1229Q272 1277 259 1306T223 1350T170 1371T104 1376H78V1462H674V1376H647Q613 1376 582 1371T529 1351T493 1306T479 1229V233Q479 185
492 156T528 112T582 91T647 86H674V0H78ZM671 -395H690Q756 -395 807 -377T894 -315T947 -199T966 -18V1237Q966 1282 953 1309T916 1352T863 1371T798 1376H772V1462H1368V1376H1341Q1307 1376 1276 1371T1223 1351T1187 1306T1173 1229V-16Q1173 -154 1137 -245T1038
-391T890 -469T706 -492H671V-395Z" />
<glyph unicode="&#x133;" glyph-name="ij" horiz-adv-x="1270" d="M74 86Q108 86 138 90T192 109T228 150T242 223V872Q242 917 229 944T192 987T139 1007T74 1012H68V1098H434V233Q434 185 447 156T483 112T537 91T602 86H629V0H47V86H74ZM213 1430Q213 1466
222 1490T247 1529T284 1550T330 1556Q354 1556 375 1550T411 1529T436 1490T446 1430Q446 1394 437 1370T412 1331T375 1310T330 1303Q305 1303 284 1309T247 1331T222 1370T213 1430ZM1069 1098V-16Q1069 -154 1039 -245T955 -391T827 -469T663 -492H630V-395H645Q700
-395 743 -377T815 -315T860 -199T876 -18V872Q876 917 863 944T826 987T773 1007T708 1012H702V1098H1069ZM848 1430Q848 1466 857 1490T881 1529T918 1550T964 1556Q988 1556 1009 1550T1046 1529T1071 1490T1081 1430Q1081 1394 1072 1370T1047 1331T1010 1310T964
1303Q940 1303 919 1309T882 1331T857 1370T848 1430Z" />
<glyph unicode="&#x134;" glyph-name="Jcircumflex" horiz-adv-x="731" d="M-23 -395H-4Q62 -395 113 -377T200 -315T253 -199T272 -18V1237Q272 1282 259 1309T222 1352T169 1371T104 1376H78V1462H674V1376H647Q613 1376 582 1371T529 1351T493 1306T479 1229V-16Q479
-154 443 -245T344 -391T196 -469T12 -492H-23V-395ZM73 1606Q97 1635 126 1673T183 1751T237 1832T278 1907H472Q488 1873 513 1833T566 1752T624 1673T677 1606V1579H597Q538 1613 479 1663T374 1763Q327 1714 269 1664T153 1579H73V1606Z" />
<glyph unicode="&#x135;" glyph-name="jcircumflex" horiz-adv-x="614" d="M414 1098V-16Q414 -154 384 -245T300 -391T172 -469T8 -492H-25V-395H-10Q45 -395 88 -377T160 -315T205 -199T221 -18V872Q221 917 208 944T171 987T118 1007T53 1012H47V1098H414ZM-23
1268Q1 1297 30 1335T87 1413T141 1494T182 1569H376Q392 1535 417 1495T470 1414T528 1335T581 1268V1241H501Q442 1275 383 1325T278 1425Q231 1376 173 1326T57 1241H-23V1268Z" />
<glyph unicode="&#x136;" glyph-name="Kcommaaccent" horiz-adv-x="1434" d="M903 1137Q936 1175 958 1204T992 1258T1010 1300T1016 1333Q1016 1359 991 1368T915 1378V1462H1368V1378Q1333 1378 1301 1365T1236 1327T1169 1267T1094 1186L797 852L1229 250Q1288
169 1342 128T1454 86H1458V0H1436Q1333 0 1267 8T1156 37T1078 93T1006 184L653 690L479 549V233Q479 185 492 156T528 112T582 91T647 86H674V0H78V86H104Q138 86 168 90T222 109T258 150T272 223V1237Q272 1282 259 1309T222 1352T169 1371T104 1376H78V1462H674V1376H647Q613
1376 582 1371T529 1351T493 1306T479 1229V651L903 1137ZM622 -426Q639 -358 655 -279T684 -125H862V-145Q848 -177 828 -217T785 -299T737 -381T692 -453H622V-426Z" />
<glyph unicode="&#x137;" glyph-name="kcommaaccent" horiz-adv-x="1198" d="M694 659L967 254Q1020 172 1072 129T1194 86H1200V0H1171Q1082 0 1025 5T925 31T848 91T770 199L565 520L414 408V223Q414 178 427 151T464 109T517 91T582 86H588V0H37V86H53Q88 86
118 91T171 111T207 156T221 233V1331Q221 1376 208 1403T171 1446T118 1465T53 1470H37V1556H414V766Q414 738 413 695T410 609Q408 561 406 508L662 788Q695 825 716 853T751 902T769 939T774 971Q774 997 750 1004T674 1012V1098H1126V1012Q1055 1012 987 962T838
821L694 659ZM504 -426Q521 -358 537 -279T566 -125H744V-145Q730 -177 710 -217T667 -299T619 -381T574 -453H504V-426Z" />
<glyph unicode="&#x138;" glyph-name="kgreenlandic" horiz-adv-x="1198" d="M694 659L967 254Q1020 172 1072 129T1194 86H1200V0H1171Q1082 0 1025 5T925 31T848 91T770 199L565 520L414 408V223Q414 178 427 151T464 109T517 91T582 86H588V0H37V86H53Q88 86
118 91T171 111T207 156T221 233V873Q221 918 208 945T171 988T118 1007T53 1012H37V1098H414V766Q414 738 413 695T410 609Q408 561 406 508L662 788Q695 825 716 853T751 902T769 939T774 971Q774 997 750 1004T674 1012V1098H1126V1012Q1055 1012 987 962T838
821L694 659Z" />
<glyph unicode="&#x139;" glyph-name="Lacute" horiz-adv-x="1276" d="M78 0V86H104Q139 86 169 91T223 111T259 156T272 233V1229Q272 1277 259 1306T223 1350T170 1371T104 1376H78V1462H674V1376H647Q613 1376 583 1372T529 1352T493 1310T479 1237V102H883Q929
102 961 118T1015 161T1047 221T1063 287L1083 440H1190L1176 0H78ZM304 1606Q327 1635 351 1673T399 1751T444 1832T482 1907H701V1886Q682 1859 645 1819T563 1734T471 1649T382 1579H304V1606Z" />
<glyph unicode="&#x13a;" glyph-name="lacute" horiz-adv-x="635" d="M53 86Q88 86 118 91T171 111T207 156T221 233V1331Q221 1376 208 1403T171 1446T118 1465T53 1470H27V1556H414V233Q414 185 427 156T463 112T516 91T582 86H608V0H27V86H53ZM216 1663Q239
1692 263 1730T311 1808T356 1889T394 1964H613V1943Q594 1916 557 1876T475 1791T383 1706T294 1636H216V1663Z" />
<glyph unicode="&#x13b;" glyph-name="Lcommaaccent" horiz-adv-x="1276" d="M78 0V86H104Q139 86 169 91T223 111T259 156T272 233V1229Q272 1277 259 1306T223 1350T170 1371T104 1376H78V1462H674V1376H647Q613 1376 583 1372T529 1352T493 1310T479 1237V102H883Q929
102 961 118T1015 161T1047 221T1063 287L1083 440H1190L1176 0H78ZM532 -426Q549 -358 565 -279T594 -125H772V-145Q758 -177 738 -217T695 -299T647 -381T602 -453H532V-426Z" />
<glyph unicode="&#x13c;" glyph-name="lcommaaccent" horiz-adv-x="635" d="M53 86Q88 86 118 91T171 111T207 156T221 233V1331Q221 1376 208 1403T171 1446T118 1465T53 1470H27V1556H414V233Q414 185 427 156T463 112T516 91T582 86H608V0H27V86H53ZM173 -426Q190
-358 206 -279T235 -125H413V-145Q399 -177 379 -217T336 -299T288 -381T243 -453H173V-426Z" />
<glyph unicode="&#x13d;" glyph-name="Lcaron" horiz-adv-x="1276" d="M78 0V86H104Q139 86 169 91T223 111T259 156T272 233V1229Q272 1277 259 1306T223 1350T170 1371T104 1376H78V1462H674V1376H647Q613 1376 583 1372T529 1352T493 1310T479 1237V102H883Q929
102 961 118T1015 161T1047 221T1063 287L1083 440H1190L1176 0H78ZM864 1162Q881 1231 897 1310T926 1463H1104V1443Q1090 1411 1070 1371T1027 1290T979 1208T934 1136H864V1162Z" />
<glyph unicode="&#x13e;" glyph-name="lcaron" horiz-adv-x="635" d="M53 86Q88 86 118 91T171 111T207 156T221 233V1331Q221 1376 208 1403T171 1446T118 1465T53 1470H27V1556H414V233Q414 185 427 156T463 112T516 91T582 86H608V0H27V86H53ZM526 1255Q543
1324 559 1403T588 1556H766V1536Q752 1504 732 1464T689 1383T641 1301T596 1229H526V1255Z" />
<glyph unicode="&#x13f;" glyph-name="Ldot" horiz-adv-x="1276" d="M78 0V86H104Q139 86 169 91T223 111T259 156T272 233V1229Q272 1277 259 1306T223 1350T170 1371T104 1376H78V1462H674V1376H647Q613 1376 583 1372T529 1352T493 1310T479 1237V102H883Q929
102 961 118T1015 161T1047 221T1063 287L1083 440H1190L1176 0H78ZM768 786Q768 822 777 846T802 885T839 906T885 912Q909 912 930 906T967 885T992 846T1002 786Q1002 750 993 726T967 687T930 666T885 659Q860 659 839 665T802 687T777 726T768 786Z" />
<glyph unicode="&#x140;" glyph-name="ldot" horiz-adv-x="758" d="M53 86Q88 86 118 91T171 111T207 156T221 233V1331Q221 1376 208 1403T171 1446T118 1465T53 1470H27V1556H414V233Q414 185 427 156T463 112T516 91T582 86H608V0H27V86H53ZM579 673Q579 709
588 733T613 772T650 793T696 799Q720 799 741 793T778 772T803 733T813 673Q813 637 804 613T778 574T741 553T696 546Q671 546 650 552T613 574T588 613T579 673Z" />
<glyph unicode="&#x141;" glyph-name="Lslash" horiz-adv-x="1276" d="M78 584L272 696V1229Q272 1277 259 1306T223 1350T170 1371T104 1376H78V1462H674V1376H647Q613 1376 583 1372T529 1352T493 1310T479 1237V815L799 1001V883L479 698V102H883Q929 102 961
118T1015 161T1047 221T1063 287L1083 440H1190L1176 0H78V86H104Q139 86 169 91T223 111T259 156T272 233V580L78 469V584Z" />
<glyph unicode="&#x142;" glyph-name="lslash" horiz-adv-x="664" d="M252 684V1331Q252 1376 239 1403T202 1446T149 1465T84 1470H57V1556H444V795L637 905V786L444 678V233Q444 185 457 156T493 112T547 91T612 86H639V0H57V86H84Q119 86 149 91T202 111T238
156T252 233V567L78 469V584L252 684Z" />
<glyph unicode="&#x143;" glyph-name="Nacute" horiz-adv-x="1563" d="M1165 0L397 1180V233Q397 185 410 156T446 112T500 91T565 86H592V0H78V86H104Q139 86 169 91T223 111T259 156T272 233V1237Q272 1282 259 1309T222 1352T169 1371T104 1376H78V1462H453L1186
330V1237Q1186 1282 1173 1309T1136 1352T1083 1371T1018 1376H991V1462H1505V1376H1479Q1444 1376 1414 1371T1360 1351T1324 1306T1311 1229V0H1165ZM706 1606Q729 1635 753 1673T801 1751T846 1832T884 1907H1103V1886Q1084 1859 1047 1819T965 1734T873 1649T784
1579H706V1606Z" />
<glyph unicode="&#x144;" glyph-name="nacute" horiz-adv-x="1321" d="M608 86V0H57V86H74Q109 86 139 91T192 111T228 156T242 233V872Q242 917 229 944T192 987T139 1007T74 1012H68V1098H399L426 932H436Q468 989 503 1025T578 1082T662 1110T756 1118Q837
1118 900 1095T1008 1023T1076 898T1100 717V233Q1100 185 1111 156T1144 112T1194 91T1257 86H1264V0H907V707Q907 774 895 826T857 914T787 968T682 987Q612 987 565 960T488 887T447 781T434 655V223Q434 178 447 151T484 109T537 91T602 86H608ZM569 1268Q592
1297 616 1335T664 1413T709 1494T747 1569H966V1548Q947 1521 910 1481T828 1396T736 1311T647 1241H569V1268Z" />
<glyph unicode="&#x145;" glyph-name="Ncommaaccent" horiz-adv-x="1563" d="M1165 0L397 1180V233Q397 185 410 156T446 112T500 91T565 86H592V0H78V86H104Q139 86 169 91T223 111T259 156T272 233V1237Q272 1282 259 1309T222 1352T169 1371T104 1376H78V1462H453L1186
330V1237Q1186 1282 1173 1309T1136 1352T1083 1371T1018 1376H991V1462H1505V1376H1479Q1444 1376 1414 1371T1360 1351T1324 1306T1311 1229V0H1165ZM682 -426Q699 -358 715 -279T744 -125H922V-145Q908 -177 888 -217T845 -299T797 -381T752 -453H682V-426Z"
/>
<glyph unicode="&#x146;" glyph-name="ncommaaccent" horiz-adv-x="1321" d="M608 86V0H57V86H74Q109 86 139 91T192 111T228 156T242 233V872Q242 917 229 944T192 987T139 1007T74 1012H68V1098H399L426 932H436Q468 989 503 1025T578 1082T662 1110T756 1118Q837
1118 900 1095T1008 1023T1076 898T1100 717V233Q1100 185 1111 156T1144 112T1194 91T1257 86H1264V0H907V707Q907 774 895 826T857 914T787 968T682 987Q612 987 565 960T488 887T447 781T434 655V223Q434 178 447 151T484 109T537 91T602 86H608ZM543 -426Q560
-358 576 -279T605 -125H783V-145Q769 -177 749 -217T706 -299T658 -381T613 -453H543V-426Z" />
<glyph unicode="&#x147;" glyph-name="Ncaron" horiz-adv-x="1563" d="M1165 0L397 1180V233Q397 185 410 156T446 112T500 91T565 86H592V0H78V86H104Q139 86 169 91T223 111T259 156T272 233V1237Q272 1282 259 1309T222 1352T169 1371T104 1376H78V1462H453L1186
330V1237Q1186 1282 1173 1309T1136 1352T1083 1371T1018 1376H991V1462H1505V1376H1479Q1444 1376 1414 1371T1360 1351T1324 1306T1311 1229V0H1165ZM527 1907H607Q636 1889 665 1867T723 1821T778 1771T828 1720Q851 1745 877 1770T933 1820T992 1867T1051 1907H1131V1880Q1107
1851 1078 1813T1021 1735T967 1654T926 1579H732Q716 1614 691 1654T638 1734T580 1813T527 1880V1907Z" />
<glyph unicode="&#x148;" glyph-name="ncaron" horiz-adv-x="1321" d="M608 86V0H57V86H74Q109 86 139 91T192 111T228 156T242 233V872Q242 917 229 944T192 987T139 1007T74 1012H68V1098H399L426 932H436Q468 989 503 1025T578 1082T662 1110T756 1118Q837
1118 900 1095T1008 1023T1076 898T1100 717V233Q1100 185 1111 156T1144 112T1194 91T1257 86H1264V0H907V707Q907 774 895 826T857 914T787 968T682 987Q612 987 565 960T488 887T447 781T434 655V223Q434 178 447 151T484 109T537 91T602 86H608ZM375 1569H455Q484
1551 513 1529T571 1483T626 1433T676 1382Q699 1407 725 1432T781 1482T840 1529T899 1569H979V1542Q955 1513 926 1475T869 1397T815 1316T774 1241H580Q564 1276 539 1316T486 1396T428 1475T375 1542V1569Z" />
<glyph unicode="&#x149;" glyph-name="napostrophe" horiz-adv-x="1597" d="M884 86V0H333V86H350Q385 86 415 91T468 111T504 156T518 233V872Q518 917 505 944T468 987T415 1007T350 1012H344V1098H675L702 932H712Q744 989 779 1025T854 1082T938 1110T1032
1118Q1113 1118 1176 1095T1284 1023T1352 898T1376 717V233Q1376 185 1387 156T1420 112T1470 91T1533 86H1540V0H1183V707Q1183 774 1171 826T1133 914T1063 968T958 987Q888 987 841 960T764 887T723 781T710 655V223Q710 178 723 151T760 109T813 91T878 86H884ZM593
1284Q593 1219 575 1158T517 1045T413 952T257 883V969Q358 1001 405 1047T452 1153Q452 1173 441 1186T413 1210T377 1231T341 1255T313 1289T302 1341Q302 1400 340 1431T436 1462Q468 1462 496 1451T546 1417T580 1361T593 1284Z" />
<glyph unicode="&#x14a;" glyph-name="Eng" horiz-adv-x="1624" d="M1372 -154T1353 -245T1294 -391T1197 -469T1061 -492H1014V-395H1042Q1092 -395 1130 -377T1194 -315T1233 -199T1247 -18V0L397 1200V233Q397 185 410 156T446 112T500 91T565 86H592V0H78V86H104Q139
86 169 91T223 111T259 156T272 233V1237Q272 1282 259 1309T222 1352T169 1371T104 1376H78V1462H453L1247 338V1237Q1247 1282 1234 1309T1197 1352T1144 1371T1079 1376H1053V1462H1567V1376H1540Q1506 1376 1475 1371T1422 1351T1386 1306T1372 1229V-16Q1372
-154 1353 -245Z" />
<glyph unicode="&#x14b;" glyph-name="eng" horiz-adv-x="1300" d="M608 86V0H57V86H74Q109 86 139 91T192 111T228 156T242 233V872Q242 917 229 944T192 987T139 1007T74 1012H68V1098H399L426 932H436Q468 989 503 1025T578 1082T662 1110T756 1118Q837 1118
900 1095T1008 1023T1076 898T1100 717V-16Q1100 -154 1072 -245T994 -391T874 -469T721 -492H690V-395H702Q752 -395 790 -377T854 -315T893 -199T907 -18V707Q907 774 895 826T857 914T787 968T682 987Q612 987 565 960T488 887T447 781T434 655V223Q434 178
447 151T484 109T537 91T602 86H608Z" />
<glyph unicode="&#x14c;" glyph-name="Omacron" horiz-adv-x="1520" d="M1403 733Q1403 564 1361 425T1237 187T1035 34T760 -20Q597 -20 476 34T275 187T155 425T115 735Q115 905 155 1043T275 1280T477 1431T762 1485Q917 1485 1036 1432T1237 1280T1361 1043T1403
733ZM342 733Q342 581 364 462T437 260T566 134T760 90Q874 90 953 133T1082 259T1154 461T1176 733Q1176 885 1154 1004T1083 1206T955 1331T762 1374Q648 1374 568 1331T438 1206T365 1005T342 733ZM1053 1579H459V1700H1053V1579Z" />
<glyph unicode="&#x14d;" glyph-name="omacron" horiz-adv-x="1182" d="M1069 551Q1069 262 947 121T588 -20Q477 -20 389 15T240 121T146 299T113 551Q113 838 234 978T594 1118Q705 1118 793 1084T942 979T1036 802T1069 551ZM311 551Q311 437 326 350T374 205T461
116T592 86Q669 86 722 116T808 204T855 350T870 551Q870 665 855 751T807 894T721 981T590 1010Q513 1010 460 981T374 895T326 751T311 551ZM883 1241H289V1362H883V1241Z" />
<glyph unicode="&#x14e;" glyph-name="Obreve" horiz-adv-x="1520" d="M1403 733Q1403 564 1361 425T1237 187T1035 34T760 -20Q597 -20 476 34T275 187T155 425T115 735Q115 905 155 1043T275 1280T477 1431T762 1485Q917 1485 1036 1432T1237 1280T1361 1043T1403
733ZM342 733Q342 581 364 462T437 260T566 134T760 90Q874 90 953 133T1082 259T1154 461T1176 733Q1176 885 1154 1004T1083 1206T955 1331T762 1374Q648 1374 568 1331T438 1206T365 1005T342 733ZM760 1579Q687 1579 634 1601T545 1662T493 1751T473 1860H567Q584
1785 634 1753T760 1720Q835 1720 885 1752T952 1860H1047Q1045 1802 1028 1751T975 1662T886 1602T760 1579Z" />
<glyph unicode="&#x14f;" glyph-name="obreve" horiz-adv-x="1182" d="M1069 551Q1069 262 947 121T588 -20Q477 -20 389 15T240 121T146 299T113 551Q113 838 234 978T594 1118Q705 1118 793 1084T942 979T1036 802T1069 551ZM311 551Q311 437 326 350T374 205T461
116T592 86Q669 86 722 116T808 204T855 350T870 551Q870 665 855 751T807 894T721 981T590 1010Q513 1010 460 981T374 895T326 751T311 551ZM590 1241Q517 1241 464 1263T375 1324T323 1413T303 1522H397Q414 1447 464 1415T590 1382Q665 1382 715 1414T782 1522H877Q875
1464 858 1413T805 1324T716 1264T590 1241Z" />
<glyph unicode="&#x150;" glyph-name="Ohungarumlaut" horiz-adv-x="1520" d="M1403 733Q1403 564 1361 425T1237 187T1035 34T760 -20Q597 -20 476 34T275 187T155 425T115 735Q115 905 155 1043T275 1280T477 1431T762 1485Q917 1485 1036 1432T1237 1280T1361
1043T1403 733ZM342 733Q342 581 364 462T437 260T566 134T760 90Q874 90 953 133T1082 259T1154 461T1176 733Q1176 885 1154 1004T1083 1206T955 1331T762 1374Q648 1374 568 1331T438 1206T365 1005T342 733ZM445 1579V1606Q466 1639 490 1677T537 1755T582
1834T619 1907H838V1886Q827 1868 808 1844T763 1791T710 1734T652 1676T596 1623T545 1579H445ZM814 1579V1606Q835 1639 859 1677T906 1755T951 1834T988 1907H1207V1886Q1196 1868 1177 1844T1132 1791T1079 1734T1021 1676T965 1623T914 1579H814Z" />
<glyph unicode="&#x151;" glyph-name="ohungarumlaut" horiz-adv-x="1182" d="M1069 551Q1069 262 947 121T588 -20Q477 -20 389 15T240 121T146 299T113 551Q113 838 234 978T594 1118Q705 1118 793 1084T942 979T1036 802T1069 551ZM311 551Q311 437 326 350T374
205T461 116T592 86Q669 86 722 116T808 204T855 350T870 551Q870 665 855 751T807 894T721 981T590 1010Q513 1010 460 981T374 895T326 751T311 551ZM279 1241V1268Q300 1301 324 1339T371 1417T416 1496T453 1569H672V1548Q661 1530 642 1506T597 1453T544 1396T486
1338T430 1285T379 1241H279ZM648 1241V1268Q669 1301 693 1339T740 1417T785 1496T822 1569H1041V1548Q1030 1530 1011 1506T966 1453T913 1396T855 1338T799 1285T748 1241H648Z" />
<glyph unicode="&#x152;" glyph-name="OE" horiz-adv-x="1964" d="M1167 102H1563Q1611 102 1645 115T1703 152T1739 205T1757 270L1772 358H1878L1864 0H971Q950 -5 924 -8T869 -14T812 -18T760 -20Q597 -20 476 34T275 187T155 425T115 735Q115 905 155 1043T275
1280T477 1431T762 1485Q786 1485 814 1484T871 1479T926 1472T973 1462H1798L1808 1104H1702L1692 1192Q1688 1226 1677 1256T1644 1310T1590 1346T1511 1360H1167V815H1661V715H1167V102ZM760 90Q820 90 870 98T961 121V1339Q920 1356 871 1365T762 1374Q648
1374 568 1331T438 1206T365 1005T342 733Q342 581 364 462T437 260T566 134T760 90Z" />
<glyph unicode="&#x153;" glyph-name="oe" horiz-adv-x="1853" d="M311 551Q311 437 326 350T374 205T461 116T592 86Q668 86 720 115T806 201T854 344T870 541V569Q869 679 853 761T804 899T718 982T590 1010Q513 1010 460 981T374 895T326 751T311 551ZM1321
1008Q1206 1008 1145 916T1073 645H1544Q1544 726 1532 793T1494 908T1426 982T1321 1008ZM1346 -20Q1216 -20 1125 32T973 184Q854 -20 588 -20Q477 -20 389 15T240 121T146 299T113 551Q113 838 234 978T594 1118Q718 1118 811 1069T967 920Q1025 1020 1114 1069T1325
1118Q1424 1118 1503 1087T1637 995T1721 842T1751 629V535H1069Q1071 436 1088 358T1141 224T1234 139T1374 109Q1427 109 1472 121T1555 153T1620 198T1667 252Q1681 246 1693 227T1706 182Q1706 151 1684 116T1617 50T1505 0T1346 -20Z" />
<glyph unicode="&#x154;" glyph-name="Racute" horiz-adv-x="1343" d="M1135 250Q1187 168 1236 127T1350 86H1356V0H1327Q1231 0 1170 7T1065 34T992 90T926 184L649 645H479V223Q479 178 492 151T529 109T582 91T647 86H674V0H78V86H104Q138 86 168 90T222 109T258
150T272 223V1237Q272 1282 259 1309T222 1352T169 1371T104 1376H78V1462H629Q895 1462 1025 1364T1155 1067Q1155 985 1129 924T1059 817T962 742T854 694L1135 250ZM479 741H623Q713 741 773 761T869 821T920 921T936 1061Q936 1143 919 1200T864 1294T766 1347T618
1364H479V741ZM524 1606Q547 1635 571 1673T619 1751T664 1832T702 1907H921V1886Q902 1859 865 1819T783 1734T691 1649T602 1579H524V1606Z" />
<glyph unicode="&#x155;" glyph-name="racute" horiz-adv-x="965" d="M659 0H68V86H74Q109 86 139 91T192 111T228 156T242 233V872Q242 917 229 944T192 987T139 1007T74 1012H68V1098H383L422 895H432Q452 941 473 981T524 1052T600 1100T713 1118Q825 1118
879 1079T934 969Q934 937 924 910T890 864T831 834T743 823Q743 908 719 945T635 983Q597 983 567 962T515 905T477 823T452 729T438 632T434 545V223Q434 178 447 151T484 109T537 91T602 86H659V0ZM630 1268Q653 1297 677 1335T725 1413T770 1494T808 1569H1027V1548Q1008
1521 971 1481T889 1396T797 1311T708 1241H630V1268Z" />
<glyph unicode="&#x156;" glyph-name="Rcommaaccent" horiz-adv-x="1343" d="M1135 250Q1187 168 1236 127T1350 86H1356V0H1327Q1231 0 1170 7T1065 34T992 90T926 184L649 645H479V223Q479 178 492 151T529 109T582 91T647 86H674V0H78V86H104Q138 86 168 90T222
109T258 150T272 223V1237Q272 1282 259 1309T222 1352T169 1371T104 1376H78V1462H629Q895 1462 1025 1364T1155 1067Q1155 985 1129 924T1059 817T962 742T854 694L1135 250ZM479 741H623Q713 741 773 761T869 821T920 921T936 1061Q936 1143 919 1200T864 1294T766
1347T618 1364H479V741ZM543 -426Q560 -358 576 -279T605 -125H783V-145Q769 -177 749 -217T706 -299T658 -381T613 -453H543V-426Z" />
<glyph unicode="&#x157;" glyph-name="rcommaaccent" horiz-adv-x="965" d="M659 0H68V86H74Q109 86 139 91T192 111T228 156T242 233V872Q242 917 229 944T192 987T139 1007T74 1012H68V1098H383L422 895H432Q452 941 473 981T524 1052T600 1100T713 1118Q825
1118 879 1079T934 969Q934 937 924 910T890 864T831 834T743 823Q743 908 719 945T635 983Q597 983 567 962T515 905T477 823T452 729T438 632T434 545V223Q434 178 447 151T484 109T537 91T602 86H659V0ZM189 -426Q206 -358 222 -279T251 -125H429V-145Q415 -177
395 -217T352 -299T304 -381T259 -453H189V-426Z" />
<glyph unicode="&#x158;" glyph-name="Rcaron" horiz-adv-x="1343" d="M1135 250Q1187 168 1236 127T1350 86H1356V0H1327Q1231 0 1170 7T1065 34T992 90T926 184L649 645H479V223Q479 178 492 151T529 109T582 91T647 86H674V0H78V86H104Q138 86 168 90T222 109T258
150T272 223V1237Q272 1282 259 1309T222 1352T169 1371T104 1376H78V1462H629Q895 1462 1025 1364T1155 1067Q1155 985 1129 924T1059 817T962 742T854 694L1135 250ZM479 741H623Q713 741 773 761T869 821T920 921T936 1061Q936 1143 919 1200T864 1294T766 1347T618
1364H479V741ZM322 1907H402Q431 1889 460 1867T518 1821T573 1771T623 1720Q646 1745 672 1770T728 1820T787 1867T846 1907H926V1880Q902 1851 873 1813T816 1735T762 1654T721 1579H527Q511 1614 486 1654T433 1734T375 1813T322 1880V1907Z" />
<glyph unicode="&#x159;" glyph-name="rcaron" horiz-adv-x="965" d="M659 0H68V86H74Q109 86 139 91T192 111T228 156T242 233V872Q242 917 229 944T192 987T139 1007T74 1012H68V1098H383L422 895H432Q452 941 473 981T524 1052T600 1100T713 1118Q825 1118
879 1079T934 969Q934 937 924 910T890 864T831 834T743 823Q743 908 719 945T635 983Q597 983 567 962T515 905T477 823T452 729T438 632T434 545V223Q434 178 447 151T484 109T537 91T602 86H659V0ZM155 1569H235Q264 1551 293 1529T351 1483T406 1433T456 1382Q479
1407 505 1432T561 1482T620 1529T679 1569H759V1542Q735 1513 706 1475T649 1397T595 1316T554 1241H360Q344 1276 319 1316T266 1396T208 1475T155 1542V1569Z" />
<glyph unicode="&#x15a;" glyph-name="Sacute" horiz-adv-x="1114" d="M506 -20Q406 -20 330 1T202 59T124 150T98 268Q98 330 136 368T246 406Q249 342 265 283T315 179T399 107T522 80Q660 80 737 146T815 338Q815 394 799 437T746 516T649 586T498 657Q403
696 332 740T214 839T144 961T121 1112Q121 1200 154 1269T248 1385T390 1458T569 1483Q661 1483 732 1464T852 1413T926 1340T952 1253Q952 1187 909 1154T791 1120Q791 1168 780 1214T741 1297T670 1357T561 1380Q502 1380 456 1364T377 1317T328 1243T311 1147Q311
1086 327 1040T380 956T479 885T629 815Q719 778 789 737T909 646T984 533T1010 391Q1010 294 975 218T873 88T714 8T506 -20ZM450 1606Q473 1635 497 1673T545 1751T590 1832T628 1907H847V1886Q828 1859 791 1819T709 1734T617 1649T528 1579H450V1606Z" />
<glyph unicode="&#x15b;" glyph-name="sacute" horiz-adv-x="924" d="M430 -20Q353 -20 291 -7T184 34T116 102T92 197Q92 238 105 265T138 309T180 331T221 338Q221 284 232 237T269 155T337 99T442 78Q497 78 539 91T609 129T653 188T668 264Q668 302 657 329T617
381T539 430T416 487Q337 522 279 554T182 625T125 711T106 827Q106 897 133 951T212 1041T334 1097T492 1116Q565 1116 621 1101T715 1061T772 1001T791 928Q791 872 753 839T643 805Q643 908 601 965T467 1022Q415 1022 378 1010T318 976T283 924T272 858Q272
819 286 791T330 738T409 692T526 641Q607 607 665 574T760 502T816 414T834 301Q834 221 805 161T723 61T596 0T430 -20ZM621 1268Q644 1297 668 1335T716 1413T761 1494T799 1569H1018V1548Q999 1521 962 1481T880 1396T788 1311T699 1241H621V1268Z" />
<glyph unicode="&#x15c;" glyph-name="Scircumflex" horiz-adv-x="1114" d="M506 -20Q406 -20 330 1T202 59T124 150T98 268Q98 330 136 368T246 406Q249 342 265 283T315 179T399 107T522 80Q660 80 737 146T815 338Q815 394 799 437T746 516T649 586T498 657Q403
696 332 740T214 839T144 961T121 1112Q121 1200 154 1269T248 1385T390 1458T569 1483Q661 1483 732 1464T852 1413T926 1340T952 1253Q952 1187 909 1154T791 1120Q791 1168 780 1214T741 1297T670 1357T561 1380Q502 1380 456 1364T377 1317T328 1243T311 1147Q311
1086 327 1040T380 956T479 885T629 815Q719 778 789 737T909 646T984 533T1010 391Q1010 294 975 218T873 88T714 8T506 -20ZM270 1606Q294 1635 323 1673T380 1751T434 1832T475 1907H669Q685 1873 710 1833T763 1752T821 1673T874 1606V1579H794Q735 1613 676
1663T571 1763Q524 1714 466 1664T350 1579H270V1606Z" />
<glyph unicode="&#x15d;" glyph-name="scircumflex" horiz-adv-x="924" d="M430 -20Q353 -20 291 -7T184 34T116 102T92 197Q92 238 105 265T138 309T180 331T221 338Q221 284 232 237T269 155T337 99T442 78Q497 78 539 91T609 129T653 188T668 264Q668 302 657
329T617 381T539 430T416 487Q337 522 279 554T182 625T125 711T106 827Q106 897 133 951T212 1041T334 1097T492 1116Q565 1116 621 1101T715 1061T772 1001T791 928Q791 872 753 839T643 805Q643 908 601 965T467 1022Q415 1022 378 1010T318 976T283 924T272
858Q272 819 286 791T330 738T409 692T526 641Q607 607 665 574T760 502T816 414T834 301Q834 221 805 161T723 61T596 0T430 -20ZM444 1268Q468 1297 497 1335T554 1413T608 1494T649 1569H843Q859 1535 884 1495T937 1414T995 1335T1048 1268V1241H968Q909 1275
850 1325T745 1425Q698 1376 640 1326T524 1241H444V1268Z" />
<glyph unicode="&#x15e;" glyph-name="Scedilla" horiz-adv-x="1114" d="M506 -20Q406 -20 330 1T202 59T124 150T98 268Q98 330 136 368T246 406Q249 342 265 283T315 179T399 107T522 80Q660 80 737 146T815 338Q815 394 799 437T746 516T649 586T498 657Q403
696 332 740T214 839T144 961T121 1112Q121 1200 154 1269T248 1385T390 1458T569 1483Q661 1483 732 1464T852 1413T926 1340T952 1253Q952 1187 909 1154T791 1120Q791 1168 780 1214T741 1297T670 1357T561 1380Q502 1380 456 1364T377 1317T328 1243T311 1147Q311
1086 327 1040T380 956T479 885T629 815Q719 778 789 737T909 646T984 533T1010 391Q1010 294 975 218T873 88T714 8T506 -20ZM746 -258Q746 -367 677 -429T476 -492Q460 -492 440 -491T399 -486T357 -479T318 -469V-365Q355 -373 392 -377T457 -381Q516 -381 549
-350T582 -266Q582 -206 539 -176T428 -141L471 18H568L547 -70Q647 -78 696 -127T746 -258Z" />
<glyph unicode="&#x15f;" glyph-name="scedilla" horiz-adv-x="924" d="M430 -20Q353 -20 291 -7T184 34T116 102T92 197Q92 238 105 265T138 309T180 331T221 338Q221 284 232 237T269 155T337 99T442 78Q497 78 539 91T609 129T653 188T668 264Q668 302 657
329T617 381T539 430T416 487Q337 522 279 554T182 625T125 711T106 827Q106 897 133 951T212 1041T334 1097T492 1116Q565 1116 621 1101T715 1061T772 1001T791 928Q791 872 753 839T643 805Q643 908 601 965T467 1022Q415 1022 378 1010T318 976T283 924T272
858Q272 819 286 791T330 738T409 692T526 641Q607 607 665 574T760 502T816 414T834 301Q834 221 805 161T723 61T596 0T430 -20ZM674 -258Q674 -367 605 -429T404 -492Q388 -492 368 -491T327 -486T285 -479T246 -469V-365Q283 -373 320 -377T385 -381Q444 -381
477 -350T510 -266Q510 -206 467 -176T356 -141L399 18H496L475 -70Q575 -78 624 -127T674 -258Z" />
<glyph unicode="&#x160;" glyph-name="Scaron" horiz-adv-x="1114" d="M506 -20Q406 -20 330 1T202 59T124 150T98 268Q98 330 136 368T246 406Q249 342 265 283T315 179T399 107T522 80Q660 80 737 146T815 338Q815 394 799 437T746 516T649 586T498 657Q403
696 332 740T214 839T144 961T121 1112Q121 1200 154 1269T248 1385T390 1458T569 1483Q661 1483 732 1464T852 1413T926 1340T952 1253Q952 1187 909 1154T791 1120Q791 1168 780 1214T741 1297T670 1357T561 1380Q502 1380 456 1364T377 1317T328 1243T311 1147Q311
1086 327 1040T380 956T479 885T629 815Q719 778 789 737T909 646T984 533T1010 391Q1010 294 975 218T873 88T714 8T506 -20ZM263 1907H343Q372 1889 401 1867T459 1821T514 1771T564 1720Q587 1745 613 1770T669 1820T728 1867T787 1907H867V1880Q843 1851 814
1813T757 1735T703 1654T662 1579H468Q452 1614 427 1654T374 1734T316 1813T263 1880V1907Z" />
<glyph unicode="&#x161;" glyph-name="scaron" horiz-adv-x="924" d="M430 -20Q353 -20 291 -7T184 34T116 102T92 197Q92 238 105 265T138 309T180 331T221 338Q221 284 232 237T269 155T337 99T442 78Q497 78 539 91T609 129T653 188T668 264Q668 302 657 329T617
381T539 430T416 487Q337 522 279 554T182 625T125 711T106 827Q106 897 133 951T212 1041T334 1097T492 1116Q565 1116 621 1101T715 1061T772 1001T791 928Q791 872 753 839T643 805Q643 908 601 965T467 1022Q415 1022 378 1010T318 976T283 924T272 858Q272
819 286 791T330 738T409 692T526 641Q607 607 665 574T760 502T816 414T834 301Q834 221 805 161T723 61T596 0T430 -20ZM425 1569H505Q534 1551 563 1529T621 1483T676 1433T726 1382Q749 1407 775 1432T831 1482T890 1529T949 1569H1029V1542Q1005 1513 976
1475T919 1397T865 1316T824 1241H630Q614 1276 589 1316T536 1396T478 1475T425 1542V1569Z" />
<glyph unicode="&#x162;" glyph-name="Tcommaaccent" horiz-adv-x="1255" d="M729 233Q729 185 742 156T778 112T832 91T897 86H944V0H307V86H354Q388 86 418 90T472 109T508 150T522 223V1360H326Q281 1360 251 1347T201 1310T172 1257T158 1192L147 1104H41L51
1462H1204L1214 1104H1108L1098 1192Q1094 1226 1084 1256T1055 1310T1005 1346T928 1360H729V233ZM475 -426Q492 -358 508 -279T537 -125H715V-145Q701 -177 681 -217T638 -299T590 -381T545 -453H475V-426Z" />
<glyph unicode="&#x163;" glyph-name="tcommaaccent" horiz-adv-x="721" d="M543 88Q580 88 611 92T674 102V12Q661 6 640 0T595 -10T543 -17T492 -20Q414 -20 358 -4T266 50T213 148T195 297V981H39V1063Q76 1063 120 1078T199 1128Q234 1166 255 1218T293 1350H387V1098H655V981H387V291Q387
186 429 137T543 88ZM523 -426Q540 -358 556 -279T585 -125H763V-145Q749 -177 729 -217T686 -299T638 -381T593 -453H523V-426Z" />
<glyph unicode="&#x164;" glyph-name="Tcaron" horiz-adv-x="1255" d="M729 233Q729 185 742 156T778 112T832 91T897 86H944V0H307V86H354Q388 86 418 90T472 109T508 150T522 223V1360H326Q281 1360 251 1347T201 1310T172 1257T158 1192L147 1104H41L51 1462H1204L1214
1104H1108L1098 1192Q1094 1226 1084 1256T1055 1310T1005 1346T928 1360H729V233ZM324 1907H404Q433 1889 462 1867T520 1821T575 1771T625 1720Q648 1745 674 1770T730 1820T789 1867T848 1907H928V1880Q904 1851 875 1813T818 1735T764 1654T723 1579H529Q513
1614 488 1654T435 1734T377 1813T324 1880V1907Z" />
<glyph unicode="&#x165;" glyph-name="tcaron" horiz-adv-x="721" d="M543 88Q580 88 611 92T674 102V12Q661 6 640 0T595 -10T543 -17T492 -20Q414 -20 358 -4T266 50T213 148T195 297V981H39V1063Q76 1063 120 1078T199 1128Q234 1166 255 1218T293 1350H387V1098H655V981H387V291Q387
186 429 137T543 88ZM532 1255Q549 1324 565 1403T594 1556H772V1536Q758 1504 738 1464T695 1383T647 1301T602 1229H532V1255Z" />
<glyph unicode="&#x166;" glyph-name="Tbar" horiz-adv-x="1255" d="M729 772H1075V672H729V233Q729 185 742 156T778 112T832 91T897 86H944V0H307V86H354Q388 86 418 90T472 109T508 150T522 223V672H180V772H522V1360H326Q281 1360 251 1347T201 1310T172 1257T158
1192L147 1104H41L51 1462H1204L1214 1104H1108L1098 1192Q1094 1226 1084 1256T1055 1310T1005 1346T928 1360H729V772Z" />
<glyph unicode="&#x167;" glyph-name="tbar" horiz-adv-x="721" d="M543 88Q580 88 611 92T674 102V12Q661 6 640 0T595 -10T543 -17T492 -20Q414 -20 358 -4T266 50T213 148T195 297V596H55V692H195V981H39V1063Q76 1063 120 1078T199 1128Q234 1166 255 1218T293
1350H387V1098H655V981H387V692H635V596H387V291Q387 186 429 137T543 88Z" />
<glyph unicode="&#x168;" glyph-name="Utilde" horiz-adv-x="1468" d="M741 -20Q620 -20 524 5T362 86T260 229T225 442V1237Q225 1282 212 1309T175 1352T122 1371T57 1376H31V1462H627V1376H600Q566 1376 535 1371T482 1351T446 1306T432 1229V430Q432 341 457
279T528 177T636 120T774 102Q863 102 927 126T1034 192T1097 293T1118 422V1237Q1118 1282 1105 1309T1068 1352T1015 1371T950 1376H924V1462H1438V1376H1411Q1377 1376 1346 1371T1293 1351T1257 1306T1243 1229V418Q1243 316 1211 235T1115 97T957 10T741 -20ZM930
1712Q960 1712 978 1721T1007 1745T1022 1780T1030 1821H1122Q1119 1774 1106 1731T1066 1653T1001 1599T907 1579Q852 1579 808 1599T725 1643T653 1688T586 1708Q555 1708 537 1699T509 1675T493 1641T485 1600H393Q396 1647 409 1690T449 1767T515 1821T610
1841Q665 1841 709 1821T792 1777T864 1732T930 1712Z" />
<glyph unicode="&#x169;" glyph-name="utilde" horiz-adv-x="1300" d="M1079 223Q1079 178 1092 151T1129 109T1182 91T1247 86H1253V0H928L901 166H891Q860 108 823 72T743 16T655 -12T559 -20Q478 -20 415 3T309 75T244 200T221 381V872Q221 917 208 944T171
987T118 1007T53 1012H47V1098H414V391Q414 324 424 272T459 184T525 130T629 111Q697 111 745 135T825 202T872 307T887 442V864Q887 912 874 941T838 986T785 1007T719 1012H713V1098H1079V223ZM807 1374Q837 1374 855 1383T884 1407T899 1442T907 1483H999Q996
1436 983 1393T943 1315T878 1261T784 1241Q729 1241 685 1261T602 1305T530 1350T463 1370Q432 1370 414 1361T386 1337T370 1303T362 1262H270Q273 1309 286 1352T326 1429T392 1483T487 1503Q542 1503 586 1483T669 1439T741 1394T807 1374Z" />
<glyph unicode="&#x16a;" glyph-name="Umacron" horiz-adv-x="1468" d="M741 -20Q620 -20 524 5T362 86T260 229T225 442V1237Q225 1282 212 1309T175 1352T122 1371T57 1376H31V1462H627V1376H600Q566 1376 535 1371T482 1351T446 1306T432 1229V430Q432 341
457 279T528 177T636 120T774 102Q863 102 927 126T1034 192T1097 293T1118 422V1237Q1118 1282 1105 1309T1068 1352T1015 1371T950 1376H924V1462H1438V1376H1411Q1377 1376 1346 1371T1293 1351T1257 1306T1243 1229V418Q1243 316 1211 235T1115 97T957 10T741
-20ZM1069 1579H475V1700H1069V1579Z" />
<glyph unicode="&#x16b;" glyph-name="umacron" horiz-adv-x="1300" d="M1079 223Q1079 178 1092 151T1129 109T1182 91T1247 86H1253V0H928L901 166H891Q860 108 823 72T743 16T655 -12T559 -20Q478 -20 415 3T309 75T244 200T221 381V872Q221 917 208 944T171
987T118 1007T53 1012H47V1098H414V391Q414 324 424 272T459 184T525 130T629 111Q697 111 745 135T825 202T872 307T887 442V864Q887 912 874 941T838 986T785 1007T719 1012H713V1098H1079V223ZM922 1241H328V1362H922V1241Z" />
<glyph unicode="&#x16c;" glyph-name="Ubreve" horiz-adv-x="1468" d="M741 -20Q620 -20 524 5T362 86T260 229T225 442V1237Q225 1282 212 1309T175 1352T122 1371T57 1376H31V1462H627V1376H600Q566 1376 535 1371T482 1351T446 1306T432 1229V430Q432 341 457
279T528 177T636 120T774 102Q863 102 927 126T1034 192T1097 293T1118 422V1237Q1118 1282 1105 1309T1068 1352T1015 1371T950 1376H924V1462H1438V1376H1411Q1377 1376 1346 1371T1293 1351T1257 1306T1243 1229V418Q1243 316 1211 235T1115 97T957 10T741 -20ZM760
1579Q687 1579 634 1601T545 1662T493 1751T473 1860H567Q584 1785 634 1753T760 1720Q835 1720 885 1752T952 1860H1047Q1045 1802 1028 1751T975 1662T886 1602T760 1579Z" />
<glyph unicode="&#x16d;" glyph-name="ubreve" horiz-adv-x="1300" d="M1079 223Q1079 178 1092 151T1129 109T1182 91T1247 86H1253V0H928L901 166H891Q860 108 823 72T743 16T655 -12T559 -20Q478 -20 415 3T309 75T244 200T221 381V872Q221 917 208 944T171
987T118 1007T53 1012H47V1098H414V391Q414 324 424 272T459 184T525 130T629 111Q697 111 745 135T825 202T872 307T887 442V864Q887 912 874 941T838 986T785 1007T719 1012H713V1098H1079V223ZM635 1241Q562 1241 509 1263T420 1324T368 1413T348 1522H442Q459
1447 509 1415T635 1382Q710 1382 760 1414T827 1522H922Q920 1464 903 1413T850 1324T761 1264T635 1241Z" />
<glyph unicode="&#x16e;" glyph-name="Uring" horiz-adv-x="1468" d="M741 -20Q620 -20 524 5T362 86T260 229T225 442V1237Q225 1282 212 1309T175 1352T122 1371T57 1376H31V1462H627V1376H600Q566 1376 535 1371T482 1351T446 1306T432 1229V430Q432 341 457
279T528 177T636 120T774 102Q863 102 927 126T1034 192T1097 293T1118 422V1237Q1118 1282 1105 1309T1068 1352T1015 1371T950 1376H924V1462H1438V1376H1411Q1377 1376 1346 1371T1293 1351T1257 1306T1243 1229V418Q1243 316 1211 235T1115 97T957 10T741 -20ZM1006
1782Q1006 1727 987 1686T935 1616T856 1574T760 1559Q709 1559 664 1573T586 1616T533 1685T514 1782Q514 1836 533 1878T585 1948T664 1990T760 2005Q811 2005 856 1991T934 1948T987 1878T1006 1782ZM895 1782Q895 1815 885 1838T856 1876T813 1898T760 1905Q732
1905 708 1898T665 1877T636 1839T625 1782Q625 1749 635 1726T664 1688T707 1666T760 1659Q788 1659 812 1666T855 1687T884 1725T895 1782Z" />
<glyph unicode="&#x16f;" glyph-name="uring" horiz-adv-x="1300" d="M1079 223Q1079 178 1092 151T1129 109T1182 91T1247 86H1253V0H928L901 166H891Q860 108 823 72T743 16T655 -12T559 -20Q478 -20 415 3T309 75T244 200T221 381V872Q221 917 208 944T171
987T118 1007T53 1012H47V1098H414V391Q414 324 424 272T459 184T525 130T629 111Q697 111 745 135T825 202T872 307T887 442V864Q887 912 874 941T838 986T785 1007T719 1012H713V1098H1079V223ZM869 1444Q869 1389 850 1348T798 1278T719 1236T623 1221Q572 1221
527 1235T449 1278T396 1347T377 1444Q377 1498 396 1540T448 1610T527 1652T623 1667Q674 1667 719 1653T797 1610T850 1540T869 1444ZM758 1444Q758 1477 748 1500T719 1538T676 1560T623 1567Q595 1567 571 1560T528 1539T499 1501T488 1444Q488 1411 498 1388T527
1350T570 1328T623 1321Q651 1321 675 1328T718 1349T747 1387T758 1444Z" />
<glyph unicode="&#x170;" glyph-name="Uhungarumlaut" horiz-adv-x="1468" d="M741 -20Q620 -20 524 5T362 86T260 229T225 442V1237Q225 1282 212 1309T175 1352T122 1371T57 1376H31V1462H627V1376H600Q566 1376 535 1371T482 1351T446 1306T432 1229V430Q432
341 457 279T528 177T636 120T774 102Q863 102 927 126T1034 192T1097 293T1118 422V1237Q1118 1282 1105 1309T1068 1352T1015 1371T950 1376H924V1462H1438V1376H1411Q1377 1376 1346 1371T1293 1351T1257 1306T1243 1229V418Q1243 316 1211 235T1115 97T957
10T741 -20ZM459 1579V1606Q480 1639 504 1677T551 1755T596 1834T633 1907H852V1886Q841 1868 822 1844T777 1791T724 1734T666 1676T610 1623T559 1579H459ZM828 1579V1606Q849 1639 873 1677T920 1755T965 1834T1002 1907H1221V1886Q1210 1868 1191 1844T1146
1791T1093 1734T1035 1676T979 1623T928 1579H828Z" />
<glyph unicode="&#x171;" glyph-name="uhungarumlaut" horiz-adv-x="1300" d="M1079 223Q1079 178 1092 151T1129 109T1182 91T1247 86H1253V0H928L901 166H891Q860 108 823 72T743 16T655 -12T559 -20Q478 -20 415 3T309 75T244 200T221 381V872Q221 917 208
944T171 987T118 1007T53 1012H47V1098H414V391Q414 324 424 272T459 184T525 130T629 111Q697 111 745 135T825 202T872 307T887 442V864Q887 912 874 941T838 986T785 1007T719 1012H713V1098H1079V223ZM338 1241V1268Q359 1301 383 1339T430 1417T475 1496T512
1569H731V1548Q720 1530 701 1506T656 1453T603 1396T545 1338T489 1285T438 1241H338ZM707 1241V1268Q728 1301 752 1339T799 1417T844 1496T881 1569H1100V1548Q1089 1530 1070 1506T1025 1453T972 1396T914 1338T858 1285T807 1241H707Z" />
<glyph unicode="&#x172;" glyph-name="Uogonek" horiz-adv-x="1468" d="M741 -20Q620 -20 524 5T362 86T260 229T225 442V1237Q225 1282 212 1309T175 1352T122 1371T57 1376H31V1462H627V1376H600Q566 1376 535 1371T482 1351T446 1306T432 1229V430Q432 341
457 279T528 177T636 120T774 102Q863 102 927 126T1034 192T1097 293T1118 422V1237Q1118 1282 1105 1309T1068 1352T1015 1371T950 1376H924V1462H1438V1376H1411Q1377 1376 1346 1371T1293 1351T1257 1306T1243 1229V418Q1243 316 1211 235T1115 97T957 10T741
-20ZM559 -266Q559 -218 579 -175T633 -97T710 -36T801 0H918Q886 -10 852 -30T791 -79T745 -148T727 -236Q727 -270 737 -294T767 -334T812 -357T869 -365Q896 -365 928 -361T998 -348V-459Q982 -467 962 -473T919 -483T877 -489T840 -492Q775 -492 723 -479T635
-438T579 -368T559 -266Z" />
<glyph unicode="&#x173;" glyph-name="uogonek" horiz-adv-x="1300" d="M1079 223Q1079 178 1092 151T1129 109T1182 91T1247 86H1253V0H928L901 166H891Q860 108 823 72T743 16T655 -12T559 -20Q478 -20 415 3T309 75T244 200T221 381V872Q221 917 208 944T171
987T118 1007T53 1012H47V1098H414V391Q414 324 424 272T459 184T525 130T629 111Q697 111 745 135T825 202T872 307T887 442V864Q887 912 874 941T838 986T785 1007T719 1012H713V1098H1079V223ZM692 -266Q692 -218 712 -175T766 -97T843 -36T934 0H1051Q1019
-10 985 -30T924 -79T878 -148T860 -236Q860 -270 870 -294T900 -334T945 -357T1002 -365Q1029 -365 1061 -361T1131 -348V-459Q1115 -467 1095 -473T1052 -483T1010 -489T973 -492Q908 -492 856 -479T768 -438T712 -368T692 -266Z" />
<glyph unicode="&#x174;" glyph-name="Wcircumflex" horiz-adv-x="2144" d="M1180 1448L1436 561Q1465 459 1487 366T1524 201Q1539 275 1558 356T1606 537L1786 1169Q1789 1181 1793 1196T1800 1226T1805 1254T1808 1276Q1808 1329 1775 1352T1673 1376H1626V1462H2126V1376H2087Q2057
1376 2035 1370T1994 1347T1961 1299T1931 1217L1585 0H1401L1067 1147L754 0H565L190 1268Q180 1300 168 1321T138 1354T98 1371T45 1376H18V1462H582V1376H535Q473 1376 443 1353T412 1278Q412 1261 417 1243T428 1202L616 547Q642 454 665 365T705 201Q720 281
740 375T788 569L1032 1448H1180ZM838 1606Q862 1635 891 1673T948 1751T1002 1832T1043 1907H1237Q1253 1873 1278 1833T1331 1752T1389 1673T1442 1606V1579H1362Q1303 1613 1244 1663T1139 1763Q1092 1714 1034 1664T918 1579H838V1606Z" />
<glyph unicode="&#x175;" glyph-name="wcircumflex" horiz-adv-x="1765" d="M975 1092L1180 485Q1192 448 1205 406T1231 322T1253 243T1268 180H1274Q1283 231 1303 305T1354 479L1456 809Q1464 835 1469 864T1475 911Q1475 964 1442 988T1339 1012H1325V1098H1763V1012H1737Q1707
1012 1685 1006T1646 983T1613 934T1583 852L1319 0H1155L911 721L874 856L584 0H422L154 903Q142 935 129 956T99 989T60 1007T8 1012H2V1098H508V1012H481Q420 1012 389 994T358 926Q358 909 363 885T375 838L471 494Q481 457 492 413T512 326T530 244T543 180H549Q554
206 562 240T582 314T607 395T633 473L846 1092H975ZM570 1268Q594 1297 623 1335T680 1413T734 1494T775 1569H969Q985 1535 1010 1495T1063 1414T1121 1335T1174 1268V1241H1094Q1035 1275 976 1325T871 1425Q824 1376 766 1326T650 1241H570V1268Z" />
<glyph unicode="&#x176;" glyph-name="Ycircumflex" horiz-adv-x="1280" d="M326 0V86H373Q407 86 437 90T491 109T527 150T541 223V610L162 1268Q145 1297 130 1317T99 1351T62 1370T16 1376H-10V1462H553V1376H477Q449 1376 432 1371T404 1357T391 1336T387
1311Q387 1282 399 1253T424 1202L575 928Q611 865 636 804T678 694Q687 716 700 743T730 800T765 863T801 928L932 1163Q952 1198 960 1229T969 1286Q969 1331 937 1353T846 1376H786V1462H1286V1376H1262Q1240 1376 1221 1369T1181 1343T1140 1294T1092 1217L748
610V233Q748 185 761 156T797 112T850 91T915 86H963V0H326ZM342 1606Q366 1635 395 1673T452 1751T506 1832T547 1907H741Q757 1873 782 1833T835 1752T893 1673T946 1606V1579H866Q807 1613 748 1663T643 1763Q596 1714 538 1664T422 1579H342V1606Z" />
<glyph unicode="&#x177;" glyph-name="ycircumflex" horiz-adv-x="1157" d="M1157 1098V1012H1151Q1121 1012 1100 1006T1061 981T1028 932T995 852L684 -8Q648 -107 616 -182T549 -310T473 -399T378 -455T256 -484T96 -492H78V-395Q182 -395 257 -364T386 -279T477
-152T539 8L160 903Q146 935 133 955T104 989T66 1007T14 1012H8V1098H500V1012H494Q432 1012 402 988T371 913Q371 896 374 879T387 838L537 473Q551 438 566 397T595 315T620 238T635 176H641Q652 221 671 285T717 424L854 823Q863 848 867 871T872 911Q872 964
839 988T737 1012H731V1098H1157ZM303 1268Q327 1297 356 1335T413 1413T467 1494T508 1569H702Q718 1535 743 1495T796 1414T854 1335T907 1268V1241H827Q768 1275 709 1325T604 1425Q557 1376 499 1326T383 1241H303V1268Z" />
<glyph unicode="&#x178;" glyph-name="Ydieresis" horiz-adv-x="1280" d="M326 0V86H373Q407 86 437 90T491 109T527 150T541 223V610L162 1268Q145 1297 130 1317T99 1351T62 1370T16 1376H-10V1462H553V1376H477Q449 1376 432 1371T404 1357T391 1336T387 1311Q387
1282 399 1253T424 1202L575 928Q611 865 636 804T678 694Q687 716 700 743T730 800T765 863T801 928L932 1163Q952 1198 960 1229T969 1286Q969 1331 937 1353T846 1376H786V1462H1286V1376H1262Q1240 1376 1221 1369T1181 1343T1140 1294T1092 1217L748 610V233Q748
185 761 156T797 112T850 91T915 86H963V0H326ZM359 1747Q359 1779 367 1801T389 1836T422 1856T463 1862Q485 1862 504 1856T537 1837T560 1801T568 1747Q568 1716 560 1694T538 1658T504 1638T463 1632Q418 1632 389 1658T359 1747ZM748 1747Q748 1779 756 1801T778
1836T811 1856T852 1862Q874 1862 893 1856T926 1837T949 1801T957 1747Q957 1716 949 1694T927 1658T893 1638T852 1632Q807 1632 778 1658T748 1747Z" />
<glyph unicode="&#x179;" glyph-name="Zacute" horiz-adv-x="1212" d="M1094 1378L324 102H840Q886 102 917 115T967 152T996 205T1010 270L1020 358H1126L1116 0H74V82L842 1360H397Q352 1360 322 1347T272 1310T243 1257T229 1192L219 1104H113L123 1462H1094V1378ZM495
1606Q518 1635 542 1673T590 1751T635 1832T673 1907H892V1886Q873 1859 836 1819T754 1734T662 1649T573 1579H495V1606Z" />
<glyph unicode="&#x17a;" glyph-name="zacute" horiz-adv-x="1047" d="M696 117Q732 117 755 131T794 168T819 221T836 285L846 332H932L922 0H86V82L680 981H360Q320 981 294 971T252 939T225 887T203 815L201 807H115L135 1098H920V1014L324 117H696ZM428 1268Q451
1297 475 1335T523 1413T568 1494T606 1569H825V1548Q806 1521 769 1481T687 1396T595 1311T506 1241H428V1268Z" />
<glyph unicode="&#x17b;" glyph-name="Zdotaccent" horiz-adv-x="1212" d="M1094 1378L324 102H840Q886 102 917 115T967 152T996 205T1010 270L1020 358H1126L1116 0H74V82L842 1360H397Q352 1360 322 1347T272 1310T243 1257T229 1192L219 1104H113L123 1462H1094V1378ZM520
1768Q520 1804 529 1828T554 1867T591 1888T637 1894Q661 1894 682 1888T719 1867T744 1828T754 1768Q754 1732 745 1708T719 1669T682 1648T637 1641Q612 1641 591 1647T554 1669T529 1708T520 1768Z" />
<glyph unicode="&#x17c;" glyph-name="zdotaccent" horiz-adv-x="1047" d="M696 117Q732 117 755 131T794 168T819 221T836 285L846 332H932L922 0H86V82L680 981H360Q320 981 294 971T252 939T225 887T203 815L201 807H115L135 1098H920V1014L324 117H696ZM428
1430Q428 1466 437 1490T462 1529T499 1550T545 1556Q569 1556 590 1550T627 1529T652 1490T662 1430Q662 1394 653 1370T627 1331T590 1310T545 1303Q520 1303 499 1309T462 1331T437 1370T428 1430Z" />
<glyph unicode="&#x17d;" glyph-name="Zcaron" horiz-adv-x="1212" d="M1094 1378L324 102H840Q886 102 917 115T967 152T996 205T1010 270L1020 358H1126L1116 0H74V82L842 1360H397Q352 1360 322 1347T272 1310T243 1257T229 1192L219 1104H113L123 1462H1094V1378ZM320
1907H400Q429 1889 458 1867T516 1821T571 1771T621 1720Q644 1745 670 1770T726 1820T785 1867T844 1907H924V1880Q900 1851 871 1813T814 1735T760 1654T719 1579H525Q509 1614 484 1654T431 1734T373 1813T320 1880V1907Z" />
<glyph unicode="&#x17e;" glyph-name="zcaron" horiz-adv-x="1047" d="M696 117Q732 117 755 131T794 168T819 221T836 285L846 332H932L922 0H86V82L680 981H360Q320 981 294 971T252 939T225 887T203 815L201 807H115L135 1098H920V1014L324 117H696ZM503 1569H583Q612
1551 641 1529T699 1483T754 1433T804 1382Q827 1407 853 1432T909 1482T968 1529T1027 1569H1107V1542Q1083 1513 1054 1475T997 1397T943 1316T902 1241H708Q692 1276 667 1316T614 1396T556 1475T503 1542V1569Z" />
<glyph unicode="&#x17f;" glyph-name="longs" horiz-adv-x="727" d="M27 0V86H53Q88 86 118 91T171 111T207 156T221 233V1200Q221 1292 246 1362T318 1480T433 1552T584 1577Q664 1577 718 1567T807 1537T855 1492T870 1434Q870 1378 824 1349T702 1319Q702 1350
696 1379T674 1432T632 1469T567 1483Q480 1483 447 1416T414 1219V233Q414 185 427 156T463 112T516 91T582 86H659V0H27Z" />
<glyph unicode="&#x192;" glyph-name="florin" horiz-adv-x="1145" d="M911 815H643L481 -16Q454 -154 413 -245T315 -391T190 -469T37 -492Q23 -492 7 -491T-26 -488T-57 -483T-82 -477L-63 -381Q-56 -383 -45 -385T-21 -389T5 -393T31 -395Q81 -395 120 -375T190
-310T245 -193T289 -18L451 815H244L262 911H469L508 1116Q525 1204 556 1272T635 1387T748 1458T897 1483Q1028 1483 1094 1441T1161 1331Q1161 1263 1117 1231T991 1198Q991 1237 987 1272T972 1333T940 1374T887 1389Q811 1389 770 1327T705 1135L662 911H930L911
815Z" />
<glyph unicode="&#x1f0;" glyph-name="uni01F0" horiz-adv-x="614" d="M414 1098V-16Q414 -154 384 -245T300 -391T172 -469T8 -492H-25V-395H-10Q45 -395 88 -377T160 -315T205 -199T221 -18V872Q221 917 208 944T171 987T118 1007T53 1012H47V1098H414ZM-13
1569H67Q96 1551 125 1529T183 1483T238 1433T288 1382Q311 1407 337 1432T393 1482T452 1529T511 1569H591V1542Q567 1513 538 1475T481 1397T427 1316T386 1241H192Q176 1276 151 1316T98 1396T40 1475T-13 1542V1569Z" />
<glyph unicode="&#x1fa;" glyph-name="Aringacute" horiz-adv-x="1444" d="M969 1438Q969 1362 934 1312T840 1237L1272 184Q1284 155 1296 136T1326 106T1365 91T1417 86H1444V0H881V86H928Q1051 86 1051 176Q1051 192 1047 207T1034 244L952 444H414L336 256Q327
234 322 213T317 178Q317 86 453 86H500V0H0V86H39Q69 86 90 92T128 114T160 158T195 231L614 1233Q552 1256 515 1307T477 1438Q477 1492 496 1534T548 1604T627 1646T723 1661Q774 1661 819 1647T897 1604T950 1534T969 1438ZM788 870Q758 952 731 1023T686 1163Q678
1131 669 1100T648 1036T623 967T592 887L459 547H909L788 870ZM858 1438Q858 1471 848 1494T819 1532T776 1554T723 1561Q695 1561 671 1554T628 1533T599 1495T588 1438Q588 1405 598 1382T627 1344T670 1322T723 1315Q751 1315 775 1322T818 1343T847 1381T858
1438ZM637 1720Q659 1744 683 1774T732 1837T777 1902T815 1962H1034V1946Q1015 1924 978 1892T896 1824T804 1755T715 1700H637V1720Z" />
<glyph unicode="&#x1fb;" glyph-name="aringacute" horiz-adv-x="1153" d="M477 1720Q500 1744 524 1774T572 1837T617 1902T655 1962H874V1946Q855 1924 818 1892T736 1824T644 1755T555 1700H477V1720ZM301 297Q301 201 341 154T467 106Q529 106 579 126T665
183T720 273T739 391V557L608 551Q521 547 463 530T368 481T317 403T301 297ZM549 1016Q490 1016 454 1000T397 953T369 882T362 793Q277 793 233 822T188 922Q188 975 217 1012T296 1072T414 1107T557 1118Q651 1118 721 1100T838 1039T908 930T932 764V233Q932
190 939 162T961 117T1000 93T1059 86H1065V0H788L756 176H739Q707 133 677 97T611 35T530 -5T420 -20Q352 -20 294 -1T193 59T126 161T102 307Q102 470 218 549T569 635L739 641V764Q739 819 733 865T707 945T650 997T549 1016ZM819 1417Q819 1363 800 1321T748
1251T670 1209T573 1194Q522 1194 477 1208T399 1251T347 1321T328 1417Q328 1472 347 1513T399 1583T477 1625T573 1640Q625 1640 670 1626T748 1583T800 1514T819 1417ZM709 1417Q709 1450 698 1473T669 1511T626 1533T573 1540Q546 1540 522 1533T479 1512T449
1474T438 1417Q438 1384 449 1361T478 1323T521 1301T573 1294Q601 1294 625 1301T668 1322T698 1360T709 1417Z" />
<glyph unicode="&#x1fc;" glyph-name="AEacute" horiz-adv-x="1948" d="M1151 102H1546Q1594 102 1628 115T1686 152T1722 205T1741 270L1755 358H1862L1847 0H750V86H776Q810 86 840 90T892 109T929 150T944 223V489H473L360 274Q343 242 336 213T328 166Q328
124 359 105T451 86H498V0H0V86H33Q87 86 129 124T215 246L807 1366L647 1376V1462H1782L1792 1104H1686L1675 1192Q1671 1226 1660 1256T1628 1308T1574 1345T1495 1360H1151V815H1645V715H1151V102ZM890 1304T849 1221T757 1038T646 823T526 592H944V1360H915Q890
1304 849 1221ZM1073 1606Q1096 1635 1120 1673T1168 1751T1213 1832T1251 1907H1470V1886Q1451 1859 1414 1819T1332 1734T1240 1649T1151 1579H1073V1606Z" />
<glyph unicode="&#x1fd;" glyph-name="aeacute" horiz-adv-x="1722" d="M301 297Q301 201 341 154T467 106Q529 106 579 126T665 183T720 273T739 391V514V541V557L608 551Q521 547 463 530T368 481T317 403T301 297ZM1190 1008Q1075 1008 1014 916T942 645H1413Q1413
726 1401 793T1363 908T1295 982T1190 1008ZM1221 -20Q1071 -20 967 39T805 213Q786 167 752 125T670 51T559 -1T420 -20Q352 -20 294 -1T193 59T126 161T102 307Q102 470 218 549T569 635L739 641V764Q739 819 733 865T707 945T650 997T549 1016Q490 1016 454
1000T397 953T369 882T362 793Q277 793 233 822T188 922Q188 975 217 1012T296 1072T414 1107T557 1118Q673 1118 752 1089T877 993Q991 1118 1194 1118Q1293 1118 1372 1087T1506 995T1590 842T1620 629V535H938Q940 423 959 343T1017 210T1115 134T1255 109Q1300
109 1342 120T1420 150T1486 196T1536 252Q1550 246 1562 227T1575 182Q1575 151 1553 116T1487 50T1377 0T1221 -20ZM764 1268Q787 1297 811 1335T859 1413T904 1494T942 1569H1161V1548Q1142 1521 1105 1481T1023 1396T931 1311T842 1241H764V1268Z" />
<glyph unicode="&#x1fe;" glyph-name="Oslashacute" horiz-adv-x="1520" d="M1163 1354Q1281 1257 1342 1099T1403 733Q1403 564 1361 425T1237 187T1035 34T760 -20Q667 -20 588 -3T442 49L371 -82H250L354 106Q233 204 174 364T115 735Q115 905 155 1043T275
1280T477 1431T762 1485Q853 1485 931 1466T1075 1411L1151 1546H1270L1163 1354ZM342 733Q342 578 364 460T438 258L1010 1292Q916 1374 762 1374Q648 1374 568 1331T438 1206T365 1005T342 733ZM1176 733Q1176 886 1154 1004T1081 1206L510 170Q605 90 760 90Q874
90 953 133T1082 259T1154 461T1176 733ZM649 1606Q672 1635 696 1673T744 1751T789 1832T827 1907H1046V1886Q1027 1859 990 1819T908 1734T816 1649T727 1579H649V1606Z" />
<glyph unicode="&#x1ff;" glyph-name="oslashacute" horiz-adv-x="1182" d="M930 991Q998 922 1033 813T1069 551Q1069 262 947 121T588 -20Q517 -20 455 -6T342 37L268 -82H147L258 98Q187 170 150 281T113 551Q113 838 234 978T594 1118Q668 1118 731 1102T848
1055L926 1180H1044L930 991ZM311 551Q311 457 321 382T352 250L776 936Q708 1010 590 1010Q513 1010 460 981T374 895T326 751T311 551ZM870 551Q870 728 834 836L412 152Q444 120 488 103T592 86Q669 86 722 116T808 204T855 350T870 551ZM471 1268Q494 1297
518 1335T566 1413T611 1494T649 1569H868V1548Q849 1521 812 1481T730 1396T638 1311T549 1241H471V1268Z" />
<glyph unicode="&#x218;" glyph-name="Scommaaccent" horiz-adv-x="1114" d="M506 -20Q406 -20 330 1T202 59T124 150T98 268Q98 330 136 368T246 406Q249 342 265 283T315 179T399 107T522 80Q660 80 737 146T815 338Q815 394 799 437T746 516T649 586T498 657Q403
696 332 740T214 839T144 961T121 1112Q121 1200 154 1269T248 1385T390 1458T569 1483Q661 1483 732 1464T852 1413T926 1340T952 1253Q952 1187 909 1154T791 1120Q791 1168 780 1214T741 1297T670 1357T561 1380Q502 1380 456 1364T377 1317T328 1243T311 1147Q311
1086 327 1040T380 956T479 885T629 815Q719 778 789 737T909 646T984 533T1010 391Q1010 294 975 218T873 88T714 8T506 -20ZM418 -426Q435 -358 451 -279T480 -125H658V-145Q644 -177 624 -217T581 -299T533 -381T488 -453H418V-426Z" />
<glyph unicode="&#x219;" glyph-name="scommaaccent" horiz-adv-x="924" d="M430 -20Q353 -20 291 -7T184 34T116 102T92 197Q92 238 105 265T138 309T180 331T221 338Q221 284 232 237T269 155T337 99T442 78Q497 78 539 91T609 129T653 188T668 264Q668 302
657 329T617 381T539 430T416 487Q337 522 279 554T182 625T125 711T106 827Q106 897 133 951T212 1041T334 1097T492 1116Q565 1116 621 1101T715 1061T772 1001T791 928Q791 872 753 839T643 805Q643 908 601 965T467 1022Q415 1022 378 1010T318 976T283 924T272
858Q272 819 286 791T330 738T409 692T526 641Q607 607 665 574T760 502T816 414T834 301Q834 221 805 161T723 61T596 0T430 -20ZM576 -426Q593 -358 609 -279T638 -125H816V-145Q802 -177 782 -217T739 -299T691 -381T646 -453H576V-426Z" />
<glyph unicode="&#x2bc;" glyph-name="afii57929" horiz-adv-x="512" d="M397 1284Q397 1219 379 1158T321 1045T217 952T61 883V969Q162 1001 209 1047T256 1153Q256 1173 245 1186T217 1210T181 1231T145 1255T117 1289T106 1341Q106 1400 144 1431T240 1462Q272
1462 300 1451T350 1417T384 1361T397 1284Z" />
<glyph unicode="&#x2c6;" glyph-name="circumflex" horiz-adv-x="1182" d="M289 1268Q313 1297 342 1335T399 1413T453 1494T494 1569H688Q704 1535 729 1495T782 1414T840 1335T893 1268V1241H813Q754 1275 695 1325T590 1425Q543 1376 485 1326T369 1241H289V1268Z" />
<glyph unicode="&#x2c7;" glyph-name="caron" horiz-adv-x="1182" d="M289 1569H369Q398 1551 427 1529T485 1483T540 1433T590 1382Q613 1407 639 1432T695 1482T754 1529T813 1569H893V1542Q869 1513 840 1475T783 1397T729 1316T688 1241H494Q478 1276 453
1316T400 1396T342 1475T289 1542V1569Z" />
<glyph unicode="&#x2c9;" glyph-name="uni02C9" horiz-adv-x="1024" d="M809 1241H215V1362H809V1241Z" />
<glyph unicode="&#x2d8;" glyph-name="breve" horiz-adv-x="1182" d="M590 1241Q517 1241 464 1263T375 1324T323 1413T303 1522H397Q414 1447 464 1415T590 1382Q665 1382 715 1414T782 1522H877Q875 1464 858 1413T805 1324T716 1264T590 1241Z" />
<glyph unicode="&#x2d9;" glyph-name="dotaccent" horiz-adv-x="666" d="M223 1430Q223 1466 232 1490T257 1529T294 1550T340 1556Q364 1556 385 1550T422 1529T447 1490T457 1430Q457 1394 448 1370T422 1331T385 1310T340 1303Q315 1303 294 1309T257 1331T232
1370T223 1430Z" />
<glyph unicode="&#x2da;" glyph-name="ring" horiz-adv-x="682" d="M586 1444Q586 1389 567 1348T515 1278T436 1236T340 1221Q289 1221 244 1235T166 1278T113 1347T94 1444Q94 1498 113 1540T165 1610T244 1652T340 1667Q391 1667 436 1653T514 1610T567 1540T586
1444ZM475 1444Q475 1477 465 1500T436 1538T393 1560T340 1567Q312 1567 288 1560T245 1539T216 1501T205 1444Q205 1411 215 1388T244 1350T287 1328T340 1321Q368 1321 392 1328T435 1349T464 1387T475 1444Z" />
<glyph unicode="&#x2db;" glyph-name="ogonek" horiz-adv-x="1024" d="M352 -266Q352 -218 372 -175T426 -97T503 -36T594 0H711Q679 -10 645 -30T584 -79T538 -148T520 -236Q520 -270 530 -294T560 -334T605 -357T662 -365Q689 -365 721 -361T791 -348V-459Q775
-467 755 -473T712 -483T670 -489T633 -492Q568 -492 516 -479T428 -438T372 -368T352 -266Z" />
<glyph unicode="&#x2dc;" glyph-name="tilde" horiz-adv-x="1182" d="M762 1374Q792 1374 810 1383T839 1407T854 1442T862 1483H954Q951 1436 938 1393T898 1315T833 1261T739 1241Q684 1241 640 1261T557 1305T485 1350T418 1370Q387 1370 369 1361T341 1337T325
1303T317 1262H225Q228 1309 241 1352T281 1429T347 1483T442 1503Q497 1503 541 1483T624 1439T696 1394T762 1374Z" />
<glyph unicode="&#x2dd;" glyph-name="hungarumlaut" horiz-adv-x="1182" d="M209 1241V1268Q230 1301 254 1339T301 1417T346 1496T383 1569H602V1548Q591 1530 572 1506T527 1453T474 1396T416 1338T360 1285T309 1241H209ZM578 1241V1268Q599 1301 623 1339T670
1417T715 1496T752 1569H971V1548Q960 1530 941 1506T896 1453T843 1396T785 1338T729 1285T678 1241H578Z" />
<glyph unicode="&#x2f3;" glyph-name="uni02F3" horiz-adv-x="682" d="M586 -348Q586 -403 567 -444T515 -514T436 -556T340 -571Q289 -571 244 -557T166 -514T113 -445T94 -348Q94 -294 113 -252T165 -182T244 -140T340 -125Q391 -125 436 -139T514 -182T567
-252T586 -348ZM475 -348Q475 -315 465 -292T436 -254T393 -232T340 -225Q312 -225 288 -232T245 -253T216 -291T205 -348Q205 -381 215 -404T244 -442T287 -464T340 -471Q368 -471 392 -464T435 -443T464 -405T475 -348Z" />
<glyph unicode="&#x384;" glyph-name="tonos" horiz-adv-x="1182" d="M504 1268Q516 1295 528 1333T552 1413T573 1495T588 1569H772V1548Q766 1524 744 1484T693 1400T631 1313T571 1241H504V1268Z" />
<glyph unicode="&#x385;" glyph-name="dieresistonos" horiz-adv-x="1182" d="M276 1395Q276 1449 304 1473T373 1497Q392 1497 409 1491T440 1473T461 1441T469 1395Q469 1342 440 1317T373 1292Q332 1292 304 1317T276 1395ZM713 1395Q713 1449 741 1473T809
1497Q828 1497 845 1491T876 1473T897 1441T905 1395Q905 1342 876 1317T809 1292Q769 1292 741 1317T713 1395ZM518 1415Q530 1443 542 1481T567 1560T588 1642T602 1716H786V1696Q780 1671 758 1631T707 1547T645 1460T586 1389H518V1415Z" />
<glyph unicode="&#x386;" glyph-name="Alphatonos" horiz-adv-x="1444" d="M414 489L336 274Q327 250 322 227T317 186Q317 134 350 110T453 86H500V0H0V86H39Q69 86 90 92T128 117T160 166T195 246L649 1462H809L1272 195Q1284 163 1296 142T1326 109T1365 91T1417
86H1444V0H881V86H928Q1051 86 1051 184Q1051 201 1047 219T1034 260L952 489H414ZM788 950Q756 1041 730 1120T686 1274Q679 1237 670 1203T649 1132T624 1057T592 969L453 592H915L788 950ZM145 1163Q157 1190 169 1228T193 1308T214 1390T229 1464H413V1443Q407
1419 385 1379T334 1295T272 1208T212 1136H145V1163Z" />
<glyph unicode="&#x387;" glyph-name="anoteleia" horiz-adv-x="549" d="M147 723Q147 761 157 787T184 830T224 854T274 862Q300 862 323 855T364 831T391 788T401 723Q401 686 391 660T364 617T324 592T274 584Q247 584 224 592T184 617T157 660T147 723Z" />
<glyph unicode="&#x388;" glyph-name="Epsilontonos" horiz-adv-x="1442" d="M645 102H1040Q1089 102 1123 115T1181 152T1217 205T1235 270L1249 358H1356L1342 0H244V86H270Q304 86 334 90T388 109T424 150T438 223V1229Q438 1277 425 1306T389 1350T336 1371T270
1376H244V1462H1276L1286 1104H1180L1170 1192Q1166 1226 1155 1256T1122 1310T1068 1346T989 1360H645V815H1139V715H645V102ZM-68 1163Q-56 1190 -44 1228T-20 1308T1 1390T16 1464H200V1443Q194 1419 172 1379T121 1295T59 1208T-1 1136H-68V1163Z" />
<glyph unicode="&#x389;" glyph-name="Etatonos" horiz-adv-x="1786" d="M1112 0V86H1139Q1174 86 1204 91T1257 111T1293 156T1307 233V713H641V233Q641 185 654 156T690 112T744 91T809 86H836V0H240V86H266Q301 86 331 91T385 111T421 156T434 233V1237Q434
1282 421 1309T384 1352T331 1371T266 1376H240V1462H836V1376H809Q775 1376 744 1371T691 1351T655 1306T641 1229V815H1307V1229Q1307 1277 1294 1306T1258 1350T1205 1371T1139 1376H1112V1462H1708V1376H1682Q1647 1376 1617 1371T1563 1351T1527 1306T1514
1229V223Q1514 178 1527 151T1564 109T1617 91T1682 86H1708V0H1112ZM-68 1163Q-56 1190 -44 1228T-20 1308T1 1390T16 1464H200V1443Q194 1419 172 1379T121 1295T59 1208T-1 1136H-68V1163Z" />
<glyph unicode="&#x38a;" glyph-name="Iotatonos" horiz-adv-x="913" d="M240 0V86H266Q301 86 331 91T385 111T421 156T434 233V1229Q434 1277 421 1306T385 1350T332 1371T266 1376H240V1462H836V1376H809Q775 1376 744 1371T691 1351T655 1306T641 1229V233Q641
185 654 156T690 112T744 91T809 86H836V0H240ZM-68 1163Q-56 1190 -44 1228T-20 1308T1 1390T16 1464H200V1443Q194 1419 172 1379T121 1295T59 1208T-1 1136H-68V1163Z" />
<glyph unicode="&#x38c;" glyph-name="Omicrontonos" horiz-adv-x="1520" d="M1403 733Q1403 564 1361 425T1237 187T1035 34T760 -20Q597 -20 476 34T275 187T155 425T115 735Q115 905 155 1043T275 1280T477 1431T762 1485Q917 1485 1036 1432T1237 1280T1361
1043T1403 733ZM342 733Q342 581 364 462T437 260T566 134T760 90Q874 90 953 133T1082 259T1154 461T1176 733Q1176 885 1154 1004T1083 1206T955 1331T762 1374Q648 1374 568 1331T438 1206T365 1005T342 733ZM-68 1163Q-56 1190 -44 1228T-20 1308T1 1390T16
1464H200V1443Q194 1419 172 1379T121 1295T59 1208T-1 1136H-68V1163Z" />
<glyph unicode="&#x38e;" glyph-name="Upsilontonos" horiz-adv-x="1530" d="M576 0V86H623Q657 86 687 90T741 109T777 150T791 223V610L412 1268Q395 1297 380 1317T349 1351T312 1370T266 1376H240V1462H803V1376H727Q699 1376 682 1371T654 1357T641 1336T637
1311Q637 1282 649 1253T674 1202L825 928Q861 865 886 804T928 694Q937 716 950 743T980 800T1015 863T1051 928L1182 1163Q1202 1198 1210 1229T1219 1286Q1219 1331 1187 1353T1096 1376H1036V1462H1536V1376H1512Q1490 1376 1471 1369T1431 1343T1390 1294T1342
1217L998 610V233Q998 185 1011 156T1047 112T1100 91T1165 86H1213V0H576ZM-68 1163Q-56 1190 -44 1228T-20 1308T1 1390T16 1464H200V1443Q194 1419 172 1379T121 1295T59 1208T-1 1136H-68V1163Z" />
<glyph unicode="&#x38f;" glyph-name="Omegatonos" horiz-adv-x="1542" d="M127 897Q127 1030 167 1138T287 1324T489 1443T774 1485Q929 1485 1048 1443T1249 1324T1373 1139T1415 897Q1415 671 1296 530T950 344L946 164H1141Q1189 164 1223 171T1279 193T1315
233T1335 291L1350 358H1456L1442 0H834L848 428Q941 438 1006 474T1111 571T1170 713T1188 899Q1188 1012 1166 1100T1095 1249T967 1342T774 1374Q660 1374 580 1342T450 1250T377 1101T354 899Q354 796 372 714T431 571T536 475T694 428L709 0H100L86 358H193L207
291Q214 257 227 233T262 194T319 171T401 164H596L592 344Q365 389 246 530T127 897ZM-68 1163Q-56 1190 -44 1228T-20 1308T1 1390T16 1464H200V1443Q194 1419 172 1379T121 1295T59 1208T-1 1136H-68V1163Z" />
<glyph unicode="&#x390;" glyph-name="iotadieresistonos" horiz-adv-x="684" d="M393 1098V291Q393 186 435 137T549 88Q586 88 617 92T680 102V12Q667 6 646 0T601 -10T549 -17T498 -20Q420 -20 364 -4T272 50T219 148T201 297V1098H393ZM5 1395Q5 1449 33 1473T102
1497Q121 1497 138 1491T169 1473T190 1441T198 1395Q198 1342 169 1317T102 1292Q61 1292 33 1317T5 1395ZM442 1395Q442 1449 470 1473T538 1497Q557 1497 574 1491T605 1473T626 1441T634 1395Q634 1342 605 1317T538 1292Q498 1292 470 1317T442 1395ZM247
1415Q259 1443 271 1481T296 1560T317 1642T331 1716H515V1696Q509 1671 487 1631T436 1547T374 1460T315 1389H247V1415Z" />
<glyph unicode="&#x391;" glyph-name="Alpha" horiz-adv-x="1444" d="M414 489L336 274Q327 250 322 227T317 186Q317 134 350 110T453 86H500V0H0V86H39Q69 86 90 92T128 117T160 166T195 246L649 1462H809L1272 195Q1284 163 1296 142T1326 109T1365 91T1417
86H1444V0H881V86H928Q1051 86 1051 184Q1051 201 1047 219T1034 260L952 489H414ZM788 950Q756 1041 730 1120T686 1274Q679 1237 670 1203T649 1132T624 1057T592 969L453 592H915L788 950Z" />
<glyph unicode="&#x392;" glyph-name="Beta" horiz-adv-x="1339" d="M1153 1096Q1153 1027 1134 975T1080 884T1000 819T899 774V766Q969 754 1027 725T1126 650T1191 540T1214 395Q1214 197 1084 99T688 0H78V86H104Q139 86 169 91T223 111T259 156T272 233V1237Q272
1282 259 1309T222 1352T169 1371T104 1376H78V1462H627Q893 1462 1023 1374T1153 1096ZM479 102H678Q765 102 825 118T923 169T978 262T995 401Q995 481 980 540T929 638T832 696T682 715H479V102ZM479 817H621Q711 817 771 833T867 882T918 969T934 1096Q934
1171 917 1221T862 1303T764 1347T616 1360H479V817Z" />
<glyph unicode="&#x393;" glyph-name="Gamma" horiz-adv-x="1149" d="M715 0H78V86H104Q139 86 169 91T223 111T259 156T272 233V1229Q272 1277 259 1306T223 1350T170 1371T104 1376H78V1462H1096L1108 1104H1001L993 1176Q988 1219 978 1253T945 1311T886 1347T788
1360H479V225Q479 180 492 153T529 110T582 91T647 86H715V0Z" />
<glyph unicode="&#x394;" glyph-name="increment" horiz-adv-x="1245" d="M1182 0H63V109L543 1462H721L1182 123V0ZM954 137L690 940Q659 1031 632 1115T588 1274Q572 1201 550 1127T494 958L205 137H954Z" />
<glyph unicode="&#x395;" glyph-name="Epsilon" horiz-adv-x="1276" d="M479 102H874Q923 102 957 115T1015 152T1051 205T1069 270L1083 358H1190L1176 0H78V86H104Q138 86 168 90T222 109T258 150T272 223V1229Q272 1277 259 1306T223 1350T170 1371T104 1376H78V1462H1110L1120
1104H1014L1004 1192Q1000 1226 989 1256T956 1310T902 1346T823 1360H479V815H973V715H479V102Z" />
<glyph unicode="&#x396;" glyph-name="Zeta" horiz-adv-x="1212" d="M1094 1378L324 102H840Q886 102 917 115T967 152T996 205T1010 270L1020 358H1126L1116 0H74V82L842 1360H397Q352 1360 322 1347T272 1310T243 1257T229 1192L219 1104H113L123 1462H1094V1378Z" />
<glyph unicode="&#x397;" glyph-name="Eta" horiz-adv-x="1624" d="M950 0V86H977Q1012 86 1042 91T1095 111T1131 156T1145 233V713H479V233Q479 185 492 156T528 112T582 91T647 86H674V0H78V86H104Q139 86 169 91T223 111T259 156T272 233V1237Q272 1282 259
1309T222 1352T169 1371T104 1376H78V1462H674V1376H647Q613 1376 582 1371T529 1351T493 1306T479 1229V815H1145V1229Q1145 1277 1132 1306T1096 1350T1043 1371T977 1376H950V1462H1546V1376H1520Q1485 1376 1455 1371T1401 1351T1365 1306T1352 1229V223Q1352
178 1365 151T1402 109T1455 91T1520 86H1546V0H950Z" />
<glyph unicode="&#x398;" glyph-name="Theta" horiz-adv-x="1520" d="M551 930L561 891Q567 869 577 852T606 822T655 804T731 797H782Q864 797 904 822T956 891L967 930H1053V561H967L956 600Q945 643 905 668T782 694H731Q685 694 655 688T607 669T578 640T561
600L551 561H465V930H551ZM1403 733Q1403 564 1361 425T1237 187T1035 34T760 -20Q597 -20 476 34T275 187T155 425T115 735Q115 905 155 1043T275 1280T477 1431T762 1485Q917 1485 1036 1432T1237 1280T1361 1043T1403 733ZM342 733Q342 581 364 462T437 260T566
134T760 90Q874 90 953 133T1082 259T1154 461T1176 733Q1176 885 1154 1004T1083 1206T955 1331T762 1374Q648 1374 568 1331T438 1206T365 1005T342 733Z" />
<glyph unicode="&#x399;" glyph-name="Iota" horiz-adv-x="752" d="M78 0V86H104Q139 86 169 91T223 111T259 156T272 233V1229Q272 1277 259 1306T223 1350T170 1371T104 1376H78V1462H674V1376H647Q613 1376 582 1371T529 1351T493 1306T479 1229V233Q479 185
492 156T528 112T582 91T647 86H674V0H78Z" />
<glyph unicode="&#x39a;" glyph-name="Kappa" horiz-adv-x="1434" d="M903 1137Q936 1175 958 1204T992 1258T1010 1300T1016 1333Q1016 1359 991 1368T915 1378V1462H1368V1378Q1333 1378 1301 1365T1236 1327T1169 1267T1094 1186L797 852L1229 250Q1288 169
1342 128T1454 86H1458V0H1436Q1333 0 1267 8T1156 37T1078 93T1006 184L653 690L479 549V233Q479 185 492 156T528 112T582 91T647 86H674V0H78V86H104Q138 86 168 90T222 109T258 150T272 223V1237Q272 1282 259 1309T222 1352T169 1371T104 1376H78V1462H674V1376H647Q613
1376 582 1371T529 1351T493 1306T479 1229V651L903 1137Z" />
<glyph unicode="&#x39b;" glyph-name="Lambda" horiz-adv-x="1382" d="M770 1462L1212 195Q1223 163 1236 142T1266 109T1305 91T1358 86H1384V0H821V86H868Q991 86 991 184Q991 201 987 219T975 260L750 932Q719 1023 697 1105T657 1262Q642 1187 619 1108T563
932L338 274Q330 250 325 227T319 186Q319 134 353 110T455 86H502V0H2V86H41Q71 86 93 92T132 116T165 165T197 246L621 1462H770Z" />
<glyph unicode="&#x39c;" glyph-name="Mu" horiz-adv-x="1921" d="M1298 0V86H1305Q1338 86 1364 90T1409 108T1439 147T1452 215V1309L983 0H872L397 1305V233Q397 185 407 156T436 112T483 91T545 86H551V0H78V86H104Q138 86 168 90T222 109T258 150T272 223V1237Q272
1282 259 1309T222 1352T169 1371T104 1376H78V1462H545L969 291L1389 1462H1843V1376H1817Q1782 1376 1752 1371T1698 1351T1662 1306T1649 1229V233Q1649 185 1662 156T1698 112T1751 91T1817 86H1843V0H1298Z" />
<glyph unicode="&#x39d;" glyph-name="Nu" horiz-adv-x="1563" d="M1165 0L397 1180V233Q397 185 410 156T446 112T500 91T565 86H592V0H78V86H104Q139 86 169 91T223 111T259 156T272 233V1237Q272 1282 259 1309T222 1352T169 1371T104 1376H78V1462H453L1186
330V1237Q1186 1282 1173 1309T1136 1352T1083 1371T1018 1376H991V1462H1505V1376H1479Q1444 1376 1414 1371T1360 1351T1324 1306T1311 1229V0H1165Z" />
<glyph unicode="&#x39e;" glyph-name="Xi" horiz-adv-x="1272" d="M1176 0H96L86 403H193L201 342Q205 311 215 283T244 234T295 201T373 188H899Q945 188 976 200T1027 234T1057 283T1071 342L1079 403H1186L1176 0ZM1124 1083H1018L1010 1145Q1006 1176 996
1203T966 1252T915 1285T838 1298H434Q388 1298 357 1286T306 1252T276 1204T262 1145L254 1083H147L158 1462H1114L1124 1083ZM397 948L408 909Q414 887 424 870T453 840T502 822T578 815H690Q772 815 812 840T864 909L874 948H961V559H874L864 598Q853 641 813
666T690 692H578Q532 692 502 686T453 667T424 638T408 598L397 559H311V948H397Z" />
<glyph unicode="&#x39f;" glyph-name="Omicron" horiz-adv-x="1520" d="M1403 733Q1403 564 1361 425T1237 187T1035 34T760 -20Q597 -20 476 34T275 187T155 425T115 735Q115 905 155 1043T275 1280T477 1431T762 1485Q917 1485 1036 1432T1237 1280T1361 1043T1403
733ZM342 733Q342 581 364 462T437 260T566 134T760 90Q874 90 953 133T1082 259T1154 461T1176 733Q1176 885 1154 1004T1083 1206T955 1331T762 1374Q648 1374 568 1331T438 1206T365 1005T342 733Z" />
<glyph unicode="&#x3a0;" glyph-name="Pi" horiz-adv-x="1563" d="M78 1462H1485V1376H1458Q1424 1376 1393 1371T1340 1351T1304 1306T1290 1229V223Q1290 178 1303 151T1340 109T1393 91T1458 86H1485V0H889V86H915Q950 86 980 91T1034 111T1070 156T1083 233V1360H479V233Q479
185 492 156T528 112T582 91T647 86H674V0H78V86H104Q139 86 169 91T223 111T259 156T272 233V1237Q272 1282 259 1309T222 1352T169 1371T104 1376H78V1462Z" />
<glyph unicode="&#x3a1;" glyph-name="Rho" horiz-adv-x="1237" d="M78 0V86H104Q139 86 169 91T223 111T259 156T272 233V1237Q272 1282 259 1309T222 1352T169 1371T104 1376H78V1462H653Q782 1462 877 1433T1034 1348T1126 1213T1157 1034Q1157 943 1129 859T1035
711T865 608T608 569H479V223Q479 178 492 151T529 109T582 91T647 86H715V0H78ZM479 666H588Q681 666 747 685T855 748T916 860T936 1026Q936 1112 919 1175T864 1281T766 1343T618 1364H479V666Z" />
<glyph unicode="&#x3a3;" glyph-name="Sigma" horiz-adv-x="1239" d="M846 188Q894 188 928 202T984 243T1020 305T1038 383L1047 444H1153L1143 0H47V66L473 717L92 1403V1462H1053L1063 1104H956L946 1192Q942 1226 931 1256T899 1308T845 1344T766 1358H340L643
813V782L254 188H846Z" />
<glyph unicode="&#x3a4;" glyph-name="Tau" horiz-adv-x="1255" d="M729 233Q729 185 742 156T778 112T832 91T897 86H944V0H307V86H354Q388 86 418 90T472 109T508 150T522 223V1360H326Q281 1360 251 1347T201 1310T172 1257T158 1192L147 1104H41L51 1462H1204L1214
1104H1108L1098 1192Q1094 1226 1084 1256T1055 1310T1005 1346T928 1360H729V233Z" />
<glyph unicode="&#x3a5;" glyph-name="Upsilon" horiz-adv-x="1280" d="M326 0V86H373Q407 86 437 90T491 109T527 150T541 223V610L162 1268Q145 1297 130 1317T99 1351T62 1370T16 1376H-10V1462H553V1376H477Q449 1376 432 1371T404 1357T391 1336T387 1311Q387
1282 399 1253T424 1202L575 928Q611 865 636 804T678 694Q687 716 700 743T730 800T765 863T801 928L932 1163Q952 1198 960 1229T969 1286Q969 1331 937 1353T846 1376H786V1462H1286V1376H1262Q1240 1376 1221 1369T1181 1343T1140 1294T1092 1217L748 610V233Q748
185 761 156T797 112T850 91T915 86H963V0H326Z" />
<glyph unicode="&#x3a6;" glyph-name="Phi" horiz-adv-x="1571" d="M881 371H928Q1021 371 1087 394T1195 464T1256 583T1276 752Q1276 838 1259 904T1204 1017T1106 1086T958 1110H881V371ZM489 0V86H516Q551 86 581 91T634 111T670 156T684 233V274H616Q515
274 435 293T294 345T190 425T120 526T81 639T68 760Q68 860 98 942T190 1084T347 1175T571 1208H684V1229Q684 1277 671 1306T635 1350T582 1371T516 1376H489V1462H1075V1376H1049Q1014 1376 984 1371T930 1351T894 1306T881 1229V1208H993Q1122 1208 1217 1176T1374
1084T1466 943T1497 760Q1497 699 1485 640T1445 526T1375 426T1271 346T1130 293T948 274H881V233Q881 185 894 156T930 112T983 91T1049 86H1075V0H489ZM684 1110H606Q519 1110 459 1087T361 1017T306 905T289 752Q289 655 308 583T370 464T478 394T637 371H684V1110Z"
/>
<glyph unicode="&#x3a7;" glyph-name="Chi" horiz-adv-x="1352" d="M954 1317Q954 1335 946 1346T923 1364T888 1373T844 1376H838V1462H1286V1376H1268Q1238 1376 1214 1369T1166 1345T1119 1299T1065 1229L768 801L1145 195Q1190 135 1230 111T1309 86H1335V0H782V86H793Q915
86 915 154Q915 165 913 176T903 202T883 239T848 295L645 621L418 285Q409 272 400 256T383 221T370 185T365 150Q365 115 397 101T498 86H504V0H16V86H29Q66 86 93 93T144 118T191 162T242 229L584 719L246 1268Q209 1327 163 1351T70 1376H43V1462H598V1376H592Q557
1376 534 1372T498 1359T480 1340T475 1317Q475 1306 476 1296T483 1273T497 1241T524 1196L709 897L903 1192Q926 1227 940 1258T954 1317Z" />
<glyph unicode="&#x3a8;" glyph-name="Psi" horiz-adv-x="1696" d="M946 606H993Q1086 606 1145 627T1239 695T1287 811T1300 979V1462H1671V1376Q1637 1376 1606 1371T1553 1351T1517 1306T1503 1229V975Q1503 914 1495 856T1467 746T1411 651T1321 577T1191
528T1014 510H946V233Q946 185 959 156T995 112T1049 91T1114 86H1141V0H555V86H582Q617 86 647 91T700 111T736 156T750 233V510H682Q581 510 505 527T375 576T285 651T230 746T201 856T193 975V1229Q193 1277 180 1306T144 1350T91 1371T25 1376V1462H395V979Q395
882 408 812T455 695T549 628T702 606H750V1229Q750 1277 737 1306T701 1350T648 1371T582 1376H555V1462H1141V1376H1114Q1080 1376 1049 1371T996 1351T960 1306T946 1229V606Z" />
<glyph unicode="&#x3a9;" glyph-name="Omega" horiz-adv-x="1542" d="M127 897Q127 1030 167 1138T287 1324T489 1443T774 1485Q929 1485 1048 1443T1249 1324T1373 1139T1415 897Q1415 671 1296 530T950 344L946 164H1141Q1189 164 1223 171T1279 193T1315 233T1335
291L1350 358H1456L1442 0H834L848 428Q941 438 1006 474T1111 571T1170 713T1188 899Q1188 1012 1166 1100T1095 1249T967 1342T774 1374Q660 1374 580 1342T450 1250T377 1101T354 899Q354 796 372 714T431 571T536 475T694 428L709 0H100L86 358H193L207 291Q214
257 227 233T262 194T319 171T401 164H596L592 344Q365 389 246 530T127 897Z" />
<glyph unicode="&#x3aa;" glyph-name="Iotadieresis" horiz-adv-x="752" d="M78 0V86H104Q139 86 169 91T223 111T259 156T272 233V1229Q272 1277 259 1306T223 1350T170 1371T104 1376H78V1462H674V1376H647Q613 1376 582 1371T529 1351T493 1306T479 1229V233Q479
185 492 156T528 112T582 91T647 86H674V0H78ZM73 1747Q73 1779 81 1801T103 1836T136 1856T177 1862Q199 1862 218 1856T251 1837T274 1801T282 1747Q282 1716 274 1694T252 1658T218 1638T177 1632Q132 1632 103 1658T73 1747ZM462 1747Q462 1779 470 1801T492
1836T525 1856T566 1862Q588 1862 607 1856T640 1837T663 1801T671 1747Q671 1716 663 1694T641 1658T607 1638T566 1632Q521 1632 492 1658T462 1747Z" />
<glyph unicode="&#x3ab;" glyph-name="Upsilondieresis" horiz-adv-x="1280" d="M326 0V86H373Q407 86 437 90T491 109T527 150T541 223V610L162 1268Q145 1297 130 1317T99 1351T62 1370T16 1376H-10V1462H553V1376H477Q449 1376 432 1371T404 1357T391 1336T387
1311Q387 1282 399 1253T424 1202L575 928Q611 865 636 804T678 694Q687 716 700 743T730 800T765 863T801 928L932 1163Q952 1198 960 1229T969 1286Q969 1331 937 1353T846 1376H786V1462H1286V1376H1262Q1240 1376 1221 1369T1181 1343T1140 1294T1092 1217L748
610V233Q748 185 761 156T797 112T850 91T915 86H963V0H326ZM359 1747Q359 1779 367 1801T389 1836T422 1856T463 1862Q485 1862 504 1856T537 1837T560 1801T568 1747Q568 1716 560 1694T538 1658T504 1638T463 1632Q418 1632 389 1658T359 1747ZM748 1747Q748
1779 756 1801T778 1836T811 1856T852 1862Q874 1862 893 1856T926 1837T949 1801T957 1747Q957 1716 949 1694T927 1658T893 1638T852 1632Q807 1632 778 1658T748 1747Z" />
<glyph unicode="&#x3ac;" glyph-name="alphatonos" horiz-adv-x="1251" d="M1049 0Q998 0 963 18T905 64T870 128T852 199H844Q821 152 792 112T724 43T638 -3T530 -20Q429 -20 351 13T220 116T140 293T113 547Q113 695 145 803T235 981T377 1084T561 1118Q621
1118 669 1103T754 1059T820 991T868 903H881Q898 957 924 1008T981 1098H1090Q1081 1068 1071 1020T1054 915T1041 801T1036 694V276Q1036 185 1079 136T1204 86H1221V0H1049ZM565 111Q645 111 698 151T784 261T830 427T844 633V713Q830 787 805 839T745 925T671
975T586 991Q443 991 377 879T311 545Q311 327 370 219T565 111ZM529 1268Q541 1295 553 1333T577 1413T598 1495T613 1569H797V1548Q791 1524 769 1484T718 1400T656 1313T596 1241H529V1268Z" />
<glyph unicode="&#x3ad;" glyph-name="epsilontonos" horiz-adv-x="1016" d="M340 827Q340 746 384 693T526 633Q544 637 565 641T607 648T647 653T682 655Q719 655 741 638T764 586Q764 551 733 527T647 502Q632 502 611 504T566 510T522 519T485 532Q448 524
416 506T360 459T323 394T309 309Q309 207 377 158T578 109Q638 109 688 120T779 152T853 198T909 252Q923 246 935 227T948 182Q948 145 925 109T851 44T720 -2T526 -20Q419 -20 341 4T211 72T136 173T111 299Q111 361 130 405T182 482T257 535T344 571V582Q298
597 261 621T199 678T159 748T145 827Q145 897 173 951T257 1041T391 1097T573 1116Q659 1116 722 1100T828 1058T890 997T911 924Q911 859 871 830T750 801Q750 904 698 963T543 1022Q485 1022 446 1007T383 965T350 903T340 827ZM755 1268Q767 1295 779 1333T803
1413T824 1495T839 1569H1023V1548Q1017 1524 995 1484T944 1400T882 1313T822 1241H755V1268Z" />
</font>
</defs>
</svg>
