<?xml version="1.0" standalone="no"?> <!DOCTYPE svg PUBLIC "-//W3C//DTD SVG 1.0//EN" "http://www.w3.org/TR/2001/REC-SVG-20010904/DTD/svg10.dtd" > <svg xmlns="http://www.w3.org/2000/svg" width="100%" height="100%">
<defs >
<font id="DroidSerif-Italic" horiz-adv-x="1220" ><font-face
    font-family="Droid Serif"
    units-per-em="2048"
    panose-1="2 2 6 0 6 5 0 9 2 0"
    ascent="2005"
    descent="-571"
    alphabetic="0" />
<missing-glyph horiz-adv-x="1229" d="M193 1462H1034V0H193V1462ZM297 104H930V1358H297V104Z" />
<glyph unicode=" " glyph-name="space" horiz-adv-x="532" />
<glyph unicode="!" glyph-name="exclam" horiz-adv-x="682" d="M410 1462H647L352 412H258L410 1462ZM250 -16Q123 -16 123 109Q123 180 159 223T258 266Q385 266 385 141Q385 68 349 26T250 -16Z" />
<glyph unicode="&quot;" glyph-name="quotedbl" horiz-adv-x="836" d="M694 1462H911L748 981H653L694 1462ZM309 1462H526L362 981H268L309 1462Z" />
<glyph unicode="#" glyph-name="numbersign" horiz-adv-x="1145" d="M1038 537L1024 416H766L645 0H522L643 416H358L238 0H115L236 416H68L82 537H272L391 938H147L160 1059H426L543 1462H668L549 1059H834L952 1462H1075L956 1059H1116L1104 938H922L805 537H1038ZM397
537H682L799 938H514L397 537Z" />
<glyph unicode="$" glyph-name="dollar" horiz-adv-x="1145" d="M412 76Q242 88 146 164T49 352Q49 429 99 474T207 520Q207 385 267 293T432 178L539 680Q268 815 268 1030Q268 1197 379 1294T694 1401L727 1556H829L797 1401Q1092 1375 1092 1196Q1092 1055
926 1055Q926 1275 776 1309L672 817L694 805Q879 704 929 631T979 469Q979 301 856 194T512 74L463 -162H360L412 76ZM580 864L674 1311Q459 1275 459 1059Q459 940 580 864ZM633 635L535 174Q651 184 717 253T784 424Q784 556 633 635Z" />
<glyph unicode="%" glyph-name="percent" horiz-adv-x="1835" d="M565 1481Q838 1481 838 1155Q838 948 718 762T399 575Q274 575 205 658T135 901Q135 1117 253 1299T565 1481ZM297 870Q297 659 408 659Q519 659 593 836T668 1188Q668 1399 557 1399Q446 1399
372 1222T297 870ZM494 0H342L1370 1462H1513L494 0ZM1470 889Q1743 889 1743 563Q1743 356 1623 170T1305 -16Q1040 -16 1040 309Q1040 525 1158 707T1470 889ZM1202 279Q1202 68 1313 68Q1424 68 1498 244T1573 596Q1573 807 1462 807Q1351 807 1277 631T1202
279Z" />
<glyph unicode="&amp;" glyph-name="ampersand" horiz-adv-x="1520" d="M1096 0L973 170Q788 -20 520 -20Q309 -20 191 84T72 362Q72 521 168 631T502 829Q403 996 403 1130Q403 1300 514 1391T840 1483Q1006 1483 1096 1411T1186 1217Q1186 1084 1111 1002T739
813L1026 420Q1113 584 1155 782L1171 862H1540L1522 776H1503Q1401 776 1355 746T1289 687T1186 487Q1147 406 1096 326L1208 172Q1271 86 1409 86H1427L1409 0H1096ZM682 895Q855 960 927 1025T999 1202Q999 1283 952 1332T825 1382Q600 1382 600 1145Q600 1031
682 895ZM909 258L561 741Q401 668 338 586T274 367Q274 248 345 171T541 94Q753 94 909 258Z" />
<glyph unicode="&apos;" glyph-name="quotesingle" horiz-adv-x="451" d="M301 1462H518L354 981H260L301 1462Z" />
<glyph unicode="(" glyph-name="parenleft" horiz-adv-x="709" d="M469 -168L449 -262Q86 -103 86 381Q86 794 284 1127T836 1556L815 1464Q532 1310 406 947T279 285Q279 -36 469 -168Z" />
<glyph unicode=")" glyph-name="parenright" horiz-adv-x="709" d="M266 1446L287 1540Q649 1382 649 897Q649 482 449 149T-100 -279L-80 -186Q204 -33 330 333T457 993Q457 1313 266 1446Z" />
<glyph unicode="*" glyph-name="asterisk" horiz-adv-x="1024" d="M281 1354L385 1497L651 1237L668 1567L842 1530L719 1225L1069 1348L1106 1176L745 1149L1063 979L961 840L690 1092L678 764L504 801L623 1106L274 981L238 1153L596 1182L281 1354Z" />
<glyph unicode="+" glyph-name="plus" horiz-adv-x="1145" d="M649 672V293H526V672H150V793H526V1171H649V793H1028V672H649Z" />
<glyph unicode="," glyph-name="comma" horiz-adv-x="512" d="M-57 -299L-49 -213Q160 -166 160 -41Q160 -5 94 37Q27 79 27 141Q27 196 62 229T154 262Q223 262 268 217T313 94Q313 -56 218 -159T-57 -299Z" />
<glyph unicode="-" glyph-name="hyphen" horiz-adv-x="635" d="M29 481L61 635H594L561 481H29Z" />
<glyph unicode="." glyph-name="period" horiz-adv-x="586" d="M217 -16Q90 -16 90 109Q90 180 126 223T225 266Q352 266 352 141Q352 69 316 27T217 -16Z" />
<glyph unicode="/" glyph-name="slash" horiz-adv-x="590" d="M-61 -248H-190L651 1556H780L-61 -248Z" />
<glyph unicode="0" glyph-name="zero" horiz-adv-x="1145" d="M696 1485Q876 1485 980 1362T1085 1016Q1085 622 918 300T477 -23Q294 -23 188 108T82 473Q82 867 252 1176T696 1485ZM494 90Q672 90 779 385T887 1055Q887 1374 676 1374Q497 1374 389 1077T281
414Q281 90 494 90Z" />
<glyph unicode="1" glyph-name="one" horiz-adv-x="1145" d="M872 1470L608 225Q600 187 600 168Q600 86 748 86H858L840 0H78L94 86H203Q300 86 344 122T403 233L563 987Q598 1151 639 1309H631Q502 1182 439 1139T322 1096Q240 1096 240 1206Q380 1240 575 1364L741
1470H872Z" />
<glyph unicode="2" glyph-name="two" horiz-adv-x="1145" d="M-35 0L8 166L489 600Q680 772 757 898T834 1174Q834 1269 783 1324T645 1380Q409 1380 354 1071Q209 1071 209 1202Q209 1316 332 1399T655 1483Q840 1483 941 1405T1042 1184Q1042 1062 955 933T616
578L156 164H631Q698 164 745 194T834 317L848 350H934L852 0H-35Z" />
<glyph unicode="3" glyph-name="three" horiz-adv-x="1145" d="M362 705L383 809H449Q623 809 735 916T848 1194Q848 1380 674 1380Q446 1380 383 1075Q231 1075 231 1206Q231 1325 358 1404T682 1483Q856 1483 957 1404T1059 1190Q1059 1034 949 919T647 770Q794
755 874 672T954 461Q954 230 795 105T391 -20Q194 -20 94 38T-6 195Q-6 263 37 304T150 346Q150 234 217 163T406 92Q552 92 645 185T739 438Q739 565 664 635T451 705H362Z" />
<glyph unicode="4" glyph-name="four" horiz-adv-x="1145" d="M262 0L279 86H369Q466 86 510 122T569 233L602 401H-29L-10 485L829 1462H1026L823 516H1077L1053 401H799L764 225Q756 185 756 168Q756 86 903 86H950L932 0H262ZM707 899Q756 1131 807 1296Q722
1167 627 1061L162 516H627L707 899Z" />
<glyph unicode="5" glyph-name="five" horiz-adv-x="1145" d="M258 717L188 731L408 1462H1092L1036 1153H950Q956 1231 956 1249Q956 1298 862 1298H465L330 842Q429 874 526 874Q728 874 842 774T956 498Q956 270 797 125T375 -20Q16 -20 16 184Q16 311 170
311Q177 92 393 92Q558 92 650 195T743 483Q743 615 672 688T481 762Q371 762 258 717Z" />
<glyph unicode="6" glyph-name="six" horiz-adv-x="1145" d="M360 782Q512 889 662 889Q824 889 916 792T1008 530Q1008 292 874 136T508 -20Q335 -20 229 111T123 475Q123 888 321 1185T823 1483Q969 1483 1053 1430T1137 1298Q1137 1145 958 1145Q958 1284 923
1334T819 1384Q511 1384 360 782ZM338 666Q309 502 309 399Q309 92 520 92Q644 92 724 212T805 518Q805 784 621 784Q484 784 338 666Z" />
<glyph unicode="7" glyph-name="seven" horiz-adv-x="1145" d="M221 0L979 1298H440Q328 1298 299 1194L270 1092H184L272 1462H1188L1176 1403L375 0H221Z" />
<glyph unicode="8" glyph-name="eight" horiz-adv-x="1145" d="M426 748Q225 892 225 1087Q225 1274 351 1378T715 1483Q889 1483 990 1401T1092 1184Q1092 1052 1012 957T735 780Q995 629 995 414Q995 205 850 93T455 -20Q257 -20 139 78T20 332Q20 474 110 570T426
748ZM637 829Q909 945 909 1169Q909 1269 853 1324T698 1380Q573 1380 498 1306T422 1110Q422 945 637 829ZM520 694Q217 583 217 328Q217 213 288 147T481 80Q625 80 713 156T801 365Q801 471 733 546T520 694Z" />
<glyph unicode="9" glyph-name="nine" horiz-adv-x="1145" d="M809 702Q675 563 496 563Q337 563 244 656T150 903Q150 1153 307 1318T690 1483Q863 1483 964 1377T1065 1079Q1065 685 877 333T358 -20Q72 -20 72 164Q72 215 104 249T193 283Q197 190 245 135T375
80Q517 80 618 225T809 702ZM842 850Q874 983 874 1092Q874 1370 684 1370Q549 1370 452 1226T354 897Q354 788 406 732T547 676Q711 676 842 850Z" />
<glyph unicode=":" glyph-name="colon" horiz-adv-x="588" d="M377 825Q250 825 250 950Q250 1021 286 1064T385 1108Q512 1108 512 983Q512 909 476 867T377 825ZM193 -16Q66 -16 66 109Q66 180 102 223T201 266Q261 266 294 232T328 141Q328 68 292 26T193 -16Z" />
<glyph unicode=";" glyph-name="semicolon" horiz-adv-x="586" d="M381 825Q254 825 254 950Q254 1021 290 1064T389 1108Q516 1108 516 983Q516 909 480 867T381 825ZM37 -299L45 -213Q254 -166 254 -41Q254 -5 188 37Q121 79 121 141Q121 196 156 229T248 262Q317
262 362 216T408 94Q408 -57 312 -160T37 -299Z" />
<glyph unicode="&lt;" glyph-name="less" horiz-adv-x="1145" d="M150 696V768L1028 1241V1104L340 731L1028 362V225L150 696Z" />
<glyph unicode="=" glyph-name="equal" horiz-adv-x="1145" d="M1028 993V872H150V993H1028ZM1028 590V469H150V590H1028Z" />
<glyph unicode="&gt;" glyph-name="greater" horiz-adv-x="1145" d="M150 225V362L838 731L150 1104V1241L1028 768V696L150 225Z" />
<glyph unicode="?" glyph-name="question" horiz-adv-x="1024" d="M565 649L514 412H389L453 715Q868 869 868 1159Q868 1259 814 1319T670 1380Q459 1380 416 1090Q268 1090 268 1212Q268 1326 382 1404T682 1483Q1069 1483 1069 1143Q1069 832 565 649ZM406
-16Q279 -16 279 109Q279 180 315 223T414 266Q474 266 507 232T541 141Q541 68 505 26T406 -16Z" />
<glyph unicode="@" glyph-name="at" horiz-adv-x="1886" d="M1135 344H1124Q1027 158 848 158Q709 158 623 251T537 508Q537 726 678 904T1059 1083Q1173 1083 1251 1022L1333 1065H1382L1278 543Q1264 473 1264 406Q1264 343 1297 305T1389 266Q1490 266 1571
418T1653 809Q1653 1064 1497 1211T1073 1358Q755 1358 525 1103T295 451Q295 146 458 -19T905 -184Q1187 -184 1425 -14L1473 -88Q1198 -291 885 -291Q533 -291 333 -97T133 446Q133 885 403 1173T1085 1462Q1407 1462 1592 1283T1778 803Q1778 525 1654 342T1376
158Q1198 158 1135 344ZM1182 938Q1153 999 1067 999Q913 999 820 831T727 479Q727 371 770 319T883 266Q1055 266 1104 522L1182 938Z" />
<glyph unicode="A" glyph-name="A" horiz-adv-x="1444" d="M408 489L285 274Q246 206 246 160Q246 86 360 86H408L391 0H-115L-98 86H-59Q-4 86 33 114T131 246L844 1462H1004L1198 195Q1208 131 1233 109T1319 86H1346L1329 0H772L788 86H836Q983 86 983 190Q983
232 979 260L946 489H408ZM881 950Q850 1168 848 1274Q801 1163 688 969L469 592H932L881 950Z" />
<glyph unicode="B" glyph-name="B" horiz-adv-x="1339" d="M-27 86H0Q170 86 201 233L414 1237Q422 1275 422 1294Q422 1376 274 1376H248L266 1462H797Q1276 1462 1276 1155Q1276 852 942 774L940 766Q1190 716 1190 467Q1190 242 1039 121T600 0H-43L-27 86ZM530
817H688Q1053 817 1053 1128Q1053 1360 770 1360H647L530 817ZM379 102H578Q969 102 969 481Q969 715 682 715H510L379 102Z" />
<glyph unicode="C" glyph-name="C" horiz-adv-x="1284" d="M1073 299Q1100 280 1100 231Q1100 133 986 57T672 -20Q405 -20 256 123T106 528Q106 916 348 1199T950 1483Q1129 1483 1229 1422T1329 1255Q1329 1182 1274 1139T1128 1096Q1128 1374 924 1374Q671
1374 501 1099T330 496Q330 113 694 113Q931 113 1073 299Z" />
<glyph unicode="D" glyph-name="D" horiz-adv-x="1485" d="M-27 86H0Q170 86 201 233L414 1237Q422 1275 422 1294Q422 1376 274 1376H248L266 1462H840Q1119 1462 1270 1318T1421 905Q1421 513 1198 257T602 0H-43L-27 86ZM557 104Q853 104 1025 331T1198 928Q1198
1360 809 1360H647L379 104H557Z" />
<glyph unicode="E" glyph-name="E" horiz-adv-x="1276" d="M379 102H774Q947 102 1006 270L1038 358H1145L1055 0H-43L-27 86H0Q104 86 144 122T199 223L412 1229Q418 1257 418 1278Q418 1326 390 1351T274 1376H248L266 1462H1298L1233 1104H1126L1132 1167Q1137
1215 1137 1223Q1137 1360 991 1360H647L530 815H1024L1004 715H510L379 102Z" />
<glyph unicode="F" glyph-name="F" horiz-adv-x="1208" d="M-27 86H0Q96 86 138 119T199 223L414 1237Q422 1275 422 1294Q422 1376 274 1376H248L266 1462H1298L1233 1104H1126L1130 1140Q1131 1159 1133 1176Q1137 1210 1137 1223Q1137 1360 983 1360H647L520
768H1014L993 668H500L408 233Q401 200 401 182Q401 86 543 86H610L594 0H-43L-27 86Z" />
<glyph unicode="G" glyph-name="G" horiz-adv-x="1462" d="M1430 676L1411 590H1403Q1321 590 1283 554T1229 442L1151 74Q934 -20 688 -20Q408 -20 257 123T106 528Q106 935 356 1209T987 1483Q1191 1483 1305 1421T1419 1262Q1419 1186 1358 1143T1202 1100Q1202
1232 1135 1303T944 1374Q691 1374 511 1113T330 496Q330 96 725 96Q840 96 956 125L1024 451Q1032 489 1032 508Q1032 590 885 590H866L885 676H1430Z" />
<glyph unicode="H" glyph-name="H" horiz-adv-x="1624" d="M829 0L846 86H872Q970 86 1014 122T1073 233L1174 713H508L406 225Q397 182 397 168Q397 86 545 86H571L553 0H-43L-27 86H0Q99 86 142 123T201 233L414 1237Q422 1275 422 1294Q422 1376 274 1376H248L266
1462H862L844 1376H817Q719 1376 676 1339T618 1229L530 815H1196L1286 1237Q1294 1275 1294 1294Q1294 1376 1147 1376H1120L1139 1462H1735L1716 1376H1690Q1592 1376 1549 1339T1491 1229L1278 225Q1270 187 1270 168Q1270 86 1417 86H1444L1425 0H829Z" />
<glyph unicode="I" glyph-name="I" horiz-adv-x="752" d="M862 1462L844 1376H817Q719 1376 676 1339T618 1229L406 225Q397 182 397 168Q397 86 545 86H571L553 0H-43L-27 86H0Q170 86 201 233L414 1237Q422 1275 422 1294Q422 1376 274 1376H248L266 1462H862Z" />
<glyph unicode="J" glyph-name="J" horiz-adv-x="731" d="M852 1462L834 1376H807Q709 1376 666 1339T608 1229L342 -16Q288 -267 171 -379T-150 -492Q-241 -492 -317 -469L-289 -377Q-238 -395 -156 -395Q-37 -395 29 -306T137 -18L403 1237Q412 1279 412 1294Q412
1376 264 1376H238L256 1462H852Z" />
<glyph unicode="K" glyph-name="K" horiz-adv-x="1434" d="M-27 86H0Q99 86 142 123T201 233L414 1237Q422 1275 422 1294Q422 1376 274 1376H248L266 1462H862L844 1376H817Q719 1376 676 1339T618 1229L530 815L494 664L1022 1149Q1176 1290 1176 1333Q1176
1378 1085 1378L1102 1462H1554L1538 1378Q1485 1378 1420 1343T1223 1186L850 848L1098 250Q1166 86 1292 86H1298L1280 0H1251Q1089 0 1010 33T883 190L684 696L473 549L406 225Q397 181 397 168Q397 86 545 86H571L553 0H-43L-27 86Z" />
<glyph unicode="L" glyph-name="L" horiz-adv-x="1276" d="M-23 86H4Q100 86 142 123T201 233L414 1237Q422 1275 422 1294Q422 1376 274 1376H248L266 1462H862L844 1376H817Q720 1376 678 1342T621 1237L379 102H782Q939 102 1001 287L1055 440H1161L1055 0H-41L-23
86Z" />
<glyph unicode="M" glyph-name="M" horiz-adv-x="1921" d="M1178 0L1196 86H1202Q1289 86 1324 118T1376 215L1610 1309L862 0H752L553 1309L324 225Q315 182 315 168Q315 86 463 86H489L471 0H-41L-23 86H4Q106 86 145 122T199 223L414 1237Q422 1275 422 1294Q422
1376 274 1376H248L266 1462H731L905 295L1575 1462H2032L2013 1376H1987Q1889 1376 1846 1339T1788 1229L1575 225Q1567 187 1567 168Q1567 86 1714 86H1741L1722 0H1178Z" />
<glyph unicode="N" glyph-name="N" horiz-adv-x="1563" d="M1327 1237Q1335 1275 1335 1294Q1335 1376 1188 1376H1161L1180 1462H1694L1675 1376H1649Q1551 1376 1509 1339T1450 1229L1190 0H1057L530 1200L324 225Q315 182 315 168Q315 86 463 86H489L471 0H-41L-23
86H4Q100 86 142 123T201 233L414 1237Q422 1275 422 1294Q422 1376 274 1376H248L266 1462H639L1135 332L1327 1237Z" />
<glyph unicode="O" glyph-name="O" horiz-adv-x="1520" d="M926 1485Q1164 1485 1310 1337T1456 922Q1456 571 1228 274T643 -23Q400 -23 253 130T106 545Q106 897 336 1191T926 1485ZM655 90Q910 90 1070 372T1231 977Q1231 1168 1147 1271T909 1374Q653 1374
492 1091T330 487Q330 295 417 193T655 90Z" />
<glyph unicode="P" glyph-name="P" horiz-adv-x="1270" d="M-41 0L-23 86H4Q100 86 143 123T201 233L414 1237Q422 1275 422 1294Q422 1376 274 1376H248L266 1462H791Q1013 1462 1135 1359T1257 1067Q1257 834 1101 702T631 569H479L406 225Q397 183 397 168Q397
86 545 86H612L594 0H-41ZM500 666H608Q1040 666 1040 1065Q1040 1364 741 1364H647L500 666Z" />
<glyph unicode="Q" glyph-name="Q" horiz-adv-x="1520" d="M752 -14Q761 -197 813 -279T973 -362Q1047 -362 1112 -344L1126 -430Q1023 -463 924 -463Q547 -463 530 -12Q331 22 219 171T106 545Q106 897 336 1191T926 1485Q1164 1485 1310 1337T1456 922Q1456
611 1265 324T752 -14ZM655 90Q910 90 1070 372T1231 977Q1231 1168 1147 1271T909 1374Q653 1374 492 1091T330 487Q330 295 417 193T655 90Z" />
<glyph unicode="R" glyph-name="R" horiz-adv-x="1325" d="M461 645L371 225Q362 183 362 168Q362 86 510 86H578L559 0H-76L-57 86H-31Q71 86 110 122T164 223L379 1237Q387 1275 387 1294Q387 1376 240 1376H213L231 1462H768Q1237 1462 1237 1114Q1237 776
858 686L1006 248Q1042 143 1079 115T1174 86H1190L1174 0H1147Q971 0 898 46T782 240L664 645H461ZM481 741H639Q822 741 921 834T1020 1102Q1020 1238 960 1301T752 1364H612L481 741Z" />
<glyph unicode="S" glyph-name="S" horiz-adv-x="1114" d="M172 428Q172 271 255 176T483 80Q626 80 710 151T795 344Q795 441 747 508T537 666Q373 761 310 861T246 1087Q246 1264 380 1373T743 1483Q921 1483 1027 1421T1133 1262Q1133 1120 952 1120Q952 1240
895 1310T727 1380Q605 1380 527 1310T449 1122Q449 1035 490 972T702 809Q863 715 934 622T1006 410Q1006 207 864 94T469 -20Q260 -20 137 62T14 272Q14 343 58 385T172 428Z" />
<glyph unicode="T" glyph-name="T" horiz-adv-x="1255" d="M657 225Q649 187 649 168Q649 86 797 86H844L825 0H188L207 86H254Q357 86 397 121T451 223L692 1360H496Q350 1360 291 1192L262 1104H156L242 1462H1395L1329 1104H1223Q1233 1184 1233 1229Q1233
1360 1098 1360H899L657 225Z" />
<glyph unicode="U" glyph-name="U" horiz-adv-x="1495" d="M205 1376L223 1462H819L803 1376H776Q680 1376 636 1340T575 1229L422 506Q397 388 397 315Q397 102 692 102Q858 102 955 176T1090 422L1264 1237Q1272 1274 1272 1294Q1272 1376 1124 1376H1098L1116
1462H1630L1614 1376H1587Q1491 1376 1447 1340T1386 1229L1214 418Q1121 -20 662 -20Q436 -20 317 72T197 334Q197 417 219 516L371 1237Q379 1275 379 1294Q379 1376 231 1376H205Z" />
<glyph unicode="V" glyph-name="V" horiz-adv-x="1382" d="M639 201Q715 378 805 537L1169 1188Q1208 1258 1208 1303Q1208 1376 1094 1376H1047L1063 1462H1569L1550 1376H1511Q1442 1376 1408 1341T1323 1217L641 0H492L317 1268Q309 1329 284 1352T195 1376H168L186
1462H743L727 1376H680Q614 1376 573 1349T532 1272Q532 1237 537 1202L618 537Q639 365 639 201Z" />
<glyph unicode="W" glyph-name="W" horiz-adv-x="2140" d="M1915 1188Q1954 1266 1954 1303Q1954 1376 1839 1376H1790L1806 1462H2306L2288 1376H2249Q2183 1376 2146 1344T2060 1217L1456 0H1268L1176 1135L625 0H438L332 1268Q327 1323 302 1349T209 1376H182L201
1462H758L739 1376H692Q545 1376 545 1272Q545 1230 549 1202L598 547Q612 360 612 201Q698 403 780 569L1210 1448H1358L1425 561Q1440 360 1436 201Q1526 410 1589 537L1915 1188Z" />
<glyph unicode="X" glyph-name="X" horiz-adv-x="1352" d="M1458 1376H1440Q1384 1376 1340 1346T1208 1223L821 795L1067 195Q1112 86 1208 86H1235L1217 0H664L682 86H705Q766 86 801 106T836 158Q836 200 797 299L664 625L358 285Q276 194 276 141Q276 86 397
86H403L385 0H-100L-82 86H-74Q-7 86 45 121T168 233L621 727L401 1272Q359 1376 242 1376H215L233 1462H788L770 1376H723Q627 1376 627 1319Q627 1290 664 1196L780 897L1036 1192Q1114 1282 1114 1325Q1114 1376 1016 1376H1010L1028 1462H1477L1458 1376Z"
/>
<glyph unicode="Y" glyph-name="Y" horiz-adv-x="1280" d="M729 1462L711 1376H608Q524 1376 524 1321Q524 1281 551 1202L643 928Q692 782 698 682Q718 720 852 897L1047 1157Q1122 1257 1122 1323Q1122 1376 1024 1376H948L967 1462H1473L1454 1376H1415Q1376
1376 1338 1345T1229 1221L752 596L672 225Q664 188 664 168Q664 86 811 86H858L840 0H203L221 86H268Q371 86 411 121T465 223L545 600L307 1268Q284 1333 262 1354T184 1376H158L176 1462H729Z" />
<glyph unicode="Z" glyph-name="Z" horiz-adv-x="1239" d="M1276 1378L244 102H791Q943 102 997 270L1026 358H1133L1047 0H-35L-18 82L1012 1360H535Q384 1360 330 1192L301 1104H195L281 1462H1292L1276 1378Z" />
<glyph unicode="[" glyph-name="bracketleft" horiz-adv-x="735" d="M10 -262L397 1556H854L836 1470H748Q652 1470 609 1434T549 1323L258 -37Q250 -74 250 -94Q250 -176 397 -176H485L467 -262H10Z" />
<glyph unicode="\" glyph-name="backslash" horiz-adv-x="590" d="M231 1556H350L438 -248H317L231 1556Z" />
<glyph unicode="]" glyph-name="bracketright" horiz-adv-x="737" d="M-96 -262L-78 -176H10Q106 -176 149 -139T207 -29L498 1331Q506 1368 506 1389Q506 1470 358 1470H270L289 1556H745L358 -262H-96Z" />
<glyph unicode="^" glyph-name="asciicircum" horiz-adv-x="1145" d="M552 1462H624L1055 545H918L588 1274L258 545H121L552 1462Z" />
<glyph unicode="_" glyph-name="underscore" horiz-adv-x="940" d="M772 -291H-186L-160 -170H799L772 -291Z" />
<glyph unicode="`" glyph-name="grave" horiz-adv-x="1182" d="M829 1241Q675 1391 565 1548L571 1569H776Q836 1414 913 1268L907 1241H829Z" />
<glyph unicode="a" glyph-name="a" horiz-adv-x="1186" d="M748 309H735Q588 -20 352 -20Q227 -20 158 78T88 354Q88 636 263 877T698 1118Q837 1118 938 1044L1028 1096H1094L954 440Q924 299 924 213Q924 109 991 109Q1049 109 1139 162L1176 102Q1029 -20 887
-20Q727 -20 727 150Q727 215 748 309ZM864 952Q817 1026 709 1026Q534 1026 416 804T297 346Q297 109 426 109Q528 109 640 260T788 590L864 952Z" />
<glyph unicode="b" glyph-name="b" horiz-adv-x="1151" d="M213 53L121 -6H55L326 1266Q344 1350 344 1374Q344 1470 201 1470H184L203 1556H590L492 1096Q471 997 418 825H428Q579 1118 803 1118Q925 1118 994 1024T1063 748Q1063 463 887 222T453 -20Q306 -20
213 53ZM285 145Q347 72 444 72Q622 72 738 299T854 750Q854 989 725 989Q613 989 507 834T373 551L285 145Z" />
<glyph unicode="c" glyph-name="c" horiz-adv-x="997" d="M821 256Q842 243 842 205Q842 123 746 52T487 -20Q308 -20 198 93T88 403Q88 671 261 894T698 1118Q839 1118 918 1062T997 922Q997 860 948 819T815 778Q815 887 773 953T657 1020Q514 1020 408 806T301
387Q301 109 526 109Q705 109 821 256Z" />
<glyph unicode="d" glyph-name="d" horiz-adv-x="1186" d="M748 309H735Q588 -20 352 -20Q227 -20 158 78T88 354Q88 636 263 877T698 1118Q813 1118 899 1069Q915 1163 922 1184L942 1282Q956 1351 956 1374Q956 1470 813 1470H797L815 1556H1192L954 440Q924
299 924 213Q924 109 991 109Q1049 109 1139 162L1176 102Q1029 -20 887 -20Q727 -20 727 150Q727 215 748 309ZM864 952Q817 1026 709 1026Q534 1026 416 804T297 346Q297 109 426 109Q528 109 640 260T788 590L864 952Z" />
<glyph unicode="e" glyph-name="e" horiz-adv-x="1010" d="M821 256Q842 243 842 205Q842 123 746 52T487 -20Q308 -20 198 93T88 403Q88 671 261 894T698 1118Q828 1118 899 1056T971 883Q971 717 799 594T377 471H342Q324 471 305 473Q301 445 301 387Q301 109
526 109Q701 109 821 256ZM324 567H344Q525 567 642 655T760 883Q760 1020 641 1020Q542 1020 456 896T324 567Z" />
<glyph unicode="f" glyph-name="f" horiz-adv-x="651" d="M719 981H489L276 -16Q223 -263 121 -377T-168 -492Q-226 -492 -287 -475L-268 -381Q-217 -395 -174 -395Q-75 -395 -18 -310T84 -18L299 981H113L125 1055L322 1098L344 1210Q416 1577 733 1577Q864 1577
930 1536T997 1425Q997 1292 827 1292Q827 1483 723 1483Q648 1483 607 1421T541 1229L514 1098H741L719 981Z" />
<glyph unicode="g" glyph-name="g" horiz-adv-x="1139" d="M901 1053Q998 1198 1122 1198Q1225 1198 1225 1104Q1225 977 1104 977Q1104 1051 1047 1051Q1007 1051 946 1004Q991 940 991 846Q991 674 862 531T522 387Q475 387 457 391Q311 332 311 262Q311 211
416 201L612 180Q930 146 930 -88Q930 -279 786 -385T375 -492Q-72 -492 -72 -225Q-72 -115 17 -38T262 70Q164 118 164 211Q164 274 204 318T358 420Q215 487 215 662Q215 835 345 976T690 1118Q821 1118 901 1053ZM545 485Q662 485 733 601T805 856Q805 1024
664 1024Q544 1024 474 907T403 653Q403 485 545 485ZM561 6L362 25Q347 26 274 5T147 -73T94 -213Q94 -391 383 -391Q563 -391 657 -325T752 -145Q752 -11 561 6Z" />
<glyph unicode="h" glyph-name="h" horiz-adv-x="1227" d="M471 840Q641 1116 850 1116Q1069 1116 1069 889Q1069 824 1032 664L979 422Q952 299 952 207Q952 109 1024 109Q1083 109 1155 156L1192 96Q1058 -20 942 -20Q857 -20 807 35T756 184Q756 278 795 461L842
673Q872 797 872 864Q872 985 778 985Q664 985 544 830T391 524L281 0H90L356 1266Q375 1356 375 1374Q375 1470 231 1470H215L233 1556H610L530 1180Q494 1012 449 840H471Z" />
<glyph unicode="i" glyph-name="i" horiz-adv-x="623" d="M459 1303Q344 1303 344 1415Q344 1480 377 1519T467 1559Q582 1559 582 1446Q582 1376 548 1340T459 1303ZM127 1012L145 1098H512L373 440Q342 293 342 213Q342 109 410 109Q469 109 557 162L594 102Q452
-20 317 -20Q241 -20 194 35T147 174Q147 266 193 496L272 872Q279 905 279 926Q279 1012 154 1012H127Z" />
<glyph unicode="j" glyph-name="j" horiz-adv-x="596" d="M461 1303Q346 1303 346 1415Q346 1480 379 1519T469 1559Q584 1559 584 1446Q584 1376 550 1340T461 1303ZM-287 -475L-268 -381Q-217 -395 -174 -395Q-71 -395 -13 -304T86 -16L274 872Q281 905 281
926Q281 1012 156 1012H129L147 1098H514L279 -16Q227 -260 124 -376T-168 -492Q-226 -492 -287 -475Z" />
<glyph unicode="k" glyph-name="k" horiz-adv-x="1165" d="M694 786Q845 917 845 979Q845 1010 754 1010L772 1096H1225L1206 1010Q1087 1010 877 819L692 649L879 244Q958 72 1087 72L1069 -14Q899 -14 819 25T684 197L551 524L365 406L281 0H90L356 1266Q375
1356 375 1374Q375 1470 231 1470H215L233 1556H610L530 1180Q420 663 371 506L694 786Z" />
<glyph unicode="l" glyph-name="l" horiz-adv-x="623" d="M207 1470L225 1556H612L375 440Q344 294 344 213Q344 109 412 109Q471 109 559 162L596 102Q454 -20 319 -20Q245 -20 198 34T150 174Q150 271 195 496L362 1282Q375 1343 375 1374Q375 1470 231 1470H207Z" />
<glyph unicode="m" glyph-name="m" horiz-adv-x="1835" d="M920 0H725Q725 46 751 212T795 461L842 673Q872 797 872 864Q872 985 778 985Q664 985 544 830T391 524L281 0H90L262 823Q274 880 274 915Q274 1012 131 1012H115L133 1098H512L457 840H477Q643 1116
850 1116Q1069 1116 1069 889Q1069 864 1065 840H1085Q1252 1116 1458 1116Q1677 1116 1677 889Q1677 824 1640 664L1587 422Q1561 303 1561 207Q1561 109 1632 109Q1691 109 1763 156L1800 96Q1670 -20 1550 -20Q1466 -20 1415 35T1364 184Q1364 278 1403 461L1438
621Q1481 818 1481 864Q1481 985 1386 985Q1281 985 1169 851T1012 569L979 422Q966 366 943 203T920 0Z" />
<glyph unicode="n" glyph-name="n" horiz-adv-x="1227" d="M281 0H90L262 823Q274 880 274 915Q274 1012 131 1012H115L133 1098H512L457 840H477Q643 1116 850 1116Q1069 1116 1069 889Q1069 824 1032 664L979 422Q952 299 952 207Q952 109 1024 109Q1083 109
1155 156L1192 96Q1058 -20 942 -20Q857 -20 807 35T756 184Q756 278 795 461L842 673Q872 797 872 864Q872 985 778 985Q664 985 545 831T391 524L281 0Z" />
<glyph unicode="o" glyph-name="o" horiz-adv-x="1176" d="M698 1118Q879 1118 983 1009T1087 694Q1087 421 920 201T481 -20Q296 -20 192 92T88 403Q88 679 256 898T698 1118ZM504 80Q673 80 773 280T874 725Q874 1010 674 1010Q507 1010 404 809T301 362Q301
80 504 80Z" />
<glyph unicode="p" glyph-name="p" horiz-adv-x="1182" d="M389 -406L371 -492H-14L258 807Q276 893 276 915Q276 1012 133 1012H117L135 1098H498L449 825H459Q607 1118 834 1118Q959 1118 1026 1023T1094 748Q1094 473 923 227T483 -20Q366 -20 283 27Q274 -39
266 -72L238 -197Q219 -282 219 -311Q219 -406 362 -406H389ZM315 145Q381 72 477 72Q648 72 766 295T885 750Q885 989 756 989Q650 989 542 842T399 535L315 145Z" />
<glyph unicode="q" glyph-name="q" horiz-adv-x="1147" d="M735 309Q586 -20 352 -20Q228 -20 158 78T88 354Q88 636 263 877T698 1118Q826 1118 926 1063L976 1091Q1024 1118 1028 1118H1100L817 -217Q805 -274 805 -309Q805 -406 946 -406H963L944 -492H571L657
-82Q665 -43 748 309H735ZM864 952Q819 1026 709 1026Q532 1026 415 800T297 344Q297 109 426 109Q527 109 638 257T788 590L864 952Z" />
<glyph unicode="r" glyph-name="r" horiz-adv-x="958" d="M799 821Q799 983 717 983Q622 983 516 796T358 373L281 0H90L262 823Q274 880 274 915Q274 1012 111 1012H94L113 1098H475L432 803H453Q535 986 615 1052T801 1118Q969 1118 969 977Q969 821 799 821Z" />
<glyph unicode="s" glyph-name="s" horiz-adv-x="950" d="M741 795Q741 898 693 960T557 1022Q465 1022 412 973T358 846Q358 778 409 730T567 635Q813 525 813 317Q813 166 697 73T389 -20Q234 -20 143 42T51 211Q51 277 87 311T180 346Q180 219 241 149T414
78Q635 78 635 268Q635 341 588 391T428 494Q281 564 231 638T180 811Q180 945 289 1030T575 1116Q726 1116 810 1060T895 922Q895 795 741 795Z" />
<glyph unicode="t" glyph-name="t" horiz-adv-x="754" d="M616 154L651 78Q513 -20 375 -20Q152 -20 152 219Q152 296 172 391L297 981H141L160 1063Q360 1063 473 1350H567L514 1098H762L737 981H489L365 397Q340 279 340 221Q340 109 449 109Q532 109 616 154Z" />
<glyph unicode="u" glyph-name="u" horiz-adv-x="1227" d="M135 1098H516L381 485Q340 299 340 238Q340 113 440 113Q545 113 666 264T825 588L932 1098H1130L989 440Q958 295 958 213Q958 109 1026 109Q1084 109 1157 154L1194 94Q1064 -20 934 -20Q857 -20 810
35T762 174Q762 227 772 295H756Q645 112 558 47T360 -18Q141 -18 141 209Q141 274 178 434L258 793Q276 874 276 915Q276 1012 133 1012H117L135 1098Z" />
<glyph unicode="v" glyph-name="v" horiz-adv-x="1102" d="M197 903Q180 1012 55 1012H35L51 1098H358L453 492Q489 260 500 129H506Q659 276 771 472T883 788Q883 860 848 902T756 944Q756 1018 796 1063T895 1108Q1034 1108 1034 918Q1034 732 893 483T524 2L340
-18L197 903Z" />
<glyph unicode="w" glyph-name="w" horiz-adv-x="1677" d="M246 -18L231 864Q230 936 203 974T96 1012H76L104 1098H412Q418 666 418 164H426Q693 633 883 1079L1053 1087Q1096 548 1096 150H1110Q1277 355 1386 555T1495 874Q1495 968 1407 997Q1425 1118 1528
1118Q1636 1118 1636 965Q1636 670 1122 2L920 -20L889 866Q796 645 457 6L246 -18Z" />
<glyph unicode="x" glyph-name="x" horiz-adv-x="1118" d="M-41 0L-18 86H8Q64 86 105 111T221 227L483 545L350 864Q311 959 286 985T203 1012H176L193 1098H465L621 684L893 1098H1155L1122 1012H1096Q1036 1012 996 983T883 864L668 588L809 233Q845 141 870
114T956 86H983L967 0H692L526 451L219 0H-41Z" />
<glyph unicode="y" glyph-name="y" horiz-adv-x="1081" d="M164 903Q146 963 115 987T23 1012H2L18 1098H317L477 545Q551 288 563 174H569Q846 595 846 854Q846 965 745 965Q745 1034 785 1075T879 1116Q1018 1116 1018 944Q1018 697 742 250T300 -345T-139 -492Q-247
-492 -332 -455L-301 -352Q-229 -375 -141 -375Q152 -375 434 -2L164 903Z" />
<glyph unicode="z" glyph-name="z" horiz-adv-x="1047" d="M616 117Q665 117 705 148T791 285L811 332H897L817 0H-2L14 82L711 981H451Q380 981 342 947T258 815L254 807H168L250 1098H967L950 1014L252 117H616Z" />
<glyph unicode="{" glyph-name="braceleft" horiz-adv-x="877" d="M676 -262Q537 -262 459 -185T381 33V389Q381 599 139 606V692Q381 697 381 907V1264Q381 1556 676 1556H811V1468H750Q582 1468 582 1253V903Q582 689 354 651V649Q582 610 582 395V41Q582 -174
750 -174H811V-262H676Z" />
<glyph unicode="|" glyph-name="bar" horiz-adv-x="1145" d="M649 -492H526V1556H649V-492Z" />
<glyph unicode="}" glyph-name="braceright" horiz-adv-x="877" d="M129 -174H190Q358 -174 358 41V395Q358 610 586 649V651Q358 689 358 903V1253Q358 1468 190 1468H129V1556H264Q559 1556 559 1264V907Q559 697 801 692V606Q559 599 559 389V33Q559 -108 481
-185T264 -262H129V-174Z" />
<glyph unicode="~" glyph-name="asciitilde" horiz-adv-x="1149" d="M250 551H129Q157 909 387 909Q481 909 635 774Q742 672 803 672Q860 672 887 734T928 909H1051Q1012 551 793 551Q696 551 555 680Q437 788 379 788Q319 788 290 730T250 551Z" />
<glyph unicode="&#xa0;" glyph-name="uni00A0" horiz-adv-x="532" />
<glyph unicode="&#xa1;" glyph-name="exclamdown" horiz-adv-x="682" d="M420 1112Q547 1112 547 987Q547 916 511 873T412 829Q285 829 285 954Q285 1028 321 1070T420 1112ZM260 -367H23L317 684H412L260 -367Z" />
<glyph unicode="&#xa2;" glyph-name="cent" horiz-adv-x="1145" d="M496 182Q340 208 256 318T172 600Q172 849 327 1068T733 1313L766 1462H868L836 1311Q952 1300 1016 1247T1081 1118Q1081 1056 1032 1016T899 975Q899 1141 811 1196L623 305Q792 311 905 453Q926
438 926 401Q926 322 838 252T596 176L559 0H457L496 182ZM524 319L713 1212Q575 1187 480 980T385 584Q385 370 524 319Z" />
<glyph unicode="&#xa3;" glyph-name="sterling" horiz-adv-x="1145" d="M530 690Q537 646 537 582Q537 345 279 193L281 184Q365 221 438 221Q498 221 617 182Q735 143 776 143Q890 143 981 236L1036 168Q851 -20 688 -20Q623 -20 499 26Q375 72 301 72Q187 72
63 12L35 -2L-2 80L70 121Q365 289 365 563Q365 613 350 690H123L145 793H334Q307 919 307 999Q307 1225 442 1354T807 1483Q962 1483 1054 1427T1147 1282Q1147 1120 977 1120Q977 1380 776 1380Q637 1380 562 1284T487 1012Q487 932 516 793H864L842 690H530Z"
/>
<glyph unicode="&#xa4;" glyph-name="currency" horiz-adv-x="1145" d="M283 952L147 1087L233 1174L367 1038Q466 1110 588 1110Q704 1110 805 1038L942 1176L1028 1087L893 952Q965 853 965 733Q965 613 893 514L1028 379L944 293L807 428Q703 358 588 358Q464
358 369 428L233 293L147 379L281 514Q213 613 213 733Q213 857 283 952ZM588 471Q696 471 773 548T850 733Q850 843 774 920T588 997Q480 997 404 920T328 733Q328 626 404 549T588 471Z" />
<glyph unicode="&#xa5;" glyph-name="yen" horiz-adv-x="1104" d="M582 225Q573 181 573 168Q573 86 721 86H768L750 0H121L139 86H186Q290 86 330 122T383 223L412 362H125L145 459H432L463 602H176L197 698H444L287 1268Q271 1326 248 1351T164 1376H158L176
1462H655L637 1376H633Q564 1376 528 1363T492 1307Q492 1264 516 1176L569 956Q604 810 612 707Q634 746 719 874L889 1124Q981 1259 981 1317Q981 1376 870 1376H864L883 1462H1300L1282 1376H1264Q1218 1376 1186 1353T1075 1217L715 698H969L948 602H662L631
459H918L897 362H610L582 225Z" />
<glyph unicode="&#xa6;" glyph-name="brokenbar" horiz-adv-x="1145" d="M649 737H526V1556H649V737ZM649 -492H526V328H649V-492Z" />
<glyph unicode="&#xa7;" glyph-name="section" horiz-adv-x="1114" d="M170 131Q170 11 237 -62T420 -135Q545 -135 622 -69T700 106Q700 171 649 231T408 393Q180 517 180 723Q180 889 360 1001Q311 1084 311 1186Q311 1354 434 1455T748 1556Q891 1556 981 1496T1071
1352Q1071 1278 1034 1244T905 1210Q905 1325 856 1392T711 1460Q611 1460 540 1404T469 1251Q469 1171 510 1118T739 963Q989 829 989 645Q989 473 811 336Q852 260 852 184Q852 1 725 -117T389 -236Q232 -236 137 -173T41 -4Q41 61 77 96T170 131ZM406 944Q324
884 324 799Q324 723 374 669T561 539Q682 472 760 401Q836 484 836 557Q836 680 625 795Q480 874 406 944Z" />
<glyph unicode="&#xa8;" glyph-name="dieresis" horiz-adv-x="1182" d="M514 1294Q412 1294 412 1397Q412 1526 522 1526Q625 1526 625 1423Q625 1294 514 1294ZM903 1294Q801 1294 801 1397Q801 1526 911 1526Q1014 1526 1014 1423Q1014 1294 903 1294Z" />
<glyph unicode="&#xa9;" glyph-name="copyright" horiz-adv-x="1731" d="M881 1485Q1190 1485 1412 1264T1634 731Q1634 422 1413 201T881 -20Q569 -20 349 201T129 731Q129 1042 350 1263T881 1485ZM881 92Q1145 92 1333 280T1522 731Q1522 995 1334 1183T881
1372Q616 1372 429 1183T242 731Q242 469 429 281T881 92ZM1169 504Q1198 483 1198 440Q1198 376 1115 326T891 276Q697 276 589 396T481 733Q481 943 598 1064T920 1186Q1052 1186 1126 1146T1200 1040Q1200 997 1161 971T1061 944Q1061 1100 915 1100Q649 1100
649 733Q649 556 718 461T918 365Q1088 365 1169 504Z" />
<glyph unicode="&#xaa;" glyph-name="ordfeminine" horiz-adv-x="805" d="M573 995H565Q458 782 303 782Q217 782 170 842T123 1008Q123 1174 242 1320T543 1466Q641 1466 707 1423L770 1452H815L719 1073Q698 990 698 942Q698 881 739 881Q774 881 827 913L850
874Q757 782 672 782Q559 782 559 885Q559 942 573 995ZM629 1350Q600 1391 539 1391Q437 1391 369 1266T301 1012Q301 879 371 879Q425 879 486 964T575 1147L629 1350Z" />
<glyph unicode="&#xab;" glyph-name="guillemotleft" horiz-adv-x="1053" d="M139 586L528 942H631L336 543L465 164H362L125 520L139 586ZM510 586L899 942H1001L707 543L836 164H733L496 520L510 586Z" />
<glyph unicode="&#xac;" glyph-name="logicalnot" horiz-adv-x="1145" d="M1028 793V252H905V672H150V793H1028Z" />
<glyph unicode="&#xad;" glyph-name="uni00AD" horiz-adv-x="635" d="M29 481L61 635H594L561 481H29Z" />
<glyph unicode="&#xae;" glyph-name="registered" horiz-adv-x="1731" d="M881 1485Q1190 1485 1412 1264T1634 731Q1634 422 1413 201T881 -20Q569 -20 349 201T129 731Q129 1042 350 1263T881 1485ZM881 92Q1145 92 1333 280T1522 731Q1522 995 1334 1183T881
1372Q616 1372 429 1183T242 731Q242 469 429 281T881 92ZM494 358H520Q621 358 621 430V1030Q621 1102 520 1102H494V1174H862Q1214 1174 1214 930Q1214 766 1028 705L1210 412Q1230 379 1250 369T1325 358V289H1108L883 670H774V430Q774 358 874 358H903V289H494V358ZM774
748H860Q963 748 1008 788T1053 928Q1053 1019 1007 1056T854 1094H774V748Z" />
<glyph unicode="&#xaf;" glyph-name="overscore" horiz-adv-x="940" d="M950 1556H-10V1677H950V1556Z" />
<glyph unicode="&#xb0;" glyph-name="degree" horiz-adv-x="819" d="M481 1462Q609 1462 701 1371T793 1151Q793 1024 702 933T481 842Q353 842 263 932T172 1151Q172 1281 263 1371T481 1462ZM481 963Q560 963 615 1018T670 1151Q670 1231 615 1286T481 1341Q406
1341 351 1287T295 1151Q295 1073 350 1018T481 963Z" />
<glyph unicode="&#xb1;" glyph-name="plusminus" horiz-adv-x="1145" d="M649 672V293H526V672H150V793H526V1171H649V793H1028V672H649ZM1028 0H150V121H1028V0Z" />
<glyph unicode="&#xb2;" glyph-name="uni00B2" horiz-adv-x="819" d="M41 586L51 647L369 909Q480 1000 535 1084T590 1282Q590 1401 487 1401Q425 1401 380 1348T322 1206Q260 1206 225 1233T190 1305Q190 1382 274 1432T502 1483Q626 1483 698 1429T770 1288Q770
1191 708 1107T487 897L242 702H524Q601 702 633 786L649 829H719L662 586H41Z" />
<glyph unicode="&#xb3;" glyph-name="uni00B3" horiz-adv-x="819" d="M197 842Q197 767 242 717T362 666Q557 666 557 848Q557 917 508 959T371 1001H303L319 1085H387Q484 1085 549 1147T614 1305Q614 1401 520 1401Q384 1401 348 1223Q213 1223 213 1309Q213
1382 297 1432T526 1483Q657 1483 730 1432T803 1296Q803 1107 541 1055L539 1044Q745 1017 745 856Q745 723 638 648T348 573Q218 573 149 616T80 731Q80 842 197 842Z" />
<glyph unicode="&#xb4;" glyph-name="acute" horiz-adv-x="1182" d="M508 1268Q625 1403 727 1569H946L940 1548Q783 1365 584 1241H502L508 1268Z" />
<glyph unicode="&#xb5;" glyph-name="uni00B5" horiz-adv-x="1237" d="M223 100Q190 -70 190 -147Q190 -296 303 -313Q284 -492 129 -492Q-4 -492 -4 -344Q-4 -253 57 -34Q144 280 182 461L317 1098H510L375 457Q352 348 352 268Q352 111 502 111Q608 111 690
201T803 442L942 1098H1135L971 332Q946 215 946 174Q946 109 1006 109Q1050 109 1118 143L1153 74Q1017 -20 915 -20Q770 -20 762 176H752Q619 -20 455 -20Q286 -20 223 100Z" />
<glyph unicode="&#xb6;" glyph-name="paragraph" horiz-adv-x="1264" d="M877 1452H682V-227H362V-141H389Q488 -141 522 -103T557 6V791H412Q98 791 98 1192Q98 1556 416 1556H1196V1470H1169Q1071 1470 1036 1433T1001 1323V6Q1001 -66 1036 -103T1169 -141H1196V-227H877V1452Z"
/>
<glyph unicode="&#xb7;" glyph-name="middot" horiz-adv-x="586" d="M315 588Q188 588 188 713Q188 784 224 827T323 870Q450 870 450 745Q450 672 414 630T315 588Z" />
<glyph unicode="&#xb8;" glyph-name="cedilla" horiz-adv-x="682" d="M387 -70Q461 -80 506 -128T551 -240Q551 -359 465 -425T225 -492Q146 -492 72 -469L94 -365Q164 -381 231 -381Q383 -381 383 -256Q383 -154 252 -141L330 18H426L387 -70Z" />
<glyph unicode="&#xb9;" glyph-name="uni00B9" horiz-adv-x="819" d="M135 588L150 657H244Q329 657 344 735L469 1325H279L293 1395H395Q538 1395 582 1473H684L541 795Q526 724 526 709Q526 657 598 657H692L678 588H135Z" />
<glyph unicode="&#xba;" glyph-name="ordmasculine" horiz-adv-x="813" d="M420 780Q287 780 212 848T137 1036Q137 1198 254 1333T557 1468Q687 1468 761 1402T836 1217Q836 1053 721 917T420 780ZM543 1386Q445 1386 381 1267T317 1014Q317 862 420 862Q519
862 581 980T643 1241Q643 1386 543 1386Z" />
<glyph unicode="&#xbb;" glyph-name="guillemotright" horiz-adv-x="1053" d="M911 520L522 164H420L719 563L586 942H688L926 586L911 520ZM541 520L152 164H49L348 563L215 942H317L555 586L541 520Z" />
<glyph unicode="&#xbc;" glyph-name="onequarter" horiz-adv-x="1720" d="M283 588L298 657H392Q477 657 492 735L617 1325H427L441 1395H543Q686 1395 730 1473H832L689 795Q674 724 674 709Q674 657 746 657H840L826 588H283ZM420 0H277L1309 1462H1448L420
0ZM1437 261L1419 177Q1411 140 1411 122Q1411 70 1482 70H1523L1509 1H1058L1073 70H1130Q1215 70 1230 148L1255 261H892L903 331L1404 886H1568L1456 349H1652L1634 261H1437ZM1323 572Q1348 685 1364 732L1321 673L1030 349H1273L1323 572Z" />
<glyph unicode="&#xbd;" glyph-name="onehalf" horiz-adv-x="1720" d="M283 588L298 657H392Q477 657 492 735L617 1325H427L441 1395H543Q686 1395 730 1473H832L689 795Q674 724 674 709Q674 657 746 657H840L826 588H283ZM399 0H256L1288 1462H1427L399 0ZM922
1L932 62L1250 324Q1361 415 1416 499T1471 697Q1471 816 1368 816Q1306 816 1261 763T1203 621Q1141 621 1106 648T1071 720Q1071 797 1155 847T1383 898Q1507 898 1579 844T1651 703Q1651 606 1589 522T1368 312L1123 117H1405Q1482 117 1514 201L1530 244H1600L1543
1H922Z" />
<glyph unicode="&#xbe;" glyph-name="threequarters" horiz-adv-x="1720" d="M411 842Q411 767 456 717T576 666Q771 666 771 848Q771 917 722 959T585 1001H517L533 1085H601Q698 1085 763 1147T828 1305Q828 1401 734 1401Q598 1401 562 1223Q427 1223 427 1309Q427
1382 511 1432T740 1483Q871 1483 944 1432T1017 1296Q1017 1107 755 1055L753 1044Q959 1017 959 856Q959 723 852 648T562 573Q432 573 363 616T294 731Q294 842 411 842ZM475 0H332L1364 1462H1503L475 0ZM1458 261L1440 177Q1432 140 1432 122Q1432 70 1503
70H1544L1530 1H1079L1094 70H1151Q1236 70 1251 148L1276 261H913L924 331L1425 886H1589L1477 349H1673L1655 261H1458ZM1344 572Q1369 685 1385 732L1342 673L1051 349H1294L1344 572Z" />
<glyph unicode="&#xbf;" glyph-name="questiondown" horiz-adv-x="1024" d="M666 1110Q793 1110 793 985Q793 914 756 871T657 827Q597 827 564 861T530 952Q530 1027 567 1068T666 1110ZM506 444L557 682H682L618 379Q203 227 203 -66Q203 -166 257 -226T401
-287Q613 -287 655 4Q803 4 803 -119Q803 -232 689 -310T389 -389Q2 -389 2 -49Q2 262 506 444Z" />
<glyph unicode="&#xc0;" glyph-name="Agrave" horiz-adv-x="1444" d="M408 489L285 274Q246 206 246 160Q246 86 360 86H408L391 0H-115L-98 86H-59Q-4 86 33 114T131 246L844 1462H1004L1198 195Q1208 131 1233 109T1319 86H1346L1329 0H772L788 86H836Q983 86
983 190Q983 232 979 260L946 489H408ZM881 950Q850 1168 848 1274Q801 1163 688 969L469 592H932L881 950ZM923 1579Q769 1729 659 1886L665 1907H870Q930 1752 1007 1606L1001 1579H923Z" />
<glyph unicode="&#xc1;" glyph-name="Aacute" horiz-adv-x="1444" d="M408 489L285 274Q246 206 246 160Q246 86 360 86H408L391 0H-115L-98 86H-59Q-4 86 33 114T131 246L844 1462H1004L1198 195Q1208 131 1233 109T1319 86H1346L1329 0H772L788 86H836Q983 86
983 190Q983 232 979 260L946 489H408ZM881 950Q850 1168 848 1274Q801 1163 688 969L469 592H932L881 950ZM838 1606Q955 1741 1057 1907H1276L1270 1886Q1113 1703 914 1579H832L838 1606Z" />
<glyph unicode="&#xc2;" glyph-name="Acircumflex" horiz-adv-x="1444" d="M408 489L285 274Q246 206 246 160Q246 86 360 86H408L391 0H-115L-98 86H-59Q-4 86 33 114T131 246L844 1462H1004L1198 195Q1208 131 1233 109T1319 86H1346L1329 0H772L788 86H836Q983
86 983 190Q983 232 979 260L946 489H408ZM881 950Q850 1168 848 1274Q801 1163 688 969L469 592H932L881 950ZM617 1606Q803 1789 887 1907H1082Q1111 1790 1221 1606L1215 1579H1143Q1048 1644 961 1763Q811 1636 699 1579H611L617 1606Z" />
<glyph unicode="&#xc3;" glyph-name="Atilde" horiz-adv-x="1444" d="M408 489L285 274Q246 206 246 160Q246 86 360 86H408L391 0H-115L-98 86H-59Q-4 86 33 114T131 246L844 1462H1004L1198 195Q1208 131 1233 109T1319 86H1346L1329 0H772L788 86H836Q983 86
983 190Q983 232 979 260L946 489H408ZM881 950Q850 1168 848 1274Q801 1163 688 969L469 592H932L881 950ZM1229 1821H1321Q1249 1579 1055 1579Q974 1579 886 1644Q797 1708 760 1708Q672 1708 637 1600H545Q617 1841 813 1841Q895 1841 982 1777Q1069 1712 1106
1712Q1195 1712 1229 1821Z" />
<glyph unicode="&#xc4;" glyph-name="Adieresis" horiz-adv-x="1444" d="M408 489L285 274Q246 206 246 160Q246 86 360 86H408L391 0H-115L-98 86H-59Q-4 86 33 114T131 246L844 1462H1004L1198 195Q1208 131 1233 109T1319 86H1346L1329 0H772L788 86H836Q983
86 983 190Q983 232 979 260L946 489H408ZM881 950Q850 1168 848 1274Q801 1163 688 969L469 592H932L881 950ZM756 1632Q654 1632 654 1735Q654 1864 764 1864Q867 1864 867 1761Q867 1632 756 1632ZM1145 1632Q1043 1632 1043 1735Q1043 1864 1153 1864Q1256
1864 1256 1761Q1256 1632 1145 1632Z" />
<glyph unicode="&#xc5;" glyph-name="Aring" horiz-adv-x="1444" d="M408 489L285 274Q246 206 246 160Q246 86 360 86H408L391 0H-115L-98 86H-59Q-4 86 33 114T131 246L844 1462H1004L1198 195Q1208 131 1233 109T1319 86H1346L1329 0H772L788 86H836Q983 86
983 190Q983 232 979 260L946 489H408ZM881 950Q850 1168 848 1274Q801 1163 688 969L469 592H932L881 950ZM914 1362Q807 1362 738 1421T668 1585Q668 1689 737 1748T914 1808Q1022 1808 1091 1749T1160 1585Q1160 1480 1091 1421T914 1362ZM914 1708Q779 1708
779 1585Q779 1462 914 1462Q1049 1462 1049 1585Q1049 1708 914 1708Z" />
<glyph unicode="&#xc6;" glyph-name="AE" horiz-adv-x="1948" d="M-127 0L-98 86H-59Q-5 86 35 114T152 246L967 1364L793 1376L811 1462H1970L1905 1104H1798Q1808 1174 1808 1223Q1808 1360 1663 1360H1319L1202 815H1696L1675 715H1182L1051 102H1446Q1618
102 1677 270L1710 358H1817L1726 0H629L645 86H672Q775 86 816 121T870 223L926 489H463L309 274Q254 197 254 154Q254 86 358 86H406L377 0H-127ZM1110 1360H1071Q974 1192 811 969L539 592H948L1110 1360Z" />
<glyph unicode="&#xc7;" glyph-name="Ccedilla" horiz-adv-x="1284" d="M1073 299Q1100 280 1100 231Q1100 133 986 57T672 -20Q405 -20 256 123T106 528Q106 916 348 1199T950 1483Q1129 1483 1229 1422T1329 1255Q1329 1182 1274 1139T1128 1096Q1128 1374 924
1374Q671 1374 501 1099T330 496Q330 113 694 113Q931 113 1073 299ZM649 -70Q723 -80 768 -128T813 -240Q813 -359 727 -425T487 -492Q408 -492 334 -469L356 -365Q426 -381 493 -381Q645 -381 645 -256Q645 -154 514 -141L592 18H688L649 -70Z" />
<glyph unicode="&#xc8;" glyph-name="Egrave" horiz-adv-x="1276" d="M379 102H774Q947 102 1006 270L1038 358H1145L1055 0H-43L-27 86H0Q104 86 144 122T199 223L412 1229Q418 1257 418 1278Q418 1326 390 1351T274 1376H248L266 1462H1298L1233 1104H1126L1132
1167Q1137 1215 1137 1223Q1137 1360 991 1360H647L530 815H1024L1004 715H510L379 102ZM849 1579Q695 1729 585 1886L591 1907H796Q856 1752 933 1606L927 1579H849Z" />
<glyph unicode="&#xc9;" glyph-name="Eacute" horiz-adv-x="1276" d="M379 102H774Q947 102 1006 270L1038 358H1145L1055 0H-43L-27 86H0Q104 86 144 122T199 223L412 1229Q418 1257 418 1278Q418 1326 390 1351T274 1376H248L266 1462H1298L1233 1104H1126L1132
1167Q1137 1215 1137 1223Q1137 1360 991 1360H647L530 815H1024L1004 715H510L379 102ZM725 1606Q842 1741 944 1907H1163L1157 1886Q1000 1703 801 1579H719L725 1606Z" />
<glyph unicode="&#xca;" glyph-name="Ecircumflex" horiz-adv-x="1276" d="M379 102H774Q947 102 1006 270L1038 358H1145L1055 0H-43L-27 86H0Q104 86 144 122T199 223L412 1229Q418 1257 418 1278Q418 1326 390 1351T274 1376H248L266 1462H1298L1233 1104H1126L1132
1167Q1137 1215 1137 1223Q1137 1360 991 1360H647L530 815H1024L1004 715H510L379 102ZM551 1606Q737 1789 821 1907H1016Q1045 1790 1155 1606L1149 1579H1077Q982 1644 895 1763Q745 1636 633 1579H545L551 1606Z" />
<glyph unicode="&#xcb;" glyph-name="Edieresis" horiz-adv-x="1276" d="M379 102H774Q947 102 1006 270L1038 358H1145L1055 0H-43L-27 86H0Q104 86 144 122T199 223L412 1229Q418 1257 418 1278Q418 1326 390 1351T274 1376H248L266 1462H1298L1233 1104H1126L1132
1167Q1137 1215 1137 1223Q1137 1360 991 1360H647L530 815H1024L1004 715H510L379 102ZM643 1632Q541 1632 541 1735Q541 1864 651 1864Q754 1864 754 1761Q754 1632 643 1632ZM1032 1632Q930 1632 930 1735Q930 1864 1040 1864Q1143 1864 1143 1761Q1143 1632
1032 1632Z" />
<glyph unicode="&#xcc;" glyph-name="Igrave" horiz-adv-x="752" d="M862 1462L844 1376H817Q719 1376 676 1339T618 1229L406 225Q397 182 397 168Q397 86 545 86H571L553 0H-43L-27 86H0Q170 86 201 233L414 1237Q422 1275 422 1294Q422 1376 274 1376H248L266
1462H862ZM607 1579Q453 1729 343 1886L349 1907H554Q614 1752 691 1606L685 1579H607Z" />
<glyph unicode="&#xcd;" glyph-name="Iacute" horiz-adv-x="752" d="M862 1462L844 1376H817Q719 1376 676 1339T618 1229L406 225Q397 182 397 168Q397 86 545 86H571L553 0H-43L-27 86H0Q170 86 201 233L414 1237Q422 1275 422 1294Q422 1376 274 1376H248L266
1462H862ZM476 1606Q593 1741 695 1907H914L908 1886Q751 1703 552 1579H470L476 1606Z" />
<glyph unicode="&#xce;" glyph-name="Icircumflex" horiz-adv-x="752" d="M862 1462L844 1376H817Q719 1376 676 1339T618 1229L406 225Q397 182 397 168Q397 86 545 86H571L553 0H-43L-27 86H0Q170 86 201 233L414 1237Q422 1275 422 1294Q422 1376 274 1376H248L266
1462H862ZM280 1606Q466 1789 550 1907H745Q774 1790 884 1606L878 1579H806Q711 1644 624 1763Q474 1636 362 1579H274L280 1606Z" />
<glyph unicode="&#xcf;" glyph-name="Idieresis" horiz-adv-x="752" d="M862 1462L844 1376H817Q719 1376 676 1339T618 1229L406 225Q397 182 397 168Q397 86 545 86H571L553 0H-43L-27 86H0Q170 86 201 233L414 1237Q422 1275 422 1294Q422 1376 274 1376H248L266
1462H862ZM404 1632Q302 1632 302 1735Q302 1864 412 1864Q515 1864 515 1761Q515 1632 404 1632ZM793 1632Q691 1632 691 1735Q691 1864 801 1864Q904 1864 904 1761Q904 1632 793 1632Z" />
<glyph unicode="&#xd0;" glyph-name="Eth" horiz-adv-x="1530" d="M-27 86H0Q170 86 201 233L303 715H104L127 815H324L414 1237Q422 1275 422 1294Q422 1376 274 1376H248L266 1462H881Q1160 1462 1311 1318T1462 905Q1462 513 1239 257T643 0H-43L-27 86ZM598
104Q892 104 1065 330T1239 928Q1239 1360 850 1360H647L530 815H918L895 715H508L379 104H598Z" />
<glyph unicode="&#xd1;" glyph-name="Ntilde" horiz-adv-x="1563" d="M1327 1237Q1335 1275 1335 1294Q1335 1376 1188 1376H1161L1180 1462H1694L1675 1376H1649Q1551 1376 1509 1339T1450 1229L1190 0H1057L530 1200L324 225Q315 182 315 168Q315 86 463 86H489L471
0H-41L-23 86H4Q100 86 142 123T201 233L414 1237Q422 1275 422 1294Q422 1376 274 1376H248L266 1462H639L1135 332L1327 1237ZM1347 1821H1439Q1367 1579 1173 1579Q1092 1579 1004 1644Q915 1708 878 1708Q790 1708 755 1600H663Q735 1841 931 1841Q1013 1841
1100 1777Q1187 1712 1224 1712Q1313 1712 1347 1821Z" />
<glyph unicode="&#xd2;" glyph-name="Ograve" horiz-adv-x="1520" d="M926 1485Q1164 1485 1310 1337T1456 922Q1456 571 1228 274T643 -23Q400 -23 253 130T106 545Q106 897 336 1191T926 1485ZM655 90Q910 90 1070 372T1231 977Q1231 1168 1147 1271T909 1374Q653
1374 492 1091T330 487Q330 295 417 193T655 90ZM1022 1579Q868 1729 758 1886L764 1907H969Q1029 1752 1106 1606L1100 1579H1022Z" />
<glyph unicode="&#xd3;" glyph-name="Oacute" horiz-adv-x="1520" d="M926 1485Q1164 1485 1310 1337T1456 922Q1456 571 1228 274T643 -23Q400 -23 253 130T106 545Q106 897 336 1191T926 1485ZM655 90Q910 90 1070 372T1231 977Q1231 1168 1147 1271T909 1374Q653
1374 492 1091T330 487Q330 295 417 193T655 90ZM827 1606Q944 1741 1046 1907H1265L1259 1886Q1102 1703 903 1579H821L827 1606Z" />
<glyph unicode="&#xd4;" glyph-name="Ocircumflex" horiz-adv-x="1520" d="M926 1485Q1164 1485 1310 1337T1456 922Q1456 571 1228 274T643 -23Q400 -23 253 130T106 545Q106 897 336 1191T926 1485ZM655 90Q910 90 1070 372T1231 977Q1231 1168 1147 1271T909
1374Q653 1374 492 1091T330 487Q330 295 417 193T655 90ZM639 1606Q825 1789 909 1907H1104Q1133 1790 1243 1606L1237 1579H1165Q1070 1644 983 1763Q833 1636 721 1579H633L639 1606Z" />
<glyph unicode="&#xd5;" glyph-name="Otilde" horiz-adv-x="1520" d="M926 1485Q1164 1485 1310 1337T1456 922Q1456 571 1228 274T643 -23Q400 -23 253 130T106 545Q106 897 336 1191T926 1485ZM655 90Q910 90 1070 372T1231 977Q1231 1168 1147 1271T909 1374Q653
1374 492 1091T330 487Q330 295 417 193T655 90ZM1272 1821H1364Q1292 1579 1098 1579Q1017 1579 929 1644Q840 1708 803 1708Q715 1708 680 1600H588Q660 1841 856 1841Q938 1841 1025 1777Q1112 1712 1149 1712Q1238 1712 1272 1821Z" />
<glyph unicode="&#xd6;" glyph-name="Odieresis" horiz-adv-x="1520" d="M926 1485Q1164 1485 1310 1337T1456 922Q1456 571 1228 274T643 -23Q400 -23 253 130T106 545Q106 897 336 1191T926 1485ZM655 90Q910 90 1070 372T1231 977Q1231 1168 1147 1271T909
1374Q653 1374 492 1091T330 487Q330 295 417 193T655 90ZM780 1632Q678 1632 678 1735Q678 1864 788 1864Q891 1864 891 1761Q891 1632 780 1632ZM1169 1632Q1067 1632 1067 1735Q1067 1864 1177 1864Q1280 1864 1280 1761Q1280 1632 1169 1632Z" />
<glyph unicode="&#xd7;" glyph-name="multiply" horiz-adv-x="1145" d="M571 647L231 307L145 395L485 735L145 1073L231 1159L571 819L911 1161L997 1073L657 733L997 393L911 307L571 647Z" />
<glyph unicode="&#xd8;" glyph-name="Oslash" horiz-adv-x="1520" d="M1217 1409L1323 1546H1442L1292 1352Q1456 1200 1456 922Q1456 571 1228 274T643 -23Q478 -23 354 51L258 -82H137L274 109Q106 265 106 545Q106 897 336 1191T926 1485Q1091 1485 1217 1409ZM379
250L1130 1288Q1046 1374 909 1374Q653 1374 492 1091T330 487Q330 348 379 250ZM1188 1204L438 168Q524 90 655 90Q910 90 1070 372T1231 977Q1231 1106 1188 1204Z" />
<glyph unicode="&#xd9;" glyph-name="Ugrave" horiz-adv-x="1495" d="M205 1376L223 1462H819L803 1376H776Q680 1376 636 1340T575 1229L422 506Q397 388 397 315Q397 102 692 102Q858 102 955 176T1090 422L1264 1237Q1272 1274 1272 1294Q1272 1376 1124 1376H1098L1116
1462H1630L1614 1376H1587Q1491 1376 1447 1340T1386 1229L1214 418Q1121 -20 662 -20Q436 -20 317 72T197 334Q197 417 219 516L371 1237Q379 1275 379 1294Q379 1376 231 1376H205ZM981 1579Q827 1729 717 1886L723 1907H928Q988 1752 1065 1606L1059 1579H981Z"
/>
<glyph unicode="&#xda;" glyph-name="Uacute" horiz-adv-x="1495" d="M205 1376L223 1462H819L803 1376H776Q680 1376 636 1340T575 1229L422 506Q397 388 397 315Q397 102 692 102Q858 102 955 176T1090 422L1264 1237Q1272 1274 1272 1294Q1272 1376 1124 1376H1098L1116
1462H1630L1614 1376H1587Q1491 1376 1447 1340T1386 1229L1214 418Q1121 -20 662 -20Q436 -20 317 72T197 334Q197 417 219 516L371 1237Q379 1275 379 1294Q379 1376 231 1376H205ZM864 1606Q981 1741 1083 1907H1302L1296 1886Q1139 1703 940 1579H858L864 1606Z"
/>
<glyph unicode="&#xdb;" glyph-name="Ucircumflex" horiz-adv-x="1495" d="M205 1376L223 1462H819L803 1376H776Q680 1376 636 1340T575 1229L422 506Q397 388 397 315Q397 102 692 102Q858 102 955 176T1090 422L1264 1237Q1272 1274 1272 1294Q1272 1376 1124
1376H1098L1116 1462H1630L1614 1376H1587Q1491 1376 1447 1340T1386 1229L1214 418Q1121 -20 662 -20Q436 -20 317 72T197 334Q197 417 219 516L371 1237Q379 1275 379 1294Q379 1376 231 1376H205ZM680 1606Q866 1789 950 1907H1145Q1174 1790 1284 1606L1278
1579H1206Q1111 1644 1024 1763Q874 1636 762 1579H674L680 1606Z" />
<glyph unicode="&#xdc;" glyph-name="Udieresis" horiz-adv-x="1495" d="M205 1376L223 1462H819L803 1376H776Q680 1376 636 1340T575 1229L422 506Q397 388 397 315Q397 102 692 102Q858 102 955 176T1090 422L1264 1237Q1272 1274 1272 1294Q1272 1376 1124
1376H1098L1116 1462H1630L1614 1376H1587Q1491 1376 1447 1340T1386 1229L1214 418Q1121 -20 662 -20Q436 -20 317 72T197 334Q197 417 219 516L371 1237Q379 1275 379 1294Q379 1376 231 1376H205ZM774 1632Q672 1632 672 1735Q672 1864 782 1864Q885 1864 885
1761Q885 1632 774 1632ZM1163 1632Q1061 1632 1061 1735Q1061 1864 1171 1864Q1274 1864 1274 1761Q1274 1632 1163 1632Z" />
<glyph unicode="&#xdd;" glyph-name="Yacute" horiz-adv-x="1280" d="M729 1462L711 1376H608Q524 1376 524 1321Q524 1281 551 1202L643 928Q692 782 698 682Q718 720 852 897L1047 1157Q1122 1257 1122 1323Q1122 1376 1024 1376H948L967 1462H1473L1454 1376H1415Q1376
1376 1338 1345T1229 1221L752 596L672 225Q664 188 664 168Q664 86 811 86H858L840 0H203L221 86H268Q371 86 411 121T465 223L545 600L307 1268Q284 1333 262 1354T184 1376H158L176 1462H729ZM770 1606Q887 1741 989 1907H1208L1202 1886Q1045 1703 846 1579H764L770
1606Z" />
<glyph unicode="&#xde;" glyph-name="Thorn" horiz-adv-x="1237" d="M-41 0L-23 86H4Q100 86 143 123T201 233L414 1237Q422 1275 422 1294Q422 1376 274 1376H248L266 1462H883L864 1376H817Q714 1376 673 1338T618 1229L614 1208H735Q957 1208 1079 1105T1202
813Q1202 580 1045 448T575 315H424L406 225Q397 180 397 168Q397 86 545 86H592L573 0H-41ZM444 412H553Q985 412 985 811Q985 1110 686 1110H592L444 412Z" />
<glyph unicode="&#xdf;" glyph-name="germandbls" horiz-adv-x="1284" d="M-279 -475L-260 -381Q-209 -395 -166 -395Q-64 -395 -7 -308T92 -18L309 1001H143L164 1098H330L344 1159Q438 1567 856 1567Q1229 1567 1229 1253Q1229 1144 1200 1006H1024Q799 1006
799 838Q799 768 843 721T969 627Q1161 514 1161 319Q1161 157 1060 69T766 -20Q621 -20 538 35T455 188Q455 248 498 285T608 322Q608 78 780 78Q871 78 926 130T981 272Q981 410 825 502Q621 628 621 795Q621 1102 1028 1102Q1051 1205 1051 1272Q1051 1475 850
1475Q607 1475 543 1188L285 -16Q231 -266 129 -379T-160 -492Q-218 -492 -279 -475Z" />
<glyph unicode="&#xe0;" glyph-name="agrave" horiz-adv-x="1186" d="M748 309H735Q588 -20 352 -20Q227 -20 158 78T88 354Q88 636 263 877T698 1118Q837 1118 938 1044L1028 1096H1094L954 440Q924 299 924 213Q924 109 991 109Q1049 109 1139 162L1176 102Q1029
-20 887 -20Q727 -20 727 150Q727 215 748 309ZM864 952Q817 1026 709 1026Q534 1026 416 804T297 346Q297 109 426 109Q528 109 640 260T788 590L864 952ZM961 1241Q807 1391 697 1548L703 1569H908Q968 1414 1045 1268L1039 1241H961Z" />
<glyph unicode="&#xe1;" glyph-name="aacute" horiz-adv-x="1186" d="M748 309H735Q588 -20 352 -20Q227 -20 158 78T88 354Q88 636 263 877T698 1118Q837 1118 938 1044L1028 1096H1094L954 440Q924 299 924 213Q924 109 991 109Q1049 109 1139 162L1176 102Q1029
-20 887 -20Q727 -20 727 150Q727 215 748 309ZM864 952Q817 1026 709 1026Q534 1026 416 804T297 346Q297 109 426 109Q528 109 640 260T788 590L864 952ZM637 1268Q754 1403 856 1569H1075L1069 1548Q912 1365 713 1241H631L637 1268Z" />
<glyph unicode="&#xe2;" glyph-name="acircumflex" horiz-adv-x="1186" d="M748 309H735Q588 -20 352 -20Q227 -20 158 78T88 354Q88 636 263 877T698 1118Q837 1118 938 1044L1028 1096H1094L954 440Q924 299 924 213Q924 109 991 109Q1049 109 1139 162L1176
102Q1029 -20 887 -20Q727 -20 727 150Q727 215 748 309ZM864 952Q817 1026 709 1026Q534 1026 416 804T297 346Q297 109 426 109Q528 109 640 260T788 590L864 952ZM410 1268Q596 1451 680 1569H875Q904 1452 1014 1268L1008 1241H936Q841 1306 754 1425Q604 1298
492 1241H404L410 1268Z" />
<glyph unicode="&#xe3;" glyph-name="atilde" horiz-adv-x="1186" d="M748 309H735Q588 -20 352 -20Q227 -20 158 78T88 354Q88 636 263 877T698 1118Q837 1118 938 1044L1028 1096H1094L954 440Q924 299 924 213Q924 109 991 109Q1049 109 1139 162L1176 102Q1029
-20 887 -20Q727 -20 727 150Q727 215 748 309ZM864 952Q817 1026 709 1026Q534 1026 416 804T297 346Q297 109 426 109Q528 109 640 260T788 590L864 952ZM1281 1483H1373Q1301 1241 1107 1241Q1026 1241 938 1306Q849 1370 812 1370Q724 1370 689 1262H597Q669
1503 865 1503Q947 1503 1034 1439Q1121 1374 1158 1374Q1247 1374 1281 1483Z" />
<glyph unicode="&#xe4;" glyph-name="adieresis" horiz-adv-x="1186" d="M748 309H735Q588 -20 352 -20Q227 -20 158 78T88 354Q88 636 263 877T698 1118Q837 1118 938 1044L1028 1096H1094L954 440Q924 299 924 213Q924 109 991 109Q1049 109 1139 162L1176 102Q1029
-20 887 -20Q727 -20 727 150Q727 215 748 309ZM864 952Q817 1026 709 1026Q534 1026 416 804T297 346Q297 109 426 109Q528 109 640 260T788 590L864 952ZM761 1294Q659 1294 659 1397Q659 1526 769 1526Q872 1526 872 1423Q872 1294 761 1294ZM1150 1294Q1048
1294 1048 1397Q1048 1526 1158 1526Q1261 1526 1261 1423Q1261 1294 1150 1294Z" />
<glyph unicode="&#xe5;" glyph-name="aring" horiz-adv-x="1186" d="M748 309H735Q588 -20 352 -20Q227 -20 158 78T88 354Q88 636 263 877T698 1118Q837 1118 938 1044L1028 1096H1094L954 440Q924 299 924 213Q924 109 991 109Q1049 109 1139 162L1176 102Q1029
-20 887 -20Q727 -20 727 150Q727 215 748 309ZM864 952Q817 1026 709 1026Q534 1026 416 804T297 346Q297 109 426 109Q528 109 640 260T788 590L864 952ZM737 1221Q630 1221 561 1280T491 1444Q491 1548 560 1607T737 1667Q845 1667 914 1608T983 1444Q983 1339
914 1280T737 1221ZM737 1567Q602 1567 602 1444Q602 1321 737 1321Q872 1321 872 1444Q872 1567 737 1567Z" />
<glyph unicode="&#xe6;" glyph-name="ae" horiz-adv-x="1665" d="M1477 256Q1497 242 1497 205Q1497 121 1401 51T1143 -20Q1002 -20 900 55T764 274Q648 -20 397 -20Q257 -20 173 88T88 387Q88 665 252 891T686 1118Q847 1118 999 991Q1152 1118 1354 1118Q1484
1118 1555 1056T1626 883Q1626 717 1454 594T1032 471H997Q979 471 961 473Q956 448 956 387Q956 109 1182 109Q1353 109 1477 256ZM905 893Q808 1026 696 1026Q523 1026 410 809T297 365Q297 243 342 176T469 109Q571 109 646 208T750 475Q788 708 905 893ZM979
567H999Q1180 567 1297 655T1415 883Q1415 1020 1296 1020Q1196 1020 1110 893T979 567Z" />
<glyph unicode="&#xe7;" glyph-name="ccedilla" horiz-adv-x="997" d="M821 256Q842 243 842 205Q842 123 746 52T487 -20Q308 -20 198 93T88 403Q88 671 261 894T698 1118Q839 1118 918 1062T997 922Q997 860 948 819T815 778Q815 887 773 953T657 1020Q514 1020
408 806T301 387Q301 109 526 109Q705 109 821 256ZM487 -70Q561 -80 606 -128T651 -240Q651 -359 565 -425T325 -492Q246 -492 172 -469L194 -365Q264 -381 331 -381Q483 -381 483 -256Q483 -154 352 -141L430 18H526L487 -70Z" />
<glyph unicode="&#xe8;" glyph-name="egrave" horiz-adv-x="1010" d="M821 256Q842 243 842 205Q842 123 746 52T487 -20Q308 -20 198 93T88 403Q88 671 261 894T698 1118Q828 1118 899 1056T971 883Q971 717 799 594T377 471H342Q324 471 305 473Q301 445 301
387Q301 109 526 109Q701 109 821 256ZM324 567H344Q525 567 642 655T760 883Q760 1020 641 1020Q542 1020 456 896T324 567ZM977 1241Q823 1391 713 1548L719 1569H924Q984 1414 1061 1268L1055 1241H977Z" />
<glyph unicode="&#xe9;" glyph-name="eacute" horiz-adv-x="1010" d="M821 256Q842 243 842 205Q842 123 746 52T487 -20Q308 -20 198 93T88 403Q88 671 261 894T698 1118Q828 1118 899 1056T971 883Q971 717 799 594T377 471H342Q324 471 305 473Q301 445 301
387Q301 109 526 109Q701 109 821 256ZM324 567H344Q525 567 642 655T760 883Q760 1020 641 1020Q542 1020 456 896T324 567ZM614 1268Q731 1403 833 1569H1052L1046 1548Q889 1365 690 1241H608L614 1268Z" />
<glyph unicode="&#xea;" glyph-name="ecircumflex" horiz-adv-x="1010" d="M821 256Q842 243 842 205Q842 123 746 52T487 -20Q308 -20 198 93T88 403Q88 671 261 894T698 1118Q828 1118 899 1056T971 883Q971 717 799 594T377 471H342Q324 471 305 473Q301 445
301 387Q301 109 526 109Q701 109 821 256ZM324 567H344Q525 567 642 655T760 883Q760 1020 641 1020Q542 1020 456 896T324 567ZM387 1268Q573 1451 657 1569H852Q881 1452 991 1268L985 1241H913Q818 1306 731 1425Q581 1298 469 1241H381L387 1268Z" />
<glyph unicode="&#xeb;" glyph-name="edieresis" horiz-adv-x="1010" d="M821 256Q842 243 842 205Q842 123 746 52T487 -20Q308 -20 198 93T88 403Q88 671 261 894T698 1118Q828 1118 899 1056T971 883Q971 717 799 594T377 471H342Q324 471 305 473Q301 445
301 387Q301 109 526 109Q701 109 821 256ZM324 567H344Q525 567 642 655T760 883Q760 1020 641 1020Q542 1020 456 896T324 567ZM765 1294Q663 1294 663 1397Q663 1526 773 1526Q876 1526 876 1423Q876 1294 765 1294ZM1154 1294Q1052 1294 1052 1397Q1052 1526
1162 1526Q1265 1526 1265 1423Q1265 1294 1154 1294Z" />
<glyph unicode="&#xec;" glyph-name="igrave" horiz-adv-x="623" d="M127 1012L145 1098H512L373 440Q342 293 342 213Q342 109 410 109Q469 109 557 162L594 102Q452 -20 317 -20Q241 -20 194 35T147 174Q147 266 193 496L272 872Q279 905 279 926Q279 1012 154
1012H127ZM455 1241Q301 1391 191 1548L197 1569H402Q462 1414 539 1268L533 1241H455Z" />
<glyph unicode="&#xed;" glyph-name="iacute" horiz-adv-x="623" d="M127 1012L145 1098H512L373 440Q342 293 342 213Q342 109 410 109Q469 109 557 162L594 102Q452 -20 317 -20Q241 -20 194 35T147 174Q147 266 193 496L272 872Q279 905 279 926Q279 1012 154
1012H127ZM333 1268Q450 1403 552 1569H771L765 1548Q608 1365 409 1241H327L333 1268Z" />
<glyph unicode="&#xee;" glyph-name="icircumflex" horiz-adv-x="623" d="M127 1012L145 1098H512L373 440Q342 293 342 213Q342 109 410 109Q469 109 557 162L594 102Q452 -20 317 -20Q241 -20 194 35T147 174Q147 266 193 496L272 872Q279 905 279 926Q279 1012
154 1012H127ZM79 1268Q265 1451 349 1569H544Q573 1452 683 1268L677 1241H605Q510 1306 423 1425Q273 1298 161 1241H73L79 1268Z" />
<glyph unicode="&#xef;" glyph-name="idieresis" horiz-adv-x="623" d="M127 1012L145 1098H512L373 440Q342 293 342 213Q342 109 410 109Q469 109 557 162L594 102Q452 -20 317 -20Q241 -20 194 35T147 174Q147 266 193 496L272 872Q279 905 279 926Q279 1012
154 1012H127ZM208 1294Q106 1294 106 1397Q106 1526 216 1526Q319 1526 319 1423Q319 1294 208 1294ZM597 1294Q495 1294 495 1397Q495 1526 605 1526Q708 1526 708 1423Q708 1294 597 1294Z" />
<glyph unicode="&#xf0;" glyph-name="eth" horiz-adv-x="1182" d="M877 983Q832 1168 733 1274L440 1124L465 1239L664 1341Q575 1409 438 1456L473 1559Q657 1512 797 1407L1094 1561L1067 1444L866 1341Q968 1240 1027 1079T1087 741Q1087 393 926 180T481 -33Q301
-33 195 73T88 369Q88 623 256 830T698 1038Q807 1038 877 983ZM504 68Q673 68 773 254T874 664Q874 932 674 932Q506 932 404 746T301 336Q301 68 504 68Z" />
<glyph unicode="&#xf1;" glyph-name="ntilde" horiz-adv-x="1227" d="M281 0H90L262 823Q274 880 274 915Q274 1012 131 1012H115L133 1098H512L457 840H477Q643 1116 850 1116Q1069 1116 1069 889Q1069 824 1032 664L979 422Q952 299 952 207Q952 109 1024 109Q1083
109 1155 156L1192 96Q1058 -20 942 -20Q857 -20 807 35T756 184Q756 278 795 461L842 673Q872 797 872 864Q872 985 778 985Q664 985 545 831T391 524L281 0ZM1046 1483H1138Q1066 1241 872 1241Q791 1241 703 1306Q614 1370 577 1370Q489 1370 454 1262H362Q434
1503 630 1503Q712 1503 799 1439Q886 1374 923 1374Q1012 1374 1046 1483Z" />
<glyph unicode="&#xf2;" glyph-name="ograve" horiz-adv-x="1176" d="M698 1118Q879 1118 983 1009T1087 694Q1087 421 920 201T481 -20Q296 -20 192 92T88 403Q88 679 256 898T698 1118ZM504 80Q673 80 773 280T874 725Q874 1010 674 1010Q507 1010 404 809T301
362Q301 80 504 80ZM990 1241Q836 1391 726 1548L732 1569H937Q997 1414 1074 1268L1068 1241H990Z" />
<glyph unicode="&#xf3;" glyph-name="oacute" horiz-adv-x="1176" d="M698 1118Q879 1118 983 1009T1087 694Q1087 421 920 201T481 -20Q296 -20 192 92T88 403Q88 679 256 898T698 1118ZM504 80Q673 80 773 280T874 725Q874 1010 674 1010Q507 1010 404 809T301
362Q301 80 504 80ZM629 1268Q746 1403 848 1569H1067L1061 1548Q904 1365 705 1241H623L629 1268Z" />
<glyph unicode="&#xf4;" glyph-name="ocircumflex" horiz-adv-x="1176" d="M698 1118Q879 1118 983 1009T1087 694Q1087 421 920 201T481 -20Q296 -20 192 92T88 403Q88 679 256 898T698 1118ZM504 80Q673 80 773 280T874 725Q874 1010 674 1010Q507 1010 404
809T301 362Q301 80 504 80ZM399 1268Q585 1451 669 1569H864Q893 1452 1003 1268L997 1241H925Q830 1306 743 1425Q593 1298 481 1241H393L399 1268Z" />
<glyph unicode="&#xf5;" glyph-name="otilde" horiz-adv-x="1176" d="M698 1118Q879 1118 983 1009T1087 694Q1087 421 920 201T481 -20Q296 -20 192 92T88 403Q88 679 256 898T698 1118ZM504 80Q673 80 773 280T874 725Q874 1010 674 1010Q507 1010 404 809T301
362Q301 80 504 80ZM1279 1483H1371Q1299 1241 1105 1241Q1024 1241 936 1306Q847 1370 810 1370Q722 1370 687 1262H595Q667 1503 863 1503Q945 1503 1032 1439Q1119 1374 1156 1374Q1245 1374 1279 1483Z" />
<glyph unicode="&#xf6;" glyph-name="odieresis" horiz-adv-x="1176" d="M698 1118Q879 1118 983 1009T1087 694Q1087 421 920 201T481 -20Q296 -20 192 92T88 403Q88 679 256 898T698 1118ZM504 80Q673 80 773 280T874 725Q874 1010 674 1010Q507 1010 404 809T301
362Q301 80 504 80ZM518 1294Q416 1294 416 1397Q416 1526 526 1526Q629 1526 629 1423Q629 1294 518 1294ZM907 1294Q805 1294 805 1397Q805 1526 915 1526Q1018 1526 1018 1423Q1018 1294 907 1294Z" />
<glyph unicode="&#xf7;" glyph-name="divide" horiz-adv-x="1145" d="M590 1233Q694 1233 694 1120Q694 1008 590 1008Q485 1008 485 1120Q485 1233 590 1233ZM1028 672H150V793H1028V672ZM590 457Q694 457 694 344Q694 231 590 231Q485 231 485 344Q485 457 590 457Z" />
<glyph unicode="&#xf8;" glyph-name="oslash" horiz-adv-x="1182" d="M942 1044L1057 1180H1176L1010 977Q1087 871 1087 694Q1087 419 920 197T481 -25Q340 -25 238 47L131 -82H10L172 113Q88 223 88 403Q88 679 256 898T698 1118Q847 1118 942 1044ZM305 274L838
918Q789 1010 674 1010Q507 1010 404 809T301 362Q301 297 305 274ZM868 809L338 168Q384 76 504 76Q672 76 773 277T874 725Q874 769 868 809Z" />
<glyph unicode="&#xf9;" glyph-name="ugrave" horiz-adv-x="1227" d="M135 1098H516L381 485Q340 299 340 238Q340 113 440 113Q545 113 666 264T825 588L932 1098H1130L989 440Q958 295 958 213Q958 109 1026 109Q1084 109 1157 154L1194 94Q1064 -20 934 -20Q857
-20 810 35T762 174Q762 227 772 295H756Q645 112 558 47T360 -18Q141 -18 141 209Q141 274 178 434L258 793Q276 874 276 915Q276 1012 133 1012H117L135 1098ZM1006 1241Q852 1391 742 1548L748 1569H953Q1013 1414 1090 1268L1084 1241H1006Z" />
<glyph unicode="&#xfa;" glyph-name="uacute" horiz-adv-x="1227" d="M135 1098H516L381 485Q340 299 340 238Q340 113 440 113Q545 113 666 264T825 588L932 1098H1130L989 440Q958 295 958 213Q958 109 1026 109Q1084 109 1157 154L1194 94Q1064 -20 934 -20Q857
-20 810 35T762 174Q762 227 772 295H756Q645 112 558 47T360 -18Q141 -18 141 209Q141 274 178 434L258 793Q276 874 276 915Q276 1012 133 1012H117L135 1098ZM647 1268Q764 1403 866 1569H1085L1079 1548Q922 1365 723 1241H641L647 1268Z" />
<glyph unicode="&#xfb;" glyph-name="ucircumflex" horiz-adv-x="1227" d="M135 1098H516L381 485Q340 299 340 238Q340 113 440 113Q545 113 666 264T825 588L932 1098H1130L989 440Q958 295 958 213Q958 109 1026 109Q1084 109 1157 154L1194 94Q1064 -20 934
-20Q857 -20 810 35T762 174Q762 227 772 295H756Q645 112 558 47T360 -18Q141 -18 141 209Q141 274 178 434L258 793Q276 874 276 915Q276 1012 133 1012H117L135 1098ZM434 1268Q620 1451 704 1569H899Q928 1452 1038 1268L1032 1241H960Q865 1306 778 1425Q628
1298 516 1241H428L434 1268Z" />
<glyph unicode="&#xfc;" glyph-name="udieresis" horiz-adv-x="1227" d="M135 1098H516L381 485Q340 299 340 238Q340 113 440 113Q545 113 666 264T825 588L932 1098H1130L989 440Q958 295 958 213Q958 109 1026 109Q1084 109 1157 154L1194 94Q1064 -20 934
-20Q857 -20 810 35T762 174Q762 227 772 295H756Q645 112 558 47T360 -18Q141 -18 141 209Q141 274 178 434L258 793Q276 874 276 915Q276 1012 133 1012H117L135 1098ZM571 1294Q469 1294 469 1397Q469 1526 579 1526Q682 1526 682 1423Q682 1294 571 1294ZM960
1294Q858 1294 858 1397Q858 1526 968 1526Q1071 1526 1071 1423Q1071 1294 960 1294Z" />
<glyph unicode="&#xfd;" glyph-name="yacute" horiz-adv-x="1081" d="M164 903Q146 963 115 987T23 1012H2L18 1098H317L477 545Q551 288 563 174H569Q846 595 846 854Q846 965 745 965Q745 1034 785 1075T879 1116Q1018 1116 1018 944Q1018 697 742 250T300 -345T-139
-492Q-247 -492 -332 -455L-301 -352Q-229 -375 -141 -375Q152 -375 434 -2L164 903ZM535 1268Q652 1403 754 1569H973L967 1548Q810 1365 611 1241H529L535 1268Z" />
<glyph unicode="&#xfe;" glyph-name="thorn" horiz-adv-x="1151" d="M248 27Q239 -51 233 -72L202 -223Q188 -281 188 -317Q188 -406 332 -406H358L340 -492H-49L324 1266Q342 1351 342 1374Q342 1470 199 1470H182L201 1556H578L473 1065Q456 986 412 825H424Q572
1118 799 1118Q924 1118 993 1023T1063 748Q1063 473 890 227T451 -20Q331 -20 248 27ZM281 145Q346 72 444 72Q615 72 734 295T854 750Q854 863 819 926T721 989Q614 989 505 839T365 535L281 145Z" />
<glyph unicode="&#xff;" glyph-name="ydieresis" horiz-adv-x="1081" d="M164 903Q146 963 115 987T23 1012H2L18 1098H317L477 545Q551 288 563 174H569Q846 595 846 854Q846 965 745 965Q745 1034 785 1075T879 1116Q1018 1116 1018 944Q1018 697 742 250T300
-345T-139 -492Q-247 -492 -332 -455L-301 -352Q-229 -375 -141 -375Q152 -375 434 -2L164 903ZM669 1294Q567 1294 567 1397Q567 1526 677 1526Q780 1526 780 1423Q780 1294 669 1294ZM1058 1294Q956 1294 956 1397Q956 1526 1066 1526Q1169 1526 1169 1423Q1169
1294 1058 1294Z" />
<glyph unicode="&#x100;" glyph-name="Amacron" horiz-adv-x="1444" d="M408 489L285 274Q246 206 246 160Q246 86 360 86H408L391 0H-115L-98 86H-59Q-4 86 33 114T131 246L844 1462H1004L1198 195Q1208 131 1233 109T1319 86H1346L1329 0H772L788 86H836Q983
86 983 190Q983 232 979 260L946 489H408ZM881 950Q850 1168 848 1274Q801 1163 688 969L469 592H932L881 950ZM1230 1579H637L663 1700H1257L1230 1579Z" />
<glyph unicode="&#x101;" glyph-name="amacron" horiz-adv-x="1186" d="M748 309H735Q588 -20 352 -20Q227 -20 158 78T88 354Q88 636 263 877T698 1118Q837 1118 938 1044L1028 1096H1094L954 440Q924 299 924 213Q924 109 991 109Q1049 109 1139 162L1176 102Q1029
-20 887 -20Q727 -20 727 150Q727 215 748 309ZM864 952Q817 1026 709 1026Q534 1026 416 804T297 346Q297 109 426 109Q528 109 640 260T788 590L864 952ZM1024 1241H431L457 1362H1051L1024 1241Z" />
<glyph unicode="&#x102;" glyph-name="Abreve" horiz-adv-x="1444" d="M408 489L285 274Q246 206 246 160Q246 86 360 86H408L391 0H-115L-98 86H-59Q-4 86 33 114T131 246L844 1462H1004L1198 195Q1208 131 1233 109T1319 86H1346L1329 0H772L788 86H836Q983
86 983 190Q983 232 979 260L946 489H408ZM881 950Q850 1168 848 1274Q801 1163 688 969L469 592H932L881 950ZM677 1860H772Q788 1720 950 1720Q1113 1720 1171 1860H1265Q1232 1728 1144 1654T935 1579Q694 1579 677 1860Z" />
<glyph unicode="&#x103;" glyph-name="abreve" horiz-adv-x="1186" d="M748 309H735Q588 -20 352 -20Q227 -20 158 78T88 354Q88 636 263 877T698 1118Q837 1118 938 1044L1028 1096H1094L954 440Q924 299 924 213Q924 109 991 109Q1049 109 1139 162L1176 102Q1029
-20 887 -20Q727 -20 727 150Q727 215 748 309ZM864 952Q817 1026 709 1026Q534 1026 416 804T297 346Q297 109 426 109Q528 109 640 260T788 590L864 952ZM485 1522H580Q596 1382 758 1382Q921 1382 979 1522H1073Q1040 1390 952 1316T743 1241Q502 1241 485 1522Z"
/>
<glyph unicode="&#x104;" glyph-name="Aogonek" horiz-adv-x="1444" d="M408 489L285 274Q246 206 246 160Q246 86 360 86H408L391 0H-115L-98 86H-59Q-4 86 33 114T131 246L844 1462H1004L1198 195Q1208 131 1233 109T1319 86H1346L1329 0H772L788 86H836Q983
86 983 190Q983 232 979 260L946 489H408ZM881 950Q850 1168 848 1274Q801 1163 688 969L469 592H932L881 950ZM1256 0Q1147 -36 1080 -104T1012 -254Q1012 -305 1044 -335T1129 -365Q1181 -365 1262 -348L1237 -459Q1159 -492 1074 -492Q834 -492 834 -283Q834
-181 913 -107T1139 0H1256Z" />
<glyph unicode="&#x105;" glyph-name="aogonek" horiz-adv-x="1186" d="M748 309H735Q588 -20 352 -20Q227 -20 158 78T88 354Q88 636 263 877T698 1118Q837 1118 938 1044L1028 1096H1094L954 440Q924 299 924 213Q924 109 991 109Q1049 109 1139 162L1176 102Q1029
-20 887 -20Q727 -20 727 150Q727 215 748 309ZM864 952Q817 1026 709 1026Q534 1026 416 804T297 346Q297 109 426 109Q528 109 640 260T788 590L864 952ZM981 0Q872 -36 805 -104T737 -254Q737 -305 769 -335T854 -365Q906 -365 987 -348L962 -459Q884 -492 799
-492Q559 -492 559 -283Q559 -181 638 -107T864 0H981Z" />
<glyph unicode="&#x106;" glyph-name="Cacute" horiz-adv-x="1284" d="M1073 299Q1100 280 1100 231Q1100 133 986 57T672 -20Q405 -20 256 123T106 528Q106 916 348 1199T950 1483Q1129 1483 1229 1422T1329 1255Q1329 1182 1274 1139T1128 1096Q1128 1374 924
1374Q671 1374 501 1099T330 496Q330 113 694 113Q931 113 1073 299ZM901 1606Q1018 1741 1120 1907H1339L1333 1886Q1176 1703 977 1579H895L901 1606Z" />
<glyph unicode="&#x107;" glyph-name="cacute" horiz-adv-x="997" d="M821 256Q842 243 842 205Q842 123 746 52T487 -20Q308 -20 198 93T88 403Q88 671 261 894T698 1118Q839 1118 918 1062T997 922Q997 860 948 819T815 778Q815 887 773 953T657 1020Q514 1020
408 806T301 387Q301 109 526 109Q705 109 821 256ZM637 1268Q754 1403 856 1569H1075L1069 1548Q912 1365 713 1241H631L637 1268Z" />
<glyph unicode="&#x108;" glyph-name="Ccircumflex" horiz-adv-x="1284" d="M1073 299Q1100 280 1100 231Q1100 133 986 57T672 -20Q405 -20 256 123T106 528Q106 916 348 1199T950 1483Q1129 1483 1229 1422T1329 1255Q1329 1182 1274 1139T1128 1096Q1128 1374
924 1374Q671 1374 501 1099T330 496Q330 113 694 113Q931 113 1073 299ZM670 1606Q856 1789 940 1907H1135Q1164 1790 1274 1606L1268 1579H1196Q1101 1644 1014 1763Q864 1636 752 1579H664L670 1606Z" />
<glyph unicode="&#x109;" glyph-name="ccircumflex" horiz-adv-x="997" d="M821 256Q842 243 842 205Q842 123 746 52T487 -20Q308 -20 198 93T88 403Q88 671 261 894T698 1118Q839 1118 918 1062T997 922Q997 860 948 819T815 778Q815 887 773 953T657 1020Q514
1020 408 806T301 387Q301 109 526 109Q705 109 821 256ZM432 1268Q618 1451 702 1569H897Q926 1452 1036 1268L1030 1241H958Q863 1306 776 1425Q626 1298 514 1241H426L432 1268Z" />
<glyph unicode="&#x10a;" glyph-name="Cdotaccent" horiz-adv-x="1284" d="M1073 299Q1100 280 1100 231Q1100 133 986 57T672 -20Q405 -20 256 123T106 528Q106 916 348 1199T950 1483Q1129 1483 1229 1422T1329 1255Q1329 1182 1274 1139T1128 1096Q1128 1374
924 1374Q671 1374 501 1099T330 496Q330 113 694 113Q931 113 1073 299ZM1030 1641Q915 1641 915 1753Q915 1818 948 1857T1038 1897Q1153 1897 1153 1784Q1153 1714 1119 1678T1030 1641Z" />
<glyph unicode="&#x10b;" glyph-name="cdotaccent" horiz-adv-x="997" d="M821 256Q842 243 842 205Q842 123 746 52T487 -20Q308 -20 198 93T88 403Q88 671 261 894T698 1118Q839 1118 918 1062T997 922Q997 860 948 819T815 778Q815 887 773 953T657 1020Q514
1020 408 806T301 387Q301 109 526 109Q705 109 821 256ZM762 1303Q647 1303 647 1415Q647 1480 680 1519T770 1559Q885 1559 885 1446Q885 1376 851 1340T762 1303Z" />
<glyph unicode="&#x10c;" glyph-name="Ccaron" horiz-adv-x="1284" d="M1073 299Q1100 280 1100 231Q1100 133 986 57T672 -20Q405 -20 256 123T106 528Q106 916 348 1199T950 1483Q1129 1483 1229 1422T1329 1255Q1329 1182 1274 1139T1128 1096Q1128 1374 924
1374Q671 1374 501 1099T330 496Q330 113 694 113Q931 113 1073 299ZM1361 1880Q1208 1730 1091 1579H897Q847 1731 757 1880L763 1907H837Q932 1832 1011 1720Q1140 1830 1282 1907H1368L1361 1880Z" />
<glyph unicode="&#x10d;" glyph-name="ccaron" horiz-adv-x="997" d="M821 256Q842 243 842 205Q842 123 746 52T487 -20Q308 -20 198 93T88 403Q88 671 261 894T698 1118Q839 1118 918 1062T997 922Q997 860 948 819T815 778Q815 887 773 953T657 1020Q514 1020
408 806T301 387Q301 109 526 109Q705 109 821 256ZM1326 1542Q1173 1392 1056 1241H862Q812 1393 722 1542L728 1569H802Q897 1494 976 1382Q1105 1492 1247 1569H1333L1326 1542Z" />
<glyph unicode="&#x10e;" glyph-name="Dcaron" horiz-adv-x="1485" d="M-27 86H0Q170 86 201 233L414 1237Q422 1275 422 1294Q422 1376 274 1376H248L266 1462H840Q1119 1462 1270 1318T1421 905Q1421 513 1198 257T602 0H-43L-27 86ZM557 104Q853 104 1025 331T1198
928Q1198 1360 809 1360H647L379 104H557ZM1216 1880Q1063 1730 946 1579H752Q702 1731 612 1880L618 1907H692Q787 1832 866 1720Q995 1830 1137 1907H1223L1216 1880Z" />
<glyph unicode="&#x10f;" glyph-name="dcaron" horiz-adv-x="1186" d="M748 309H735Q588 -20 352 -20Q227 -20 158 78T88 354Q88 636 263 877T698 1118Q813 1118 899 1069Q915 1163 922 1184L942 1282Q956 1351 956 1374Q956 1470 813 1470H797L815 1556H1192L954
440Q924 299 924 213Q924 109 991 109Q1049 109 1139 162L1176 102Q1029 -20 887 -20Q727 -20 727 150Q727 215 748 309ZM864 952Q817 1026 709 1026Q534 1026 416 804T297 346Q297 109 426 109Q528 109 640 260T788 590L864 952ZM1219 1255L1340 1556H1518L1514
1536Q1422 1390 1284 1229H1215L1219 1255Z" />
<glyph unicode="&#x110;" glyph-name="Dcroat" horiz-adv-x="1530" d="M-27 86H0Q170 86 201 233L303 715H104L127 815H324L414 1237Q422 1275 422 1294Q422 1376 274 1376H248L266 1462H881Q1160 1462 1311 1318T1462 905Q1462 513 1239 257T643 0H-43L-27 86ZM598
104Q892 104 1065 330T1239 928Q1239 1360 850 1360H647L530 815H918L895 715H508L379 104H598Z" />
<glyph unicode="&#x111;" glyph-name="" horiz-adv-x="1182" d="M723 190H713Q634 60 564 20T397 -20Q255 -20 172 85T88 373Q88 638 250 857T676 1077Q778 1077 868 1030Q871 1047 876 1067L884 1107Q890 1137 899 1176L907 1214H557L575 1311H928L932 1331Q937
1355 937 1374Q937 1470 793 1470H776L795 1556H1171L1118 1311H1305L1286 1214H1098L934 440Q903 294 903 213Q903 109 971 109Q1037 109 1118 162L1155 102Q1013 -20 879 -20Q733 -20 723 190ZM842 920Q785 985 686 985Q518 985 408 775T297 352Q297 109 469
109Q570 109 641 195T739 416L842 920Z" />
<glyph unicode="&#x112;" glyph-name="Emacron" horiz-adv-x="1276" d="M379 102H774Q947 102 1006 270L1038 358H1145L1055 0H-43L-27 86H0Q104 86 144 122T199 223L412 1229Q418 1257 418 1278Q418 1326 390 1351T274 1376H248L266 1462H1298L1233 1104H1126L1132
1167Q1137 1215 1137 1223Q1137 1360 991 1360H647L530 815H1024L1004 715H510L379 102ZM1132 1579H539L565 1700H1159L1132 1579Z" />
<glyph unicode="&#x113;" glyph-name="emacron" horiz-adv-x="1010" d="M821 256Q842 243 842 205Q842 123 746 52T487 -20Q308 -20 198 93T88 403Q88 671 261 894T698 1118Q828 1118 899 1056T971 883Q971 717 799 594T377 471H342Q324 471 305 473Q301 445 301
387Q301 109 526 109Q701 109 821 256ZM324 567H344Q525 567 642 655T760 883Q760 1020 641 1020Q542 1020 456 896T324 567ZM1005 1241H412L438 1362H1032L1005 1241Z" />
<glyph unicode="&#x114;" glyph-name="Ebreve" horiz-adv-x="1276" d="M379 102H774Q947 102 1006 270L1038 358H1145L1055 0H-43L-27 86H0Q104 86 144 122T199 223L412 1229Q418 1257 418 1278Q418 1326 390 1351T274 1376H248L266 1462H1298L1233 1104H1126L1132
1167Q1137 1215 1137 1223Q1137 1360 991 1360H647L530 815H1024L1004 715H510L379 102ZM565 1860H660Q676 1720 838 1720Q1001 1720 1059 1860H1153Q1120 1728 1032 1654T823 1579Q582 1579 565 1860Z" />
<glyph unicode="&#x115;" glyph-name="ebreve" horiz-adv-x="1010" d="M821 256Q842 243 842 205Q842 123 746 52T487 -20Q308 -20 198 93T88 403Q88 671 261 894T698 1118Q828 1118 899 1056T971 883Q971 717 799 594T377 471H342Q324 471 305 473Q301 445 301
387Q301 109 526 109Q701 109 821 256ZM324 567H344Q525 567 642 655T760 883Q760 1020 641 1020Q542 1020 456 896T324 567ZM434 1522H529Q545 1382 707 1382Q870 1382 928 1522H1022Q989 1390 901 1316T692 1241Q451 1241 434 1522Z" />
<glyph unicode="&#x116;" glyph-name="Edotaccent" horiz-adv-x="1276" d="M379 102H774Q947 102 1006 270L1038 358H1145L1055 0H-43L-27 86H0Q104 86 144 122T199 223L412 1229Q418 1257 418 1278Q418 1326 390 1351T274 1376H248L266 1462H1298L1233 1104H1126L1132
1167Q1137 1215 1137 1223Q1137 1360 991 1360H647L530 815H1024L1004 715H510L379 102ZM842 1612Q727 1612 727 1724Q727 1789 760 1828T850 1868Q965 1868 965 1755Q965 1685 931 1649T842 1612Z" />
<glyph unicode="&#x117;" glyph-name="edotaccent" horiz-adv-x="1010" d="M821 256Q842 243 842 205Q842 123 746 52T487 -20Q308 -20 198 93T88 403Q88 671 261 894T698 1118Q828 1118 899 1056T971 883Q971 717 799 594T377 471H342Q324 471 305 473Q301 445
301 387Q301 109 526 109Q701 109 821 256ZM324 567H344Q525 567 642 655T760 883Q760 1020 641 1020Q542 1020 456 896T324 567ZM723 1303Q608 1303 608 1415Q608 1480 641 1519T731 1559Q846 1559 846 1446Q846 1376 812 1340T723 1303Z" />
<glyph unicode="&#x118;" glyph-name="Eogonek" horiz-adv-x="1276" d="M379 102H774Q947 102 1006 270L1038 358H1145L1055 0H-43L-27 86H0Q104 86 144 122T199 223L412 1229Q418 1257 418 1278Q418 1326 390 1351T274 1376H248L266 1462H1298L1233 1104H1126L1132
1167Q1137 1215 1137 1223Q1137 1360 991 1360H647L530 815H1024L1004 715H510L379 102ZM952 0Q843 -36 776 -104T708 -254Q708 -305 740 -335T825 -365Q877 -365 958 -348L933 -459Q855 -492 770 -492Q530 -492 530 -283Q530 -181 609 -107T835 0H952Z" />
<glyph unicode="&#x119;" glyph-name="eogonek" horiz-adv-x="1010" d="M821 256Q842 243 842 205Q842 123 746 52T487 -20Q308 -20 198 93T88 403Q88 671 261 894T698 1118Q828 1118 899 1056T971 883Q971 717 799 594T377 471H342Q324 471 305 473Q301 445 301
387Q301 109 526 109Q701 109 821 256ZM324 567H344Q525 567 642 655T760 883Q760 1020 641 1020Q542 1020 456 896T324 567ZM968 31Q859 -5 792 -73T724 -223Q724 -274 756 -304T841 -334Q893 -334 974 -317L949 -428Q871 -461 786 -461Q546 -461 546 -252Q546
-150 625 -76T851 31H968Z" />
<glyph unicode="&#x11a;" glyph-name="Ecaron" horiz-adv-x="1276" d="M379 102H774Q947 102 1006 270L1038 358H1145L1055 0H-43L-27 86H0Q104 86 144 122T199 223L412 1229Q418 1257 418 1278Q418 1326 390 1351T274 1376H248L266 1462H1298L1233 1104H1126L1132
1167Q1137 1215 1137 1223Q1137 1360 991 1360H647L530 815H1024L1004 715H510L379 102ZM1175 1880Q1022 1730 905 1579H711Q661 1731 571 1880L577 1907H651Q746 1832 825 1720Q954 1830 1096 1907H1182L1175 1880Z" />
<glyph unicode="&#x11b;" glyph-name="ecaron" horiz-adv-x="1010" d="M821 256Q842 243 842 205Q842 123 746 52T487 -20Q308 -20 198 93T88 403Q88 671 261 894T698 1118Q828 1118 899 1056T971 883Q971 717 799 594T377 471H342Q324 471 305 473Q301 445 301
387Q301 109 526 109Q701 109 821 256ZM324 567H344Q525 567 642 655T760 883Q760 1020 641 1020Q542 1020 456 896T324 567ZM1334 1542Q1181 1392 1064 1241H870Q820 1393 730 1542L736 1569H810Q905 1494 984 1382Q1113 1492 1255 1569H1341L1334 1542Z" />
<glyph unicode="&#x11c;" glyph-name="Gcircumflex" horiz-adv-x="1462" d="M1430 676L1411 590H1403Q1321 590 1283 554T1229 442L1151 74Q934 -20 688 -20Q408 -20 257 123T106 528Q106 935 356 1209T987 1483Q1191 1483 1305 1421T1419 1262Q1419 1186 1358
1143T1202 1100Q1202 1232 1135 1303T944 1374Q691 1374 511 1113T330 496Q330 96 725 96Q840 96 956 125L1024 451Q1032 489 1032 508Q1032 590 885 590H866L885 676H1430ZM670 1606Q856 1789 940 1907H1135Q1164 1790 1274 1606L1268 1579H1196Q1101 1644 1014
1763Q864 1636 752 1579H664L670 1606Z" />
<glyph unicode="&#x11d;" glyph-name="gcircumflex" horiz-adv-x="1139" d="M901 1053Q998 1198 1122 1198Q1225 1198 1225 1104Q1225 977 1104 977Q1104 1051 1047 1051Q1007 1051 946 1004Q991 940 991 846Q991 674 862 531T522 387Q475 387 457 391Q311 332
311 262Q311 211 416 201L612 180Q930 146 930 -88Q930 -279 786 -385T375 -492Q-72 -492 -72 -225Q-72 -115 17 -38T262 70Q164 118 164 211Q164 274 204 318T358 420Q215 487 215 662Q215 835 345 976T690 1118Q821 1118 901 1053ZM545 485Q662 485 733 601T805
856Q805 1024 664 1024Q544 1024 474 907T403 653Q403 485 545 485ZM561 6L362 25Q347 26 274 5T147 -73T94 -213Q94 -391 383 -391Q563 -391 657 -325T752 -145Q752 -11 561 6ZM385 1268Q571 1451 655 1569H850Q879 1452 989 1268L983 1241H911Q816 1306 729 1425Q579
1298 467 1241H379L385 1268Z" />
<glyph unicode="&#x11e;" glyph-name="Gbreve" horiz-adv-x="1462" d="M1430 676L1411 590H1403Q1321 590 1283 554T1229 442L1151 74Q934 -20 688 -20Q408 -20 257 123T106 528Q106 935 356 1209T987 1483Q1191 1483 1305 1421T1419 1262Q1419 1186 1358 1143T1202
1100Q1202 1232 1135 1303T944 1374Q691 1374 511 1113T330 496Q330 96 725 96Q840 96 956 125L1024 451Q1032 489 1032 508Q1032 590 885 590H866L885 676H1430ZM702 1860H797Q813 1720 975 1720Q1138 1720 1196 1860H1290Q1257 1728 1169 1654T960 1579Q719 1579
702 1860Z" />
<glyph unicode="&#x11f;" glyph-name="gbreve" horiz-adv-x="1139" d="M901 1053Q998 1198 1122 1198Q1225 1198 1225 1104Q1225 977 1104 977Q1104 1051 1047 1051Q1007 1051 946 1004Q991 940 991 846Q991 674 862 531T522 387Q475 387 457 391Q311 332 311
262Q311 211 416 201L612 180Q930 146 930 -88Q930 -279 786 -385T375 -492Q-72 -492 -72 -225Q-72 -115 17 -38T262 70Q164 118 164 211Q164 274 204 318T358 420Q215 487 215 662Q215 835 345 976T690 1118Q821 1118 901 1053ZM545 485Q662 485 733 601T805 856Q805
1024 664 1024Q544 1024 474 907T403 653Q403 485 545 485ZM561 6L362 25Q347 26 274 5T147 -73T94 -213Q94 -391 383 -391Q563 -391 657 -325T752 -145Q752 -11 561 6ZM450 1522H545Q561 1382 723 1382Q886 1382 944 1522H1038Q1005 1390 917 1316T708 1241Q467
1241 450 1522Z" />
<glyph unicode="&#x120;" glyph-name="Gdotaccent" horiz-adv-x="1462" d="M1430 676L1411 590H1403Q1321 590 1283 554T1229 442L1151 74Q934 -20 688 -20Q408 -20 257 123T106 528Q106 935 356 1209T987 1483Q1191 1483 1305 1421T1419 1262Q1419 1186 1358
1143T1202 1100Q1202 1232 1135 1303T944 1374Q691 1374 511 1113T330 496Q330 96 725 96Q840 96 956 125L1024 451Q1032 489 1032 508Q1032 590 885 590H866L885 676H1430ZM1026 1641Q911 1641 911 1753Q911 1818 944 1857T1034 1897Q1149 1897 1149 1784Q1149
1714 1115 1678T1026 1641Z" />
<glyph unicode="&#x121;" glyph-name="gdotaccent" horiz-adv-x="1139" d="M901 1053Q998 1198 1122 1198Q1225 1198 1225 1104Q1225 977 1104 977Q1104 1051 1047 1051Q1007 1051 946 1004Q991 940 991 846Q991 674 862 531T522 387Q475 387 457 391Q311 332
311 262Q311 211 416 201L612 180Q930 146 930 -88Q930 -279 786 -385T375 -492Q-72 -492 -72 -225Q-72 -115 17 -38T262 70Q164 118 164 211Q164 274 204 318T358 420Q215 487 215 662Q215 835 345 976T690 1118Q821 1118 901 1053ZM545 485Q662 485 733 601T805
856Q805 1024 664 1024Q544 1024 474 907T403 653Q403 485 545 485ZM561 6L362 25Q347 26 274 5T147 -73T94 -213Q94 -391 383 -391Q563 -391 657 -325T752 -145Q752 -11 561 6ZM748 1303Q633 1303 633 1415Q633 1480 666 1519T756 1559Q871 1559 871 1446Q871
1376 837 1340T748 1303Z" />
<glyph unicode="&#x122;" glyph-name="Gcommaaccent" horiz-adv-x="1462" d="M1430 676L1411 590H1403Q1321 590 1283 554T1229 442L1151 74Q934 -20 688 -20Q408 -20 257 123T106 528Q106 935 356 1209T987 1483Q1191 1483 1305 1421T1419 1262Q1419 1186 1358
1143T1202 1100Q1202 1232 1135 1303T944 1374Q691 1374 511 1113T330 496Q330 96 725 96Q840 96 956 125L1024 451Q1032 489 1032 508Q1032 590 885 590H866L885 676H1430ZM477 -426L519 -329Q561 -229 598 -125H776L772 -145Q666 -311 543 -453H473L477 -426Z"
/>
<glyph unicode="&#x123;" glyph-name="gcommaaccent" horiz-adv-x="1139" d="M901 1053Q998 1198 1122 1198Q1225 1198 1225 1104Q1225 977 1104 977Q1104 1051 1047 1051Q1007 1051 946 1004Q991 940 991 846Q991 674 862 531T522 387Q475 387 457 391Q311 332
311 262Q311 211 416 201L612 180Q930 146 930 -88Q930 -279 786 -385T375 -492Q-72 -492 -72 -225Q-72 -115 17 -38T262 70Q164 118 164 211Q164 274 204 318T358 420Q215 487 215 662Q215 835 345 976T690 1118Q821 1118 901 1053ZM545 485Q662 485 733 601T805
856Q805 1024 664 1024Q544 1024 474 907T403 653Q403 485 545 485ZM561 6L362 25Q347 26 274 5T147 -73T94 -213Q94 -391 383 -391Q563 -391 657 -325T752 -145Q752 -11 561 6ZM923 1542L881 1445Q839 1345 802 1241H624L628 1262Q720 1408 858 1569H927L923 1542Z"
/>
<glyph unicode="&#x124;" glyph-name="Hcircumflex" horiz-adv-x="1624" d="M829 0L846 86H872Q970 86 1014 122T1073 233L1174 713H508L406 225Q397 182 397 168Q397 86 545 86H571L553 0H-43L-27 86H0Q99 86 142 123T201 233L414 1237Q422 1275 422 1294Q422
1376 274 1376H248L266 1462H862L844 1376H817Q719 1376 676 1339T618 1229L530 815H1196L1286 1237Q1294 1275 1294 1294Q1294 1376 1147 1376H1120L1139 1462H1735L1716 1376H1690Q1592 1376 1549 1339T1491 1229L1278 225Q1270 187 1270 168Q1270 86 1417 86H1444L1425
0H829ZM739 1606Q925 1789 1009 1907H1204Q1233 1790 1343 1606L1337 1579H1265Q1170 1644 1083 1763Q933 1636 821 1579H733L739 1606Z" />
<glyph unicode="&#x125;" glyph-name="hcircumflex" horiz-adv-x="1227" d="M471 840Q641 1116 850 1116Q1069 1116 1069 889Q1069 824 1032 664L979 422Q952 299 952 207Q952 109 1024 109Q1083 109 1155 156L1192 96Q1058 -20 942 -20Q857 -20 807 35T756 184Q756
278 795 461L842 673Q872 797 872 864Q872 985 778 985Q664 985 544 830T391 524L281 0H90L356 1266Q375 1356 375 1374Q375 1470 231 1470H215L233 1556H610L530 1180Q494 1012 449 840H471ZM514 1661Q700 1844 784 1962H979Q1008 1845 1118 1661L1112 1634H1040Q945
1699 858 1818Q708 1691 596 1634H508L514 1661Z" />
<glyph unicode="&#x126;" glyph-name="Hbar" horiz-adv-x="1624" d="M829 0L846 86H872Q969 86 1012 122T1073 233L1174 713H508L406 225Q397 182 397 168Q397 86 545 86H571L553 0H-43L-27 86H0Q99 86 142 123T201 233L367 1022H174L193 1122H389L414 1237Q422
1274 422 1294Q422 1376 274 1376H248L266 1462H862L844 1376H817Q719 1376 676 1339T618 1229L596 1122H1262L1286 1237Q1294 1275 1294 1294Q1294 1376 1147 1376H1120L1139 1462H1735L1716 1376H1690Q1592 1376 1549 1339T1491 1229L1468 1122H1661L1642 1022H1446L1278
225Q1270 187 1270 168Q1270 86 1417 86H1444L1425 0H829ZM1196 815L1239 1022H573L530 815H1196Z" />
<glyph unicode="&#x127;" glyph-name="hbar" horiz-adv-x="1227" d="M463 799Q628 1075 842 1075Q1061 1075 1061 848Q1061 792 1036 678Q1029 649 1024 623L979 422Q952 301 952 207Q952 109 1024 109Q1083 109 1155 156L1192 96Q1058 -20 942 -20Q857 -20 807
35T756 184Q756 278 795 461L834 632Q864 756 864 823Q864 944 770 944Q656 944 536 789T383 483L281 0H90L344 1214H160L178 1311H365Q375 1357 375 1374Q375 1470 231 1470H215L233 1556H610L557 1311H907L889 1214H537L530 1180Q479 932 440 799H463Z" />
<glyph unicode="&#x128;" glyph-name="Itilde" horiz-adv-x="752" d="M862 1462L844 1376H817Q719 1376 676 1339T618 1229L406 225Q397 182 397 168Q397 86 545 86H571L553 0H-43L-27 86H0Q170 86 201 233L414 1237Q422 1275 422 1294Q422 1376 274 1376H248L266
1462H862ZM906 1821H998Q926 1579 732 1579Q651 1579 563 1644Q474 1708 437 1708Q349 1708 314 1600H222Q294 1841 490 1841Q572 1841 659 1777Q746 1712 783 1712Q872 1712 906 1821Z" />
<glyph unicode="&#x129;" glyph-name="itilde" horiz-adv-x="623" d="M127 1012L145 1098H512L373 440Q342 293 342 213Q342 109 410 109Q469 109 557 162L594 102Q452 -20 317 -20Q241 -20 194 35T147 174Q147 266 193 496L272 872Q279 905 279 926Q279 1012
154 1012H127ZM718 1483H810Q738 1241 544 1241Q463 1241 375 1306Q286 1370 249 1370Q161 1370 126 1262H34Q106 1503 302 1503Q384 1503 471 1439Q558 1374 595 1374Q684 1374 718 1483Z" />
<glyph unicode="&#x12a;" glyph-name="Imacron" horiz-adv-x="752" d="M862 1462L844 1376H817Q719 1376 676 1339T618 1229L406 225Q397 182 397 168Q397 86 545 86H571L553 0H-43L-27 86H0Q170 86 201 233L414 1237Q422 1275 422 1294Q422 1376 274 1376H248L266
1462H862ZM879 1579H286L312 1700H906L879 1579Z" />
<glyph unicode="&#x12b;" glyph-name="imacron" horiz-adv-x="623" d="M127 1012L145 1098H512L373 440Q342 293 342 213Q342 109 410 109Q469 109 557 162L594 102Q452 -20 317 -20Q241 -20 194 35T147 174Q147 266 193 496L272 872Q279 905 279 926Q279 1012
154 1012H127ZM707 1241H114L140 1362H734L707 1241Z" />
<glyph unicode="&#x12c;" glyph-name="Ibreve" horiz-adv-x="752" d="M862 1462L844 1376H817Q719 1376 676 1339T618 1229L406 225Q397 182 397 168Q397 86 545 86H571L553 0H-43L-27 86H0Q170 86 201 233L414 1237Q422 1275 422 1294Q422 1376 274 1376H248L266
1462H862ZM319 1860H414Q430 1720 592 1720Q755 1720 813 1860H907Q874 1728 786 1654T577 1579Q336 1579 319 1860Z" />
<glyph unicode="&#x12d;" glyph-name="ibreve" horiz-adv-x="623" d="M127 1012L145 1098H512L373 440Q342 293 342 213Q342 109 410 109Q469 109 557 162L594 102Q452 -20 317 -20Q241 -20 194 35T147 174Q147 266 193 496L272 872Q279 905 279 926Q279 1012
154 1012H127ZM146 1522H241Q257 1382 419 1382Q582 1382 640 1522H734Q701 1390 613 1316T404 1241Q163 1241 146 1522Z" />
<glyph unicode="&#x12e;" glyph-name="Iogonek" horiz-adv-x="752" d="M862 1462L844 1376H817Q719 1376 676 1339T618 1229L406 225Q397 182 397 168Q397 86 545 86H571L553 0H-43L-27 86H0Q170 86 201 233L414 1237Q422 1275 422 1294Q422 1376 274 1376H248L266
1462H862ZM470 0Q361 -36 294 -104T226 -254Q226 -305 258 -335T343 -365Q395 -365 476 -348L451 -459Q373 -492 288 -492Q48 -492 48 -283Q48 -181 127 -107T353 0H470Z" />
<glyph unicode="&#x12f;" glyph-name="iogonek" horiz-adv-x="623" d="M459 1303Q344 1303 344 1415Q344 1480 377 1519T467 1559Q582 1559 582 1446Q582 1376 548 1340T459 1303ZM127 1012L145 1098H512L373 440Q342 293 342 213Q342 109 410 109Q469 109 557
162L594 102Q452 -20 317 -20Q241 -20 194 35T147 174Q147 266 193 496L272 872Q279 905 279 926Q279 1012 154 1012H127ZM423 0Q314 -36 247 -104T179 -254Q179 -305 211 -335T296 -365Q348 -365 429 -348L404 -459Q326 -492 241 -492Q1 -492 1 -283Q1 -181 80
-107T306 0H423Z" />
<glyph unicode="&#x130;" glyph-name="Idot" horiz-adv-x="752" d="M862 1462L844 1376H817Q719 1376 676 1339T618 1229L406 225Q397 182 397 168Q397 86 545 86H571L553 0H-43L-27 86H0Q170 86 201 233L414 1237Q422 1275 422 1294Q422 1376 274 1376H248L266
1462H862ZM619 1641Q504 1641 504 1753Q504 1818 537 1857T627 1897Q742 1897 742 1784Q742 1714 708 1678T619 1641Z" />
<glyph unicode="&#x131;" glyph-name="dotlessi" horiz-adv-x="623" d="M127 1012L145 1098H512L373 440Q342 293 342 213Q342 109 410 109Q469 109 557 162L594 102Q452 -20 317 -20Q241 -20 194 35T147 174Q147 266 193 496L272 872Q279 905 279 926Q279 1012
154 1012H127Z" />
<glyph unicode="&#x132;" glyph-name="IJ" horiz-adv-x="1425" d="M862 1462L844 1376H817Q719 1376 676 1339T618 1229L406 225Q397 182 397 168Q397 86 545 86H571L553 0H-43L-27 86H0Q170 86 201 233L414 1237Q422 1275 422 1294Q422 1376 274 1376H248L266
1462H862ZM1546 1462L1528 1376H1501Q1403 1376 1360 1339T1302 1229L1036 -16Q982 -267 865 -379T544 -492Q453 -492 377 -469L405 -377Q456 -395 538 -395Q657 -395 723 -306T831 -18L1097 1237Q1106 1279 1106 1294Q1106 1376 958 1376H932L950 1462H1546Z"
/>
<glyph unicode="&#x133;" glyph-name="ij" horiz-adv-x="1219" d="M459 1303Q344 1303 344 1415Q344 1480 377 1519T467 1559Q582 1559 582 1446Q582 1376 548 1340T459 1303ZM127 1012L145 1098H512L373 440Q342 293 342 213Q342 109 410 109Q469 109 557 162L594
102Q452 -20 317 -20Q241 -20 194 35T147 174Q147 266 193 496L272 872Q279 905 279 926Q279 1012 154 1012H127ZM1084 1303Q969 1303 969 1415Q969 1480 1002 1519T1092 1559Q1207 1559 1207 1446Q1207 1376 1173 1340T1084 1303ZM336 -475L355 -381Q406 -395
449 -395Q552 -395 610 -304T709 -16L897 872Q904 905 904 926Q904 1012 779 1012H752L770 1098H1137L902 -16Q850 -260 747 -376T455 -492Q397 -492 336 -475Z" />
<glyph unicode="&#x134;" glyph-name="Jcircumflex" horiz-adv-x="731" d="M852 1462L834 1376H807Q709 1376 666 1339T608 1229L342 -16Q288 -267 171 -379T-150 -492Q-241 -492 -317 -469L-289 -377Q-238 -395 -156 -395Q-37 -395 29 -306T137 -18L403 1237Q412
1279 412 1294Q412 1376 264 1376H238L256 1462H852ZM273 1606Q459 1789 543 1907H738Q767 1790 877 1606L871 1579H799Q704 1644 617 1763Q467 1636 355 1579H267L273 1606Z" />
<glyph unicode="&#x135;" glyph-name="jcircumflex" horiz-adv-x="596" d="M-287 -475L-268 -381Q-217 -395 -174 -395Q-71 -395 -13 -304T86 -16L274 872Q281 905 281 926Q281 1012 156 1012H129L147 1098H514L279 -16Q227 -260 124 -376T-168 -492Q-226 -492
-287 -475ZM75 1268Q261 1451 345 1569H540Q569 1452 679 1268L673 1241H601Q506 1306 419 1425Q269 1298 157 1241H69L75 1268Z" />
<glyph unicode="&#x136;" glyph-name="Kcommaaccent" horiz-adv-x="1434" d="M-27 86H0Q99 86 142 123T201 233L414 1237Q422 1275 422 1294Q422 1376 274 1376H248L266 1462H862L844 1376H817Q719 1376 676 1339T618 1229L530 815L494 664L1022 1149Q1176 1290
1176 1333Q1176 1378 1085 1378L1102 1462H1554L1538 1378Q1485 1378 1420 1343T1223 1186L850 848L1098 250Q1166 86 1292 86H1298L1280 0H1251Q1089 0 1010 33T883 190L684 696L473 549L406 225Q397 181 397 168Q397 86 545 86H571L553 0H-43L-27 86ZM491 -426L533
-329Q575 -229 612 -125H790L786 -145Q680 -311 557 -453H487L491 -426Z" />
<glyph unicode="&#x137;" glyph-name="kcommaaccent" horiz-adv-x="1165" d="M694 786Q845 917 845 979Q845 1010 754 1010L772 1096H1225L1206 1010Q1087 1010 877 819L692 649L879 244Q958 72 1087 72L1069 -14Q899 -14 819 25T684 197L551 524L365 406L281
0H90L356 1266Q375 1356 375 1374Q375 1470 231 1470H215L233 1556H610L530 1180Q420 663 371 506L694 786ZM613 -426L655 -329Q697 -229 734 -125H912L908 -145Q802 -311 679 -453H609L613 -426Z" />
<glyph unicode="&#x138;" glyph-name="kgreenlandic" horiz-adv-x="1165" d="M694 786Q845 917 845 979Q845 1010 754 1010L772 1096H1225L1206 1010Q1087 1010 877 819L692 649L879 244Q958 72 1087 72L1069 -14Q891 -14 813 29T684 197L551 524L365 406L281
0H90L260 807Q279 897 279 915Q279 1012 135 1012H119L137 1098H514L459 844Q420 662 371 506L694 786Z" />
<glyph unicode="&#x139;" glyph-name="Lacute" horiz-adv-x="1276" d="M-23 86H4Q100 86 142 123T201 233L414 1237Q422 1275 422 1294Q422 1376 274 1376H248L266 1462H862L844 1376H817Q720 1376 678 1342T621 1237L379 102H782Q939 102 1001 287L1055 440H1161L1055
0H-41L-23 86ZM584 1606Q701 1741 803 1907H1022L1016 1886Q859 1703 660 1579H578L584 1606Z" />
<glyph unicode="&#x13a;" glyph-name="lacute" horiz-adv-x="623" d="M207 1470L225 1556H612L375 440Q344 294 344 213Q344 109 412 109Q471 109 559 162L596 102Q454 -20 319 -20Q245 -20 198 34T150 174Q150 271 195 496L362 1282Q375 1343 375 1374Q375 1470
231 1470H207ZM476 1663Q593 1798 695 1964H914L908 1943Q751 1760 552 1636H470L476 1663Z" />
<glyph unicode="&#x13b;" glyph-name="Lcommaaccent" horiz-adv-x="1276" d="M-23 86H4Q100 86 142 123T201 233L414 1237Q422 1275 422 1294Q422 1376 274 1376H248L266 1462H862L844 1376H817Q720 1376 678 1342T621 1237L379 102H782Q939 102 1001 287L1055
440H1161L1055 0H-41L-23 86ZM380 -426L422 -329Q464 -229 501 -125H679L675 -145Q569 -311 446 -453H376L380 -426Z" />
<glyph unicode="&#x13c;" glyph-name="lcommaaccent" horiz-adv-x="623" d="M207 1470L225 1556H612L375 440Q344 294 344 213Q344 109 412 109Q471 109 559 162L596 102Q454 -20 319 -20Q245 -20 198 34T150 174Q150 271 195 496L362 1282Q375 1343 375 1374Q375
1470 231 1470H207ZM144 -426L186 -329Q228 -229 265 -125H443L439 -145Q333 -311 210 -453H140L144 -426Z" />
<glyph unicode="&#x13d;" glyph-name="Lcaron" horiz-adv-x="1276" d="M-23 86H4Q100 86 142 123T201 233L414 1237Q422 1275 422 1294Q422 1376 274 1376H248L266 1462H862L844 1376H817Q720 1376 678 1342T621 1237L379 102H782Q939 102 1001 287L1055 440H1161L1055
0H-41L-23 86ZM918 1162L1039 1463H1217L1213 1443Q1121 1297 983 1136H914L918 1162Z" />
<glyph unicode="&#x13e;" glyph-name="lcaron" horiz-adv-x="623" d="M207 1470L225 1556H612L375 440Q344 294 344 213Q344 109 412 109Q471 109 559 162L596 102Q454 -20 319 -20Q245 -20 198 34T150 174Q150 271 195 496L362 1282Q375 1343 375 1374Q375 1470
231 1470H207ZM662 1255L783 1556H961L957 1536Q865 1390 727 1229H658L662 1255Z" />
<glyph unicode="&#x13f;" glyph-name="Ldot" horiz-adv-x="1276" d="M-23 86H4Q100 86 142 123T201 233L414 1237Q422 1275 422 1294Q422 1376 274 1376H248L266 1462H862L844 1376H817Q720 1376 678 1342T621 1237L379 102H782Q939 102 1001 287L1055 440H1161L1055
0H-41L-23 86ZM901 659Q786 659 786 771Q786 836 819 875T909 915Q1024 915 1024 802Q1024 732 990 696T901 659Z" />
<glyph unicode="&#x140;" glyph-name="ldot" horiz-adv-x="809" d="M207 1470L225 1556H612L375 440Q344 294 344 213Q344 109 412 109Q471 109 559 162L596 102Q454 -20 319 -20Q245 -20 198 34T150 174Q150 271 195 496L362 1282Q375 1343 375 1374Q375 1470
231 1470H207ZM733 591Q618 591 618 703Q618 768 651 807T741 847Q856 847 856 734Q856 664 822 628T733 591Z" />
<glyph unicode="&#x141;" glyph-name="Lslash" horiz-adv-x="1276" d="M-23 86H4Q100 86 142 123T201 233L274 582L53 469L78 584L299 696L414 1237Q422 1275 422 1294Q422 1376 274 1376H248L266 1462H862L844 1376H817Q719 1376 678 1340T621 1237L530 815L887
1001L862 883L506 698L379 102H782Q939 102 1001 287L1055 440H1161L1055 0H-41L-23 86Z" />
<glyph unicode="&#x142;" glyph-name="lslash" horiz-adv-x="664" d="M209 565L16 469L41 584L233 684L373 1331Q379 1357 379 1376Q379 1470 233 1470H207L225 1556H612L449 793L668 905L643 786L424 676L375 440Q344 291 344 213Q344 109 412 109Q471 109 559
162L596 102Q454 -20 319 -20Q245 -20 198 34T150 174Q150 271 195 496L209 565Z" />
<glyph unicode="&#x143;" glyph-name="Nacute" horiz-adv-x="1563" d="M1327 1237Q1335 1275 1335 1294Q1335 1376 1188 1376H1161L1180 1462H1694L1675 1376H1649Q1551 1376 1509 1339T1450 1229L1190 0H1057L530 1200L324 225Q315 182 315 168Q315 86 463 86H489L471
0H-41L-23 86H4Q100 86 142 123T201 233L414 1237Q422 1275 422 1294Q422 1376 274 1376H248L266 1462H639L1135 332L1327 1237ZM940 1606Q1057 1741 1159 1907H1378L1372 1886Q1215 1703 1016 1579H934L940 1606Z" />
<glyph unicode="&#x144;" glyph-name="nacute" horiz-adv-x="1227" d="M281 0H90L262 823Q274 880 274 915Q274 1012 131 1012H115L133 1098H512L457 840H477Q643 1116 850 1116Q1069 1116 1069 889Q1069 824 1032 664L979 422Q952 299 952 207Q952 109 1024 109Q1083
109 1155 156L1192 96Q1058 -20 942 -20Q857 -20 807 35T756 184Q756 278 795 461L842 673Q872 797 872 864Q872 985 778 985Q664 985 545 831T391 524L281 0ZM686 1268Q803 1403 905 1569H1124L1118 1548Q961 1365 762 1241H680L686 1268Z" />
<glyph unicode="&#x145;" glyph-name="Ncommaaccent" horiz-adv-x="1563" d="M1327 1237Q1335 1275 1335 1294Q1335 1376 1188 1376H1161L1180 1462H1694L1675 1376H1649Q1551 1376 1509 1339T1450 1229L1190 0H1057L530 1200L324 225Q315 182 315 168Q315 86
463 86H489L471 0H-41L-23 86H4Q100 86 142 123T201 233L414 1237Q422 1275 422 1294Q422 1376 274 1376H248L266 1462H639L1135 332L1327 1237ZM491 -426L533 -329Q575 -229 612 -125H790L786 -145Q680 -311 557 -453H487L491 -426Z" />
<glyph unicode="&#x146;" glyph-name="ncommaaccent" horiz-adv-x="1227" d="M281 0H90L262 823Q274 880 274 915Q274 1012 131 1012H115L133 1098H512L457 840H477Q643 1116 850 1116Q1069 1116 1069 889Q1069 824 1032 664L979 422Q952 299 952 207Q952 109
1024 109Q1083 109 1155 156L1192 96Q1058 -20 942 -20Q857 -20 807 35T756 184Q756 278 795 461L842 673Q872 797 872 864Q872 985 778 985Q664 985 545 831T391 524L281 0ZM611 -426L653 -329Q695 -229 732 -125H910L906 -145Q800 -311 677 -453H607L611 -426Z"
/>
<glyph unicode="&#x147;" glyph-name="Ncaron" horiz-adv-x="1563" d="M1327 1237Q1335 1275 1335 1294Q1335 1376 1188 1376H1161L1180 1462H1694L1675 1376H1649Q1551 1376 1509 1339T1450 1229L1190 0H1057L530 1200L324 225Q315 182 315 168Q315 86 463 86H489L471
0H-41L-23 86H4Q100 86 142 123T201 233L414 1237Q422 1275 422 1294Q422 1376 274 1376H248L266 1462H639L1135 332L1327 1237ZM1372 1880Q1219 1730 1102 1579H908Q858 1731 768 1880L774 1907H848Q943 1832 1022 1720Q1151 1830 1293 1907H1379L1372 1880Z"
/>
<glyph unicode="&#x148;" glyph-name="ncaron" horiz-adv-x="1227" d="M281 0H90L262 823Q274 880 274 915Q274 1012 131 1012H115L133 1098H512L457 840H477Q643 1116 850 1116Q1069 1116 1069 889Q1069 824 1032 664L979 422Q952 299 952 207Q952 109 1024 109Q1083
109 1155 156L1192 96Q1058 -20 942 -20Q857 -20 807 35T756 184Q756 278 795 461L842 673Q872 797 872 864Q872 985 778 985Q664 985 545 831T391 524L281 0ZM1338 1542Q1185 1392 1068 1241H874Q824 1393 734 1542L740 1569H814Q909 1494 988 1382Q1117 1492
1259 1569H1345L1338 1542Z" />
<glyph unicode="&#x149;" glyph-name="napostrophe" horiz-adv-x="1503" d="M557 0H366L538 823Q550 880 550 915Q550 1012 407 1012H391L409 1098H788L733 840H753Q919 1116 1126 1116Q1345 1116 1345 889Q1345 824 1308 664L1255 422Q1228 299 1228 207Q1228
109 1300 109Q1359 109 1431 156L1468 96Q1334 -20 1218 -20Q1133 -20 1083 35T1032 184Q1032 278 1071 461L1118 673Q1148 797 1148 864Q1148 985 1054 985Q940 985 821 831T667 524L557 0ZM15 901L23 987Q232 1034 232 1159Q232 1195 166 1237Q99 1279 99 1341Q99
1396 134 1429T226 1462Q295 1462 340 1416T386 1294Q386 1143 290 1040T15 901Z" />
<glyph unicode="&#x14a;" glyph-name="Eng" horiz-adv-x="1624" d="M1389 1237Q1397 1275 1397 1294Q1397 1376 1249 1376H1223L1241 1462H1755L1737 1376H1710Q1612 1376 1569 1339T1511 1229L1247 -16Q1193 -271 1084 -381T784 -492Q705 -492 639 -469L664 -377Q715
-395 776 -395Q898 -395 991 -297T1124 -12L530 1200L324 225Q315 182 315 168Q315 86 463 86H489L471 0H-41L-23 86H4Q100 86 142 123T201 233L414 1237Q422 1275 422 1294Q422 1376 274 1376H248L266 1462H627L1192 309L1389 1237Z" />
<glyph unicode="&#x14b;" glyph-name="eng" horiz-adv-x="1151" d="M322 -475L340 -381Q391 -395 434 -395Q537 -395 595 -304T694 -16L829 614Q872 815 872 864Q872 985 778 985Q664 985 545 831T391 524L281 0H90L262 823Q274 880 274 915Q274 1012 131 1012H115L133
1098H512L457 840H477Q645 1116 850 1116Q1069 1116 1069 889Q1069 817 1032 657L887 -16Q833 -265 730 -378T440 -492Q383 -492 322 -475Z" />
<glyph unicode="&#x14c;" glyph-name="Omacron" horiz-adv-x="1520" d="M926 1485Q1164 1485 1310 1337T1456 922Q1456 571 1228 274T643 -23Q400 -23 253 130T106 545Q106 897 336 1191T926 1485ZM655 90Q910 90 1070 372T1231 977Q1231 1168 1147 1271T909 1374Q653
1374 492 1091T330 487Q330 295 417 193T655 90ZM1249 1579H656L682 1700H1276L1249 1579Z" />
<glyph unicode="&#x14d;" glyph-name="omacron" horiz-adv-x="1176" d="M698 1118Q879 1118 983 1009T1087 694Q1087 421 920 201T481 -20Q296 -20 192 92T88 403Q88 679 256 898T698 1118ZM504 80Q673 80 773 280T874 725Q874 1010 674 1010Q507 1010 404 809T301
362Q301 80 504 80ZM1021 1241H428L454 1362H1048L1021 1241Z" />
<glyph unicode="&#x14e;" glyph-name="Obreve" horiz-adv-x="1520" d="M926 1485Q1164 1485 1310 1337T1456 922Q1456 571 1228 274T643 -23Q400 -23 253 130T106 545Q106 897 336 1191T926 1485ZM655 90Q910 90 1070 372T1231 977Q1231 1168 1147 1271T909 1374Q653
1374 492 1091T330 487Q330 295 417 193T655 90ZM698 1860H793Q809 1720 971 1720Q1134 1720 1192 1860H1286Q1253 1728 1165 1654T956 1579Q715 1579 698 1860Z" />
<glyph unicode="&#x14f;" glyph-name="obreve" horiz-adv-x="1176" d="M698 1118Q879 1118 983 1009T1087 694Q1087 421 920 201T481 -20Q296 -20 192 92T88 403Q88 679 256 898T698 1118ZM504 80Q673 80 773 280T874 725Q874 1010 674 1010Q507 1010 404 809T301
362Q301 80 504 80ZM469 1522H564Q580 1382 742 1382Q905 1382 963 1522H1057Q1024 1390 936 1316T727 1241Q486 1241 469 1522Z" />
<glyph unicode="&#x150;" glyph-name="Ohungarumlaut" horiz-adv-x="1520" d="M926 1485Q1164 1485 1310 1337T1456 922Q1456 571 1228 274T643 -23Q400 -23 253 130T106 545Q106 897 336 1191T926 1485ZM655 90Q910 90 1070 372T1231 977Q1231 1168 1147 1271T909
1374Q653 1374 492 1091T330 487Q330 295 417 193T655 90ZM709 1579L715 1606Q827 1739 934 1907H1153L1147 1886Q1007 1727 799 1579H709ZM1077 1579L1083 1606Q1189 1727 1302 1907H1522L1515 1886Q1511 1873 1396 1766T1167 1579H1077Z" />
<glyph unicode="&#x151;" glyph-name="ohungarumlaut" horiz-adv-x="1176" d="M698 1118Q879 1118 983 1009T1087 694Q1087 421 920 201T481 -20Q296 -20 192 92T88 403Q88 679 256 898T698 1118ZM504 80Q673 80 773 280T874 725Q874 1010 674 1010Q507 1010 404
809T301 362Q301 80 504 80ZM426 1241L432 1268Q544 1401 651 1569H870L864 1548Q724 1389 516 1241H426ZM794 1241L800 1268Q906 1389 1019 1569H1239L1232 1548Q1228 1535 1113 1428T884 1241H794Z" />
<glyph unicode="&#x152;" glyph-name="OE" horiz-adv-x="1970" d="M1073 102H1468Q1641 102 1700 270L1733 358H1839L1749 0H868L799 -12Q719 -23 643 -23Q400 -23 253 130T106 545Q106 897 336 1191T926 1485Q1028 1485 1143 1462H1993L1927 1104H1821Q1831 1174
1831 1223Q1831 1356 1686 1360H1341L1225 815H1718L1698 715H1204L1073 102ZM872 125L1128 1333Q1015 1374 909 1374Q653 1374 492 1091T330 487Q330 295 417 193T655 90Q790 90 872 125Z" />
<glyph unicode="&#x153;" glyph-name="oe" horiz-adv-x="1767" d="M1579 256Q1599 242 1599 205Q1599 121 1503 51T1245 -20Q1006 -20 901 166Q732 -33 481 -33Q299 -33 194 84T88 403Q88 680 256 904T698 1128Q946 1128 1042 924Q1215 1118 1456 1118Q1586 1118
1657 1056T1729 883Q1729 791 1668 702T1498 557T1304 487T1063 473Q1057 427 1057 387Q1057 109 1284 109Q1459 109 1579 256ZM504 68Q672 68 773 273T874 725Q874 1020 674 1020Q507 1020 404 815T301 362Q301 68 504 68ZM1081 567H1102Q1283 567 1400 656T1518
883Q1518 1020 1399 1020Q1299 1020 1213 894T1081 567Z" />
<glyph unicode="&#x154;" glyph-name="Racute" horiz-adv-x="1325" d="M461 645L371 225Q362 183 362 168Q362 86 510 86H578L559 0H-76L-57 86H-31Q71 86 110 122T164 223L379 1237Q387 1275 387 1294Q387 1376 240 1376H213L231 1462H768Q1237 1462 1237 1114Q1237
776 858 686L1006 248Q1042 143 1079 115T1174 86H1190L1174 0H1147Q971 0 898 46T782 240L664 645H461ZM481 741H639Q822 741 921 834T1020 1102Q1020 1238 960 1301T752 1364H612L481 741ZM729 1606Q846 1741 948 1907H1167L1161 1886Q1004 1703 805 1579H723L729
1606Z" />
<glyph unicode="&#x155;" glyph-name="racute" horiz-adv-x="958" d="M799 821Q799 983 717 983Q622 983 516 796T358 373L281 0H90L262 823Q274 880 274 915Q274 1012 111 1012H94L113 1098H475L432 803H453Q535 986 615 1052T801 1118Q969 1118 969 977Q969
821 799 821ZM541 1268Q658 1403 760 1569H979L973 1548Q816 1365 617 1241H535L541 1268Z" />
<glyph unicode="&#x156;" glyph-name="Rcommaaccent" horiz-adv-x="1325" d="M461 645L371 225Q362 183 362 168Q362 86 510 86H578L559 0H-76L-57 86H-31Q71 86 110 122T164 223L379 1237Q387 1275 387 1294Q387 1376 240 1376H213L231 1462H768Q1237 1462 1237
1114Q1237 776 858 686L1006 248Q1042 143 1079 115T1174 86H1190L1174 0H1147Q971 0 898 46T782 240L664 645H461ZM481 741H639Q822 741 921 834T1020 1102Q1020 1238 960 1301T752 1364H612L481 741ZM442 -426L484 -329Q526 -229 563 -125H741L737 -145Q631 -311
508 -453H438L442 -426Z" />
<glyph unicode="&#x157;" glyph-name="rcommaaccent" horiz-adv-x="958" d="M799 821Q799 983 717 983Q622 983 516 796T358 373L281 0H90L262 823Q274 880 274 915Q274 1012 111 1012H94L113 1098H475L432 803H453Q535 986 615 1052T801 1118Q969 1118 969 977Q969
821 799 821ZM-18 -426L24 -329Q66 -229 103 -125H281L277 -145Q171 -311 48 -453H-22L-18 -426Z" />
<glyph unicode="&#x158;" glyph-name="Rcaron" horiz-adv-x="1325" d="M461 645L371 225Q362 183 362 168Q362 86 510 86H578L559 0H-76L-57 86H-31Q71 86 110 122T164 223L379 1237Q387 1275 387 1294Q387 1376 240 1376H213L231 1462H768Q1237 1462 1237 1114Q1237
776 858 686L1006 248Q1042 143 1079 115T1174 86H1190L1174 0H1147Q971 0 898 46T782 240L664 645H461ZM481 741H639Q822 741 921 834T1020 1102Q1020 1238 960 1301T752 1364H612L481 741ZM1151 1880Q998 1730 881 1579H687Q637 1731 547 1880L553 1907H627Q722
1832 801 1720Q930 1830 1072 1907H1158L1151 1880Z" />
<glyph unicode="&#x159;" glyph-name="rcaron" horiz-adv-x="958" d="M799 821Q799 983 717 983Q622 983 516 796T358 373L281 0H90L262 823Q274 880 274 915Q274 1012 111 1012H94L113 1098H475L432 803H453Q535 986 615 1052T801 1118Q969 1118 969 977Q969
821 799 821ZM951 1542Q798 1392 681 1241H487Q437 1393 347 1542L353 1569H427Q522 1494 601 1382Q730 1492 872 1569H958L951 1542Z" />
<glyph unicode="&#x15a;" glyph-name="Sacute" horiz-adv-x="1114" d="M172 428Q172 271 255 176T483 80Q626 80 710 151T795 344Q795 441 747 508T537 666Q373 761 310 861T246 1087Q246 1264 380 1373T743 1483Q921 1483 1027 1421T1133 1262Q1133 1120 952
1120Q952 1240 895 1310T727 1380Q605 1380 527 1310T449 1122Q449 1035 490 972T702 809Q863 715 934 622T1006 410Q1006 207 864 94T469 -20Q260 -20 137 62T14 272Q14 343 58 385T172 428ZM711 1606Q828 1741 930 1907H1149L1143 1886Q986 1703 787 1579H705L711
1606Z" />
<glyph unicode="&#x15b;" glyph-name="sacute" horiz-adv-x="950" d="M741 795Q741 898 693 960T557 1022Q465 1022 412 973T358 846Q358 778 409 730T567 635Q813 525 813 317Q813 166 697 73T389 -20Q234 -20 143 42T51 211Q51 277 87 311T180 346Q180 219 241
149T414 78Q635 78 635 268Q635 341 588 391T428 494Q281 564 231 638T180 811Q180 945 289 1030T575 1116Q726 1116 810 1060T895 922Q895 795 741 795ZM563 1268Q680 1403 782 1569H1001L995 1548Q838 1365 639 1241H557L563 1268Z" />
<glyph unicode="&#x15c;" glyph-name="Scircumflex" horiz-adv-x="1114" d="M172 428Q172 271 255 176T483 80Q626 80 710 151T795 344Q795 441 747 508T537 666Q373 761 310 861T246 1087Q246 1264 380 1373T743 1483Q921 1483 1027 1421T1133 1262Q1133 1120
952 1120Q952 1240 895 1310T727 1380Q605 1380 527 1310T449 1122Q449 1035 490 972T702 809Q863 715 934 622T1006 410Q1006 207 864 94T469 -20Q260 -20 137 62T14 272Q14 343 58 385T172 428ZM483 1606Q669 1789 753 1907H948Q977 1790 1087 1606L1081 1579H1009Q914
1644 827 1763Q677 1636 565 1579H477L483 1606Z" />
<glyph unicode="&#x15d;" glyph-name="scircumflex" horiz-adv-x="950" d="M741 795Q741 898 693 960T557 1022Q465 1022 412 973T358 846Q358 778 409 730T567 635Q813 525 813 317Q813 166 697 73T389 -20Q234 -20 143 42T51 211Q51 277 87 311T180 346Q180
219 241 149T414 78Q635 78 635 268Q635 341 588 391T428 494Q281 564 231 638T180 811Q180 945 289 1030T575 1116Q726 1116 810 1060T895 922Q895 795 741 795ZM597 1268Q783 1451 867 1569H1062Q1091 1452 1201 1268L1195 1241H1123Q1028 1306 941 1425Q791
1298 679 1241H591L597 1268Z" />
<glyph unicode="&#x15e;" glyph-name="Scedilla" horiz-adv-x="1114" d="M172 428Q172 271 255 176T483 80Q626 80 710 151T795 344Q795 441 747 508T537 666Q373 761 310 861T246 1087Q246 1264 380 1373T743 1483Q921 1483 1027 1421T1133 1262Q1133 1120 952
1120Q952 1240 895 1310T727 1380Q605 1380 527 1310T449 1122Q449 1035 490 972T702 809Q863 715 934 622T1006 410Q1006 207 864 94T469 -20Q260 -20 137 62T14 272Q14 343 58 385T172 428ZM479 -70Q553 -80 598 -128T643 -240Q643 -359 557 -425T317 -492Q238
-492 164 -469L186 -365Q256 -381 323 -381Q475 -381 475 -256Q475 -154 344 -141L422 18H518L479 -70Z" />
<glyph unicode="&#x15f;" glyph-name="scedilla" horiz-adv-x="950" d="M741 795Q741 898 693 960T557 1022Q465 1022 412 973T358 846Q358 778 409 730T567 635Q813 525 813 317Q813 166 697 73T389 -20Q234 -20 143 42T51 211Q51 277 87 311T180 346Q180 219
241 149T414 78Q635 78 635 268Q635 341 588 391T428 494Q281 564 231 638T180 811Q180 945 289 1030T575 1116Q726 1116 810 1060T895 922Q895 795 741 795ZM407 -70Q481 -80 526 -128T571 -240Q571 -359 485 -425T245 -492Q166 -492 92 -469L114 -365Q184 -381
251 -381Q403 -381 403 -256Q403 -154 272 -141L350 18H446L407 -70Z" />
<glyph unicode="&#x160;" glyph-name="Scaron" horiz-adv-x="1114" d="M172 428Q172 271 255 176T483 80Q626 80 710 151T795 344Q795 441 747 508T537 666Q373 761 310 861T246 1087Q246 1264 380 1373T743 1483Q921 1483 1027 1421T1133 1262Q1133 1120 952
1120Q952 1240 895 1310T727 1380Q605 1380 527 1310T449 1122Q449 1035 490 972T702 809Q863 715 934 622T1006 410Q1006 207 864 94T469 -20Q260 -20 137 62T14 272Q14 343 58 385T172 428ZM1148 1880Q995 1730 878 1579H684Q634 1731 544 1880L550 1907H624Q719
1832 798 1720Q927 1830 1069 1907H1155L1148 1880Z" />
<glyph unicode="&#x161;" glyph-name="scaron" horiz-adv-x="950" d="M741 795Q741 898 693 960T557 1022Q465 1022 412 973T358 846Q358 778 409 730T567 635Q813 525 813 317Q813 166 697 73T389 -20Q234 -20 143 42T51 211Q51 277 87 311T180 346Q180 219 241
149T414 78Q635 78 635 268Q635 341 588 391T428 494Q281 564 231 638T180 811Q180 945 289 1030T575 1116Q726 1116 810 1060T895 922Q895 795 741 795ZM1219 1542Q1066 1392 949 1241H755Q705 1393 615 1542L621 1569H695Q790 1494 869 1382Q998 1492 1140 1569H1226L1219
1542Z" />
<glyph unicode="&#x162;" glyph-name="Tcommaaccent" horiz-adv-x="1255" d="M657 225Q649 187 649 168Q649 86 797 86H844L825 0H188L207 86H254Q357 86 397 121T451 223L692 1360H496Q350 1360 291 1192L262 1104H156L242 1462H1395L1329 1104H1223Q1233 1184
1233 1229Q1233 1360 1098 1360H899L657 225ZM560 -426L602 -329Q644 -229 681 -125H859L855 -145Q749 -311 626 -453H556L560 -426Z" />
<glyph unicode="&#x163;" glyph-name="tcommaaccent" horiz-adv-x="754" d="M616 154L651 78Q513 -20 375 -20Q152 -20 152 219Q152 296 172 391L297 981H141L160 1063Q360 1063 473 1350H567L514 1098H762L737 981H489L365 397Q340 279 340 221Q340 109 449 109Q532
109 616 154ZM158 -426L200 -329Q242 -229 279 -125H457L453 -145Q347 -311 224 -453H154L158 -426Z" />
<glyph unicode="&#x164;" glyph-name="Tcaron" horiz-adv-x="1255" d="M657 225Q649 187 649 168Q649 86 797 86H844L825 0H188L207 86H254Q357 86 397 121T451 223L692 1360H496Q350 1360 291 1192L262 1104H156L242 1462H1395L1329 1104H1223Q1233 1184 1233
1229Q1233 1360 1098 1360H899L657 225ZM1181 1880Q1028 1730 911 1579H717Q667 1731 577 1880L583 1907H657Q752 1832 831 1720Q960 1830 1102 1907H1188L1181 1880Z" />
<glyph unicode="&#x165;" glyph-name="tcaron" horiz-adv-x="754" d="M616 154L651 78Q513 -20 375 -20Q152 -20 152 219Q152 296 172 391L297 981H141L160 1063Q360 1063 473 1350H567L514 1098H762L737 981H489L365 397Q340 279 340 221Q340 109 449 109Q532
109 616 154ZM709 1255L830 1556H1008L1004 1536Q912 1390 774 1229H705L709 1255Z" />
<glyph unicode="&#x166;" glyph-name="Tbar" horiz-adv-x="1255" d="M774 772H1118L1100 672H752L657 225Q649 187 649 168Q649 86 797 86H844L825 0H188L207 86H254Q350 86 391 119T451 223L545 672H205L223 772H567L692 1360H496Q350 1360 291 1192L262 1104H156L242
1462H1395L1329 1104H1223Q1233 1184 1233 1229Q1233 1357 1098 1360H899L774 772Z" />
<glyph unicode="&#x167;" glyph-name="tbar" horiz-adv-x="754" d="M616 154L651 78Q513 -20 375 -20Q152 -20 152 219Q152 302 172 391L215 596H76L94 692H236L297 981H141L160 1063Q360 1063 473 1350H567L514 1098H762L737 981H489L428 692H674L655 596H408L365
397Q340 281 340 221Q340 109 449 109Q532 109 616 154Z" />
<glyph unicode="&#x168;" glyph-name="Utilde" horiz-adv-x="1495" d="M205 1376L223 1462H819L803 1376H776Q680 1376 636 1340T575 1229L422 506Q397 388 397 315Q397 102 692 102Q858 102 955 176T1090 422L1264 1237Q1272 1274 1272 1294Q1272 1376 1124 1376H1098L1116
1462H1630L1614 1376H1587Q1491 1376 1447 1340T1386 1229L1214 418Q1121 -20 662 -20Q436 -20 317 72T197 334Q197 417 219 516L371 1237Q379 1275 379 1294Q379 1376 231 1376H205ZM1313 1821H1405Q1333 1579 1139 1579Q1058 1579 970 1644Q881 1708 844 1708Q756
1708 721 1600H629Q701 1841 897 1841Q979 1841 1066 1777Q1153 1712 1190 1712Q1279 1712 1313 1821Z" />
<glyph unicode="&#x169;" glyph-name="utilde" horiz-adv-x="1227" d="M135 1098H516L381 485Q340 299 340 238Q340 113 440 113Q545 113 666 264T825 588L932 1098H1130L989 440Q958 295 958 213Q958 109 1026 109Q1084 109 1157 154L1194 94Q1064 -20 934 -20Q857
-20 810 35T762 174Q762 227 772 295H756Q645 112 558 47T360 -18Q141 -18 141 209Q141 274 178 434L258 793Q276 874 276 915Q276 1012 133 1012H117L135 1098ZM1053 1483H1145Q1073 1241 879 1241Q798 1241 710 1306Q621 1370 584 1370Q496 1370 461 1262H369Q441
1503 637 1503Q719 1503 806 1439Q893 1374 930 1374Q1019 1374 1053 1483Z" />
<glyph unicode="&#x16a;" glyph-name="Umacron" horiz-adv-x="1495" d="M205 1376L223 1462H819L803 1376H776Q680 1376 636 1340T575 1229L422 506Q397 388 397 315Q397 102 692 102Q858 102 955 176T1090 422L1264 1237Q1272 1274 1272 1294Q1272 1376 1124
1376H1098L1116 1462H1630L1614 1376H1587Q1491 1376 1447 1340T1386 1229L1214 418Q1121 -20 662 -20Q436 -20 317 72T197 334Q197 417 219 516L371 1237Q379 1275 379 1294Q379 1376 231 1376H205ZM1259 1579H666L692 1700H1286L1259 1579Z" />
<glyph unicode="&#x16b;" glyph-name="umacron" horiz-adv-x="1227" d="M135 1098H516L381 485Q340 299 340 238Q340 113 440 113Q545 113 666 264T825 588L932 1098H1130L989 440Q958 295 958 213Q958 109 1026 109Q1084 109 1157 154L1194 94Q1064 -20 934 -20Q857
-20 810 35T762 174Q762 227 772 295H756Q645 112 558 47T360 -18Q141 -18 141 209Q141 274 178 434L258 793Q276 874 276 915Q276 1012 133 1012H117L135 1098ZM1040 1241H447L473 1362H1067L1040 1241Z" />
<glyph unicode="&#x16c;" glyph-name="Ubreve" horiz-adv-x="1495" d="M205 1376L223 1462H819L803 1376H776Q680 1376 636 1340T575 1229L422 506Q397 388 397 315Q397 102 692 102Q858 102 955 176T1090 422L1264 1237Q1272 1274 1272 1294Q1272 1376 1124 1376H1098L1116
1462H1630L1614 1376H1587Q1491 1376 1447 1340T1386 1229L1214 418Q1121 -20 662 -20Q436 -20 317 72T197 334Q197 417 219 516L371 1237Q379 1275 379 1294Q379 1376 231 1376H205ZM708 1860H803Q819 1720 981 1720Q1144 1720 1202 1860H1296Q1263 1728 1175
1654T966 1579Q725 1579 708 1860Z" />
<glyph unicode="&#x16d;" glyph-name="ubreve" horiz-adv-x="1227" d="M135 1098H516L381 485Q340 299 340 238Q340 113 440 113Q545 113 666 264T825 588L932 1098H1130L989 440Q958 295 958 213Q958 109 1026 109Q1084 109 1157 154L1194 94Q1064 -20 934 -20Q857
-20 810 35T762 174Q762 227 772 295H756Q645 112 558 47T360 -18Q141 -18 141 209Q141 274 178 434L258 793Q276 874 276 915Q276 1012 133 1012H117L135 1098ZM483 1522H578Q594 1382 756 1382Q919 1382 977 1522H1071Q1038 1390 950 1316T741 1241Q500 1241
483 1522Z" />
<glyph unicode="&#x16e;" glyph-name="Uring" horiz-adv-x="1495" d="M205 1376L223 1462H819L803 1376H776Q680 1376 636 1340T575 1229L422 506Q397 388 397 315Q397 102 692 102Q858 102 955 176T1090 422L1264 1237Q1272 1274 1272 1294Q1272 1376 1124 1376H1098L1116
1462H1630L1614 1376H1587Q1491 1376 1447 1340T1386 1229L1214 418Q1121 -20 662 -20Q436 -20 317 72T197 334Q197 417 219 516L371 1237Q379 1275 379 1294Q379 1376 231 1376H205ZM1004 1559Q897 1559 828 1618T758 1782Q758 1886 827 1945T1004 2005Q1112 2005
1181 1946T1250 1782Q1250 1677 1181 1618T1004 1559ZM1004 1905Q869 1905 869 1782Q869 1659 1004 1659Q1139 1659 1139 1782Q1139 1905 1004 1905Z" />
<glyph unicode="&#x16f;" glyph-name="uring" horiz-adv-x="1227" d="M135 1098H516L381 485Q340 299 340 238Q340 113 440 113Q545 113 666 264T825 588L932 1098H1130L989 440Q958 295 958 213Q958 109 1026 109Q1084 109 1157 154L1194 94Q1064 -20 934 -20Q857
-20 810 35T762 174Q762 227 772 295H756Q645 112 558 47T360 -18Q141 -18 141 209Q141 274 178 434L258 793Q276 874 276 915Q276 1012 133 1012H117L135 1098ZM750 1221Q643 1221 574 1280T504 1444Q504 1548 573 1607T750 1667Q858 1667 927 1608T996 1444Q996
1339 927 1280T750 1221ZM750 1567Q615 1567 615 1444Q615 1321 750 1321Q885 1321 885 1444Q885 1567 750 1567Z" />
<glyph unicode="&#x170;" glyph-name="Uhungarumlaut" horiz-adv-x="1495" d="M205 1376L223 1462H819L803 1376H776Q680 1376 636 1340T575 1229L422 506Q397 388 397 315Q397 102 692 102Q858 102 955 176T1090 422L1264 1237Q1272 1274 1272 1294Q1272 1376
1124 1376H1098L1116 1462H1630L1614 1376H1587Q1491 1376 1447 1340T1386 1229L1214 418Q1121 -20 662 -20Q436 -20 317 72T197 334Q197 417 219 516L371 1237Q379 1275 379 1294Q379 1376 231 1376H205ZM670 1579L676 1606Q788 1739 895 1907H1114L1108 1886Q968
1727 760 1579H670ZM1038 1579L1044 1606Q1150 1727 1263 1907H1483L1476 1886Q1472 1873 1357 1766T1128 1579H1038Z" />
<glyph unicode="&#x171;" glyph-name="uhungarumlaut" horiz-adv-x="1227" d="M135 1098H516L381 485Q340 299 340 238Q340 113 440 113Q545 113 666 264T825 588L932 1098H1130L989 440Q958 295 958 213Q958 109 1026 109Q1084 109 1157 154L1194 94Q1064 -20
934 -20Q857 -20 810 35T762 174Q762 227 772 295H756Q645 112 558 47T360 -18Q141 -18 141 209Q141 274 178 434L258 793Q276 874 276 915Q276 1012 133 1012H117L135 1098ZM435 1241L441 1268Q553 1401 660 1569H879L873 1548Q733 1389 525 1241H435ZM803 1241L809
1268Q915 1389 1028 1569H1248L1241 1548Q1237 1535 1122 1428T893 1241H803Z" />
<glyph unicode="&#x172;" glyph-name="Uogonek" horiz-adv-x="1495" d="M205 1376L223 1462H819L803 1376H776Q680 1376 636 1340T575 1229L422 506Q397 388 397 315Q397 102 692 102Q858 102 955 176T1090 422L1264 1237Q1272 1274 1272 1294Q1272 1376 1124
1376H1098L1116 1462H1630L1614 1376H1587Q1491 1376 1447 1340T1386 1229L1214 418Q1121 -20 662 -20Q436 -20 317 72T197 334Q197 417 219 516L371 1237Q379 1275 379 1294Q379 1376 231 1376H205ZM844 0Q735 -36 668 -104T600 -254Q600 -305 632 -335T717 -365Q769
-365 850 -348L825 -459Q747 -492 662 -492Q422 -492 422 -283Q422 -181 501 -107T727 0H844Z" />
<glyph unicode="&#x173;" glyph-name="uogonek" horiz-adv-x="1227" d="M135 1098H516L381 485Q340 299 340 238Q340 113 440 113Q545 113 666 264T825 588L932 1098H1130L989 440Q958 295 958 213Q958 109 1026 109Q1084 109 1157 154L1194 94Q1064 -20 934 -20Q857
-20 810 35T762 174Q762 227 772 295H756Q645 112 558 47T360 -18Q141 -18 141 209Q141 274 178 434L258 793Q276 874 276 915Q276 1012 133 1012H117L135 1098ZM1038 0Q929 -36 862 -104T794 -254Q794 -305 826 -335T911 -365Q963 -365 1044 -348L1019 -459Q941
-492 856 -492Q616 -492 616 -283Q616 -181 695 -107T921 0H1038Z" />
<glyph unicode="&#x174;" glyph-name="Wcircumflex" horiz-adv-x="2140" d="M1915 1188Q1954 1266 1954 1303Q1954 1376 1839 1376H1790L1806 1462H2306L2288 1376H2249Q2183 1376 2146 1344T2060 1217L1456 0H1268L1176 1135L625 0H438L332 1268Q327 1323 302
1349T209 1376H182L201 1462H758L739 1376H692Q545 1376 545 1272Q545 1230 549 1202L598 547Q612 360 612 201Q698 403 780 569L1210 1448H1358L1425 561Q1440 360 1436 201Q1526 410 1589 537L1915 1188ZM991 1606Q1177 1789 1261 1907H1456Q1485 1790 1595 1606L1589
1579H1517Q1422 1644 1335 1763Q1185 1636 1073 1579H985L991 1606Z" />
<glyph unicode="&#x175;" glyph-name="wcircumflex" horiz-adv-x="1677" d="M246 -18L231 864Q230 936 203 974T96 1012H76L104 1098H412Q418 666 418 164H426Q693 633 883 1079L1053 1087Q1096 548 1096 150H1110Q1277 355 1386 555T1495 874Q1495 968 1407 997Q1425
1118 1528 1118Q1636 1118 1636 965Q1636 670 1122 2L920 -20L889 866Q796 645 457 6L246 -18ZM694 1268Q880 1451 964 1569H1159Q1188 1452 1298 1268L1292 1241H1220Q1125 1306 1038 1425Q888 1298 776 1241H688L694 1268Z" />
<glyph unicode="&#x176;" glyph-name="Ycircumflex" horiz-adv-x="1280" d="M729 1462L711 1376H608Q524 1376 524 1321Q524 1281 551 1202L643 928Q692 782 698 682Q718 720 852 897L1047 1157Q1122 1257 1122 1323Q1122 1376 1024 1376H948L967 1462H1473L1454
1376H1415Q1376 1376 1338 1345T1229 1221L752 596L672 225Q664 188 664 168Q664 86 811 86H858L840 0H203L221 86H268Q371 86 411 121T465 223L545 600L307 1268Q284 1333 262 1354T184 1376H158L176 1462H729ZM551 1606Q737 1789 821 1907H1016Q1045 1790 1155
1606L1149 1579H1077Q982 1644 895 1763Q745 1636 633 1579H545L551 1606Z" />
<glyph unicode="&#x177;" glyph-name="ycircumflex" horiz-adv-x="1081" d="M164 903Q146 963 115 987T23 1012H2L18 1098H317L477 545Q551 288 563 174H569Q846 595 846 854Q846 965 745 965Q745 1034 785 1075T879 1116Q1018 1116 1018 944Q1018 697 742 250T300
-345T-139 -492Q-247 -492 -332 -455L-301 -352Q-229 -375 -141 -375Q152 -375 434 -2L164 903ZM595 1268Q781 1451 865 1569H1060Q1089 1452 1199 1268L1193 1241H1121Q1026 1306 939 1425Q789 1298 677 1241H589L595 1268Z" />
<glyph unicode="&#x178;" glyph-name="Ydieresis" horiz-adv-x="1280" d="M729 1462L711 1376H608Q524 1376 524 1321Q524 1281 551 1202L643 928Q692 782 698 682Q718 720 852 897L1047 1157Q1122 1257 1122 1323Q1122 1376 1024 1376H948L967 1462H1473L1454
1376H1415Q1376 1376 1338 1345T1229 1221L752 596L672 225Q664 188 664 168Q664 86 811 86H858L840 0H203L221 86H268Q371 86 411 121T465 223L545 600L307 1268Q284 1333 262 1354T184 1376H158L176 1462H729ZM684 1632Q582 1632 582 1735Q582 1864 692 1864Q795
1864 795 1761Q795 1632 684 1632ZM1073 1632Q971 1632 971 1735Q971 1864 1081 1864Q1184 1864 1184 1761Q1184 1632 1073 1632Z" />
<glyph unicode="&#x179;" glyph-name="Zacute" horiz-adv-x="1239" d="M1276 1378L244 102H791Q943 102 997 270L1026 358H1133L1047 0H-35L-18 82L1012 1360H535Q384 1360 330 1192L301 1104H195L281 1462H1292L1276 1378ZM746 1606Q863 1741 965 1907H1184L1178
1886Q1021 1703 822 1579H740L746 1606Z" />
<glyph unicode="&#x17a;" glyph-name="zacute" horiz-adv-x="1047" d="M616 117Q665 117 705 148T791 285L811 332H897L817 0H-2L14 82L711 981H451Q380 981 342 947T258 815L254 807H168L250 1098H967L950 1014L252 117H616ZM559 1268Q676 1403 778 1569H997L991
1548Q834 1365 635 1241H553L559 1268Z" />
<glyph unicode="&#x17b;" glyph-name="Zdotaccent" horiz-adv-x="1239" d="M1276 1378L244 102H791Q943 102 997 270L1026 358H1133L1047 0H-35L-18 82L1012 1360H535Q384 1360 330 1192L301 1104H195L281 1462H1292L1276 1378ZM821 1641Q706 1641 706 1753Q706
1818 739 1857T829 1897Q944 1897 944 1784Q944 1714 910 1678T821 1641Z" />
<glyph unicode="&#x17c;" glyph-name="zdotaccent" horiz-adv-x="1047" d="M616 117Q665 117 705 148T791 285L811 332H897L817 0H-2L14 82L711 981H451Q380 981 342 947T258 815L254 807H168L250 1098H967L950 1014L252 117H616ZM664 1303Q549 1303 549 1415Q549
1480 582 1519T672 1559Q787 1559 787 1446Q787 1376 753 1340T664 1303Z" />
<glyph unicode="&#x17d;" glyph-name="Zcaron" horiz-adv-x="1239" d="M1276 1378L244 102H791Q943 102 997 270L1026 358H1133L1047 0H-35L-18 82L1012 1360H535Q384 1360 330 1192L301 1104H195L281 1462H1292L1276 1378ZM1116 1880Q963 1730 846 1579H652Q602
1731 512 1880L518 1907H592Q687 1832 766 1720Q895 1830 1037 1907H1123L1116 1880Z" />
<glyph unicode="&#x17e;" glyph-name="zcaron" horiz-adv-x="1047" d="M616 117Q665 117 705 148T791 285L811 332H897L817 0H-2L14 82L711 981H451Q380 981 342 947T258 815L254 807H168L250 1098H967L950 1014L252 117H616ZM1266 1542Q1113 1392 996 1241H802Q752
1393 662 1542L668 1569H742Q837 1494 916 1382Q1045 1492 1187 1569H1273L1266 1542Z" />
<glyph unicode="&#x17f;" glyph-name="longs" horiz-adv-x="614" d="M-287 -475L-268 -381Q-217 -395 -174 -395Q-72 -395 -15 -308T84 -18L344 1210Q422 1577 733 1577Q864 1577 930 1536T997 1425Q997 1292 827 1292Q827 1483 723 1483Q656 1483 614 1429T541
1229L276 -16Q224 -262 122 -377T-168 -492Q-226 -492 -287 -475Z" />
<glyph unicode="&#x192;" glyph-name="florin" horiz-adv-x="1145" d="M911 815H643L481 -16Q433 -263 329 -377T37 -492Q-24 -492 -82 -477L-63 -381Q-3 -395 31 -395Q134 -395 192 -308T289 -18L451 815H244L262 911H469L508 1116Q578 1483 897 1483Q1028 1483
1094 1441T1161 1331Q1161 1198 991 1198Q991 1389 887 1389Q811 1389 770 1327T705 1135L662 911H930L911 815Z" />
<glyph unicode="&#x1f0;" glyph-name="uni01F0" horiz-adv-x="596" d="M-287 -475L-268 -381Q-217 -395 -174 -395Q-71 -395 -13 -304T86 -16L274 872Q281 905 281 926Q281 1012 156 1012H129L147 1098H514L279 -16Q227 -260 124 -376T-168 -492Q-226 -492 -287
-475ZM783 1542Q630 1392 513 1241H319Q269 1393 179 1542L185 1569H259Q354 1494 433 1382Q562 1492 704 1569H790L783 1542Z" />
<glyph unicode="&#x1fa;" glyph-name="Aringacute" horiz-adv-x="1444" d="M887 1720Q1001 1827 1106 1962H1325L1319 1946Q1158 1795 963 1700H881L887 1720ZM1018 1229L1198 184Q1208 128 1232 107T1319 86H1346L1329 0H772L788 86H836Q902 86 942 111T983 180Q983
218 979 244L950 430H397L285 256Q246 195 246 154Q246 86 360 86H408L391 0H-115L-98 86H-59Q3 86 38 115T131 231L795 1239Q672 1298 672 1438Q672 1541 740 1601T918 1661Q1027 1661 1095 1601T1163 1438Q1163 1283 1018 1229ZM905 1315H918Q1053 1315 1053
1438Q1053 1561 918 1561Q782 1561 782 1438Q782 1320 905 1315ZM885 852Q854 1052 848 1147Q812 1072 733 949L469 532H934L885 852Z" />
<glyph unicode="&#x1fb;" glyph-name="aringacute" horiz-adv-x="1186" d="M748 309H735Q588 -20 352 -20Q227 -20 158 78T88 354Q88 636 263 877T698 1118Q837 1118 938 1044L1028 1096H1094L954 440Q924 299 924 213Q924 109 991 109Q1049 109 1139 162L1176
102Q1029 -20 887 -20Q727 -20 727 150Q727 215 748 309ZM864 952Q817 1026 709 1026Q534 1026 416 804T297 346Q297 109 426 109Q528 109 640 260T788 590L864 952ZM1010 1419Q1010 1311 938 1254T764 1196Q662 1196 590 1253T518 1419Q518 1528 590 1585T764
1642Q866 1642 938 1585T1010 1419ZM899 1419Q899 1485 859 1513T764 1542Q709 1542 669 1514T629 1419Q629 1354 669 1325T764 1296Q819 1296 859 1325T899 1419ZM723 1720Q776 1769 835 1836T942 1962H1161L1155 1946Q1130 1921 1089 1888T999 1821T898 1754T799
1700H717L723 1720Z" />
<glyph unicode="&#x1fc;" glyph-name="AEacute" horiz-adv-x="1948" d="M-127 0L-98 86H-59Q-5 86 35 114T152 246L967 1364L793 1376L811 1462H1970L1905 1104H1798Q1808 1174 1808 1223Q1808 1360 1663 1360H1319L1202 815H1696L1675 715H1182L1051 102H1446Q1618
102 1677 270L1710 358H1817L1726 0H629L645 86H672Q775 86 816 121T870 223L926 489H463L309 274Q254 197 254 154Q254 86 358 86H406L377 0H-127ZM1110 1360H1071Q974 1192 811 969L539 592H948L1110 1360ZM1323 1606Q1440 1741 1542 1907H1761L1755 1886Q1598
1703 1399 1579H1317L1323 1606Z" />
<glyph unicode="&#x1fd;" glyph-name="aeacute" horiz-adv-x="1665" d="M1477 256Q1497 242 1497 205Q1497 121 1401 51T1143 -20Q1002 -20 900 55T764 274Q648 -20 397 -20Q257 -20 173 88T88 387Q88 665 252 891T686 1118Q847 1118 999 991Q1152 1118 1354 1118Q1484
1118 1555 1056T1626 883Q1626 717 1454 594T1032 471H997Q979 471 961 473Q956 448 956 387Q956 109 1182 109Q1353 109 1477 256ZM905 893Q808 1026 696 1026Q523 1026 410 809T297 365Q297 243 342 176T469 109Q571 109 646 208T750 475Q788 708 905 893ZM979
567H999Q1180 567 1297 655T1415 883Q1415 1020 1296 1020Q1196 1020 1110 893T979 567ZM922 1268Q1039 1403 1141 1569H1360L1354 1548Q1197 1365 998 1241H916L922 1268Z" />
<glyph unicode="&#x1fe;" glyph-name="Oslashacute" horiz-adv-x="1520" d="M1217 1409L1323 1546H1442L1292 1352Q1456 1200 1456 922Q1456 571 1228 274T643 -23Q478 -23 354 51L258 -82H137L274 109Q106 265 106 545Q106 897 336 1191T926 1485Q1091 1485 1217
1409ZM379 250L1130 1288Q1046 1374 909 1374Q653 1374 492 1091T330 487Q330 348 379 250ZM1188 1204L438 168Q524 90 655 90Q910 90 1070 372T1231 977Q1231 1106 1188 1204ZM827 1606Q944 1741 1046 1907H1265L1259 1886Q1102 1703 903 1579H821L827 1606Z"
/>
<glyph unicode="&#x1ff;" glyph-name="oslashacute" horiz-adv-x="1182" d="M942 1044L1057 1180H1176L1010 977Q1087 871 1087 694Q1087 419 920 197T481 -25Q340 -25 238 47L131 -82H10L172 113Q88 223 88 403Q88 679 256 898T698 1118Q847 1118 942 1044ZM305
274L838 918Q789 1010 674 1010Q507 1010 404 809T301 362Q301 297 305 274ZM868 809L338 168Q384 76 504 76Q672 76 773 277T874 725Q874 769 868 809ZM629 1268Q746 1403 848 1569H1067L1061 1548Q904 1365 705 1241H623L629 1268Z" />
<glyph unicode="&#x218;" glyph-name="Scommaaccent" horiz-adv-x="1114" d="M172 428Q172 271 255 176T483 80Q626 80 710 151T795 344Q795 441 747 508T537 666Q373 761 310 861T246 1087Q246 1264 380 1373T743 1483Q921 1483 1027 1421T1133 1262Q1133 1120
952 1120Q952 1240 895 1310T727 1380Q605 1380 527 1310T449 1122Q449 1035 490 972T702 809Q863 715 934 622T1006 410Q1006 207 864 94T469 -20Q260 -20 137 62T14 272Q14 343 58 385T172 428ZM537 -426L579 -329Q621 -229 658 -125H836L832 -145Q726 -311 603
-453H533L537 -426Z" />
<glyph unicode="&#x219;" glyph-name="scommaaccent" horiz-adv-x="950" d="M741 795Q741 898 693 960T557 1022Q465 1022 412 973T358 846Q358 778 409 730T567 635Q813 525 813 317Q813 166 697 73T389 -20Q234 -20 143 42T51 211Q51 277 87 311T180 346Q180
219 241 149T414 78Q635 78 635 268Q635 341 588 391T428 494Q281 564 231 638T180 811Q180 945 289 1030T575 1116Q726 1116 810 1060T895 922Q895 795 741 795ZM205 -426L247 -329Q289 -229 326 -125H504L500 -145Q394 -311 271 -453H201L205 -426Z" />
<glyph unicode="&#x2bc;" glyph-name="afii57929" horiz-adv-x="512" d="M168 901L176 987Q385 1034 385 1159Q385 1195 319 1237Q252 1279 252 1341Q252 1396 287 1429T379 1462Q448 1462 493 1416T539 1294Q539 1143 443 1040T168 901Z" />
<glyph unicode="&#x2c6;" glyph-name="circumflex" horiz-adv-x="1182" d="M381 1268Q567 1451 651 1569H846Q875 1452 985 1268L979 1241H907Q812 1306 725 1425Q575 1298 463 1241H375L381 1268Z" />
<glyph unicode="&#x2c7;" glyph-name="caron" horiz-adv-x="1182" d="M1085 1542Q932 1392 815 1241H621Q571 1393 481 1542L487 1569H561Q656 1494 735 1382Q864 1492 1006 1569H1092L1085 1542Z" />
<glyph unicode="&#x2c9;" glyph-name="uni02C9" horiz-adv-x="1024" d="M958 1241H365L391 1362H985L958 1241Z" />
<glyph unicode="&#x2d8;" glyph-name="breve" horiz-adv-x="1182" d="M317 1522H412Q428 1382 590 1382Q753 1382 811 1522H905Q872 1390 784 1316T575 1241Q334 1241 317 1522Z" />
<glyph unicode="&#x2d9;" glyph-name="dotaccent" horiz-adv-x="623" d="M459 1303Q344 1303 344 1415Q344 1480 377 1519T467 1559Q582 1559 582 1446Q582 1376 548 1340T459 1303Z" />
<glyph unicode="&#x2da;" glyph-name="ring" horiz-adv-x="682" d="M504 1221Q397 1221 328 1280T258 1444Q258 1548 327 1607T504 1667Q612 1667 681 1608T750 1444Q750 1339 681 1280T504 1221ZM504 1567Q369 1567 369 1444Q369 1321 504 1321Q639 1321 639
1444Q639 1567 504 1567Z" />
<glyph unicode="&#x2db;" glyph-name="ogonek" horiz-adv-x="1024" d="M762 0Q653 -36 586 -104T518 -254Q518 -305 550 -335T635 -365Q687 -365 768 -348L743 -459Q665 -492 580 -492Q340 -492 340 -283Q340 -181 419 -107T645 0H762Z" />
<glyph unicode="&#x2dc;" glyph-name="tilde" horiz-adv-x="1182" d="M1028 1483H1120Q1048 1241 854 1241Q773 1241 685 1306Q596 1370 559 1370Q471 1370 436 1262H344Q416 1503 612 1503Q694 1503 781 1439Q868 1374 905 1374Q994 1374 1028 1483Z" />
<glyph unicode="&#x2dd;" glyph-name="hungarumlaut" horiz-adv-x="1182" d="M193 1241L199 1268Q311 1401 418 1569H637L631 1548Q491 1389 283 1241H193ZM561 1241L567 1268Q673 1389 786 1569H1006L999 1548Q995 1535 880 1428T651 1241H561Z" />
<glyph unicode="&#x2f3;" glyph-name="uni02F3" horiz-adv-x="682" d="M442 -348Q442 -403 423 -444T371 -514T293 -556T197 -571Q145 -571 100 -557T22 -514T-30 -445T-49 -348Q-49 -294 -30 -252T22 -182T100 -140T197 -125Q248 -125 293 -139T371 -182T423
-252T442 -348ZM332 -348Q332 -315 321 -292T292 -254T249 -232T197 -225Q169 -225 145 -232T102 -253T72 -291T61 -348Q61 -381 72 -404T101 -442T144 -464T197 -471Q224 -471 248 -464T291 -443T321 -405T332 -348Z" />
<glyph unicode="&#x384;" glyph-name="tonos" horiz-adv-x="1182" d="M475 1268Q575 1435 618 1569H803L799 1548Q796 1530 717 1432T539 1241H471L475 1268Z" />
<glyph unicode="&#x385;" glyph-name="dieresistonos" horiz-adv-x="1182" d="M518 1415Q613 1575 662 1716H846L842 1696Q838 1677 761 1581T582 1389H514L518 1415ZM375 1290Q283 1290 283 1382Q283 1497 381 1497Q473 1497 473 1405Q473 1290 375 1290ZM807
1290Q715 1290 715 1382Q715 1497 813 1497Q905 1497 905 1405Q905 1290 807 1290Z" />
<glyph unicode="&#x386;" glyph-name="Alphatonos" horiz-adv-x="1444" d="M408 489L285 274Q246 206 246 160Q246 86 360 86H408L391 0H-115L-98 86H-59Q-4 86 33 114T131 246L844 1462H1004L1198 195Q1208 131 1233 109T1319 86H1346L1329 0H772L788 86H836Q983
86 983 190Q983 232 979 260L946 489H408ZM881 950Q850 1168 848 1274Q801 1163 688 969L469 592H932L881 950ZM238 1163Q338 1330 381 1464H566L562 1443Q559 1425 480 1327T302 1136H234L238 1163Z" />
<glyph unicode="&#x387;" glyph-name="anoteleia" horiz-adv-x="586" d="M315 588Q188 588 188 713Q188 784 224 827T323 870Q450 870 450 745Q450 672 414 630T315 588Z" />
<glyph unicode="&#x388;" glyph-name="Epsilontonos" horiz-adv-x="1442" d="M545 102H940Q1113 102 1172 270L1204 358H1311L1221 0H123L139 86H166Q270 86 310 122T365 223L578 1229Q584 1257 584 1278Q584 1326 556 1351T440 1376H414L432 1462H1464L1399 1104H1292L1298
1167Q1303 1215 1303 1223Q1303 1360 1157 1360H813L696 815H1190L1170 715H676L545 102ZM60 1163Q160 1330 203 1464H388L384 1443Q381 1425 302 1327T124 1136H56L60 1163Z" />
<glyph unicode="&#x389;" glyph-name="Etatonos" horiz-adv-x="1786" d="M991 0L1008 86H1034Q1132 86 1176 122T1235 233L1336 713H670L568 225Q559 182 559 168Q559 86 707 86H733L715 0H119L135 86H162Q261 86 304 123T363 233L576 1237Q584 1275 584 1294Q584
1376 436 1376H410L428 1462H1024L1006 1376H979Q881 1376 838 1339T780 1229L692 815H1358L1448 1237Q1456 1275 1456 1294Q1456 1376 1309 1376H1282L1301 1462H1897L1878 1376H1852Q1754 1376 1711 1339T1653 1229L1440 225Q1432 187 1432 168Q1432 86 1579
86H1606L1587 0H991ZM56 1163Q156 1330 199 1464H384L380 1443Q377 1425 298 1327T120 1136H52L56 1163Z" />
<glyph unicode="&#x38a;" glyph-name="Iotatonos" horiz-adv-x="913" d="M1024 1462L1006 1376H979Q881 1376 838 1339T780 1229L568 225Q559 182 559 168Q559 86 707 86H733L715 0H119L135 86H162Q332 86 363 233L576 1237Q584 1275 584 1294Q584 1376 436 1376H410L428
1462H1024ZM56 1163Q156 1330 199 1464H384L380 1443Q377 1425 298 1327T120 1136H52L56 1163Z" />
<glyph unicode="&#x38c;" glyph-name="Omicrontonos" horiz-adv-x="1520" d="M926 1485Q1164 1485 1310 1337T1456 922Q1456 571 1228 274T643 -23Q400 -23 253 130T106 545Q106 897 336 1191T926 1485ZM655 90Q910 90 1070 372T1231 977Q1231 1168 1147 1271T909
1374Q653 1374 492 1091T330 487Q330 295 417 193T655 90ZM13 1163Q113 1330 156 1464H341L337 1443Q334 1425 255 1327T77 1136H9L13 1163Z" />
<glyph unicode="&#x38e;" glyph-name="Upsilontonos" horiz-adv-x="1530" d="M979 1462L961 1376H858Q774 1376 774 1321Q774 1281 801 1202L893 928Q942 782 948 682Q968 720 1102 897L1297 1157Q1372 1257 1372 1323Q1372 1376 1274 1376H1198L1217 1462H1723L1704
1376H1665Q1626 1376 1588 1345T1479 1221L1002 596L922 225Q914 188 914 168Q914 86 1061 86H1108L1090 0H453L471 86H518Q621 86 661 121T715 223L795 600L557 1268Q534 1333 512 1354T434 1376H408L426 1462H979ZM58 1163Q158 1330 201 1464H386L382 1443Q379
1425 300 1327T122 1136H54L58 1163Z" />
<glyph unicode="&#x38f;" glyph-name="Omegatonos" horiz-adv-x="1542" d="M686 0L778 428Q1040 459 1145 648T1251 1026Q1251 1195 1161 1284T899 1374Q624 1374 503 1181T381 758Q381 622 448 533T639 428L561 0H-12L16 358H123V291Q123 217 160 191T289 164H483L518
344Q349 381 253 503T156 803Q156 1081 357 1283T924 1485Q1179 1485 1327 1361T1475 1018Q1475 757 1325 577T877 344L834 164H1028Q1120 164 1169 191T1251 291L1280 358H1386L1294 0H686ZM-28 1163Q72 1330 115 1464H300L296 1443Q293 1425 214 1327T36 1136H-32L-28
1163Z" />
<glyph unicode="&#x390;" glyph-name="iotadieresistonos" horiz-adv-x="684" d="M514 1098L365 397Q340 279 340 221Q340 109 449 109Q521 109 602 150L637 74Q504 -20 358 -20Q152 -20 152 219Q152 296 172 391L322 1098H514ZM685 1415Q780 1575 829 1716H1013L1009
1696Q1005 1677 928 1581T749 1389H681L685 1415ZM542 1290Q450 1290 450 1382Q450 1497 548 1497Q640 1497 640 1405Q640 1290 542 1290ZM974 1290Q882 1290 882 1382Q882 1497 980 1497Q1072 1497 1072 1405Q1072 1290 974 1290Z" />
<glyph unicode="&#x391;" glyph-name="Alpha" horiz-adv-x="1444" d="M408 489L285 274Q246 206 246 160Q246 86 360 86H408L391 0H-115L-98 86H-59Q-4 86 33 114T131 246L844 1462H1004L1198 195Q1208 131 1233 109T1319 86H1346L1329 0H772L788 86H836Q983 86
983 190Q983 232 979 260L946 489H408ZM881 950Q850 1168 848 1274Q801 1163 688 969L469 592H932L881 950Z" />
<glyph unicode="&#x392;" glyph-name="Beta" horiz-adv-x="1339" d="M-27 86H0Q170 86 201 233L414 1237Q422 1275 422 1294Q422 1376 274 1376H248L266 1462H797Q1276 1462 1276 1155Q1276 852 942 774L940 766Q1190 716 1190 467Q1190 242 1039 121T600 0H-43L-27
86ZM530 817H688Q1053 817 1053 1128Q1053 1360 770 1360H647L530 817ZM379 102H578Q969 102 969 481Q969 715 682 715H510L379 102Z" />
<glyph unicode="&#x393;" glyph-name="Gamma" horiz-adv-x="1149" d="M594 0H-41L-23 86H2Q170 86 201 233L412 1229Q422 1276 422 1294Q422 1376 274 1376H248L266 1462H1284L1221 1104H1114Q1124 1192 1124 1223Q1124 1302 1083 1331T956 1360H647L406 225Q397
183 397 168Q397 86 545 86H612L594 0Z" />
<glyph unicode="&#x394;" glyph-name="increment" horiz-adv-x="1245" d="M1042 0H-74L-51 109L713 1462H891L1067 123L1042 0ZM852 137L758 940Q727 1201 727 1274Q678 1157 565 958L102 137H852Z" />
<glyph unicode="&#x395;" glyph-name="Epsilon" horiz-adv-x="1276" d="M379 102H774Q947 102 1006 270L1038 358H1145L1055 0H-43L-27 86H0Q104 86 144 122T199 223L412 1229Q418 1257 418 1278Q418 1326 390 1351T274 1376H248L266 1462H1298L1233 1104H1126L1132
1167Q1137 1215 1137 1223Q1137 1360 991 1360H647L530 815H1024L1004 715H510L379 102Z" />
<glyph unicode="&#x396;" glyph-name="Zeta" horiz-adv-x="1239" d="M1276 1378L244 102H791Q943 102 997 270L1026 358H1133L1047 0H-35L-18 82L1012 1360H535Q384 1360 330 1192L301 1104H195L281 1462H1292L1276 1378Z" />
<glyph unicode="&#x397;" glyph-name="Eta" horiz-adv-x="1624" d="M829 0L846 86H872Q970 86 1014 122T1073 233L1174 713H508L406 225Q397 182 397 168Q397 86 545 86H571L553 0H-43L-27 86H0Q99 86 142 123T201 233L414 1237Q422 1275 422 1294Q422 1376 274
1376H248L266 1462H862L844 1376H817Q719 1376 676 1339T618 1229L530 815H1196L1286 1237Q1294 1275 1294 1294Q1294 1376 1147 1376H1120L1139 1462H1735L1716 1376H1690Q1592 1376 1549 1339T1491 1229L1278 225Q1270 187 1270 168Q1270 86 1417 86H1444L1425
0H829Z" />
<glyph unicode="&#x398;" glyph-name="Theta" horiz-adv-x="1520" d="M926 1485Q1164 1485 1310 1337T1456 922Q1456 571 1228 274T643 -23Q400 -23 253 130T106 545Q106 897 336 1191T926 1485ZM655 90Q910 90 1070 372T1231 977Q1231 1168 1147 1271T909 1374Q653
1374 492 1091T330 487Q330 295 417 193T655 90ZM612 930L614 891Q617 829 658 813T764 797H815Q966 797 1010 891L1028 930H1114L1034 561H948L946 600Q942 685 793 694H741Q655 694 617 672T551 600L532 561H446L526 930H612Z" />
<glyph unicode="&#x399;" glyph-name="Iota" horiz-adv-x="752" d="M862 1462L844 1376H817Q719 1376 676 1339T618 1229L406 225Q397 182 397 168Q397 86 545 86H571L553 0H-43L-27 86H0Q170 86 201 233L414 1237Q422 1275 422 1294Q422 1376 274 1376H248L266
1462H862Z" />
<glyph unicode="&#x39a;" glyph-name="Kappa" horiz-adv-x="1434" d="M-27 86H0Q99 86 142 123T201 233L414 1237Q422 1275 422 1294Q422 1376 274 1376H248L266 1462H862L844 1376H817Q719 1376 676 1339T618 1229L530 815L494 664L1022 1149Q1176 1290 1176
1333Q1176 1378 1085 1378L1102 1462H1554L1538 1378Q1485 1378 1420 1343T1223 1186L850 848L1098 250Q1166 86 1292 86H1298L1280 0H1251Q1089 0 1010 33T883 190L684 696L473 549L406 225Q397 181 397 168Q397 86 545 86H571L553 0H-43L-27 86Z" />
<glyph unicode="&#x39b;" glyph-name="Lambda" horiz-adv-x="1382" d="M961 1462L1135 195Q1142 142 1165 114T1257 86H1284L1266 0H702L721 86H768Q915 86 915 197Q915 236 911 260L827 932Q807 1092 807 1262Q746 1119 641 932L276 274Q238 205 238 162Q238
86 354 86H401L383 0H-115L-96 86H-57Q3 86 37 115T129 246L811 1462H961Z" />
<glyph unicode="&#x39c;" glyph-name="Mu" horiz-adv-x="1921" d="M1178 0L1196 86H1202Q1289 86 1324 118T1376 215L1610 1309L862 0H752L553 1309L324 225Q315 182 315 168Q315 86 463 86H489L471 0H-41L-23 86H4Q106 86 145 122T199 223L414 1237Q422 1275
422 1294Q422 1376 274 1376H248L266 1462H731L905 295L1575 1462H2032L2013 1376H1987Q1889 1376 1846 1339T1788 1229L1575 225Q1567 187 1567 168Q1567 86 1714 86H1741L1722 0H1178Z" />
<glyph unicode="&#x39d;" glyph-name="Nu" horiz-adv-x="1563" d="M1327 1237Q1335 1275 1335 1294Q1335 1376 1188 1376H1161L1180 1462H1694L1675 1376H1649Q1551 1376 1509 1339T1450 1229L1190 0H1057L530 1200L324 225Q315 182 315 168Q315 86 463 86H489L471
0H-41L-23 86H4Q100 86 142 123T201 233L414 1237Q422 1275 422 1294Q422 1376 274 1376H248L266 1462H639L1135 332L1327 1237Z" />
<glyph unicode="&#x39e;" glyph-name="Xi" horiz-adv-x="1272" d="M1233 1083H1126Q1133 1160 1133 1180Q1133 1298 991 1298H588Q437 1298 383 1145L362 1083H256L346 1462H1303L1233 1083ZM477 948L479 909Q482 857 516 836T629 815H741Q892 815 936 909L954
948H1040L958 559H872L870 598Q866 683 715 692H602Q513 692 476 670T414 598L395 559H309L391 948H477ZM1055 0H-23L49 403H156Q152 351 152 313Q152 188 291 188H817Q972 188 1022 342L1042 403H1149L1055 0Z" />
<glyph unicode="&#x39f;" glyph-name="Omicron" horiz-adv-x="1520" d="M926 1485Q1164 1485 1310 1337T1456 922Q1456 571 1228 274T643 -23Q400 -23 253 130T106 545Q106 897 336 1191T926 1485ZM655 90Q910 90 1070 372T1231 977Q1231 1168 1147 1271T909 1374Q653
1374 492 1091T330 487Q330 295 417 193T655 90Z" />
<glyph unicode="&#x3a0;" glyph-name="Pi" horiz-adv-x="1563" d="M768 0L786 86H813Q910 86 952 123T1012 233L1251 1360H647L406 225Q397 183 397 168Q397 86 545 86H571L553 0H-43L-27 86H0Q99 86 142 123T201 233L414 1237Q422 1275 422 1294Q422 1376 274
1376H248L266 1462H1673L1655 1376H1628Q1531 1376 1489 1340T1430 1229L1217 225Q1208 183 1208 168Q1208 86 1356 86H1382L1364 0H768Z" />
<glyph unicode="&#x3a1;" glyph-name="Rho" horiz-adv-x="1270" d="M-41 0L-23 86H4Q100 86 143 123T201 233L414 1237Q422 1275 422 1294Q422 1376 274 1376H248L266 1462H791Q1013 1462 1135 1359T1257 1067Q1257 834 1101 702T631 569H479L406 225Q397 183
397 168Q397 86 545 86H612L594 0H-41ZM500 666H608Q1040 666 1040 1065Q1040 1364 741 1364H647L500 666Z" />
<glyph unicode="&#x3a3;" glyph-name="Sigma" horiz-adv-x="1239" d="M764 188Q927 188 997 383L1020 444H1126L1022 0H-72L-59 66L516 727L268 1403L281 1462H1241L1176 1104H1069L1075 1165Q1079 1206 1079 1223Q1079 1358 934 1358H512L709 813L694 778L182 188H764Z" />
<glyph unicode="&#x3a4;" glyph-name="Tau" horiz-adv-x="1255" d="M657 225Q649 187 649 168Q649 86 797 86H844L825 0H188L207 86H254Q357 86 397 121T451 223L692 1360H496Q350 1360 291 1192L262 1104H156L242 1462H1395L1329 1104H1223Q1233 1184 1233 1229Q1233
1360 1098 1360H899L657 225Z" />
<glyph unicode="&#x3a5;" glyph-name="Upsilon" horiz-adv-x="1280" d="M729 1462L711 1376H608Q524 1376 524 1321Q524 1281 551 1202L643 928Q692 782 698 682Q718 720 852 897L1047 1157Q1122 1257 1122 1323Q1122 1376 1024 1376H948L967 1462H1473L1454 1376H1415Q1376
1376 1338 1345T1229 1221L752 596L672 225Q664 188 664 168Q664 86 811 86H858L840 0H203L221 86H268Q371 86 411 121T465 223L545 600L307 1268Q284 1333 262 1354T184 1376H158L176 1462H729Z" />
<glyph unicode="&#x3a6;" glyph-name="Phi" horiz-adv-x="1567" d="M809 1237Q817 1276 817 1294Q817 1376 666 1376H639L657 1462H1249L1231 1376H1208Q1106 1376 1064 1340T1006 1229L997 1188H1061Q1284 1188 1408 1085T1532 793Q1532 561 1372 428T901 295H807L793
225Q784 180 784 168Q784 86 936 86H958L940 0H350L369 86H395Q565 86 596 233L608 295H541Q318 295 196 398T74 690Q74 923 230 1055T700 1188H799L809 1237ZM778 1092H723Q291 1092 291 692Q291 393 590 393H631L778 1092ZM827 391H879Q1315 391 1315 791Q1315
1090 1012 1090H975L827 391Z" />
<glyph unicode="&#x3a7;" glyph-name="Chi" horiz-adv-x="1352" d="M1458 1376H1440Q1384 1376 1340 1346T1208 1223L821 795L1067 195Q1112 86 1208 86H1235L1217 0H664L682 86H705Q766 86 801 106T836 158Q836 200 797 299L664 625L358 285Q276 194 276 141Q276
86 397 86H403L385 0H-100L-82 86H-74Q-7 86 45 121T168 233L621 727L401 1272Q359 1376 242 1376H215L233 1462H788L770 1376H723Q627 1376 627 1319Q627 1290 664 1196L780 897L1036 1192Q1114 1282 1114 1325Q1114 1376 1016 1376H1010L1028 1462H1477L1458
1376Z" />
<glyph unicode="&#x3a8;" glyph-name="Psi" horiz-adv-x="1696" d="M1348 1462L1329 1376H1303Q1207 1376 1164 1340T1104 1229L971 606H1020Q1185 606 1270 679T1405 979L1507 1462H1878L1860 1376Q1764 1376 1720 1340T1661 1229L1608 975Q1557 731 1411 621T1020
510H950L891 225Q883 186 883 168Q883 86 1030 86H1057L1038 0H455L471 86H498Q595 86 639 122T698 233L756 510H688Q279 510 279 821Q279 885 297 975L352 1237Q360 1275 360 1294Q360 1376 213 1376H186L205 1462H602L500 979Q477 870 477 807Q477 606 745 606H776L911
1237Q920 1279 920 1294Q920 1376 772 1376H745L764 1462H1348Z" />
<glyph unicode="&#x3a9;" glyph-name="Omega" horiz-adv-x="1542" d="M686 0L778 428Q1040 459 1145 648T1251 1026Q1251 1195 1161 1284T899 1374Q624 1374 503 1181T381 758Q381 622 448 533T639 428L561 0H-12L16 358H123V291Q123 217 160 191T289 164H483L518
344Q349 381 253 503T156 803Q156 1081 357 1283T924 1485Q1179 1485 1327 1361T1475 1018Q1475 757 1325 577T877 344L834 164H1028Q1120 164 1169 191T1251 291L1280 358H1386L1294 0H686Z" />
<glyph unicode="&#x3aa;" glyph-name="Iotadieresis" horiz-adv-x="752" d="M862 1462L844 1376H817Q719 1376 676 1339T618 1229L406 225Q397 182 397 168Q397 86 545 86H571L553 0H-43L-27 86H0Q170 86 201 233L414 1237Q422 1275 422 1294Q422 1376 274 1376H248L266
1462H862ZM404 1632Q302 1632 302 1735Q302 1864 412 1864Q515 1864 515 1761Q515 1632 404 1632ZM793 1632Q691 1632 691 1735Q691 1864 801 1864Q904 1864 904 1761Q904 1632 793 1632Z" />
<glyph unicode="&#x3ab;" glyph-name="Upsilondieresis" horiz-adv-x="1280" d="M729 1462L711 1376H608Q524 1376 524 1321Q524 1281 551 1202L643 928Q692 782 698 682Q718 720 852 897L1047 1157Q1122 1257 1122 1323Q1122 1376 1024 1376H948L967 1462H1473L1454
1376H1415Q1376 1376 1338 1345T1229 1221L752 596L672 225Q664 188 664 168Q664 86 811 86H858L840 0H203L221 86H268Q371 86 411 121T465 223L545 600L307 1268Q284 1333 262 1354T184 1376H158L176 1462H729ZM684 1632Q582 1632 582 1735Q582 1864 692 1864Q795
1864 795 1761Q795 1632 684 1632ZM1073 1632Q971 1632 971 1735Q971 1864 1081 1864Q1184 1864 1184 1761Q1184 1632 1073 1632Z" />
<glyph unicode="&#x3ac;" glyph-name="alphatonos" horiz-adv-x="1229" d="M739 207H731Q586 -20 385 -20Q247 -20 166 82T84 358Q84 681 245 899T631 1118Q848 1118 891 903H903Q978 1043 1055 1098H1202Q1086 949 1016 694L956 469Q924 349 924 240Q924 123
1018 123Q1059 123 1122 164L1159 98Q1042 -10 926 -10Q758 -10 739 207ZM799 590L831 719Q835 734 824 815T770 944T651 991Q502 991 397 802T291 365Q291 111 459 111Q673 111 799 590ZM657 1268Q757 1435 800 1569H985L981 1548Q978 1530 899 1432T721 1241H653L657
1268Z" />
<glyph unicode="&#x3ad;" glyph-name="epsilontonos" horiz-adv-x="1016" d="M354 571L356 582Q207 645 207 803Q207 952 328 1034T662 1116Q821 1116 907 1069T993 940Q993 801 817 801Q817 1022 639 1022Q523 1022 461 956T399 786Q399 704 439 665T537 625Q538
625 576 634Q664 655 700 655Q778 655 778 600Q778 502 651 502Q575 502 487 532Q389 510 326 443T262 283Q262 109 489 109Q691 109 854 260Q877 245 877 209Q877 116 765 48T463 -20Q61 -20 61 266Q61 483 354 571ZM620 1268Q720 1435 763 1569H948L944 1548Q941
1530 862 1432T684 1241H616L620 1268Z" />
<glyph unicode="&#x3ae;" glyph-name="etatonos" horiz-adv-x="1212" d="M236 694Q268 844 268 1036V1070Q268 1085 266 1098H383Q414 1058 424 895H436Q598 1118 795 1118Q1073 1118 1073 854Q1073 793 1057 717L874 -143Q842 -295 842 -378Q842 -463 850 -492H653Q645
-466 645 -414Q645 -307 686 -119L866 727Q879 788 879 821Q879 987 721 987Q488 987 406 596L281 0H88L236 694ZM696 1268Q796 1435 839 1569H1024L1020 1548Q1017 1530 938 1432T760 1241H692L696 1268Z" />
<glyph unicode="&#x3af;" glyph-name="iotatonos" horiz-adv-x="684" d="M514 1098L365 397Q340 279 340 221Q340 109 449 109Q521 109 602 150L637 74Q504 -20 358 -20Q152 -20 152 219Q152 296 172 391L322 1098H514ZM642 1268Q742 1435 785 1569H970L966 1548Q963
1530 884 1432T706 1241H638L642 1268Z" />
<glyph unicode="&#x3b0;" glyph-name="upsilondieresistonos" horiz-adv-x="1214" d="M375 457Q358 380 358 328Q358 111 567 111Q748 111 865 309T983 766Q983 958 840 979Q859 1120 971 1120Q1044 1120 1086 1048T1128 854Q1128 510 960 245T522 -20Q350 -20
257 66T164 307Q164 375 178 434L258 793Q276 874 276 915Q276 1012 133 1012H117L135 1098H516L375 457ZM715 1415Q810 1575 859 1716H1043L1039 1696Q1035 1677 958 1581T779 1389H711L715 1415ZM572 1290Q480 1290 480 1382Q480 1497 578 1497Q670 1497 670
1405Q670 1290 572 1290ZM1004 1290Q912 1290 912 1382Q912 1497 1010 1497Q1102 1497 1102 1405Q1102 1290 1004 1290Z" />
<glyph unicode="&#x3b1;" glyph-name="alpha" horiz-adv-x="1229" d="M739 207H731Q586 -20 385 -20Q247 -20 166 82T84 358Q84 681 245 899T631 1118Q848 1118 891 903H903Q978 1043 1055 1098H1202Q1086 949 1016 694L956 469Q924 349 924 240Q924 123 1018
123Q1059 123 1122 164L1159 98Q1042 -10 926 -10Q758 -10 739 207ZM799 590L831 719Q835 734 824 815T770 944T651 991Q502 991 397 802T291 365Q291 111 459 111Q673 111 799 590Z" />
<glyph unicode="&#x3b2;" glyph-name="beta" horiz-adv-x="1223" d="M-16 -494L336 1165Q420 1563 819 1563Q998 1563 1100 1484T1202 1262Q1202 973 862 877V868Q1098 772 1098 532Q1098 284 960 132T594 -20Q404 -20 297 72L176 -494H-16ZM741 813Q665 784 612
784Q541 784 541 842Q541 926 666 926Q731 926 782 909Q885 944 946 1036T1008 1249Q1008 1350 954 1410T809 1470Q696 1470 630 1402T528 1157L324 197Q442 86 586 86Q736 86 819 205T903 532Q903 751 741 813Z" />
<glyph unicode="&#x3b3;" glyph-name="gamma" horiz-adv-x="1108" d="M512 182Q674 316 783 532T893 883Q893 974 817 995Q844 1118 954 1118Q1067 1118 1067 993Q1067 804 890 512T512 61Q478 -192 400 -342T229 -492Q162 -492 162 -414Q162 -239 338 10Q314
575 276 775T166 975Q128 975 78 948L49 1010Q177 1104 281 1104Q407 1104 451 896T512 182Z" />
<glyph unicode="&#x3b4;" glyph-name="delta" horiz-adv-x="1182" d="M604 936Q436 1068 436 1229Q436 1385 549 1476T838 1567Q992 1567 1083 1512T1174 1380Q1174 1309 1127 1267T1001 1225Q1001 1473 815 1473Q724 1473 667 1416T610 1270Q610 1147 811 997Q1067
811 1067 584Q1067 318 902 149T496 -20Q305 -20 194 84T82 367Q82 792 604 936ZM676 881Q486 827 381 692T276 371Q276 234 339 160T514 86Q671 86 769 212T868 545Q868 747 676 881Z" />
<glyph unicode="&#x3b5;" glyph-name="epsilon" horiz-adv-x="1016" d="M354 571L356 582Q207 645 207 803Q207 952 328 1034T662 1116Q821 1116 907 1069T993 940Q993 801 817 801Q817 1022 639 1022Q523 1022 461 956T399 786Q399 704 439 665T537 625Q538 625
576 634Q664 655 700 655Q778 655 778 600Q778 502 651 502Q575 502 487 532Q389 510 326 443T262 283Q262 109 489 109Q691 109 854 260Q877 245 877 209Q877 116 765 48T463 -20Q61 -20 61 266Q61 483 354 571Z" />
<glyph unicode="&#x3b6;" glyph-name="zeta" horiz-adv-x="946" d="M743 1350Q550 1380 418 1516L489 1589Q633 1448 834 1430Q979 1522 1083 1522Q1167 1522 1167 1462Q1167 1331 838 1331Q601 1118 448 839T295 350Q295 275 340 231T551 145Q668 116 721 71T774
-53Q774 -173 685 -271T432 -412L401 -313Q596 -260 596 -131Q596 -76 552 -49T385 6Q96 71 96 295Q96 495 258 798T743 1350Z" />
<glyph unicode="&#x3b7;" glyph-name="eta" horiz-adv-x="1212" d="M236 694Q268 844 268 1036V1070Q268 1085 266 1098H383Q414 1058 424 895H436Q598 1118 795 1118Q1073 1118 1073 854Q1073 793 1057 717L874 -143Q842 -295 842 -378Q842 -463 850 -492H653Q645
-466 645 -414Q645 -307 686 -119L866 727Q879 788 879 821Q879 987 721 987Q488 987 406 596L281 0H88L236 694Z" />
<glyph unicode="&#x3b8;" glyph-name="theta" horiz-adv-x="1145" d="M113 508Q113 906 287 1235T745 1565Q927 1565 1020 1431T1114 1047Q1114 671 936 326T465 -20Q297 -20 205 116T113 508ZM354 838H885Q920 1032 920 1169Q920 1460 737 1460Q498 1460 354
838ZM866 741H334Q293 541 293 387Q293 240 342 162T471 84Q722 84 866 741Z" />
<glyph unicode="&#x3b9;" glyph-name="iota" horiz-adv-x="684" d="M514 1098L365 397Q340 279 340 221Q340 109 449 109Q521 109 602 150L637 74Q504 -20 358 -20Q152 -20 152 219Q152 296 172 391L322 1098H514Z" />
<glyph unicode="&#x3ba;" glyph-name="kappa" horiz-adv-x="1186" d="M1022 848Q1022 975 936 975Q886 975 819 913T625 672L870 236Q927 134 971 103T1073 72H1096L1075 -14H1055Q910 -14 833 17T676 193L498 514L365 397L281 0H90L260 807Q279 897 279 915Q279
1012 135 1012H119L137 1098H514L430 709Q405 593 375 498L559 750Q731 984 817 1050T1008 1116Q1088 1116 1134 1079T1180 981Q1180 848 1022 848Z" />
<glyph unicode="&#x3bb;" glyph-name="lambda" horiz-adv-x="1096" d="M651 1063Q643 1239 607 1340T479 1442Q388 1442 317 1354Q295 1371 295 1430Q295 1496 341 1536T473 1577Q606 1577 672 1486T756 1200L811 483Q825 294 878 190T1004 86H1014L999 0H952Q817
0 764 60T692 362T672 848H666Q612 707 494 520L158 0H-57L651 1063Z" />
<glyph unicode="&#x3bc;" glyph-name="mu" horiz-adv-x="1237" d="M223 100Q190 -70 190 -147Q190 -296 303 -313Q284 -492 129 -492Q-4 -492 -4 -344Q-4 -253 57 -34Q144 280 182 461L317 1098H510L375 457Q352 348 352 268Q352 111 502 111Q608 111 690 201T803
442L942 1098H1135L971 332Q946 215 946 174Q946 109 1006 109Q1050 109 1118 143L1153 74Q1017 -20 915 -20Q770 -20 762 176H752Q619 -20 455 -20Q286 -20 223 100Z" />
<glyph unicode="&#x3bd;" glyph-name="nu" horiz-adv-x="1133" d="M518 182Q682 323 802 536T922 877Q922 974 842 995Q863 1118 979 1118Q1092 1118 1092 985Q1092 790 897 486T457 0H348Q294 640 254 807T150 975Q114 975 76 954L49 1018Q164 1104 272 1104Q381
1104 424 955T518 182Z" />
<glyph unicode="&#x3be;" glyph-name="xi" horiz-adv-x="963" d="M586 874L588 885Q305 957 305 1110Q305 1257 602 1397Q411 1421 305 1516L375 1589Q500 1491 700 1470Q851 1561 981 1561Q1057 1561 1057 1511Q1057 1378 694 1378Q494 1254 494 1118Q494 989
694 938Q802 993 883 993Q958 993 958 940Q958 834 768 834Q721 834 674 844Q532 793 413 650T293 369Q293 290 350 240T590 145Q721 115 771 69T821 -53Q821 -171 732 -269T479 -410L449 -311Q643 -257 643 -131Q643 -71 593 -44T430 6Q84 75 84 307Q84 478 218
633T586 874Z" />
<glyph unicode="&#x3bf;" glyph-name="omicron" horiz-adv-x="1176" d="M698 1118Q879 1118 983 1009T1087 694Q1087 421 920 201T481 -20Q296 -20 192 92T88 403Q88 679 256 898T698 1118ZM504 80Q673 80 773 280T874 725Q874 1010 674 1010Q507 1010 404 809T301
362Q301 80 504 80Z" />
<glyph unicode="&#x3c0;" glyph-name="pi" horiz-adv-x="1282" d="M1292 928H1073Q1013 754 964 524T915 203Q915 109 999 109Q1040 109 1106 139L1139 76Q1019 -16 909 -16Q748 -16 748 158Q748 265 813 502T956 928H565L414 346Q352 106 284 48T109 -10Q33 -10
-23 25L2 109Q102 109 160 178T270 397L449 928H362Q232 928 186 799H100Q134 966 202 1032T395 1098H1329L1292 928Z" />
<glyph unicode="&#x3c1;" glyph-name="rho" horiz-adv-x="1249" d="M289 76Q284 48 277 2Q270 -45 258 -100L174 -492H-18L215 600Q272 867 403 992T754 1118Q944 1118 1050 1008T1157 692Q1157 372 1004 176T625 -20Q419 -20 289 76ZM319 186Q449 86 612 86Q761
86 861 254T961 692Q961 1010 743 1010Q614 1010 535 916T408 600L319 186Z" />
<glyph unicode="&#x3c2;" glyph-name="sigma1" horiz-adv-x="969" d="M432 -410L401 -311Q596 -258 596 -129Q596 -69 548 -38T385 20Q88 93 88 403Q88 671 261 894T698 1118Q840 1118 918 1062T997 922Q997 860 948 819T815 778Q815 887 773 953T657 1020Q515
1020 408 812T301 412Q301 313 351 257T547 160Q677 124 725 75T774 -51Q774 -171 685 -269T432 -410Z" />
<glyph unicode="&#x3c3;" glyph-name="sigma" horiz-adv-x="1237" d="M1329 1098L1294 928H967Q1090 761 1090 567Q1090 300 940 138T530 -25Q326 -25 207 97T88 430Q88 755 291 926T829 1098H1329ZM850 928H817Q573 928 427 796T281 406Q281 253 354 166T553
78Q719 78 807 225T895 647Q895 818 850 928Z" />
<glyph unicode="&#x3c4;" glyph-name="tau" horiz-adv-x="1012" d="M571 928H389Q222 928 180 754H94Q165 1098 430 1098H1073L1038 928H676Q500 419 500 221Q500 109 608 109Q681 109 762 150L797 74Q669 -20 518 -20Q311 -20 311 174Q311 393 571 928Z" />
<glyph unicode="&#x3c5;" glyph-name="upsilon" horiz-adv-x="1214" d="M375 457Q358 380 358 328Q358 111 567 111Q748 111 865 309T983 766Q983 958 840 979Q859 1120 971 1120Q1044 1120 1086 1048T1128 854Q1128 510 960 245T522 -20Q350 -20 257 66T164 307Q164
375 178 434L258 793Q276 874 276 915Q276 1012 133 1012H117L135 1098H516L375 457Z" />
<glyph unicode="&#x3c6;" glyph-name="phi" horiz-adv-x="1380" d="M745 1116L840 1556H963L868 1116Q1069 1098 1177 978T1286 653Q1286 393 1117 195T625 -23L526 -492H403L504 -20Q307 -2 198 121T88 444Q88 706 259 901T745 1116ZM844 1006L647 80Q856 103
966 271T1077 684Q1077 972 844 1006ZM524 80L721 1006Q516 980 407 813T297 403Q297 119 524 80Z" />
<glyph unicode="&#x3c7;" glyph-name="chi" horiz-adv-x="1081" d="M4 -492H-240L418 379L348 801Q317 985 233 985Q172 985 121 958L96 1024Q206 1104 313 1104Q388 1104 424 1058T477 862L520 512L913 1098H1139L559 295L637 -182Q657 -306 685 -339T748 -373Q802
-373 860 -346L881 -412Q771 -492 668 -492Q596 -492 561 -441T508 -244L457 160L4 -492Z" />
<glyph unicode="&#x3c8;" glyph-name="psi" horiz-adv-x="1450" d="M117 1012L135 1098H510L369 426Q358 374 358 330Q358 128 602 111L911 1556H1034L727 117Q948 148 1074 324T1200 756Q1200 925 1087 987Q1114 1110 1210 1110Q1343 1110 1343 881Q1343 532
1173 274T698 -16L598 -492H475L575 -18Q378 -11 271 75T164 307Q164 369 178 434L254 797Q276 902 276 915Q276 1012 133 1012H117Z" />
<glyph unicode="&#x3c9;" glyph-name="omega" horiz-adv-x="1565" d="M737 190H729Q617 -20 401 -20Q260 -20 174 81T88 358Q88 584 196 781T504 1118L575 1051Q287 710 287 350Q287 225 329 158T440 90Q615 90 702 340Q692 413 692 498Q692 624 732 695T834 766Q907
766 907 666Q907 528 797 328Q809 217 858 154T983 90Q1140 90 1213 297T1286 709Q1286 893 1227 1051L1327 1118Q1477 929 1477 643Q1477 380 1354 180T991 -20Q785 -20 737 190Z" />
<glyph unicode="&#x3ca;" glyph-name="iotadieresis" horiz-adv-x="684" d="M514 1098L365 397Q340 279 340 221Q340 109 449 109Q521 109 602 150L637 74Q504 -20 358 -20Q152 -20 152 219Q152 296 172 391L322 1098H514ZM306 1294Q204 1294 204 1397Q204 1526
314 1526Q417 1526 417 1423Q417 1294 306 1294ZM695 1294Q593 1294 593 1397Q593 1526 703 1526Q806 1526 806 1423Q806 1294 695 1294Z" />
<glyph unicode="&#x3cb;" glyph-name="upsilondieresis" horiz-adv-x="1214" d="M375 457Q358 380 358 328Q358 111 567 111Q748 111 865 309T983 766Q983 958 840 979Q859 1120 971 1120Q1044 1120 1086 1048T1128 854Q1128 510 960 245T522 -20Q350 -20 257
66T164 307Q164 375 178 434L258 793Q276 874 276 915Q276 1012 133 1012H117L135 1098H516L375 457ZM594 1294Q492 1294 492 1397Q492 1526 602 1526Q705 1526 705 1423Q705 1294 594 1294ZM983 1294Q881 1294 881 1397Q881 1526 991 1526Q1094 1526 1094 1423Q1094
1294 983 1294Z" />
<glyph unicode="&#x3cc;" glyph-name="omicrontonos" horiz-adv-x="1176" d="M698 1118Q879 1118 983 1009T1087 694Q1087 421 920 201T481 -20Q296 -20 192 92T88 403Q88 679 256 898T698 1118ZM504 80Q673 80 773 280T874 725Q874 1010 674 1010Q507 1010 404
809T301 362Q301 80 504 80ZM688 1268Q788 1435 831 1569H1016L1012 1548Q1009 1530 930 1432T752 1241H684L688 1268Z" />
<glyph unicode="&#x3cd;" glyph-name="upsilontonos" horiz-adv-x="1214" d="M375 457Q358 380 358 328Q358 111 567 111Q748 111 865 309T983 766Q983 958 840 979Q859 1120 971 1120Q1044 1120 1086 1048T1128 854Q1128 510 960 245T522 -20Q350 -20 257 66T164
307Q164 375 178 434L258 793Q276 874 276 915Q276 1012 133 1012H117L135 1098H516L375 457ZM678 1268Q778 1435 821 1569H1006L1002 1548Q999 1530 920 1432T742 1241H674L678 1268Z" />
<glyph unicode="&#x3ce;" glyph-name="omegatonos" horiz-adv-x="1565" d="M737 190H729Q617 -20 401 -20Q260 -20 174 81T88 358Q88 584 196 781T504 1118L575 1051Q287 710 287 350Q287 225 329 158T440 90Q615 90 702 340Q692 413 692 498Q692 624 732 695T834
766Q907 766 907 666Q907 528 797 328Q809 217 858 154T983 90Q1140 90 1213 297T1286 709Q1286 893 1227 1051L1327 1118Q1477 929 1477 643Q1477 380 1354 180T991 -20Q785 -20 737 190ZM844 1268Q944 1435 987 1569H1172L1168 1548Q1165 1530 1086 1432T908
1241H840L844 1268Z" />
<glyph unicode="&#x3d1;" glyph-name="theta1" horiz-adv-x="1237" d="M969 965Q971 994 972 1021T973 1073Q973 1171 958 1243T915 1362T852 1433T774 1456Q729 1456 694 1441T636 1397T600 1330T588 1243Q588 1188 607 1138T670 1050T787 989T969 965ZM1153
874Q1136 750 1107 636T1034 422T935 241T807 101T651 12T465 -20Q370 -20 304 3T197 66T138 156T119 264Q119 297 126 338T145 421T169 506T193 583T211 645T219 684Q219 715 201 732T139 750H74L92 836H229Q281 836 316 827T374 802T405 762T414 711Q414 675
398 618T363 497T327 369T311 258Q311 220 321 189T354 135T410 99T492 86Q664 86 782 284T956 874Q803 877 699 909T530 992T437 1107T408 1237Q408 1312 433 1373T506 1476T621 1542T774 1565Q881 1565 956 1531T1078 1433T1147 1276T1169 1065Q1169 1042 1167
1014T1163 961H1307L1290 874H1153Z" />
<glyph unicode="&#x3d2;" glyph-name="Upsilon1" horiz-adv-x="1311" d="M672 225Q669 213 667 195T664 168Q664 142 675 126T705 101T752 89T811 86H858L840 0H203L221 86H268Q302 86 333 90T390 108T435 150T465 223L504 403Q510 431 512 461T514 524Q515 583
507 646T486 772T456 894T422 1005T389 1100T362 1171Q347 1210 329 1247T288 1313T235 1360T168 1378H160L178 1462H283Q353 1462 400 1449T482 1404T542 1322T592 1194Q614 1126 632 1057T663 923T686 797T702 686Q736 753 773 823T849 961T925 1090T995 1202Q1051
1286 1099 1339T1191 1422T1277 1463T1364 1475Q1423 1475 1461 1447T1499 1356Q1499 1323 1489 1297T1462 1251T1423 1222T1378 1210Q1372 1252 1353 1281T1292 1311Q1267 1311 1241 1301T1185 1263T1116 1186T1028 1057Q1006 1023 977 977T917 877T855 765T796
649T748 537T717 436L672 225Z" />
<glyph unicode="&#x3d6;" glyph-name="omega1" horiz-adv-x="1903" d="M1118 -20Q1065 -20 1024 -4T953 40T905 106T881 190H872Q848 145 814 107T738 40T646 -4T539 -20Q467 -20 410 1T314 63T253 164T231 305Q231 386 253 470T312 634T400 789T508 928H373Q328
928 295 915T238 877T201 822T178 754H92Q112 847 144 912T220 1018T316 1079T428 1098H1692Q1737 1098 1770 1111T1827 1149T1865 1204T1888 1272H1974Q1954 1179 1921 1114T1845 1007T1748 947T1636 928H1556Q1567 904 1578 873T1599 806T1614 730T1620 647Q1620
560 1608 477T1569 320T1501 183T1405 76T1278 5T1118 -20ZM649 928Q610 869 571 795T502 637T452 468T432 299Q432 243 444 204T478 139T529 102T594 90Q643 90 682 107T753 154T808 226T850 319Q847 341 845 369T842 432Q842 502 852 551T881 631T924 677T977
692Q1009 692 1029 672T1049 604Q1049 563 1037 520T1008 436T973 364T942 315Q942 271 950 231T978 159T1029 109T1106 90Q1171 90 1221 121T1307 204T1367 318T1405 445T1426 566T1432 662Q1432 709 1430 747T1425 816T1417 875T1407 928H649Z" />
<glyph unicode="&#x401;" glyph-name="afii10023" horiz-adv-x="1276" d="M379 102H774Q947 102 1006 270L1038 358H1145L1055 0H-43L-27 86H0Q104 86 144 122T199 223L412 1229Q418 1257 418 1278Q418 1326 390 1351T274 1376H248L266 1462H1298L1233 1104H1126L1132
1167Q1137 1215 1137 1223Q1137 1360 991 1360H647L530 815H1024L1004 715H510L379 102ZM643 1632Q541 1632 541 1735Q541 1864 651 1864Q754 1864 754 1761Q754 1632 643 1632ZM1032 1632Q930 1632 930 1735Q930 1864 1040 1864Q1143 1864 1143 1761Q1143 1632
1032 1632Z" />
<glyph unicode="&#x402;" glyph-name="afii10051" horiz-adv-x="1565" d="M745 836Q925 897 1069 897Q1458 897 1458 571Q1458 377 1377 184T1020 -10Q914 -10 858 12L885 104Q940 86 999 86Q1104 86 1152 153T1224 354T1249 565Q1249 774 1020 774Q876 774 723
723L616 225Q608 188 608 168Q608 86 756 86H782L764 0H147L166 86H213Q316 86 356 121T410 223L651 1360H496Q350 1360 291 1192L262 1104H156L242 1462H1313L1247 1104H1141Q1151 1184 1151 1229Q1151 1360 1016 1360H858L745 836Z" />
<glyph unicode="&#x403;" glyph-name="afii10052" horiz-adv-x="1149" d="M594 0H-41L-23 86H2Q170 86 201 233L412 1229Q422 1276 422 1294Q422 1376 274 1376H248L266 1462H1284L1221 1104H1114Q1124 1192 1124 1223Q1124 1302 1083 1331T956 1360H647L406 225Q397
183 397 168Q397 86 545 86H612L594 0ZM717 1606Q834 1741 936 1907H1155L1149 1886Q992 1703 793 1579H711L717 1606Z" />
<glyph unicode="&#x404;" glyph-name="afii10053" horiz-adv-x="1257" d="M1073 299Q1100 280 1100 231Q1100 133 986 57T672 -20Q405 -20 256 123T106 528Q106 916 348 1199T950 1483Q1129 1483 1229 1422T1329 1255Q1329 1182 1274 1139T1128 1096Q1128 1374
924 1374Q738 1374 590 1218T369 788H940L920 688H346Q330 590 330 496Q330 113 694 113Q931 113 1073 299Z" />
<glyph unicode="&#x405;" glyph-name="afii10054" horiz-adv-x="1114" d="M172 428Q172 271 255 176T483 80Q626 80 710 151T795 344Q795 441 747 508T537 666Q373 761 310 861T246 1087Q246 1264 380 1373T743 1483Q921 1483 1027 1421T1133 1262Q1133 1120 952
1120Q952 1240 895 1310T727 1380Q605 1380 527 1310T449 1122Q449 1035 490 972T702 809Q863 715 934 622T1006 410Q1006 207 864 94T469 -20Q260 -20 137 62T14 272Q14 343 58 385T172 428Z" />
<glyph unicode="&#x406;" glyph-name="afii10055" horiz-adv-x="752" d="M862 1462L844 1376H817Q719 1376 676 1339T618 1229L406 225Q397 182 397 168Q397 86 545 86H571L553 0H-43L-27 86H0Q170 86 201 233L414 1237Q422 1275 422 1294Q422 1376 274 1376H248L266
1462H862Z" />
<glyph unicode="&#x407;" glyph-name="afii10056" horiz-adv-x="752" d="M862 1462L844 1376H817Q719 1376 676 1339T618 1229L406 225Q397 182 397 168Q397 86 545 86H571L553 0H-43L-27 86H0Q170 86 201 233L414 1237Q422 1275 422 1294Q422 1376 274 1376H248L266
1462H862ZM404 1632Q302 1632 302 1735Q302 1864 412 1864Q515 1864 515 1761Q515 1632 404 1632ZM793 1632Q691 1632 691 1735Q691 1864 801 1864Q904 1864 904 1761Q904 1632 793 1632Z" />
<glyph unicode="&#x408;" glyph-name="afii10057" horiz-adv-x="731" d="M852 1462L834 1376H807Q709 1376 666 1339T608 1229L342 -16Q288 -267 171 -379T-150 -492Q-241 -492 -317 -469L-289 -377Q-238 -395 -156 -395Q-37 -395 29 -306T137 -18L403 1237Q412
1279 412 1294Q412 1376 264 1376H238L256 1462H852Z" />
<glyph unicode="&#x409;" glyph-name="afii10058" horiz-adv-x="1821" d="M791 1360Q734 1138 629 812T422 289T242 40T66 -14Q-10 -14 -53 24T-96 123Q-96 185 -62 219T25 254Q25 158 102 158Q287 158 474 704T662 1321Q662 1376 512 1376H481L500 1462H1487L1468
1376H1442Q1344 1376 1301 1339T1243 1229L1153 809H1208Q1712 809 1712 467Q1712 242 1561 121T1122 0H582L598 86H625Q722 86 766 122T825 233L1065 1360H791ZM1004 102H1100Q1491 102 1491 451Q1491 590 1420 651T1202 713H1133L1004 102Z" />
<glyph unicode="&#x40a;" glyph-name="afii10059" horiz-adv-x="1987" d="M1653 1462L1634 1376H1608Q1510 1376 1467 1339T1409 1229L1319 809H1374Q1878 809 1878 467Q1878 242 1727 121T1288 0H748L764 86H791Q888 86 932 122T991 233L1092 713H508L406 225Q397
182 397 168Q397 86 545 86H571L553 0H-43L-27 86H0Q99 86 142 123T201 233L414 1237Q422 1275 422 1294Q422 1376 274 1376H248L266 1462H862L844 1376H817Q719 1376 676 1339T618 1229L530 815H1114L1204 1237Q1212 1275 1212 1294Q1212 1376 1065 1376H1038L1057
1462H1653ZM1169 102H1266Q1657 102 1657 451Q1657 590 1587 651T1368 713H1298L1169 102Z" />
<glyph unicode="&#x40b;" glyph-name="afii10060" horiz-adv-x="1702" d="M1567 86L1548 0H952L969 86H995Q1165 86 1196 233L1223 362Q1249 486 1249 580Q1249 774 1020 774Q876 774 723 723L616 225Q608 188 608 168Q608 86 756 86H782L764 0H147L166 86H213Q316
86 356 121T410 223L651 1360H496Q350 1360 291 1192L262 1104H156L242 1462H1313L1247 1104H1141Q1151 1184 1151 1229Q1151 1360 1016 1360H858L745 836Q925 897 1069 897Q1460 897 1460 594Q1460 499 1432 373L1401 225Q1393 187 1393 168Q1393 86 1540 86H1567Z"
/>
<glyph unicode="&#x40c;" glyph-name="afii10061" horiz-adv-x="1434" d="M-43 0L-27 86H0Q98 86 141 123T201 233L414 1237Q422 1275 422 1294Q422 1376 274 1376H248L266 1462H862L844 1376H817Q719 1376 676 1339T618 1229L524 782Q664 782 726 832T932 1141Q1031
1318 1123 1396T1354 1475Q1520 1475 1520 1352Q1520 1218 1391 1208Q1391 1323 1290 1323Q1149 1323 1018 1081Q869 814 795 774Q914 767 969 596L1087 250Q1143 86 1294 86H1300L1282 0H1253Q1076 0 1001 30T885 193L774 549Q749 628 711 658T504 688L406 225Q397
182 397 168Q397 86 545 86H571L553 0H-43ZM875 1606Q992 1741 1094 1907H1313L1307 1886Q1150 1703 951 1579H869L875 1606Z" />
<glyph unicode="&#x40e;" glyph-name="afii10062" horiz-adv-x="1372" d="M1571 1462L1552 1376H1513Q1456 1376 1423 1349T1325 1217L801 375Q636 109 550 50T236 -10H86L106 86H219Q440 86 578 309L319 1268Q302 1331 279 1353T197 1376H170L188 1462H756L739
1376H684Q545 1376 545 1276Q545 1230 561 1163L676 715Q719 548 733 438Q788 558 881 709L1178 1188Q1217 1251 1217 1303Q1217 1376 1102 1376H1055L1071 1462H1571ZM642 1839L824 1886Q810 1842 810 1796Q810 1688 937 1688Q1169 1688 1328 1940L1404 1892Q1210
1579 906 1579Q631 1579 631 1770Q631 1807 642 1839Z" />
<glyph unicode="&#x40f;" glyph-name="afii10145" horiz-adv-x="1563" d="M1219 225Q1210 183 1210 168Q1210 86 1358 86H1384L1366 0H940Q712 0 618 -430H524Q549 -322 549 -238Q549 0 367 0H-39L-20 86H4Q102 86 144 122T201 225L418 1237Q426 1274 426 1294Q426
1376 279 1376H252L270 1462H866L848 1376H821Q726 1376 682 1340T621 1229L383 102H987L1229 1237Q1237 1275 1237 1294Q1237 1376 1090 1376H1063L1081 1462H1677L1659 1376H1632Q1536 1376 1494 1343T1436 1239L1219 225Z" />
<glyph unicode="&#x410;" glyph-name="afii10017" horiz-adv-x="1444" d="M408 489L285 274Q246 206 246 160Q246 86 360 86H408L391 0H-115L-98 86H-59Q-4 86 33 114T131 246L844 1462H1004L1198 195Q1208 131 1233 109T1319 86H1346L1329 0H772L788 86H836Q983
86 983 190Q983 232 979 260L946 489H408ZM881 950Q850 1168 848 1274Q801 1163 688 969L469 592H932L881 950Z" />
<glyph unicode="&#x411;" glyph-name="afii10018" horiz-adv-x="1237" d="M1225 1462L1159 1104H1053Q1063 1184 1063 1229Q1063 1360 928 1360H647L528 809H645Q1149 809 1149 467Q1149 242 998 121T559 0H-43L-27 86H0Q170 86 201 233L414 1237Q422 1275 422
1294Q422 1376 274 1376H248L266 1462H1225ZM379 102H537Q928 102 928 451Q928 590 858 651T639 713H508L379 102Z" />
<glyph unicode="&#x412;" glyph-name="afii10019" horiz-adv-x="1339" d="M-27 86H0Q170 86 201 233L414 1237Q422 1275 422 1294Q422 1376 274 1376H248L266 1462H797Q1276 1462 1276 1155Q1276 852 942 774L940 766Q1190 716 1190 467Q1190 242 1039 121T600
0H-43L-27 86ZM530 817H688Q1053 817 1053 1128Q1053 1360 770 1360H647L530 817ZM379 102H578Q969 102 969 481Q969 715 682 715H510L379 102Z" />
<glyph unicode="&#x413;" glyph-name="afii10020" horiz-adv-x="1149" d="M594 0H-41L-23 86H2Q170 86 201 233L412 1229Q422 1276 422 1294Q422 1376 274 1376H248L266 1462H1284L1221 1104H1114Q1124 1192 1124 1223Q1124 1302 1083 1331T956 1360H647L406 225Q397
183 397 168Q397 86 545 86H612L594 0Z" />
<glyph unicode="&#x414;" glyph-name="afii10021" horiz-adv-x="1397" d="M51 102Q389 560 539 894T690 1317Q690 1345 663 1360T526 1376H520L539 1462H1481L1462 1376H1436Q1353 1376 1316 1342T1264 1239L1053 250Q1047 222 1047 199Q1047 102 1190 102H1231L1116
-430H1022Q1044 -328 1044 -254Q1044 0 811 0H301Q-1 0 -92 -430H-186L-72 102H51ZM823 1360Q710 851 193 102H817L1083 1360H823Z" />
<glyph unicode="&#x415;" glyph-name="afii10022" horiz-adv-x="1276" d="M379 102H774Q947 102 1006 270L1038 358H1145L1055 0H-43L-27 86H0Q104 86 144 122T199 223L412 1229Q418 1257 418 1278Q418 1326 390 1351T274 1376H248L266 1462H1298L1233 1104H1126L1132
1167Q1137 1215 1137 1223Q1137 1360 991 1360H647L530 815H1024L1004 715H510L379 102Z" />
<glyph unicode="&#x416;" glyph-name="afii10024" horiz-adv-x="2005" d="M573 0L590 86H616Q713 86 756 122T817 233L913 688Q748 688 682 664T565 549L360 193Q292 75 225 38T-45 0H-111L-92 86H-86Q76 86 176 250L379 596Q480 768 723 776Q642 844 567 1081Q514
1250 480 1286T401 1323Q309 1323 264 1208Q190 1238 190 1327Q190 1475 373 1475Q487 1475 545 1405T659 1141Q728 910 786 846T934 782L1030 1237Q1038 1275 1038 1294Q1038 1376 891 1376H864L883 1462H1462L1444 1376H1417Q1320 1376 1277 1340T1219 1229L1124
782Q1281 782 1354 838T1548 1141Q1635 1319 1726 1397T1948 1475Q2105 1475 2105 1356Q2105 1218 1976 1208Q1976 1323 1880 1323Q1809 1323 1758 1272T1636 1081Q1505 822 1409 774Q1506 740 1554 596L1673 250Q1729 86 1880 86H1886L1868 0H1839Q1672 0 1590
35T1470 193L1360 549Q1332 639 1284 663T1104 688L1006 225Q997 182 997 168Q997 86 1145 86H1171L1153 0H573Z" />
<glyph unicode="&#x417;" glyph-name="afii10025" horiz-adv-x="1235" d="M182 393Q182 274 269 182T502 90Q842 90 842 440Q842 561 761 629T530 698H371L393 803H567Q738 803 851 899T965 1149Q965 1258 901 1319T721 1380Q493 1380 430 1075Q272 1075 272 1204Q272
1325 399 1404T723 1483Q924 1483 1051 1396T1178 1161Q1178 995 1063 885T758 752Q899 733 985 650T1071 442Q1071 219 917 98T479 -23Q263 -23 145 48T27 244Q27 314 71 353T182 393Z" />
<glyph unicode="&#x418;" glyph-name="afii10026" horiz-adv-x="1645" d="M1737 1376H1710Q1612 1376 1569 1339T1511 1229L1298 225Q1290 187 1290 168Q1290 86 1438 86H1464L1446 0H850L866 86H893Q1063 86 1094 233L1257 1018L416 279L406 225Q397 176 397
168Q397 86 545 86H571L553 0H-43L-27 86H0Q99 86 142 123T201 233L414 1237Q422 1275 422 1294Q422 1376 274 1376H248L266 1462H862L844 1376H817Q719 1376 676 1339T618 1229L455 446L1294 1182L1307 1237Q1315 1271 1315 1294Q1315 1376 1167 1376H1141L1159
1462H1755L1737 1376Z" />
<glyph unicode="&#x419;" glyph-name="afii10027" horiz-adv-x="1645" d="M1737 1376H1710Q1612 1376 1569 1339T1511 1229L1298 225Q1290 187 1290 168Q1290 86 1438 86H1464L1446 0H850L866 86H893Q1063 86 1094 233L1257 1018L416 279L406 225Q397 176 397
168Q397 86 545 86H571L553 0H-43L-27 86H0Q99 86 142 123T201 233L414 1237Q422 1275 422 1294Q422 1376 274 1376H248L266 1462H862L844 1376H817Q719 1376 676 1339T618 1229L455 446L1294 1182L1307 1237Q1315 1271 1315 1294Q1315 1376 1167 1376H1141L1159
1462H1755L1737 1376ZM744 1839L926 1886Q912 1842 912 1796Q912 1688 1039 1688Q1271 1688 1430 1940L1506 1892Q1312 1579 1008 1579Q733 1579 733 1770Q733 1807 744 1839Z" />
<glyph unicode="&#x41a;" glyph-name="afii10028" horiz-adv-x="1434" d="M-43 0L-27 86H0Q98 86 141 123T201 233L414 1237Q422 1275 422 1294Q422 1376 274 1376H248L266 1462H862L844 1376H817Q719 1376 676 1339T618 1229L524 782Q664 782 726 832T932 1141Q1031
1318 1123 1396T1354 1475Q1520 1475 1520 1352Q1520 1218 1391 1208Q1391 1323 1290 1323Q1149 1323 1018 1081Q869 814 795 774Q914 767 969 596L1087 250Q1143 86 1294 86H1300L1282 0H1253Q1076 0 1001 30T885 193L774 549Q749 628 711 658T504 688L406 225Q397
182 397 168Q397 86 545 86H571L553 0H-43Z" />
<glyph unicode="&#x41b;" glyph-name="afii10029" horiz-adv-x="1438" d="M25 254Q25 158 102 158Q287 158 474 704T662 1321Q662 1376 512 1376H481L500 1462H1548L1530 1376H1503Q1406 1376 1363 1340T1305 1229L1092 225Q1083 183 1083 168Q1083 86 1231 86H1257L1239
0H643L659 86H686Q856 86 887 233L1124 1360H791Q733 1137 628 810T421 289T241 41T66 -14Q-10 -14 -53 24T-96 123Q-96 185 -62 219T25 254Z" />
<glyph unicode="&#x41c;" glyph-name="afii10030" horiz-adv-x="1921" d="M1178 0L1196 86H1202Q1289 86 1324 118T1376 215L1610 1309L862 0H752L553 1309L324 225Q315 182 315 168Q315 86 463 86H489L471 0H-41L-23 86H4Q106 86 145 122T199 223L414 1237Q422
1275 422 1294Q422 1376 274 1376H248L266 1462H731L905 295L1575 1462H2032L2013 1376H1987Q1889 1376 1846 1339T1788 1229L1575 225Q1567 187 1567 168Q1567 86 1714 86H1741L1722 0H1178Z" />
<glyph unicode="&#x41d;" glyph-name="afii10031" horiz-adv-x="1624" d="M829 0L846 86H872Q970 86 1014 122T1073 233L1174 713H508L406 225Q397 182 397 168Q397 86 545 86H571L553 0H-43L-27 86H0Q99 86 142 123T201 233L414 1237Q422 1275 422 1294Q422 1376
274 1376H248L266 1462H862L844 1376H817Q719 1376 676 1339T618 1229L530 815H1196L1286 1237Q1294 1275 1294 1294Q1294 1376 1147 1376H1120L1139 1462H1735L1716 1376H1690Q1592 1376 1549 1339T1491 1229L1278 225Q1270 187 1270 168Q1270 86 1417 86H1444L1425
0H829Z" />
<glyph unicode="&#x41e;" glyph-name="afii10032" horiz-adv-x="1520" d="M926 1485Q1164 1485 1310 1337T1456 922Q1456 571 1228 274T643 -23Q400 -23 253 130T106 545Q106 897 336 1191T926 1485ZM655 90Q910 90 1070 372T1231 977Q1231 1168 1147 1271T909
1374Q653 1374 492 1091T330 487Q330 295 417 193T655 90Z" />
<glyph unicode="&#x41f;" glyph-name="afii10033" horiz-adv-x="1563" d="M768 0L786 86H813Q910 86 952 123T1012 233L1251 1360H647L406 225Q397 183 397 168Q397 86 545 86H571L553 0H-43L-27 86H0Q99 86 142 123T201 233L414 1237Q422 1275 422 1294Q422 1376
274 1376H248L266 1462H1673L1655 1376H1628Q1531 1376 1489 1340T1430 1229L1217 225Q1208 183 1208 168Q1208 86 1356 86H1382L1364 0H768Z" />
<glyph unicode="&#x420;" glyph-name="afii10034" horiz-adv-x="1270" d="M-41 0L-23 86H4Q100 86 143 123T201 233L414 1237Q422 1275 422 1294Q422 1376 274 1376H248L266 1462H791Q1013 1462 1135 1359T1257 1067Q1257 834 1101 702T631 569H479L406 225Q397
183 397 168Q397 86 545 86H612L594 0H-41ZM500 666H608Q1040 666 1040 1065Q1040 1364 741 1364H647L500 666Z" />
<glyph unicode="&#x421;" glyph-name="afii10035" horiz-adv-x="1284" d="M1073 299Q1100 280 1100 231Q1100 133 986 57T672 -20Q405 -20 256 123T106 528Q106 916 348 1199T950 1483Q1129 1483 1229 1422T1329 1255Q1329 1182 1274 1139T1128 1096Q1128 1374
924 1374Q671 1374 501 1099T330 496Q330 113 694 113Q931 113 1073 299Z" />
<glyph unicode="&#x422;" glyph-name="afii10036" horiz-adv-x="1255" d="M657 225Q649 187 649 168Q649 86 797 86H844L825 0H188L207 86H254Q357 86 397 121T451 223L692 1360H496Q350 1360 291 1192L262 1104H156L242 1462H1395L1329 1104H1223Q1233 1184 1233
1229Q1233 1360 1098 1360H899L657 225Z" />
<glyph unicode="&#x423;" glyph-name="afii10037" horiz-adv-x="1372" d="M1571 1462L1552 1376H1513Q1456 1376 1423 1349T1325 1217L801 375Q636 109 550 50T236 -10H86L106 86H219Q440 86 578 309L319 1268Q302 1331 279 1353T197 1376H170L188 1462H756L739
1376H684Q545 1376 545 1276Q545 1230 561 1163L676 715Q719 548 733 438Q788 558 881 709L1178 1188Q1217 1251 1217 1303Q1217 1376 1102 1376H1055L1071 1462H1571Z" />
<glyph unicode="&#x424;" glyph-name="afii10038" horiz-adv-x="1567" d="M809 1237Q817 1276 817 1294Q817 1376 666 1376H639L657 1462H1249L1231 1376H1208Q1106 1376 1064 1340T1006 1229L997 1188H1061Q1284 1188 1408 1085T1532 793Q1532 561 1372 428T901
295H807L793 225Q784 180 784 168Q784 86 936 86H958L940 0H350L369 86H395Q565 86 596 233L608 295H541Q318 295 196 398T74 690Q74 923 230 1055T700 1188H799L809 1237ZM778 1092H723Q291 1092 291 692Q291 393 590 393H631L778 1092ZM827 391H879Q1315 391
1315 791Q1315 1090 1012 1090H975L827 391Z" />
<glyph unicode="&#x425;" glyph-name="afii10039" horiz-adv-x="1352" d="M1458 1376H1440Q1384 1376 1340 1346T1208 1223L821 795L1067 195Q1112 86 1208 86H1235L1217 0H664L682 86H705Q766 86 801 106T836 158Q836 200 797 299L664 625L358 285Q276 194 276
141Q276 86 397 86H403L385 0H-100L-82 86H-74Q-7 86 45 121T168 233L621 727L401 1272Q359 1376 242 1376H215L233 1462H788L770 1376H723Q627 1376 627 1319Q627 1290 664 1196L780 897L1036 1192Q1114 1282 1114 1325Q1114 1376 1016 1376H1010L1028 1462H1477L1458
1376Z" />
<glyph unicode="&#x426;" glyph-name="afii10040" horiz-adv-x="1563" d="M-20 86H4Q102 86 144 122T201 225L418 1237Q426 1274 426 1294Q426 1376 279 1376H252L270 1462H866L848 1376H821Q726 1376 682 1340T621 1229L383 102H987L1229 1237Q1237 1275 1237
1294Q1237 1376 1090 1376H1063L1081 1462H1677L1659 1376H1632Q1536 1376 1494 1343T1436 1239L1219 225Q1210 183 1210 168Q1210 91 1333 86H1405L1294 -430H1200Q1222 -330 1222 -255Q1222 0 977 0H-39L-20 86Z" />
<glyph unicode="&#x427;" glyph-name="afii10041" horiz-adv-x="1548" d="M719 0L735 86H762Q932 86 963 233L1047 625Q793 537 659 537Q268 537 268 840Q268 900 307 1075L342 1235Q350 1272 350 1292Q350 1374 203 1374H176L195 1460H791L774 1374H748Q650 1374
606 1337T547 1227L516 1085Q479 916 479 854Q479 659 709 659Q832 659 1069 737L1176 1237Q1184 1274 1184 1294Q1184 1376 1036 1376H1010L1028 1462H1624L1606 1376H1579Q1481 1376 1438 1339T1380 1229L1167 225Q1159 187 1159 168Q1159 86 1307 86H1333L1315
0H719Z" />
<glyph unicode="&#x428;" glyph-name="afii10042" horiz-adv-x="2210" d="M-41 0L-23 86H2Q100 86 142 122T199 225L416 1237Q424 1274 424 1294Q424 1376 276 1376H250L268 1462H864L846 1376H819Q649 1376 618 1229L381 102H903L1145 1237Q1153 1275 1153 1294Q1153
1376 1006 1376H979L997 1462H1593L1575 1376H1548Q1452 1376 1410 1343T1352 1239L1108 102H1632L1874 1237Q1882 1275 1882 1294Q1882 1376 1735 1376H1708L1726 1462H2322L2304 1376H2277Q2181 1376 2139 1343T2081 1239L1864 225Q1855 183 1855 168Q1855 86
2003 86H2030L2011 0H-41Z" />
<glyph unicode="&#x429;" glyph-name="afii10043" horiz-adv-x="2210" d="M2050 86L1939 -430H1845Q1866 -331 1866 -257Q1866 -6 1636 0H-41L-23 86H2Q100 86 142 122T199 225L416 1237Q424 1274 424 1294Q424 1376 276 1376H250L268 1462H864L846 1376H819Q649
1376 618 1229L381 102H903L1145 1237Q1153 1275 1153 1294Q1153 1376 1006 1376H979L997 1462H1593L1575 1376H1548Q1452 1376 1410 1343T1352 1239L1108 102H1632L1874 1237Q1882 1275 1882 1294Q1882 1376 1735 1376H1708L1726 1462H2322L2304 1376H2277Q2181
1376 2139 1343T2081 1239L1864 225Q1855 183 1855 168Q1855 91 1978 86H2050Z" />
<glyph unicode="&#x42a;" glyph-name="afii10044" horiz-adv-x="1446" d="M168 0L184 86H211Q381 86 412 233L651 1360H496Q350 1360 291 1192L262 1104H156L242 1462H1114L1096 1376H1028Q931 1376 889 1342T831 1239L739 809H856Q1360 809 1360 467Q1360 244
1209 122T770 0H168ZM590 102H748Q1139 102 1139 451Q1139 713 850 713H719L590 102Z" />
<glyph unicode="&#x42b;" glyph-name="afii10045" horiz-adv-x="1858" d="M-27 86H33Q78 86 130 116T201 233L414 1237Q422 1275 422 1294Q422 1376 274 1376H248L266 1462H862L844 1376H817Q717 1376 675 1336T614 1217L528 809H584Q1087 809 1087 467Q1087 244
936 122T498 0H-43L-27 86ZM379 102H475Q866 102 866 451Q866 589 796 651T578 713H508L379 102ZM1968 1462L1950 1376H1923Q1825 1376 1782 1339T1724 1229L1511 225Q1503 187 1503 168Q1503 86 1651 86H1677L1659 0H1063L1079 86H1106Q1276 86 1307 233L1520
1237Q1528 1275 1528 1294Q1528 1376 1380 1376H1354L1372 1462H1968Z" />
<glyph unicode="&#x42c;" glyph-name="afii10046" horiz-adv-x="1255" d="M-27 86H33Q78 86 130 116T201 233L414 1237Q422 1275 422 1294Q422 1376 274 1376H248L266 1462H862L844 1376H817Q717 1376 675 1336T614 1217L528 809H666Q1169 809 1169 467Q1169 244
1018 122T580 0H-43L-27 86ZM379 102H557Q948 102 948 451Q948 590 878 651T659 713H508L379 102Z" />
<glyph unicode="&#x42d;" glyph-name="afii10047" horiz-adv-x="1292" d="M965 688H395L416 788H981Q1004 912 1004 1001Q1004 1184 931 1282T721 1380Q606 1380 526 1300T416 1083Q350 1083 308 1119T266 1225Q266 1330 397 1406T733 1483Q969 1483 1100 1347T1231
958Q1231 555 1016 268T453 -20Q249 -20 138 50T27 244Q27 314 71 353T182 393Q182 275 261 183T469 90Q834 90 965 688Z" />
<glyph unicode="&#x42e;" glyph-name="afii10048" horiz-adv-x="2144" d="M807 713H508L406 225Q397 182 397 168Q397 86 545 86H571L553 0H-43L-27 86H0Q99 86 142 123T201 233L414 1237Q422 1275 422 1294Q422 1376 274 1376H248L266 1462H862L844 1376H817Q719
1376 676 1339T618 1229L530 815H829Q913 1121 1112 1303T1575 1485Q1802 1485 1941 1337T2081 922Q2081 571 1864 274T1305 -23Q1075 -23 934 130T793 545Q793 638 807 713ZM1319 90Q1556 90 1705 372T1855 977Q1855 1169 1777 1271T1556 1374Q1318 1374 1167
1090T1016 487Q1016 297 1097 194T1319 90Z" />
<glyph unicode="&#x42f;" glyph-name="afii10049" horiz-adv-x="1343" d="M674 631L373 184Q301 77 223 39T-45 0H-74L-61 86H-55Q9 86 59 116T184 250L496 686Q283 791 283 1020Q283 1251 439 1356T948 1462H1454L1436 1376H1409Q1311 1376 1268 1339T1210 1229L997
225Q989 187 989 168Q989 86 1137 86H1163L1145 0H549L565 86H592Q762 86 793 233L877 631H674ZM1032 1364H901Q498 1364 498 1020Q498 727 825 727H897L1032 1364Z" />
<glyph unicode="&#x430;" glyph-name="afii10065" horiz-adv-x="1186" d="M748 309H735Q588 -20 352 -20Q227 -20 158 78T88 354Q88 636 263 877T698 1118Q837 1118 938 1044L1028 1096H1094L954 440Q924 299 924 213Q924 109 991 109Q1049 109 1139 162L1176
102Q1029 -20 887 -20Q727 -20 727 150Q727 215 748 309ZM864 952Q817 1026 709 1026Q534 1026 416 804T297 346Q297 109 426 109Q528 109 640 260T788 590L864 952Z" />
<glyph unicode="&#x431;" glyph-name="afii10066" horiz-adv-x="1188" d="M1155 1569L1245 1573Q1216 1424 1147 1372T745 1284Q520 1258 425 1178T272 838H287Q348 941 459 1002T694 1063Q877 1063 989 947T1102 631Q1102 360 935 170T504 -20Q315 -20 209 124T102
528Q102 940 274 1188T760 1473Q1123 1514 1155 1569ZM530 86Q674 86 781 253T889 668Q889 954 678 954Q534 954 426 791T317 375Q317 86 530 86Z" />
<glyph unicode="&#x432;" glyph-name="afii10067" horiz-adv-x="1057" d="M639 575Q940 505 940 303Q940 163 817 72T498 -20Q304 -20 196 80T88 362Q88 657 259 887T698 1118Q835 1118 923 1052T1012 883Q1012 651 639 575ZM338 627H358Q566 627 683 688T801
864Q801 939 760 979T653 1020Q561 1020 469 902T338 627ZM319 532Q301 444 301 338Q301 92 506 92Q615 92 676 149T737 307Q737 417 648 479T516 541L319 532Z" />
<glyph unicode="&#x433;" glyph-name="afii10068" horiz-adv-x="1020" d="M793 254Q815 234 815 188Q815 90 723 35T451 -20Q271 -20 173 53T74 254Q74 342 116 403T230 505T481 614Q629 670 676 721T723 846Q723 987 559 987Q370 987 276 862Q260 874 260 913Q260
1116 590 1116Q749 1116 842 1051T936 879Q936 687 687 597Q428 503 358 446T287 272Q287 106 487 106Q680 106 793 254Z" />
<glyph unicode="&#x434;" glyph-name="afii10069" horiz-adv-x="1206" d="M911 952Q911 1194 838 1334T627 1475Q516 1475 416 1442L389 1530Q503 1577 655 1577Q876 1577 996 1405T1116 909Q1116 476 953 228T506 -20Q306 -20 197 90T88 403Q88 668 254 859T672
1051Q837 1051 911 952ZM909 778Q836 944 662 944Q509 944 404 788T299 379Q299 80 537 80Q694 80 794 274T909 778Z" />
<glyph unicode="&#x435;" glyph-name="afii10070" horiz-adv-x="1010" d="M821 256Q842 243 842 205Q842 123 746 52T487 -20Q308 -20 198 93T88 403Q88 671 261 894T698 1118Q828 1118 899 1056T971 883Q971 717 799 594T377 471H342Q324 471 305 473Q301 445
301 387Q301 109 526 109Q701 109 821 256ZM324 567H344Q525 567 642 655T760 883Q760 1020 641 1020Q542 1020 456 896T324 567Z" />
<glyph unicode="&#x436;" glyph-name="afii10072" horiz-adv-x="2068" d="M827 0L932 504H782Q720 263 578 119T256 -25Q138 -25 70 27T2 164Q2 227 47 267T166 307Q166 74 295 74Q419 74 520 277T621 707Q621 985 446 985Q302 985 203 838Q186 857 186 889Q186
972 268 1043T487 1114Q640 1114 725 1013T811 731Q811 664 801 600H952L1057 1098H1235L1128 600H1288Q1353 835 1494 976T1812 1118Q1929 1118 1997 1067T2066 930Q2066 867 2022 827T1903 786Q1903 1020 1774 1020Q1650 1020 1549 817T1448 387Q1448 109 1622
109Q1768 109 1866 256Q1882 238 1882 205Q1882 121 1800 51T1581 -20Q1429 -20 1343 80T1257 362Q1257 424 1270 504H1108L999 0H827Z" />
<glyph unicode="&#x437;" glyph-name="afii10073" horiz-adv-x="975" d="M172 334Q172 216 236 147T403 78Q510 78 579 150T649 336Q649 417 593 468T446 520H256L279 631H471Q590 631 657 689T725 852Q725 929 680 975T549 1022Q354 1022 305 801Q164 801 164
891Q164 988 267 1052T565 1116Q733 1116 829 1047T926 864Q926 662 645 580L643 569Q848 512 848 340Q848 169 724 75T375 -20Q201 -20 103 41T4 199Q4 257 45 295T172 334Z" />
<glyph unicode="&#x438;" glyph-name="afii10074" horiz-adv-x="1227" d="M135 1098H516L381 485Q340 299 340 238Q340 113 440 113Q545 113 666 264T825 588L932 1098H1130L989 440Q958 295 958 213Q958 109 1026 109Q1084 109 1157 154L1194 94Q1064 -20 934
-20Q857 -20 810 35T762 174Q762 227 772 295H756Q645 112 558 47T360 -18Q141 -18 141 209Q141 274 178 434L258 793Q276 874 276 915Q276 1012 133 1012H117L135 1098Z" />
<glyph unicode="&#x439;" glyph-name="afii10075" horiz-adv-x="1227" d="M135 1098H516L381 485Q340 299 340 238Q340 113 440 113Q545 113 666 264T825 588L932 1098H1130L989 440Q958 295 958 213Q958 109 1026 109Q1084 109 1157 154L1194 94Q1064 -20 934
-20Q857 -20 810 35T762 174Q762 227 772 295H756Q645 112 558 47T360 -18Q141 -18 141 209Q141 274 178 434L258 793Q276 874 276 915Q276 1012 133 1012H117L135 1098ZM686 1501L868 1548Q854 1504 854 1458Q854 1350 981 1350Q1213 1350 1372 1602L1448 1554Q1254
1241 950 1241Q675 1241 675 1432Q675 1469 686 1501Z" />
<glyph unicode="&#x43a;" glyph-name="afii10076" horiz-adv-x="1239" d="M88 0L258 793Q276 877 276 915Q276 1012 133 1012H117L135 1098H516L410 602Q495 602 550 652T748 877Q870 1021 934 1065T1087 1110Q1239 1110 1239 987Q1239 874 1128 856Q1128 971
1038 971Q981 971 924 925T752 738Q661 628 606 596Q670 594 728 542T817 416L889 250Q960 86 1098 86H1104L1085 0H1014Q864 0 804 40T698 193L631 365Q595 457 547 482T389 508L285 0H88Z" />
<glyph unicode="&#x43b;" glyph-name="afii10077" horiz-adv-x="1315" d="M119 254Q119 216 141 187T199 158Q271 158 334 273T527 742Q621 1002 696 1056T899 1110Q1033 1110 1214 1077L1073 414Q1047 292 1047 207Q1047 109 1120 109Q1171 109 1245 154L1282
94Q1152 -20 1022 -20Q939 -20 891 34T842 174Q842 254 864 356L999 997Q950 1018 895 1018Q784 1018 733 944T559 530Q458 244 368 115T133 -14Q72 -14 38 26T4 123Q4 180 37 217T119 254Z" />
<glyph unicode="&#x43c;" glyph-name="afii10078" horiz-adv-x="1843" d="M1475 848H1466L881 0H786L662 817Q645 774 621 706Q515 403 452 260T311 52T133 -14Q72 -14 38 26T4 123Q4 180 37 217T119 254Q119 216 141 187T199 158Q256 158 321 251T510 701Q580
904 616 956Q571 1012 455 1012H428L444 1098H815L936 268L1516 1098H1880L1864 1012H1858Q1764 1012 1729 977T1679 874L1581 414Q1554 287 1554 207Q1554 109 1628 109Q1679 109 1753 154L1790 94Q1660 -20 1530 -20Q1447 -20 1399 34T1350 174Q1350 254 1372
356L1475 848Z" />
<glyph unicode="&#x43d;" glyph-name="afii10079" horiz-adv-x="1288" d="M1184 1098L1036 414Q1010 294 1010 207Q1010 109 1083 109Q1134 109 1208 154L1245 94Q1115 -20 985 -20Q902 -20 854 34T805 174Q805 254 827 356L860 516H389L281 0H90L262 823Q274
880 274 915Q274 1012 131 1012H115L133 1098H512L408 610H881L983 1098H1184Z" />
<glyph unicode="&#x43e;" glyph-name="afii10080" horiz-adv-x="1176" d="M698 1118Q879 1118 983 1009T1087 694Q1087 421 920 201T481 -20Q296 -20 192 92T88 403Q88 679 256 898T698 1118ZM504 80Q673 80 773 280T874 725Q874 1010 674 1010Q507 1010 404 809T301
362Q301 80 504 80Z" />
<glyph unicode="&#x43f;" glyph-name="afii10081" horiz-adv-x="1227" d="M281 0H90L262 823Q274 880 274 915Q274 1012 131 1012H115L133 1098H512L457 840H477Q643 1116 850 1116Q1069 1116 1069 889Q1069 824 1032 664L979 422Q952 299 952 207Q952 109 1024
109Q1083 109 1155 156L1192 96Q1058 -20 942 -20Q857 -20 807 35T756 184Q756 278 795 461L842 673Q872 797 872 864Q872 985 778 985Q664 985 545 831T391 524L281 0Z" />
<glyph unicode="&#x440;" glyph-name="afii10082" horiz-adv-x="1182" d="M389 -406L371 -492H-14L258 807Q276 893 276 915Q276 1012 133 1012H117L135 1098H498L449 825H459Q607 1118 834 1118Q959 1118 1026 1023T1094 748Q1094 473 923 227T483 -20Q366 -20
283 27Q274 -39 266 -72L238 -197Q219 -282 219 -311Q219 -406 362 -406H389ZM315 145Q381 72 477 72Q648 72 766 295T885 750Q885 989 756 989Q650 989 542 842T399 535L315 145Z" />
<glyph unicode="&#x441;" glyph-name="afii10083" horiz-adv-x="997" d="M821 256Q842 243 842 205Q842 123 746 52T487 -20Q308 -20 198 93T88 403Q88 671 261 894T698 1118Q839 1118 918 1062T997 922Q997 860 948 819T815 778Q815 887 773 953T657 1020Q514
1020 408 806T301 387Q301 109 526 109Q705 109 821 256Z" />
<glyph unicode="&#x442;" glyph-name="afii10084" horiz-adv-x="1835" d="M920 0H725Q725 46 751 212T795 461L842 673Q872 797 872 864Q872 985 778 985Q664 985 544 830T391 524L281 0H90L262 823Q274 880 274 915Q274 1012 131 1012H115L133 1098H512L457 840H477Q643
1116 850 1116Q1069 1116 1069 889Q1069 864 1065 840H1085Q1252 1116 1458 1116Q1677 1116 1677 889Q1677 824 1640 664L1587 422Q1561 303 1561 207Q1561 109 1632 109Q1691 109 1763 156L1800 96Q1670 -20 1550 -20Q1466 -20 1415 35T1364 184Q1364 278 1403
461L1438 621Q1481 818 1481 864Q1481 985 1386 985Q1281 985 1169 851T1012 569L979 422Q966 366 943 203T920 0Z" />
<glyph unicode="&#x443;" glyph-name="afii10085" horiz-adv-x="1081" d="M164 903Q146 963 115 987T23 1012H2L18 1098H317L477 545Q551 288 563 174H569Q846 595 846 854Q846 965 745 965Q745 1034 785 1075T879 1116Q1018 1116 1018 944Q1018 697 742 250T300
-345T-139 -492Q-247 -492 -332 -455L-301 -352Q-229 -375 -141 -375Q152 -375 434 -2L164 903Z" />
<glyph unicode="&#x444;" glyph-name="afii10086" horiz-adv-x="1612" d="M762 -72Q722 -263 617 -377T356 -492Q119 -492 119 -340Q119 -229 270 -229Q270 -397 381 -397Q519 -397 573 -137L614 57Q517 -20 375 -20Q245 -20 167 87T88 387Q88 665 243 891T655
1118Q750 1118 829 1075L856 1194Q907 1418 1006 1497T1241 1577Q1366 1577 1429 1542T1493 1450Q1493 1333 1335 1333Q1335 1483 1231 1483Q1094 1483 1038 1223L999 1040Q1097 1118 1239 1118Q1368 1118 1446 1011T1524 711Q1524 432 1368 206T956 -20Q861 -20
782 23L762 -72ZM639 176L803 952Q792 984 750 1005T666 1026Q506 1026 402 810T297 365Q297 92 459 92Q548 92 639 176ZM975 922L809 145Q820 112 862 92T946 72Q1106 72 1210 289T1315 733Q1315 1006 1155 1006Q1066 1006 975 922Z" />
<glyph unicode="&#x445;" glyph-name="afii10087" horiz-adv-x="1118" d="M-41 0L-18 86H8Q64 86 105 111T221 227L483 545L350 864Q311 959 286 985T203 1012H176L193 1098H465L621 684L893 1098H1155L1122 1012H1096Q1036 1012 996 983T883 864L668 588L809
233Q845 141 870 114T956 86H983L967 0H692L526 451L219 0H-41Z" />
<glyph unicode="&#x446;" glyph-name="afii10088" horiz-adv-x="1227" d="M1079 10Q994 -20 936 -20Q859 -20 811 33T762 174Q762 227 772 295H756Q645 112 558 47T360 -18Q141 -18 141 209Q141 274 178 434L258 793Q276 874 276 915Q276 1012 133 1012H117L135
1098H516L381 485Q340 299 340 238Q340 113 440 113Q545 113 666 264T825 588L932 1098H1130L989 440Q961 309 961 213Q961 109 1028 109Q1086 109 1159 154L1196 94Q1149 -194 1086 -330T858 -467Q761 -467 682 -436L705 -356Q739 -367 786 -367Q871 -367 959
-264T1079 10Z" />
<glyph unicode="&#x447;" glyph-name="afii10089" horiz-adv-x="1247" d="M1147 1098L999 414Q973 294 973 207Q973 109 1047 109Q1097 109 1171 154L1208 94Q1077 -20 948 -20Q865 -20 817 34T768 174Q768 249 791 356L821 508Q655 416 584 397T436 377Q325 377
256 441T186 616Q186 647 197 698L225 823Q238 881 238 915Q238 1012 94 1012H78L96 1098H475L395 727Q377 644 377 614Q377 512 498 512Q653 512 842 606L946 1098H1147Z" />
<glyph unicode="&#x448;" glyph-name="afii10090" horiz-adv-x="1831" d="M1343 258Q1179 -18 971 -18Q752 -18 752 209Q752 234 756 258H735Q571 -18 362 -18Q143 -18 143 209Q143 265 169 379L264 823Q276 879 276 915Q276 1012 133 1012H117L135 1098H514L383
485Q340 284 340 233Q340 113 434 113Q539 113 651 247T809 528L926 1098H1118L989 496Q948 305 948 233Q948 113 1042 113Q1156 113 1276 268T1430 573L1540 1098H1731L1589 440Q1559 301 1559 213Q1559 109 1626 109Q1684 109 1757 154L1794 94Q1664 -20 1534
-20Q1457 -20 1409 33T1360 174Q1360 212 1366 258H1343Z" />
<glyph unicode="&#x449;" glyph-name="afii10091" horiz-adv-x="1845" d="M1343 258Q1179 -18 971 -18Q752 -18 752 209Q752 234 756 258H735Q571 -18 362 -18Q143 -18 143 209Q143 265 169 379L264 823Q276 879 276 915Q276 1012 133 1012H117L135 1098H514L383
485Q340 284 340 233Q340 113 434 113Q539 113 651 247T809 528L926 1098H1118L989 496Q948 305 948 233Q948 113 1042 113Q1156 113 1276 268T1430 573L1540 1098H1731L1589 440Q1559 301 1559 213Q1559 109 1626 109Q1684 109 1757 154L1794 94Q1742 -213 1678
-340T1454 -467Q1357 -467 1278 -436L1300 -356Q1337 -367 1382 -367Q1467 -367 1556 -263T1677 10Q1591 -20 1534 -20Q1457 -20 1409 33T1360 174Q1360 212 1366 258H1343Z" />
<glyph unicode="&#x44a;" glyph-name="afii10092" horiz-adv-x="1243" d="M674 1012Q507 1004 412 1004Q329 1004 286 970T205 838L178 770H78L162 1098H743L807 1032Q668 855 571 623L626 627Q696 633 760 633Q1155 633 1155 344Q1155 175 1036 78T713 -20Q313
-20 313 313Q313 656 674 1012ZM541 518Q506 417 506 301Q506 80 721 80Q824 80 888 153T952 336Q952 526 729 526Q652 526 541 518Z" />
<glyph unicode="&#x44b;" glyph-name="afii10093" horiz-adv-x="1569" d="M94 1012L113 1098H492L391 623Q505 633 578 633Q932 633 932 344Q932 176 826 78T537 -20Q147 -20 147 272Q147 367 172 479L242 823Q254 882 254 915Q254 1012 111 1012H94ZM369 518Q344
392 344 301Q344 80 528 80Q623 80 676 151T729 336Q729 526 537 526Q465 526 369 518ZM1067 1012L1085 1098H1452L1313 440Q1282 293 1282 213Q1282 109 1350 109Q1409 109 1497 162L1534 102Q1392 -20 1257 -20Q1180 -20 1134 35T1087 174Q1087 266 1133 496L1212
872Q1219 905 1219 926Q1219 1012 1094 1012H1067Z" />
<glyph unicode="&#x44c;" glyph-name="afii10094" horiz-adv-x="1081" d="M94 1012L113 1098H492L391 623Q517 633 598 633Q993 633 993 344Q993 175 874 78T551 -20Q147 -20 147 272Q147 367 172 479L242 823Q254 882 254 915Q254 1012 111 1012H94ZM371 518Q344
386 344 301Q344 80 559 80Q665 80 728 154T791 336Q791 526 567 526Q485 526 371 518Z" />
<glyph unicode="&#x44d;" glyph-name="afii10095" horiz-adv-x="979" d="M178 811Q152 840 152 891Q152 983 244 1050T498 1118Q689 1118 790 1008T891 694Q891 429 731 205T332 -20Q171 -20 87 39T2 199Q2 257 46 295T176 334Q176 210 221 144T342 78Q445 78
530 194T655 500H182L207 610H674Q678 650 678 688Q678 989 461 989Q274 989 178 811Z" />
<glyph unicode="&#x44e;" glyph-name="afii10096" horiz-adv-x="1714" d="M676 516H389L281 0H90L262 823Q274 880 274 915Q274 1012 131 1012H115L133 1098H512L408 610H694Q756 846 904 982T1253 1118Q1426 1118 1526 1009T1626 694Q1626 422 1466 201T1044
-20Q868 -20 768 91T668 403Q668 472 676 516ZM1069 80Q1227 80 1320 281T1413 725Q1413 1010 1227 1010Q1071 1010 976 810T881 362Q881 80 1069 80Z" />
<glyph unicode="&#x44f;" glyph-name="afii10097" horiz-adv-x="1208" d="M649 494Q574 494 533 445T442 274Q379 115 310 51T133 -14Q72 -14 38 26T4 123Q4 180 37 217T119 254Q119 216 141 187T199 158Q242 158 277 197T377 383Q423 484 481 510Q353 538 281
613T209 793Q209 1106 676 1106Q854 1106 1083 1055L946 414Q920 292 920 207Q920 109 993 109Q1044 109 1118 154L1155 94Q1025 -20 895 -20Q812 -20 764 34T715 174Q715 254 737 356L766 494H649ZM870 981Q771 1012 678 1012Q399 1012 399 782Q399 694 462 638T616
582H786L870 981Z" />
<glyph unicode="&#x451;" glyph-name="afii10071" horiz-adv-x="1010" d="M821 256Q842 243 842 205Q842 123 746 52T487 -20Q308 -20 198 93T88 403Q88 671 261 894T698 1118Q828 1118 899 1056T971 883Q971 717 799 594T377 471H342Q324 471 305 473Q301 445
301 387Q301 109 526 109Q701 109 821 256ZM324 567H344Q525 567 642 655T760 883Q760 1020 641 1020Q542 1020 456 896T324 567ZM765 1294Q663 1294 663 1397Q663 1526 773 1526Q876 1526 876 1423Q876 1294 765 1294ZM1154 1294Q1052 1294 1052 1397Q1052 1526
1162 1526Q1265 1526 1265 1423Q1265 1294 1154 1294Z" />
<glyph unicode="&#x452;" glyph-name="afii10099" horiz-adv-x="1143" d="M324 -475L342 -381Q393 -395 436 -395Q539 -395 597 -304T696 -16L823 582Q864 775 864 825Q864 946 770 946Q656 946 536 791T383 485L281 0H90L344 1214H160L180 1311H365Q375 1357
375 1374Q375 1470 231 1470H215L233 1556H610L557 1311H909L889 1214H537L530 1180Q480 938 440 801H463Q628 1077 842 1077Q1061 1077 1061 850Q1061 792 1036 677Q1029 647 1024 621L889 -16Q837 -260 734 -376T442 -492Q385 -492 324 -475Z" />
<glyph unicode="&#x453;" glyph-name="afii10100" horiz-adv-x="1020" d="M793 254Q815 234 815 188Q815 90 723 35T451 -20Q271 -20 173 53T74 254Q74 342 116 403T230 505T481 614Q629 670 676 721T723 846Q723 987 559 987Q370 987 276 862Q260 874 260 913Q260
1116 590 1116Q749 1116 842 1051T936 879Q936 687 687 597Q428 503 358 446T287 272Q287 106 487 106Q680 106 793 254ZM604 1268Q721 1403 823 1569H1042L1036 1548Q879 1365 680 1241H598L604 1268Z" />
<glyph unicode="&#x454;" glyph-name="afii10101" horiz-adv-x="1008" d="M821 256Q842 243 842 205Q842 123 746 52T487 -20Q308 -20 198 93T88 403Q88 671 261 894T698 1118Q839 1118 918 1062T997 922Q997 860 948 819T815 778Q815 887 773 953T657 1020Q557
1020 472 910T334 610H803L780 500H309Q301 452 301 387Q301 109 526 109Q705 109 821 256Z" />
</font>
</defs>
</svg>
